<?xml version="1.0" encoding="UTF-8" standalone="no"?>
<!-- Created with Inkscape (http://www.inkscape.org/) -->

<svg
   xmlns:dc="http://purl.org/dc/elements/1.1/"
   xmlns:cc="http://creativecommons.org/ns#"
   xmlns:rdf="http://www.w3.org/1999/02/22-rdf-syntax-ns#"
   xmlns:svg="http://www.w3.org/2000/svg"
   xmlns="http://www.w3.org/2000/svg"
   xmlns:sodipodi="http://sodipodi.sourceforge.net/DTD/sodipodi-0.dtd"
   xmlns:inkscape="http://www.inkscape.org/namespaces/inkscape"
   width="221"
   height="220"
   viewBox="0 0 221 220"
   id="svg3381"
   version="1.1"
   inkscape:version="0.91 r13725"
   sodipodi:docname="ufu_capacitacao.svg">
  <defs
     id="defs3383" />
  <sodipodi:namedview
     id="base"
     pagecolor="#ffffff"
     bordercolor="#666666"
     borderopacity="1.0"
     inkscape:pageopacity="0.0"
     inkscape:pageshadow="2"
     inkscape:zoom="2.0923932"
     inkscape:cx="231.96809"
     inkscape:cy="61.681515"
     inkscape:document-units="px"
     inkscape:current-layer="layer1"
     showgrid="false"
     units="px"
     inkscape:window-width="1440"
     inkscape:window-height="847"
     inkscape:window-x="-8"
     inkscape:window-y="-8"
     inkscape:window-maximized="1" />
  <metadata
     id="metadata3386">
    <rdf:RDF>
      <cc:Work
         rdf:about="">
        <dc:format>image/svg+xml</dc:format>
        <dc:type
           rdf:resource="http://purl.org/dc/dcmitype/StillImage" />
        <dc:title></dc:title>
      </cc:Work>
    </rdf:RDF>
  </metadata>
  <g
     inkscape:label="Camada 1"
     inkscape:groupmode="layer"
     id="layer1"
     transform="translate(0,-832.36216)">
    <path
       style="color:#000000;clip-rule:nonzero;display:inline;overflow:visible;visibility:visible;opacity:1;isolation:auto;mix-blend-mode:normal;color-interpolation:sRGB;color-interpolation-filters:linearRGB;solid-color:#000000;solid-opacity:1;fill:#ffffff;fill-opacity:1;fill-rule:nonzero;stroke:none;stroke-width:5;stroke-linecap:square;stroke-linejoin:miter;stroke-miterlimit:4;stroke-dasharray:none;stroke-dashoffset:0;stroke-opacity:1;color-rendering:auto;image-rendering:auto;shape-rendering:auto;text-rendering:auto;enable-background:accumulate"
       d="M 0 0 L 0 220 L 220 220 L 220 0 L 0 0 z M 141.80078 30 C 143.30957 30 144.53516 31.219725 144.53516 32.728516 L 144.53516 38.185547 L 172.7207 38.185547 C 176.73344 38.185547 179.99805 41.446245 179.99805 45.458984 L 179.99805 89.105469 C 179.99805 93.118208 176.73335 96.378312 172.73438 96.369141 L 159.49609 96.369141 L 171.11133 139.72266 C 171.49655 141.17641 170.62495 142.67394 169.17578 143.06836 C 168.94648 143.13242 168.70848 143.16406 168.47461 143.16406 C 167.26849 143.16406 166.16352 142.36441 165.83789 141.14453 L 153.84375 96.373047 L 144.55859 96.373047 L 144.55859 128.10352 C 144.55859 129.60313 143.32842 130.82812 141.82422 130.82812 C 140.32001 130.82812 139.0918 129.60313 139.0918 128.10352 L 139.0918 96.373047 L 129.79688 96.373047 L 117.80273 141.14453 C 117.64222 141.75906 117.26601 142.27258 116.78906 142.62109 C 120.41658 144.86823 122.8418 148.84115 122.8418 153.41797 C 122.8418 158.39835 119.972 163.92452 115.8125 166.72656 C 125.74452 169.24615 133.11184 177.85617 133.1543 184.26172 C 133.19675 177.85656 140.56206 169.246 150.49805 166.72656 C 146.34339 163.92469 143.46875 158.4 143.46875 153.41992 C 143.46875 146.39461 149.15497 140.69922 156.18945 140.69922 C 163.201 140.69922 168.89648 146.39461 168.89648 153.41992 C 168.89648 158.4 166.02643 163.92469 161.86719 166.72656 C 171.83652 169.25329 179.21484 177.90754 179.21484 184.31836 C 179.21484 191.88006 133.31802 191.89336 133.1543 184.35938 C 132.986 191.89382 87.085938 191.88053 87.085938 184.31836 C 87.085938 177.90715 94.469522 169.25344 104.43945 166.72656 C 100.27538 163.92452 97.400391 158.39835 97.400391 153.41797 C 97.400391 146.39223 103.09537 140.69531 110.12109 140.69531 C 110.93741 140.69531 111.73151 140.79144 112.50195 140.93359 C 112.42854 140.54837 112.41992 140.14518 112.52539 139.73242 L 124.14062 96.376953 L 110.90039 96.376953 C 106.89224 96.376953 103.62891 93.118208 103.62891 89.105469 L 103.62891 76.396484 L 86.919922 70.824219 C 86.906165 70.819633 86.897929 70.815132 86.875 70.810547 C 86.861105 70.805961 86.847828 70.806046 86.820312 70.796875 C 86.783622 70.778531 85.384685 70.278413 83.316406 69.691406 L 83.316406 97.529297 L 86.5625 137.875 C 86.778042 140.56697 84.766195 142.92705 82.074219 143.14258 C 81.945819 143.15184 81.807408 143.15625 81.683594 143.15625 C 79.156712 143.15625 77.020216 141.22244 76.804688 138.6543 L 73.869141 102.18359 C 73.26379 102.44498 72.599414 102.59961 71.902344 102.59961 C 71.191516 102.59961 70.525952 102.44498 69.916016 102.18359 L 66.986328 138.6543 C 66.917539 139.49812 66.582154 140.2276 66.146484 140.89258 C 72.167886 141.90608 76.757813 147.10442 76.757812 153.41016 C 76.757812 158.39054 73.888687 163.91477 69.724609 166.7168 C 79.689964 169.24368 87.072266 177.89934 87.072266 184.31055 C 87.072266 191.8866 41.001953 191.8866 41.001953 184.31055 C 41.001953 177.89934 48.384257 169.24368 58.349609 166.7168 C 54.190118 163.91477 51.320313 158.39054 51.320312 153.41016 C 51.320313 148.23258 54.419545 143.81132 58.849609 141.81641 C 57.776488 140.8396 57.102739 139.44009 57.226562 137.88086 L 60.476562 97.529297 L 60.476562 69.6875 C 59.949174 69.834252 59.478549 69.97638 59.056641 70.109375 L 53.029297 97.199219 C 52.616558 99.097817 50.935537 100.38086 49.064453 100.38086 C 48.761779 100.38086 48.471918 100.35386 48.173828 100.29883 C 45.972555 99.808128 44.59201 97.624422 45.078125 95.427734 L 51.599609 66.072266 C 51.636295 65.925514 51.733435 65.821853 51.779297 65.679688 C 51.86643 65.404528 51.970436 65.168838 52.117188 64.925781 C 52.245592 64.701066 52.39282 64.510379 52.5625 64.308594 C 52.736767 64.115983 52.906825 63.94108 53.126953 63.785156 C 53.342495 63.615476 53.562905 63.491011 53.810547 63.367188 C 53.948123 63.302982 54.043976 63.188525 54.195312 63.128906 C 54.562193 63.000499 62.812706 60.03884 70.375 59.658203 L 73.402344 59.658203 C 80.694065 60.020496 88.609048 62.785809 89.494141 63.097656 L 103.61523 67.806641 L 103.61523 45.460938 C 103.61523 41.448197 106.87857 38.185547 110.88672 38.185547 L 139.06836 38.185547 L 139.06836 32.728516 C 139.06836 31.224311 140.29199 30 141.80078 30 z M 133.1543 184.35938 C 133.15461 184.34554 133.1582 184.33225 133.1582 184.31836 C 133.1582 184.29986 133.15442 184.28026 133.1543 184.26172 C 133.15417 184.28026 133.15039 184.29986 133.15039 184.31836 C 133.15038 184.33225 133.154 184.34554 133.1543 184.35938 z M 71.898438 36.177734 C 77.580478 36.177734 82.201172 40.787218 82.201172 46.492188 C 82.201172 52.178814 77.580478 58.791016 71.898438 58.791016 C 66.20264 58.791016 61.578125 52.178813 61.578125 46.492188 C 61.578125 40.787218 66.20264 36.177734 71.898438 36.177734 z M 110.88672 41.822266 C 108.87347 41.822266 107.24609 43.452274 107.24609 45.460938 L 107.24609 69.017578 L 109.0625 69.623047 C 111.19955 70.333875 112.35078 72.639593 111.64453 74.78125 C 111.07587 76.48265 109.47942 77.566406 107.77344 77.566406 C 107.59915 77.566406 107.42621 77.503397 107.25195 77.480469 L 107.25195 89.105469 C 107.25195 91.109543 108.88392 92.740234 110.89258 92.740234 L 172.7168 92.740234 C 174.73463 92.740234 176.35742 91.109543 176.35742 89.105469 L 176.35742 45.460938 C 176.35742 43.452275 174.72546 41.822266 172.7168 41.822266 L 110.88672 41.822266 z "
       transform="translate(0,832.36216)"
       id="rect3461" />
    <g
       id="g3436"
       transform="matrix(4.5857098,0,0,4.5857098,30.5,862.36216)">
      <g
         id="g3390">
        <g
           id="g3392" />
      </g>
      <g
         id="g3400" />
      <g
         id="g3402" />
      <g
         id="g3404" />
      <g
         id="g3406" />
      <g
         id="g3408" />
      <g
         id="g3410" />
      <g
         id="g3412" />
      <g
         id="g3414" />
      <g
         id="g3416" />
      <g
         id="g3418" />
      <g
         id="g3420" />
      <g
         id="g3422" />
      <g
         id="g3424" />
      <g
         id="g3426" />
      <g
         id="g3428" />
    </g>
  </g>
</svg>
