<?xml version="1.0" encoding="UTF-8" standalone="no"?>
<!-- Created with Inkscape (http://www.inkscape.org/) -->

<svg
   xmlns:dc="http://purl.org/dc/elements/1.1/"
   xmlns:cc="http://creativecommons.org/ns#"
   xmlns:rdf="http://www.w3.org/1999/02/22-rdf-syntax-ns#"
   xmlns:svg="http://www.w3.org/2000/svg"
   xmlns="http://www.w3.org/2000/svg"
   xmlns:sodipodi="http://sodipodi.sourceforge.net/DTD/sodipodi-0.dtd"
   xmlns:inkscape="http://www.inkscape.org/namespaces/inkscape"
   width="220"
   height="220"
   viewBox="0 0 220 220"
   id="svg2"
   version="1.1"
   inkscape:version="0.91 r13725"
   sodipodi:docname="ufu_clinica_psicologica.svg">
  <defs
     id="defs4" />
  <sodipodi:namedview
     id="base"
     pagecolor="#ffffff"
     bordercolor="#666666"
     borderopacity="1.0"
     inkscape:pageopacity="0.0"
     inkscape:pageshadow="2"
     inkscape:zoom="2.9590909"
     inkscape:cx="110"
     inkscape:cy="110"
     inkscape:document-units="px"
     inkscape:current-layer="layer1"
     showgrid="false"
     units="px"
     inkscape:window-width="1440"
     inkscape:window-height="847"
     inkscape:window-x="-8"
     inkscape:window-y="-8"
     inkscape:window-maximized="1" />
  <metadata
     id="metadata7">
    <rdf:RDF>
      <cc:Work
         rdf:about="">
        <dc:format>image/svg+xml</dc:format>
        <dc:type
           rdf:resource="http://purl.org/dc/dcmitype/StillImage" />
        <dc:title></dc:title>
      </cc:Work>
    </rdf:RDF>
  </metadata>
  <g
     inkscape:label="Camada 1"
     inkscape:groupmode="layer"
     id="layer1"
     transform="translate(0,-832.36216)">
    <path
       style="color:#000000;clip-rule:nonzero;display:inline;overflow:visible;visibility:visible;opacity:1;isolation:auto;mix-blend-mode:normal;color-interpolation:sRGB;color-interpolation-filters:linearRGB;solid-color:#000000;solid-opacity:1;fill:#ffffff;fill-opacity:1;fill-rule:nonzero;stroke:none;stroke-width:5;stroke-linecap:square;stroke-linejoin:miter;stroke-miterlimit:4;stroke-dasharray:none;stroke-dashoffset:0;stroke-opacity:1;color-rendering:auto;image-rendering:auto;shape-rendering:auto;text-rendering:auto;enable-background:accumulate"
       d="M 0 0 L 0 220 L 220 220 L 220 0 L 0 0 z M 110 42.5 L 140 72.5 L 140 47.5 L 160 47.5 L 160 92.5 L 190 122.5 L 190 127.5 L 170 127.5 L 170 177.5 L 120 177.5 L 120 147.5 L 100 147.5 L 100 177.5 L 50 177.5 L 50 127.5 L 30 127.5 L 30 122.5 L 110 42.5 z M 135 87.269531 L 134.4375 87.304688 C 131.97454 87.456286 130.05746 88.048409 128.625 89.099609 C 127.47916 89.940509 126.62583 90.936338 126.01562 92.148438 C 125.34924 93.472037 124.98057 95.44015 124.72461 99.03125 C 124.39144 103.70555 123.70319 105.92633 122.05469 107.64453 C 121.4695 108.25443 121.03537 108.61388 120.32031 109.08008 C 118.72453 110.12048 116.86322 110.69446 114.48047 110.88086 C 113.54153 110.95396 113.26727 110.94756 113.23047 110.85156 C 113.17987 110.71966 113.1984 94.367612 113.25 93.570312 C 113.41276 91.057913 114.26782 89.802547 116.15039 89.310547 C 116.82437 89.134447 117.32744 89.077063 118.52539 89.039062 L 119.57422 89.005859 L 119.57422 88.429688 L 119.57422 87.855469 L 110.11328 87.841797 L 100.65039 87.830078 L 100.65039 88.421875 L 100.65039 89.013672 L 101.73828 89.044922 C 103.8851 89.106422 104.93246 89.415716 105.75586 90.228516 C 106.08004 90.548616 106.17554 90.682406 106.38867 91.128906 C 106.6719 91.722206 106.76728 92.041159 106.875 92.755859 C 106.9396 93.184259 106.94906 94.489152 106.94922 102.09766 L 106.94922 110.94336 L 106.28711 110.9082 C 103.04435 110.7346 100.54277 109.85746 98.617188 108.22266 C 96.576816 106.49036 95.716254 104.15167 95.449219 99.605469 C 95.172241 94.889969 94.591167 92.468044 93.328125 90.777344 C 92.673793 89.901544 91.611903 89.014784 90.630859 88.521484 C 89.333519 87.869184 87.635109 87.470986 85.4375 87.304688 L 85 87.271484 L 85 87.894531 L 85 88.517578 L 85.363281 88.552734 C 86.518749 88.663534 87.547432 89.069766 87.943359 89.572266 C 88.352655 90.091766 88.615562 90.936747 88.701172 91.998047 C 88.730379 92.360047 88.798092 94.353387 88.851562 96.429688 C 88.94148 99.920987 88.959555 100.26138 89.072266 100.95508 C 89.319593 102.47718 89.633587 103.61701 90.058594 104.53711 C 91.68164 108.05081 94.653273 110.65913 98.550781 111.99023 C 100.49063 112.65283 102.95301 113.07262 105.84961 113.23242 C 106.38586 113.26242 106.85232 113.29564 106.88672 113.30664 C 106.93632 113.32304 106.94922 114.76875 106.94922 120.31055 C 106.94922 127.92005 106.95271 127.8409 106.66602 128.75 C 106.02912 130.7695 104.54712 131.5293 101.21289 131.5293 L 100.65039 131.5293 L 100.65039 132.13086 L 100.65039 132.73047 L 110.12695 132.73047 L 119.60352 132.73047 L 119.58789 132.14258 L 119.57422 131.55469 L 118.54883 131.51953 C 116.87855 131.46153 116.07743 131.31008 115.25391 130.89648 C 114.17933 130.35688 113.58633 129.41737 113.31836 127.82617 C 113.2384 127.35167 113.22969 126.69555 113.21289 120.40625 C 113.20309 116.61225 113.2058 113.45939 113.2207 113.40039 C 113.246 113.29979 113.28869 113.29177 113.86133 113.25977 C 120.22275 112.90967 124.2313 111.51592 127.24023 108.60742 C 128.32088 107.56282 129.08064 106.52418 129.72656 105.20508 C 130.30478 104.02418 130.56619 103.1539 130.84961 101.4668 C 131.13438 99.771794 131.27501 97.936163 131.34961 94.976562 C 131.42708 91.904364 131.5445 90.866169 131.90234 90.105469 C 132.26785 89.328369 133.28195 88.740666 134.54688 88.572266 L 135 88.511719 L 135 87.890625 L 135 87.269531 z "
       transform="translate(0,832.36216)"
       id="rect4348" />
    <g
       id="g4183"
       transform="matrix(0.9959374,0,0,0.9959374,29.673666,-38.85735)">
      <g
         id="g4213"
         transform="translate(30.122388,8.5266673)" />
    </g>
    <g
       id="g4323"
       transform="matrix(0.87499997,0,0,0.87499997,40.000001,131.54529)" />
    <g
       id="g4391"
       transform="matrix(0.3125,0,0,0.3125,30,862.36216)"
       style="fill:#ffff00">
      <g
         id="g4351"
         style="fill:#ffff00" />
      <g
         id="g4355"
         style="fill:#ffff00" />
      <g
         id="g4357"
         style="fill:#ffff00" />
      <g
         id="g4359"
         style="fill:#ffff00" />
      <g
         id="g4361"
         style="fill:#ffff00" />
      <g
         id="g4363"
         style="fill:#ffff00" />
      <g
         id="g4365"
         style="fill:#ffff00" />
      <g
         id="g4367"
         style="fill:#ffff00" />
      <g
         id="g4369"
         style="fill:#ffff00" />
      <g
         id="g4371"
         style="fill:#ffff00" />
      <g
         id="g4373"
         style="fill:#ffff00" />
      <g
         id="g4375"
         style="fill:#ffff00" />
      <g
         id="g4377"
         style="fill:#ffff00" />
      <g
         id="g4379"
         style="fill:#ffff00" />
      <g
         id="g4381"
         style="fill:#ffff00" />
      <g
         id="g4383"
         style="fill:#ffff00" />
    </g>
  </g>
</svg>
