<?xml version="1.0" encoding="UTF-8" standalone="no"?>
<!-- Created with Inkscape (http://www.inkscape.org/) -->

<svg
   xmlns:dc="http://purl.org/dc/elements/1.1/"
   xmlns:cc="http://creativecommons.org/ns#"
   xmlns:rdf="http://www.w3.org/1999/02/22-rdf-syntax-ns#"
   xmlns:svg="http://www.w3.org/2000/svg"
   xmlns="http://www.w3.org/2000/svg"
   xmlns:sodipodi="http://sodipodi.sourceforge.net/DTD/sodipodi-0.dtd"
   xmlns:inkscape="http://www.inkscape.org/namespaces/inkscape"
   width="220"
   height="220"
   viewBox="0 0 220 220"
   id="svg2"
   version="1.1"
   inkscape:version="0.91 r13725"
   sodipodi:docname="ufu_manejo_solos.svg">
  <defs
     id="defs4" />
  <sodipodi:namedview
     id="base"
     pagecolor="#ffffff"
     bordercolor="#666666"
     borderopacity="1.0"
     inkscape:pageopacity="0.0"
     inkscape:pageshadow="2"
     inkscape:zoom="1.4795455"
     inkscape:cx="189.05192"
     inkscape:cy="184.675"
     inkscape:document-units="px"
     inkscape:current-layer="g4487"
     showgrid="false"
     units="px"
     inkscape:window-width="1440"
     inkscape:window-height="847"
     inkscape:window-x="-8"
     inkscape:window-y="-8"
     inkscape:window-maximized="1" />
  <metadata
     id="metadata7">
    <rdf:RDF>
      <cc:Work
         rdf:about="">
        <dc:format>image/svg+xml</dc:format>
        <dc:type
           rdf:resource="http://purl.org/dc/dcmitype/StillImage" />
        <dc:title></dc:title>
      </cc:Work>
    </rdf:RDF>
  </metadata>
  <g
     inkscape:label="Camada 1"
     inkscape:groupmode="layer"
     id="layer1"
     transform="translate(0,-832.36216)">
    <g
       id="g4183"
       transform="matrix(0.9959374,0,0,0.9959374,29.673666,-38.85735)">
      <g
         id="g4213"
         transform="translate(30.122388,8.5266673)" />
    </g>
    <g
       id="g4323"
       transform="matrix(0.87499997,0,0,0.87499997,40.000001,131.54529)" />
    <g
       id="g4391"
       transform="matrix(0.3125,0,0,0.3125,30,862.36216)"
       style="fill:#ffff00">
      <g
         id="g4351"
         style="fill:#ffff00" />
      <g
         id="g4355"
         style="fill:#ffff00" />
      <g
         id="g4357"
         style="fill:#ffff00" />
      <g
         id="g4359"
         style="fill:#ffff00" />
      <g
         id="g4361"
         style="fill:#ffff00" />
      <g
         id="g4363"
         style="fill:#ffff00" />
      <g
         id="g4365"
         style="fill:#ffff00" />
      <g
         id="g4367"
         style="fill:#ffff00" />
      <g
         id="g4369"
         style="fill:#ffff00" />
      <g
         id="g4371"
         style="fill:#ffff00" />
      <g
         id="g4373"
         style="fill:#ffff00" />
      <g
         id="g4375"
         style="fill:#ffff00" />
      <g
         id="g4377"
         style="fill:#ffff00" />
      <g
         id="g4379"
         style="fill:#ffff00" />
      <g
         id="g4381"
         style="fill:#ffff00" />
      <g
         id="g4383"
         style="fill:#ffff00" />
    </g>
    <g
       id="g4487"
       transform="matrix(0.85829339,0,0,0.85829339,42.536137,733.53285)">
      <path
         style="color:#000000;clip-rule:nonzero;display:inline;overflow:visible;visibility:visible;opacity:1;isolation:auto;mix-blend-mode:normal;color-interpolation:sRGB;color-interpolation-filters:linearRGB;solid-color:#000000;solid-opacity:1;fill:#ffffff;fill-opacity:1;fill-rule:nonzero;stroke:none;stroke-width:5;stroke-linecap:square;stroke-linejoin:miter;stroke-miterlimit:4;stroke-dasharray:none;stroke-dashoffset:0;stroke-opacity:1;color-rendering:auto;image-rendering:auto;shape-rendering:auto;text-rendering:auto;enable-background:accumulate"
         d="M 0 0 L 0 220 L 220 220 L 220 0 L 0 0 z M 125.79883 35.125 C 125.94153 35.531462 126.10317 35.931861 126.29297 36.318359 C 126.60613 36.958123 127.10794 37.418994 127.63672 37.876953 C 128.2027 38.366858 128.81383 38.806918 129.4082 39.261719 C 129.99794 39.713164 130.58057 40.17789 131.10156 40.708984 C 133.10806 42.752873 134.3859 45.202654 134.2207 48.113281 C 134.12677 49.767307 133.72307 51.454311 133.0625 52.976562 C 132.79936 49.012998 129.69383 46.237233 127.68945 43.080078 C 125.17439 39.117775 125.79883 35.125 125.79883 35.125 z M 141.85156 35.652344 C 142.02538 35.647297 142.17093 35.76964 142.1875 35.939453 C 142.89808 43.002796 140.70636 49.820775 137.84766 57.263672 C 141.73471 53.476229 146.96456 48.119579 146.94336 43.449219 C 146.936 41.75778 146.26428 40.298952 144.89062 38.990234 C 144.76762 38.873172 144.75831 38.680667 144.86719 38.550781 C 144.97563 38.420921 145.16591 38.397798 145.30273 38.498047 C 146.95551 39.711142 147.92417 41.251613 148.18164 43.080078 C 148.69654 46.736168 146.31473 50.727407 144.22461 53.431641 C 143.57435 54.27421 142.91383 55.113237 142.25391 55.951172 C 137.76196 61.657467 133.51599 67.051383 132.58789 73.132812 C 131.5217 80.113785 134.15664 86.366739 140.63867 92.255859 C 141.52222 93.058922 142.42536 93.861429 143.33203 94.664062 C 148.3473 99.102813 153.52295 103.68509 155.33984 108.94141 C 157.72757 101.4966 157.58214 94.782457 154.90039 88.443359 C 153.91954 86.126259 152.81036 83.78203 151.73828 81.513672 C 151.17419 80.321391 150.61169 79.125836 150.0625 77.931641 C 148.89082 75.379162 147.28464 71.886808 150.35352 69.257812 C 150.48487 69.146629 150.68156 69.156485 150.79883 69.283203 C 150.91638 69.409312 150.91444 69.6062 150.79297 69.728516 C 148.4418 72.100907 150.47843 75.622147 152.11523 78.453125 C 152.4183 78.97665 152.70606 79.475055 152.94922 79.935547 C 156.20452 85.967384 159.57284 92.207138 160.40234 98.712891 C 161.25314 105.38848 158.68378 111.93559 156.21094 117.54688 C 153.7779 123.06647 150.80454 128.23114 147.23242 133.2832 L 190 133.2832 L 190 136.00195 L 164.25 144.15039 L 138.8457 147.76562 L 106.17773 136.90625 L 98.498047 133.2832 L 139.875 133.2832 C 139.92256 133.21682 139.9538 133.16681 140.00195 133.09961 L 141.05273 131.63867 C 146.47423 124.11421 152.08002 116.33329 149.85352 108.34961 C 148.44326 103.29422 143.43446 98.850755 138.58984 94.554688 C 135.1248 91.482023 131.54061 88.30616 129.23633 84.886719 C 127.59701 82.454435 126.73789 79.77199 125.90625 77.175781 C 124.21881 71.909164 122.62626 66.932802 115.10938 63.390625 C 114.95353 63.317284 114.88109 63.133497 114.94727 62.974609 C 115.01347 62.816357 115.19274 62.737824 115.35352 62.796875 C 123.44079 65.759815 125.66658 70.813491 127.81641 75.701172 C 128.09866 76.342609 128.36945 76.967736 128.65234 77.576172 C 128.273 70.212504 131.74515 63.051729 135.10742 56.111328 C 138.27425 49.574669 141.54492 42.817968 141.54492 35.976562 C 141.54492 35.804861 141.68068 35.661184 141.85156 35.652344 z M 124.81055 37.292969 C 125.07474 39.311005 125.80288 41.362865 126.91992 43.0625 C 128.59791 45.617519 130.79932 47.821755 132 50.677734 C 132.83605 52.66761 132.89066 55.057459 132.67188 57.181641 C 132.25321 55.276667 130.90586 53.689448 129.55469 52.363281 C 127.85694 50.697059 126.0713 49.136457 124.76953 47.123047 C 122.87757 44.194979 123.07604 40.2576 124.81055 37.292969 z M 39.011719 38.347656 C 39.318921 38.347656 39.625056 38.464819 39.859375 38.699219 L 42.978516 41.818359 L 44.523438 43.363281 C 45.793304 44.633152 46.494141 46.321226 46.494141 48.117188 C 46.494141 48.695943 46.420304 49.264604 46.279297 49.810547 L 84.380859 87.910156 C 84.682402 87.921846 84.969442 88.045613 85.183594 88.259766 L 89.912109 92.988281 L 96.142578 86.755859 C 96.367775 86.53066 96.67384 86.404297 96.992188 86.404297 C 97.312295 86.404614 97.616921 86.531824 97.841797 86.757812 L 110.92188 99.894531 C 114.10359 103.07657 115.41812 107.68005 114.72461 113.20703 C 114.2142 117.27416 112.80954 120.39822 112.75 120.5293 C 112.62996 120.79355 112.41855 121.0048 112.1543 121.125 C 111.96063 121.21303 107.34702 123.28289 102.01562 123.2832 C 97.694331 123.2832 94.163781 121.94112 91.519531 119.29688 L 78.410156 106.1875 C 78.18496 105.96247 78.058594 105.65818 78.058594 105.33984 C 78.058594 105.02149 78.18496 104.71526 78.410156 104.49023 L 84.642578 98.257812 L 79.914062 93.529297 C 79.691589 93.306819 79.575817 93.018022 79.564453 92.726562 L 41.462891 54.626953 C 40.916786 54.767979 40.350399 54.841797 39.771484 54.841797 C 37.97568 54.841797 36.285492 54.140965 35.015625 52.871094 L 33.470703 51.326172 L 30.351562 48.207031 C 29.882605 47.738077 29.88276 46.978557 30.351562 46.509766 L 38.162109 38.699219 C 38.396511 38.464819 38.704516 38.347665 39.011719 38.347656 z M 39.375 41.611328 L 33.263672 47.722656 L 36.714844 51.173828 C 37.531279 51.990108 38.615063 52.439453 39.769531 52.439453 C 40.924 52.439453 42.009737 51.990108 42.826172 51.173828 C 43.642607 50.357557 44.091797 49.271815 44.091797 48.117188 C 44.091797 46.96256 43.642448 45.876827 42.826172 45.060547 L 39.375 41.611328 z M 161.875 42.273438 C 160.97402 43.304317 159.82967 44.321531 158.53125 44.798828 C 156.66748 45.483557 154.67211 45.414178 152.74023 45.744141 C 151.45507 45.963349 150.17506 46.519059 149.11328 47.277344 C 149.7461 45.168517 151.50678 43.355268 153.70703 42.962891 C 155.22046 42.693489 156.73038 42.847695 158.25391 42.916016 C 159.46613 42.970028 160.79915 42.909407 161.875 42.273438 z M 160.07422 44.291016 C 159.64863 45.265359 159.03378 46.194456 158.29883 46.960938 C 157.00608 48.310218 155.30004 48.780143 153.46484 48.732422 C 152.98756 48.720226 152.51425 48.649361 152.04492 48.570312 C 151.57226 48.490448 151.09839 48.397201 150.62109 48.345703 C 150.17555 48.297622 149.74205 48.264496 149.30469 48.396484 C 149.04113 48.476134 148.78018 48.574999 148.52734 48.685547 C 148.52734 48.685547 150.12907 46.649341 153.08594 46.097656 C 155.44235 45.658613 158.10117 45.899432 160.07422 44.291016 z M 165.44336 51.261719 C 165.01523 53.353732 164.24605 55.618732 162.85156 57.265625 C 160.84971 59.630438 158.09 61.07191 155.72266 63.005859 C 154.14704 64.292733 152.83384 66.030618 151.97656 67.876953 C 151.21134 64.528339 152.20481 60.712226 154.88867 58.486328 C 156.73436 56.955665 158.90388 56.003681 161.02344 54.923828 C 162.71024 54.064239 164.47301 52.953158 165.44336 51.261719 z M 164.55469 55.388672 C 164.72829 57.038904 164.60826 58.77237 164.20117 60.378906 C 163.48596 63.20482 161.52923 65.159168 159.00195 66.507812 C 158.34603 66.858159 157.65261 67.125023 156.95508 67.378906 C 156.25207 67.634892 155.53664 67.872103 154.84961 68.169922 C 154.20775 68.448395 153.59098 68.736196 153.09961 69.251953 C 152.80264 69.564054 152.52762 69.89927 152.26953 70.244141 C 152.26953 70.244141 152.87121 66.247823 156.45898 63.222656 C 159.31853 60.811616 163.11524 59.090989 164.55469 55.388672 z M 110.60352 63.347656 C 112.48641 63.358093 114.29113 63.856275 115.90625 65.042969 C 117.24186 66.024238 118.43452 67.284005 119.34961 68.667969 C 115.88435 66.725814 111.86322 67.813283 108.12305 67.771484 C 103.43083 67.71809 100.42383 65.015625 100.42383 65.015625 C 100.84206 65.117968 101.26761 65.199855 101.69531 65.251953 C 102.40296 65.337482 103.06226 65.168172 103.73438 64.974609 C 104.454 64.767383 105.15385 64.497527 105.85938 64.248047 C 106.55967 64.000472 107.27071 63.764514 108 63.617188 C 108.87745 63.440113 109.74764 63.342506 110.60352 63.347656 z M 101.70508 67.025391 C 103.54111 67.90515 105.65588 68.414833 107.68945 68.40625 C 110.74615 68.394062 113.79373 67.750423 116.8418 68.302734 C 118.96534 68.687353 121.00094 69.94497 122.66211 71.287109 C 120.83744 70.598338 118.77093 70.864426 116.92188 71.273438 C 114.59972 71.787075 112.31815 72.431553 109.91992 72.423828 C 106.43343 72.412061 103.2433 70.09615 101.70508 67.025391 z M 146.83008 67.966797 C 145.92972 68.997676 144.78302 70.016209 143.48438 70.494141 C 141.61996 71.179076 139.62849 71.112285 137.69727 71.441406 C 136.41207 71.660812 135.12816 72.21438 134.06641 72.972656 C 134.69941 70.863838 136.46011 69.048619 138.66016 68.65625 C 140.17358 68.387046 141.68353 68.543265 143.20703 68.611328 C 144.41971 68.665341 145.75423 68.602767 146.83008 67.966797 z M 145.0293 69.988281 C 144.60371 70.963242 143.98906 71.887815 143.25391 72.654297 C 141.96114 74.003586 140.25532 74.475198 138.41992 74.427734 C 137.94264 74.415529 137.46755 74.344674 136.99805 74.265625 C 136.52535 74.185752 136.05543 74.094466 135.57812 74.042969 C 135.13237 73.994879 134.69454 73.959388 134.25781 74.091797 C 133.99405 74.171447 133.73527 74.270311 133.48242 74.380859 C 133.48242 74.380859 135.08262 72.342495 138.03906 71.791016 C 140.39547 71.35175 143.05623 71.596689 145.0293 69.988281 z M 146.10156 81.667969 C 147.80643 81.685375 149.38414 82.180368 150.5957 83.445312 C 151.33087 84.211803 151.94396 85.138311 152.36914 86.113281 C 150.39586 84.504857 147.73902 84.747843 145.38281 84.308594 C 142.42573 83.757526 140.82422 81.71875 140.82422 81.71875 C 141.07684 81.829298 141.3352 81.928163 141.59961 82.007812 C 142.03657 82.139818 142.47241 82.104362 142.91797 82.056641 C 143.39527 82.005152 143.86718 81.913634 144.33984 81.833984 C 144.80936 81.754953 145.2831 81.684063 145.75977 81.671875 C 145.87449 81.668442 145.98789 81.66711 146.10156 81.667969 z M 141.41016 83.130859 C 142.47277 83.888938 143.75214 84.440742 145.03711 84.660156 C 146.96856 84.989492 148.96456 84.920516 150.82812 85.605469 C 152.12677 86.082749 153.27171 87.103895 154.17188 88.134766 C 153.09602 87.497972 151.76303 87.434295 150.55078 87.488281 C 149.02726 87.556541 147.51517 87.714748 146.00195 87.445312 C 143.80192 87.052927 142.04256 85.239695 141.41016 83.130859 z M 173.31445 90.972656 C 172.68478 92.18806 171.81528 93.450287 170.66797 94.222656 C 169.02046 95.331494 167.06709 95.738059 165.26953 96.517578 C 164.07346 97.035859 162.96078 97.878777 162.10938 98.867188 C 162.22182 96.668403 163.50123 94.490501 165.54492 93.585938 C 166.95094 92.964688 168.45325 92.756851 169.94922 92.460938 C 171.13959 92.225765 172.42039 91.846536 173.31445 90.972656 z M 127.58594 91.078125 C 128.73547 91.079721 129.89543 91.282996 131.05469 91.726562 C 132.81171 92.398666 134.49542 93.417098 135.91406 94.65625 C 131.53624 93.573238 127.46236 95.975469 123.35547 97.054688 C 118.20214 98.409229 114.0957 96.355469 114.0957 96.355469 C 114.58435 96.341178 115.07499 96.304519 115.55859 96.232422 C 116.35871 96.113686 117.03119 95.730653 117.70898 95.316406 C 118.43449 94.873372 119.11929 94.36655 119.81641 93.880859 C 120.50829 93.398524 121.21249 92.925747 121.9668 92.544922 C 123.78159 91.62884 125.67009 91.07555 127.58594 91.078125 z M 172.04492 93.365234 C 171.86356 94.413133 171.48812 95.457257 170.95703 96.376953 C 170.02202 97.994836 168.47585 98.859708 166.68164 99.25 C 166.21613 99.351673 165.73845 99.395012 165.26367 99.429688 C 164.78534 99.464371 164.3061 99.487096 163.83008 99.550781 C 163.38577 99.610055 162.9555 99.680078 162.5625 99.912109 C 162.32459 100.05229 162.09421 100.21181 161.875 100.37891 C 161.875 100.37891 162.94843 98.018029 165.68945 96.779297 C 167.87332 95.791504 170.51049 95.3963 172.04492 93.365234 z M 133.98047 94.974609 C 136.14483 94.988265 138.38731 95.680797 140.33203 96.529297 C 138.12694 96.324165 135.94393 97.233675 134.04297 98.238281 C 131.65503 99.500762 129.3504 100.8941 126.72266 101.60742 C 122.90243 102.64459 118.7119 101.0729 116.10352 98.173828 C 118.37816 98.584084 120.84826 98.500791 123.07227 97.878906 C 126.41457 96.94492 129.55878 95.325279 133.0625 95.011719 C 133.36759 94.984511 133.67128 94.972893 133.98047 94.974609 z M 30 133.2832 L 51.732422 133.2832 L 46.693359 144.76562 L 30 153.70312 L 30 133.2832 z M 57.832031 133.2832 L 91.65625 133.2832 L 96.441406 138.11719 L 81.126953 157.0625 L 66.439453 165.91016 L 51.111328 146.67188 L 57.832031 133.2832 z M 102.55078 140.53516 L 135.20312 151.39258 L 152.41406 175.72266 L 127.96094 180.36133 L 88.03125 158.63281 L 102.55078 140.53516 z M 190 140.53516 L 190 150.00195 L 173.05664 145.125 L 190 140.53516 z M 168.28125 148.84375 L 190 155.8457 L 190 182.62109 L 159.8457 175.55664 L 143.67969 152.14258 L 168.28125 148.84375 z M 47.087891 151.31445 L 61.126953 169.62891 L 42.541016 184.875 L 30 184.875 L 30 159.46094 L 47.087891 151.31445 z M 83.572266 162.85938 L 120.69727 183.98438 L 120.89062 184.875 L 61.015625 184.875 L 57.541016 180.57031 L 83.572266 162.85938 z M 156.99219 180.36133 L 175.67773 184.875 L 136.60938 184.875 L 156.99219 180.36133 z "
         transform="matrix(1.1651028,0,0,1.1651028,-49.558971,115.1463)"
         id="rect4723" />
      <g
         id="g4413"
         transform="translate(-13.082745,8.036776)">
        <g
           id="g4415" />
      </g>
      <g
         id="g4451" />
      <g
         id="g4453" />
      <g
         id="g4455" />
      <g
         id="g4457" />
      <g
         id="g4459" />
      <g
         id="g4461" />
      <g
         id="g4463" />
      <g
         id="g4465" />
      <g
         id="g4467" />
      <g
         id="g4469" />
      <g
         id="g4471" />
      <g
         id="g4473" />
      <g
         id="g4475" />
      <g
         id="g4477" />
      <g
         id="g4479" />
    </g>
    <g
       id="g4564"
       transform="translate(114.4606,926.67259)">
      <g
         id="g4524" />
      <g
         id="g4528" />
      <g
         id="g4530" />
      <g
         id="g4532" />
      <g
         id="g4534" />
      <g
         id="g4536" />
      <g
         id="g4538" />
      <g
         id="g4540" />
      <g
         id="g4542" />
      <g
         id="g4544" />
      <g
         id="g4546" />
      <g
         id="g4548" />
      <g
         id="g4550" />
      <g
         id="g4552" />
      <g
         id="g4554" />
      <g
         id="g4556" />
    </g>
    <g
       id="g4698"
       transform="matrix(-0.16005387,0,0,0.16005387,84.920308,888.20887)">
      <g
         id="g4658" />
      <g
         id="g4662" />
      <g
         id="g4664" />
      <g
         id="g4666" />
      <g
         id="g4668" />
      <g
         id="g4670" />
      <g
         id="g4672" />
      <g
         id="g4674" />
      <g
         id="g4676" />
      <g
         id="g4678" />
      <g
         id="g4680" />
      <g
         id="g4682" />
      <g
         id="g4684" />
      <g
         id="g4686" />
      <g
         id="g4688" />
      <g
         id="g4690" />
    </g>
  </g>
</svg>
