<?xml version="1.0" encoding="UTF-8" standalone="no"?>
<!-- Created with Inkscape (http://www.inkscape.org/) -->

<svg
   xmlns:dc="http://purl.org/dc/elements/1.1/"
   xmlns:cc="http://creativecommons.org/ns#"
   xmlns:rdf="http://www.w3.org/1999/02/22-rdf-syntax-ns#"
   xmlns:svg="http://www.w3.org/2000/svg"
   xmlns="http://www.w3.org/2000/svg"
   xmlns:sodipodi="http://sodipodi.sourceforge.net/DTD/sodipodi-0.dtd"
   xmlns:inkscape="http://www.inkscape.org/namespaces/inkscape"
   width="220"
   height="220"
   viewBox="0 0 220 220"
   id="svg2"
   version="1.1"
   inkscape:version="0.91 r13725"
   sodipodi:docname="ufu_revista_horizonte_cientifico.svg">
  <defs
     id="defs4" />
  <sodipodi:namedview
     id="base"
     pagecolor="#ffffff"
     bordercolor="#666666"
     borderopacity="1.0"
     inkscape:pageopacity="0.0"
     inkscape:pageshadow="2"
     inkscape:zoom="1.4795455"
     inkscape:cx="140.19665"
     inkscape:cy="81.28442"
     inkscape:document-units="px"
     inkscape:current-layer="layer1"
     showgrid="false"
     units="px"
     inkscape:window-width="1440"
     inkscape:window-height="847"
     inkscape:window-x="-8"
     inkscape:window-y="-8"
     inkscape:window-maximized="1" />
  <metadata
     id="metadata7">
    <rdf:RDF>
      <cc:Work
         rdf:about="">
        <dc:format>image/svg+xml</dc:format>
        <dc:type
           rdf:resource="http://purl.org/dc/dcmitype/StillImage" />
        <dc:title></dc:title>
      </cc:Work>
    </rdf:RDF>
  </metadata>
  <g
     inkscape:label="Camada 1"
     inkscape:groupmode="layer"
     id="layer1"
     transform="translate(0,-832.36216)">
    <path
       style="color:#000000;clip-rule:nonzero;display:inline;overflow:visible;visibility:visible;opacity:1;isolation:auto;mix-blend-mode:normal;color-interpolation:sRGB;color-interpolation-filters:linearRGB;solid-color:#000000;solid-opacity:1;fill:#ffffff;fill-opacity:1;fill-rule:nonzero;stroke:none;stroke-width:5;stroke-linecap:square;stroke-linejoin:miter;stroke-miterlimit:4;stroke-dasharray:none;stroke-dashoffset:0;stroke-opacity:1;color-rendering:auto;image-rendering:auto;shape-rendering:auto;text-rendering:auto;enable-background:accumulate"
       d="M 0 0 L 0 220 L 220 220 L 220 0 L 0 0 z M 89.285156 46.173828 C 89.639102 46.152569 90.000003 46.183531 90.357422 46.273438 C 90.734103 46.367606 127.9917 55.597656 152.01367 55.597656 C 162.7833 55.597656 166.82313 53.713291 168.28711 52.591797 C 169.61406 51.547437 171.51466 51.60825 172.79883 52.738281 C 174.0658 53.868322 174.36608 55.751665 173.48438 57.207031 L 160.48047 78.951172 C 161.99577 79.858634 166.42076 81.639133 172.24219 76.5625 C 175.18715 74.011346 177.3538 75.494144 177.95312 76.007812 C 179.71667 77.531655 181.02719 78.694234 170.39453 97.160156 C 172.05535 97.408423 176.89896 97.511902 183.14844 92.058594 C 186.0934 89.490313 188.25108 91.005123 188.8418 91.527344 C 191.74394 94.095619 193.19957 95.378858 141.43164 171.78516 C 140.98647 172.52998 140.19094 173.83203 135.48242 173.83203 C 126.15957 173.83203 101.46163 168.72035 33.582031 143.9707 C 31.929765 143.37145 31.065306 141.66038 31.390625 139.98242 C 30.286268 139.1349 29.737812 137.67974 30.123047 136.25 L 30.123047 136.23438 C 29.592266 133.31511 33.897331 123.16921 86.589844 47.6875 C 87.225489 46.782187 88.223334 46.23956 89.285156 46.175781 L 89.285156 46.173828 z M 91.007812 53.740234 C 73.65481 78.643975 48.426327 115.70515 39.908203 130.18164 C 43.931835 129.41987 48.510511 129.03516 53.595703 129.03516 C 77.557742 129.03516 106.69175 137.3379 115.64648 140.08594 L 162.36328 62.001953 C 159.39265 62.464258 155.95123 62.695312 151.99609 62.695312 C 130.40544 62.695312 99.782762 55.820543 91.007812 53.740234 z M 105.14648 66.599609 C 105.24481 66.596364 105.34566 66.612903 105.44336 66.650391 L 105.44141 66.654297 L 106.25 66.964844 L 115.31641 70.447266 L 116.19922 70.787109 C 116.58976 70.937094 116.78456 71.373812 116.63477 71.763672 L 116.08789 73.193359 C 115.93782 73.584226 115.49801 73.779021 115.10742 73.628906 L 114.22461 73.289062 L 110.96875 81.769531 L 112.2832 92.351562 L 112.88281 97.171875 L 101.92188 96.705078 L 90.765625 88.566406 L 94.179688 85.414062 L 93.5625 85.177734 L 93.662109 85.177734 L 94.205078 85.386719 L 101.90039 78.28125 L 105.1582 69.800781 L 104.35156 69.490234 C 103.96102 69.340168 103.7659 68.902309 103.91602 68.511719 L 104.46484 67.083984 C 104.57718 66.791837 104.85143 66.609337 105.14648 66.599609 z M 107.98438 70.886719 L 104.72656 79.367188 L 104.47266 80.027344 L 103.95312 80.503906 L 97.601562 86.369141 L 109.03711 90.761719 L 107.96484 82.136719 L 107.87109 81.386719 L 108.14258 80.679688 L 111.40039 72.199219 L 107.98438 70.886719 z M 82.080078 82.296875 L 116.06055 110.39648 L 68.439453 92.060547 L 82.080078 82.296875 z M 156.82422 85.041016 L 120.28711 146.12109 C 119.63648 147.20828 118.4715 147.85156 117.25586 147.85156 C 116.88773 147.85156 116.51071 147.8017 116.14258 147.67188 C 115.79158 147.55203 80.53694 136.11523 53.595703 136.11523 C 50.625062 136.11523 47.911738 136.3034 45.369141 136.58594 C 112.63235 153.76771 126.80059 151.17221 128.99219 150.45312 C 144.39331 126.36266 160.77057 99.874911 168.17578 86.605469 C 163.4159 87.761193 159.37537 86.556298 156.82422 85.041016 z M 101.56836 97.324219 L 123.55078 98.261719 L 127.15039 114.64844 L 118.51367 111.33789 L 101.56836 97.324219 z M 177.8418 103.25781 C 171.85771 105.22681 167.73151 103.86561 167.47461 103.77148 C 167.20067 103.67733 166.985 103.49713 166.75391 103.35156 C 159.99935 114.71191 149.78773 131.08854 134.56641 154.89648 L 134.55664 154.88867 C 133.10985 157.10586 128.81209 158.04688 122.49414 158.04688 C 111.32212 158.04688 93.841619 155.06911 74.742188 150.88281 C 100.85302 159.60641 116.02247 163.56818 124.63477 165.33203 C 131.60336 166.7535 134.80613 166.85046 136.10742 166.80664 C 136.15028 166.78931 136.20965 166.78785 136.26953 166.7793 C 149.66739 146.9693 168.72442 118.22232 177.8418 103.25781 z "
       transform="translate(0,832.36216)"
       id="rect4136" />
    <g
       id="g4250"
       transform="matrix(16.228614,0,0,16.228614,130.19621,912.19987)">
      <g
         id="g4192">
        <g
           id="g4194">
          <path
             id="path4202"
             d="M 9.037,8.823 C 9.058,8.816 9.078,8.81 9.099,8.802 9.099,8.795 9.101,8.791 9.101,8.791 9.078,8.803 9.058,8.811 9.037,8.823 Z"
             style="fill:#030104"
             inkscape:connector-curvature="0" />
          <polygon
             id="polygon4204"
             points="6.853,8.368 6.853,8.372 6.853,8.368 "
             style="fill:#030104" />
          <polygon
             id="polygon4206"
             points="6.845,8.372 6.853,8.368 6.853,8.365 "
             style="fill:#030104" />
        </g>
      </g>
      <g
         id="g4214" />
      <g
         id="g4216" />
      <g
         id="g4218" />
      <g
         id="g4220" />
      <g
         id="g4222" />
      <g
         id="g4224" />
      <g
         id="g4226" />
      <g
         id="g4228" />
      <g
         id="g4230" />
      <g
         id="g4232" />
      <g
         id="g4234" />
      <g
         id="g4236" />
      <g
         id="g4238" />
      <g
         id="g4240" />
      <g
         id="g4242" />
    </g>
  </g>
</svg>
