<?xml version="1.0" encoding="UTF-8" standalone="no"?>
<!-- Created with Inkscape (http://www.inkscape.org/) -->

<svg
   xmlns:dc="http://purl.org/dc/elements/1.1/"
   xmlns:cc="http://creativecommons.org/ns#"
   xmlns:rdf="http://www.w3.org/1999/02/22-rdf-syntax-ns#"
   xmlns:svg="http://www.w3.org/2000/svg"
   xmlns="http://www.w3.org/2000/svg"
   xmlns:sodipodi="http://sodipodi.sourceforge.net/DTD/sodipodi-0.dtd"
   xmlns:inkscape="http://www.inkscape.org/namespaces/inkscape"
   width="220"
   height="220"
   viewBox="0 0 220 220"
   id="svg2"
   version="1.1"
   inkscape:version="0.91 r13725"
   sodipodi:docname="ufu_cdhis.svg">
  <defs
     id="defs4" />
  <sodipodi:namedview
     id="base"
     pagecolor="#ffffff"
     bordercolor="#666666"
     borderopacity="1.0"
     inkscape:pageopacity="0.0"
     inkscape:pageshadow="2"
     inkscape:zoom="2.9590909"
     inkscape:cx="110.07428"
     inkscape:cy="110.02871"
     inkscape:document-units="px"
     inkscape:current-layer="layer1"
     showgrid="false"
     units="px"
     inkscape:window-width="1440"
     inkscape:window-height="847"
     inkscape:window-x="-8"
     inkscape:window-y="-8"
     inkscape:window-maximized="1" />
  <metadata
     id="metadata7">
    <rdf:RDF>
      <cc:Work
         rdf:about="">
        <dc:format>image/svg+xml</dc:format>
        <dc:type
           rdf:resource="http://purl.org/dc/dcmitype/StillImage" />
        <dc:title></dc:title>
      </cc:Work>
    </rdf:RDF>
  </metadata>
  <g
     inkscape:label="Camada 1"
     inkscape:groupmode="layer"
     id="layer1"
     transform="translate(0,-832.36216)">
    <path
       style="color:#000000;clip-rule:nonzero;display:inline;overflow:visible;visibility:visible;opacity:1;isolation:auto;mix-blend-mode:normal;color-interpolation:sRGB;color-interpolation-filters:linearRGB;solid-color:#000000;solid-opacity:1;fill:#ffffff;fill-opacity:1;fill-rule:nonzero;stroke:none;stroke-width:5;stroke-linecap:square;stroke-linejoin:miter;stroke-miterlimit:4;stroke-dasharray:none;stroke-dashoffset:0;stroke-opacity:1;color-rendering:auto;image-rendering:auto;shape-rendering:auto;text-rendering:auto;enable-background:accumulate"
       d="M 0 0 L 0 220 L 220 220 L 220 0 L 0 0 z M 30 34.640625 L 62.369141 34.640625 L 94.275391 34.640625 L 126.18359 34.640625 L 158.0918 34.640625 L 190 34.640625 L 190 93.492188 L 158.0918 93.492188 L 126.18359 93.492188 L 94.275391 93.492188 L 62.369141 93.492188 L 30 93.492188 L 30 34.640625 z M 45.830078 47.234375 L 41.830078 48.234375 L 37.767578 50.882812 L 37.767578 51.884766 L 34.826172 56.828125 L 33.826172 62.300781 L 34.296875 66.832031 L 33.826172 68.421875 L 34.826172 73.306641 L 36.767578 75.955078 L 36.767578 77.425781 L 41.357422 81.486328 L 46.302734 82.898438 L 51.363281 81.898438 L 52.421875 79.896484 L 56.306641 74.894531 L 57.306641 70.892578 L 56.835938 68.892578 L 55.306641 67.832031 L 53.423828 68.421875 L 53.423828 70.892578 L 51.833984 72.304688 L 51.833984 73.306641 L 50.363281 74.894531 L 49.361328 75.365234 L 47.302734 77.425781 L 43.830078 77.955078 L 39.357422 73.894531 L 38.769531 70.892578 L 37.296875 66.832031 L 37.767578 66.361328 L 36.767578 64.361328 L 37.296875 63.890625 L 37.296875 63.359375 L 36.767578 60.888672 L 37.296875 60.300781 L 36.767578 59.888672 L 37.767578 58.886719 L 37.767578 58.416016 L 40.828125 53.767578 L 41.830078 53.767578 L 43.242188 51.884766 L 45.830078 51.294922 L 47.302734 51.884766 L 51.833984 54.826172 L 51.833984 56.828125 L 52.833984 58.886719 L 52.421875 59.240234 L 52.833984 59.888672 L 52.833984 60.888672 L 54.835938 62.888672 L 56.306641 63.359375 L 56.835938 60.888672 L 54.835938 55.826172 L 55.306641 55.355469 L 56.306641 49.882812 L 55.835938 48.234375 L 51.833984 49.882812 L 49.361328 48.234375 L 45.830078 47.234375 z M 171.10938 48.707031 L 168.10742 50.294922 L 165.63477 50.707031 L 165.63477 51.765625 L 163.57617 53.179688 L 162.57617 55.767578 L 163.16406 59.240234 L 165.63477 62.242188 L 168.10742 63.712891 L 168.10742 64.712891 L 169.10742 64.712891 L 169.10742 64.300781 L 170.10742 63.242188 L 171.10938 65.302734 L 176.58203 65.714844 L 181.05469 67.773438 L 181.64258 69.246094 L 180.64258 74.248047 L 179.17188 75.71875 L 177.58203 77.720703 L 173.69727 78.720703 L 170.10742 77.720703 L 166.63672 74.248047 L 166.16602 71.246094 L 165.16406 70.246094 L 163.16406 69.775391 L 162.57617 70.246094 L 162.57617 70.775391 L 163.16406 75.248047 L 162.10352 80.191406 L 162.57617 81.78125 L 165.16406 82.193359 L 166.63672 80.779297 L 168.10742 80.779297 L 170.10742 82.193359 L 172.10938 82.193359 L 173.69727 83.193359 L 174.10938 82.78125 L 175.11133 82.78125 L 180.64258 81.78125 L 182.64453 79.191406 L 184.64453 74.660156 L 183.64453 68.244141 L 179.17188 63.712891 L 172.69727 62.242188 L 170.10742 62.712891 L 169.63672 62.242188 L 169.63672 61.712891 L 168.10742 61.712891 L 166.16602 60.240234 L 165.16406 56.238281 L 166.16602 54.767578 L 165.63477 52.296875 L 166.16602 51.765625 L 166.63672 51.765625 L 168.10742 53.179688 L 169.63672 53.179688 L 170.69727 51.294922 L 173.69727 51.294922 L 177.58203 53.179688 L 180.17188 55.767578 L 180.64258 57.240234 L 182.64453 59.240234 L 183.11523 58.828125 L 182.11328 52.767578 L 183.11523 51.765625 L 183.11523 50.294922 L 182.64453 49.707031 L 181.64258 49.707031 L 181.05469 50.294922 L 181.05469 52.296875 L 180.17188 53.179688 L 178.58203 51.765625 L 178.58203 51.294922 L 171.10938 48.707031 z M 135.02148 48.765625 L 130.54883 50.236328 L 129.90234 51.589844 L 131.55078 53.238281 L 135.43359 54.238281 L 138.49414 53.650391 L 139.49414 54.238281 L 139.49414 56.238281 L 139.08398 59.181641 L 139.49414 60.771484 L 139.08398 65.244141 L 139.49414 65.65625 L 138.49414 77.720703 L 138.02344 77.25 L 137.49414 77.720703 L 136.02344 77.720703 L 130.90234 78.720703 L 129.54883 80.308594 L 129.90234 81.78125 L 131.96289 82.78125 L 135.02148 83.369141 L 136.49414 82.78125 L 140.55469 83.369141 L 142.55469 82.78125 L 145.55664 83.369141 L 150.55859 82.78125 L 151.08789 83.369141 L 153.14844 82.369141 L 153.97266 79.779297 L 153.56055 79.308594 L 152.56055 77.720703 L 146.02734 77.720703 L 144.96875 76.896484 L 143.55664 68.714844 L 143.9668 56.238281 L 143.55664 53.650391 L 143.9668 53.238281 L 145.55664 53.238281 L 146.02734 53.650391 L 146.55664 53.238281 L 147.49805 53.238281 L 149.08789 53.650391 L 152.56055 51.589844 L 152.56055 49.765625 L 152.08984 49.177734 L 147.49805 48.765625 L 142.55469 49.177734 L 140.9082 48.765625 L 139.08398 49.765625 L 138.49414 49.177734 L 137.02344 49.177734 L 135.02148 48.765625 z M 70.029297 49.117188 L 66.085938 50.119141 L 66.085938 51.53125 L 66.498047 52.119141 L 73.089844 51.53125 L 74.089844 54.591797 L 74.501953 55.003906 L 74.501953 56.0625 L 73.619141 62.537109 L 74.089844 64.183594 L 73.619141 64.537109 L 74.089844 65.183594 L 73.619141 65.595703 L 73.089844 68.65625 L 74.089844 72.541016 L 73.619141 73.128906 L 73.089844 78.25 L 72.03125 79.074219 L 66.085938 79.074219 L 65.085938 80.074219 L 65.085938 81.132812 L 66.085938 82.132812 L 67.558594 82.132812 L 70.617188 82.722656 L 76.091797 81.662109 L 77.5625 82.132812 L 84.095703 81.662109 L 89.097656 77.601562 L 91.15625 74.189453 L 92.628906 66.597656 L 92.158203 66.007812 L 91.626953 66.007812 L 91.15625 66.597656 L 90.15625 68.068359 L 90.568359 68.65625 L 90.568359 69.65625 L 89.097656 71.128906 L 88.568359 73.541016 L 85.095703 77.601562 L 82.623047 79.074219 L 75.501953 78.603516 L 75.501953 77.601562 L 75.089844 73.128906 L 75.501953 70.128906 L 75.089844 59.535156 L 75.501953 59.064453 L 75.501953 57.0625 L 75.089844 56.591797 L 75.501953 53.001953 L 77.091797 51.53125 L 80.152344 52.119141 L 82.035156 51.53125 L 86.095703 52.53125 L 90.15625 57.554688 L 90.15625 57.0625 L 89.097656 53.001953 L 86.683594 51.53125 L 84.095703 50.53125 L 82.623047 51.119141 L 78.091797 49.529297 L 76.091797 50.53125 L 75.501953 50.119141 L 74.501953 50.119141 L 70.029297 49.117188 z M 98.40625 49.117188 L 95.994141 49.529297 L 94.992188 50.53125 L 94.992188 52.177734 L 97.994141 52.589844 L 99.996094 54.591797 L 99.464844 57.121094 L 99.996094 57.652344 L 99.464844 60.535156 L 100.4668 64.595703 L 99.464844 67.126953 L 100.4668 69.126953 L 99.996094 70.716797 L 100.4668 73.1875 L 99.996094 80.132812 L 96.582031 79.720703 L 95.523438 80.132812 L 95.523438 81.191406 L 95.994141 81.722656 L 98.994141 82.722656 L 99.464844 82.193359 L 102.52539 81.722656 L 104.52734 82.193359 L 105.99805 81.722656 L 106.58594 82.193359 L 106.99805 81.722656 L 106.99805 80.132812 L 106.58594 79.720703 L 103.9375 80.132812 L 102.52539 79.132812 L 102.52539 77.660156 L 102.05469 73.599609 L 103.05469 70.716797 L 102.52539 70.128906 L 102.52539 68.65625 L 103.52539 66.066406 L 105.52734 66.066406 L 110 66.65625 L 110.4707 66.066406 L 114.06055 66.066406 L 115.11914 67.126953 L 115.53125 66.65625 L 116.12109 66.65625 L 117.00391 69.716797 L 116.12109 78.662109 L 111.4707 80.720703 L 112.06055 81.191406 L 112.06055 81.722656 L 122.65234 82.193359 L 123.53516 81.191406 L 123.53516 79.720703 L 123.06445 79.720703 L 122.65234 79.132812 L 119.59375 79.720703 L 118.5918 79.132812 L 118.5918 77.25 L 119.00391 72.1875 L 118.5918 71.716797 L 120.00391 55.650391 L 119.59375 54.0625 L 120.00391 53.589844 L 121.65234 53.589844 L 124.06641 53.060547 L 124.06641 51.177734 L 123.53516 49.529297 L 122.06445 49.529297 L 120.00391 49.117188 L 111.4707 49.529297 L 110.4707 50.53125 L 110 50.177734 L 109.58789 50.177734 L 109 50.53125 L 109 51.177734 L 109.58789 51.589844 L 110 51.589844 L 112.47266 53.589844 L 113.06055 53.060547 L 114.06055 53.060547 L 115.53125 54.591797 L 115.11914 55.0625 L 116.12109 58.123047 L 115.53125 58.710938 L 116.12109 61.183594 L 113.06055 63.595703 L 109 62.595703 L 109 63.183594 L 108.58789 63.595703 L 107.58789 63.595703 L 103.52539 62.183594 L 103.05469 59.123047 L 103.52539 54.591797 L 103.05469 54.0625 L 103.9375 53.060547 L 104.52734 53.589844 L 108 52.589844 L 108 50.177734 L 98.40625 49.117188 z M 90.568359 59.535156 L 90.568359 62.125 L 92.158203 65.183594 L 92.628906 63.537109 L 91.626953 59.535156 L 90.568359 59.535156 z M 98.164062 104.19727 L 101.16797 104.19727 L 101.16797 120.38867 L 98.460938 120.38867 L 98.322266 119.22852 C 97.710922 120.14202 96.925582 120.59961 95.962891 120.59961 C 94.76831 120.59961 93.853128 120.14202 93.220703 119.22852 C 92.595305 118.31501 92.275773 116.97392 92.261719 115.20312 L 92.261719 114.33789 C 92.261719 112.46872 92.578512 111.07483 93.210938 110.1543 C 93.843362 109.23377 94.764022 108.77344 95.972656 108.77344 C 96.851024 108.77344 97.580826 109.15125 98.164062 109.91016 L 98.164062 104.19727 z M 35.544922 104.83008 C 37.217334 104.83008 38.485295 105.29784 39.349609 106.23242 C 40.22095 107.16701 40.716478 108.51006 40.835938 110.25977 L 37.726562 110.25977 C 37.698455 109.17762 37.529889 108.431 37.220703 108.02344 C 36.918545 107.60885 36.360047 107.40234 35.544922 107.40234 C 34.715743 107.40234 34.127523 107.69411 33.783203 108.27734 C 33.438883 108.85355 33.257409 109.80472 33.236328 111.13281 L 33.236328 114.0332 C 33.236328 115.55805 33.404893 116.60465 33.742188 117.17383 C 34.086508 117.74301 34.672774 118.02734 35.501953 118.02734 C 36.317078 118.02734 36.880268 117.83101 37.189453 117.4375 C 37.498639 117.03696 37.672682 116.31538 37.714844 115.27539 L 40.814453 115.27539 C 40.737157 117.0251 40.244366 118.35055 39.337891 119.25 C 38.431415 120.14945 37.153285 120.59961 35.501953 120.59961 C 33.766298 120.59961 32.43537 120.029 31.507812 118.89062 C 30.587283 117.74523 30.126953 116.11511 30.126953 114 L 30.126953 111.41797 C 30.126953 109.30989 30.604883 107.68719 31.560547 106.54883 C 32.516211 105.40344 33.844402 104.83008 35.544922 104.83008 z M 64.013672 106.17969 L 66.996094 106.17969 L 66.996094 108.98438 L 68.525391 108.98438 L 68.525391 111.22852 L 66.996094 111.22852 L 66.996094 116.88867 C 66.996094 117.3384 67.056323 117.64776 67.175781 117.81641 C 67.302266 117.98505 67.541231 118.07031 67.892578 118.07031 C 68.180683 118.07031 68.416909 118.04528 68.599609 117.99609 L 68.578125 120.31445 C 68.072185 120.50418 67.523857 120.59961 66.933594 120.59961 C 65.008211 120.59961 64.034753 119.49552 64.013672 117.28906 L 64.013672 111.22852 L 62.697266 111.22852 L 62.697266 108.98438 L 64.013672 108.98438 L 64.013672 106.17969 z M 46.875 108.77344 C 48.308496 108.77344 49.387553 109.23377 50.111328 110.1543 C 50.835103 111.0678 51.204696 112.42376 51.21875 114.22266 L 51.21875 115.6875 L 45.283203 115.6875 C 45.325365 116.53073 45.511531 117.14946 45.841797 117.54297 C 46.172063 117.92945 46.682453 118.12109 47.371094 118.12109 C 48.36892 118.12109 49.201581 117.78122 49.869141 117.09961 L 51.039062 118.90234 C 50.673661 119.40828 50.142933 119.81855 49.447266 120.13477 C 48.751598 120.44395 47.996766 120.59961 47.181641 120.59961 C 45.649767 120.59961 44.454943 120.14202 43.597656 119.22852 C 42.740369 118.31501 42.310547 117.00911 42.310547 115.30859 L 42.310547 114.40039 C 42.310547 112.60149 42.705169 111.21503 43.492188 110.23828 C 44.279205 109.26154 45.406369 108.77344 46.875 108.77344 z M 58.365234 108.77344 C 60.325751 108.77344 61.332456 110.147 61.388672 112.89453 L 61.388672 120.38867 L 58.396484 120.38867 L 58.396484 113.11523 C 58.396484 112.46876 58.298318 112.001 58.101562 111.71289 C 57.911835 111.41776 57.574703 111.27148 57.089844 111.27148 C 56.548769 111.27148 56.126377 111.54839 55.824219 112.10352 L 55.824219 120.38867 L 52.830078 120.38867 L 52.830078 108.98438 L 55.634766 108.98438 L 55.71875 110.11133 C 56.393336 109.21891 57.276058 108.77344 58.365234 108.77344 z M 74.986328 108.77344 C 75.323621 108.77344 75.597785 108.81881 75.808594 108.91016 L 75.777344 111.86133 L 74.787109 111.77734 C 73.971984 111.77734 73.418964 112.13481 73.130859 112.85156 L 73.130859 120.38867 L 70.138672 120.38867 L 70.138672 108.98438 L 72.953125 108.98438 L 73.037109 110.2168 C 73.507915 109.25411 74.157149 108.77344 74.986328 108.77344 z M 81.195312 108.77344 C 82.649891 108.77344 83.784484 109.26427 84.599609 110.24805 C 85.414735 111.23182 85.822266 112.59521 85.822266 114.33789 L 85.822266 115.06445 C 85.822266 116.80011 85.417473 118.15802 84.609375 119.13477 C 83.801277 120.11151 82.671374 120.59961 81.216797 120.59961 C 79.755193 120.59961 78.615907 120.11151 77.800781 119.13477 C 76.992683 118.15099 76.587891 116.7876 76.587891 115.04492 L 76.587891 114.31641 C 76.587891 112.58778 76.995422 111.23182 77.810547 110.24805 C 78.625672 109.26427 79.754789 108.77344 81.195312 108.77344 z M 107.67188 108.77344 C 109.10537 108.77344 110.18443 109.23377 110.9082 110.1543 C 111.63198 111.0678 112.00157 112.42376 112.01562 114.22266 L 112.01562 115.6875 L 106.08008 115.6875 C 106.12224 116.53073 106.30841 117.14946 106.63867 117.54297 C 106.96894 117.92945 107.47933 118.12109 108.16797 118.12109 C 109.16579 118.12109 109.99846 117.78122 110.66602 117.09961 L 111.83594 118.90234 C 111.47054 119.40828 110.93981 119.81855 110.24414 120.13477 C 109.54847 120.44395 108.79364 120.59961 107.97852 120.59961 C 106.44664 120.59961 105.25182 120.14202 104.39453 119.22852 C 103.53724 118.31501 103.10742 117.00911 103.10742 115.30859 L 103.10742 114.40039 C 103.10742 112.60149 103.50204 111.21503 104.28906 110.23828 C 105.07608 109.26154 106.20323 108.77344 107.67188 108.77344 z M 46.853516 111.25 C 46.333522 111.25 45.95376 111.43617 45.714844 111.80859 C 45.482955 112.18102 45.346849 112.77746 45.304688 113.59961 L 48.287109 113.59961 L 48.287109 113.32617 C 48.273055 112.64456 48.16198 112.12869 47.951172 111.77734 C 47.740364 111.426 47.373509 111.25 46.853516 111.25 z M 81.195312 111.25 C 80.689373 111.25 80.292011 111.50187 80.003906 112.00781 C 79.722829 112.50673 79.582031 113.27642 79.582031 114.31641 L 79.582031 115.06445 C 79.582031 117.10227 80.127621 118.12109 81.216797 118.12109 C 82.22165 118.12109 82.762547 117.27083 82.839844 115.57031 L 82.849609 114.31641 C 82.849609 113.27642 82.706073 112.50673 82.417969 112.00781 C 82.129864 111.50187 81.722334 111.25 81.195312 111.25 z M 107.65039 111.25 C 107.1304 111.25 106.75259 111.43617 106.51367 111.80859 C 106.28178 112.18102 106.14372 112.77746 106.10156 113.59961 L 109.08398 113.59961 L 109.08398 113.32617 C 109.06993 112.64456 108.95886 112.12869 108.74805 111.77734 C 108.53724 111.426 108.17038 111.25 107.65039 111.25 z M 96.835938 111.27148 C 96.287835 111.27148 95.887736 111.49285 95.634766 111.93555 C 95.381796 112.37824 95.255859 113.16358 95.255859 114.29492 L 95.255859 115.08594 C 95.255859 116.21025 95.374365 116.99754 95.613281 117.44727 C 95.852197 117.88996 96.25699 118.11133 96.826172 118.11133 C 97.416435 118.11133 97.861904 117.84733 98.164062 117.32031 L 98.164062 112.11328 C 97.868931 111.55113 97.426201 111.27148 96.835938 111.27148 z M 143.17188 125.80664 L 144.84766 125.93164 C 144.84766 126.71163 144.64858 127.37573 144.24805 127.92383 C 143.85454 128.4649 143.35432 128.73633 142.75 128.73633 C 142.52514 128.73633 142.32606 128.70388 142.15039 128.64062 C 141.98174 128.57738 141.73809 128.44871 141.42188 128.25195 C 141.11268 128.0552 140.89132 127.93474 140.75781 127.89258 C 140.63133 127.85042 140.49248 127.83008 140.33789 127.83008 C 140.14816 127.83008 139.98977 127.91808 139.86328 128.09375 C 139.7368 128.2624 139.67383 128.50879 139.67383 128.83203 L 137.98633 128.73633 C 137.98633 127.95634 138.18735 127.29224 138.58789 126.74414 C 138.98843 126.18901 139.47926 125.91211 140.0625 125.91211 C 140.21709 125.91211 140.36532 125.93518 140.50586 125.98438 C 140.65343 126.02654 140.90256 126.14973 141.25391 126.35352 C 141.61228 126.55027 141.86884 126.67815 142.02344 126.73438 C 142.17803 126.78356 142.33369 126.80664 142.48828 126.80664 C 142.67098 126.80664 142.82743 126.72333 142.96094 126.55469 C 143.10148 126.37901 143.17188 126.12988 143.17188 125.80664 z M 30.410156 126.62891 L 34.46875 126.62891 C 36.26062 126.62891 37.686979 127.19757 38.748047 128.33594 C 39.816142 129.4743 40.361732 131.03403 40.382812 133.01562 L 40.382812 135.50391 C 40.382812 137.52064 39.847392 139.10539 38.779297 140.25781 C 37.718229 141.4032 36.253932 141.97461 34.384766 141.97461 L 30.410156 141.97461 L 30.410156 126.62891 z M 111.23438 127.76562 L 114.21875 127.76562 L 114.21875 130.57031 L 115.74609 130.57031 L 115.74609 132.81445 L 114.21875 132.81445 L 114.21875 138.47656 C 114.21875 138.92629 114.27703 139.2337 114.39648 139.40234 C 114.52297 139.57099 114.76193 139.65625 115.11328 139.65625 C 115.40139 139.65625 115.63761 139.63122 115.82031 139.58203 L 115.79883 141.90039 C 115.29289 142.09012 114.74456 142.18555 114.1543 142.18555 C 112.22891 142.18555 111.25546 141.08341 111.23438 138.87695 L 111.23438 132.81445 L 109.91797 132.81445 L 109.91797 130.57031 L 111.23438 130.57031 L 111.23438 127.76562 z M 33.509766 129.21094 L 33.509766 139.40234 L 34.4375 139.40234 C 35.470461 139.40234 36.197524 139.13287 36.619141 138.5918 C 37.040757 138.0437 37.262122 137.1027 37.283203 135.76758 L 37.283203 133.09961 C 37.283203 131.66611 37.084129 130.66958 36.683594 130.10742 C 36.283058 129.53824 35.601363 129.23905 34.638672 129.21094 L 33.509766 129.21094 z M 46.707031 130.35938 C 48.161608 130.35938 49.296203 130.85217 50.111328 131.83594 C 50.926453 132.81971 51.333984 134.1831 51.333984 135.92578 L 51.333984 136.65234 C 51.333984 138.388 50.929192 139.74396 50.121094 140.7207 C 49.312995 141.69745 48.183093 142.18555 46.728516 142.18555 C 45.266912 142.18555 44.127625 141.69745 43.3125 140.7207 C 42.504402 139.73693 42.099609 138.37354 42.099609 136.63086 L 42.099609 135.9043 C 42.099609 134.17567 42.50714 132.81971 43.322266 131.83594 C 44.137391 130.85217 45.266508 130.35938 46.707031 130.35938 z M 57.363281 130.35938 C 58.621104 130.35938 59.612161 130.74931 60.335938 131.5293 C 61.059713 132.30226 61.427352 133.40166 61.441406 134.82812 L 58.638672 134.82812 C 58.631645 134.18867 58.526047 133.69784 58.322266 133.35352 C 58.118484 133.0092 57.781352 132.83594 57.310547 132.83594 C 56.790553 132.83594 56.418222 133.0221 56.193359 133.39453 C 55.968497 133.75993 55.848038 134.47409 55.833984 135.53516 L 55.833984 136.69336 C 55.833984 137.62092 55.879353 138.2721 55.970703 138.64453 C 56.062053 139.00993 56.214973 139.2794 56.425781 139.45508 C 56.63659 139.62372 56.933831 139.70898 57.320312 139.70898 C 58.184627 139.70898 58.624618 139.1458 58.638672 138.02148 L 61.441406 138.02148 C 61.427352 139.26525 61.044852 140.27117 60.292969 141.03711 C 59.541086 141.80305 58.572319 142.18555 57.384766 142.18555 C 55.916135 142.18555 54.794448 141.72991 54.021484 140.81641 C 53.248521 139.9029 52.855851 138.55711 52.841797 136.7793 L 52.841797 135.87305 C 52.841797 134.08118 53.219606 132.71309 53.978516 131.77148 C 54.744452 130.82987 55.873569 130.35938 57.363281 130.35938 z M 79.308594 130.35938 C 80.446958 130.35937 81.251851 130.8725 81.722656 131.89844 C 82.376162 130.8725 83.306991 130.35938 84.515625 130.35938 C 86.511277 130.35938 87.532843 131.74036 87.582031 134.50195 L 87.582031 141.97461 L 84.599609 141.97461 L 84.599609 134.69141 C 84.599609 134.03087 84.508872 133.56037 84.326172 133.2793 C 84.143471 132.99822 83.834108 132.85742 83.398438 132.85742 C 82.843308 132.85742 82.428348 133.19925 82.154297 133.88086 L 82.175781 134.23828 L 82.175781 141.97461 L 79.191406 141.97461 L 79.191406 134.71289 C 79.191406 134.05938 79.103408 133.58889 78.927734 133.30078 C 78.752061 133.00565 78.439959 132.85742 77.990234 132.85742 C 77.477268 132.85742 77.069737 133.13432 76.767578 133.68945 L 76.767578 141.97461 L 73.785156 141.97461 L 73.785156 130.57031 L 76.578125 130.57031 L 76.662109 131.625 C 77.329669 130.78177 78.212391 130.35938 79.308594 130.35938 z M 94.095703 130.35938 C 95.529199 130.35938 96.608256 130.8197 97.332031 131.74023 C 98.055806 132.65374 98.425399 134.0097 98.439453 135.80859 L 98.439453 137.27344 L 92.503906 137.27344 C 92.546068 138.11667 92.732234 138.7354 93.0625 139.12891 C 93.392766 139.51539 93.903157 139.70898 94.591797 139.70898 C 95.589623 139.70898 96.422284 139.36716 97.089844 138.68555 L 98.259766 140.48828 C 97.894365 140.99422 97.363636 141.40644 96.667969 141.72266 C 95.972301 142.03184 95.217469 142.18555 94.402344 142.18555 C 92.87047 142.18555 91.675646 141.72991 90.818359 140.81641 C 89.961072 139.9029 89.533203 138.59505 89.533203 136.89453 L 89.533203 135.98828 C 89.533203 134.18938 89.925873 132.80096 90.712891 131.82422 C 91.499908 130.84747 92.627072 130.35938 94.095703 130.35938 z M 105.58594 130.35938 C 107.54645 130.35938 108.55511 131.73293 108.61133 134.48047 L 108.61133 141.97461 L 105.61719 141.97461 L 105.61719 134.70117 C 105.61719 134.05469 105.51902 133.58889 105.32227 133.30078 C 105.13254 133.00565 104.79541 132.85742 104.31055 132.85742 C 103.76947 132.85742 103.34708 133.13432 103.04492 133.68945 L 103.04492 141.97461 L 100.05078 141.97461 L 100.05078 130.57031 L 102.85547 130.57031 L 102.93945 131.69727 C 103.61404 130.80484 104.49676 130.35938 105.58594 130.35938 z M 121.4375 130.35938 C 122.6883 130.35938 123.65432 130.68634 124.33594 131.33984 C 125.02458 131.98632 125.36914 132.91441 125.36914 134.12305 L 125.36914 139.48828 C 125.38319 140.47205 125.52399 141.23979 125.79102 141.79492 L 125.79102 141.97461 L 122.78711 141.97461 C 122.70279 141.79894 122.61948 141.50443 122.53516 141.08984 C 122.00111 141.82065 121.27678 142.18555 120.36328 142.18555 C 119.40762 142.18555 118.61289 141.86875 117.98047 141.23633 C 117.35507 140.6039 117.04297 139.7861 117.04297 138.78125 C 117.04297 137.58667 117.42273 136.66327 118.18164 136.00977 C 118.94758 135.35626 120.04697 135.02187 121.48047 135.00781 L 122.38672 135.00781 L 122.38672 134.08984 C 122.38672 133.57688 122.29872 133.21667 122.12305 133.00586 C 121.94737 132.79505 121.69081 132.68945 121.35352 132.68945 C 120.60866 132.68945 120.23633 133.12475 120.23633 133.99609 L 117.25391 133.99609 C 117.25391 132.94205 117.64658 132.07419 118.43359 131.39258 C 119.22764 130.70394 120.22887 130.35938 121.4375 130.35938 z M 131.69336 130.35938 C 132.95118 130.35938 133.94224 130.74931 134.66602 131.5293 C 135.38979 132.30226 135.75938 133.40166 135.77344 134.82812 L 132.96875 134.82812 C 132.96172 134.18867 132.85613 133.69784 132.65234 133.35352 C 132.44856 133.0092 132.11144 132.83594 131.64062 132.83594 C 131.12063 132.83594 130.7483 133.0221 130.52344 133.39453 C 130.29858 133.75993 130.18007 134.47409 130.16602 135.53516 L 130.16602 136.69336 C 130.16602 137.62092 130.21138 138.2721 130.30273 138.64453 C 130.39408 139.00993 130.54505 139.2794 130.75586 139.45508 C 130.96667 139.62372 131.26586 139.70898 131.65234 139.70898 C 132.51666 139.70898 132.9547 139.1458 132.96875 138.02148 L 135.77344 138.02148 C 135.75938 139.26525 135.37688 140.27117 134.625 141.03711 C 134.09462 141.5774 133.44834 141.91505 132.70117 142.07422 L 132.63281 142.52344 C 133.04038 142.61479 133.35248 142.81386 133.57031 143.12305 C 133.79517 143.43926 133.9082 143.84679 133.9082 144.3457 C 133.9082 145.11867 133.62935 145.72996 133.07422 146.17969 C 132.51909 146.62941 131.72632 146.85547 130.69336 146.85547 L 130.62891 145.0957 C 131.14187 145.0957 131.39844 144.80668 131.39844 144.23047 C 131.39844 143.94939 131.3077 143.75307 131.125 143.64062 C 130.94933 143.52819 130.64739 143.45506 130.21875 143.41992 L 130.47461 142.05273 C 129.60044 141.85929 128.89114 141.45178 128.35352 140.81641 C 127.58055 139.9029 127.18593 138.55711 127.17188 136.7793 L 127.17188 135.87305 C 127.17188 134.08118 127.55164 132.71309 128.31055 131.77148 C 129.07648 130.82987 130.20365 130.35938 131.69336 130.35938 z M 141.54883 130.35938 C 142.79962 130.35938 143.76565 130.68634 144.44727 131.33984 C 145.13591 131.98632 145.48047 132.91441 145.48047 134.12305 L 145.48047 139.48828 C 145.49452 140.47205 145.63532 141.23979 145.90234 141.79492 L 145.90234 141.97461 L 142.89844 141.97461 C 142.81411 141.79894 142.72885 141.50443 142.64453 141.08984 C 142.11048 141.82065 141.38811 142.18555 140.47461 142.18555 C 139.51895 142.18555 138.72422 141.86875 138.0918 141.23633 C 137.4664 140.6039 137.1543 139.7861 137.1543 138.78125 C 137.1543 137.58667 137.53406 136.66327 138.29297 136.00977 C 139.05891 135.35626 140.1583 135.02187 141.5918 135.00781 L 142.49805 135.00781 L 142.49805 134.08984 C 142.49805 133.57688 142.41005 133.21667 142.23438 133.00586 C 142.05869 132.79505 141.80214 132.68945 141.46484 132.68945 C 140.71999 132.68945 140.34766 133.12475 140.34766 133.99609 L 137.36523 133.99609 C 137.36523 132.94205 137.7579 132.07419 138.54492 131.39258 C 139.33897 130.70394 140.34019 130.35938 141.54883 130.35938 z M 151.90039 130.35938 C 153.35497 130.35938 154.48956 130.85217 155.30469 131.83594 C 156.11981 132.81971 156.52734 134.1831 156.52734 135.92578 L 156.52734 136.65234 C 156.52734 138.388 156.12255 139.74396 155.31445 140.7207 C 154.50635 141.69745 153.37645 142.18555 151.92188 142.18555 C 150.46026 142.18555 149.32098 141.69745 148.50586 140.7207 C 147.69776 139.73693 147.29297 138.37354 147.29297 136.63086 L 147.29297 135.9043 C 147.29297 134.17567 147.7005 132.81971 148.51562 131.83594 C 149.33076 130.85217 150.45987 130.35938 151.90039 130.35938 z M 63.076172 130.57031 L 66.058594 130.57031 L 66.058594 138.0332 C 66.072648 139.14346 66.442241 139.69922 67.166016 139.69922 C 67.847629 139.69922 68.338466 139.40276 68.640625 138.8125 L 68.640625 130.57031 L 71.644531 130.57031 L 71.644531 141.97461 L 68.841797 141.97461 L 68.757812 140.93164 C 68.139442 141.76785 67.309519 142.18555 66.269531 142.18555 C 65.222517 142.18555 64.427793 141.82808 63.886719 141.11133 C 63.345644 140.38755 63.076172 139.33627 63.076172 137.95898 L 63.076172 130.57031 z M 46.707031 132.83594 C 46.201091 132.83594 45.80373 133.08976 45.515625 133.5957 C 45.234547 134.09462 45.09375 134.86431 45.09375 135.9043 L 45.09375 136.65234 C 45.09375 138.69016 45.63934 139.70898 46.728516 139.70898 C 47.733368 139.70898 48.274266 138.85872 48.351562 137.1582 L 48.361328 135.9043 C 48.361328 134.86431 48.217792 134.09462 47.929688 133.5957 C 47.641582 133.08976 47.234052 132.83594 46.707031 132.83594 z M 94.074219 132.83594 C 93.554225 132.83594 93.176416 133.0221 92.9375 133.39453 C 92.705611 133.76696 92.567552 134.36535 92.525391 135.1875 L 95.507812 135.1875 L 95.507812 134.91211 C 95.493759 134.2305 95.382683 133.71463 95.171875 133.36328 C 94.961067 133.01193 94.594213 132.83594 94.074219 132.83594 z M 151.90039 132.83594 C 151.39445 132.83594 150.99709 133.08976 150.70898 133.5957 C 150.42791 134.09462 150.28711 134.86431 150.28711 135.9043 L 150.28711 136.65234 C 150.28711 138.69016 150.83269 139.70898 151.92188 139.70898 C 152.92673 139.70898 153.46763 138.85872 153.54492 137.1582 L 153.55469 135.9043 C 153.55469 134.86431 153.41115 134.09462 153.12305 133.5957 C 152.83494 133.08976 152.42741 132.83594 151.90039 132.83594 z M 121.66992 136.79883 C 121.16398 136.79883 120.76388 136.96192 120.46875 137.28516 C 120.18065 137.6084 120.03711 138.039 120.03711 138.58008 C 120.03711 139.42331 120.36681 139.8457 121.02734 139.8457 C 121.35761 139.8457 121.6392 139.78 121.87109 139.64648 C 122.10298 139.51297 122.27429 139.35458 122.38672 139.17188 L 122.38672 136.79883 L 121.66992 136.79883 z M 141.78125 136.79883 C 141.27531 136.79883 140.87521 136.96192 140.58008 137.28516 C 140.29197 137.6084 140.14648 138.039 140.14648 138.58008 C 140.14648 139.42331 140.47814 139.8457 141.13867 139.8457 C 141.46894 139.8457 141.74858 139.78 141.98047 139.64648 C 142.21236 139.51297 142.38562 139.35458 142.49805 139.17188 L 142.49805 136.79883 L 141.78125 136.79883 z M 100.86328 147.625 C 101.35517 147.625 101.74784 147.77323 102.04297 148.06836 C 102.3381 148.36349 102.48633 148.7413 102.48633 149.20508 C 102.48633 149.66183 102.3381 150.04159 102.04297 150.34375 C 101.75486 150.64591 101.36219 150.79688 100.86328 150.79688 C 100.36437 150.79687 99.967007 150.64591 99.671875 150.34375 C 99.38377 150.04159 99.240234 149.66183 99.240234 149.20508 C 99.240234 148.7413 99.388462 148.36349 99.683594 148.06836 C 99.978725 147.77323 100.3714 147.625 100.86328 147.625 z M 45.714844 148.21484 L 50.943359 148.21484 C 52.461179 148.21484 53.670864 148.68534 54.570312 149.62695 C 55.476789 150.56856 55.929688 151.79116 55.929688 153.29492 C 55.929687 154.79869 55.482265 155.98608 54.589844 156.85742 C 53.697422 157.72876 52.461921 158.16602 50.880859 158.16602 L 48.814453 158.16602 L 48.814453 163.5625 L 45.714844 163.5625 L 45.714844 148.21484 z M 48.814453 150.79688 L 48.814453 155.58203 L 50.943359 155.58203 C 51.533623 155.58203 51.991214 155.39039 52.314453 155.00391 C 52.637692 154.61742 52.798828 154.05424 52.798828 153.31641 C 52.798828 152.55047 52.633001 151.94191 52.302734 151.49219 C 51.972468 151.03544 51.529738 150.8039 50.974609 150.79688 L 48.814453 150.79688 z M 34.564453 151.94531 C 35.997949 151.94531 37.077006 152.40564 37.800781 153.32617 C 38.524556 154.23967 38.892196 155.59759 38.90625 157.39648 L 38.90625 158.86133 L 32.972656 158.86133 C 33.014818 159.70456 33.200984 160.32329 33.53125 160.7168 C 33.861516 161.10328 34.369953 161.29492 35.058594 161.29492 C 36.05642 161.29492 36.889081 160.95505 37.556641 160.27344 L 38.726562 162.07617 C 38.361161 162.58211 37.832386 162.99238 37.136719 163.30859 C 36.441051 163.61778 35.684266 163.77344 34.869141 163.77344 C 33.337267 163.77344 32.142443 163.31585 31.285156 162.40234 C 30.427869 161.48884 30 160.18099 30 158.48047 L 30 157.57422 C 30 155.77532 30.392669 154.38885 31.179688 153.41211 C 31.966705 152.43536 33.095822 151.94531 34.564453 151.94531 z M 62.011719 151.94531 C 63.445215 151.94531 64.524272 152.40564 65.248047 153.32617 C 65.971822 154.23967 66.339462 155.59759 66.353516 157.39648 L 66.353516 158.86133 L 60.419922 158.86133 C 60.462084 159.70456 60.648249 160.32329 60.978516 160.7168 C 61.308782 161.10328 61.817219 161.29492 62.505859 161.29492 C 63.503685 161.29492 64.336347 160.95505 65.003906 160.27344 L 66.173828 162.07617 C 65.808427 162.58211 65.279652 162.99238 64.583984 163.30859 C 63.888317 163.61778 63.131532 163.77344 62.316406 163.77344 C 60.784533 163.77344 59.589709 163.31585 58.732422 162.40234 C 57.875135 161.48884 57.447266 160.18099 57.447266 158.48047 L 57.447266 157.57422 C 57.447266 155.77532 57.839936 154.38885 58.626953 153.41211 C 59.413971 152.43536 60.543088 151.94531 62.011719 151.94531 z M 71.824219 151.94531 C 73.075015 151.94531 74.076242 152.26954 74.828125 152.91602 C 75.580008 153.56249 75.957031 154.43036 75.957031 155.51953 L 72.972656 155.51953 C 72.972656 154.59197 72.587417 154.12891 71.814453 154.12891 C 71.498241 154.12891 71.236984 154.22707 71.033203 154.42383 C 70.829422 154.62058 70.728516 154.89475 70.728516 155.24609 C 70.728516 155.49906 70.841544 155.72317 71.066406 155.91992 C 71.291268 156.10965 71.820044 156.38381 72.65625 156.74219 C 73.871911 157.19191 74.729603 157.69487 75.228516 158.25 C 75.734455 158.7981 75.988281 159.5103 75.988281 160.38867 C 75.988281 161.40758 75.60578 162.22733 74.839844 162.8457 C 74.073907 163.46407 73.067988 163.77344 71.824219 163.77344 C 70.988013 163.77344 70.25078 163.61035 69.611328 163.28711 C 68.971876 162.95684 68.468917 162.5012 68.103516 161.91797 C 67.745142 161.33473 67.566406 160.70584 67.566406 160.03125 L 70.402344 160.03125 C 70.416398 160.55124 70.534903 160.94117 70.759766 161.20117 C 70.991655 161.46117 71.366725 161.58984 71.886719 161.58984 C 72.68779 161.58984 73.089844 161.22963 73.089844 160.50586 C 73.089844 160.25289 72.966646 160.0194 72.720703 159.80859 C 72.481787 159.59076 71.943628 159.29899 71.107422 158.93359 C 69.877707 158.43468 69.032138 157.91881 68.568359 157.38477 C 68.111608 156.85072 67.882812 156.18662 67.882812 155.39258 C 67.882812 154.39475 68.240283 153.57226 68.957031 152.92578 C 69.680806 152.27228 70.636665 151.94531 71.824219 151.94531 z M 81.183594 151.94531 C 82.18142 151.94531 82.976143 152.39547 83.566406 153.29492 L 83.755859 152.15625 L 86.359375 152.15625 L 86.359375 167.94727 L 83.365234 167.94727 L 83.365234 162.67578 C 82.810106 163.40658 82.080304 163.77344 81.173828 163.77344 C 79.972221 163.77344 79.0543 163.30842 78.421875 162.38086 C 77.796477 161.44628 77.476945 160.10518 77.462891 158.35547 L 77.462891 157.49023 C 77.462891 155.62107 77.776946 154.22991 78.402344 153.31641 C 79.027742 152.4029 79.953879 151.94531 81.183594 151.94531 z M 108.46289 151.94531 C 109.71369 151.94531 110.71491 152.26954 111.4668 152.91602 C 112.21868 153.56249 112.59375 154.43036 112.59375 155.51953 L 109.61133 155.51953 C 109.61133 154.59197 109.2261 154.12891 108.45312 154.12891 C 108.13691 154.12891 107.87566 154.22707 107.67188 154.42383 C 107.46808 154.62058 107.36719 154.89475 107.36719 155.24609 C 107.36719 155.49906 107.47826 155.72317 107.70312 155.91992 C 107.928 156.10965 108.45872 156.38381 109.29492 156.74219 C 110.51058 157.19191 111.36827 157.69487 111.86719 158.25 C 112.37313 158.7981 112.62695 159.5103 112.62695 160.38867 C 112.62695 161.40758 112.2425 162.22733 111.47656 162.8457 C 110.71063 163.46407 109.70666 163.77344 108.46289 163.77344 C 107.62668 163.77344 106.88945 163.61035 106.25 163.28711 C 105.61055 162.95684 105.10759 162.5012 104.74219 161.91797 C 104.38381 161.33473 104.20508 160.70584 104.20508 160.03125 L 107.03906 160.03125 C 107.05312 160.55124 107.17358 160.94117 107.39844 161.20117 C 107.63033 161.46117 108.0054 161.58984 108.52539 161.58984 C 109.32646 161.58984 109.72852 161.22963 109.72852 160.50586 C 109.72852 160.25289 109.60532 160.0194 109.35938 159.80859 C 109.12045 159.59076 108.5823 159.29899 107.74609 158.93359 C 106.51638 158.43468 105.66886 157.91881 105.20508 157.38477 C 104.74833 156.85072 104.52148 156.18662 104.52148 155.39258 C 104.52148 154.39475 104.87895 153.57226 105.5957 152.92578 C 106.31948 152.27228 107.27534 151.94531 108.46289 151.94531 z M 118.57031 151.94531 C 119.82111 151.94531 120.78714 152.27228 121.46875 152.92578 C 122.15739 153.57226 122.50195 154.50035 122.50195 155.70898 L 122.50195 161.07422 C 122.51601 162.05799 122.6568 162.82768 122.92383 163.38281 L 122.92383 163.5625 L 119.91992 163.5625 C 119.8356 163.38683 119.75229 163.09037 119.66797 162.67578 C 119.13392 163.40658 118.4096 163.77344 117.49609 163.77344 C 116.54043 163.77344 115.74571 163.45664 115.11328 162.82422 C 114.48788 162.19179 114.17578 161.37204 114.17578 160.36719 C 114.17578 159.17261 114.55554 158.24921 115.31445 157.5957 C 116.08039 156.9422 117.17978 156.6078 118.61328 156.59375 L 119.51953 156.59375 L 119.51953 155.67773 C 119.51953 155.16477 119.43153 154.80261 119.25586 154.5918 C 119.08019 154.38099 118.82362 154.27539 118.48633 154.27539 C 117.74147 154.27539 117.36914 154.71069 117.36914 155.58203 L 114.38672 155.58203 C 114.38672 154.52799 114.77939 153.66013 115.56641 152.97852 C 116.36045 152.28988 117.36168 151.94531 118.57031 151.94531 z M 133.93945 151.94531 C 135.37295 151.94531 136.45201 152.40564 137.17578 153.32617 C 137.89956 154.23967 138.2672 155.59759 138.28125 157.39648 L 138.28125 158.86133 L 132.34766 158.86133 C 132.38982 159.70456 132.57598 160.32329 132.90625 160.7168 C 133.23652 161.10328 133.74495 161.29492 134.43359 161.29492 C 135.43142 161.29492 136.26408 160.95505 136.93164 160.27344 L 138.10156 162.07617 C 137.73616 162.58211 137.20739 162.99238 136.51172 163.30859 C 135.81605 163.61778 135.05927 163.77344 134.24414 163.77344 C 132.71227 163.77344 131.51744 163.31585 130.66016 162.40234 C 129.80287 161.48884 129.375 160.18099 129.375 158.48047 L 129.375 157.57422 C 129.375 155.77532 129.76767 154.38885 130.55469 153.41211 C 131.34171 152.43536 132.47082 151.94531 133.93945 151.94531 z M 145.50195 151.94531 C 146.64032 151.94531 147.44521 152.45843 147.91602 153.48438 C 148.56952 152.45843 149.50035 151.94531 150.70898 151.94531 C 152.70464 151.94531 153.7262 153.3263 153.77539 156.08789 L 153.77539 163.5625 L 150.79297 163.5625 L 150.79297 156.2793 C 150.79297 155.61876 150.70223 155.14631 150.51953 154.86523 C 150.33683 154.58416 150.02747 154.44336 149.5918 154.44336 C 149.03667 154.44336 148.62171 154.78518 148.34766 155.4668 L 148.36914 155.82422 L 148.36914 163.5625 L 145.38672 163.5625 L 145.38672 156.29883 C 145.38672 155.64532 145.29872 155.17482 145.12305 154.88672 C 144.94737 154.59159 144.63332 154.44336 144.18359 154.44336 C 143.67063 154.44336 143.2631 154.72222 142.96094 155.27734 L 142.96094 163.5625 L 139.97852 163.5625 L 139.97852 152.15625 L 142.77148 152.15625 L 142.85547 153.21094 C 143.52303 152.3677 144.40575 151.94531 145.50195 151.94531 z M 88.541016 152.15625 L 91.523438 152.15625 L 91.523438 159.61914 C 91.537491 160.7294 91.907084 161.28516 92.630859 161.28516 C 93.312473 161.28516 93.805263 160.99065 94.107422 160.40039 L 94.107422 152.15625 L 97.111328 152.15625 L 97.111328 163.5625 L 94.306641 163.5625 L 94.222656 162.51758 C 93.604285 163.35378 92.774363 163.77344 91.734375 163.77344 C 90.687361 163.77344 89.89459 163.41401 89.353516 162.69727 C 88.812441 161.97349 88.541016 160.9222 88.541016 159.54492 L 88.541016 152.15625 z M 99.376953 152.15625 L 102.37109 152.15625 L 102.37109 163.5625 L 99.376953 163.5625 L 99.376953 152.15625 z M 34.542969 154.42383 C 34.022975 154.42383 33.643213 154.60999 33.404297 154.98242 C 33.172408 155.35485 33.036302 155.95129 32.994141 156.77344 L 35.976562 156.77344 L 35.976562 156.5 C 35.962509 155.81839 35.84948 155.30252 35.638672 154.95117 C 35.427864 154.59982 35.062963 154.42383 34.542969 154.42383 z M 61.990234 154.42383 C 61.470241 154.42383 61.09048 154.60999 60.851562 154.98242 C 60.619673 155.35485 60.483568 155.95129 60.441406 156.77344 L 63.423828 156.77344 L 63.423828 156.5 C 63.409774 155.81839 63.296746 155.30252 63.085938 154.95117 C 62.875128 154.59982 62.510228 154.42383 61.990234 154.42383 z M 82.048828 154.42383 C 81.479646 154.42383 81.072115 154.65067 80.826172 155.10742 C 80.587256 155.56417 80.464058 156.32839 80.457031 157.39648 L 80.457031 158.23828 C 80.457031 159.34151 80.575537 160.1288 80.814453 160.59961 C 81.053369 161.06339 81.4609 161.29492 82.037109 161.29492 C 82.641426 161.29492 83.084157 161.06065 83.365234 160.58984 L 83.365234 155.16016 C 83.084157 154.66827 82.646118 154.42383 82.048828 154.42383 z M 133.91797 154.42383 C 133.39797 154.42383 133.01821 154.60999 132.7793 154.98242 C 132.54741 155.35485 132.4113 155.95129 132.36914 156.77344 L 135.35156 156.77344 L 135.35156 156.5 C 135.33751 155.81839 135.22448 155.30252 135.01367 154.95117 C 134.80286 154.59982 134.43796 154.42383 133.91797 154.42383 z M 118.80273 158.38672 C 118.29679 158.38672 117.89669 158.54785 117.60156 158.87109 C 117.31346 159.19433 117.16992 159.62689 117.16992 160.16797 C 117.16992 161.0112 117.49962 161.43359 118.16016 161.43359 C 118.49042 161.43359 118.77202 161.36593 119.00391 161.23242 C 119.2358 161.09891 119.4071 160.94051 119.51953 160.75781 L 119.51953 158.38672 L 118.80273 158.38672 z M 69.927734 168.95898 L 73.279297 168.95898 L 70.349609 172.22656 L 67.861328 172.22656 L 69.927734 168.95898 z M 45.125 169.21094 C 45.616886 169.21094 46.011509 169.35917 46.306641 169.6543 C 46.601772 169.94943 46.748047 170.32919 46.748047 170.79297 C 46.748047 171.24972 46.601772 171.62948 46.306641 171.93164 C 46.018536 172.2338 45.623913 172.38477 45.125 172.38477 C 44.626087 172.38477 44.228725 172.2338 43.933594 171.93164 C 43.645489 171.62948 43.501953 171.24972 43.501953 170.79297 C 43.501953 170.32919 43.650181 169.94943 43.945312 169.6543 C 44.240445 169.35917 44.633114 169.21094 45.125 169.21094 z M 84.630859 169.21094 C 85.122745 169.21094 85.515415 169.35917 85.810547 169.6543 C 86.105678 169.94943 86.253906 170.32919 86.253906 170.79297 C 86.253906 171.24972 86.105678 171.62948 85.810547 171.93164 C 85.522442 172.2338 85.129772 172.38477 84.630859 172.38477 C 84.131946 172.38477 83.734585 172.2338 83.439453 171.93164 C 83.151348 171.62948 83.007814 171.24972 83.007812 170.79297 C 83.007812 170.32919 83.15604 169.94943 83.451172 169.6543 C 83.746303 169.35917 84.138973 169.21094 84.630859 169.21094 z M 30.410156 169.80078 L 33.509766 169.80078 L 33.509766 176.00977 L 38.083984 176.00977 L 38.083984 169.80078 L 41.171875 169.80078 L 41.171875 185.14844 L 38.083984 185.14844 L 38.083984 178.58203 L 33.509766 178.58203 L 33.509766 185.14844 L 30.410156 185.14844 L 30.410156 169.80078 z M 59.25 170.93945 L 62.232422 170.93945 L 62.232422 173.74414 L 63.761719 173.74414 L 63.761719 175.98828 L 62.232422 175.98828 L 62.232422 181.64844 C 62.232422 182.09816 62.292651 182.40753 62.412109 182.57617 C 62.538594 182.74482 62.777559 182.83008 63.128906 182.83008 C 63.417011 182.83008 63.651284 182.80505 63.833984 182.75586 L 63.814453 185.07422 C 63.308513 185.26395 62.760185 185.35938 62.169922 185.35938 C 60.24454 185.35938 59.271081 184.25529 59.25 182.04883 L 59.25 175.98828 L 57.931641 175.98828 L 57.931641 173.74414 L 59.25 173.74414 L 59.25 170.93945 z M 52.724609 173.5332 C 53.975405 173.5332 54.976633 173.85547 55.728516 174.50195 C 56.480398 175.14843 56.857422 176.01629 56.857422 177.10547 L 53.875 177.10547 C 53.875 176.17791 53.487807 175.71484 52.714844 175.71484 C 52.398631 175.71484 52.139328 175.81301 51.935547 176.00977 C 51.731766 176.20652 51.628906 176.48068 51.628906 176.83203 C 51.628906 177.085 51.741935 177.3091 51.966797 177.50586 C 52.191659 177.69559 52.722388 177.96975 53.558594 178.32812 C 54.774255 178.77786 55.629993 179.28081 56.128906 179.83594 C 56.634846 180.38404 56.888672 181.09819 56.888672 181.97656 C 56.888672 182.99547 56.506171 183.81327 55.740234 184.43164 C 54.974298 185.05001 53.968378 185.35938 52.724609 185.35938 C 51.888403 185.35937 51.151171 185.19824 50.511719 184.875 C 49.872267 184.54473 49.369307 184.08714 49.003906 183.50391 C 48.645532 182.92067 48.466797 182.29177 48.466797 181.61719 L 51.302734 181.61719 C 51.316788 182.13718 51.435294 182.52711 51.660156 182.78711 C 51.892045 183.04711 52.269069 183.17773 52.789062 183.17773 C 53.590135 183.17773 53.990234 182.81557 53.990234 182.0918 C 53.990234 181.83883 53.867037 181.60729 53.621094 181.39648 C 53.382178 181.17865 52.84402 180.88689 52.007812 180.52148 C 50.778098 180.02257 49.932528 179.5067 49.46875 178.97266 C 49.011999 178.43861 48.783203 177.77451 48.783203 176.98047 C 48.783203 175.98264 49.140674 175.16015 49.857422 174.51367 C 50.581197 173.86017 51.537056 173.5332 52.724609 173.5332 z M 69.347656 173.5332 C 70.802233 173.5332 71.936828 174.02404 72.751953 175.00781 C 73.567078 175.99158 73.974609 177.35497 73.974609 179.09766 L 73.974609 179.82617 C 73.974609 181.56183 73.569817 182.91779 72.761719 183.89453 C 71.95362 184.87128 70.823718 185.35938 69.369141 185.35938 C 67.907537 185.35938 66.76825 184.87128 65.953125 183.89453 C 65.145027 182.91076 64.742188 181.54737 64.742188 179.80469 L 64.742188 179.07812 C 64.742188 177.3495 65.149718 175.99158 65.964844 175.00781 C 66.779969 174.02404 67.907133 173.5332 69.347656 173.5332 z M 80.677734 173.5332 C 81.015028 173.5332 81.289192 173.57857 81.5 173.66992 L 81.46875 176.62109 L 80.478516 176.53711 C 79.66339 176.53711 79.11037 176.89458 78.822266 177.61133 L 78.822266 185.14844 L 75.830078 185.14844 L 75.830078 173.74414 L 78.644531 173.74414 L 78.728516 174.97656 C 79.199321 174.01387 79.848555 173.5332 80.677734 173.5332 z M 92.515625 173.5332 C 93.766421 173.5332 94.732449 173.86017 95.414062 174.51367 C 96.102704 175.16015 96.447266 176.08823 96.447266 177.29688 L 96.447266 182.66016 C 96.46132 183.64393 96.602117 184.41362 96.869141 184.96875 L 96.869141 185.14844 L 93.865234 185.14844 C 93.780911 184.97276 93.695651 184.67826 93.611328 184.26367 C 93.07728 184.99447 92.352956 185.35938 91.439453 185.35938 C 90.483789 185.35938 89.691019 185.04258 89.058594 184.41016 C 88.433196 183.77773 88.119141 182.95993 88.119141 181.95508 C 88.119141 180.7605 88.498903 179.8371 89.257812 179.18359 C 90.02375 178.53009 91.123144 178.19569 92.556641 178.18164 L 93.462891 178.18164 L 93.462891 177.26367 C 93.462891 176.75071 93.376845 176.38854 93.201172 176.17773 C 93.025498 175.96693 92.768934 175.86328 92.431641 175.86328 C 91.686785 175.86328 91.314453 176.29858 91.314453 177.16992 L 88.330078 177.16992 C 88.330078 176.11588 88.724701 175.24802 89.511719 174.56641 C 90.305763 173.87777 91.306991 173.5332 92.515625 173.5332 z M 43.638672 173.74414 L 46.632812 173.74414 L 46.632812 185.14844 L 43.638672 185.14844 L 43.638672 173.74414 z M 83.144531 173.74414 L 86.138672 173.74414 L 86.138672 185.14844 L 83.144531 185.14844 L 83.144531 173.74414 z M 69.347656 176.00977 C 68.841716 176.00977 68.444355 176.26359 68.15625 176.76953 C 67.875172 177.26844 67.734375 178.03814 67.734375 179.07812 L 67.734375 179.82617 C 67.734375 181.86399 68.279965 182.88281 69.369141 182.88281 C 70.373993 182.88281 70.91489 182.03255 70.992188 180.33203 L 71.001953 179.07812 C 71.001953 178.03814 70.858418 177.26844 70.570312 176.76953 C 70.282208 176.26359 69.874677 176.00977 69.347656 176.00977 z M 92.748047 179.97266 C 92.242107 179.97266 91.840053 180.13575 91.544922 180.45898 C 91.256817 180.78222 91.113281 181.21283 91.113281 181.75391 C 91.113281 182.59714 91.442983 183.01953 92.103516 183.01953 C 92.433782 183.01953 92.715377 182.95187 92.947266 182.81836 C 93.179155 182.68485 93.35046 182.5284 93.462891 182.3457 L 93.462891 179.97266 L 92.748047 179.97266 z "
       transform="translate(0,832.36216)"
       id="rect4157" />
    <g
       id="g4183"
       transform="matrix(0.9959374,0,0,0.9959374,29.673666,-38.85735)">
      <g
         id="g4213"
         transform="translate(30.122388,8.5266673)" />
    </g>
  </g>
</svg>
