<?xml version="1.0" encoding="UTF-8" standalone="no"?>
<!-- Created with Inkscape (http://www.inkscape.org/) -->

<svg
   xmlns:dc="http://purl.org/dc/elements/1.1/"
   xmlns:cc="http://creativecommons.org/ns#"
   xmlns:rdf="http://www.w3.org/1999/02/22-rdf-syntax-ns#"
   xmlns:svg="http://www.w3.org/2000/svg"
   xmlns="http://www.w3.org/2000/svg"
   xmlns:sodipodi="http://sodipodi.sourceforge.net/DTD/sodipodi-0.dtd"
   xmlns:inkscape="http://www.inkscape.org/namespaces/inkscape"
   width="220"
   height="220"
   viewBox="0 0 219.99999 220"
   id="svg2"
   version="1.1"
   inkscape:version="0.91 r13725"
   sodipodi:docname="ufu_diplomas.svg">
  <defs
     id="defs4" />
  <sodipodi:namedview
     id="base"
     pagecolor="#ffffff"
     bordercolor="#666666"
     borderopacity="1.0"
     inkscape:pageopacity="0.0"
     inkscape:pageshadow="2"
     inkscape:zoom="2.9590909"
     inkscape:cx="110"
     inkscape:cy="110"
     inkscape:document-units="px"
     inkscape:current-layer="layer1"
     showgrid="false"
     units="px"
     inkscape:window-width="1440"
     inkscape:window-height="847"
     inkscape:window-x="-8"
     inkscape:window-y="-8"
     inkscape:window-maximized="1" />
  <metadata
     id="metadata7">
    <rdf:RDF>
      <cc:Work
         rdf:about="">
        <dc:format>image/svg+xml</dc:format>
        <dc:type
           rdf:resource="http://purl.org/dc/dcmitype/StillImage" />
        <dc:title></dc:title>
      </cc:Work>
    </rdf:RDF>
  </metadata>
  <g
     inkscape:label="Camada 1"
     inkscape:groupmode="layer"
     id="layer1"
     transform="translate(0,-832.36216)">
    <path
       style="color:#000000;clip-rule:nonzero;display:inline;overflow:visible;visibility:visible;opacity:1;isolation:auto;mix-blend-mode:normal;color-interpolation:sRGB;color-interpolation-filters:linearRGB;solid-color:#000000;solid-opacity:1;fill:#ffffff;fill-opacity:1;fill-rule:nonzero;stroke:none;stroke-width:5;stroke-linecap:square;stroke-linejoin:miter;stroke-miterlimit:4;stroke-dasharray:none;stroke-dashoffset:0;stroke-opacity:1;color-rendering:auto;image-rendering:auto;shape-rendering:auto;text-rendering:auto;enable-background:accumulate"
       d="M 0 0 L 0 220 L 220 220 L 220 0 L 0 0 z M 30 49.046875 L 190 49.046875 L 190 170.95312 L 30 170.95312 L 30 49.046875 z M 45.238281 64.285156 L 45.238281 155.71484 L 116.4043 155.71484 L 116.4043 168.9375 L 137.08594 163.00977 L 157.38672 168.72656 L 157.33398 155.71484 L 174.76172 155.71484 L 174.76172 64.285156 L 45.238281 64.285156 z M 137.07227 77.333984 L 147.27344 83.169922 L 158.62305 86.255859 L 161.70508 97.601562 L 167.54492 107.80664 L 161.70508 118.00977 L 158.62305 129.35156 L 154.36133 130.51172 L 154.50195 164.93555 L 137.07812 160.02734 L 119.27344 165.13281 L 119.27344 130.37109 L 115.52344 129.35156 L 112.4375 118.00977 L 106.59766 107.80664 L 112.4375 97.601562 L 115.52344 86.255859 L 126.86914 83.169922 L 137.07227 77.333984 z M 55.464844 80.464844 L 101.6543 80.464844 L 101.6543 86.203125 L 55.464844 86.203125 L 55.464844 80.464844 z M 137.07227 83.945312 L 128.72852 88.611328 L 120.19922 90.931641 L 117.59961 100.13281 L 113.21094 107.80664 L 117.87891 116.15039 L 120.19922 124.68164 L 120.21094 124.68359 L 129.40234 127.27734 L 137.07227 131.66797 L 145.41406 126.99805 L 153.94727 124.68164 L 156.54297 115.47656 L 160.93359 107.80664 L 156.26367 99.460938 L 153.94727 90.931641 L 144.74219 88.333984 L 137.07227 83.945312 z M 55.464844 95.703125 L 101.6543 95.703125 L 101.6543 101.44141 L 55.464844 101.44141 L 55.464844 95.703125 z M 55.464844 110.94141 L 101.6543 110.94141 L 101.6543 116.67773 L 55.464844 116.67773 L 55.464844 110.94141 z M 55.464844 126.17969 L 101.6543 126.17969 L 101.6543 131.91602 L 55.464844 131.91602 L 55.464844 126.17969 z "
       transform="translate(-7.6293945e-6,832.36216)"
       id="rect3336" />
    <g
       id="g3389"
       transform="matrix(0.2,0,0,0.2,29.999992,862.36226)">
      <g
         id="g3339" />
      <g
         id="g3353" />
      <g
         id="g3355" />
      <g
         id="g3357" />
      <g
         id="g3359" />
      <g
         id="g3361" />
      <g
         id="g3363" />
      <g
         id="g3365" />
      <g
         id="g3367" />
      <g
         id="g3369" />
      <g
         id="g3371" />
      <g
         id="g3373" />
      <g
         id="g3375" />
      <g
         id="g3377" />
      <g
         id="g3379" />
      <g
         id="g3381" />
    </g>
  </g>
</svg>
