<?xml version="1.0" encoding="UTF-8" standalone="no"?>
<!-- Created with Inkscape (http://www.inkscape.org/) -->

<svg
   xmlns:dc="http://purl.org/dc/elements/1.1/"
   xmlns:cc="http://creativecommons.org/ns#"
   xmlns:rdf="http://www.w3.org/1999/02/22-rdf-syntax-ns#"
   xmlns:svg="http://www.w3.org/2000/svg"
   xmlns="http://www.w3.org/2000/svg"
   xmlns:sodipodi="http://sodipodi.sourceforge.net/DTD/sodipodi-0.dtd"
   xmlns:inkscape="http://www.inkscape.org/namespaces/inkscape"
   width="220"
   height="220"
   viewBox="0 0 220 220"
   id="svg2"
   version="1.1"
   inkscape:version="0.91 r13725"
   sodipodi:docname="ufu_solicitar_servicos.svg">
  <defs
     id="defs4">
    <pattern
       id="EMFhbasepattern"
       patternUnits="userSpaceOnUse"
       width="6"
       height="6"
       x="0"
       y="0" />
  </defs>
  <sodipodi:namedview
     id="base"
     pagecolor="#ffffff"
     bordercolor="#666666"
     borderopacity="1.0"
     inkscape:pageopacity="0.0"
     inkscape:pageshadow="2"
     inkscape:zoom="2.9590909"
     inkscape:cx="110"
     inkscape:cy="123.51767"
     inkscape:document-units="px"
     inkscape:current-layer="layer1-8"
     showgrid="false"
     units="px"
     inkscape:window-width="1440"
     inkscape:window-height="847"
     inkscape:window-x="-8"
     inkscape:window-y="-8"
     inkscape:window-maximized="1" />
  <metadata
     id="metadata7">
    <rdf:RDF>
      <cc:Work
         rdf:about="">
        <dc:format>image/svg+xml</dc:format>
        <dc:type
           rdf:resource="http://purl.org/dc/dcmitype/StillImage" />
        <dc:title></dc:title>
      </cc:Work>
    </rdf:RDF>
  </metadata>
  <g
     inkscape:label="Camada 1"
     inkscape:groupmode="layer"
     id="layer1"
     transform="translate(0,-832.36216)">
    <g
       id="g4185"
       transform="matrix(0.31054775,0,0,0.31054775,20.000001,852.36216)">
      <g
         id="g4139">
        <g
           id="g4141" />
      </g>
      <g
         id="g4149" />
      <g
         id="g4151" />
      <g
         id="g4153" />
      <g
         id="g4155" />
      <g
         id="g4157" />
      <g
         id="g4159" />
      <g
         id="g4161" />
      <g
         id="g4163" />
      <g
         id="g4165" />
      <g
         id="g4167" />
      <g
         id="g4169" />
      <g
         id="g4171" />
      <g
         id="g4173" />
      <g
         id="g4175" />
      <g
         id="g4177" />
    </g>
    <g
       id="g5587"
       transform="matrix(0.36372527,0,0,0.36372527,19.999788,852.36216)">
      <g
         id="XMLID_211_" />
      <g
         id="g5551" />
      <g
         id="g5553" />
      <g
         id="g5555" />
      <g
         id="g5557" />
      <g
         id="g5559" />
      <g
         id="g5561" />
      <g
         id="g5563" />
      <g
         id="g5565" />
      <g
         id="g5567" />
      <g
         id="g5569" />
      <g
         id="g5571" />
      <g
         id="g5573" />
      <g
         id="g5575" />
      <g
         id="g5577" />
      <g
         id="g5579" />
    </g>
    <g
       transform="matrix(0.35333693,-0.13569772,0.13569772,0.35333693,-98.886859,488.84759)"
       id="layer1-4"
       inkscape:label="Camada 1"
       style="fill:#ffffff">
      <text
         sodipodi:linespacing="125%"
         id="text3356"
         y="1073.4818"
         x="933.04791"
         style="font-style:normal;font-variant:normal;font-weight:normal;font-stretch:normal;font-size:15px;line-height:125%;font-family:'Open Sans';-inkscape-font-specification:'Open Sans, Normal';text-align:start;letter-spacing:0px;word-spacing:0px;writing-mode:lr-tb;text-anchor:start;fill:#ffffff;fill-opacity:1;stroke:none;stroke-width:1px;stroke-linecap:butt;stroke-linejoin:miter;stroke-opacity:1"
         xml:space="preserve"><tspan
           y="1073.4818"
           x="933.04791"
           id="tspan3358"
           sodipodi:role="line" /></text>
    </g>
    <g
       id="g5657"
       transform="matrix(6.2430633,0,0,6.2430633,19.999999,852.36216)">
      <g
         id="g5617" />
      <g
         id="g5621" />
      <g
         id="g5623" />
      <g
         id="g5625" />
      <g
         id="g5627" />
      <g
         id="g5629" />
      <g
         id="g5631" />
      <g
         id="g5633" />
      <g
         id="g5635" />
      <g
         id="g5637" />
      <g
         id="g5639" />
      <g
         id="g5641" />
      <g
         id="g5643" />
      <g
         id="g5645" />
      <g
         id="g5647" />
      <g
         id="g5649" />
    </g>
    <g
       transform="matrix(0.24642901,0,0,0.24642901,146.70265,732.4686)"
       id="layer1-0"
       inkscape:label="Camada 1">
      <text
         sodipodi:linespacing="125%"
         id="text3356-0"
         y="1073.4818"
         x="933.04791"
         style="font-style:normal;font-variant:normal;font-weight:normal;font-stretch:normal;font-size:15px;line-height:125%;font-family:'Open Sans';-inkscape-font-specification:'Open Sans, Normal';text-align:start;letter-spacing:0px;word-spacing:0px;writing-mode:lr-tb;text-anchor:start;fill:#000000;fill-opacity:1;stroke:none;stroke-width:1px;stroke-linecap:butt;stroke-linejoin:miter;stroke-opacity:1"
         xml:space="preserve"><tspan
           y="1073.4818"
           x="933.04791"
           id="tspan3358-1"
           sodipodi:role="line" /></text>
    </g>
    <g
       inkscape:label="Camada 1"
       id="g5689"
       transform="matrix(0.24642901,0,0,0.24642901,51.799546,731.76768)">
      <text
         xml:space="preserve"
         style="font-style:normal;font-variant:normal;font-weight:normal;font-stretch:normal;font-size:15px;line-height:125%;font-family:'Open Sans';-inkscape-font-specification:'Open Sans, Normal';text-align:start;letter-spacing:0px;word-spacing:0px;writing-mode:lr-tb;text-anchor:start;fill:#000000;fill-opacity:1;stroke:none;stroke-width:1px;stroke-linecap:butt;stroke-linejoin:miter;stroke-opacity:1"
         x="933.04791"
         y="1073.4818"
         id="text5693"
         sodipodi:linespacing="125%"><tspan
           sodipodi:role="line"
           id="tspan5695"
           x="933.04791"
           y="1073.4818" /></text>
    </g>
    <g
       inkscape:label="Camada 1"
       id="g5709"
       transform="matrix(0.24642901,0,0,0.24642901,101.48726,679.16698)">
      <text
         xml:space="preserve"
         style="font-style:normal;font-variant:normal;font-weight:normal;font-stretch:normal;font-size:15px;line-height:125%;font-family:'Open Sans';-inkscape-font-specification:'Open Sans, Normal';text-align:start;letter-spacing:0px;word-spacing:0px;writing-mode:lr-tb;text-anchor:start;fill:#000000;fill-opacity:1;stroke:none;stroke-width:1px;stroke-linecap:butt;stroke-linejoin:miter;stroke-opacity:1"
         x="933.04791"
         y="1073.4818"
         id="text5713"
         sodipodi:linespacing="125%"><tspan
           sodipodi:role="line"
           id="tspan5715"
           x="933.04791"
           y="1073.4818" /></text>
    </g>
    <g
       id="g5769"
       transform="matrix(3.9830118,0,0,3.9830118,77.962645,850.34016)">
      <g
         id="g5725">
        <g
           id="g5727" />
      </g>
      <g
         id="g5733" />
      <g
         id="g5735" />
      <g
         id="g5737" />
      <g
         id="g5739" />
      <g
         id="g5741" />
      <g
         id="g5743" />
      <g
         id="g5745" />
      <g
         id="g5747" />
      <g
         id="g5749" />
      <g
         id="g5751" />
      <g
         id="g5753" />
      <g
         id="g5755" />
      <g
         id="g5757" />
      <g
         id="g5759" />
      <g
         id="g5761" />
    </g>
    <g
       id="g5839"
       transform="matrix(0.37151396,0,0,0.37151396,20,875.89852)">
      <g
         id="g5791">
        <g
           id="g5793" />
      </g>
      <g
         id="g5803" />
      <g
         id="g5805" />
      <g
         id="g5807" />
      <g
         id="g5809" />
      <g
         id="g5811" />
      <g
         id="g5813" />
      <g
         id="g5815" />
      <g
         id="g5817" />
      <g
         id="g5819" />
      <g
         id="g5821" />
      <g
         id="g5823" />
      <g
         id="g5825" />
      <g
         id="g5827" />
      <g
         id="g5829" />
      <g
         id="g5831" />
    </g>
    <g
       transform="matrix(0.23089146,0,0,0.23089146,93.70431,646.39838)"
       id="layer1-2"
       inkscape:label="Camada 1">
      <text
         sodipodi:linespacing="125%"
         id="text3356-9"
         y="1073.4818"
         x="933.04791"
         style="font-style:normal;font-variant:normal;font-weight:normal;font-stretch:normal;font-size:15px;line-height:125%;font-family:'Open Sans';-inkscape-font-specification:'Open Sans, Normal';text-align:start;letter-spacing:0px;word-spacing:0px;writing-mode:lr-tb;text-anchor:start;fill:#000000;fill-opacity:1;stroke:none;stroke-width:1px;stroke-linecap:butt;stroke-linejoin:miter;stroke-opacity:1"
         xml:space="preserve"><tspan
           y="1073.4818"
           x="933.04791"
           id="tspan3358-7"
           sodipodi:role="line" /></text>
    </g>
    <g
       id="g5929"
       transform="matrix(0.35224368,0,0,0.35224368,30,866.99055)">
      <g
         id="XMLID_5_" />
      <g
         id="g5893" />
      <g
         id="g5895" />
      <g
         id="g5897" />
      <g
         id="g5899" />
      <g
         id="g5901" />
      <g
         id="g5903" />
      <g
         id="g5905" />
      <g
         id="g5907" />
      <g
         id="g5909" />
      <g
         id="g5911" />
      <g
         id="g5913" />
      <g
         id="g5915" />
      <g
         id="g5917" />
      <g
         id="g5919" />
      <g
         id="g5921" />
    </g>
    <g
       id="g6061"
       transform="matrix(3,0,0,3,20.000001,852.36166)">
      <g
         id="g6019" />
      <g
         id="g6025" />
      <g
         id="g6027" />
      <g
         id="g6029" />
      <g
         id="g6031" />
      <g
         id="g6033" />
      <g
         id="g6035" />
      <g
         id="g6037" />
      <g
         id="g6039" />
      <g
         id="g6041" />
      <g
         id="g6043" />
      <g
         id="g6045" />
      <g
         id="g6047" />
      <g
         id="g6049" />
      <g
         id="g6051" />
      <g
         id="g6053" />
    </g>
    <g
       id="g5998"
       transform="translate(56.909413,942.86316)"
       style="fill:#ff0000">
      <g
         id="g5956"
         style="fill:#ff0000">
        <g
           id="g5958"
           style="fill:#ff0000" />
      </g>
      <g
         id="g5962"
         style="fill:#ff0000" />
      <g
         id="g5964"
         style="fill:#ff0000" />
      <g
         id="g5966"
         style="fill:#ff0000" />
      <g
         id="g5968"
         style="fill:#ff0000" />
      <g
         id="g5970"
         style="fill:#ff0000" />
      <g
         id="g5972"
         style="fill:#ff0000" />
      <g
         id="g5974"
         style="fill:#ff0000" />
      <g
         id="g5976"
         style="fill:#ff0000" />
      <g
         id="g5978"
         style="fill:#ff0000" />
      <g
         id="g5980"
         style="fill:#ff0000" />
      <g
         id="g5982"
         style="fill:#ff0000" />
      <g
         id="g5984"
         style="fill:#ff0000" />
      <g
         id="g5986"
         style="fill:#ff0000" />
      <g
         id="g5988"
         style="fill:#ff0000" />
      <g
         id="g5990"
         style="fill:#ff0000" />
    </g>
    <g
       transform="matrix(0.72032417,0,0,0.72032417,52.11,168.17353)"
       id="layer1-9"
       inkscape:label="Camada 1">
      <text
         sodipodi:linespacing="125%"
         id="text3356-2"
         y="1073.4818"
         x="933.04791"
         style="font-style:normal;font-variant:normal;font-weight:normal;font-stretch:normal;font-size:15px;line-height:125%;font-family:'Open Sans';-inkscape-font-specification:'Open Sans, Normal';text-align:start;letter-spacing:0px;word-spacing:0px;writing-mode:lr-tb;text-anchor:start;fill:#000000;fill-opacity:1;stroke:none;stroke-width:1px;stroke-linecap:butt;stroke-linejoin:miter;stroke-opacity:1"
         xml:space="preserve"><tspan
           y="1073.4818"
           x="933.04791"
           id="tspan3358-4"
           sodipodi:role="line" /></text>
    </g>
    <g
       transform="translate(-11.658979,862.27)"
       id="g6121">
      <g
         transform="translate(-372.37358,-381.61097)"
         id="layer1-8"
         inkscape:label="Camada 1">
        <path
           style="color:#000000;clip-rule:nonzero;display:inline;overflow:visible;visibility:visible;opacity:1;isolation:auto;mix-blend-mode:normal;color-interpolation:sRGB;color-interpolation-filters:linearRGB;solid-color:#000000;solid-opacity:1;fill:#ffffff;fill-opacity:1;fill-rule:nonzero;stroke:none;stroke-width:5;stroke-linecap:square;stroke-linejoin:miter;stroke-miterlimit:4;stroke-dasharray:none;stroke-dashoffset:0;stroke-opacity:1;color-rendering:auto;image-rendering:auto;shape-rendering:auto;text-rendering:auto;enable-background:accumulate"
           d="M 0 0 L 0 220 L 220 220 L 220 0 L 0 0 z M 127.76758 59.042969 C 128.21126 59.042969 128.61958 59.084419 128.88477 59.166016 C 129.37434 59.329208 134.47359 64.061264 140.14453 69.691406 L 150.42578 79.931641 L 150.42578 74.546875 C 150.42578 68.590348 150.71096 67.611098 152.91406 66.46875 C 154.54599 65.652787 156.21942 65.775186 157.81055 66.835938 C 159.97285 68.263872 160.17578 69.445873 160.17578 80.175781 L 160.2168 89.722656 L 175.10938 104.65625 L 190 119.58789 L 190 121.46484 C 190 122.72959 189.71353 123.66819 189.10156 124.44336 C 188.3264 125.46331 186.00173 126.76888 185.22656 126.64648 C 185.06337 126.60569 184.45203 126.48199 183.88086 126.40039 C 183.18729 126.278 173.72113 117.09809 155.11719 98.494141 L 127.375 70.792969 L 118.19531 79.931641 L 109.01562 89.111328 L 105.42578 85.724609 L 101.87695 82.378906 L 113.38086 70.916016 C 123.21321 61.165263 125.13001 59.410804 126.43555 59.166016 C 126.84353 59.084419 127.3239 59.042969 127.76758 59.042969 z M 127.16016 76.109375 C 129.20277 75.96435 131.92299 78.677984 153.19922 99.882812 C 166.05063 112.73422 176.9043 123.79059 177.27148 124.44336 C 177.88346 125.50411 177.9655 127.29916 178.08789 137.25391 C 178.29188 152.87959 177.80095 155.1641 173.80273 158.46875 C 171.02846 160.75345 169.60183 160.95703 155.73047 160.95703 C 141.61432 160.95703 140.75669 160.83482 137.61523 158.06055 C 136.63608 157.16299 135.37217 155.57247 134.8418 154.51172 C 133.94424 152.6758 133.90321 152.06347 133.69922 141.98633 C 133.49523 132.23558 133.41384 131.25671 132.63867 129.95117 C 131.74111 128.36004 129.12867 126.68555 127.61914 126.68555 C 125.98722 126.68555 123.37694 128.1962 122.27539 129.82812 C 121.25544 131.29686 121.25477 131.41853 121.05078 142.14844 C 120.84679 152.55196 120.80576 153.08335 119.9082 154.79688 C 118.76586 156.91838 117.01126 158.63152 114.72656 159.85547 C 113.33943 160.58984 112.27946 160.75261 107.54688 160.875 C 104.36462 160.9566 101.8763 160.87587 101.75391 160.67188 C 101.59071 160.42709 102.16234 159.65212 102.9375 158.87695 C 105.83417 156.10268 106.85372 152.6332 105.79297 149.04297 C 105.30339 147.24785 103.75209 145.04634 97.183594 136.88672 C 92.818194 131.37897 89.228516 126.72721 89.228516 126.48242 C 89.269314 126.27843 89.880868 125.37998 90.615234 124.48242 L 91.962891 122.89258 L 95.226562 123.38086 C 106.97642 125.09438 116.60373 115.8755 116.64453 102.7793 C 116.68533 98.78108 115.6662 96.168582 112.76953 92.986328 L 110.89258 90.90625 L 118.11328 83.767578 C 122.0707 79.81016 125.74306 76.463974 126.27344 76.300781 C 126.58962 76.208985 126.86835 76.130093 127.16016 76.109375 z M 62.779297 84.296875 C 63.225208 84.2905 63.698574 84.307292 64.21875 84.337891 C 67.686591 84.541881 70.175385 85.724862 73.398438 88.703125 C 75.397546 90.539041 75.765625 91.069025 75.765625 92.292969 C 75.765625 93.231326 75.439662 94.007604 74.746094 94.701172 C 73.807737 95.639529 73.562252 95.680336 70.951172 95.435547 L 68.136719 95.150391 L 65.240234 97.923828 C 63.608309 99.433359 62.302734 100.78017 62.302734 100.94336 C 62.302734 101.06575 65.483553 105.14502 69.359375 110 L 76.417969 118.85352 L 79.763672 114.65039 C 81.599588 112.3249 83.109375 110.36654 83.109375 110.24414 C 83.109375 110.16254 82.497821 109.02082 81.722656 107.79688 C 80.131529 105.145 79.232209 101.31095 79.558594 98.822266 C 80.374556 92.865739 85.557371 87.888006 92.289062 86.664062 C 95.348922 86.092889 98.653879 86.500013 100.04102 87.601562 L 101.14258 88.458984 L 96.654297 92.986328 C 94.206409 95.475014 91.961586 97.924485 91.716797 98.414062 C 90.207266 101.39233 92.656076 106.00088 96.287109 106.89844 C 98.938988 107.59201 100.20427 106.85845 105.18164 101.92188 L 109.91406 97.271484 L 110.76953 98.291016 C 113.5438 101.84045 111.46327 110.52978 106.77148 115.01758 C 102.24289 119.34218 97.878393 119.9149 91.1875 117.14062 C 90.697922 116.89584 89.595233 117.95577 86.576172 121.75 L 82.660156 126.64648 L 91.675781 137.90625 C 96.612355 144.06677 100.85677 149.65561 101.10156 150.26758 C 102.5295 154.02101 98.163367 157.73305 94.369141 156.01953 C 93.797967 155.73394 89.514268 150.79724 84.863281 145.00391 C 78.294782 136.80348 76.294918 134.56055 75.927734 134.92773 C 75.682946 135.21332 71.440262 140.51743 66.462891 146.71875 C 61.526317 152.92007 57.162105 158.10048 56.794922 158.26367 C 55.0814 158.91644 52.959185 158.50888 51.53125 157.24414 C 49.940123 155.857 49.368714 154.02212 50.021484 152.30859 C 50.266273 151.69662 54.876366 145.65747 60.261719 138.92578 C 68.992519 128.03268 70.013233 126.56488 69.564453 125.91211 C 69.278866 125.54493 65.93268 121.30072 62.097656 116.52734 C 57.854651 111.22359 54.95898 107.9184 54.591797 108 C 53.857431 108.16319 53.407986 109.51023 53.367188 111.79492 C 53.326389 113.54924 52.632748 114.32515 47.125 119.26172 C 43.901948 122.11759 43.615365 121.99558 36.3125 114.9375 C 28.275268 107.18586 28.316258 107.55115 34.150391 102.125 C 38.678983 97.922793 39.61787 97.353298 42.310547 97.3125 C 44.064866 97.271702 44.431719 97.026626 51.041016 91.396484 C 57.895101 85.541953 59.657921 84.341498 62.779297 84.296875 z "
           transform="translate(384.03256,351.70313)"
           id="rect11202" />
        <g
           transform="matrix(3.5437419,0,0,3.5437419,-1011.695,-1512.2909)"
           id="g3565" />
        <g
           id="g4"
           style="fill:#01420a;fill-opacity:1;stroke:none"
           transform="matrix(0.04079813,0,0,0.04079813,387.17713,362.52288)" />
      </g>
    </g>
  </g>
</svg>
