<?xml version="1.0" encoding="UTF-8" standalone="no"?>
<!-- Created with Inkscape (http://www.inkscape.org/) -->

<svg
   xmlns:dc="http://purl.org/dc/elements/1.1/"
   xmlns:cc="http://creativecommons.org/ns#"
   xmlns:rdf="http://www.w3.org/1999/02/22-rdf-syntax-ns#"
   xmlns:svg="http://www.w3.org/2000/svg"
   xmlns="http://www.w3.org/2000/svg"
   xmlns:sodipodi="http://sodipodi.sourceforge.net/DTD/sodipodi-0.dtd"
   xmlns:inkscape="http://www.inkscape.org/namespaces/inkscape"
   width="220"
   height="220"
   viewBox="0 0 220 220"
   id="svg2"
   version="1.1"
   inkscape:version="0.91 r13725"
   sodipodi:docname="ufu_pibid.svg">
  <defs
     id="defs4" />
  <sodipodi:namedview
     id="base"
     pagecolor="#ffffff"
     bordercolor="#666666"
     borderopacity="1.0"
     inkscape:pageopacity="0.0"
     inkscape:pageshadow="2"
     inkscape:zoom="2.9590909"
     inkscape:cx="110"
     inkscape:cy="110"
     inkscape:document-units="px"
     inkscape:current-layer="layer1"
     showgrid="false"
     units="px"
     inkscape:window-width="1440"
     inkscape:window-height="847"
     inkscape:window-x="-8"
     inkscape:window-y="-8"
     inkscape:window-maximized="1" />
  <metadata
     id="metadata7">
    <rdf:RDF>
      <cc:Work
         rdf:about="">
        <dc:format>image/svg+xml</dc:format>
        <dc:type
           rdf:resource="http://purl.org/dc/dcmitype/StillImage" />
        <dc:title></dc:title>
      </cc:Work>
    </rdf:RDF>
  </metadata>
  <g
     inkscape:label="Camada 1"
     inkscape:groupmode="layer"
     id="layer1"
     transform="translate(0,-832.36216)">
    <path
       style="color:#000000;clip-rule:nonzero;display:inline;overflow:visible;visibility:visible;opacity:1;isolation:auto;mix-blend-mode:normal;color-interpolation:sRGB;color-interpolation-filters:linearRGB;solid-color:#000000;solid-opacity:1;fill:#ffffff;fill-opacity:1;fill-rule:nonzero;stroke:none;stroke-width:5;stroke-linecap:square;stroke-linejoin:miter;stroke-miterlimit:4;stroke-dasharray:none;stroke-dashoffset:0;stroke-opacity:1;color-rendering:auto;image-rendering:auto;shape-rendering:auto;text-rendering:auto;enable-background:accumulate"
       d="M 0 0 L 0 220 L 220 220 L 220 0 L 0 0 z M 99.671875 68.503906 L 101.83398 68.503906 L 101.83398 91.648438 L 101.98047 91.685547 C 103.68945 89.90332 105.10547 88.610352 106.22852 87.804688 C 107.37598 86.999022 108.54785 86.387695 109.74414 85.972656 C 110.96484 85.533203 112.29394 85.314453 113.73438 85.314453 C 116.34667 85.314453 118.58203 85.985352 120.4375 87.328125 C 122.31738 88.646484 123.75684 90.635742 124.75781 93.296875 C 125.7832 95.958008 126.29688 99.216796 126.29688 103.07422 C 126.29687 107.05371 125.68555 110.42285 124.46484 113.18164 C 123.26855 115.91602 121.4873 117.99219 119.11914 119.4082 C 116.77539 120.7998 113.99219 121.49609 110.76953 121.49609 C 108.96289 121.49609 107.25391 121.32422 105.64258 120.98242 C 104.05566 120.66504 102.38281 120.0918 100.625 119.26172 L 98.060547 121.49609 L 95.535156 120.91016 L 95.535156 81.101562 C 95.535156 78.757812 95.509766 77.123047 95.460938 76.195312 C 95.436522 75.267578 95.338867 74.486328 95.167969 73.851562 C 95.021484 73.192384 94.802734 72.678711 94.509766 72.3125 C 94.241211 71.946289 93.861328 71.65332 93.373047 71.433594 C 92.90918 71.213867 92.055664 70.995117 90.810547 70.775391 L 90.810547 68.871094 L 99.671875 68.503906 z M 183.2793 68.503906 L 185.43945 68.503906 L 185.43945 110.91211 C 185.43945 112.81641 185.47559 114.18359 185.54883 115.01367 C 185.62207 115.81934 185.78125 116.4668 186.02539 116.95508 C 186.26953 117.44336 186.64746 117.84473 187.16016 118.16211 C 187.69727 118.45508 188.625 118.7373 189.94336 119.00586 L 189.94336 120.91016 L 181.30078 121.27539 L 179.10352 121.27539 L 179.54297 115.26953 L 178.99414 115.12305 C 177.45605 116.75879 176.1123 117.99219 174.96484 118.82227 C 173.8418 119.62793 172.63379 120.27539 171.33984 120.76367 C 170.07031 121.25195 168.70312 121.49609 167.23828 121.49609 C 163.23438 121.49609 160.14551 119.98242 157.97266 116.95508 C 155.7998 113.90332 154.71484 109.50879 154.71484 103.77148 C 154.71484 99.767582 155.42188 96.373047 156.83789 93.589844 C 158.25391 90.782227 160.1582 88.695312 162.55078 87.328125 C 164.96777 85.960938 167.67871 85.277344 170.68164 85.277344 C 172.29297 85.277344 173.75781 85.411133 175.07617 85.679688 C 176.39453 85.923827 177.74902 86.339844 179.14062 86.925781 L 179.14062 81.101562 C 179.14062 78.757812 179.11523 77.123047 179.06641 76.195312 C 179.04199 75.267578 178.94434 74.486328 178.77344 73.851562 C 178.62695 73.192384 178.4082 72.678711 178.11523 72.3125 C 177.84668 71.946289 177.46875 71.65332 176.98047 71.433594 C 176.5166 71.213867 175.66113 70.995117 174.41602 70.775391 L 174.41602 68.871094 L 183.2793 68.503906 z M 30.056641 70.921875 L 48.220703 70.921875 C 53.933594 70.921875 58.181641 72.019531 60.964844 74.216797 C 63.772461 76.389648 65.175781 79.709961 65.175781 84.177734 C 65.175781 86.716797 64.736328 89.000977 63.857422 91.027344 C 62.978516 93.053711 61.732422 94.713867 60.121094 96.007812 C 58.509766 97.301758 56.605469 98.229492 54.408203 98.791016 C 52.210938 99.352539 49.905273 99.632812 47.488281 99.632812 C 44.77832 99.632812 42.678711 99.583984 41.189453 99.486328 L 41.189453 111.64453 C 41.189453 113.08496 41.261719 114.23145 41.408203 115.08594 C 41.579102 115.94043 41.823242 116.62402 42.140625 117.13672 C 42.482422 117.625 42.93457 118.01562 43.496094 118.30859 C 44.057617 118.57715 44.936523 118.84668 46.132812 119.11523 L 46.132812 120.91016 L 30.056641 120.91016 L 30.056641 119.11523 C 31.570312 118.72461 32.583008 118.29785 33.095703 117.83398 C 33.608398 117.3457 33.9375 116.66211 34.083984 115.7832 C 34.254883 114.9043 34.339844 113.56055 34.339844 111.75391 L 34.339844 80.076172 C 34.339844 78.391602 34.280273 77.170898 34.158203 76.414062 C 34.036133 75.632812 33.828125 75.036133 33.535156 74.621094 C 33.266602 74.181641 32.899414 73.839844 32.435547 73.595703 C 31.97168 73.327148 31.179688 73.03418 30.056641 72.716797 L 30.056641 70.921875 z M 75.539062 71.544922 L 82.277344 71.544922 L 82.277344 78.648438 L 75.539062 78.648438 L 75.539062 71.544922 z M 137.35547 71.544922 L 144.09375 71.544922 L 144.09375 78.648438 L 137.35547 78.648438 L 137.35547 71.544922 z M 46.644531 74.144531 C 44.227539 74.144531 42.410156 74.193359 41.189453 74.291016 L 41.189453 96.447266 L 45.4375 96.447266 C 48.196289 96.447266 50.46582 96.092773 52.248047 95.384766 C 54.054688 94.652344 55.43457 93.455078 56.386719 91.794922 C 57.338867 90.110352 57.814453 87.889648 57.814453 85.130859 C 57.814453 83.03125 57.53418 81.286133 56.972656 79.894531 C 56.411133 78.478516 55.629883 77.342773 54.628906 76.488281 C 53.652344 75.633789 52.480469 75.035156 51.113281 74.693359 C 49.746094 74.327148 48.255859 74.144531 46.644531 74.144531 z M 79.824219 85.570312 L 82.058594 85.570312 L 82.058594 111.75391 C 82.058594 113.85352 82.15625 115.31836 82.351562 116.14844 C 82.546875 116.9541 82.912109 117.57618 83.449219 118.01562 C 84.010742 118.43067 84.915039 118.79785 86.160156 119.11523 L 86.160156 120.91016 L 71.804688 120.91016 L 71.804688 119.11523 C 72.756836 118.82227 73.427734 118.56543 73.818359 118.3457 C 74.233398 118.12598 74.575195 117.82031 74.84375 117.42969 C 75.136719 117.03906 75.355469 116.44238 75.501953 115.63672 C 75.672852 114.83105 75.759766 113.57227 75.759766 111.86328 L 75.759766 95.896484 C 75.759766 94.333984 75.734375 93.077148 75.685547 92.125 C 75.636719 91.172852 75.466797 90.416992 75.173828 89.855469 C 74.880859 89.269531 74.428711 88.84082 73.818359 88.572266 C 73.232422 88.279297 72.389648 88.035156 71.291016 87.839844 L 71.291016 85.900391 L 79.824219 85.570312 z M 141.64062 85.570312 L 143.875 85.570312 L 143.875 111.75391 C 143.875 113.85352 143.97266 115.31836 144.16797 116.14844 C 144.36328 116.9541 144.72852 117.57618 145.26562 118.01562 C 145.82715 118.43067 146.73145 118.79785 147.97656 119.11523 L 147.97656 120.91016 L 133.62109 120.91016 L 133.62109 119.11523 C 134.57324 118.82227 135.24414 118.56543 135.63477 118.3457 C 136.0498 118.12598 136.3916 117.82031 136.66016 117.42969 C 136.95312 117.03906 137.17188 116.44238 137.31836 115.63672 C 137.48926 114.83105 137.57617 113.57227 137.57617 111.86328 L 137.57617 95.896484 C 137.57617 94.333984 137.55078 93.077148 137.50195 92.125 C 137.45312 91.172852 137.2832 90.416992 136.99023 89.855469 C 136.69727 89.269531 136.24512 88.84082 135.63477 88.572266 C 135.04883 88.279297 134.20605 88.035156 133.10742 87.839844 L 133.10742 85.900391 L 141.64062 85.570312 z M 171.19336 88.207031 C 168.06836 88.207031 165.68848 89.463867 164.05273 91.978516 C 162.41699 94.46875 161.59961 98.058598 161.59961 102.74609 C 161.59961 107.43359 162.27051 110.99805 163.61328 113.43945 C 164.95605 115.88086 166.99414 117.10156 169.72852 117.10156 C 170.80273 117.10156 171.69434 117.01465 172.40234 116.84375 C 173.11035 116.64844 173.80664 116.35547 174.49023 115.96484 C 175.17383 115.5498 175.86816 114.98926 176.57617 114.28125 C 177.28418 113.57324 177.79785 112.92578 178.11523 112.33984 C 178.45703 111.75391 178.71387 111.08301 178.88477 110.32617 C 179.05566 109.56934 179.14062 108.59277 179.14062 107.39648 L 179.14062 99.193359 C 179.14062 97.289062 179.05566 95.762695 178.88477 94.615234 C 178.71387 93.467773 178.4209 92.503906 178.00586 91.722656 C 177.61523 90.941406 177.07812 90.28125 176.39453 89.744141 C 175.71094 89.207031 174.95312 88.816406 174.12305 88.572266 C 173.31738 88.328125 172.34082 88.207031 171.19336 88.207031 z M 111.09766 89.708984 C 109.70605 89.708984 108.52343 89.927734 107.54688 90.367188 C 106.57031 90.782227 105.59375 91.442383 104.61719 92.345703 C 103.66504 93.249023 102.95605 94.138672 102.49219 95.017578 C 102.05273 95.896484 101.83398 96.898438 101.83398 98.021484 L 101.83398 107.72656 C 101.83398 109.60645 101.91895 111.10742 102.08984 112.23047 C 102.26074 113.3291 102.54102 114.24414 102.93164 114.97656 C 103.34668 115.70898 103.93262 116.37988 104.68945 116.99023 C 105.4707 117.60059 106.33691 118.0293 107.28906 118.27344 C 108.24121 118.49316 109.30469 118.60156 110.47656 118.60156 C 113.40625 118.60156 115.62695 117.40625 117.14062 115.01367 C 118.65431 112.62109 119.41211 109.03125 119.41211 104.24609 C 119.41211 99.412113 118.71582 95.788086 117.32422 93.371094 C 115.95703 90.929688 113.88086 89.708984 111.09766 89.708984 z M 52.130859 129.17188 C 53.164101 129.17188 53.972151 129.50022 54.552734 130.15625 C 55.133318 130.81228 55.421875 131.71844 55.421875 132.87305 C 55.421875 134.02437 55.130739 134.92858 54.546875 135.58789 C 53.966291 136.2472 53.157616 136.57812 52.121094 136.57812 C 51.061611 136.57812 50.243319 136.25361 49.666016 135.60742 C 49.091992 134.95796 48.804688 134.04413 48.804688 132.86328 C 48.804688 131.69227 49.094571 130.78548 49.671875 130.14258 C 50.249179 129.49639 51.068096 129.17188 52.130859 129.17188 z M 144.43359 129.17188 C 145.46684 129.17188 146.27489 129.50022 146.85547 130.15625 C 147.43605 130.81228 147.72656 131.71844 147.72656 132.87305 C 147.72656 134.02437 147.43347 134.92858 146.84961 135.58789 C 146.26903 136.2472 145.46035 136.57812 144.42383 136.57812 C 143.36434 136.57812 142.54605 136.25361 141.96875 135.60742 C 141.39473 134.95796 141.10742 134.04413 141.10742 132.86328 C 141.10742 131.69227 141.39731 130.78548 141.97461 130.14258 C 142.55191 129.49639 143.37083 129.17188 144.43359 129.17188 z M 60.386719 129.18164 C 61.15427 129.18164 61.870616 129.32338 62.533203 129.60547 L 62.207031 130.34375 C 61.557565 130.06822 60.934249 129.92969 60.333984 129.92969 C 59.458189 129.92969 58.77327 130.19135 58.28125 130.71289 C 57.78923 131.23443 57.542969 131.95781 57.542969 132.88281 C 57.542969 133.85373 57.779614 134.58994 58.251953 135.0918 C 58.727573 135.59366 59.425313 135.84375 60.34375 135.84375 C 60.84233 135.84375 61.329068 135.78668 61.804688 135.67188 L 61.804688 133.45703 L 60.195312 133.45703 L 60.195312 132.71094 L 62.640625 132.71094 L 62.640625 136.20898 C 62.260129 136.33035 61.872132 136.42205 61.478516 136.48438 C 61.0849 136.54669 60.629589 136.57812 60.111328 136.57812 C 59.022324 136.57812 58.175184 136.25361 57.568359 135.60742 C 56.961535 134.95796 56.658203 134.05054 56.658203 132.88281 C 56.658203 132.13494 56.806977 131.48082 57.105469 130.91992 C 57.407241 130.35574 57.840114 129.92607 58.404297 129.63086 C 58.96848 129.33237 59.629008 129.18164 60.386719 129.18164 z M 107.39062 129.18164 C 108.10569 129.18164 108.76302 129.31376 109.36328 129.57617 L 109.10156 130.30469 C 108.50786 130.0554 107.932 129.92969 107.37109 129.92969 C 106.92828 129.92969 106.58132 130.0246 106.33203 130.21484 C 106.08274 130.40509 105.95898 130.66996 105.95898 131.00781 C 105.95898 131.2571 106.00386 131.46232 106.0957 131.62305 C 106.18755 131.78049 106.3421 131.92606 106.55859 132.06055 C 106.77836 132.19175 107.11312 132.33732 107.5625 132.49805 C 108.31693 132.76702 108.8351 133.0569 109.11719 133.36523 C 109.40256 133.67357 109.54492 134.07243 109.54492 134.56445 C 109.54492 135.19752 109.31469 135.69262 108.85547 136.04688 C 108.39625 136.40113 107.77356 136.57812 106.98633 136.57812 C 106.13349 136.57812 105.4768 136.46782 105.01758 136.24805 L 105.01758 135.44141 C 105.31279 135.56605 105.63473 135.66417 105.98242 135.73633 C 106.33012 135.80849 106.6745 135.84375 107.01562 135.84375 C 107.57326 135.84375 107.9933 135.73923 108.27539 135.5293 C 108.55748 135.31609 108.69922 135.02175 108.69922 134.64453 C 108.69922 134.39524 108.64856 134.19065 108.54688 134.0332 C 108.44846 133.87248 108.28109 133.72433 108.04492 133.58984 C 107.81203 133.45536 107.45546 133.30338 106.97656 133.13281 C 106.30742 132.89336 105.82771 132.60926 105.53906 132.28125 C 105.25369 131.95324 105.11133 131.52615 105.11133 130.99805 C 105.11133 130.4437 105.31975 130.00184 105.73633 129.67383 C 106.15291 129.34581 106.70508 129.18164 107.39062 129.18164 z M 135.40039 129.18164 C 136.15482 129.18164 136.81472 129.32017 137.37891 129.5957 L 137.02344 130.31445 C 136.47894 130.0586 135.93513 129.92969 135.39062 129.92969 C 134.60011 129.92969 133.97484 130.19455 133.51562 130.72266 C 133.05969 131.24748 132.83203 131.96766 132.83203 132.88281 C 132.83203 133.82421 133.05265 134.55143 133.49219 135.06641 C 133.93501 135.57811 134.56411 135.83398 135.38086 135.83398 C 135.88272 135.83398 136.45475 135.74486 137.09766 135.56445 L 137.09766 136.29688 C 136.59908 136.48383 135.98342 136.57812 135.25195 136.57812 C 134.19247 136.57812 133.37418 136.25619 132.79688 135.61328 C 132.22285 134.97038 131.9375 134.05718 131.9375 132.87305 C 131.9375 132.13174 132.07408 131.48145 132.34961 130.92383 C 132.62842 130.36621 133.02924 129.93654 133.55078 129.63477 C 134.0756 129.33299 134.69188 129.18164 135.40039 129.18164 z M 72.466797 129.25586 L 73.169922 129.25586 L 75.998047 136.47852 L 75.132812 136.47852 L 74.238281 134.19141 L 71.353516 134.19141 L 70.46875 136.47852 L 69.623047 136.47852 L 72.466797 129.25586 z M 87.935547 129.25586 L 88.638672 129.25586 L 91.46875 136.47852 L 90.601562 136.47852 L 89.707031 134.19141 L 86.824219 134.19141 L 85.9375 136.47852 L 85.091797 136.47852 L 87.935547 129.25586 z M 158.78711 129.25586 L 159.49023 129.25586 L 162.31836 136.47852 L 161.45312 136.47852 L 160.55664 134.19141 L 157.67383 134.19141 L 156.78906 136.47852 L 155.94141 136.47852 L 158.78711 129.25586 z M 36.878906 129.28516 L 38.744141 129.28516 C 40.541654 129.28516 41.439453 129.98352 41.439453 131.38086 C 41.439453 132.10905 41.189987 132.67084 40.691406 133.06445 C 40.196106 133.45479 39.485545 133.65039 38.560547 133.65039 L 37.714844 133.65039 L 37.714844 136.47852 L 36.878906 136.47852 L 36.878906 129.28516 z M 42.939453 129.28516 L 44.914062 129.28516 C 45.796419 129.28516 46.44733 129.45511 46.867188 129.79297 C 47.290324 130.13082 47.501953 130.63937 47.501953 131.31836 C 47.501953 132.2696 47.019047 132.91152 46.054688 133.24609 L 48.007812 136.47852 L 47.019531 136.47852 L 45.277344 133.48828 L 43.777344 133.48828 L 43.777344 136.47852 L 42.939453 136.47852 L 42.939453 129.28516 z M 64.373047 129.28516 L 66.345703 129.28516 C 67.228059 129.28516 67.878971 129.45511 68.298828 129.79297 C 68.721965 130.13082 68.933594 130.63937 68.933594 131.31836 C 68.933594 132.2696 68.450687 132.91152 67.486328 133.24609 L 69.439453 136.47852 L 68.451172 136.47852 L 66.708984 133.48828 L 65.208984 133.48828 L 65.208984 136.47852 L 64.373047 136.47852 L 64.373047 129.28516 z M 76.988281 129.28516 L 78.248047 129.28516 L 80.525391 135.21875 L 80.564453 135.21875 L 82.863281 129.28516 L 84.113281 129.28516 L 84.113281 136.47852 L 83.275391 136.47852 L 83.275391 131.84375 C 83.275391 131.31237 83.299781 130.73455 83.345703 130.11133 L 83.304688 130.11133 L 80.845703 136.47852 L 80.171875 136.47852 L 77.730469 130.10156 L 77.691406 130.10156 C 77.737328 130.6067 77.759766 131.20696 77.759766 131.90234 L 77.759766 136.47852 L 76.988281 136.47852 L 76.988281 129.28516 z M 95.074219 129.28516 L 95.910156 129.28516 L 95.910156 136.47852 L 95.074219 136.47852 L 95.074219 129.28516 z M 97.888672 129.28516 L 98.833984 129.28516 L 102.75586 135.29883 L 102.79492 135.29883 C 102.78836 135.21026 102.77296 134.92617 102.75 134.44727 C 102.72704 133.96509 102.71805 133.62071 102.72461 133.41406 L 102.72461 129.28516 L 103.50781 129.28516 L 103.50781 136.47852 L 102.55273 136.47852 L 98.621094 130.44141 L 98.582031 130.44141 C 98.634513 131.14992 98.662109 131.8002 98.662109 132.39062 L 98.662109 136.47852 L 97.888672 136.47852 L 97.888672 129.28516 z M 110.11523 129.28516 L 115.50781 129.28516 L 115.50781 130.0293 L 113.23047 130.0293 L 113.23047 136.47852 L 112.39453 136.47852 L 112.39453 130.0293 L 110.11523 130.0293 L 110.11523 129.28516 z M 116.58594 129.28516 L 117.42188 129.28516 L 117.42188 136.47852 L 116.58594 136.47852 L 116.58594 129.28516 z M 118.5 129.28516 L 123.89258 129.28516 L 123.89258 130.0293 L 121.61328 130.0293 L 121.61328 136.47852 L 120.77734 136.47852 L 120.77734 130.0293 L 118.5 130.0293 L 118.5 129.28516 z M 124.89648 129.28516 L 125.73242 129.28516 L 125.73242 133.97852 C 125.73242 134.57878 125.8966 135.03988 126.22461 135.36133 C 126.55262 135.68278 127.03552 135.84375 127.67188 135.84375 C 128.27869 135.84375 128.74425 135.68278 129.07227 135.36133 C 129.40028 135.03659 129.56445 134.57229 129.56445 133.96875 L 129.56445 129.28516 L 130.40234 129.28516 L 130.40234 133.93945 C 130.40234 134.75949 130.1535 135.40399 129.6582 135.87305 C 129.1629 136.34211 128.48314 136.57812 127.61719 136.57812 C 126.75123 136.57812 126.07914 136.34148 125.60352 135.86914 C 125.13118 135.3968 124.89648 134.74652 124.89648 133.91992 L 124.89648 129.28516 z M 138.66797 129.28516 L 139.50391 129.28516 L 139.50391 136.47852 L 138.66797 136.47852 L 138.66797 129.28516 z M 149.33398 129.28516 L 150.2793 129.28516 L 154.20117 135.29883 L 154.24023 135.29883 C 154.23367 135.21026 154.21827 134.92617 154.19531 134.44727 C 154.17235 133.96509 154.16531 133.62071 154.17188 133.41406 L 154.17188 129.28516 L 154.95312 129.28516 L 154.95312 136.47852 L 153.99805 136.47852 L 150.06836 130.44141 L 150.02734 130.44141 C 150.07983 131.14992 150.10742 131.8002 150.10742 132.39062 L 150.10742 136.47852 L 149.33398 136.47852 L 149.33398 129.28516 z M 163.30859 129.28516 L 164.14453 129.28516 L 164.14453 135.7207 L 167.31836 135.7207 L 167.31836 136.47852 L 163.30859 136.47852 L 163.30859 129.28516 z M 171.16016 129.28516 L 173.36523 129.28516 C 174.48376 129.28516 175.35271 129.5949 175.97266 130.21484 C 176.5926 130.83479 176.90234 131.70053 176.90234 132.8125 C 176.90234 133.99991 176.57978 134.90928 175.93359 135.53906 C 175.29069 136.16557 174.36271 136.47852 173.15234 136.47852 L 171.16016 136.47852 L 171.16016 129.28516 z M 178.50195 129.28516 L 182.51172 129.28516 L 182.51172 130.0293 L 179.33789 130.0293 L 179.33789 132.3457 L 182.32031 132.3457 L 182.32031 133.08398 L 179.33789 133.08398 L 179.33789 135.73047 L 182.51172 135.73047 L 182.51172 136.47852 L 178.50195 136.47852 L 178.50195 129.28516 z M 52.130859 129.91992 C 51.333787 129.91992 50.727124 130.17259 50.310547 130.67773 C 49.89725 131.17959 49.691406 131.91197 49.691406 132.87305 C 49.691406 133.84725 49.89725 134.58666 50.310547 135.0918 C 50.727124 135.59366 51.330582 135.84375 52.121094 135.84375 C 52.918166 135.84375 53.520998 135.59366 53.927734 135.0918 C 54.334471 134.58994 54.537109 133.85053 54.537109 132.87305 C 54.537109 131.90541 54.334471 131.17241 53.927734 130.67383 C 53.524278 130.17197 52.924652 129.91992 52.130859 129.91992 z M 144.43359 129.91992 C 143.63652 129.91992 143.02986 130.17259 142.61328 130.67773 C 142.19998 131.17959 141.99414 131.91197 141.99414 132.87305 C 141.99414 133.84725 142.19998 134.58666 142.61328 135.0918 C 143.02986 135.59366 143.63332 135.84375 144.42383 135.84375 C 145.2209 135.84375 145.82373 135.59366 146.23047 135.0918 C 146.63721 134.58994 146.83984 133.85053 146.83984 132.87305 C 146.83984 131.90541 146.63721 131.17241 146.23047 130.67383 C 145.82701 130.17197 145.22739 129.91992 144.43359 129.91992 z M 37.714844 130.00977 L 37.714844 132.93164 L 38.466797 132.93164 C 39.208107 132.93164 39.744878 132.81172 40.076172 132.57227 C 40.407465 132.33282 40.574219 131.94998 40.574219 131.42188 C 40.574219 130.94626 40.417081 130.59031 40.105469 130.35742 C 39.793856 130.12453 39.309697 130.00977 38.650391 130.00977 L 37.714844 130.00977 z M 171.99609 130.00977 L 171.99609 135.75586 L 173.01562 135.75586 C 174.01279 135.75586 174.76181 135.51218 175.26367 135.02344 C 175.76553 134.53142 176.01758 133.80483 176.01758 132.84375 C 176.01758 131.90563 175.78093 131.19828 175.30859 130.72266 C 174.83953 130.24704 174.14117 130.00977 173.21289 130.00977 L 171.99609 130.00977 z M 43.777344 130.01953 L 43.777344 132.76953 L 44.923828 132.76953 C 45.514252 132.76953 45.947125 132.65281 46.222656 132.41992 C 46.498187 132.18375 46.634766 131.83039 46.634766 131.36133 C 46.634766 130.88571 46.494982 130.54391 46.212891 130.33398 C 45.934079 130.12406 45.483227 130.01953 44.863281 130.01953 L 43.777344 130.01953 z M 65.208984 130.01953 L 65.208984 132.76953 L 66.355469 132.76953 C 66.945893 132.76953 67.378766 132.65281 67.654297 132.41992 C 67.929828 132.18375 68.068359 131.83039 68.068359 131.36133 C 68.068359 130.88571 67.926623 130.54391 67.644531 130.33398 C 67.36572 130.12406 66.91682 130.01953 66.296875 130.01953 L 65.208984 130.01953 z M 72.806641 130.17188 C 72.734478 130.48677 72.630579 130.83177 72.496094 131.20898 L 71.650391 133.4375 L 73.976562 133.4375 L 73.140625 131.20898 C 73.032381 130.92689 72.921445 130.58188 72.806641 130.17188 z M 88.275391 130.17188 C 88.203228 130.48677 88.099329 130.83177 87.964844 131.20898 L 87.119141 133.4375 L 89.445312 133.4375 L 88.609375 131.20898 C 88.501131 130.92689 88.390195 130.58188 88.275391 130.17188 z M 159.125 130.17188 C 159.05284 130.48677 158.95089 130.83177 158.81641 131.20898 L 157.96875 133.4375 L 160.29688 133.4375 L 159.46094 131.20898 C 159.35269 130.92689 159.2398 130.58188 159.125 130.17188 z M 132.33008 139.69141 L 133.33008 139.69141 C 133.43504 139.91774 133.58061 140.18002 133.76758 140.47852 C 133.95455 140.77373 134.11935 141.00975 134.26367 141.18359 L 134.26367 141.30469 L 133.72266 141.30469 C 133.50945 141.13412 133.25678 140.89302 132.96484 140.57812 C 132.67291 140.26323 132.46128 140.00157 132.33008 139.79492 L 132.33008 139.69141 z M 163.7793 139.69141 L 164.59766 139.69141 C 164.66982 139.82917 164.79358 140.00875 164.9707 140.22852 C 165.15111 140.445 165.44741 140.76694 165.85742 141.19336 L 165.85742 141.30469 L 165.27148 141.30469 C 164.98283 141.12428 164.61985 140.82032 164.18359 140.39062 C 163.7375 140.83016 163.37772 141.13412 163.10547 141.30469 L 162.54102 141.30469 L 162.54102 141.19336 C 162.95759 140.74726 163.24873 140.41891 163.41602 140.20898 C 163.5833 139.99906 163.70385 139.82589 163.7793 139.69141 z M 118.34766 140.02734 L 118.83398 140.02734 C 118.79134 140.42424 118.6772 140.73461 118.49023 140.96094 C 118.30655 141.18399 118.06029 141.29492 117.75195 141.29492 C 117.61091 141.29492 117.47238 141.26607 117.33789 141.20703 C 117.20341 141.14471 117.07066 141.07802 116.93945 141.00586 C 116.81153 140.93042 116.68777 140.86373 116.56641 140.80469 C 116.44832 140.74236 116.33223 140.71094 116.2207 140.71094 C 116.0567 140.71094 115.93294 140.75902 115.84766 140.85742 C 115.76565 140.95583 115.70217 141.1046 115.65625 141.30469 L 115.17383 141.30469 C 115.21647 140.90779 115.33061 140.59805 115.51758 140.375 C 115.70783 140.14867 115.95346 140.03711 116.25195 140.03711 C 116.40284 140.03711 116.54841 140.06658 116.68945 140.12891 C 116.8305 140.18795 116.96387 140.25659 117.0918 140.33203 C 117.21972 140.40419 117.34285 140.47088 117.46094 140.5332 C 117.57902 140.59225 117.6919 140.62109 117.79688 140.62109 C 117.95759 140.62109 118.07557 140.57364 118.1543 140.47852 C 118.23302 140.38011 118.29845 140.23071 118.34766 140.02734 z M 39.486328 141.76758 C 40.51957 141.76758 41.325666 142.09593 41.90625 142.75195 C 42.486834 143.40798 42.777344 144.31414 42.777344 145.46875 C 42.777344 146.62008 42.486208 147.52429 41.902344 148.18359 C 41.32176 148.8429 40.513085 149.17383 39.476562 149.17383 C 38.417079 149.17383 37.598788 148.84931 37.021484 148.20312 C 36.447461 147.55366 36.160156 146.63983 36.160156 145.45898 C 36.160156 144.28798 36.448087 143.38119 37.025391 142.73828 C 37.602694 142.09209 38.423565 141.76758 39.486328 141.76758 z M 124.17188 141.76758 C 125.20511 141.76758 126.01317 142.09593 126.59375 142.75195 C 127.17433 143.40798 127.46484 144.31414 127.46484 145.46875 C 127.46484 146.62008 127.17175 147.52429 126.58789 148.18359 C 126.00731 148.8429 125.19863 149.17383 124.16211 149.17383 C 123.10263 149.17383 122.28433 148.84931 121.70703 148.20312 C 121.13301 147.55366 120.8457 146.63983 120.8457 145.45898 C 120.8457 144.28798 121.13559 143.38119 121.71289 142.73828 C 122.29019 142.09209 123.1091 141.76758 124.17188 141.76758 z M 150.97852 141.76758 C 152.01176 141.76758 152.81785 142.09593 153.39844 142.75195 C 153.97902 143.40798 154.26953 144.31414 154.26953 145.46875 C 154.26953 146.62008 153.9784 147.52429 153.39453 148.18359 C 152.81395 148.8429 152.00527 149.17383 150.96875 149.17383 C 149.90927 149.17383 149.09098 148.84931 148.51367 148.20312 C 147.93965 147.55366 147.65234 146.63983 147.65234 145.45898 C 147.65234 144.28798 147.94027 143.38119 148.51758 142.73828 C 149.09488 142.09209 149.91575 141.76758 150.97852 141.76758 z M 51.525391 141.77734 C 52.24046 141.77734 52.897782 141.90946 53.498047 142.17188 L 53.238281 142.90039 C 52.644577 142.6511 52.066762 142.52539 51.505859 142.52539 C 51.063041 142.52539 50.71804 142.6203 50.46875 142.81055 C 50.21946 143.00079 50.09375 143.26566 50.09375 143.60352 C 50.09375 143.85281 50.140578 144.05802 50.232422 144.21875 C 50.324266 144.3762 50.478825 144.52176 50.695312 144.65625 C 50.915081 144.78746 51.247887 144.93302 51.697266 145.09375 C 52.451696 145.36272 52.969862 145.6526 53.251953 145.96094 C 53.537325 146.26927 53.681641 146.66814 53.681641 147.16016 C 53.681641 147.79322 53.451405 148.28832 52.992188 148.64258 C 52.532969 148.99683 51.910279 149.17383 51.123047 149.17383 C 50.270212 149.17383 49.613516 149.06352 49.154297 148.84375 L 49.154297 148.03711 C 49.449509 148.16175 49.771446 148.25987 50.119141 148.33203 C 50.466835 148.40419 50.81121 148.43945 51.152344 148.43945 C 51.709966 148.43945 52.130018 148.33493 52.412109 148.125 C 52.694201 147.91179 52.833984 147.61745 52.833984 147.24023 C 52.833984 146.99094 52.783325 146.78635 52.681641 146.62891 C 52.583237 146.46818 52.415857 146.32003 52.179688 146.18555 C 51.946798 146.05106 51.592181 145.89908 51.113281 145.72852 C 50.444134 145.48907 49.964433 145.20497 49.675781 144.87695 C 49.39041 144.54894 49.248047 144.12185 49.248047 143.59375 C 49.248047 143.03941 49.45647 142.59754 49.873047 142.26953 C 50.289624 141.94152 50.839843 141.77734 51.525391 141.77734 z M 96.029297 141.77734 C 96.783728 141.77734 97.44363 141.91588 98.007812 142.19141 L 97.652344 142.91016 C 97.107842 142.65431 96.564033 142.52539 96.019531 142.52539 C 95.229019 142.52539 94.60375 142.79026 94.144531 143.31836 C 93.688593 143.84318 93.460938 144.56336 93.460938 145.47852 C 93.460937 146.41991 93.679603 147.14713 94.119141 147.66211 C 94.561959 148.17381 95.193012 148.42969 96.009766 148.42969 C 96.511626 148.42969 97.083657 148.34056 97.726562 148.16016 L 97.726562 148.89258 C 97.227983 149.07955 96.612329 149.17383 95.880859 149.17383 C 94.821376 149.17383 94.003085 148.85189 93.425781 148.20898 C 92.851758 147.56608 92.564453 146.65288 92.564453 145.46875 C 92.564453 144.72744 92.702984 144.07715 92.978516 143.51953 C 93.257327 142.96191 93.658146 142.53224 94.179688 142.23047 C 94.704509 141.9287 95.320788 141.77734 96.029297 141.77734 z M 111.57617 141.77734 C 112.3306 141.77734 112.9905 141.91588 113.55469 142.19141 L 113.20117 142.91016 C 112.65667 142.65431 112.11091 142.52539 111.56641 142.52539 C 110.77589 142.52539 110.15258 142.79026 109.69336 143.31836 C 109.23742 143.84318 109.00781 144.56336 109.00781 145.47852 C 109.00781 146.41991 109.22843 147.14713 109.66797 147.66211 C 110.11079 148.17381 110.73989 148.42969 111.55664 148.42969 C 112.0585 148.42969 112.63053 148.34056 113.27344 148.16016 L 113.27344 148.89258 C 112.79511 149.07195 112.2044 149.16068 111.51172 149.16797 L 111.28711 149.64062 C 111.87753 149.76856 112.17188 150.05328 112.17188 150.49609 C 112.17187 150.81427 112.04554 151.06053 111.79297 151.23438 C 111.54368 151.40822 111.17366 151.49609 110.68164 151.49609 C 110.51435 151.49609 110.35659 151.48069 110.20898 151.45117 L 110.20898 150.92969 C 110.35659 150.95593 110.52718 150.96875 110.7207 150.96875 C 110.97983 150.96875 111.17544 150.9367 111.30664 150.87109 C 111.44113 150.80549 111.50781 150.68299 111.50781 150.50586 C 111.50781 150.36481 111.44175 150.25067 111.31055 150.16211 C 111.18262 150.07683 110.94152 150.00693 110.58398 149.95117 L 110.98438 149.13867 C 110.14308 149.05742 109.46623 148.75647 108.97461 148.20898 C 108.40059 147.56608 108.11328 146.65288 108.11328 145.46875 C 108.11328 144.72744 108.25181 144.07715 108.52734 143.51953 C 108.80616 142.96191 109.20502 142.53224 109.72656 142.23047 C 110.25138 141.9287 110.86766 141.77734 111.57617 141.77734 z M 158.96875 141.77734 C 159.72318 141.77734 160.38113 141.91588 160.94531 142.19141 L 160.5918 142.91016 C 160.04729 142.65431 159.50349 142.52539 158.95898 142.52539 C 158.16847 142.52539 157.5432 142.79026 157.08398 143.31836 C 156.62805 143.84318 156.40039 144.56336 156.40039 145.47852 C 156.40039 146.41991 156.61906 147.14713 157.05859 147.66211 C 157.50141 148.17381 158.13247 148.42969 158.94922 148.42969 C 159.45108 148.42969 160.02311 148.34056 160.66602 148.16016 L 160.66602 148.89258 C 160.16744 149.07955 159.55178 149.17383 158.82031 149.17383 C 157.76083 149.17383 156.94254 148.85189 156.36523 148.20898 C 155.79121 147.56608 155.50391 146.65288 155.50391 145.46875 C 155.50391 144.72744 155.64244 144.07715 155.91797 143.51953 C 156.19678 142.96191 156.5976 142.53224 157.11914 142.23047 C 157.64396 141.9287 158.26024 141.77734 158.96875 141.77734 z M 178.53125 141.77734 C 179.28568 141.77734 179.94558 141.91588 180.50977 142.19141 L 180.1543 142.91016 C 179.60979 142.65431 179.06599 142.52539 178.52148 142.52539 C 177.73097 142.52539 177.1057 142.79026 176.64648 143.31836 C 176.19055 143.84318 175.96289 144.56336 175.96289 145.47852 C 175.96289 146.41991 176.18156 147.14713 176.62109 147.66211 C 177.06391 148.17381 177.69497 148.42969 178.51172 148.42969 C 179.01358 148.42969 179.58561 148.34056 180.22852 148.16016 L 180.22852 148.89258 C 179.72994 149.07955 179.11428 149.17383 178.38281 149.17383 C 177.32333 149.17383 176.50504 148.85189 175.92773 148.20898 C 175.35371 147.56608 175.06641 146.65288 175.06641 145.46875 C 175.06641 144.72744 175.20494 144.07715 175.48047 143.51953 C 175.75928 142.96191 176.1601 142.53224 176.68164 142.23047 C 177.20646 141.9287 177.82274 141.77734 178.53125 141.77734 z M 57.007812 141.85156 L 57.710938 141.85156 L 60.539062 149.07422 L 59.673828 149.07422 L 58.777344 146.78711 L 55.894531 146.78711 L 55.009766 149.07422 L 54.164062 149.07422 L 57.007812 141.85156 z M 103.96484 141.85156 L 104.66992 141.85156 L 107.49805 149.07422 L 106.63281 149.07422 L 105.73633 146.78711 L 102.85352 146.78711 L 101.9668 149.07422 L 101.12109 149.07422 L 103.96484 141.85156 z M 116.69922 141.85156 L 117.40234 141.85156 L 120.23242 149.07422 L 119.36523 149.07422 L 118.4707 146.78711 L 115.58594 146.78711 L 114.70117 149.07422 L 113.85547 149.07422 L 116.69922 141.85156 z M 133.54492 141.85156 L 134.25 141.85156 L 137.07812 149.07422 L 136.21289 149.07422 L 135.31641 146.78711 L 132.43359 146.78711 L 131.54883 149.07422 L 130.70117 149.07422 L 133.54492 141.85156 z M 186.4668 141.85156 L 187.16992 141.85156 L 190 149.07422 L 189.13477 149.07422 L 188.23828 146.78711 L 185.35547 146.78711 L 184.46875 149.07422 L 183.62305 149.07422 L 186.4668 141.85156 z M 30 141.88086 L 32.03125 141.88086 C 32.985769 141.88086 33.677098 142.02322 34.103516 142.30859 C 34.529933 142.59397 34.742188 143.04544 34.742188 143.66211 C 34.742188 144.08853 34.624215 144.44189 34.384766 144.7207 C 34.148596 144.99623 33.801642 145.17386 33.345703 145.25586 L 33.345703 145.30664 C 34.437988 145.49361 34.984375 146.06626 34.984375 147.02734 C 34.984375 147.67025 34.766336 148.17239 34.330078 148.5332 C 33.8971 148.89402 33.290437 149.07422 32.509766 149.07422 L 30 149.07422 L 30 141.88086 z M 44.386719 141.88086 L 45.222656 141.88086 L 45.222656 148.31641 L 48.396484 148.31641 L 48.396484 149.07422 L 44.386719 149.07422 L 44.386719 141.88086 z M 64.146484 141.88086 L 66.349609 141.88086 C 67.468135 141.88086 68.339039 142.1906 68.958984 142.81055 C 69.57893 143.43049 69.888672 144.29624 69.888672 145.4082 C 69.888672 146.59561 69.564155 147.50498 68.917969 148.13477 C 68.275063 148.76127 67.349041 149.07422 66.138672 149.07422 L 64.146484 149.07422 L 64.146484 141.88086 z M 71.486328 141.88086 L 75.498047 141.88086 L 75.498047 142.625 L 72.324219 142.625 L 72.324219 144.94141 L 75.304688 144.94141 L 75.304688 145.67969 L 72.324219 145.67969 L 72.324219 148.32617 L 75.498047 148.32617 L 75.498047 149.07422 L 71.486328 149.07422 L 71.486328 141.88086 z M 79.712891 141.88086 L 80.550781 141.88086 L 80.550781 149.07422 L 79.712891 149.07422 L 79.712891 141.88086 z M 82.527344 141.88086 L 83.472656 141.88086 L 87.394531 147.89453 L 87.433594 147.89453 C 87.427033 147.80597 87.411633 147.52187 87.388672 147.04297 C 87.365711 146.56079 87.358674 146.21641 87.365234 146.00977 L 87.365234 141.88086 L 88.146484 141.88086 L 88.146484 149.07422 L 87.193359 149.07422 L 83.261719 143.03711 L 83.222656 143.03711 C 83.275138 143.74562 83.300781 144.3959 83.300781 144.98633 L 83.300781 149.07422 L 82.527344 149.07422 L 82.527344 141.88086 z M 90.125 141.88086 L 90.960938 141.88086 L 90.960938 149.07422 L 90.125 149.07422 L 90.125 141.88086 z M 99.296875 141.88086 L 100.13281 141.88086 L 100.13281 149.07422 L 99.296875 149.07422 L 99.296875 141.88086 z M 140.68555 141.88086 L 142.88867 141.88086 C 144.0072 141.88086 144.87615 142.1906 145.49609 142.81055 C 146.11604 143.43049 146.42578 144.29624 146.42578 145.4082 C 146.42578 146.59561 146.10322 147.50498 145.45703 148.13477 C 144.81413 148.76127 143.8881 149.07422 142.67773 149.07422 L 140.68555 149.07422 L 140.68555 141.88086 z M 162.23438 141.88086 L 166.24609 141.88086 L 166.24609 142.625 L 163.07227 142.625 L 163.07227 144.94141 L 166.05273 144.94141 L 166.05273 145.67969 L 163.07227 145.67969 L 163.07227 148.32617 L 166.24609 148.32617 L 166.24609 149.07422 L 162.23438 149.07422 L 162.23438 141.88086 z M 167.84375 141.88086 L 168.78906 141.88086 L 172.71094 147.89453 L 172.75 147.89453 C 172.74344 147.80597 172.72804 147.52187 172.70508 147.04297 C 172.68212 146.56079 172.67508 146.21641 172.68164 146.00977 L 172.68164 141.88086 L 173.46289 141.88086 L 173.46289 149.07422 L 172.50781 149.07422 L 168.57812 143.03711 L 168.53711 143.03711 C 168.58959 143.74562 168.61719 144.3959 168.61719 144.98633 L 168.61719 149.07422 L 167.84375 149.07422 L 167.84375 141.88086 z M 181.79883 141.88086 L 182.63477 141.88086 L 182.63477 149.07422 L 181.79883 149.07422 L 181.79883 141.88086 z M 39.486328 142.51562 C 38.689256 142.51562 38.082593 142.7683 37.666016 143.27344 C 37.252719 143.7753 37.044922 144.50767 37.044922 145.46875 C 37.044922 146.44295 37.252719 147.18236 37.666016 147.6875 C 38.082593 148.18936 38.686051 148.43945 39.476562 148.43945 C 40.273635 148.43945 40.874513 148.18936 41.28125 147.6875 C 41.687987 147.18564 41.892578 146.44623 41.892578 145.46875 C 41.892578 144.50111 41.687987 143.76811 41.28125 143.26953 C 40.877794 142.76767 40.28012 142.51562 39.486328 142.51562 z M 124.17188 142.51562 C 123.3748 142.51562 122.76814 142.7683 122.35156 143.27344 C 121.93827 143.7753 121.73242 144.50767 121.73242 145.46875 C 121.73242 146.44295 121.93827 147.18236 122.35156 147.6875 C 122.76814 148.18936 123.3716 148.43945 124.16211 148.43945 C 124.95918 148.43945 125.56201 148.18936 125.96875 147.6875 C 126.37549 147.18564 126.57812 146.44623 126.57812 145.46875 C 126.57813 144.50111 126.37549 143.76811 125.96875 143.26953 C 125.56529 142.76767 124.96567 142.51562 124.17188 142.51562 z M 150.97852 142.51562 C 150.18144 142.51562 149.57478 142.7683 149.1582 143.27344 C 148.74491 143.7753 148.53711 144.50767 148.53711 145.46875 C 148.53711 146.44295 148.74491 147.18236 149.1582 147.6875 C 149.57478 148.18936 150.17824 148.43945 150.96875 148.43945 C 151.76582 148.43945 152.3667 148.18936 152.77344 147.6875 C 153.18017 147.18564 153.38477 146.44623 153.38477 145.46875 C 153.38477 144.50111 153.18017 143.76811 152.77344 143.26953 C 152.36998 142.76767 151.77231 142.51562 150.97852 142.51562 z M 30.835938 142.60547 L 30.835938 144.96094 L 32.214844 144.96094 C 32.805268 144.96094 33.229151 144.86923 33.488281 144.68555 C 33.747412 144.49858 33.876953 144.18563 33.876953 143.74609 C 33.876953 143.34264 33.732011 143.05213 33.443359 142.875 C 33.154708 142.69459 32.696192 142.60547 32.066406 142.60547 L 30.835938 142.60547 z M 64.982422 142.60547 L 64.982422 148.35156 L 66.001953 148.35156 C 66.999114 148.35156 67.74814 148.10788 68.25 147.61914 C 68.75186 147.12712 69.001953 146.40053 69.001953 145.43945 C 69.001953 144.50133 68.765308 143.79398 68.292969 143.31836 C 67.82391 142.84274 67.125543 142.60547 66.197266 142.60547 L 64.982422 142.60547 z M 141.52148 142.60547 L 141.52148 148.35156 L 142.53906 148.35156 C 143.53622 148.35156 144.2872 148.10788 144.78906 147.61914 C 145.29092 147.12712 145.54102 146.40053 145.54102 145.43945 C 145.54102 144.50133 145.30437 143.79398 144.83203 143.31836 C 144.36297 142.84274 143.66461 142.60547 142.73633 142.60547 L 141.52148 142.60547 z M 57.345703 142.76758 C 57.27354 143.08247 57.171595 143.42747 57.037109 143.80469 L 56.189453 146.0332 L 58.517578 146.0332 L 57.681641 143.80469 C 57.573396 143.5226 57.460508 143.17759 57.345703 142.76758 z M 104.30469 142.76758 C 104.23252 143.08247 104.12863 143.42747 103.99414 143.80469 L 103.14844 146.0332 L 105.47656 146.0332 L 104.63867 143.80469 C 104.53043 143.5226 104.41949 143.17759 104.30469 142.76758 z M 117.03906 142.76758 C 116.9669 143.08247 116.863 143.42747 116.72852 143.80469 L 115.88281 146.0332 L 118.20898 146.0332 L 117.37305 143.80469 C 117.2648 143.5226 117.15387 143.17759 117.03906 142.76758 z M 133.88477 142.76758 C 133.8126 143.08247 133.7087 143.42747 133.57422 143.80469 L 132.72852 146.0332 L 135.05664 146.0332 L 134.21875 143.80469 C 134.11051 143.5226 133.99957 143.17759 133.88477 142.76758 z M 186.80664 142.76758 C 186.73448 143.08247 186.63058 143.42747 186.49609 143.80469 L 185.65039 146.0332 L 187.97852 146.0332 L 187.14062 143.80469 C 187.03239 143.5226 186.92145 143.17759 186.80664 142.76758 z M 30.835938 145.66992 L 30.835938 148.36133 L 32.337891 148.36133 C 32.918474 148.36133 33.354552 148.25039 33.646484 148.02734 C 33.941696 147.80101 34.087891 147.44765 34.087891 146.96875 C 34.087891 146.52265 33.938491 146.1943 33.636719 145.98438 C 33.338227 145.77445 32.880963 145.66992 32.267578 145.66992 L 30.835938 145.66992 z "
       transform="translate(0,832.36216)"
       id="rect3433" />
    <g
       id="g3393"
       transform="matrix(0.52389279,0,0,0.52389279,30.000083,862.3629)">
      <g
         id="g3339"
         transform="translate(-90.308225,14.191293)">
        <g
           inkscape:label="Camada 1"
           id="layer1-4"
           transform="matrix(1.9087875,0,0,1.9087875,69.670584,-1773.002)">
          <text
             xml:space="preserve"
             style="font-style:normal;font-variant:normal;font-weight:normal;font-stretch:normal;font-size:15px;line-height:125%;font-family:'Open Sans';-inkscape-font-specification:'Open Sans, Normal';text-align:start;letter-spacing:0px;word-spacing:0px;writing-mode:lr-tb;text-anchor:start;fill:#000000;fill-opacity:1;stroke:none;stroke-width:1px;stroke-linecap:butt;stroke-linejoin:miter;stroke-opacity:1"
             x="933.04791"
             y="1073.4818"
             id="text3356-6"
             sodipodi:linespacing="125%"><tspan
               sodipodi:role="line"
               id="tspan3358-9"
               x="933.04791"
               y="1073.4818" /></text>
          <g
             transform="matrix(0.52389278,0,0,0.52389278,15.767805,947.32558)"
             id="g3493">
            <g
               id="g3495">
              <g
                 transform="translate(0,81.922462)"
                 id="g3608" />
              <g
                 id="g3612"
                 transform="translate(0,27.092468)" />
            </g>
          </g>
          <g
             transform="matrix(0.52389278,0,0,0.52389278,15.767805,947.32558)"
             id="g3513" />
          <g
             transform="matrix(0.52389278,0,0,0.52389278,15.767805,947.32558)"
             id="g3515" />
          <g
             transform="matrix(0.52389278,0,0,0.52389278,15.767805,947.32558)"
             id="g3517" />
          <g
             transform="matrix(0.52389278,0,0,0.52389278,15.767805,947.32558)"
             id="g3519" />
          <g
             transform="matrix(0.52389278,0,0,0.52389278,15.767805,947.32558)"
             id="g3521" />
          <g
             transform="matrix(0.52389278,0,0,0.52389278,15.767805,947.32558)"
             id="g3523" />
          <g
             transform="matrix(0.52389278,0,0,0.52389278,15.767805,947.32558)"
             id="g3525" />
          <g
             transform="matrix(0.52389278,0,0,0.52389278,15.767805,947.32558)"
             id="g3527" />
          <g
             transform="matrix(0.52389278,0,0,0.52389278,15.767805,947.32558)"
             id="g3529" />
          <g
             transform="matrix(0.52389278,0,0,0.52389278,15.767805,947.32558)"
             id="g3531" />
          <g
             transform="matrix(0.52389278,0,0,0.52389278,15.767805,947.32558)"
             id="g3533" />
          <g
             transform="matrix(0.52389278,0,0,0.52389278,15.767805,947.32558)"
             id="g3535" />
          <g
             transform="matrix(0.52389278,0,0,0.52389278,15.767805,947.32558)"
             id="g3537" />
          <g
             transform="matrix(0.52389278,0,0,0.52389278,15.767805,947.32558)"
             id="g3539" />
          <g
             transform="matrix(0.52389278,0,0,0.52389278,15.767805,947.32558)"
             id="g3541" />
        </g>
      </g>
      <g
         id="g3357" />
      <g
         id="g3359" />
      <g
         id="g3361" />
      <g
         id="g3363" />
      <g
         id="g3365" />
      <g
         id="g3367" />
      <g
         id="g3369" />
      <g
         id="g3371" />
      <g
         id="g3373" />
      <g
         id="g3375" />
      <g
         id="g3377" />
      <g
         id="g3379" />
      <g
         id="g3381" />
      <g
         id="g3383" />
      <g
         id="g3385" />
    </g>
    <g
       transform="matrix(0.26973533,0,0,0.26973533,123.61213,735.4591)"
       id="layer1-3"
       inkscape:label="Camada 1">
      <text
         sodipodi:linespacing="125%"
         id="text3356"
         y="1073.4818"
         x="933.04791"
         style="font-style:normal;font-variant:normal;font-weight:normal;font-stretch:normal;font-size:15px;line-height:125%;font-family:'Open Sans';-inkscape-font-specification:'Open Sans, Normal';text-align:start;letter-spacing:0px;word-spacing:0px;writing-mode:lr-tb;text-anchor:start;fill:#000000;fill-opacity:1;stroke:none;stroke-width:1px;stroke-linecap:butt;stroke-linejoin:miter;stroke-opacity:1"
         xml:space="preserve"><tspan
           y="1073.4818"
           x="933.04791"
           id="tspan3358"
           sodipodi:role="line" /></text>
    </g>
    <g
       id="g3837"
       transform="translate(-4.9290247e-6,-68.504617)" />
  </g>
</svg>
