<?xml version="1.0" encoding="UTF-8" standalone="no"?>
<!-- Generator: Adobe Illustrator 18.1.1, SVG Export Plug-In . SVG Version: 6.00 Build 0)  -->

<svg
   xmlns:dc="http://purl.org/dc/elements/1.1/"
   xmlns:cc="http://creativecommons.org/ns#"
   xmlns:rdf="http://www.w3.org/1999/02/22-rdf-syntax-ns#"
   xmlns:svg="http://www.w3.org/2000/svg"
   xmlns="http://www.w3.org/2000/svg"
   xmlns:sodipodi="http://sodipodi.sourceforge.net/DTD/sodipodi-0.dtd"
   xmlns:inkscape="http://www.inkscape.org/namespaces/inkscape"
   version="1.1"
   id="Capa_1"
   x="0px"
   y="0px"
   viewBox="0 0 220 220"
   xml:space="preserve"
   inkscape:version="0.91 r13725"
   sodipodi:docname="ufu_bibliotecas.svg"
   width="220"
   height="220"><metadata
     id="metadata59"><rdf:RDF><cc:Work
         rdf:about=""><dc:format>image/svg+xml</dc:format><dc:type
           rdf:resource="http://purl.org/dc/dcmitype/StillImage" /><dc:title></dc:title></cc:Work></rdf:RDF></metadata><defs
     id="defs57" /><sodipodi:namedview
     pagecolor="#ffffff"
     bordercolor="#666666"
     borderopacity="1"
     objecttolerance="10"
     gridtolerance="10"
     guidetolerance="10"
     inkscape:pageopacity="0"
     inkscape:pageshadow="2"
     inkscape:window-width="1440"
     inkscape:window-height="847"
     id="namedview55"
     showgrid="false"
     inkscape:zoom="2.9590909"
     inkscape:cx="110"
     inkscape:cy="110"
     inkscape:window-x="-8"
     inkscape:window-y="-8"
     inkscape:window-maximized="1"
     inkscape:current-layer="g3" /><g
     id="g3"
     transform="matrix(0.75229938,0,0,0.75229938,30,30.000108)"><path
       style="color:#000000;clip-rule:nonzero;display:inline;overflow:visible;visibility:visible;opacity:1;isolation:auto;mix-blend-mode:normal;color-interpolation:sRGB;color-interpolation-filters:linearRGB;solid-color:#000000;solid-opacity:1;fill:#ffffff;fill-opacity:1;fill-rule:nonzero;stroke:none;stroke-width:5;stroke-linecap:square;stroke-linejoin:miter;stroke-miterlimit:4;stroke-dasharray:none;stroke-dashoffset:0;stroke-opacity:1;color-rendering:auto;image-rendering:auto;shape-rendering:auto;text-rendering:auto;enable-background:accumulate"
       d="M 0 0 L 0 220 L 220 220 L 220 0 L 0 0 z M 38.183594 30.376953 L 58.642578 30.376953 C 63.160136 30.376953 66.826172 33.430951 66.826172 37.199219 L 66.826172 44.015625 L 30 44.015625 L 30 37.199219 C 30 33.430199 33.666036 30.376953 38.183594 30.376953 z M 83.193359 44.019531 L 91.376953 44.019531 C 95.894511 44.019531 99.560547 47.073529 99.560547 50.841797 L 99.560547 57.658203 L 75.009766 57.658203 L 75.009766 50.841797 C 75.009766 47.072777 78.672042 44.019531 83.193359 44.019531 z M 157.99609 45.710938 C 161.77776 45.643702 165.04802 47.824488 165.65625 51.064453 L 166.92383 57.763672 L 142.79883 62.318359 C 142.79883 62.318359 142.22894 59.318197 141.5293 55.619141 C 140.82966 51.920085 143.86671 48.237248 148.31055 47.398438 L 156.35156 45.880859 C 156.90648 45.776008 157.45586 45.72054 157.99609 45.710938 z M 30 50.501953 L 66.826172 50.501953 L 66.826172 169.16406 L 30 169.16406 L 30 50.501953 z M 75.009766 62.775391 L 99.560547 62.775391 L 99.560547 169.16406 L 75.009766 169.16406 L 75.009766 62.775391 z M 167.86914 62.789062 L 187.625 167.32617 L 163.5 171.88477 L 143.74414 67.347656 L 167.86914 62.789062 z M 119.33594 67.208984 L 127.51953 67.208984 C 132.03709 67.208984 135.70312 70.261637 135.70312 74.025391 L 135.70312 80.845703 L 111.15234 80.845703 L 111.15234 74.025391 C 111.15234 70.260885 114.81838 67.208984 119.33594 67.208984 z M 111.15234 89.373047 L 134.3418 89.373047 L 134.3418 169.16406 L 111.15234 169.16406 L 111.15234 89.373047 z M 44.492188 100.37109 L 44.492188 112.89844 L 45.337891 113.74609 L 50 113.74609 L 50.855469 112.89062 L 50.855469 105.73633 L 52.310547 104.28125 L 56.244141 104.28125 L 52.318359 100.37109 L 44.492188 100.37109 z M 42.464844 102.39648 L 38.951172 105.91016 L 38.951172 113.76172 L 44.476562 119.29297 L 46.921875 119.29297 L 52.587891 113.62695 L 52.587891 106.46484 L 53.142578 105.91016 L 57.875 105.91016 L 57.052734 105.10352 L 52.738281 105.10352 L 51.732422 106.11719 L 51.732422 113.19141 L 49.136719 115.78711 L 44.492188 115.78711 L 42.464844 113.76172 L 42.464844 102.39648 z M 53.552734 106.72656 L 53.402344 106.87695 L 53.402344 113.95898 L 48.076172 119.28516 L 48.083984 119.29297 L 52.302734 119.29297 L 57.84375 113.74609 L 57.84375 106.72656 L 53.552734 106.72656 z M 83.791016 107.53906 L 83.791016 118.70312 L 84.544922 119.45703 L 88.699219 119.45703 L 89.460938 118.69531 L 89.460938 112.32031 L 90.757812 111.02344 L 94.263672 111.02344 L 90.765625 107.53906 L 83.791016 107.53906 z M 167.49219 108.98633 L 160.69531 110.54688 L 163.19336 121.42578 L 164.09766 121.99414 L 168.14453 121.06445 L 168.7168 120.15039 L 167.29102 113.9375 L 168.26367 112.38281 L 171.67969 111.59961 L 167.49219 108.98633 z M 81.986328 109.3457 L 78.855469 112.47656 L 78.855469 119.4707 L 83.777344 124.40039 L 85.957031 124.40039 L 91.005859 119.35156 L 91.005859 112.96875 L 91.498047 112.47656 L 95.714844 112.47656 L 94.982422 111.75586 L 91.138672 111.75586 L 90.244141 112.6582 L 90.244141 118.96289 L 87.929688 121.27539 L 83.791016 121.27539 L 81.986328 119.4707 L 81.986328 109.3457 z M 172.54492 112.15234 L 168.79883 113.01367 L 168.12891 114.09375 L 169.53906 120.23633 L 167.80273 123.00977 L 163.76953 123.93555 L 161.60547 122.58008 L 159.33984 112.71094 L 156.98828 116.46289 L 158.55469 123.28125 L 164.45312 126.98242 L 166.57812 126.49609 L 170.36914 120.44531 L 168.93945 114.22461 L 169.31055 113.63281 L 173.42188 112.68945 L 172.54492 112.15234 z M 91.865234 113.20117 L 91.730469 113.33594 L 91.730469 119.64648 L 86.986328 124.39258 L 86.992188 124.40039 L 90.751953 124.40039 L 95.6875 119.45703 L 95.6875 113.20117 L 91.865234 113.20117 z M 173.55664 113.4043 L 169.83008 114.25977 L 169.73047 114.41992 L 171.14258 120.57031 L 167.58008 126.25781 L 167.58789 126.26367 L 171.25195 125.42188 L 174.95508 119.5 L 173.55664 113.4043 z M 120.53516 123.93164 L 120.53516 130.99805 L 121.01367 131.47461 L 123.64258 131.47461 L 124.12305 130.99414 L 124.12305 126.95898 L 124.94531 126.13672 L 127.16406 126.13672 L 124.94922 123.93164 L 120.53516 123.93164 z M 119.39258 125.07422 L 117.41211 127.05664 L 117.41211 131.48438 L 120.52734 134.60352 L 121.90625 134.60352 L 125.10156 131.4082 L 125.10156 127.36914 L 125.41406 127.05664 L 128.08203 127.05664 L 127.61914 126.60156 L 125.18555 126.60156 L 124.61914 127.17188 L 124.61914 131.16211 L 123.1543 132.62695 L 120.53516 132.62695 L 119.39258 131.48438 L 119.39258 125.07422 z M 125.64648 127.51562 L 125.56055 127.60156 L 125.56055 131.5957 L 122.55664 134.59961 L 122.5625 134.60352 L 124.94141 134.60352 L 128.06445 131.47461 L 128.06445 127.51562 L 125.64648 127.51562 z M 188.63477 172.68359 C 188.63477 172.68359 189.19624 175.68134 189.90039 179.38867 C 190.60003 183.08773 187.56237 186.77056 183.12305 187.60938 L 175.08398 189.13086 C 170.64467 189.96967 166.47308 187.65445 165.77344 183.94336 L 164.50586 177.24414 L 188.63477 172.68359 z M 30 175.98438 L 66.826172 175.98438 L 66.826172 182.80078 C 66.826172 186.56905 63.160136 189.62305 58.642578 189.62305 L 38.183594 189.62305 C 33.666036 189.62305 30 186.5698 30 182.80078 L 30 175.98438 z M 75.009766 175.98438 L 99.560547 175.98438 L 99.560547 182.80078 C 99.560547 186.56905 95.894511 189.62305 91.376953 189.62305 L 83.193359 189.62305 C 78.672042 189.62305 75.009766 186.56905 75.009766 182.80078 L 75.009766 175.98438 z M 111.15234 175.98438 L 135.70312 175.98438 L 135.70312 182.80078 C 135.70312 186.56905 132.03709 189.62305 127.51953 189.62305 L 119.33594 189.62305 C 114.81838 189.62305 111.15234 186.56905 111.15234 182.80078 L 111.15234 175.98438 z "
       transform="matrix(1.329258,0,0,1.329258,-39.877741,-39.877885)"
       id="rect4224" /></g><g
     id="g25"
     transform="translate(0,7.3190002)" /><g
     id="g27"
     transform="translate(0,7.3190002)" /><g
     id="g29"
     transform="translate(0,7.3190002)" /><g
     id="g31"
     transform="translate(0,7.3190002)" /><g
     id="g33"
     transform="translate(0,7.3190002)" /><g
     id="g35"
     transform="translate(0,7.3190002)" /><g
     id="g37"
     transform="translate(0,7.3190002)" /><g
     id="g39"
     transform="translate(0,7.3190002)" /><g
     id="g41"
     transform="translate(0,7.3190002)" /><g
     id="g43"
     transform="translate(0,7.3190002)" /><g
     id="g45"
     transform="translate(0,7.3190002)" /><g
     id="g47"
     transform="translate(0,7.3190002)" /><g
     id="g49"
     transform="translate(0,7.3190002)" /><g
     id="g51"
     transform="translate(0,7.3190002)" /><g
     id="g53"
     transform="translate(0,7.3190002)" /><g
     transform="matrix(0.2175077,0,0,0.2175077,38.951695,-109.60306)"
     id="layer1"
     inkscape:label="Camada 1"><text
       sodipodi:linespacing="125%"
       id="text3356"
       y="1073.4818"
       x="933.04791"
       style="font-style:normal;font-variant:normal;font-weight:normal;font-stretch:normal;font-size:15px;line-height:125%;font-family:'Open Sans';-inkscape-font-specification:'Open Sans, Normal';text-align:start;letter-spacing:0px;word-spacing:0px;writing-mode:lr-tb;text-anchor:start;fill:#000000;fill-opacity:1;stroke:none;stroke-width:1px;stroke-linecap:butt;stroke-linejoin:miter;stroke-opacity:1"
       xml:space="preserve"><tspan
         y="1073.4818"
         x="933.04791"
         id="tspan3358"
         sodipodi:role="line" /></text>
</g><text
     xml:space="preserve"
     style="font-style:normal;font-variant:normal;font-weight:normal;font-stretch:normal;font-size:15px;line-height:125%;font-family:'Open Sans';-inkscape-font-specification:'Open Sans, Normal';text-align:start;letter-spacing:0px;word-spacing:0px;writing-mode:lr-tb;text-anchor:start;fill:#000000;fill-opacity:1;stroke:none;stroke-width:1px;stroke-linecap:butt;stroke-linejoin:miter;stroke-opacity:1"
     x="997.0918"
     y="178.27911"
     id="text3356-9"
     sodipodi:linespacing="125%"><tspan
       sodipodi:role="line"
       id="tspan3358-1"
       x="997.0918"
       y="178.27911" /></text>
</svg>