<?xml version="1.0" encoding="UTF-8" standalone="no"?>
<!-- Created with Inkscape (http://www.inkscape.org/) -->

<svg
   xmlns:dc="http://purl.org/dc/elements/1.1/"
   xmlns:cc="http://creativecommons.org/ns#"
   xmlns:rdf="http://www.w3.org/1999/02/22-rdf-syntax-ns#"
   xmlns:svg="http://www.w3.org/2000/svg"
   xmlns="http://www.w3.org/2000/svg"
   xmlns:sodipodi="http://sodipodi.sourceforge.net/DTD/sodipodi-0.dtd"
   xmlns:inkscape="http://www.inkscape.org/namespaces/inkscape"
   width="220"
   height="220"
   viewBox="0 0 220 220"
   id="svg2"
   version="1.1"
   inkscape:version="0.91 r13725"
   sodipodi:docname="ufu_assistencia_juridica.svg">
  <defs
     id="defs4" />
  <sodipodi:namedview
     id="base"
     pagecolor="#ffffff"
     bordercolor="#666666"
     borderopacity="1.0"
     inkscape:pageopacity="0.0"
     inkscape:pageshadow="2"
     inkscape:zoom="2.9590909"
     inkscape:cx="110"
     inkscape:cy="110"
     inkscape:document-units="px"
     inkscape:current-layer="layer1"
     showgrid="false"
     units="px"
     inkscape:window-width="1440"
     inkscape:window-height="847"
     inkscape:window-x="-8"
     inkscape:window-y="-8"
     inkscape:window-maximized="1" />
  <metadata
     id="metadata7">
    <rdf:RDF>
      <cc:Work
         rdf:about="">
        <dc:format>image/svg+xml</dc:format>
        <dc:type
           rdf:resource="http://purl.org/dc/dcmitype/StillImage" />
        <dc:title></dc:title>
      </cc:Work>
    </rdf:RDF>
  </metadata>
  <g
     inkscape:label="Camada 1"
     inkscape:groupmode="layer"
     id="layer1"
     transform="translate(0,-832.36216)">
    <path
       style="color:#000000;clip-rule:nonzero;display:inline;overflow:visible;visibility:visible;opacity:1;isolation:auto;mix-blend-mode:normal;color-interpolation:sRGB;color-interpolation-filters:linearRGB;solid-color:#000000;solid-opacity:1;fill:#ffffff;fill-opacity:1;fill-rule:nonzero;stroke:none;stroke-width:5;stroke-linecap:square;stroke-linejoin:miter;stroke-miterlimit:4;stroke-dasharray:none;stroke-dashoffset:0;stroke-opacity:1;color-rendering:auto;image-rendering:auto;shape-rendering:auto;text-rendering:auto;enable-background:accumulate"
       d="M 0 0 L 0 220 L 220 220 L 220 0 L 0 0 z M 133.5293 30 A 18.054335 18.054335 0 0 1 151.58398 48.054688 A 18.054335 18.054335 0 0 1 133.5293 66.107422 A 18.054335 18.054335 0 0 1 115.47461 48.054688 A 18.054335 18.054335 0 0 1 133.5293 30 z M 75.546875 53.175781 L 82.539062 59.011719 C 82.544264 60.369207 82.095702 61.735936 81.158203 62.859375 L 78.919922 65.544922 L 90.109375 76.078125 C 92.48628 74.174521 95.907924 73.954388 98.517578 75.800781 C 99.306846 76.350797 105.93934 82.599046 120.8457 70.951172 C 121.33851 70.56499 121.87576 70.286783 122.42578 70.052734 C 124.46982 68.682243 126.7728 67.674348 129.12109 67.111328 C 129.13539 67.107428 129.14846 67.107416 129.16406 67.103516 L 133.52734 71.681641 L 138.02148 67.154297 C 140.32817 67.719918 142.58808 68.709548 144.59961 70.052734 C 144.91427 70.186662 145.23674 70.317314 145.53711 70.501953 C 152.72503 74.909889 171.78019 86.639682 168.20703 110.28906 L 173.05273 110.28711 L 173.05273 118.12891 L 46.947266 118.12891 L 46.947266 110.28711 L 54.757812 110.28711 C 53.565459 110.28711 52.599609 109.32126 52.599609 108.12891 C 52.599609 106.93655 53.565459 105.96875 54.757812 105.96875 L 54.925781 105.96875 C 54.925781 103.848 56.648781 102.12695 58.769531 102.12695 L 74.605469 102.12695 C 76.724919 102.12695 78.447266 103.848 78.447266 105.96875 L 78.615234 105.96875 C 79.806287 105.96875 80.773438 106.93655 80.773438 108.12891 C 80.773438 109.32126 79.806287 110.28711 78.615234 110.28711 L 115.04883 110.28711 L 115.04883 88.923828 C 105.92869 95.715175 91.208554 87.801317 90.429688 87.25 C 87.509268 85.185162 86.676122 81.306275 88.326172 78.232422 L 88.134766 78.367188 L 77.009766 67.832031 L 74.662109 70.648438 C 73.77532 71.710762 72.595911 72.379933 71.339844 72.650391 L 64.134766 66.640625 C 64.175074 65.355952 64.624283 64.075345 65.513672 63.011719 L 72.007812 55.226562 C 72.946613 54.103125 74.208891 53.412432 75.546875 53.175781 z M 133.48633 72.353516 L 129.13086 101.45898 L 133.48633 107.41992 L 133.57031 107.41992 L 137.92578 101.45898 L 133.57031 72.353516 L 133.48633 72.353516 z M 152.00781 94.910156 L 152.00781 110.28906 L 153.93164 110.28906 C 155.31513 103.96972 154.34961 98.990423 152.00781 94.910156 z M 60.03125 123.03516 L 158.86133 123.03516 L 158.86133 190 L 60.03125 190 L 60.03125 123.03516 z M 109.44727 137.01367 C 107.72011 137.01367 106.30333 138.33709 106.1543 140.02539 C 105.11181 140.34085 104.22044 141.00711 103.61719 141.88477 L 92.933594 141.88477 C 92.131454 141.88477 91.480469 142.53204 91.480469 143.33398 C 91.480469 144.13602 92.13135 144.78711 92.933594 144.78711 L 93.001953 144.78711 L 87.5625 153.42188 C 87.286594 153.85962 87.417731 154.43904 87.855469 154.71484 C 88.010709 154.81276 88.180849 154.85742 88.351562 154.85742 C 88.662641 154.85742 88.968372 154.70231 89.146484 154.41992 L 93.865234 146.93359 L 98.583984 154.41992 C 98.85989 154.85766 99.439228 154.99085 99.876953 154.71484 C 100.3148 154.43904 100.44574 153.85962 100.16992 153.42188 L 94.728516 144.78711 L 107.57227 144.78711 L 107.57227 172.71875 L 104.52539 172.71875 C 102.70144 172.71873 101.22266 174.19753 101.22266 176.02148 L 117.67188 176.02148 C 117.67188 174.19753 116.19103 172.71873 114.36719 172.71875 L 111.32031 172.71875 L 111.32031 144.78711 L 124.16602 144.78711 L 118.72266 153.42188 C 118.44674 153.85962 118.57974 154.43904 119.01758 154.71484 C 119.17281 154.81276 119.34481 154.85742 119.51562 154.85742 C 119.82679 154.85742 120.13243 154.70231 120.31055 154.41992 L 125.0293 146.93359 L 129.74805 154.41992 C 130.02406 154.85766 130.59948 154.99085 131.03711 154.71484 C 131.47483 154.43904 131.60783 153.85962 131.33203 153.42188 L 125.89258 144.78711 L 125.96094 144.78711 C 126.76299 144.78711 127.41406 144.13602 127.41406 143.33398 C 127.41406 142.53204 126.76308 141.88477 125.96094 141.88477 L 115.27734 141.88477 C 114.67399 141.00711 113.78273 140.34085 112.74023 140.02539 C 112.5913 138.33709 111.17432 137.01367 109.44727 137.01367 z M 86.970703 155.85547 C 86.694902 155.85547 86.470703 156.07761 86.470703 156.35352 C 86.470703 160.43047 89.78818 163.74805 93.865234 163.74805 C 97.942185 163.74805 101.25781 160.43047 101.25781 156.35352 C 101.25772 156.0777 101.03753 155.85547 100.76172 155.85547 L 86.970703 155.85547 z M 118.13477 155.85547 C 117.85896 155.85547 117.63477 156.07761 117.63477 156.35352 C 117.63477 160.43047 120.95215 163.74805 125.0293 163.74805 C 129.10625 163.74805 132.42188 160.43047 132.42188 156.35352 C 132.42177 156.0777 132.19768 155.85547 131.92188 155.85547 L 118.13477 155.85547 z "
       transform="translate(0,832.36216)"
       id="rect4380" />
    <g
       id="g4198"
       transform="translate(-117.75595,786.58845)">
      <g
         id="g4139">
        <g
           id="Layer_5_10_">
          <g
             id="g4142">
            <g
               id="g4144" />
          </g>
        </g>
      </g>
      <g
         id="g4162" />
      <g
         id="g4164" />
      <g
         id="g4166" />
      <g
         id="g4168" />
      <g
         id="g4170" />
      <g
         id="g4172" />
      <g
         id="g4174" />
      <g
         id="g4176" />
      <g
         id="g4178" />
      <g
         id="g4180" />
      <g
         id="g4182" />
      <g
         id="g4184" />
      <g
         id="g4186" />
      <g
         id="g4188" />
      <g
         id="g4190" />
    </g>
    <g
       id="g4355"
       transform="translate(82.437134,885.39837)">
      <g
         id="g4309">
        <g
           id="g4311" />
      </g>
      <g
         id="g4319" />
      <g
         id="g4321" />
      <g
         id="g4323" />
      <g
         id="g4325" />
      <g
         id="g4327" />
      <g
         id="g4329" />
      <g
         id="g4331" />
      <g
         id="g4333" />
      <g
         id="g4335" />
      <g
         id="g4337" />
      <g
         id="g4339" />
      <g
         id="g4341" />
      <g
         id="g4343" />
      <g
         id="g4345" />
      <g
         id="g4347" />
    </g>
    <g
       id="g4286"
       transform="matrix(0.07682478,0,0,0.07682478,125.8679,965.03021)"
       style="fill:#ff0000">
      <g
         id="g4240"
         style="fill:#ff0000">
        <g
           id="g4242"
           style="fill:#ff0000" />
      </g>
      <g
         id="g4250"
         style="fill:#ff0000" />
      <g
         id="g4252"
         style="fill:#ff0000" />
      <g
         id="g4254"
         style="fill:#ff0000" />
      <g
         id="g4256"
         style="fill:#ff0000" />
      <g
         id="g4258"
         style="fill:#ff0000" />
      <g
         id="g4260"
         style="fill:#ff0000" />
      <g
         id="g4262"
         style="fill:#ff0000" />
      <g
         id="g4264"
         style="fill:#ff0000" />
      <g
         id="g4266"
         style="fill:#ff0000" />
      <g
         id="g4268"
         style="fill:#ff0000" />
      <g
         id="g4270"
         style="fill:#ff0000" />
      <g
         id="g4272"
         style="fill:#ff0000" />
      <g
         id="g4274"
         style="fill:#ff0000" />
      <g
         id="g4276"
         style="fill:#ff0000" />
      <g
         id="g4278"
         style="fill:#ff0000" />
    </g>
  </g>
</svg>
