<?xml version="1.0" encoding="UTF-8" standalone="no"?>
<!-- Created with Inkscape (http://www.inkscape.org/) -->

<svg
   xmlns:dc="http://purl.org/dc/elements/1.1/"
   xmlns:cc="http://creativecommons.org/ns#"
   xmlns:rdf="http://www.w3.org/1999/02/22-rdf-syntax-ns#"
   xmlns:svg="http://www.w3.org/2000/svg"
   xmlns="http://www.w3.org/2000/svg"
   xmlns:sodipodi="http://sodipodi.sourceforge.net/DTD/sodipodi-0.dtd"
   xmlns:inkscape="http://www.inkscape.org/namespaces/inkscape"
   sodipodi:docname="ufu_oficinas_workshops.svg"
   inkscape:version="0.91 r13725"
   version="1.1"
   id="svg5354"
   viewBox="0 0 220 220"
   height="220"
   width="220">
  <sodipodi:namedview
     inkscape:window-maximized="1"
     inkscape:window-y="-8"
     inkscape:window-x="-8"
     inkscape:window-height="847"
     inkscape:window-width="1440"
     units="px"
     showgrid="false"
     inkscape:current-layer="layer1"
     inkscape:document-units="px"
     inkscape:cy="123.51767"
     inkscape:cx="65.560676"
     inkscape:zoom="2.9590909"
     inkscape:pageshadow="2"
     inkscape:pageopacity="0.0"
     borderopacity="1.0"
     bordercolor="#666666"
     pagecolor="#ffffff"
     id="base" />
  <defs
     id="defs5356" />
  <metadata
     id="metadata5359">
    <rdf:RDF>
      <cc:Work
         rdf:about="">
        <dc:format>image/svg+xml</dc:format>
        <dc:type
           rdf:resource="http://purl.org/dc/dcmitype/StillImage" />
        <dc:title></dc:title>
      </cc:Work>
    </rdf:RDF>
  </metadata>
  <g
     transform="translate(0,-832.36213)"
     id="layer1"
     inkscape:groupmode="layer"
     inkscape:label="Camada 1">
    <g
       transform="matrix(0.24744768,0,0,0.24744768,24.12566,862.36243)"
       id="g5972">
      <g
         id="g5905">
        <g
           id="_x31_5_38_">
          <g
             id="g5908" />
        </g>
      </g>
      <g
         id="g5936" />
      <g
         id="g5938" />
      <g
         id="g5940" />
      <g
         id="g5942" />
      <g
         id="g5944" />
      <g
         id="g5946" />
      <g
         id="g5948" />
      <g
         id="g5950" />
      <g
         id="g5952" />
      <g
         id="g5954" />
      <g
         id="g5956" />
      <g
         id="g5958" />
      <g
         id="g5960" />
      <g
         id="g5962" />
      <g
         id="g5964" />
    </g>
    <g
       transform="matrix(0.09398474,0,0,0.09398474,140.524,980.12437)"
       id="g6052">
      <g
         id="g6006">
        <g
           id="g6008" />
      </g>
      <g
         id="g6016" />
      <g
         id="g6018" />
      <g
         id="g6020" />
      <g
         id="g6022" />
      <g
         id="g6024" />
      <g
         id="g6026" />
      <g
         id="g6028" />
      <g
         id="g6030" />
      <g
         id="g6032" />
      <g
         id="g6034" />
      <g
         id="g6036" />
      <g
         id="g6038" />
      <g
         id="g6040" />
      <g
         id="g6042" />
      <g
         id="g6044" />
    </g>
    <g
       id="g6148"
       transform="matrix(0.24744768,0,0,0.24744768,-235.41351,862.36243)">
      <g
         id="g6150">
        <g
           id="g6152">
          <g
             id="g6154" />
        </g>
      </g>
      <g
         id="g6182" />
      <g
         id="g6184" />
      <g
         id="g6186" />
      <g
         id="g6188" />
      <g
         id="g6190" />
      <g
         id="g6192" />
      <g
         id="g6194" />
      <g
         id="g6196" />
      <g
         id="g6198" />
      <g
         id="g6200" />
      <g
         id="g6202" />
      <g
         id="g6204" />
      <g
         id="g6206" />
      <g
         id="g6208" />
      <g
         id="g6210" />
    </g>
    <g
       transform="matrix(0.24744768,0,0,0.24744768,-496.35872,862.36243)"
       id="g6268">
      <g
         id="g6270">
        <g
           id="g6272">
          <g
             id="g6274" />
        </g>
      </g>
      <g
         id="g6302" />
      <g
         id="g6304" />
      <g
         id="g6306" />
      <g
         id="g6308" />
      <g
         id="g6310" />
      <g
         id="g6312" />
      <g
         id="g6314" />
      <g
         id="g6316" />
      <g
         id="g6318" />
      <g
         id="g6320" />
      <g
         id="g6322" />
      <g
         id="g6324" />
      <g
         id="g6326" />
      <g
         id="g6328" />
      <g
         id="g6330" />
    </g>
    <g
       transform="matrix(0.83333333,0,0,0.83333333,-372.72273,987.36213)"
       id="g6383">
      <g
         id="g6341">
        <g
           id="g6343" />
      </g>
      <g
         id="g6347" />
      <g
         id="g6349" />
      <g
         id="g6351" />
      <g
         id="g6353" />
      <g
         id="g6355" />
      <g
         id="g6357" />
      <g
         id="g6359" />
      <g
         id="g6361" />
      <g
         id="g6363" />
      <g
         id="g6365" />
      <g
         id="g6367" />
      <g
         id="g6369" />
      <g
         id="g6371" />
      <g
         id="g6373" />
      <g
         id="g6375" />
    </g>
    <g
       transform="matrix(0.29296874,0,0,0.29296874,-678.08878,604.88221)"
       id="g4276">
      <g
         id="g4236" />
      <g
         id="g4240" />
      <g
         id="g4242" />
      <g
         id="g4244" />
      <g
         id="g4246" />
      <g
         id="g4248" />
      <g
         id="g4250" />
      <g
         id="g4252" />
      <g
         id="g4254" />
      <g
         id="g4256" />
      <g
         id="g4258" />
      <g
         id="g4260" />
      <g
         id="g4262" />
      <g
         id="g4264" />
      <g
         id="g4266" />
      <g
         id="g4268" />
    </g>
    <g
       style="fill:#00ff00"
       transform="matrix(0.21739083,0,0,0.21739083,-711.80524,597.1725)"
       id="g4342">
      <g
         style="fill:#00ff00"
         id="g4296">
        <g
           style="fill:#00ff00"
           id="g4298" />
      </g>
      <g
         style="fill:#00ff00"
         id="g4306" />
      <g
         style="fill:#00ff00"
         id="g4308" />
      <g
         style="fill:#00ff00"
         id="g4310" />
      <g
         style="fill:#00ff00"
         id="g4312" />
      <g
         style="fill:#00ff00"
         id="g4314" />
      <g
         style="fill:#00ff00"
         id="g4316" />
      <g
         style="fill:#00ff00"
         id="g4318" />
      <g
         style="fill:#00ff00"
         id="g4320" />
      <g
         style="fill:#00ff00"
         id="g4322" />
      <g
         style="fill:#00ff00"
         id="g4324" />
      <g
         style="fill:#00ff00"
         id="g4326" />
      <g
         style="fill:#00ff00"
         id="g4328" />
      <g
         style="fill:#00ff00"
         id="g4330" />
      <g
         style="fill:#00ff00"
         id="g4332" />
      <g
         style="fill:#00ff00"
         id="g4334" />
    </g>
    <g
       transform="translate(71.380022,907.45957)"
       id="g4424">
      <g
         id="g4370">
        <g
           id="g4372" />
      </g>
      <g
         id="g4388" />
      <g
         id="g4390" />
      <g
         id="g4392" />
      <g
         id="g4394" />
      <g
         id="g4396" />
      <g
         id="g4398" />
      <g
         id="g4400" />
      <g
         id="g4402" />
      <g
         id="g4404" />
      <g
         id="g4406" />
      <g
         id="g4408" />
      <g
         id="g4410" />
      <g
         id="g4412" />
      <g
         id="g4414" />
      <g
         id="g4416" />
    </g>
    <g
       style="fill:#000000"
       inkscape:label="Camada 1"
       id="layer1-7"
       transform="matrix(0.17729023,0,0,0.17729023,169.01022,812.13891)">
      <g
         style="fill:#000000"
         transform="matrix(1.8390805,0,0,1.8390805,29.999991,-913.01664)"
         id="layer1-6"
         inkscape:label="Camada 1">
        <text
           sodipodi:linespacing="125%"
           id="text3356"
           y="1073.4818"
           x="933.04791"
           style="font-style:normal;font-variant:normal;font-weight:normal;font-stretch:normal;font-size:15px;line-height:125%;font-family:'Open Sans';-inkscape-font-specification:'Open Sans, Normal';text-align:start;letter-spacing:0px;word-spacing:0px;writing-mode:lr-tb;text-anchor:start;fill:#000000;fill-opacity:1;stroke:none;stroke-width:1px;stroke-linecap:butt;stroke-linejoin:miter;stroke-opacity:1"
           xml:space="preserve"><tspan
             y="1073.4818"
             x="933.04791"
             id="tspan3358"
             sodipodi:role="line" /></text>
      </g>
    </g>
    <g
       id="g6483"
       transform="matrix(0.26146732,0,0,0.26146732,30.000001,862.36215)">
      <g
         id="g6443" />
      <g
         id="g6447" />
      <g
         id="g6449" />
      <g
         id="g6451" />
      <g
         id="g6453" />
      <g
         id="g6455" />
      <g
         id="g6457" />
      <g
         id="g6459" />
      <g
         id="g6461" />
      <g
         id="g6463" />
      <g
         id="g6465" />
      <g
         id="g6467" />
      <g
         id="g6469" />
      <g
         id="g6471" />
      <g
         id="g6473" />
      <g
         id="g6475" />
    </g>
    <g
       id="g6544"
       transform="matrix(2.6666667,0,0,2.6666667,29.999999,862.36213)">
      <g
         id="g6508" />
      <g
         id="g6510" />
      <g
         id="g6512" />
      <g
         id="g6514" />
      <g
         id="g6516" />
      <g
         id="g6518" />
      <g
         id="g6520" />
      <g
         id="g6522" />
      <g
         id="g6524" />
      <g
         id="g6526" />
      <g
         id="g6528" />
      <g
         id="g6530" />
      <g
         id="g6532" />
      <g
         id="g6534" />
      <g
         id="g6536" />
    </g>
    <path
       style="color:#000000;clip-rule:nonzero;display:inline;overflow:visible;visibility:visible;opacity:1;isolation:auto;mix-blend-mode:normal;color-interpolation:sRGB;color-interpolation-filters:linearRGB;solid-color:#000000;solid-opacity:1;fill:#ffffff;fill-opacity:1;fill-rule:nonzero;stroke:none;stroke-width:5;stroke-linecap:square;stroke-linejoin:miter;stroke-miterlimit:4;stroke-dasharray:none;stroke-dashoffset:0;stroke-opacity:1;color-rendering:auto;image-rendering:auto;shape-rendering:auto;text-rendering:auto;enable-background:accumulate"
       d="M 0 0 L 0 220 L 220 220 L 220 0 L 0 0 z M 67.978516 30 A 9.9796678 9.9796678 0 0 1 77.958984 39.980469 A 9.9796678 9.9796678 0 0 1 67.978516 49.958984 A 9.9796678 9.9796678 0 0 1 58 39.980469 A 9.9796678 9.9796678 0 0 1 67.978516 30 z M 99.203125 35.240234 L 176.0332 35.240234 C 177.94789 35.240234 179.5 36.792035 179.5 38.707031 L 179.5 95.646484 C 179.5 97.561481 177.94789 99.113281 176.0332 99.113281 L 99.203125 99.113281 C 97.288129 99.113281 95.736328 97.561481 95.736328 95.646484 L 95.736328 88.394531 L 102.67188 84.087891 L 102.67188 92.179688 L 172.56641 92.179688 L 172.56641 42.173828 L 102.66992 42.173828 L 102.66992 62.091797 C 101.60461 62.317109 100.56047 62.728126 99.582031 63.335938 L 95.736328 65.722656 L 95.736328 38.707031 C 95.736328 36.792035 97.288129 35.240234 99.203125 35.240234 z M 55.029297 53.140625 L 59.861328 53.140625 C 60.502889 54.804372 65.167111 66.898753 65.841797 68.648438 L 64.589844 62.345703 C 64.497969 61.882579 64.573282 61.40039 64.800781 60.986328 L 66.761719 57.419922 L 65.021484 54.253906 C 64.76211 53.782657 65.103126 53.205078 65.640625 53.205078 L 70.414062 53.205078 C 70.951874 53.205078 71.292265 53.782657 71.033203 54.253906 L 69.296875 57.414062 L 71.253906 60.974609 C 71.486093 61.396484 71.558984 61.886173 71.458984 62.357422 L 70.013672 68.648438 C 73.448978 59.73908 72.14618 63.636855 76.193359 53.140625 L 80.929688 53.140625 C 87.181549 53.140625 92.292656 58.226965 92.324219 64.478516 C 92.350156 69.68663 92.330469 65.393297 92.371094 73.480469 L 102.12109 67.425781 C 104.38078 66.023284 107.34914 66.717505 108.75195 68.976562 C 110.15476 71.235621 109.45992 74.205237 107.20117 75.607422 L 90.138672 86.203125 C 88.654925 87.124373 86.792653 87.168045 85.269531 86.326172 C 83.743597 85.482736 82.791953 83.880153 82.783203 82.136719 C 82.764766 78.461413 82.712187 67.902572 82.695312 64.525391 C 82.692814 63.969454 82.241483 63.522188 81.685547 63.523438 C 81.12961 63.524374 80.679688 63.97336 80.679688 64.529297 C 80.679688 102.90141 80.783203 48.92845 80.783203 136.22266 C 78.266958 136.84297 75.982731 138.05595 74.083984 139.70312 C 72.67555 139.33064 71.200309 139.12828 69.679688 139.12109 C 71.159996 136.68266 72.013672 133.82288 72.013672 130.76758 C 72.013672 127.41415 70.983747 124.29859 69.226562 121.71484 L 69.226562 99.285156 L 66.732422 99.285156 L 66.732422 118.83789 C 63.668365 116.04571 59.583898 114.45508 55.175781 114.64258 L 55.173828 64.523438 C 55.173828 63.998439 54.751561 63.572109 54.226562 63.568359 C 53.701565 63.564297 53.271172 63.984767 53.263672 64.509766 L 53.263672 64.525391 L 53.085938 99.900391 C 53.072813 102.55132 50.919292 104.69141 48.271484 104.69141 L 48.246094 104.69141 C 45.586724 104.67797 43.441953 102.51289 43.455078 99.853516 L 43.632812 64.478516 C 43.664375 58.226653 48.777747 53.140625 55.029297 53.140625 z M 123.33203 53.478516 C 124.18584 53.415598 125.05488 53.763283 125.625 54.486328 C 126.53719 55.642888 126.33851 57.320549 125.18164 58.232422 L 113.41602 67.509766 C 113.24852 67.145704 113.06094 66.786562 112.84375 66.4375 C 112.07781 65.204065 111.07586 64.204295 109.93555 63.458984 L 121.87891 54.042969 C 122.31262 53.701133 122.81975 53.516266 123.33203 53.478516 z M 55.871094 120.20508 C 61.705145 120.20508 66.433594 124.93321 66.433594 130.76758 C 66.433594 136.63882 61.663582 141.33203 55.871094 141.33203 C 50.009543 141.33203 45.306641 136.57507 45.306641 130.76758 C 45.306641 124.93353 50.037355 120.20508 55.871094 120.20508 z M 112.75586 120.20508 C 118.59897 120.20508 123.31836 124.93946 123.31836 130.76758 C 123.31836 136.65444 118.54272 141.33203 112.75586 141.33203 C 106.91306 141.33203 102.19141 136.58882 102.19141 130.76758 C 102.19141 124.9329 106.92212 120.20508 112.75586 120.20508 z M 164.13086 120.32031 A 10.563417 10.563417 0 0 1 174.69531 130.88477 A 10.563417 10.563417 0 0 1 164.13086 141.44727 A 10.563417 10.563417 0 0 1 153.56836 130.88477 A 10.563417 10.563417 0 0 1 164.13086 120.32031 z M 84.978516 141.16602 A 10.686855 10.686855 0 0 1 95.666016 151.85352 A 10.686855 10.686855 0 0 1 84.978516 162.54102 A 10.686855 10.686855 0 0 1 74.292969 151.85352 A 10.686855 10.686855 0 0 1 84.978516 141.16602 z M 136.89648 141.44531 A 10.686855 10.686855 0 0 1 147.58398 152.13086 A 10.686855 10.686855 0 0 1 136.89648 162.81836 A 10.686855 10.686855 0 0 1 126.20898 152.13086 A 10.686855 10.686855 0 0 1 136.89648 141.44531 z M 42.232422 144.69922 C 71.656426 144.69922 69.740002 144.69039 70.195312 144.71289 C 69.115628 146.87757 68.505859 149.31579 68.505859 151.89453 C 68.505859 154.95703 69.361409 157.8654 70.925781 160.38477 C 65.162355 160.62227 59.866791 163.7136 56.787109 168.63672 L 42.498047 168.63672 L 42.498047 156.75586 C 42.498047 156.16774 42.021718 155.69133 41.433594 155.68945 C 40.84547 155.68789 40.366406 156.1632 40.363281 156.75195 L 40.304688 168.63672 L 30.109375 168.63672 L 30.169922 156.69922 C 30.203359 150.05361 35.648685 144.69922 42.232422 144.69922 z M 99.091797 144.69922 L 122.61328 144.69922 C 121.43953 146.93578 120.77148 149.47727 120.77148 152.17383 C 120.77148 155.03945 121.54571 158.00524 123.18164 160.64648 C 118.47009 160.6718 114.18679 162.57516 111.04492 165.64453 C 107.80399 162.29173 103.3189 160.27117 98.457031 160.24805 C 99.937966 157.80899 100.79102 154.93234 100.79102 151.89453 C 100.79102 149.30922 100.17679 146.86765 99.091797 144.69922 z M 151.27539 144.81445 L 177.76758 144.81445 C 184.38538 144.81445 189.79664 150.19892 189.83008 156.81641 L 189.89062 168.63672 L 179.69531 168.63672 L 179.63672 156.86719 C 179.59797 156.29313 179.11047 155.85141 178.53516 155.87109 C 177.95984 155.89078 177.50391 156.36383 177.50391 156.93945 L 177.50391 168.63672 L 164.82227 168.63672 C 161.79696 163.95329 156.62038 160.78172 150.71289 160.54297 C 152.30508 157.92766 153.05664 154.98789 153.05664 152.17383 C 153.05664 149.52352 152.41195 147.0232 151.27539 144.81445 z M 71.982422 165.7832 L 98.703125 165.7832 C 105.34561 165.7832 110.73086 171.19392 110.76367 177.78516 L 110.84961 178.06445 C 110.88305 171.44665 116.64033 166.0625 123.25781 166.0625 L 149.97852 166.0625 C 156.59632 166.0625 162.0082 171.44634 162.04102 178.06445 L 162.10156 190 L 151.90625 190 L 151.84766 178.11523 C 151.84484 177.57274 151.40155 177.13352 150.85938 177.13477 C 150.31688 177.13633 149.87891 177.57664 149.87891 178.11914 L 149.87891 190 L 122.88086 190 L 122.88086 178.11914 C 122.88086 177.61258 122.47141 177.20242 121.96484 177.20117 C 121.45828 177.19992 121.04578 177.60867 121.04297 178.11523 L 120.98438 190 L 100.62891 190 L 100.57031 177.83594 C 100.5675 177.29344 100.12422 176.85617 99.582031 176.85742 C 99.039532 176.85898 98.601562 177.2993 98.601562 177.8418 L 98.601562 190 L 71.603516 190 L 71.603516 177.8418 C 71.603516 177.33524 71.194062 176.92311 70.6875 176.92188 C 70.180938 176.92063 69.768125 177.32906 69.765625 177.83594 L 69.707031 190 L 59.513672 190 L 59.572266 177.78516 C 59.605703 171.16736 65.364935 165.7832 71.982422 165.7832 z "
       transform="translate(0,832.36213)"
       id="rect6563" />
    <g
       id="g6610"
       transform="matrix(0.33898305,0,0,0.33898305,30,862.36213)">
      <g
         id="g6566">
        <g
           id="g6568" />
      </g>
      <g
         id="g6574" />
      <g
         id="g6576" />
      <g
         id="g6578" />
      <g
         id="g6580" />
      <g
         id="g6582" />
      <g
         id="g6584" />
      <g
         id="g6586" />
      <g
         id="g6588" />
      <g
         id="g6590" />
      <g
         id="g6592" />
      <g
         id="g6594" />
      <g
         id="g6596" />
      <g
         id="g6598" />
      <g
         id="g6600" />
      <g
         id="g6602" />
    </g>
    <g
       id="g6748"
       transform="matrix(0.31249939,0,0,0.31249939,29.999687,862.36213)">
      <g
         id="g6634">
        <g
           id="g6636" />
      </g>
      <g
         id="g6640">
        <g
           id="g6642" />
      </g>
      <g
         id="g6646">
        <g
           id="g6648" />
      </g>
      <g
         id="g6652">
        <g
           id="g6654" />
      </g>
      <g
         id="g6658">
        <g
           id="g6660" />
      </g>
      <g
         id="g6664">
        <g
           id="g6666" />
      </g>
      <g
         id="g6670">
        <g
           id="g6672" />
      </g>
      <g
         id="g6676">
        <g
           id="g6678" />
      </g>
      <g
         id="g6682">
        <g
           id="g6684" />
      </g>
      <g
         id="g6688">
        <g
           id="g6690" />
      </g>
      <g
         id="g6694">
        <g
           id="g6696" />
      </g>
      <g
         id="g6700">
        <g
           id="g6702" />
      </g>
      <g
         id="g6706">
        <g
           id="g6708" />
      </g>
      <g
         id="g6712" />
      <g
         id="g6714" />
      <g
         id="g6716" />
      <g
         id="g6718" />
      <g
         id="g6720" />
      <g
         id="g6722" />
      <g
         id="g6724" />
      <g
         id="g6726" />
      <g
         id="g6728" />
      <g
         id="g6730" />
      <g
         id="g6732" />
      <g
         id="g6734" />
      <g
         id="g6736" />
      <g
         id="g6738" />
      <g
         id="g6740" />
    </g>
  </g>
</svg>
