<?xml version="1.0" encoding="UTF-8" standalone="no"?>
<!-- Created with Inkscape (http://www.inkscape.org/) -->

<svg
   xmlns:dc="http://purl.org/dc/elements/1.1/"
   xmlns:cc="http://creativecommons.org/ns#"
   xmlns:rdf="http://www.w3.org/1999/02/22-rdf-syntax-ns#"
   xmlns:svg="http://www.w3.org/2000/svg"
   xmlns="http://www.w3.org/2000/svg"
   xmlns:sodipodi="http://sodipodi.sourceforge.net/DTD/sodipodi-0.dtd"
   xmlns:inkscape="http://www.inkscape.org/namespaces/inkscape"
   width="220"
   height="220"
   viewBox="0 0 220 220"
   id="svg2"
   version="1.1"
   inkscape:version="0.91 r13725"
   sodipodi:docname="ufu_esporte_lazer.svg">
  <defs
     id="defs4" />
  <sodipodi:namedview
     id="base"
     pagecolor="#ffffff"
     bordercolor="#666666"
     borderopacity="1.0"
     inkscape:pageopacity="0.0"
     inkscape:pageshadow="2"
     inkscape:zoom="2.9590909"
     inkscape:cx="65.560676"
     inkscape:cy="110"
     inkscape:document-units="px"
     inkscape:current-layer="layer1"
     showgrid="false"
     units="px"
     inkscape:window-width="1440"
     inkscape:window-height="847"
     inkscape:window-x="-8"
     inkscape:window-y="-8"
     inkscape:window-maximized="1" />
  <metadata
     id="metadata7">
    <rdf:RDF>
      <cc:Work
         rdf:about="">
        <dc:format>image/svg+xml</dc:format>
        <dc:type
           rdf:resource="http://purl.org/dc/dcmitype/StillImage" />
        <dc:title></dc:title>
      </cc:Work>
    </rdf:RDF>
  </metadata>
  <g
     inkscape:label="Camada 1"
     inkscape:groupmode="layer"
     id="layer1"
     transform="translate(0,-832.36216)">
    <path
       style="color:#000000;clip-rule:nonzero;display:inline;overflow:visible;visibility:visible;opacity:1;isolation:auto;mix-blend-mode:normal;color-interpolation:sRGB;color-interpolation-filters:linearRGB;solid-color:#000000;solid-opacity:1;fill:#ffffff;fill-opacity:1;fill-rule:nonzero;stroke:none;stroke-width:5;stroke-linecap:square;stroke-linejoin:miter;stroke-miterlimit:4;stroke-dasharray:none;stroke-dashoffset:0;stroke-opacity:1;color-rendering:auto;image-rendering:auto;shape-rendering:auto;text-rendering:auto;enable-background:accumulate"
       d="M 0 0 L 0 220 L 220 220 L 220 0 L 0 0 z M 88.175781 29.820312 A 4.7366428 4.7366428 0 0 1 92.914062 34.556641 A 4.7366428 4.7366428 0 0 1 88.175781 39.292969 A 4.7366428 4.7366428 0 0 1 83.439453 34.556641 A 4.7366428 4.7366428 0 0 1 88.175781 29.820312 z M 166.31641 29.824219 C 167.46228 29.864418 168.61653 30.193491 169.67578 30.839844 C 173.05959 32.907844 174.18822 37.435515 172.19727 40.953125 C 170.21148 44.469725 165.85255 45.649418 162.46875 43.580078 C 159.08155 41.511748 157.95695 36.984124 159.94531 33.464844 C 161.31231 31.047181 163.79549 29.73578 166.31641 29.824219 z M 108.03516 32.505859 C 108.69358 32.534454 109.32462 32.878578 109.69531 33.482422 C 110.28877 34.448562 109.98762 35.713011 109.02148 36.306641 C 93.562099 45.800141 94.705147 45.123664 94.373047 45.240234 L 94.373047 58.078125 C 94.407717 58.261595 94.259668 56.845129 96.398438 77.980469 C 96.535387 79.334119 95.548794 80.542738 94.195312 80.679688 C 92.839053 80.816287 91.632694 79.828302 91.496094 78.476562 L 89.720703 60.927734 L 87.8125 60.927734 L 82.34375 78.943359 C 81.94841 80.245959 80.572514 80.981278 79.271484 80.585938 C 77.969584 80.190766 77.233736 78.813619 77.628906 77.511719 L 83.5 58.173828 L 83.5 44.837891 L 69.691406 38.931641 C 68.649116 38.485771 68.165448 37.278608 68.611328 36.236328 C 69.057548 35.193848 70.264181 34.71056 71.306641 35.15625 L 85.5625 41.253906 L 93.115234 41.253906 L 106.87305 32.806641 C 107.23555 32.584097 107.6401 32.488703 108.03516 32.505859 z M 154.90039 40.974609 C 156.38313 41.023852 158.02531 41.646243 159.52344 43.414062 C 161.18654 45.376742 161.30747 48.158354 160.29102 50.371094 L 160.66602 53.535156 L 169.02734 50.285156 C 170.73513 49.615286 172.66419 50.52107 173.30859 52.3125 C 173.95315 54.10242 173.07634 56.094972 171.35547 56.763672 L 170.59766 57.058594 L 172.92578 69.068359 C 173.308 69.040159 173.69255 69.007812 174.08203 69.007812 C 182.8593 69.007812 190 76.430507 190 85.554688 C 190 94.679197 182.8593 102.10156 174.08203 102.10156 C 165.30541 102.10156 158.16602 94.679197 158.16602 85.554688 C 158.16602 83.169016 158.6661 80.904226 159.54492 78.853516 L 156.4668 76.923828 L 151.73438 84.990234 C 150.8562 86.484454 149.32162 87.310547 147.75195 87.310547 C 146.92555 87.310547 146.08888 87.081243 145.33203 86.601562 C 143.13634 85.208973 142.44261 82.228332 143.78125 79.945312 L 148.97656 71.09375 L 139.25 66.992188 L 136.38281 66.992188 L 134.61523 71.292969 C 139.32235 74.170559 142.49805 79.478498 142.49805 85.554688 C 142.49805 94.679197 135.35946 102.10156 126.58203 102.10156 C 117.80542 102.10156 110.66211 94.679197 110.66211 85.554688 C 110.66211 76.430678 117.8051 69.007983 126.58203 69.007812 C 128.09734 69.007812 129.55847 69.24283 130.94922 69.65625 L 132.04688 66.988281 C 130.58093 66.981571 129.39453 65.748349 129.39453 64.224609 C 129.39453 62.769639 130.48358 61.61221 131.85547 61.5 C 131.68896 60.60823 131.75393 59.656963 132.10742 58.751953 C 132.39316 58.021193 132.84146 57.418804 133.37695 56.933594 L 133.37305 56.929688 L 150.61914 42.412109 C 151.35161 41.795857 152.99401 40.911298 154.90039 40.974609 z M 32.205078 44.171875 C 32.983321 44.098755 33.782913 44.399466 34.316406 45.048828 L 45.792969 59.017578 L 54.072266 59.017578 L 68.199219 49.90625 C 69.329319 49.17776 70.835453 49.502533 71.564453 50.632812 C 72.293293 51.762913 71.967821 53.27116 70.837891 54 C 54.904061 64.27582 55.988537 63.609187 55.591797 63.748047 L 55.591797 78.392578 L 62.017578 86.097656 C 62.455608 86.622756 62.695312 87.28485 62.695312 87.96875 L 62.695312 99.259766 C 62.695314 100.87357 61.387228 102.18164 59.773438 102.18164 C 58.159658 102.18164 56.851562 100.87337 56.851562 99.259766 L 56.851562 89.027344 L 51.285156 82.351562 L 47.810547 82.351562 L 41.324219 103.71875 C 40.856049 105.26095 39.226047 106.13522 37.679688 105.66602 C 36.135596 105.19732 35.263722 103.56558 35.732422 102.02148 L 42.695312 79.083984 L 42.695312 62.917969 L 30.552734 48.140625 C 29.699144 47.101655 29.849702 45.568604 30.888672 44.714844 C 31.278289 44.394684 31.738132 44.215747 32.205078 44.171875 z M 48.605469 45.455078 A 5.6179357 5.6179357 0 0 1 54.222656 51.072266 A 5.6179357 5.6179357 0 0 1 48.605469 56.691406 A 5.6179357 5.6179357 0 0 1 42.988281 51.072266 A 5.6179357 5.6179357 0 0 1 48.605469 45.455078 z M 154.28516 56.269531 L 149.05078 60.675781 L 157.55859 64.265625 C 158.82415 64.800485 159.80114 65.884895 160.23047 67.234375 C 160.65914 68.583865 160.49568 70.060327 159.7832 71.273438 L 158.54492 73.380859 L 161.61133 75.304688 C 163.50401 72.821747 166.06241 70.918246 169.00977 69.884766 L 166.81055 58.53125 L 159.04102 61.550781 C 158.6638 61.696911 158.26981 61.769531 157.87695 61.769531 C 157.27692 61.769531 156.67815 61.601781 156.15039 61.269531 C 155.27996 60.719571 154.69817 59.783522 154.57617 58.732422 L 154.28516 56.269531 z M 126.58203 73.158203 C 120.00641 73.158203 114.6543 78.719057 114.6543 85.554688 C 114.6543 92.390308 120.00641 97.951172 126.58203 97.951172 C 132.47419 97.951172 137.34663 93.475986 138.30273 87.628906 L 129.9043 87.628906 C 129.22311 88.805466 127.9965 89.601562 126.58203 89.601562 C 124.43264 89.601562 122.6875 87.789227 122.6875 85.554688 C 122.6875 83.509486 124.15374 81.835993 126.05078 81.564453 L 129.35547 73.53125 C 128.4618 73.30853 127.54104 73.158203 126.58203 73.158203 z M 174.08203 73.158203 C 173.95989 73.158203 173.84661 73.191312 173.72461 73.195312 L 175.38281 81.755859 C 176.88957 82.314869 177.97266 83.797307 177.97266 85.554688 C 177.97266 87.789057 176.23142 89.601562 174.08203 89.601562 C 171.93523 89.601562 170.19141 87.789227 170.19141 85.554688 C 170.19141 85.548887 170.19531 85.543109 170.19531 85.537109 L 163.00781 81.029297 C 162.4749 82.435807 162.1582 83.953958 162.1582 85.554688 C 162.1582 92.390308 167.50627 97.951172 174.08203 97.951172 C 180.6578 97.951172 186.00764 92.390317 186.00781 85.554688 C 186.00781 78.719066 180.6578 73.158203 174.08203 73.158203 z M 169.81055 74.015625 C 167.96835 74.756125 166.36853 75.962918 165.09766 77.492188 L 171.22852 81.339844 L 169.81055 74.015625 z M 133.02734 75.154297 L 129.72461 83.189453 C 129.7898 83.282703 129.847 83.379916 129.9043 83.478516 L 138.30469 83.478516 C 137.73532 79.991936 135.7795 77.003587 133.02734 75.154297 z M 70.498047 82.351562 A 5.6179357 5.6179357 0 0 1 76.117188 87.96875 A 5.6179357 5.6179357 0 0 1 70.498047 93.587891 A 5.6179357 5.6179357 0 0 1 64.880859 87.96875 A 5.6179357 5.6179357 0 0 1 70.498047 82.351562 z M 185.26758 110.19922 C 190.31654 109.75562 192.0148 117.52648 186.92188 117.97266 C 176.94294 118.85209 169.27597 122.9729 164.58008 130.56445 C 166.89634 132.43582 168.98343 134.31853 169.60938 136.44727 C 173.82546 140.36073 177.21237 144.49621 178.2832 150.44141 C 178.64015 152.4253 177.77234 154.90264 175.50781 155.32812 C 170.20666 156.32265 164.91055 157.31602 159.61328 158.31055 C 158.91232 158.44373 158.27602 158.39276 157.69922 158.22852 C 157.65268 158.37724 157.59673 158.52381 157.55273 158.67383 C 161.01483 166.4322 164.52771 174.16449 168.31055 181.77539 C 171.148 187.49559 162.58022 192.52856 159.73242 186.78906 C 156.05822 179.39536 152.63527 171.88288 149.26758 164.3457 C 145.87402 171.76268 142.87045 179.75408 140.38477 187.14648 C 138.34139 193.21588 129.21826 189.27452 131.25 183.23242 C 134.57372 173.35172 138.82092 162.39171 143.69141 153.17969 C 146.37754 145.77179 153.76345 131.62143 157.46094 126.98633 C 162.97806 117.73163 172.44214 111.32954 185.26758 110.19922 z M 176.93555 123.57812 A 6.822042 6.822042 0 0 1 183.75586 130.40039 A 6.822042 6.822042 0 0 1 176.93555 137.22266 A 6.822042 6.822042 0 0 1 170.11328 130.40039 A 6.822042 6.822042 0 0 1 176.93555 123.57812 z M 165.9668 143.99023 C 164.32433 145.8422 162.83625 147.80845 161.54297 149.89062 C 164.10625 149.40953 166.6711 148.93032 169.23438 148.44922 C 168.39244 146.78865 167.27689 145.35334 165.9668 143.99023 z M 58.248047 146.05664 L 74.261719 157.59961 L 85.982422 176.72461 C 85.285246 177.14841 84.707781 177.59316 84.216797 177.97266 C 83.137026 178.80746 82.77259 179.08789 81.646484 179.08789 C 80.520213 179.08789 80.155942 178.80786 79.076172 177.97266 C 77.602389 176.83346 75.376617 175.11133 71.359375 175.11133 C 67.341803 175.11133 65.114078 176.83346 63.640625 177.97266 C 62.560855 178.80746 62.196582 179.08789 61.070312 179.08789 C 59.944206 179.08789 59.581557 178.80786 58.501953 177.97266 C 57.028336 176.83346 54.800612 175.11133 50.783203 175.11133 C 49.893076 175.11133 49.096733 175.20015 48.371094 175.34375 L 65.132812 163.74805 L 56.675781 157.65234 L 37.650391 161.26172 L 39.951172 151.06836 L 58.248047 146.05664 z M 93.96875 148.4082 A 13.386669 12.927206 0 0 1 107.35547 161.33594 A 13.386669 12.927206 0 0 1 93.96875 174.26367 A 13.386669 12.927206 0 0 1 80.582031 161.33594 A 13.386669 12.927206 0 0 1 93.96875 148.4082 z M 30 178.25 C 34.017407 178.25 36.243345 179.97213 37.716797 181.11133 C 38.796567 181.94603 39.160839 182.22656 40.287109 182.22656 C 41.413546 182.22656 41.777652 181.94643 42.857422 181.11133 C 44.33104 179.97213 46.558765 178.25 50.576172 178.25 C 54.59358 178.25 56.81935 179.97213 58.292969 181.11133 C 59.372573 181.94603 59.737011 182.22656 60.863281 182.22656 C 61.989716 182.22656 62.352037 181.94643 63.431641 181.11133 C 64.905259 179.97213 67.132983 178.25 71.150391 178.25 C 75.167964 178.25 77.393733 179.97213 78.867188 181.11133 C 79.947288 181.94603 80.310733 182.22656 81.4375 182.22656 C 82.563772 182.22656 82.928372 181.94643 84.007812 181.11133 C 85.48143 179.97213 87.70899 178.25 91.726562 178.25 C 95.744137 178.25 97.969908 179.97213 99.443359 181.11133 C 100.52346 181.94603 100.88904 182.22656 102.01562 182.22656 C 103.14223 182.22656 103.50617 181.94643 104.58594 181.11133 C 106.05972 179.97213 108.28679 178.2499 112.30469 178.25 L 112.30469 186.20312 C 111.17809 186.20312 110.81252 186.48551 109.73242 187.32031 C 108.2588 188.45961 106.03355 190.17969 102.01562 190.17969 C 97.997729 190.17969 95.770328 188.45961 94.296875 187.32031 C 93.217105 186.48571 92.853166 186.20312 91.726562 186.20312 C 90.599963 186.20312 90.23602 186.48541 89.15625 187.32031 C 87.682631 188.45981 85.454576 190.17969 81.4375 190.17969 C 77.419596 190.17969 75.194156 188.45961 73.720703 187.32031 C 72.640933 186.48561 72.276993 186.20312 71.150391 186.20312 C 70.02412 186.20312 69.659848 186.48541 68.580078 187.32031 C 67.10646 188.45981 64.880689 190.17969 60.863281 190.17969 C 56.845874 190.17969 54.617983 188.45981 53.144531 187.32031 C 52.064926 186.48581 51.702442 186.20312 50.576172 186.20312 C 49.449735 186.20312 49.085464 186.48521 48.005859 187.32031 C 46.532241 188.45961 44.304682 190.17969 40.287109 190.17969 C 36.269701 190.17969 34.043765 188.45981 32.570312 187.32031 C 31.490543 186.48581 31.126271 186.20312 30 186.20312 L 30 178.25 z "
       transform="translate(0,832.36216)"
       id="rect3399" />
    <g
       id="g3379"
       transform="matrix(0.45693639,0,0,0.45693639,30.000026,862.36223)">
      <g
         id="g3337">
        <g
           id="g3339" />
      </g>
      <g
         id="g3343" />
      <g
         id="g3345" />
      <g
         id="g3347" />
      <g
         id="g3349" />
      <g
         id="g3351" />
      <g
         id="g3353" />
      <g
         id="g3355" />
      <g
         id="g3357" />
      <g
         id="g3359" />
      <g
         id="g3361" />
      <g
         id="g3363" />
      <g
         id="g3365" />
      <g
         id="g3367" />
      <g
         id="g3369" />
      <g
         id="g3371" />
    </g>
    <g
       id="g3449"
       transform="matrix(0.12063696,0,0,0.12063696,42.287741,973.78024)">
      <g
         id="g3403">
        <g
           id="g3405" />
      </g>
      <g
         id="g3413" />
      <g
         id="g3415" />
      <g
         id="g3417" />
      <g
         id="g3419" />
      <g
         id="g3421" />
      <g
         id="g3423" />
      <g
         id="g3425" />
      <g
         id="g3427" />
      <g
         id="g3429" />
      <g
         id="g3431" />
      <g
         id="g3433" />
      <g
         id="g3435" />
      <g
         id="g3437" />
      <g
         id="g3439" />
      <g
         id="g3441" />
    </g>
    <g
       id="g3516"
       transform="matrix(1.2932781,0,0,1.2932781,31.917579,861.35601)">
      <g
         id="g3472">
        <g
           id="g3474" />
      </g>
      <g
         id="g3480" />
      <g
         id="g3482" />
      <g
         id="g3484" />
      <g
         id="g3486" />
      <g
         id="g3488" />
      <g
         id="g3490" />
      <g
         id="g3492" />
      <g
         id="g3494" />
      <g
         id="g3496" />
      <g
         id="g3498" />
      <g
         id="g3500" />
      <g
         id="g3502" />
      <g
         id="g3504" />
      <g
         id="g3506" />
      <g
         id="g3508" />
    </g>
    <g
       id="g3590"
       transform="matrix(0.17423737,0,0,0.17423737,121.21146,942.76295)">
      <g
         id="g3538">
        <g
           id="g3540">
          <g
             id="g3542" />
        </g>
      </g>
      <g
         id="g3554" />
      <g
         id="g3556" />
      <g
         id="g3558" />
      <g
         id="g3560" />
      <g
         id="g3562" />
      <g
         id="g3564" />
      <g
         id="g3566" />
      <g
         id="g3568" />
      <g
         id="g3570" />
      <g
         id="g3572" />
      <g
         id="g3574" />
      <g
         id="g3576" />
      <g
         id="g3578" />
      <g
         id="g3580" />
      <g
         id="g3582" />
    </g>
    <g
       id="g4610"
       transform="matrix(1.3717358,0,0,1.3246545,-1.4761196,-342.28949)" />
    <g
       id="g4599"
       transform="translate(110.92536,68.60215)" />
    <g
       id="g4603"
       transform="translate(-68.84778,-95.179617)" />
  </g>
</svg>
