<?xml version="1.0" encoding="UTF-8" standalone="no"?>
<!-- Created with Inkscape (http://www.inkscape.org/) -->

<svg
   xmlns:dc="http://purl.org/dc/elements/1.1/"
   xmlns:cc="http://creativecommons.org/ns#"
   xmlns:rdf="http://www.w3.org/1999/02/22-rdf-syntax-ns#"
   xmlns:svg="http://www.w3.org/2000/svg"
   xmlns="http://www.w3.org/2000/svg"
   xmlns:sodipodi="http://sodipodi.sourceforge.net/DTD/sodipodi-0.dtd"
   xmlns:inkscape="http://www.inkscape.org/namespaces/inkscape"
   width="62.08889mm"
   height="62.08889mm"
   viewBox="0 0 220 220"
   id="svg2"
   version="1.1"
   inkscape:version="0.91 r13725"
   sodipodi:docname="ufu_guia_academico.svg">
  <defs
     id="defs4" />
  <sodipodi:namedview
     id="base"
     pagecolor="#ffffff"
     bordercolor="#666666"
     borderopacity="1.0"
     inkscape:pageopacity="0.0"
     inkscape:pageshadow="2"
     inkscape:zoom="1.0461966"
     inkscape:cx="-35.079899"
     inkscape:cy="86.154271"
     inkscape:document-units="px"
     inkscape:current-layer="layer1"
     showgrid="false"
     fit-margin-top="0"
     fit-margin-left="0"
     fit-margin-right="0"
     fit-margin-bottom="0"
     inkscape:window-width="1440"
     inkscape:window-height="847"
     inkscape:window-x="-8"
     inkscape:window-y="-8"
     inkscape:window-maximized="1" />
  <metadata
     id="metadata7">
    <rdf:RDF>
      <cc:Work
         rdf:about="">
        <dc:format>image/svg+xml</dc:format>
        <dc:type
           rdf:resource="http://purl.org/dc/dcmitype/StillImage" />
        <dc:title></dc:title>
      </cc:Work>
    </rdf:RDF>
  </metadata>
  <g
     inkscape:label="Camada 1"
     inkscape:groupmode="layer"
     id="layer1"
     transform="translate(-255.16926,-346.10076)">
    <g
       transform="translate(-185.30977,-160.23845)"
       id="layer1-5"
       inkscape:label="Camada 1"
       style="fill:#ffffff">
      <path
         style="color:#000000;clip-rule:nonzero;display:inline;overflow:visible;visibility:visible;opacity:1;isolation:auto;mix-blend-mode:normal;color-interpolation:sRGB;color-interpolation-filters:linearRGB;solid-color:#000000;solid-opacity:1;fill:#ffffff;fill-opacity:1;fill-rule:nonzero;stroke:none;stroke-width:5;stroke-linecap:square;stroke-linejoin:miter;stroke-miterlimit:4;stroke-dasharray:none;stroke-dashoffset:0;stroke-opacity:1;color-rendering:auto;image-rendering:auto;shape-rendering:auto;text-rendering:auto;enable-background:accumulate"
         d="M 0 0 L 0 220 L 220 220 L 220 0 L 0 0 z M 66.578125 73.734375 C 74.106158 73.734375 81.120587 75.118046 87.619141 77.884766 L 84.433594 85.123047 C 78.06372 82.42068 71.934182 81.070312 66.046875 81.070312 C 57.457202 81.070312 50.749481 83.626987 45.923828 88.742188 C 41.098161 93.857381 38.685547 100.9512 38.685547 110.02344 C 38.685547 119.54607 41.002126 126.76923 45.634766 131.69141 C 50.299566 136.61357 57.136638 139.07422 66.144531 139.07422 C 71.034538 139.07422 75.811763 138.51075 80.476562 137.38477 L 80.476562 115.66992 L 64.697266 115.66992 L 64.697266 108.33594 L 88.679688 108.33594 L 88.679688 142.64648 C 84.947847 143.83681 81.151549 144.7364 77.291016 145.34766 C 73.430489 145.9589 68.959973 146.26562 63.876953 146.26562 C 53.19616 146.26562 44.879381 143.09551 38.927734 136.75781 C 32.976088 130.38794 30 121.47634 30 110.02344 C 30 102.68844 31.463058 96.270785 34.390625 90.769531 C 37.350365 85.236111 41.597439 81.022346 47.130859 78.126953 C 52.664279 75.19938 59.146612 73.734375 66.578125 73.734375 z M 146.10742 73.736328 C 147.03866 73.736328 147.84243 74.049148 148.51758 74.677734 C 149.19272 75.306321 149.53125 76.272439 149.53125 77.576172 C 149.53125 78.879905 149.19272 79.857899 148.51758 80.509766 C 147.84243 81.138346 147.03866 81.453125 146.10742 81.453125 C 145.12962 81.453125 144.31594 81.138346 143.66406 80.509766 C 143.0122 79.857899 142.68555 78.879905 142.68555 77.576172 C 142.68555 76.249152 143.0122 75.283034 143.66406 74.677734 C 144.31594 74.049148 145.12962 73.736328 146.10742 73.736328 z M 175.7207 87.320312 C 180.28377 87.320313 183.65925 88.331975 185.84766 90.357422 C 188.05936 92.382862 189.16602 95.631625 189.16602 100.10156 L 189.16602 126.22266 L 184.87109 126.22266 L 183.71875 120.77539 L 183.43945 120.77539 C 181.53042 123.17333 179.61998 124.80267 177.71094 125.66406 C 175.82517 126.50218 173.46332 126.91992 170.62305 126.91992 C 166.82825 126.91992 163.84872 125.94388 161.68359 123.98828 C 159.54174 122.03268 158.4707 119.24918 158.4707 115.64062 C 158.4707 107.91136 164.65147 103.86077 177.01367 103.48828 L 183.50977 103.2793 L 183.50977 100.9043 C 183.50977 97.901047 182.85647 95.689671 181.55273 94.269531 C 180.27228 92.826105 178.21333 92.103516 175.37305 92.103516 C 172.18356 92.103516 168.57448 93.081509 164.54688 95.037109 L 162.76562 90.601562 C 164.65139 89.577196 166.71229 88.775379 168.94727 88.193359 C 171.20552 87.611339 173.46244 87.320312 175.7207 87.320312 z M 98.894531 87.949219 L 104.76172 87.949219 L 104.76172 112.77734 C 104.76172 115.897 105.47049 118.22518 106.89062 119.76172 C 108.31076 121.29827 110.53402 122.06641 113.56055 122.06641 C 117.56487 122.06641 120.48697 120.97162 122.32617 118.7832 C 124.18865 116.5948 125.12109 113.02135 125.12109 108.0625 L 125.12109 87.949219 L 130.91797 87.949219 L 130.91797 126.22266 L 126.13281 126.22266 L 125.29492 121.08984 L 124.98047 121.08984 C 123.79314 122.9756 122.14006 124.41884 120.02148 125.41992 C 117.9262 126.421 115.52873 126.91992 112.82812 126.91992 C 108.17194 126.91992 104.67966 125.8152 102.35156 123.60352 C 100.04674 121.39182 98.894531 117.85205 98.894531 112.98633 L 98.894531 87.949219 z M 143.17383 87.949219 L 148.9707 87.949219 L 148.9707 126.22266 L 143.17383 126.22266 L 143.17383 87.949219 z M 183.36914 107.40039 L 177.57227 107.64453 C 172.96264 107.8075 169.63271 108.52815 167.58398 109.80859 C 165.55854 111.06577 164.54688 113.03362 164.54688 115.71094 C 164.54687 117.80622 165.17447 119.40189 166.43164 120.49609 C 167.71209 121.59029 169.49386 122.13672 171.77539 122.13672 C 175.38395 122.13672 178.21299 121.14685 180.26172 119.16797 C 182.33372 117.18909 183.36914 114.41941 183.36914 110.85742 L 183.36914 107.40039 z M 145.1875 131.39453 L 146.46875 131.39453 C 146.58194 131.6106 146.77688 131.89163 147.05469 132.23633 C 147.33764 132.57586 147.80224 133.07924 148.44531 133.74805 L 148.44531 133.92578 L 147.52539 133.92578 C 147.07266 133.64282 146.50454 133.16417 145.82031 132.49023 C 145.12066 133.17961 144.55787 133.65825 144.13086 133.92578 L 143.24414 133.92578 L 143.24414 133.74805 C 143.89751 133.04838 144.35481 132.53433 144.61719 132.20508 C 144.87956 131.87582 145.06918 131.60546 145.1875 131.39453 z M 184.83789 134.65039 C 186.45844 134.65039 187.72417 135.16445 188.63477 136.19336 C 189.54535 137.22228 190 138.64223 190 140.45312 C 190 142.25887 189.54269 143.67883 188.62695 144.71289 C 187.71637 145.74695 186.44796 146.26562 184.82227 146.26562 C 183.16057 146.26562 181.87616 145.75763 180.9707 144.74414 C 180.0704 143.72552 179.62109 142.29151 179.62109 140.43945 C 179.62109 138.60284 180.07307 137.18021 180.97852 136.17188 C 181.88396 135.15839 183.17105 134.65039 184.83789 134.65039 z M 116.12695 134.66602 C 117.31021 134.66602 118.34366 134.88231 119.22852 135.31445 L 118.67383 136.44141 C 117.81983 136.04013 116.96532 135.83984 116.11133 135.83984 C 114.87148 135.83984 113.89017 136.25376 113.16992 137.08203 C 112.45482 137.90516 112.09766 139.03341 112.09766 140.46875 C 112.09766 141.94524 112.44343 143.08878 113.13281 143.89648 C 113.82733 144.69904 114.8147 145.09961 116.0957 145.09961 C 116.88282 145.09961 117.78072 144.95873 118.78906 144.67578 L 118.78906 145.82422 C 118.00708 146.11747 117.04177 146.26562 115.89453 146.26562 C 114.23283 146.26563 112.95036 145.76029 112.04492 144.75195 C 111.14462 143.74361 110.69336 142.31032 110.69336 140.45312 C 110.69336 139.29045 110.90965 138.27302 111.3418 137.39844 C 111.77908 136.52386 112.40662 135.85026 113.22461 135.37695 C 114.04773 134.90365 115.01572 134.66602 116.12695 134.66602 z M 175.08398 134.66602 C 176.26724 134.66602 177.30067 134.88231 178.18555 135.31445 L 177.62891 136.44141 C 176.77491 136.04013 175.92236 135.83984 175.06836 135.83984 C 173.82851 135.83984 172.84719 136.25376 172.12695 137.08203 C 171.41186 137.90516 171.05469 139.03341 171.05469 140.46875 C 171.05469 141.94524 171.40048 143.08878 172.08984 143.89648 C 172.78436 144.69904 173.77173 145.09961 175.05273 145.09961 C 175.83985 145.09961 176.73775 144.95873 177.74609 144.67578 L 177.74609 145.82422 C 176.96412 146.11747 175.9988 146.26562 174.85156 146.26562 C 173.18986 146.26563 171.90739 145.76029 171.00195 144.75195 C 170.10165 143.74361 169.65039 142.31032 169.65039 140.45312 C 169.65039 139.29045 169.86668 138.27302 170.29883 137.39844 C 170.73612 136.52386 171.36365 135.85026 172.18164 135.37695 C 173.00477 134.90365 173.97276 134.66602 175.08398 134.66602 z M 104.1875 134.78125 L 105.29102 134.78125 L 109.72852 146.11133 L 108.37109 146.11133 L 106.9668 142.52148 L 102.44531 142.52148 L 101.05469 146.11133 L 99.728516 146.11133 L 104.1875 134.78125 z M 124.16016 134.78125 L 125.26367 134.78125 L 129.70117 146.11133 L 128.3418 146.11133 L 126.9375 142.52148 L 122.41602 142.52148 L 121.02734 146.11133 L 119.69922 146.11133 L 124.16016 134.78125 z M 131.25195 134.82812 L 134.70898 134.82812 C 136.46328 134.82813 137.82649 135.31478 138.79883 136.28711 C 139.77115 137.25943 140.25781 138.61731 140.25781 140.36133 C 140.25781 142.22366 139.74981 143.64895 138.73633 144.63672 C 137.72799 145.61933 136.27531 146.11133 134.37695 146.11133 L 131.25195 146.11133 L 131.25195 134.82812 z M 142.76562 134.82812 L 149.05469 134.82812 L 149.05469 135.99414 L 144.07617 135.99414 L 144.07617 139.62891 L 148.75391 139.62891 L 148.75391 140.78516 L 144.07617 140.78516 L 144.07617 144.9375 L 149.05469 144.9375 L 149.05469 146.11133 L 142.76562 146.11133 L 142.76562 134.82812 z M 151.5625 134.82812 L 153.53711 134.82812 L 157.11133 144.13477 L 157.17188 144.13477 L 160.77539 134.82812 L 162.73633 134.82812 L 162.73633 146.11133 L 161.42383 146.11133 L 161.42383 138.8418 C 161.42383 138.00837 161.46116 137.10246 161.5332 136.125 L 161.4707 136.125 L 157.61133 146.11133 L 156.55469 146.11133 L 152.72656 136.10938 L 152.66602 136.10938 C 152.73806 136.90164 152.77344 137.84293 152.77344 138.93359 L 152.77344 146.11133 L 151.5625 146.11133 L 151.5625 134.82812 z M 165.82227 134.82812 L 167.13477 134.82812 L 167.13477 146.11133 L 165.82227 146.11133 L 165.82227 134.82812 z M 184.83789 135.82422 C 183.58776 135.82422 182.63579 136.21945 181.98242 137.01172 C 181.3342 137.79884 181.00977 138.94576 181.00977 140.45312 C 181.00977 141.98107 181.3342 143.14133 181.98242 143.93359 C 182.63579 144.72071 183.58243 145.11523 184.82227 145.11523 C 186.0724 145.11523 187.01636 144.72071 187.6543 143.93359 C 188.29222 143.14647 188.61133 141.9862 188.61133 140.45312 C 188.61133 138.93547 188.29222 137.78589 187.6543 137.00391 C 187.0215 136.21679 186.08288 135.82422 184.83789 135.82422 z M 132.5625 135.96289 L 132.5625 144.97656 L 134.16016 144.97656 C 135.72411 144.97656 136.90038 144.59271 137.6875 143.82617 C 138.47462 143.05449 138.86719 141.91556 138.86719 140.4082 C 138.86719 138.93684 138.49667 137.82799 137.75586 137.08203 C 137.02018 136.33606 135.92466 135.96289 134.46875 135.96289 L 132.5625 135.96289 z M 104.7207 136.2168 C 104.60752 136.71068 104.4453 137.25408 104.23438 137.8457 L 102.9082 141.3418 L 106.55664 141.3418 L 105.24609 137.8457 C 105.07632 137.40327 104.90076 136.85987 104.7207 136.2168 z M 124.69141 136.2168 C 124.57823 136.71068 124.416 137.25408 124.20508 137.8457 L 122.87891 141.3418 L 126.5293 141.3418 L 125.2168 137.8457 C 125.04702 137.40327 124.87147 136.85987 124.69141 136.2168 z "
         transform="translate(440.47903,506.33921)"
         id="rect6146" />
    </g>
    <g
       id="g4250"
       transform="matrix(0.09753267,0,0,0.09753267,404.01726,498.02478)">
      <g
         id="g4208" />
      <g
         id="g4214" />
      <g
         id="g4216" />
      <g
         id="g4218" />
      <g
         id="g4220" />
      <g
         id="g4222" />
      <g
         id="g4224" />
      <g
         id="g4226" />
      <g
         id="g4228" />
      <g
         id="g4230" />
      <g
         id="g4232" />
      <g
         id="g4234" />
      <g
         id="g4236" />
      <g
         id="g4238" />
      <g
         id="g4240" />
      <g
         id="g4242" />
    </g>
    <g
       id="g293773"
       transform="matrix(0.08019764,0,0,0.08019764,372.33747,506.43793)"
       style="fill:#ff0000">
      <g
         id="g293733"
         style="fill:#ff0000" />
      <g
         id="g293737"
         style="fill:#ff0000" />
      <g
         id="g293739"
         style="fill:#ff0000" />
      <g
         id="g293741"
         style="fill:#ff0000" />
      <g
         id="g293743"
         style="fill:#ff0000" />
      <g
         id="g293745"
         style="fill:#ff0000" />
      <g
         id="g293747"
         style="fill:#ff0000" />
      <g
         id="g293749"
         style="fill:#ff0000" />
      <g
         id="g293751"
         style="fill:#ff0000" />
      <g
         id="g293753"
         style="fill:#ff0000" />
      <g
         id="g293755"
         style="fill:#ff0000" />
      <g
         id="g293757"
         style="fill:#ff0000" />
      <g
         id="g293759"
         style="fill:#ff0000" />
      <g
         id="g293761"
         style="fill:#ff0000" />
      <g
         id="g293763"
         style="fill:#ff0000" />
      <g
         id="g293765"
         style="fill:#ff0000" />
    </g>
  </g>
</svg>
