<?xml version="1.0" encoding="UTF-8" standalone="no"?>
<!-- Created with Inkscape (http://www.inkscape.org/) -->

<svg
   xmlns:dc="http://purl.org/dc/elements/1.1/"
   xmlns:cc="http://creativecommons.org/ns#"
   xmlns:rdf="http://www.w3.org/1999/02/22-rdf-syntax-ns#"
   xmlns:svg="http://www.w3.org/2000/svg"
   xmlns="http://www.w3.org/2000/svg"
   xmlns:sodipodi="http://sodipodi.sourceforge.net/DTD/sodipodi-0.dtd"
   xmlns:inkscape="http://www.inkscape.org/namespaces/inkscape"
   width="220"
   height="220"
   viewBox="0 0 220 220"
   id="svg6417"
   version="1.1"
   inkscape:version="0.91 r13725"
   sodipodi:docname="ufu_calendario_pos_graduacao.svg">
  <defs
     id="defs6419" />
  <sodipodi:namedview
     id="base"
     pagecolor="#ffffff"
     bordercolor="#666666"
     borderopacity="1.0"
     inkscape:pageopacity="0.0"
     inkscape:pageshadow="2"
     inkscape:zoom="0.91738281"
     inkscape:cx="123.10092"
     inkscape:cy="222.31851"
     inkscape:document-units="px"
     inkscape:current-layer="layer1"
     showgrid="false"
     fit-margin-top="0"
     fit-margin-left="0"
     fit-margin-right="0"
     fit-margin-bottom="0"
     units="px"
     inkscape:window-width="1440"
     inkscape:window-height="847"
     inkscape:window-x="-8"
     inkscape:window-y="-8"
     inkscape:window-maximized="1" />
  <metadata
     id="metadata6422">
    <rdf:RDF>
      <cc:Work
         rdf:about="">
        <dc:format>image/svg+xml</dc:format>
        <dc:type
           rdf:resource="http://purl.org/dc/dcmitype/StillImage" />
        <dc:title></dc:title>
      </cc:Work>
    </rdf:RDF>
  </metadata>
  <g
     inkscape:label="Camada 1"
     inkscape:groupmode="layer"
     id="layer1"
     transform="translate(-77.489887,-534.68071)">
    <path
       inkscape:connector-curvature="0"
       style="color:#000000;clip-rule:nonzero;display:inline;overflow:visible;visibility:visible;opacity:1;isolation:auto;mix-blend-mode:normal;color-interpolation:sRGB;color-interpolation-filters:linearRGB;solid-color:#000000;solid-opacity:1;fill:#ffffff;fill-opacity:1;fill-rule:nonzero;stroke:none;stroke-width:5;stroke-linecap:square;stroke-linejoin:miter;stroke-miterlimit:4;stroke-dasharray:none;stroke-dashoffset:0;stroke-opacity:1;color-rendering:auto;image-rendering:auto;shape-rendering:auto;text-rendering:auto;enable-background:accumulate"
       d="m 77.489887,534.68071 0,220 220.000003,0 0,-220 -220.000003,0 z m 114.041023,31.0625 1.7168,0 c 2.60884,0 4.72461,2.11455 4.72461,4.72265 l 0,3.75586 0,14.15625 c 0,2.60859 -2.11577,4.72461 -4.72461,4.72461 l -1.7168,0 c -2.60884,0 -4.72411,-2.11577 -4.72461,-4.72461 l 0,-14.15625 0,-3.75586 c 0,-2.6081 2.11527,-4.72265 4.72461,-4.72265 z m -60.5918,0.11523 1.7168,0 c 2.60909,0 4.72461,2.11626 4.72461,4.72461 l 0,4.87695 0,13.03516 c 0,2.60834 -2.11552,4.72461 -4.72461,4.72461 l -1.7168,0 c -2.60884,0 -4.72265,-2.11627 -4.72265,-4.72461 l 0,-13.03516 0,-4.87695 c 0,-2.60835 2.11381,-4.72461 4.72265,-4.72461 z m -21.64453,9.60156 13.08203,0 0,13.03516 c 0,4.72229 3.84046,8.56445 8.5625,8.56445 l 1.7168,0 c 4.72229,0 8.56445,-3.84216 8.56445,-8.56445 l 0,-13.03516 41.74805,0 0,12.91797 c 0,4.72229 3.84021,8.56445 8.5625,8.56445 l 1.7168,0 c 4.72179,0 8.56445,-2.60388 8.56445,-7.32617 l 0,-14.15625 12.12305,0 c 4.23457,0 7.68018,3.44512 7.67968,7.67969 l 0,92.80079 c 1e-5,4.23482 -3.44511,7.67968 -7.67968,7.67968 l -104.64063,0 c -4.23457,0 -7.67969,-3.44486 -7.67969,-7.67968 l 0,-92.80079 c 1e-5,-4.23482 3.44512,-7.67969 7.67969,-7.67969 z m 0,30.39844 0.002,70.08204 104.63867,0 c 0.003,0 0.005,-0.002 0.006,-0.002 l -0.004,-70.08008 -104.64258,0 z m 56.28516,9.58789 13.79101,0 c 0.54662,0 0.98829,0.44362 0.98829,0.99023 l 0,11.93946 c 0,0.54661 -0.44167,0.99023 -0.98829,0.99023 l -13.79101,0 c -0.54661,0 -0.98828,-0.44362 -0.98828,-0.99023 l 0,-11.93946 c 0,-0.54661 0.44167,-0.99023 0.98828,-0.99023 z m 22.50391,0 13.79101,0 c 0.54661,0 0.98828,0.44362 0.98828,0.99023 l 0,11.93946 c 0,0.54661 -0.44167,0.99023 -0.98828,0.99023 l -13.79101,0 c -0.54662,0 -0.98829,-0.44362 -0.98829,-0.99023 l 0,-11.93946 c 0,-0.54661 0.44167,-0.99023 0.98829,-0.99023 z m -67.51172,19.54883 13.79101,0 c 0.54661,0 0.98828,0.44167 0.98828,0.98828 l 0,11.94141 c 0,0.54661 -0.44167,0.99024 -0.98828,0.99024 l -13.79101,0 c -0.54662,-10e-6 -0.98828,-0.44363 -0.98828,-0.99024 l 0,-11.94141 c -1e-5,-0.54661 0.44166,-0.98828 0.98828,-0.98828 z m 22.5039,0 13.79102,0 c 0.54661,0 0.98828,0.44167 0.98828,0.98828 l 0,11.94141 c 0,0.54661 -0.44167,0.99024 -0.98828,0.99024 l -13.79102,0 c -0.54661,-10e-6 -0.98828,-0.44363 -0.98828,-0.99024 l 0,-11.94141 c 0,-0.54661 0.44167,-0.98828 0.98828,-0.98828 z m 22.50391,0 13.79101,0 c 0.54662,0 0.98829,0.44167 0.98829,0.98828 l 0,11.94141 c 0,0.54661 -0.44167,0.99024 -0.98829,0.99024 l -13.79101,0 c -0.54661,-10e-6 -0.98828,-0.44363 -0.98828,-0.99024 l 0,-11.94141 c 0,-0.54661 0.44167,-0.98828 0.98828,-0.98828 z m 22.50391,0 13.79101,0 c 0.54661,0 0.98828,0.44167 0.98828,0.98828 l 0,11.94141 c 0,0.54661 -0.44167,0.99024 -0.98828,0.99024 l -13.79101,0 c -0.54662,-10e-6 -0.98829,-0.44363 -0.98829,-0.99024 l 0,-11.94141 c 0,-0.54661 0.44167,-0.98828 0.98829,-0.98828 z m -67.50977,19.54688 13.78906,0 c 0.54661,0 0.98804,0.44362 0.98828,0.99023 l 0,11.94141 c 0,0.54661 -0.44167,0.99023 -0.98828,0.99023 l -13.78906,0 c -0.54661,0 -0.99023,-0.44362 -0.99023,-0.99023 l 0,-11.94141 c -1e-5,-0.54661 0.44362,-0.99023 0.99023,-0.99023 z m 22.50391,0 13.78906,0 c 0.54661,0 0.98828,0.44362 0.98828,0.99023 l 0,11.94141 c 0,0.54661 -0.44167,0.99023 -0.98828,0.99023 l -13.78906,0 c -0.54662,0 -0.99024,-0.44362 -0.99024,-0.99023 l 0,-11.94141 c 0,-0.54661 0.44362,-0.99023 0.99024,-0.99023 z m 22.5039,0 13.78906,0 c 0.54662,0 0.99024,0.44362 0.99024,0.99023 l 0,11.94141 c 0,0.54661 -0.44362,0.99023 -0.99024,0.99023 l -13.78906,0 c -0.54661,0 -0.99023,-0.44362 -0.99023,-0.99023 l 0,-11.94141 c 0,-0.54661 0.44362,-0.99023 0.99023,-0.99023 z m 22.50196,0 13.79101,0 c 0.54661,0 0.98828,0.44362 0.98828,0.99023 l 0,11.94141 c 0,0.54661 -0.44167,0.99023 -0.98828,0.99023 l -13.79101,0 c -0.54662,0 -0.98829,-0.44362 -0.98829,-0.99023 l 0,-11.94141 c 0,-0.54661 0.44167,-0.99023 0.98829,-0.99023 z m 50.41601,35.13867 0.95313,0 10.69921,0 1.04102,0 c 0.46083,0 0.83203,0.37398 0.83203,0.83398 l 0,1.6836 c 0,0.46083 -0.3712,0.83398 -0.83203,0.83398 l -1.04102,0 0,10.00391 10.51954,19.70508 c 2.5475,3.83166 0.88291,6.93945 -3.71875,6.93945 l -23.33204,0 c -4.6025,0 -6.32656,-3.14539 -3.85156,-7.02539 l 9.6836,-19.61719 0,-10.00586 -0.95313,0 c -0.46083,0 -0.83398,-0.37315 -0.83398,-0.83398 l 0,-1.6836 c 0,-0.46 0.37315,-0.83398 0.83398,-0.83398 z m 4.28516,3.35156 0,10.00586 0,0.77735 -0.34375,0.69726 -4.21289,8.53711 13.49023,0 -4.50781,-8.44336 -0.39258,-0.73437 0,-0.83399 0,-10.00586 -4.0332,0 z"
       id="rect6266" />
  </g>
</svg>
