<?xml version="1.0" encoding="UTF-8" standalone="no"?>
<!-- Created with Inkscape (http://www.inkscape.org/) -->

<svg
   xmlns:dc="http://purl.org/dc/elements/1.1/"
   xmlns:cc="http://creativecommons.org/ns#"
   xmlns:rdf="http://www.w3.org/1999/02/22-rdf-syntax-ns#"
   xmlns:svg="http://www.w3.org/2000/svg"
   xmlns="http://www.w3.org/2000/svg"
   xmlns:sodipodi="http://sodipodi.sourceforge.net/DTD/sodipodi-0.dtd"
   xmlns:inkscape="http://www.inkscape.org/namespaces/inkscape"
   width="220"
   height="220"
   viewBox="0 0 220 220"
   id="svg2"
   version="1.1"
   inkscape:version="0.91 r13725"
   sodipodi:docname="ufu_gru.svg">
  <defs
     id="defs4">
    <clipPath
       clipPathUnits="userSpaceOnUse"
       id="clipPath3349">
      <rect
         style="color:#000000;clip-rule:nonzero;display:inline;overflow:visible;visibility:visible;opacity:0.39899998;isolation:auto;mix-blend-mode:normal;color-interpolation:sRGB;color-interpolation-filters:linearRGB;solid-color:#000000;solid-opacity:1;fill:#ff0000;fill-opacity:1;fill-rule:nonzero;stroke:none;stroke-width:5;stroke-linecap:square;stroke-linejoin:miter;stroke-miterlimit:4;stroke-dasharray:none;stroke-dashoffset:0;stroke-opacity:1;color-rendering:auto;image-rendering:auto;shape-rendering:auto;text-rendering:auto;enable-background:accumulate"
         id="rect3351"
         width="750"
         height="425"
         x="0"
         y="627.36218" />
    </clipPath>
    <clipPath
       clipPathUnits="userSpaceOnUse"
       id="clipPath4233">
      <rect
         style="color:#000000;clip-rule:nonzero;display:inline;overflow:visible;visibility:visible;opacity:0.6;isolation:auto;mix-blend-mode:normal;color-interpolation:sRGB;color-interpolation-filters:linearRGB;solid-color:#000000;solid-opacity:1;fill:#800000;fill-opacity:1;fill-rule:nonzero;stroke:none;stroke-width:5;stroke-linecap:square;stroke-linejoin:miter;stroke-miterlimit:4;stroke-dasharray:none;stroke-dashoffset:0;stroke-opacity:1;color-rendering:auto;image-rendering:auto;shape-rendering:auto;text-rendering:auto;enable-background:accumulate"
         id="rect4235"
         width="749.70001"
         height="425"
         x="682.74182"
         y="1260.0605" />
    </clipPath>
    <clipPath
       id="clipPath3426"
       clipPathUnits="userSpaceOnUse">
      <rect
         y="832.36218"
         x="-1151.7051"
         height="220"
         width="220"
         id="rect3428"
         style="color:#000000;clip-rule:nonzero;display:inline;overflow:visible;visibility:visible;opacity:0.6;isolation:auto;mix-blend-mode:normal;color-interpolation:sRGB;color-interpolation-filters:linearRGB;solid-color:#000000;solid-opacity:1;fill:#0e4097;fill-opacity:1;fill-rule:nonzero;stroke:none;stroke-width:5;stroke-linecap:square;stroke-linejoin:miter;stroke-miterlimit:4;stroke-dasharray:none;stroke-dashoffset:0;stroke-opacity:1;color-rendering:auto;image-rendering:auto;shape-rendering:auto;text-rendering:auto;enable-background:accumulate" />
    </clipPath>
  </defs>
  <sodipodi:namedview
     id="base"
     pagecolor="#ffffff"
     bordercolor="#666666"
     borderopacity="1.0"
     inkscape:pageopacity="0.0"
     inkscape:pageshadow="2"
     inkscape:zoom="0.70710678"
     inkscape:cx="-295.41936"
     inkscape:cy="-28.735664"
     inkscape:document-units="px"
     inkscape:current-layer="g3568"
     showgrid="false"
     units="px"
     inkscape:window-width="1600"
     inkscape:window-height="847"
     inkscape:window-x="1432"
     inkscape:window-y="-8"
     inkscape:window-maximized="1" />
  <metadata
     id="metadata7">
    <rdf:RDF>
      <cc:Work
         rdf:about="">
        <dc:format>image/svg+xml</dc:format>
        <dc:type
           rdf:resource="http://purl.org/dc/dcmitype/StillImage" />
        <dc:title></dc:title>
      </cc:Work>
    </rdf:RDF>
  </metadata>
  <g
     inkscape:label="Camada 1"
     inkscape:groupmode="layer"
     id="layer1"
     transform="translate(0,-832.36216)">
    <g
       id="g4157"
       transform="translate(-30.443675,816.45148)" />
    <g
       id="g4159"
       transform="translate(-30.443675,816.45148)" />
    <g
       id="g4161"
       transform="translate(-30.443675,816.45148)" />
    <g
       id="g4163"
       transform="translate(-30.443675,816.45148)" />
    <g
       id="g4165"
       transform="translate(-30.443675,816.45148)" />
    <g
       id="g4167"
       transform="translate(-30.443675,816.45148)" />
    <g
       id="g4169"
       transform="translate(-30.443675,816.45148)" />
    <g
       id="g4171"
       transform="translate(-30.443675,816.45148)" />
    <g
       id="g4173"
       transform="translate(-30.443675,816.45148)" />
    <g
       id="g4175"
       transform="translate(-30.443675,816.45148)" />
    <g
       id="g4177"
       transform="translate(-30.443675,816.45148)" />
    <g
       id="g4179"
       transform="translate(-30.443675,816.45148)" />
    <g
       id="g4181"
       transform="translate(-30.443675,816.45148)" />
    <g
       id="g4183"
       transform="translate(-30.443675,816.45148)" />
    <g
       id="g4185"
       transform="translate(-30.443675,816.45148)" />
    <g
       id="g4505"
       transform="matrix(2.1648564,0,0,2.1648564,550.54342,-937.62931)">
      <g
         id="g4568">
        <g
           transform="translate(-257.94306,799.68535)"
           id="g4297">
          <g
             id="g4299" />
        </g>
        <g
           style="fill:#ffffff"
           id="g4674"
           transform="matrix(0.11252005,0,0,0.11252005,-492.41701,993.65995)" />
        <g
           style="fill:#ffffff"
           id="g4676"
           transform="matrix(0.11252005,0,0,0.11252005,-492.41701,993.65995)" />
        <g
           style="fill:#ffffff"
           id="g4678"
           transform="matrix(0.11252005,0,0,0.11252005,-492.41701,993.65995)" />
        <g
           style="fill:#ffffff"
           id="g4680"
           transform="matrix(0.11252005,0,0,0.11252005,-492.41701,993.65995)" />
        <g
           style="fill:#ffffff"
           id="g4682"
           transform="matrix(0.11252005,0,0,0.11252005,-492.41701,993.65995)" />
        <g
           style="fill:#ffffff"
           id="g4684"
           transform="matrix(0.11252005,0,0,0.11252005,-492.41701,993.65995)" />
        <g
           style="fill:#ffffff"
           id="g4686"
           transform="matrix(0.11252005,0,0,0.11252005,-492.41701,993.65995)" />
        <g
           style="fill:#ffffff"
           id="g4688"
           transform="matrix(0.11252005,0,0,0.11252005,-492.41701,993.65995)" />
        <g
           style="fill:#ffffff"
           id="g4690"
           transform="matrix(0.11252005,0,0,0.11252005,-492.41701,993.65995)" />
        <g
           style="fill:#ffffff"
           id="g4692"
           transform="matrix(0.11252005,0,0,0.11252005,-492.41701,993.65995)" />
        <g
           style="fill:#ffffff"
           id="g4694"
           transform="matrix(0.11252005,0,0,0.11252005,-492.41701,993.65995)" />
        <g
           style="fill:#ffffff"
           id="g4696"
           transform="matrix(0.11252005,0,0,0.11252005,-492.41701,993.65995)" />
        <g
           style="fill:#ffffff"
           id="g4698"
           transform="matrix(0.11252005,0,0,0.11252005,-492.41701,993.65995)" />
        <g
           style="fill:#ffffff"
           id="g4700"
           transform="matrix(0.11252005,0,0,0.11252005,-492.41701,993.65995)" />
        <g
           style="fill:#ffffff"
           id="g4702"
           transform="matrix(0.11252005,0,0,0.11252005,-492.41701,993.65995)" />
        <g
           style="font-style:normal;font-variant:normal;font-weight:normal;font-stretch:normal;font-size:15px;line-height:125%;font-family:'Open Sans';-inkscape-font-specification:'Open Sans, Normal';text-align:start;letter-spacing:0px;word-spacing:0px;writing-mode:lr-tb;text-anchor:start;fill:#000000;fill-opacity:1;stroke:none;stroke-width:1px;stroke-linecap:butt;stroke-linejoin:miter;stroke-opacity:1"
           id="text3356"
           transform="matrix(0.56260074,0,0,0.56260074,-492.41701,459.80764)" />
        <g
           transform="matrix(0.4619244,0,0,0.4619244,-409.39825,448.33394)"
           id="layer1-0"
           inkscape:label="Camada 1">
          <g
             inkscape:label="Camada 1"
             id="layer1-5" />
          <text
             sodipodi:linespacing="125%"
             id="text3356-4"
             y="858.47327"
             x="1066.7316"
             style="font-style:normal;font-variant:normal;font-weight:normal;font-stretch:normal;font-size:15px;line-height:125%;font-family:'Open Sans';-inkscape-font-specification:'Open Sans, Normal';text-align:start;letter-spacing:0px;word-spacing:0px;writing-mode:lr-tb;text-anchor:start;fill:#000000;fill-opacity:1;stroke:none;stroke-width:1px;stroke-linecap:butt;stroke-linejoin:miter;stroke-opacity:1"
             xml:space="preserve"><tspan
               y="858.47327"
               x="1066.7316"
               id="tspan3358"
               sodipodi:role="line" /></text>
          <g
             transform="translate(-9.5070929,391.19816)"
             id="g4538">
            <g
               id="g3568"
               transform="matrix(3.7093018,0,0,3.7093018,-103.01405,786.59238)">
              <path
                 style="color:#000000;clip-rule:nonzero;display:inline;overflow:visible;visibility:visible;opacity:1;isolation:auto;mix-blend-mode:normal;color-interpolation:sRGB;color-interpolation-filters:linearRGB;solid-color:#000000;solid-opacity:1;fill:#ffffff;fill-opacity:1;fill-rule:nonzero;stroke:none;stroke-width:2;stroke-linecap:square;stroke-linejoin:miter;stroke-miterlimit:4;stroke-dasharray:none;stroke-dashoffset:0;stroke-opacity:1;color-rendering:auto;image-rendering:auto;shape-rendering:auto;text-rendering:auto;enable-background:accumulate"
                 d="M 0 0 L 0 220 L 220 220 L 220 0 L 0 0 z M 20 33.5 L 41 33.5 C 42.655981 33.5 44 34.841 44 36.5 C 44 38.159 42.655981 39.5 41 39.5 L 26 39.5 L 26 54.5 C 26 56.159 24.656018 57.5 23 57.5 C 21.344019 57.5 20 56.159 20 54.5 L 20 33.5 z M 176 33.5 L 200 33.5 L 200 54.5 C 200 56.159 198.65602 57.5 197 57.5 C 195.34402 57.5 194 56.159 194 54.5 L 194 39.5 L 176 39.5 C 174.34398 39.5 173 38.159 173 36.5 C 173 34.841 174.34398 33.5 176 33.5 z M 35 51.5 C 36.656018 51.5 38 52.841 38 54.5 L 38 96.5 C 38 98.159 36.656018 99.5 35 99.5 C 33.344019 99.5 32 98.159 32 96.5 L 32 54.5 C 32 52.841 33.344019 51.5 35 51.5 z M 47 51.5 C 48.656018 51.5 50 52.841 50 54.5 L 50 96.5 C 50 98.159 48.656018 99.5 47 99.5 C 45.344019 99.5 44 98.159 44 96.5 L 44 54.5 C 44 52.841 45.344019 51.5 47 51.5 z M 56 51.5 C 57.655981 51.5 59 52.841 59 54.5 L 59 96.5 C 59 98.159 57.655981 99.5 56 99.5 C 54.343982 99.5 53 98.159 53 96.5 L 53 54.5 C 53 52.841 54.343982 51.5 56 51.5 z M 71 51.5 C 72.656018 51.5 74 52.841 74 54.5 L 74 96.5 C 74 98.159 72.656018 99.5 71 99.5 C 69.344019 99.5 68 98.159 68 96.5 L 68 54.5 C 68 52.841 69.344019 51.5 71 51.5 z M 80 51.5 C 81.655981 51.5 83 52.841 83 54.5 L 83 96.5 C 83 98.159 81.655981 99.5 80 99.5 C 78.343982 99.5 77 98.159 77 96.5 L 77 54.5 C 77 52.841 78.343982 51.5 80 51.5 z M 89 51.5 C 90.656018 51.5 92 52.841 92 54.5 L 92 96.5 C 92 98.159 90.656018 99.5 89 99.5 C 87.343982 99.5 86 98.159 86 96.5 L 86 54.5 C 86 52.841 87.343982 51.5 89 51.5 z M 107 51.5 C 108.65598 51.5 110 52.841 110 54.5 L 110 96.5 C 110 98.159 108.65598 99.5 107 99.5 C 105.34398 99.5 104 98.159 104 96.5 L 104 54.5 C 104 52.841 105.34398 51.5 107 51.5 z M 122 51.5 C 123.65602 51.5 125 52.841 125 54.5 L 125 96.5 C 125 98.159 123.65602 99.5 122 99.5 C 120.34402 99.5 119 98.159 119 96.5 L 119 54.5 C 119 52.841 120.34402 51.5 122 51.5 z M 131 51.5 C 132.65598 51.5 134 52.841 134 54.5 L 134 96.5 C 134 98.159 132.65598 99.5 131 99.5 C 129.34398 99.5 128 98.159 128 96.5 L 128 54.5 C 128 52.841 129.34398 51.5 131 51.5 z M 146 51.5 C 147.65602 51.5 149 52.841 149 54.5 L 149 96.5 C 149 98.159 147.65602 99.5 146 99.5 C 144.34402 99.5 143 98.159 143 96.5 L 143 54.5 C 143 52.841 144.34402 51.5 146 51.5 z M 155 51.5 C 156.65598 51.5 158 52.841 158 54.5 L 158 96.5 C 158 98.159 156.65598 99.5 155 99.5 C 153.34398 99.5 152 98.159 152 96.5 L 152 54.5 C 152 52.841 153.34398 51.5 155 51.5 z M 173 51.5 C 174.65602 51.5 176 52.841 176 54.5 L 176 96.5 C 176 98.159 174.65602 99.5 173 99.5 C 171.34402 99.5 170 98.159 170 96.5 L 170 54.5 C 170 52.841 171.34402 51.5 173 51.5 z M 185 51.5 C 186.65602 51.5 188 52.841 188 54.5 L 188 96.5 C 188 98.159 186.65602 99.5 185 99.5 C 183.34402 99.5 182 98.159 182 96.5 L 182 54.5 C 182 52.841 183.34402 51.5 185 51.5 z M 23 102.5 L 197 102.5 C 198.65602 102.5 200 103.84101 200 105.5 C 200 107.159 198.65602 108.5 197 108.5 L 23 108.5 C 21.343982 108.5 20 107.159 20 105.5 C 20 103.84101 21.343982 102.5 23 102.5 z M 35 111.5 C 36.656018 111.5 38 112.841 38 114.5 L 38 165.5 C 38 167.159 36.656018 168.5 35 168.5 C 33.344019 168.5 32 167.159 32 165.5 L 32 114.5 C 32 112.841 33.344019 111.5 35 111.5 z M 47 111.5 C 48.656018 111.5 50 112.841 50 114.5 L 50 141.5 C 50 143.159 48.656018 144.5 47 144.5 C 45.344019 144.5 44 143.159 44 141.5 L 44 114.5 C 44 112.841 45.344019 111.5 47 111.5 z M 56 111.5 C 57.655981 111.5 59 112.841 59 114.5 L 59 141.5 C 59 143.159 57.655981 144.5 56 144.5 C 54.343982 144.5 53 143.159 53 141.5 L 53 114.5 C 53 112.841 54.343982 111.5 56 111.5 z M 71 111.5 C 72.656018 111.5 74 112.841 74 114.5 L 74 141.5 C 74 143.159 72.656018 144.5 71 144.5 C 69.344019 144.5 68 143.159 68 141.5 L 68 114.5 C 68 112.841 69.344019 111.5 71 111.5 z M 80 111.5 C 81.655981 111.5 83 112.841 83 114.5 L 83 141.5 C 83 143.159 81.655981 144.5 80 144.5 C 78.343982 144.5 77 143.159 77 141.5 L 77 114.5 C 77 112.841 78.343982 111.5 80 111.5 z M 89 111.5 C 90.656018 111.5 92 112.841 92 114.5 L 92 141.5 C 92 143.159 90.656018 144.5 89 144.5 C 87.343982 144.5 86 143.159 86 141.5 L 86 114.5 C 86 112.841 87.343982 111.5 89 111.5 z M 107 111.5 C 108.65598 111.5 110 112.841 110 114.5 L 110 141.5 C 110 143.159 108.65598 144.5 107 144.5 C 105.34398 144.5 104 143.159 104 141.5 L 104 114.5 C 104 112.841 105.34398 111.5 107 111.5 z M 122 111.5 C 123.65602 111.5 125 112.841 125 114.5 L 125 141.5 C 125 143.159 123.65602 144.5 122 144.5 C 120.34402 144.5 119 143.159 119 141.5 L 119 114.5 C 119 112.841 120.34402 111.5 122 111.5 z M 131 111.5 C 132.65598 111.5 134 112.841 134 114.5 L 134 141.5 C 134 143.159 132.65598 144.5 131 144.5 C 129.34398 144.5 128 143.159 128 141.5 L 128 114.5 C 128 112.841 129.34398 111.5 131 111.5 z M 146 111.5 C 147.65602 111.5 149 112.841 149 114.5 L 149 141.5 C 149 143.159 147.65602 144.5 146 144.5 C 144.34402 144.5 143 143.159 143 141.5 L 143 114.5 C 143 112.841 144.34402 111.5 146 111.5 z M 155 111.5 C 156.65598 111.5 158 112.841 158 114.5 L 158 141.5 C 158 143.159 156.65598 144.5 155 144.5 C 153.34398 144.5 152 143.159 152 141.5 L 152 114.5 C 152 112.841 153.34398 111.5 155 111.5 z M 173 111.5 C 174.65602 111.5 176 112.841 176 114.5 L 176 141.5 C 176 143.159 174.65602 144.5 173 144.5 C 171.34402 144.5 170 143.159 170 141.5 L 170 114.5 C 170 112.841 171.34402 111.5 173 111.5 z M 185 111.5 C 186.65602 111.5 188 112.841 188 114.5 L 188 165.5 C 188 167.159 186.65602 168.5 185 168.5 C 183.34402 168.5 182 167.159 182 165.5 L 182 114.5 C 182 112.841 183.34402 111.5 185 111.5 z M 47 153.5 C 48.656018 153.5 50 154.841 50 156.5 L 50 159.5 C 50 161.159 48.656018 162.5 47 162.5 C 45.344019 162.5 44 161.159 44 159.5 L 44 156.5 C 44 154.841 45.344019 153.5 47 153.5 z M 56 153.5 C 57.655981 153.5 59 154.841 59 156.5 L 59 159.5 C 59 161.159 57.655981 162.5 56 162.5 C 54.343982 162.5 53 161.159 53 159.5 L 53 156.5 C 53 154.841 54.343982 153.5 56 153.5 z M 65 153.5 C 66.655981 153.5 68 154.841 68 156.5 L 68 159.5 C 68 161.159 66.655981 162.5 65 162.5 C 63.343982 162.5 62 161.159 62 159.5 L 62 156.5 C 62 154.841 63.343982 153.5 65 153.5 z M 74 153.5 C 75.656018 153.5 77 154.841 77 156.5 L 77 159.5 C 77 161.159 75.656018 162.5 74 162.5 C 72.344019 162.5 71 161.159 71 159.5 L 71 156.5 C 71 154.841 72.344019 153.5 74 153.5 z M 83 153.5 C 84.656018 153.5 86 154.841 86 156.5 L 86 159.5 C 86 161.159 84.656018 162.5 83 162.5 C 81.344019 162.5 80 161.159 80 159.5 L 80 156.5 C 80 154.841 81.344019 153.5 83 153.5 z M 92 153.5 C 93.655981 153.5 95 154.841 95 156.5 L 95 159.5 C 95 161.159 93.655981 162.5 92 162.5 C 90.343982 162.5 89 161.159 89 159.5 L 89 156.5 C 89 154.841 90.343982 153.5 92 153.5 z M 101 153.5 C 102.65602 153.5 104 154.841 104 156.5 L 104 159.5 C 104 161.159 102.65602 162.5 101 162.5 C 99.344019 162.5 98 161.159 98 159.5 L 98 156.5 C 98 154.841 99.344019 153.5 101 153.5 z M 110 153.5 C 111.65602 153.5 113 154.841 113 156.5 L 113 159.5 C 113 161.159 111.65602 162.5 110 162.5 C 108.34402 162.5 107 161.159 107 159.5 L 107 156.5 C 107 154.841 108.34402 153.5 110 153.5 z M 119 153.5 C 120.65598 153.5 122 154.841 122 156.5 L 122 159.5 C 122 161.159 120.65598 162.5 119 162.5 C 117.34398 162.5 116 161.159 116 159.5 L 116 156.5 C 116 154.841 117.34398 153.5 119 153.5 z M 128 153.5 C 129.65598 153.5 131 154.841 131 156.5 L 131 159.5 C 131 161.159 129.65598 162.5 128 162.5 C 126.34398 162.5 125 161.159 125 159.5 L 125 156.5 C 125 154.841 126.34398 153.5 128 153.5 z M 137 153.5 C 138.65602 153.5 140 154.841 140 156.5 L 140 159.5 C 140 161.159 138.65602 162.5 137 162.5 C 135.34402 162.5 134 161.159 134 159.5 L 134 156.5 C 134 154.841 135.34402 153.5 137 153.5 z M 146 153.5 C 147.65602 153.5 149 154.841 149 156.5 L 149 159.5 C 149 161.159 147.65602 162.5 146 162.5 C 144.34402 162.5 143 161.159 143 159.5 L 143 156.5 C 143 154.841 144.34402 153.5 146 153.5 z M 155 153.5 C 156.65598 153.5 158 154.841 158 156.5 L 158 159.5 C 158 161.159 156.65598 162.5 155 162.5 C 153.34398 162.5 152 161.159 152 159.5 L 152 156.5 C 152 154.841 153.34398 153.5 155 153.5 z M 164 153.5 C 165.65598 153.5 167 154.841 167 156.5 L 167 159.5 C 167 161.159 165.65598 162.5 164 162.5 C 162.34398 162.5 161 161.159 161 159.5 L 161 156.5 C 161 154.841 162.34398 153.5 164 153.5 z M 173 153.5 C 174.65602 153.5 176 154.841 176 156.5 L 176 159.5 C 176 161.159 174.65602 162.5 173 162.5 C 171.34402 162.5 170 161.159 170 159.5 L 170 156.5 C 170 154.841 171.34402 153.5 173 153.5 z M 23 162.5 C 24.656018 162.5 26 163.841 26 165.5 L 26 180.5 L 44 180.5 C 45.655981 180.5 47 181.841 47 183.5 C 47 185.159 45.655981 186.5 44 186.5 L 20 186.5 L 20 165.5 C 20 163.841 21.344019 162.5 23 162.5 z M 197 162.5 C 198.65602 162.5 200 163.841 200 165.5 L 200 186.5 L 179 186.5 C 177.34398 186.5 176 185.159 176 183.5 C 176 181.841 177.34398 180.5 179 180.5 L 194 180.5 L 194 165.5 C 194 163.841 195.34402 162.5 197 162.5 z "
                 transform="matrix(0.26959252,0,0,0.26959252,120.8492,-102.00779)"
                 id="rect5160" />
              <g
                 id="g3518"
                 style="fill:#800000"
                 transform="matrix(0.80877754,0,0,0.80877754,126.76277,-95.7601)" />
              <g
                 id="g3532" />
              <g
                 id="g3534" />
              <g
                 id="g3536" />
              <g
                 id="g3538" />
              <g
                 id="g3540" />
              <g
                 id="g3542" />
              <g
                 id="g3544" />
              <g
                 id="g3546" />
              <g
                 id="g3548" />
              <g
                 id="g3550" />
              <g
                 id="g3552" />
              <g
                 id="g3554" />
              <g
                 id="g3556" />
              <g
                 id="g3558" />
              <g
                 id="g3560" />
            </g>
          </g>
        </g>
      </g>
      <g
         id="g4315"
         transform="translate(-257.94306,799.68535)" />
      <g
         id="g4317"
         transform="translate(-257.94306,799.68535)" />
      <g
         id="g4319"
         transform="translate(-257.94306,799.68535)" />
      <g
         id="g4321"
         transform="translate(-257.94306,799.68535)" />
      <g
         id="g4323"
         transform="translate(-257.94306,799.68535)" />
      <g
         id="g4325"
         transform="translate(-257.94306,799.68535)" />
      <g
         id="g4327"
         transform="translate(-257.94306,799.68535)" />
      <g
         id="g4329"
         transform="translate(-257.94306,799.68535)" />
      <g
         id="g4331"
         transform="translate(-257.94306,799.68535)" />
      <g
         id="g4333"
         transform="translate(-257.94306,799.68535)" />
      <g
         id="g4335"
         transform="translate(-257.94306,799.68535)" />
      <g
         id="g4337"
         transform="translate(-257.94306,799.68535)" />
      <g
         id="g4339"
         transform="translate(-257.94306,799.68535)" />
      <g
         id="g4341"
         transform="translate(-257.94306,799.68535)" />
      <g
         id="g4343"
         transform="translate(-257.94306,799.68535)" />
    </g>
  </g>
</svg>
