<?xml version="1.0" encoding="UTF-8" standalone="no"?>
<!-- Created with Inkscape (http://www.inkscape.org/) -->

<svg
   xmlns:dc="http://purl.org/dc/elements/1.1/"
   xmlns:cc="http://creativecommons.org/ns#"
   xmlns:rdf="http://www.w3.org/1999/02/22-rdf-syntax-ns#"
   xmlns:svg="http://www.w3.org/2000/svg"
   xmlns="http://www.w3.org/2000/svg"
   xmlns:sodipodi="http://sodipodi.sourceforge.net/DTD/sodipodi-0.dtd"
   xmlns:inkscape="http://www.inkscape.org/namespaces/inkscape"
   width="220"
   height="220"
   viewBox="0 0 220 220"
   id="svg2"
   version="1.1"
   inkscape:version="0.91 r13725"
   sodipodi:docname="ufu_viagens_sg_frota.svg">
  <defs
     id="defs4">
    <pattern
       id="EMFhbasepattern"
       patternUnits="userSpaceOnUse"
       width="6"
       height="6"
       x="0"
       y="0" />
  </defs>
  <sodipodi:namedview
     id="base"
     pagecolor="#ffffff"
     bordercolor="#666666"
     borderopacity="1.0"
     inkscape:pageopacity="0.0"
     inkscape:pageshadow="2"
     inkscape:zoom="2.9590909"
     inkscape:cx="110"
     inkscape:cy="123.51767"
     inkscape:document-units="px"
     inkscape:current-layer="layer1-8"
     showgrid="false"
     units="px"
     inkscape:window-width="1440"
     inkscape:window-height="847"
     inkscape:window-x="-8"
     inkscape:window-y="-8"
     inkscape:window-maximized="1" />
  <metadata
     id="metadata7">
    <rdf:RDF>
      <cc:Work
         rdf:about="">
        <dc:format>image/svg+xml</dc:format>
        <dc:type
           rdf:resource="http://purl.org/dc/dcmitype/StillImage" />
        <dc:title></dc:title>
      </cc:Work>
    </rdf:RDF>
  </metadata>
  <g
     inkscape:label="Camada 1"
     inkscape:groupmode="layer"
     id="layer1"
     transform="translate(0,-832.36216)">
    <g
       id="g4185"
       transform="matrix(0.31054775,0,0,0.31054775,20.000001,852.36216)">
      <g
         id="g4139">
        <g
           id="g4141" />
      </g>
      <g
         id="g4149" />
      <g
         id="g4151" />
      <g
         id="g4153" />
      <g
         id="g4155" />
      <g
         id="g4157" />
      <g
         id="g4159" />
      <g
         id="g4161" />
      <g
         id="g4163" />
      <g
         id="g4165" />
      <g
         id="g4167" />
      <g
         id="g4169" />
      <g
         id="g4171" />
      <g
         id="g4173" />
      <g
         id="g4175" />
      <g
         id="g4177" />
    </g>
    <g
       id="g5587"
       transform="matrix(0.36372527,0,0,0.36372527,19.999788,852.36216)">
      <g
         id="XMLID_211_" />
      <g
         id="g5551" />
      <g
         id="g5553" />
      <g
         id="g5555" />
      <g
         id="g5557" />
      <g
         id="g5559" />
      <g
         id="g5561" />
      <g
         id="g5563" />
      <g
         id="g5565" />
      <g
         id="g5567" />
      <g
         id="g5569" />
      <g
         id="g5571" />
      <g
         id="g5573" />
      <g
         id="g5575" />
      <g
         id="g5577" />
      <g
         id="g5579" />
    </g>
    <g
       transform="matrix(0.35333693,-0.13569772,0.13569772,0.35333693,-98.886859,488.84759)"
       id="layer1-4"
       inkscape:label="Camada 1"
       style="fill:#ffffff">
      <text
         sodipodi:linespacing="125%"
         id="text3356"
         y="1073.4818"
         x="933.04791"
         style="font-style:normal;font-variant:normal;font-weight:normal;font-stretch:normal;font-size:15px;line-height:125%;font-family:'Open Sans';-inkscape-font-specification:'Open Sans, Normal';text-align:start;letter-spacing:0px;word-spacing:0px;writing-mode:lr-tb;text-anchor:start;fill:#ffffff;fill-opacity:1;stroke:none;stroke-width:1px;stroke-linecap:butt;stroke-linejoin:miter;stroke-opacity:1"
         xml:space="preserve"><tspan
           y="1073.4818"
           x="933.04791"
           id="tspan3358"
           sodipodi:role="line" /></text>
    </g>
    <g
       id="g5657"
       transform="matrix(6.2430633,0,0,6.2430633,19.999999,852.36216)">
      <g
         id="g5617" />
      <g
         id="g5621" />
      <g
         id="g5623" />
      <g
         id="g5625" />
      <g
         id="g5627" />
      <g
         id="g5629" />
      <g
         id="g5631" />
      <g
         id="g5633" />
      <g
         id="g5635" />
      <g
         id="g5637" />
      <g
         id="g5639" />
      <g
         id="g5641" />
      <g
         id="g5643" />
      <g
         id="g5645" />
      <g
         id="g5647" />
      <g
         id="g5649" />
    </g>
    <g
       transform="matrix(0.24642901,0,0,0.24642901,146.70265,732.4686)"
       id="layer1-0"
       inkscape:label="Camada 1">
      <text
         sodipodi:linespacing="125%"
         id="text3356-0"
         y="1073.4818"
         x="933.04791"
         style="font-style:normal;font-variant:normal;font-weight:normal;font-stretch:normal;font-size:15px;line-height:125%;font-family:'Open Sans';-inkscape-font-specification:'Open Sans, Normal';text-align:start;letter-spacing:0px;word-spacing:0px;writing-mode:lr-tb;text-anchor:start;fill:#000000;fill-opacity:1;stroke:none;stroke-width:1px;stroke-linecap:butt;stroke-linejoin:miter;stroke-opacity:1"
         xml:space="preserve"><tspan
           y="1073.4818"
           x="933.04791"
           id="tspan3358-1"
           sodipodi:role="line" /></text>
    </g>
    <g
       inkscape:label="Camada 1"
       id="g5689"
       transform="matrix(0.24642901,0,0,0.24642901,51.799546,731.76768)">
      <text
         xml:space="preserve"
         style="font-style:normal;font-variant:normal;font-weight:normal;font-stretch:normal;font-size:15px;line-height:125%;font-family:'Open Sans';-inkscape-font-specification:'Open Sans, Normal';text-align:start;letter-spacing:0px;word-spacing:0px;writing-mode:lr-tb;text-anchor:start;fill:#000000;fill-opacity:1;stroke:none;stroke-width:1px;stroke-linecap:butt;stroke-linejoin:miter;stroke-opacity:1"
         x="933.04791"
         y="1073.4818"
         id="text5693"
         sodipodi:linespacing="125%"><tspan
           sodipodi:role="line"
           id="tspan5695"
           x="933.04791"
           y="1073.4818" /></text>
    </g>
    <g
       inkscape:label="Camada 1"
       id="g5709"
       transform="matrix(0.24642901,0,0,0.24642901,101.48726,679.16698)">
      <text
         xml:space="preserve"
         style="font-style:normal;font-variant:normal;font-weight:normal;font-stretch:normal;font-size:15px;line-height:125%;font-family:'Open Sans';-inkscape-font-specification:'Open Sans, Normal';text-align:start;letter-spacing:0px;word-spacing:0px;writing-mode:lr-tb;text-anchor:start;fill:#000000;fill-opacity:1;stroke:none;stroke-width:1px;stroke-linecap:butt;stroke-linejoin:miter;stroke-opacity:1"
         x="933.04791"
         y="1073.4818"
         id="text5713"
         sodipodi:linespacing="125%"><tspan
           sodipodi:role="line"
           id="tspan5715"
           x="933.04791"
           y="1073.4818" /></text>
    </g>
    <g
       id="g5769"
       transform="matrix(3.9830118,0,0,3.9830118,77.962645,850.34016)">
      <g
         id="g5725">
        <g
           id="g5727" />
      </g>
      <g
         id="g5733" />
      <g
         id="g5735" />
      <g
         id="g5737" />
      <g
         id="g5739" />
      <g
         id="g5741" />
      <g
         id="g5743" />
      <g
         id="g5745" />
      <g
         id="g5747" />
      <g
         id="g5749" />
      <g
         id="g5751" />
      <g
         id="g5753" />
      <g
         id="g5755" />
      <g
         id="g5757" />
      <g
         id="g5759" />
      <g
         id="g5761" />
    </g>
    <g
       id="g5839"
       transform="matrix(0.37151396,0,0,0.37151396,20,875.89852)">
      <g
         id="g5791">
        <g
           id="g5793" />
      </g>
      <g
         id="g5803" />
      <g
         id="g5805" />
      <g
         id="g5807" />
      <g
         id="g5809" />
      <g
         id="g5811" />
      <g
         id="g5813" />
      <g
         id="g5815" />
      <g
         id="g5817" />
      <g
         id="g5819" />
      <g
         id="g5821" />
      <g
         id="g5823" />
      <g
         id="g5825" />
      <g
         id="g5827" />
      <g
         id="g5829" />
      <g
         id="g5831" />
    </g>
    <g
       transform="matrix(0.23089146,0,0,0.23089146,93.70431,646.39838)"
       id="layer1-2"
       inkscape:label="Camada 1">
      <text
         sodipodi:linespacing="125%"
         id="text3356-9"
         y="1073.4818"
         x="933.04791"
         style="font-style:normal;font-variant:normal;font-weight:normal;font-stretch:normal;font-size:15px;line-height:125%;font-family:'Open Sans';-inkscape-font-specification:'Open Sans, Normal';text-align:start;letter-spacing:0px;word-spacing:0px;writing-mode:lr-tb;text-anchor:start;fill:#000000;fill-opacity:1;stroke:none;stroke-width:1px;stroke-linecap:butt;stroke-linejoin:miter;stroke-opacity:1"
         xml:space="preserve"><tspan
           y="1073.4818"
           x="933.04791"
           id="tspan3358-7"
           sodipodi:role="line" /></text>
    </g>
    <g
       id="g5929"
       transform="matrix(0.35224368,0,0,0.35224368,30,866.99055)">
      <g
         id="XMLID_5_" />
      <g
         id="g5893" />
      <g
         id="g5895" />
      <g
         id="g5897" />
      <g
         id="g5899" />
      <g
         id="g5901" />
      <g
         id="g5903" />
      <g
         id="g5905" />
      <g
         id="g5907" />
      <g
         id="g5909" />
      <g
         id="g5911" />
      <g
         id="g5913" />
      <g
         id="g5915" />
      <g
         id="g5917" />
      <g
         id="g5919" />
      <g
         id="g5921" />
    </g>
    <g
       id="g6061"
       transform="matrix(3,0,0,3,20.000001,852.36166)">
      <g
         id="g6019" />
      <g
         id="g6025" />
      <g
         id="g6027" />
      <g
         id="g6029" />
      <g
         id="g6031" />
      <g
         id="g6033" />
      <g
         id="g6035" />
      <g
         id="g6037" />
      <g
         id="g6039" />
      <g
         id="g6041" />
      <g
         id="g6043" />
      <g
         id="g6045" />
      <g
         id="g6047" />
      <g
         id="g6049" />
      <g
         id="g6051" />
      <g
         id="g6053" />
    </g>
    <g
       id="g5998"
       transform="translate(56.909413,942.86316)"
       style="fill:#ff0000">
      <g
         id="g5956"
         style="fill:#ff0000">
        <g
           id="g5958"
           style="fill:#ff0000" />
      </g>
      <g
         id="g5962"
         style="fill:#ff0000" />
      <g
         id="g5964"
         style="fill:#ff0000" />
      <g
         id="g5966"
         style="fill:#ff0000" />
      <g
         id="g5968"
         style="fill:#ff0000" />
      <g
         id="g5970"
         style="fill:#ff0000" />
      <g
         id="g5972"
         style="fill:#ff0000" />
      <g
         id="g5974"
         style="fill:#ff0000" />
      <g
         id="g5976"
         style="fill:#ff0000" />
      <g
         id="g5978"
         style="fill:#ff0000" />
      <g
         id="g5980"
         style="fill:#ff0000" />
      <g
         id="g5982"
         style="fill:#ff0000" />
      <g
         id="g5984"
         style="fill:#ff0000" />
      <g
         id="g5986"
         style="fill:#ff0000" />
      <g
         id="g5988"
         style="fill:#ff0000" />
      <g
         id="g5990"
         style="fill:#ff0000" />
    </g>
    <g
       transform="matrix(0.72032417,0,0,0.72032417,52.11,168.17353)"
       id="layer1-9"
       inkscape:label="Camada 1">
      <text
         sodipodi:linespacing="125%"
         id="text3356-2"
         y="1073.4818"
         x="933.04791"
         style="font-style:normal;font-variant:normal;font-weight:normal;font-stretch:normal;font-size:15px;line-height:125%;font-family:'Open Sans';-inkscape-font-specification:'Open Sans, Normal';text-align:start;letter-spacing:0px;word-spacing:0px;writing-mode:lr-tb;text-anchor:start;fill:#000000;fill-opacity:1;stroke:none;stroke-width:1px;stroke-linecap:butt;stroke-linejoin:miter;stroke-opacity:1"
         xml:space="preserve"><tspan
           y="1073.4818"
           x="933.04791"
           id="tspan3358-4"
           sodipodi:role="line" /></text>
    </g>
    <g
       transform="translate(-11.658979,862.27)"
       id="g6121">
      <g
         transform="translate(-372.37358,-381.61097)"
         id="layer1-8"
         inkscape:label="Camada 1">
        <g
           transform="matrix(3.5437419,0,0,3.5437419,-1011.695,-1512.2909)"
           id="g3565" />
        <g
           id="g4"
           style="fill:#01420a;fill-opacity:1;stroke:none"
           transform="matrix(0.04079813,0,0,0.04079813,387.17713,362.52288)" />
        <path
           style="color:#000000;clip-rule:nonzero;display:inline;overflow:visible;visibility:visible;opacity:1;isolation:auto;mix-blend-mode:normal;color-interpolation:sRGB;color-interpolation-filters:linearRGB;solid-color:#000000;solid-opacity:1;fill:#ffffff;fill-opacity:1;fill-rule:nonzero;stroke:none;stroke-width:5;stroke-linecap:square;stroke-linejoin:miter;stroke-miterlimit:4;stroke-dasharray:none;stroke-dashoffset:0;stroke-opacity:1;color-rendering:auto;image-rendering:auto;shape-rendering:auto;text-rendering:auto;enable-background:accumulate"
           d="M 0 0 L 0 220 L 220 220 L 220 0 L 0 0 z M 161.66211 73.568359 C 176.54729 73.569405 189.10652 74.219498 191.00781 75.087891 C 192.6784 75.66403 193.90016 78.561079 193.90234 81.951172 L 193.90234 88.921875 L 195.64258 88.921875 L 199.13086 88.921875 C 199.61203 88.921875 200 89.311806 200 89.792969 L 200 91.535156 L 200 101.99219 C 199.99998 102.47335 199.61203 102.86328 199.13086 102.86328 L 195.64258 102.86328 C 195.16142 102.86328 194.77344 102.47335 194.77344 101.99219 L 194.77344 92.40625 L 193.90234 92.40625 L 193.90234 134.23242 C 193.90147 135.47585 193.56763 136.62252 193.0293 137.24414 L 193.0293 144.6875 C 193.02912 145.65 192.24961 146.43147 191.28711 146.43164 L 186.06055 146.43164 C 185.09804 146.43147 184.31658 145.65 184.31641 144.6875 L 184.31641 139.46094 L 139.00586 139.46094 L 139.00586 144.6875 C 139.00568 145.65 138.2262 146.43147 137.26367 146.43164 L 132.03516 146.43164 C 131.07266 146.43147 130.29119 145.65 130.29102 144.6875 L 130.29102 137.24805 C 129.75234 136.62607 129.42062 135.47637 129.41992 134.23242 L 129.41992 92.40625 L 128.55078 92.40625 L 128.55078 101.99219 C 128.55078 102.47335 128.15889 102.86328 127.67773 102.86328 L 124.19336 102.86328 C 123.71219 102.86328 123.32227 102.47335 123.32227 101.99219 L 123.32227 91.535156 L 123.32227 89.792969 C 123.32227 89.311806 123.71219 88.921875 124.19336 88.921875 L 127.67773 88.921875 L 129.41992 88.921875 L 129.41992 81.951172 C 129.42201 78.665118 130.57095 75.828334 132.17773 75.142578 C 132.1948 75.134395 132.2136 75.125174 132.23242 75.117188 C 132.27045 75.100974 132.30947 75.087818 132.34766 75.074219 C 134.36624 74.212623 146.87624 73.569405 161.66211 73.568359 z M 134.64844 76.722656 C 133.68594 76.722656 132.90625 78.673919 132.90625 81.080078 L 132.90625 84.564453 C 132.90625 85.045616 133.29619 85.4375 133.77734 85.4375 L 189.54492 85.4375 C 190.02609 85.4375 190.41602 85.045616 190.41602 84.564453 L 190.41602 81.080078 C 190.41602 78.673919 189.63632 76.722656 188.67383 76.722656 L 134.64844 76.722656 z M 132.90625 87.177734 C 131.94375 87.177734 131.16406 87.959376 131.16406 88.921875 L 131.16406 115.0625 C 131.16424 116.025 131.94375 116.80451 132.90625 116.80469 L 139.41406 116.80469 L 142.22656 115.06055 L 139.88086 115.21289 C 139.87058 115.21366 139.86141 115.21432 139.85156 115.21484 C 139.37075 115.2375 138.9621 114.86754 138.93945 114.38672 C 138.91677 113.90591 139.28676 113.49531 139.76758 113.47266 L 167.39648 111.68555 C 167.41672 111.6837 167.43679 111.68377 167.45703 111.68359 C 167.92338 111.68011 168.30785 112.04411 168.33203 112.50977 C 168.35695 112.99041 167.98845 113.39891 167.50781 113.42383 L 145.91797 114.82227 L 140.96289 117.89453 C 141.1715 117.97975 141.39381 118.02504 141.61914 118.02539 L 181.70312 118.02539 C 181.8042 118.02504 181.90435 118.01387 182.00391 117.99609 L 178.02344 116.01758 L 157.87305 115.88281 C 157.86583 115.88281 157.85922 115.88299 157.85156 115.88281 C 157.37041 115.87358 156.98929 115.4753 156.99805 114.99414 C 157.00729 114.51298 157.40556 114.13144 157.88672 114.14062 L 184.45898 114.32031 C 184.46631 114.32031 184.47281 114.32014 184.48047 114.32031 C 184.96162 114.32955 185.34469 114.72587 185.33594 115.20703 C 185.3267 115.6882 184.92842 116.06974 184.44727 116.06055 L 181.99023 116.04297 L 183.51953 116.80469 L 190.41602 116.80469 C 191.37851 116.80451 192.15803 116.025 192.1582 115.0625 L 192.1582 88.921875 C 192.15803 87.959376 191.37851 87.177908 190.41602 87.177734 L 132.90625 87.177734 z M 78.849609 110 C 87.05491 110.04578 93.701126 111.82099 95.783203 112.29883 C 99.113492 113.06338 108.73152 117.13469 111.2207 117.90234 C 112.95672 118.43722 116.82016 119.08242 119 119.42383 C 119.90835 119.56556 120.57812 120.34394 120.57812 121.26367 L 120.57812 126.98047 C 120.57813 126.98047 122.38971 128.29573 122.38867 131.24219 C 122.38867 135.65981 119.37305 137.26562 119.37305 137.26562 L 111.49805 138.74805 L 111.30078 138.76367 C 111.30182 138.74505 111.30469 138.72864 111.30469 138.70898 C 111.30469 133.59199 107.14239 129.43164 102.02539 129.43164 C 96.908396 129.43164 92.748047 133.59302 92.748047 138.70898 C 92.748047 139.07419 92.773293 139.45715 92.828125 139.87305 C 92.843644 139.99409 92.869934 140.11149 92.890625 140.23047 L 46.835938 141.1582 L 46.8125 141.1582 C 46.962513 140.62126 47.064656 140.06247 47.113281 139.48828 C 47.132938 139.23171 47.150391 138.97177 47.150391 138.70898 C 47.150391 133.59199 42.990042 129.42969 37.873047 129.42969 C 32.756052 129.42969 28.595703 133.59302 28.595703 138.70898 C 28.595703 139.07315 28.620949 139.45508 28.675781 139.87305 C 28.700611 140.06858 28.739181 140.25966 28.775391 140.45312 C 25.611668 140.09102 22.876581 139.54996 21.455078 138.74609 C 20.060475 136.47728 19.876393 133.21981 20.060547 132.53906 C 20.244701 131.85831 20.557244 130.55569 21.556641 127.87305 C 22.556038 125.19144 41.326285 121.27966 43.222656 121.23828 C 49.661835 118.51632 60.612526 113.28068 63.046875 112.4375 C 68.441523 110.56751 73.926429 109.97253 78.849609 110 z M 77.101562 112.51562 C 77.101562 112.51562 63.319911 112.72524 56.482422 118.93164 C 56.482422 118.93164 58.007985 119.51077 57.691406 122.08789 L 74.892578 121.56055 L 77.101562 112.51562 z M 79.941406 112.51758 L 78.521484 121.30078 L 94.195312 120.77344 L 94.984375 117.93359 L 92.669922 114.19922 C 92.669922 114.19922 88.042108 112.41205 79.941406 112.51758 z M 94.298828 114.72461 L 98.664062 120.7207 L 103.03125 120.7207 C 103.22161 119.67061 102.70353 118.61746 101.75586 118.125 C 100.19469 117.31286 97.574284 116.02817 94.298828 114.72461 z M 132.2832 124.80859 C 131.67711 124.80859 131.18945 125.29625 131.18945 125.90234 L 131.18945 129.18555 C 131.18945 129.79164 131.67711 130.2793 132.2832 130.2793 L 143.22266 130.2793 C 143.82875 130.2793 144.31836 129.79164 144.31836 129.18555 L 144.31836 125.90234 C 144.31836 125.29625 143.82875 124.80859 143.22266 124.80859 L 132.2832 124.80859 z M 180.07031 124.80859 C 179.46422 124.80859 178.97656 125.29625 178.97656 125.90234 L 178.97656 129.18555 C 178.97656 129.79164 179.46422 130.2793 180.07031 130.2793 L 191.00977 130.2793 C 191.61586 130.2793 192.10547 129.79164 192.10547 129.18555 L 192.10547 125.90234 C 192.10547 125.29625 191.61586 124.80859 191.00977 124.80859 L 180.07031 124.80859 z M 37.873047 130.98047 C 42.140658 130.98047 45.598691 134.4385 45.597656 138.70508 C 45.597656 138.92751 45.583994 139.14901 45.566406 139.36523 C 45.23017 143.32351 41.914203 146.43164 37.871094 146.43164 C 33.934546 146.43164 30.693851 143.486 30.214844 139.67773 C 30.173461 139.36012 30.146484 139.03603 30.146484 138.70703 C 30.146484 134.43942 33.60647 130.98047 37.873047 130.98047 z M 102.02539 130.98047 C 106.293 130.98047 109.75207 134.4385 109.75 138.70508 C 109.75 138.92751 109.73634 139.14901 109.71875 139.36523 C 109.38148 143.32351 106.06655 146.43164 102.02344 146.43164 C 98.087924 146.43164 94.846195 143.486 94.367188 139.67773 C 94.325805 139.36012 94.298828 139.03603 94.298828 138.70703 C 94.298828 134.43942 97.758814 130.98047 102.02539 130.98047 z "
           transform="translate(384.03256,351.70313)"
           id="rect11205" />
        <g
           id="g3526"
           transform="matrix(0.91077564,0,0,0.91077564,395.00316,-369.48504)">
          <g
             id="g4758"
             transform="matrix(0.1592925,0,0,0.1592925,124.06467,884.27139)"
             style="fill:#01420a;fill-opacity:1">
            <g
               id="g4719"
               style="fill:#01420a;fill-opacity:1" />
            <g
               id="g4722"
               style="fill:#01420a;fill-opacity:1" />
            <g
               id="g4724"
               style="fill:#01420a;fill-opacity:1" />
            <g
               id="g4726"
               style="fill:#01420a;fill-opacity:1" />
            <g
               id="g4728"
               style="fill:#01420a;fill-opacity:1" />
            <g
               id="g4730"
               style="fill:#01420a;fill-opacity:1" />
            <g
               id="g4732"
               style="fill:#01420a;fill-opacity:1" />
            <g
               id="g4734"
               style="fill:#01420a;fill-opacity:1" />
            <g
               id="g4736"
               style="fill:#01420a;fill-opacity:1" />
            <g
               id="g4738"
               style="fill:#01420a;fill-opacity:1" />
            <g
               id="g4740"
               style="fill:#01420a;fill-opacity:1" />
            <g
               id="g4742"
               style="fill:#01420a;fill-opacity:1" />
            <g
               id="g4744"
               style="fill:#01420a;fill-opacity:1" />
            <g
               id="g4746"
               style="fill:#01420a;fill-opacity:1" />
            <g
               id="g4748"
               style="fill:#01420a;fill-opacity:1" />
            <g
               id="g4750"
               style="fill:#01420a;fill-opacity:1" />
          </g>
          <g
             id="g4846"
             transform="translate(-0.70729777,0)">
            <g
               style="fill:#01420a;fill-opacity:1"
               transform="matrix(1.1359245,0,0,1.1359245,10.621929,876.40654)"
               id="g4503" />
            <g
               transform="matrix(1.2012081,0,0,1.2012081,-24.962862,-159.4502)"
               id="g4834" />
          </g>
        </g>
      </g>
    </g>
  </g>
</svg>
