<?xml version="1.0" encoding="UTF-8" standalone="no"?>
<!-- Created with Inkscape (http://www.inkscape.org/) -->

<svg
   xmlns:dc="http://purl.org/dc/elements/1.1/"
   xmlns:cc="http://creativecommons.org/ns#"
   xmlns:rdf="http://www.w3.org/1999/02/22-rdf-syntax-ns#"
   xmlns:svg="http://www.w3.org/2000/svg"
   xmlns="http://www.w3.org/2000/svg"
   xmlns:sodipodi="http://sodipodi.sourceforge.net/DTD/sodipodi-0.dtd"
   xmlns:inkscape="http://www.inkscape.org/namespaces/inkscape"
   width="62.08889mm"
   height="62.08889mm"
   viewBox="0 0 220 220"
   id="svg3391"
   version="1.1"
   inkscape:version="0.91 r13725"
   sodipodi:docname="ufu_programas_posgraducao.svg">
  <sodipodi:namedview
     id="base"
     pagecolor="#ffffff"
     bordercolor="#666666"
     borderopacity="1.0"
     inkscape:pageopacity="0.0"
     inkscape:pageshadow="2"
     inkscape:zoom="1.4795454"
     inkscape:cx="46.139956"
     inkscape:cy="97.659719"
     inkscape:document-units="px"
     inkscape:current-layer="layer1"
     showgrid="false"
     fit-margin-top="0"
     fit-margin-left="0"
     fit-margin-right="0"
     fit-margin-bottom="0"
     inkscape:window-width="1440"
     inkscape:window-height="847"
     inkscape:window-x="-8"
     inkscape:window-y="-8"
     inkscape:window-maximized="1" />
  <defs
     id="defs3393" />
  <metadata
     id="metadata3396">
    <rdf:RDF>
      <cc:Work
         rdf:about="">
        <dc:format>image/svg+xml</dc:format>
        <dc:type
           rdf:resource="http://purl.org/dc/dcmitype/StillImage" />
        <dc:title></dc:title>
      </cc:Work>
    </rdf:RDF>
  </metadata>
  <g
     transform="translate(-262.04724,-416.18109)"
     id="layer1"
     inkscape:groupmode="layer"
     inkscape:label="Camada 1">
    <path
       style="color:#000000;clip-rule:nonzero;display:inline;overflow:visible;visibility:visible;opacity:1;isolation:auto;mix-blend-mode:normal;color-interpolation:sRGB;color-interpolation-filters:linearRGB;solid-color:#000000;solid-opacity:1;fill:#ffffff;fill-opacity:1;fill-rule:nonzero;stroke:none;stroke-width:5;stroke-linecap:square;stroke-linejoin:miter;stroke-miterlimit:4;stroke-dasharray:none;stroke-dashoffset:0;stroke-opacity:1;color-rendering:auto;image-rendering:auto;shape-rendering:auto;text-rendering:auto;enable-background:accumulate"
       d="M 0 0 L 0 220 L 220 220 L 220 0 L 0 0 z M 64.480469 32.09375 L 71.064453 38.726562 L 55.896484 53.84375 L 49.263672 60.427734 L 42.654297 53.794922 L 36.296875 47.412109 L 42.929688 40.804688 L 49.287109 47.210938 L 64.480469 32.09375 z M 77.371094 36.048828 L 156.54102 36.048828 C 156.71622 36.048828 156.8418 36.174401 156.8418 36.349609 L 156.8418 43.40625 C 156.8418 43.581458 156.69119 43.707031 156.54102 43.707031 L 77.371094 43.707031 C 77.195885 43.707031 77.070312 43.556429 77.070312 43.40625 L 77.070312 36.349609 C 77.070313 36.174401 77.220915 36.048828 77.371094 36.048828 z M 77.371094 48.814453 L 116.79297 48.814453 C 116.96818 48.814453 117.09375 48.963103 117.09375 49.113281 L 117.09375 56.171875 C 117.09375 56.347083 116.94315 56.472656 116.79297 56.472656 L 77.371094 56.472656 C 77.195885 56.472656 77.070312 56.347083 77.070312 56.171875 L 77.070312 49.113281 C 77.070312 48.938073 77.220915 48.814453 77.371094 48.814453 z M 64.480469 73.542969 L 71.064453 80.175781 L 55.896484 95.292969 L 49.263672 101.87695 L 42.654297 95.244141 L 36.296875 88.861328 L 42.929688 82.253906 L 49.287109 88.660156 L 64.480469 73.542969 z M 77.371094 77.498047 L 156.54102 77.498047 C 156.71622 77.498047 156.8418 77.62362 156.8418 77.798828 L 156.8418 84.855469 C 156.8418 85.030677 156.69119 85.15625 156.54102 85.15625 L 77.371094 85.15625 C 77.195885 85.15625 77.070312 85.005647 77.070312 84.855469 L 77.070312 77.798828 C 77.070313 77.62362 77.220915 77.498047 77.371094 77.498047 z M 77.371094 90.263672 L 116.79297 90.263672 C 116.96818 90.263672 117.09375 90.412321 117.09375 90.5625 L 117.09375 97.621094 C 117.09375 97.796302 116.94315 97.921875 116.79297 97.921875 L 77.371094 97.921875 C 77.195885 97.921875 77.070312 97.796302 77.070312 97.621094 L 77.070312 90.5625 C 77.070312 90.387292 77.220915 90.263672 77.371094 90.263672 z M 64.480469 114.99219 L 71.064453 121.625 L 55.896484 136.71875 L 49.263672 143.32617 L 42.654297 136.69336 L 36.296875 130.31055 L 42.929688 123.70312 L 49.287109 130.10938 L 64.480469 114.99219 z M 77.371094 118.94727 L 156.54102 118.94727 C 156.71622 118.94727 156.8418 119.07284 156.8418 119.24805 L 156.8418 126.30664 C 156.8418 126.48185 156.69119 126.60547 156.54102 126.60547 L 77.371094 126.60547 C 77.195885 126.60547 77.070312 126.45682 77.070312 126.30664 L 77.070312 119.24805 C 77.070313 119.07284 77.220915 118.94727 77.371094 118.94727 z M 77.371094 131.73633 L 116.79297 131.73633 C 116.94315 131.73633 117.06872 131.8619 117.09375 132.03711 L 117.09375 139.0957 C 117.09375 139.27091 116.94315 139.39648 116.79297 139.39648 L 77.371094 139.39648 C 77.195885 139.39648 77.070312 139.24588 77.070312 139.0957 L 77.070312 132.03711 C 77.070312 131.8619 77.220915 131.73633 77.371094 131.73633 z M 153.92383 147.99023 L 183.70312 159.44922 L 153.92383 169.27148 L 123.63867 159.44922 L 153.92383 147.99023 z M 175.76953 162.9043 L 175.76953 175.69336 L 175.76367 175.71484 C 176.34221 175.99432 176.74609 176.58169 176.74609 177.26758 C 176.74609 177.85316 176.45072 178.36818 176.00586 178.68164 C 176.44699 178.94547 176.74609 179.42322 176.74609 179.97461 L 176.74609 192.09375 L 173.2832 192.09375 L 173.2832 179.97461 C 173.2832 179.42447 173.58037 178.94537 174.01953 178.68164 C 173.57467 178.36818 173.28125 177.85316 173.28125 177.26758 C 173.28125 176.56531 173.70007 175.966 174.30078 175.69336 L 174.25781 175.63086 L 174.25781 163.38281 L 175.76953 162.9043 z M 135.91797 164.35938 L 153.67188 170.3418 L 171.61523 164.35938 L 171.61523 172.79688 C 171.61523 172.79688 163.55536 172.29308 153.76562 178.46289 C 153.76564 178.46289 145.3619 172.92308 135.91797 172.73438 L 135.91797 164.35938 z "
       transform="translate(262.04724,416.18109)"
       id="rect3422" />
    <g
       transform="matrix(0.78318914,0,0,0.78319055,866.15412,115.0913)"
       id="g18002">
      <g
         id="g18134" />
    </g>
    <g
       style="fill:#ff0000"
       transform="matrix(0.85270574,0,0,0.85270574,149.50938,426.98754)"
       id="g3479">
      <g
         style="fill:#ff0000"
         id="g3426">
        <g
           style="fill:#ff0000"
           id="Layer_5_58_">
          <g
             style="fill:#ff0000"
             id="g3429">
            <g
               style="fill:#ff0000"
               id="g3431" />
            <g
               style="fill:#ff0000"
               id="g3437" />
          </g>
        </g>
      </g>
      <g
         style="fill:#ff0000"
         id="g3443" />
      <g
         style="fill:#ff0000"
         id="g3445" />
      <g
         style="fill:#ff0000"
         id="g3447" />
      <g
         style="fill:#ff0000"
         id="g3449" />
      <g
         style="fill:#ff0000"
         id="g3451" />
      <g
         style="fill:#ff0000"
         id="g3453" />
      <g
         style="fill:#ff0000"
         id="g3455" />
      <g
         style="fill:#ff0000"
         id="g3457" />
      <g
         style="fill:#ff0000"
         id="g3459" />
      <g
         style="fill:#ff0000"
         id="g3461" />
      <g
         style="fill:#ff0000"
         id="g3463" />
      <g
         style="fill:#ff0000"
         id="g3465" />
      <g
         style="fill:#ff0000"
         id="g3467" />
      <g
         style="fill:#ff0000"
         id="g3469" />
      <g
         style="fill:#ff0000"
         id="g3471" />
    </g>
    <g
       transform="matrix(0.78685096,0,0,0.78685096,292.04724,446.18077)"
       id="g3546">
      <g
         id="g3510" />
      <g
         id="g3512" />
      <g
         id="g3514" />
      <g
         id="g3516" />
      <g
         id="g3518" />
      <g
         id="g3520" />
      <g
         id="g3522" />
      <g
         id="g3524" />
      <g
         id="g3526" />
      <g
         id="g3528" />
      <g
         id="g3530" />
      <g
         id="g3532" />
      <g
         id="g3534" />
      <g
         id="g3536" />
      <g
         id="g3538" />
    </g>
    <g
       id="g4389"
       transform="matrix(0.51684584,0,0,0.51684584,329.13105,214.77653)"
       style="fill:#000000" />
    <g
       id="g4552"
       transform="matrix(0.98237619,0,0,0.98237619,-3.3879272,10.720121)">
      <g
         transform="matrix(0.10548358,0,0,0.10548358,396.05457,555.25754)"
         id="g4443">
        <g
           id="g4397">
          <g
             id="g4399" />
        </g>
        <g
           id="g4407" />
        <g
           id="g4409" />
        <g
           id="g4411" />
        <g
           id="g4413" />
        <g
           id="g4415" />
        <g
           id="g4417" />
        <g
           id="g4419" />
        <g
           id="g4421" />
        <g
           id="g4423" />
        <g
           id="g4425" />
        <g
           id="g4427" />
        <g
           id="g4429" />
        <g
           id="g4431" />
        <g
           id="g4433" />
        <g
           id="g4435" />
      </g>
      <g
         transform="matrix(0.25478818,0,0,0.25478818,307.14587,440.66529)"
         id="g4524">
        <g
           id="g4466">
          <g
             id="g4468" />
        </g>
        <g
           id="g4488" />
        <g
           id="g4490" />
        <g
           id="g4492" />
        <g
           id="g4494" />
        <g
           id="g4496" />
        <g
           id="g4498" />
        <g
           id="g4500" />
        <g
           id="g4502" />
        <g
           id="g4504" />
        <g
           id="g4506" />
        <g
           id="g4508" />
        <g
           id="g4510" />
        <g
           id="g4512" />
        <g
           id="g4514" />
        <g
           id="g4516" />
      </g>
    </g>
  </g>
</svg>
