<?xml version="1.0" encoding="UTF-8" standalone="no"?>
<!-- Created with Inkscape (http://www.inkscape.org/) -->

<svg
   xmlns:dc="http://purl.org/dc/elements/1.1/"
   xmlns:cc="http://creativecommons.org/ns#"
   xmlns:rdf="http://www.w3.org/1999/02/22-rdf-syntax-ns#"
   xmlns:svg="http://www.w3.org/2000/svg"
   xmlns="http://www.w3.org/2000/svg"
   xmlns:sodipodi="http://sodipodi.sourceforge.net/DTD/sodipodi-0.dtd"
   xmlns:inkscape="http://www.inkscape.org/namespaces/inkscape"
   width="220"
   height="220"
   viewBox="0 0 220 220"
   id="svg2"
   version="1.1"
   inkscape:version="0.91 r13725"
   sodipodi:docname="ufu_calendario_esportivo.svg">
  <defs
     id="defs4" />
  <sodipodi:namedview
     id="base"
     pagecolor="#ffffff"
     bordercolor="#666666"
     borderopacity="1.0"
     inkscape:pageopacity="0.0"
     inkscape:pageshadow="2"
     inkscape:zoom="2.9590909"
     inkscape:cx="104.08602"
     inkscape:cy="123.51767"
     inkscape:document-units="px"
     inkscape:current-layer="layer1"
     showgrid="false"
     units="px"
     inkscape:window-width="1440"
     inkscape:window-height="847"
     inkscape:window-x="-8"
     inkscape:window-y="-8"
     inkscape:window-maximized="1" />
  <metadata
     id="metadata7">
    <rdf:RDF>
      <cc:Work
         rdf:about="">
        <dc:format>image/svg+xml</dc:format>
        <dc:type
           rdf:resource="http://purl.org/dc/dcmitype/StillImage" />
        <dc:title></dc:title>
      </cc:Work>
    </rdf:RDF>
  </metadata>
  <g
     inkscape:label="Camada 1"
     inkscape:groupmode="layer"
     id="layer1"
     transform="translate(0,-832.36216)">
    <path
       style="color:#000000;clip-rule:nonzero;display:inline;overflow:visible;visibility:visible;opacity:1;isolation:auto;mix-blend-mode:normal;color-interpolation:sRGB;color-interpolation-filters:linearRGB;solid-color:#000000;solid-opacity:1;fill:#ffffff;fill-opacity:1;fill-rule:nonzero;stroke:none;stroke-width:5;stroke-linecap:square;stroke-linejoin:miter;stroke-miterlimit:4;stroke-dasharray:none;stroke-dashoffset:0;stroke-opacity:1;color-rendering:auto;image-rendering:auto;shape-rendering:auto;text-rendering:auto;enable-background:accumulate"
       d="M 0 0 L 0 220 L 220 220 L 220 0 L 0 0 z M 114.04102 31.0625 L 115.75781 31.0625 C 118.36665 31.0625 120.48242 33.177058 120.48242 35.785156 L 120.48242 39.541016 L 120.48242 53.697266 C 120.48242 56.305859 118.36665 58.421875 115.75781 58.421875 L 114.04102 58.421875 C 111.43217 58.421875 109.3169 56.306107 109.31641 53.697266 L 109.31641 39.541016 L 109.31641 35.785156 C 109.31641 33.177058 111.43168 31.0625 114.04102 31.0625 z M 53.449219 31.177734 L 55.166016 31.177734 C 57.775104 31.177734 59.890625 33.293998 59.890625 35.902344 L 59.890625 40.779297 L 59.890625 53.814453 C 59.890625 56.422799 57.775104 58.539062 55.166016 58.539062 L 53.449219 58.539062 C 50.840378 58.539062 48.726562 56.422799 48.726562 53.814453 L 48.726562 40.779297 L 48.726562 35.902344 C 48.726563 33.293998 50.840378 31.177734 53.449219 31.177734 z M 31.804688 40.779297 L 44.886719 40.779297 L 44.886719 53.814453 C 44.886719 58.536745 48.727175 62.378906 53.449219 62.378906 L 55.166016 62.378906 C 59.888307 62.378906 63.730469 58.536745 63.730469 53.814453 L 63.730469 40.779297 L 105.47852 40.779297 L 105.47852 53.697266 C 105.47852 58.419557 109.31872 62.261719 114.04102 62.261719 L 115.75781 62.261719 C 120.47961 62.261719 124.32227 59.657838 124.32227 54.935547 L 124.32227 40.779297 L 136.44531 40.779297 C 140.67988 40.779297 144.12549 44.224412 144.125 48.458984 L 144.125 141.25977 C 144.125 145.49459 140.67988 148.93945 136.44531 148.93945 L 31.804688 148.93945 C 27.570114 148.93945 24.125 145.49459 24.125 141.25977 L 24.125 48.458984 C 24.125 44.224165 27.570115 40.779297 31.804688 40.779297 z M 31.804688 71.177734 L 31.806641 141.25977 L 136.44531 141.25977 C 136.44831 141.25977 136.45017 141.25781 136.45117 141.25781 L 136.44727 71.177734 L 31.804688 71.177734 z M 88.089844 80.765625 L 101.88086 80.765625 C 102.42747 80.765625 102.86914 81.209247 102.86914 81.755859 L 102.86914 93.695312 C 102.86914 94.241925 102.42747 94.685547 101.88086 94.685547 L 88.089844 94.685547 C 87.543232 94.685547 87.101564 94.241927 87.101562 93.695312 L 87.101562 81.755859 C 87.101565 81.209247 87.543232 80.765625 88.089844 80.765625 z M 110.59375 80.765625 L 124.38477 80.765625 C 124.93138 80.765625 125.37305 81.209247 125.37305 81.755859 L 125.37305 93.695312 C 125.37305 94.241925 124.93138 94.685547 124.38477 94.685547 L 110.59375 94.685547 C 110.04714 94.685547 109.60547 94.241927 109.60547 93.695312 L 109.60547 81.755859 C 109.60547 81.209247 110.04714 80.765625 110.59375 80.765625 z M 43.082031 100.31445 L 56.873047 100.31445 C 57.419659 100.31445 57.861328 100.75612 57.861328 101.30273 L 57.861328 113.24414 C 57.861328 113.79075 57.419659 114.23435 56.873047 114.23438 L 43.082031 114.23438 C 42.535419 114.23434 42.09375 113.79075 42.09375 113.24414 L 42.09375 101.30273 C 42.09375 100.75612 42.535419 100.31445 43.082031 100.31445 z M 65.585938 100.31445 L 79.376953 100.31445 C 79.923565 100.31445 80.365234 100.75612 80.365234 101.30273 L 80.365234 113.24414 C 80.365234 113.79075 79.923565 114.23435 79.376953 114.23438 L 65.585938 114.23438 C 65.039326 114.23434 64.597656 113.79075 64.597656 113.24414 L 64.597656 101.30273 C 64.597656 100.75612 65.039326 100.31445 65.585938 100.31445 z M 88.089844 100.31445 L 101.88086 100.31445 C 102.42747 100.31445 102.86914 100.75612 102.86914 101.30273 L 102.86914 113.24414 C 102.86914 113.79075 102.42747 114.23435 101.88086 114.23438 L 88.089844 114.23438 C 87.543232 114.23434 87.101564 113.79075 87.101562 113.24414 L 87.101562 101.30273 C 87.101565 100.75612 87.543232 100.31445 88.089844 100.31445 z M 110.59375 100.31445 L 124.38477 100.31445 C 124.93138 100.31445 125.37305 100.75612 125.37305 101.30273 L 125.37305 113.24414 C 125.37305 113.79075 124.93138 114.23435 124.38477 114.23438 L 110.59375 114.23438 C 110.04714 114.23434 109.60547 113.79075 109.60547 113.24414 L 109.60547 101.30273 C 109.60547 100.75612 110.04714 100.31445 110.59375 100.31445 z M 43.083984 119.86133 L 56.873047 119.86133 C 57.419659 119.86133 57.861081 120.30495 57.861328 120.85156 L 57.861328 132.79297 C 57.861328 133.33958 57.419659 133.7832 56.873047 133.7832 L 43.083984 133.7832 C 42.537372 133.7832 42.09375 133.33958 42.09375 132.79297 L 42.09375 120.85156 C 42.09375 120.30495 42.537372 119.86133 43.083984 119.86133 z M 65.587891 119.86133 L 79.376953 119.86133 C 79.923565 119.86133 80.365234 120.30495 80.365234 120.85156 L 80.365234 132.79297 C 80.365234 133.33958 79.923565 133.7832 79.376953 133.7832 L 65.587891 133.7832 C 65.041279 133.7832 64.597656 133.33958 64.597656 132.79297 L 64.597656 120.85156 C 64.597656 120.30495 65.041279 119.86133 65.587891 119.86133 z M 88.091797 119.86133 L 101.88086 119.86133 C 102.42747 119.86133 102.87109 120.30495 102.87109 120.85156 L 102.87109 132.79297 C 102.87109 133.33958 102.42747 133.7832 101.88086 133.7832 L 88.091797 133.7832 C 87.545185 133.7832 87.101564 133.33958 87.101562 132.79297 L 87.101562 120.85156 C 87.101564 120.30495 87.545185 119.86133 88.091797 119.86133 z M 110.59375 119.86133 L 124.38477 119.86133 C 124.93138 119.86133 125.37305 120.30495 125.37305 120.85156 L 125.37305 132.79297 C 125.37305 133.33958 124.93138 133.7832 124.38477 133.7832 L 110.59375 133.7832 C 110.04714 133.7832 109.60547 133.33958 109.60547 132.79297 L 109.60547 120.85156 C 109.60547 120.30495 110.04714 119.86133 110.59375 119.86133 z M 175 155 C 177.59776 155 180.12882 155.49177 182.52539 156.46289 C 185.00819 157.46883 187.23405 158.9489 189.14258 160.85742 C 191.0511 162.76595 192.52921 164.99402 193.53516 167.47461 C 194.50628 169.87118 195 172.40224 195 175 C 195 177.59721 194.50683 180.12992 193.53516 182.52539 C 192.52921 185.00763 191.05221 187.23405 189.14258 189.14258 C 187.23405 191.05221 185.00598 192.52921 182.52539 193.53516 C 180.12882 194.50628 177.59776 195 175 195 C 172.40224 195 169.87118 194.50794 167.47461 193.53516 C 164.99292 192.52921 162.7665 191.05221 160.85742 189.14258 C 158.94834 187.23405 157.46939 185.00653 156.46289 182.52539 C 155.49122 180.12992 154.99805 177.59721 154.99805 175 C 154.99805 172.40224 155.49122 169.87118 156.46289 167.47461 C 157.46939 164.99402 158.94779 162.7665 160.85742 160.85742 C 162.7665 158.9489 164.99347 157.46883 167.47461 156.46289 C 169.87118 155.49177 172.40224 155 175 155 z M 169.04297 157.24414 C 166.37722 158.13346 163.87246 159.6359 161.75391 161.75391 C 161.52729 161.98052 161.30795 162.21291 161.0957 162.44727 C 160.77126 163.01601 160.47377 163.59871 160.21289 164.20117 C 159.87408 164.98326 159.58082 165.78586 159.28125 166.58398 C 159.23372 166.71 159.20976 166.85095 159.20312 166.99023 L 163.66406 169.62891 C 165.38743 168.49639 167.21533 167.55206 169.0918 166.69922 C 169.54723 166.49195 170.0198 166.3221 170.48242 166.13086 C 170.49348 166.12588 170.50402 166.12246 170.51562 166.11914 L 172.77734 159.31055 C 171.62217 158.4975 170.3958 157.81304 169.04883 157.34766 C 169.03556 157.34379 169.02517 157.32768 169.00195 157.31055 C 169.01522 157.28678 169.02915 157.2657 169.04297 157.24414 z M 182.08594 157.66016 C 182.07709 157.94978 182.05457 158.23658 182.01367 158.52344 L 187.90625 165.16602 C 188.1102 165.23621 188.31215 165.30798 188.50781 165.38867 C 189.76524 165.90491 190.96138 166.53866 192.08008 167.30859 C 191.17584 165.29395 189.89565 163.40652 188.24414 161.75391 C 186.42792 159.93824 184.32775 158.57269 182.08594 157.66016 z M 179.66992 159.14453 C 179.26333 159.14944 178.85884 159.16679 178.45508 159.18945 C 177.1363 159.26573 175.81937 159.41702 174.50391 159.55078 C 174.33422 159.56902 174.16692 159.60617 174 159.65039 L 171.58008 166.93555 C 171.99627 167.35229 172.41388 167.76795 172.83008 168.18359 C 172.82068 168.1941 172.81018 168.20324 172.80078 168.21484 C 173.83215 169.37333 174.86619 170.52905 175.89258 171.69141 C 176.00588 171.82019 176.11289 171.95472 176.2168 172.0918 L 184.91016 171.19922 C 185.36062 170.09047 185.81295 168.98338 186.23633 167.86523 C 186.47621 167.22795 186.67665 166.57493 186.88281 165.92383 L 180.89648 159.17578 C 180.48582 159.14676 180.07651 159.13963 179.66992 159.14453 z M 158.47852 168.03516 C 158.31933 168.23856 158.18188 168.45654 158.0332 168.66602 C 157.55179 169.34475 157.12614 170.05314 156.75195 170.79102 C 155.9566 174.26262 156.16083 177.92063 157.36133 181.29883 C 158.14729 182.11906 159.03466 182.81525 159.99805 183.41992 C 160.07156 183.46635 160.14638 183.50818 160.22266 183.54688 L 163.72266 178.05859 C 163.72045 178.04864 163.72041 178.0423 163.71875 178.03125 C 163.22794 175.65623 162.98058 173.24588 162.99219 170.81836 L 162.99219 170.70508 L 158.47852 168.03516 z M 185.01953 172.46289 L 176.0957 173.37891 C 175.65629 174.23285 175.21723 175.08853 174.76953 175.9375 C 174.11014 177.18885 173.44443 178.43973 172.77344 179.68555 L 177.08398 187.13867 C 179.4579 187.12762 181.81322 186.89703 184.14844 186.46094 C 184.17331 186.45762 184.19583 186.45084 184.2207 186.44531 L 188.54102 178.38672 C 188.37631 178.06172 188.21324 177.74109 188.04688 177.42383 C 187.14704 175.70267 186.11225 174.06576 185.01953 172.46289 z M 193.66602 176.42383 C 193.57316 176.54874 193.45481 176.66337 193.31055 176.76562 C 192.20733 177.55435 191.01911 178.18899 189.78711 178.75 L 185.31445 187.09375 C 185.63337 188.09582 185.85924 189.12308 185.99023 190.16992 C 186.78006 189.59841 187.53335 188.95744 188.24414 188.24609 C 191.53501 184.95578 193.34212 180.73556 193.66602 176.42383 z M 164.55859 179.11328 L 161.06055 184.59766 C 161.23465 184.97848 161.46431 185.33247 161.66992 185.69727 C 162.47744 187.13156 163.41631 188.47371 164.46094 189.74219 L 173.39062 191.33203 C 173.5288 191.1723 173.66024 191.01122 173.78516 190.84375 C 174.53685 189.83781 175.27263 188.82135 176 187.79883 L 171.80859 180.55078 C 171.71518 180.54083 171.6056 180.52605 171.47461 180.50781 C 169.2328 180.18171 167.00601 179.76501 164.81836 179.17969 C 164.72053 179.15371 164.63597 179.13263 164.55859 179.11328 z M 165.67188 191.24609 C 168.79305 193.03689 172.32439 193.85707 175.82031 193.70508 C 174.99732 193.43204 174.19674 193.09662 173.41797 192.69922 C 173.35606 192.66771 173.29632 192.63078 173.23828 192.59375 L 165.67188 191.24609 z "
       transform="translate(0,832.36216)"
       id="rect4925" />
    <g
       id="g3379"
       transform="matrix(0.45693639,0,0,0.45693639,30.000026,862.36223)">
      <g
         id="g3337">
        <g
           id="g3339" />
      </g>
      <g
         id="g3343" />
      <g
         id="g3345" />
      <g
         id="g3347" />
      <g
         id="g3349" />
      <g
         id="g3351" />
      <g
         id="g3353" />
      <g
         id="g3355" />
      <g
         id="g3357" />
      <g
         id="g3359" />
      <g
         id="g3361" />
      <g
         id="g3363" />
      <g
         id="g3365" />
      <g
         id="g3367" />
      <g
         id="g3369" />
      <g
         id="g3371" />
    </g>
    <g
       id="g3449"
       transform="matrix(0.12063696,0,0,0.12063696,42.287741,973.78024)">
      <g
         id="g3403">
        <g
           id="g3405" />
      </g>
      <g
         id="g3413" />
      <g
         id="g3415" />
      <g
         id="g3417" />
      <g
         id="g3419" />
      <g
         id="g3421" />
      <g
         id="g3423" />
      <g
         id="g3425" />
      <g
         id="g3427" />
      <g
         id="g3429" />
      <g
         id="g3431" />
      <g
         id="g3433" />
      <g
         id="g3435" />
      <g
         id="g3437" />
      <g
         id="g3439" />
      <g
         id="g3441" />
    </g>
    <g
       id="g3516"
       transform="matrix(1.2932781,0,0,1.2932781,31.917579,861.35601)">
      <g
         id="g3472">
        <g
           id="g3474" />
      </g>
      <g
         id="g3480" />
      <g
         id="g3482" />
      <g
         id="g3484" />
      <g
         id="g3486" />
      <g
         id="g3488" />
      <g
         id="g3490" />
      <g
         id="g3492" />
      <g
         id="g3494" />
      <g
         id="g3496" />
      <g
         id="g3498" />
      <g
         id="g3500" />
      <g
         id="g3502" />
      <g
         id="g3504" />
      <g
         id="g3506" />
      <g
         id="g3508" />
    </g>
    <g
       id="g3590"
       transform="matrix(0.17423737,0,0,0.17423737,121.21146,942.76295)">
      <g
         id="g3538">
        <g
           id="g3540">
          <g
             id="g3542" />
        </g>
      </g>
      <g
         id="g3554" />
      <g
         id="g3556" />
      <g
         id="g3558" />
      <g
         id="g3560" />
      <g
         id="g3562" />
      <g
         id="g3564" />
      <g
         id="g3566" />
      <g
         id="g3568" />
      <g
         id="g3570" />
      <g
         id="g3572" />
      <g
         id="g3574" />
      <g
         id="g3576" />
      <g
         id="g3578" />
      <g
         id="g3580" />
      <g
         id="g3582" />
    </g>
    <g
       id="g4610"
       transform="matrix(1.3717358,0,0,1.3246545,-1.4761196,-342.28949)" />
    <g
       id="g4599"
       transform="translate(110.92536,68.60215)" />
    <g
       id="g4603"
       transform="translate(-68.84778,-95.179617)" />
    <g
       transform="translate(0,3e-5)"
       id="layer1-2"
       inkscape:label="Camada 1"
       style="fill:#666666">
      <g
         transform="matrix(0.24744768,0,0,0.24744768,24.12566,862.36243)"
         id="g5972"
         style="fill:#666666">
        <g
           id="g5905"
           style="fill:#666666">
          <g
             id="_x31_5_38_"
             style="fill:#666666">
            <g
               id="g5908"
               style="fill:#666666" />
          </g>
        </g>
        <g
           id="g5936"
           style="fill:#666666" />
        <g
           id="g5938"
           style="fill:#666666" />
        <g
           id="g5940"
           style="fill:#666666" />
        <g
           id="g5942"
           style="fill:#666666" />
        <g
           id="g5944"
           style="fill:#666666" />
        <g
           id="g5946"
           style="fill:#666666" />
        <g
           id="g5948"
           style="fill:#666666" />
        <g
           id="g5950"
           style="fill:#666666" />
        <g
           id="g5952"
           style="fill:#666666" />
        <g
           id="g5954"
           style="fill:#666666" />
        <g
           id="g5956"
           style="fill:#666666" />
        <g
           id="g5958"
           style="fill:#666666" />
        <g
           id="g5960"
           style="fill:#666666" />
        <g
           id="g5962"
           style="fill:#666666" />
        <g
           id="g5964"
           style="fill:#666666" />
      </g>
      <g
         transform="matrix(0.09398474,0,0,0.09398474,140.524,980.12437)"
         id="g6052"
         style="fill:#666666">
        <g
           id="g6006"
           style="fill:#666666">
          <g
             id="g6008"
             style="fill:#666666" />
        </g>
        <g
           id="g6016"
           style="fill:#666666" />
        <g
           id="g6018"
           style="fill:#666666" />
        <g
           id="g6020"
           style="fill:#666666" />
        <g
           id="g6022"
           style="fill:#666666" />
        <g
           id="g6024"
           style="fill:#666666" />
        <g
           id="g6026"
           style="fill:#666666" />
        <g
           id="g6028"
           style="fill:#666666" />
        <g
           id="g6030"
           style="fill:#666666" />
        <g
           id="g6032"
           style="fill:#666666" />
        <g
           id="g6034"
           style="fill:#666666" />
        <g
           id="g6036"
           style="fill:#666666" />
        <g
           id="g6038"
           style="fill:#666666" />
        <g
           id="g6040"
           style="fill:#666666" />
        <g
           id="g6042"
           style="fill:#666666" />
        <g
           id="g6044"
           style="fill:#666666" />
      </g>
      <g
         id="g6148"
         transform="matrix(0.24744768,0,0,0.24744768,-235.41351,862.36243)"
         style="fill:#666666">
        <g
           id="g6150"
           style="fill:#666666">
          <g
             id="g6152"
             style="fill:#666666">
            <g
               id="g6154"
               style="fill:#666666" />
          </g>
        </g>
        <g
           id="g6182"
           style="fill:#666666" />
        <g
           id="g6184"
           style="fill:#666666" />
        <g
           id="g6186"
           style="fill:#666666" />
        <g
           id="g6188"
           style="fill:#666666" />
        <g
           id="g6190"
           style="fill:#666666" />
        <g
           id="g6192"
           style="fill:#666666" />
        <g
           id="g6194"
           style="fill:#666666" />
        <g
           id="g6196"
           style="fill:#666666" />
        <g
           id="g6198"
           style="fill:#666666" />
        <g
           id="g6200"
           style="fill:#666666" />
        <g
           id="g6202"
           style="fill:#666666" />
        <g
           id="g6204"
           style="fill:#666666" />
        <g
           id="g6206"
           style="fill:#666666" />
        <g
           id="g6208"
           style="fill:#666666" />
        <g
           id="g6210"
           style="fill:#666666" />
      </g>
      <g
         transform="matrix(0.24744768,0,0,0.24744768,-496.35872,862.36243)"
         id="g6268"
         style="fill:#666666">
        <g
           id="g6270"
           style="fill:#666666">
          <g
             id="g6272"
             style="fill:#666666">
            <g
               id="g6274"
               style="fill:#666666" />
          </g>
        </g>
        <g
           id="g6302"
           style="fill:#666666" />
        <g
           id="g6304"
           style="fill:#666666" />
        <g
           id="g6306"
           style="fill:#666666" />
        <g
           id="g6308"
           style="fill:#666666" />
        <g
           id="g6310"
           style="fill:#666666" />
        <g
           id="g6312"
           style="fill:#666666" />
        <g
           id="g6314"
           style="fill:#666666" />
        <g
           id="g6316"
           style="fill:#666666" />
        <g
           id="g6318"
           style="fill:#666666" />
        <g
           id="g6320"
           style="fill:#666666" />
        <g
           id="g6322"
           style="fill:#666666" />
        <g
           id="g6324"
           style="fill:#666666" />
        <g
           id="g6326"
           style="fill:#666666" />
        <g
           id="g6328"
           style="fill:#666666" />
        <g
           id="g6330"
           style="fill:#666666" />
      </g>
      <g
         transform="matrix(0.83333333,0,0,0.83333333,-372.72273,987.36213)"
         id="g6383"
         style="fill:#666666">
        <g
           id="g6341"
           style="fill:#666666">
          <g
             id="g6343"
             style="fill:#666666" />
        </g>
        <g
           id="g6347"
           style="fill:#666666" />
        <g
           id="g6349"
           style="fill:#666666" />
        <g
           id="g6351"
           style="fill:#666666" />
        <g
           id="g6353"
           style="fill:#666666" />
        <g
           id="g6355"
           style="fill:#666666" />
        <g
           id="g6357"
           style="fill:#666666" />
        <g
           id="g6359"
           style="fill:#666666" />
        <g
           id="g6361"
           style="fill:#666666" />
        <g
           id="g6363"
           style="fill:#666666" />
        <g
           id="g6365"
           style="fill:#666666" />
        <g
           id="g6367"
           style="fill:#666666" />
        <g
           id="g6369"
           style="fill:#666666" />
        <g
           id="g6371"
           style="fill:#666666" />
        <g
           id="g6373"
           style="fill:#666666" />
        <g
           id="g6375"
           style="fill:#666666" />
      </g>
    </g>
    <g
       id="g4905"
       transform="matrix(0.55271521,0,0,0.55271521,154.999,987.36216)">
      <g
         id="g4865" />
      <g
         id="g4869" />
      <g
         id="g4871" />
      <g
         id="g4873" />
      <g
         id="g4875" />
      <g
         id="g4877" />
      <g
         id="g4879" />
      <g
         id="g4881" />
      <g
         id="g4883" />
      <g
         id="g4885" />
      <g
         id="g4887" />
      <g
         id="g4889" />
      <g
         id="g4891" />
      <g
         id="g4893" />
      <g
         id="g4895" />
      <g
         id="g4897" />
    </g>
  </g>
</svg>
