<?xml version="1.0" encoding="UTF-8" standalone="no"?>
<!-- Created with Inkscape (http://www.inkscape.org/) -->

<svg
   xmlns:dc="http://purl.org/dc/elements/1.1/"
   xmlns:cc="http://creativecommons.org/ns#"
   xmlns:rdf="http://www.w3.org/1999/02/22-rdf-syntax-ns#"
   xmlns:svg="http://www.w3.org/2000/svg"
   xmlns="http://www.w3.org/2000/svg"
   xmlns:sodipodi="http://sodipodi.sourceforge.net/DTD/sodipodi-0.dtd"
   xmlns:inkscape="http://www.inkscape.org/namespaces/inkscape"
   width="220"
   height="220"
   viewBox="0 0 220 220"
   id="svg2"
   version="1.1"
   inkscape:version="0.91 r13725"
   sodipodi:docname="ufu_editais.svg">
  <defs
     id="defs4" />
  <sodipodi:namedview
     id="base"
     pagecolor="#ffffff"
     bordercolor="#666666"
     borderopacity="1.0"
     inkscape:pageopacity="0.0"
     inkscape:pageshadow="2"
     inkscape:zoom="2.9590909"
     inkscape:cx="154.43932"
     inkscape:cy="123.51767"
     inkscape:document-units="px"
     inkscape:current-layer="layer1"
     showgrid="false"
     units="px"
     inkscape:window-width="1440"
     inkscape:window-height="847"
     inkscape:window-x="-8"
     inkscape:window-y="-8"
     inkscape:window-maximized="1" />
  <metadata
     id="metadata7">
    <rdf:RDF>
      <cc:Work
         rdf:about="">
        <dc:format>image/svg+xml</dc:format>
        <dc:type
           rdf:resource="http://purl.org/dc/dcmitype/StillImage" />
        <dc:title></dc:title>
      </cc:Work>
    </rdf:RDF>
  </metadata>
  <g
     inkscape:label="Camada 1"
     inkscape:groupmode="layer"
     id="layer1"
     transform="translate(0,-832.36216)">
    <path
       style="color:#000000;clip-rule:nonzero;display:inline;overflow:visible;visibility:visible;opacity:1;isolation:auto;mix-blend-mode:normal;color-interpolation:sRGB;color-interpolation-filters:linearRGB;solid-color:#000000;solid-opacity:1;fill:#ffffff;fill-opacity:1;fill-rule:nonzero;stroke:none;stroke-width:5;stroke-linecap:square;stroke-linejoin:miter;stroke-miterlimit:4;stroke-dasharray:none;stroke-dashoffset:0;stroke-opacity:1;color-rendering:auto;image-rendering:auto;shape-rendering:auto;text-rendering:auto;enable-background:accumulate"
       d="M 0 0 L 0 220 L 220 220 L 220 0 L 0 0 z M 53.419922 30 L 130.96875 30 C 132.21876 30 133.41788 30.496529 134.30273 31.380859 L 169.91602 66.994141 C 170.80035 67.878471 171.29688 69.077595 171.29688 70.328125 L 171.29688 185.28516 C 171.29688 187.88936 169.1863 190 166.58203 190 L 53.419922 190 C 50.815651 190 48.705078 187.88936 48.705078 185.28516 L 48.705078 34.714844 C 48.705078 32.110574 50.815651 30 53.419922 30 z M 58.134766 39.429688 L 58.134766 180.57031 L 161.86719 180.57031 L 161.86719 76.089844 L 129.91992 76.089844 C 127.31565 76.089844 125.20508 73.97927 125.20508 71.375 L 125.20508 39.429688 L 58.134766 39.429688 z M 134.63672 45.050781 L 134.63672 66.660156 L 156.24609 66.660156 L 134.63672 45.050781 z M 76.722656 49.726562 L 85.591797 49.726562 L 90.039062 54.15625 L 85.582031 54.15625 L 83.933594 55.804688 L 83.933594 63.912109 L 82.964844 64.878906 L 77.683594 64.878906 L 76.722656 63.919922 L 76.722656 49.726562 z M 101.24414 49.726562 L 116.47461 49.726562 C 119.07888 49.726562 121.18945 51.837136 121.18945 54.441406 C 121.18945 57.045686 119.07888 59.15625 116.47461 59.15625 L 101.24414 59.15625 C 98.639871 59.15625 96.529297 57.045686 96.529297 54.441406 C 96.529297 51.837136 98.639871 49.726562 101.24414 49.726562 z M 74.427734 52.021484 L 74.427734 64.898438 L 76.722656 67.193359 L 81.986328 67.193359 L 84.927734 64.251953 L 84.927734 56.236328 L 86.066406 55.087891 L 90.953125 55.087891 L 91.886719 56.001953 L 86.523438 56.001953 L 85.896484 56.630859 L 85.896484 64.746094 L 79.476562 71.166016 L 76.705078 71.166016 L 70.447266 64.898438 L 70.447266 56.001953 L 74.427734 52.021484 z M 86.990234 56.925781 L 91.849609 56.925781 L 91.849609 64.878906 L 85.574219 71.166016 L 80.794922 71.166016 L 80.785156 71.15625 L 86.820312 65.121094 L 86.820312 57.095703 L 86.990234 56.925781 z M 101.24414 61.734375 L 116.47461 61.734375 C 119.07888 61.734375 121.18945 63.846902 121.18945 66.451172 C 121.18945 69.055442 119.07888 71.166016 116.47461 71.166016 L 101.24414 71.166016 C 98.639871 71.166016 96.529297 69.055442 96.529297 66.451172 C 96.529297 63.846902 98.639871 61.734375 101.24414 61.734375 z M 75.162109 88.228516 L 143.56836 88.228516 C 146.17263 88.228516 148.2832 90.339089 148.2832 92.943359 C 148.2832 95.547629 146.17263 97.658203 143.56836 97.658203 L 75.162109 97.658203 C 72.557837 97.658203 70.447266 95.547629 70.447266 92.943359 C 70.447266 90.339089 72.557837 88.228516 75.162109 88.228516 z M 75.162109 110.31445 L 143.56836 110.31445 C 146.17263 110.31445 148.2832 112.425 148.2832 115.0293 C 148.2832 117.6336 146.17263 119.74609 143.56836 119.74609 L 75.162109 119.74609 C 72.557837 119.74609 70.447266 117.6336 70.447266 115.0293 C 70.447266 112.425 72.557837 110.31445 75.162109 110.31445 z M 75.162109 132.40039 L 143.56836 132.40039 C 146.17263 132.40039 148.2832 134.51289 148.2832 137.11719 C 148.2832 139.72149 146.17263 141.83203 143.56836 141.83203 L 75.162109 141.83203 C 72.557837 141.83203 70.447266 139.72149 70.447266 137.11719 C 70.447266 134.51289 72.557837 132.40039 75.162109 132.40039 z M 75.162109 154.48828 L 143.56836 154.48828 C 146.17263 154.48828 148.2832 156.59892 148.2832 159.20312 C 148.2832 161.80743 146.17263 163.91797 143.56836 163.91797 L 75.162109 163.91797 C 72.557837 163.91797 70.447266 161.80743 70.447266 159.20312 C 70.447266 156.59892 72.557837 154.48828 75.162109 154.48828 z "
       transform="translate(0,832.36216)"
       id="rect3433" />
    <g
       id="g3393"
       transform="matrix(0.52389279,0,0,0.52389279,30.000083,862.3629)">
      <g
         id="g3339"
         transform="translate(-90.308225,14.191293)">
        <g
           inkscape:label="Camada 1"
           id="layer1-4"
           transform="matrix(1.9087875,0,0,1.9087875,69.670584,-1773.002)">
          <text
             xml:space="preserve"
             style="font-style:normal;font-variant:normal;font-weight:normal;font-stretch:normal;font-size:15px;line-height:125%;font-family:'Open Sans';-inkscape-font-specification:'Open Sans, Normal';text-align:start;letter-spacing:0px;word-spacing:0px;writing-mode:lr-tb;text-anchor:start;fill:#000000;fill-opacity:1;stroke:none;stroke-width:1px;stroke-linecap:butt;stroke-linejoin:miter;stroke-opacity:1"
             x="933.04791"
             y="1073.4818"
             id="text3356-6"
             sodipodi:linespacing="125%"><tspan
               sodipodi:role="line"
               id="tspan3358-9"
               x="933.04791"
               y="1073.4818" /></text>
          <g
             transform="matrix(0.52389278,0,0,0.52389278,15.767805,947.32558)"
             id="g3493">
            <g
               id="g3495">
              <g
                 transform="translate(0,81.922462)"
                 id="g3608" />
              <g
                 id="g3612"
                 transform="translate(0,27.092468)" />
            </g>
          </g>
          <g
             transform="matrix(0.52389278,0,0,0.52389278,15.767805,947.32558)"
             id="g3513" />
          <g
             transform="matrix(0.52389278,0,0,0.52389278,15.767805,947.32558)"
             id="g3515" />
          <g
             transform="matrix(0.52389278,0,0,0.52389278,15.767805,947.32558)"
             id="g3517" />
          <g
             transform="matrix(0.52389278,0,0,0.52389278,15.767805,947.32558)"
             id="g3519" />
          <g
             transform="matrix(0.52389278,0,0,0.52389278,15.767805,947.32558)"
             id="g3521" />
          <g
             transform="matrix(0.52389278,0,0,0.52389278,15.767805,947.32558)"
             id="g3523" />
          <g
             transform="matrix(0.52389278,0,0,0.52389278,15.767805,947.32558)"
             id="g3525" />
          <g
             transform="matrix(0.52389278,0,0,0.52389278,15.767805,947.32558)"
             id="g3527" />
          <g
             transform="matrix(0.52389278,0,0,0.52389278,15.767805,947.32558)"
             id="g3529" />
          <g
             transform="matrix(0.52389278,0,0,0.52389278,15.767805,947.32558)"
             id="g3531" />
          <g
             transform="matrix(0.52389278,0,0,0.52389278,15.767805,947.32558)"
             id="g3533" />
          <g
             transform="matrix(0.52389278,0,0,0.52389278,15.767805,947.32558)"
             id="g3535" />
          <g
             transform="matrix(0.52389278,0,0,0.52389278,15.767805,947.32558)"
             id="g3537" />
          <g
             transform="matrix(0.52389278,0,0,0.52389278,15.767805,947.32558)"
             id="g3539" />
          <g
             transform="matrix(0.52389278,0,0,0.52389278,15.767805,947.32558)"
             id="g3541" />
        </g>
      </g>
      <g
         id="g3357" />
      <g
         id="g3359" />
      <g
         id="g3361" />
      <g
         id="g3363" />
      <g
         id="g3365" />
      <g
         id="g3367" />
      <g
         id="g3369" />
      <g
         id="g3371" />
      <g
         id="g3373" />
      <g
         id="g3375" />
      <g
         id="g3377" />
      <g
         id="g3379" />
      <g
         id="g3381" />
      <g
         id="g3383" />
      <g
         id="g3385" />
    </g>
    <g
       transform="matrix(0.26973533,0,0,0.26973533,123.61213,735.4591)"
       id="layer1-3"
       inkscape:label="Camada 1">
      <text
         sodipodi:linespacing="125%"
         id="text3356"
         y="1073.4818"
         x="933.04791"
         style="font-style:normal;font-variant:normal;font-weight:normal;font-stretch:normal;font-size:15px;line-height:125%;font-family:'Open Sans';-inkscape-font-specification:'Open Sans, Normal';text-align:start;letter-spacing:0px;word-spacing:0px;writing-mode:lr-tb;text-anchor:start;fill:#000000;fill-opacity:1;stroke:none;stroke-width:1px;stroke-linecap:butt;stroke-linejoin:miter;stroke-opacity:1"
         xml:space="preserve"><tspan
           y="1073.4818"
           x="933.04791"
           id="tspan3358"
           sodipodi:role="line" /></text>
    </g>
  </g>
</svg>
