<?xml version="1.0" encoding="UTF-8" standalone="no"?>
<!-- Created with Inkscape (http://www.inkscape.org/) -->

<svg
   xmlns:dc="http://purl.org/dc/elements/1.1/"
   xmlns:cc="http://creativecommons.org/ns#"
   xmlns:rdf="http://www.w3.org/1999/02/22-rdf-syntax-ns#"
   xmlns:svg="http://www.w3.org/2000/svg"
   xmlns="http://www.w3.org/2000/svg"
   xmlns:sodipodi="http://sodipodi.sourceforge.net/DTD/sodipodi-0.dtd"
   xmlns:inkscape="http://www.inkscape.org/namespaces/inkscape"
   sodipodi:docname="ufu_forum.svg"
   inkscape:version="0.91 r13725"
   version="1.1"
   id="svg5354"
   viewBox="0 0 220 220"
   height="220"
   width="220">
  <sodipodi:namedview
     inkscape:window-maximized="1"
     inkscape:window-y="-8"
     inkscape:window-x="-8"
     inkscape:window-height="847"
     inkscape:window-width="1440"
     units="px"
     showgrid="false"
     inkscape:current-layer="layer1"
     inkscape:document-units="px"
     inkscape:cy="123.51767"
     inkscape:cx="65.560676"
     inkscape:zoom="2.9590909"
     inkscape:pageshadow="2"
     inkscape:pageopacity="0.0"
     borderopacity="1.0"
     bordercolor="#666666"
     pagecolor="#ffffff"
     id="base" />
  <defs
     id="defs5356" />
  <metadata
     id="metadata5359">
    <rdf:RDF>
      <cc:Work
         rdf:about="">
        <dc:format>image/svg+xml</dc:format>
        <dc:type
           rdf:resource="http://purl.org/dc/dcmitype/StillImage" />
        <dc:title></dc:title>
      </cc:Work>
    </rdf:RDF>
  </metadata>
  <g
     transform="translate(0,-832.36213)"
     id="layer1"
     inkscape:groupmode="layer"
     inkscape:label="Camada 1">
    <g
       transform="matrix(0.24744768,0,0,0.24744768,24.12566,862.36243)"
       id="g5972">
      <g
         id="g5905">
        <g
           id="_x31_5_38_">
          <g
             id="g5908" />
        </g>
      </g>
      <g
         id="g5936" />
      <g
         id="g5938" />
      <g
         id="g5940" />
      <g
         id="g5942" />
      <g
         id="g5944" />
      <g
         id="g5946" />
      <g
         id="g5948" />
      <g
         id="g5950" />
      <g
         id="g5952" />
      <g
         id="g5954" />
      <g
         id="g5956" />
      <g
         id="g5958" />
      <g
         id="g5960" />
      <g
         id="g5962" />
      <g
         id="g5964" />
    </g>
    <g
       transform="matrix(0.09398474,0,0,0.09398474,140.524,980.12437)"
       id="g6052">
      <g
         id="g6006">
        <g
           id="g6008" />
      </g>
      <g
         id="g6016" />
      <g
         id="g6018" />
      <g
         id="g6020" />
      <g
         id="g6022" />
      <g
         id="g6024" />
      <g
         id="g6026" />
      <g
         id="g6028" />
      <g
         id="g6030" />
      <g
         id="g6032" />
      <g
         id="g6034" />
      <g
         id="g6036" />
      <g
         id="g6038" />
      <g
         id="g6040" />
      <g
         id="g6042" />
      <g
         id="g6044" />
    </g>
    <g
       id="g6148"
       transform="matrix(0.24744768,0,0,0.24744768,-235.41351,862.36243)">
      <g
         id="g6150">
        <g
           id="g6152">
          <g
             id="g6154" />
        </g>
      </g>
      <g
         id="g6182" />
      <g
         id="g6184" />
      <g
         id="g6186" />
      <g
         id="g6188" />
      <g
         id="g6190" />
      <g
         id="g6192" />
      <g
         id="g6194" />
      <g
         id="g6196" />
      <g
         id="g6198" />
      <g
         id="g6200" />
      <g
         id="g6202" />
      <g
         id="g6204" />
      <g
         id="g6206" />
      <g
         id="g6208" />
      <g
         id="g6210" />
    </g>
    <g
       transform="matrix(0.24744768,0,0,0.24744768,-496.35872,862.36243)"
       id="g6268">
      <g
         id="g6270">
        <g
           id="g6272">
          <g
             id="g6274" />
        </g>
      </g>
      <g
         id="g6302" />
      <g
         id="g6304" />
      <g
         id="g6306" />
      <g
         id="g6308" />
      <g
         id="g6310" />
      <g
         id="g6312" />
      <g
         id="g6314" />
      <g
         id="g6316" />
      <g
         id="g6318" />
      <g
         id="g6320" />
      <g
         id="g6322" />
      <g
         id="g6324" />
      <g
         id="g6326" />
      <g
         id="g6328" />
      <g
         id="g6330" />
    </g>
    <g
       transform="matrix(0.83333333,0,0,0.83333333,-372.72273,987.36213)"
       id="g6383">
      <g
         id="g6341">
        <g
           id="g6343" />
      </g>
      <g
         id="g6347" />
      <g
         id="g6349" />
      <g
         id="g6351" />
      <g
         id="g6353" />
      <g
         id="g6355" />
      <g
         id="g6357" />
      <g
         id="g6359" />
      <g
         id="g6361" />
      <g
         id="g6363" />
      <g
         id="g6365" />
      <g
         id="g6367" />
      <g
         id="g6369" />
      <g
         id="g6371" />
      <g
         id="g6373" />
      <g
         id="g6375" />
    </g>
    <g
       transform="matrix(0.29296874,0,0,0.29296874,-678.08878,604.88221)"
       id="g4276">
      <g
         id="g4236" />
      <g
         id="g4240" />
      <g
         id="g4242" />
      <g
         id="g4244" />
      <g
         id="g4246" />
      <g
         id="g4248" />
      <g
         id="g4250" />
      <g
         id="g4252" />
      <g
         id="g4254" />
      <g
         id="g4256" />
      <g
         id="g4258" />
      <g
         id="g4260" />
      <g
         id="g4262" />
      <g
         id="g4264" />
      <g
         id="g4266" />
      <g
         id="g4268" />
    </g>
    <g
       style="fill:#00ff00"
       transform="matrix(0.21739083,0,0,0.21739083,-711.80524,597.1725)"
       id="g4342">
      <g
         style="fill:#00ff00"
         id="g4296">
        <g
           style="fill:#00ff00"
           id="g4298" />
      </g>
      <g
         style="fill:#00ff00"
         id="g4306" />
      <g
         style="fill:#00ff00"
         id="g4308" />
      <g
         style="fill:#00ff00"
         id="g4310" />
      <g
         style="fill:#00ff00"
         id="g4312" />
      <g
         style="fill:#00ff00"
         id="g4314" />
      <g
         style="fill:#00ff00"
         id="g4316" />
      <g
         style="fill:#00ff00"
         id="g4318" />
      <g
         style="fill:#00ff00"
         id="g4320" />
      <g
         style="fill:#00ff00"
         id="g4322" />
      <g
         style="fill:#00ff00"
         id="g4324" />
      <g
         style="fill:#00ff00"
         id="g4326" />
      <g
         style="fill:#00ff00"
         id="g4328" />
      <g
         style="fill:#00ff00"
         id="g4330" />
      <g
         style="fill:#00ff00"
         id="g4332" />
      <g
         style="fill:#00ff00"
         id="g4334" />
    </g>
    <g
       transform="translate(71.380022,907.45957)"
       id="g4424">
      <g
         id="g4370">
        <g
           id="g4372" />
      </g>
      <g
         id="g4388" />
      <g
         id="g4390" />
      <g
         id="g4392" />
      <g
         id="g4394" />
      <g
         id="g4396" />
      <g
         id="g4398" />
      <g
         id="g4400" />
      <g
         id="g4402" />
      <g
         id="g4404" />
      <g
         id="g4406" />
      <g
         id="g4408" />
      <g
         id="g4410" />
      <g
         id="g4412" />
      <g
         id="g4414" />
      <g
         id="g4416" />
    </g>
    <g
       style="fill:#000000"
       inkscape:label="Camada 1"
       id="layer1-7"
       transform="matrix(0.17729023,0,0,0.17729023,169.01022,812.13891)">
      <g
         style="fill:#000000"
         transform="matrix(1.8390805,0,0,1.8390805,29.999991,-913.01664)"
         id="layer1-6"
         inkscape:label="Camada 1">
        <text
           sodipodi:linespacing="125%"
           id="text3356"
           y="1073.4818"
           x="933.04791"
           style="font-style:normal;font-variant:normal;font-weight:normal;font-stretch:normal;font-size:15px;line-height:125%;font-family:'Open Sans';-inkscape-font-specification:'Open Sans, Normal';text-align:start;letter-spacing:0px;word-spacing:0px;writing-mode:lr-tb;text-anchor:start;fill:#000000;fill-opacity:1;stroke:none;stroke-width:1px;stroke-linecap:butt;stroke-linejoin:miter;stroke-opacity:1"
           xml:space="preserve"><tspan
             y="1073.4818"
             x="933.04791"
             id="tspan3358"
             sodipodi:role="line" /></text>
      </g>
    </g>
    <path
       style="color:#000000;clip-rule:nonzero;display:inline;overflow:visible;visibility:visible;opacity:1;isolation:auto;mix-blend-mode:normal;color-interpolation:sRGB;color-interpolation-filters:linearRGB;solid-color:#000000;solid-opacity:1;fill:#ffffff;fill-opacity:1;fill-rule:nonzero;stroke:none;stroke-width:5;stroke-linecap:square;stroke-linejoin:miter;stroke-miterlimit:4;stroke-dasharray:none;stroke-dashoffset:0;stroke-opacity:1;color-rendering:auto;image-rendering:auto;shape-rendering:auto;text-rendering:auto;enable-background:accumulate"
       d="M 0 0 L 0 220 L 220 220 L 220 0 L 0 0 z M 43.675781 42.498047 L 126.86719 42.498047 C 134.37313 42.498047 140.54102 48.667624 140.54102 56.173828 L 140.54102 85.056641 L 176.16406 85.056641 C 183.86637 85.056641 190.01804 91.208438 190 98.732422 L 190 148.79688 C 190 156.30282 183.83042 162.4707 176.32422 162.4707 L 168.23047 162.4707 L 158.03125 176.14648 C 157.26463 176.93089 156.30362 177.50195 155.14453 177.50195 C 153.98545 177.50195 152.82638 177.10921 152.25586 176.14648 L 142.05664 162.4707 L 93.150391 162.4707 C 85.644448 162.4707 79.476562 156.30308 79.476562 148.79688 L 79.476562 119.91406 L 77.943359 119.91406 L 67.744141 133.58789 C 66.977518 134.37229 66.014553 134.94336 64.855469 134.94336 C 63.696384 134.94336 62.539272 134.55061 61.96875 133.58789 L 51.769531 119.91406 L 43.675781 119.91406 C 36.169839 119.91406 30 113.74449 30 106.23828 L 30 56.173828 C 30 48.667624 36.169839 42.498047 43.675781 42.498047 z M 43.300781 49.630859 C 39.64573 49.630859 36.757812 52.518776 36.757812 56.173828 L 36.757812 106.23828 C 36.757812 109.89333 39.64573 112.78125 43.300781 112.78125 L 53.320312 112.78125 C 54.479397 112.78125 55.638463 113.174 56.208984 114.13672 L 64.677734 125.29688 L 73.146484 114.13672 C 73.913107 113.35232 74.876333 112.78125 76.035156 112.78125 L 82.953125 112.78125 L 126.49219 112.78125 C 130.14698 112.78125 133.03516 109.89333 133.03516 106.23828 L 133.03516 88.712891 L 133.03516 56.173828 C 133.03516 52.518776 130.14724 49.630859 126.49219 49.630859 L 43.300781 49.630859 z M 58.882812 68.119141 L 90.263672 68.119141 C 92.189117 68.119141 93.722656 69.652418 93.722656 71.578125 C 93.722656 73.50357 92.189379 75.037109 90.263672 75.037109 L 58.882812 75.037109 C 56.957106 75.036848 55.423828 73.50357 55.423828 71.578125 C 55.423828 69.65268 56.957106 68.119141 58.882812 68.119141 z M 58.882812 88.140625 L 111.07031 88.140625 C 112.99576 88.140625 114.5293 89.673903 114.5293 91.599609 C 114.7254 93.525316 112.99602 95.058594 111.07031 95.058594 L 58.882812 95.058594 C 56.957367 95.058594 55.423828 93.525316 55.423828 91.599609 C 55.423828 89.673903 56.957106 88.140625 58.882812 88.140625 z M 140.7207 92.384766 L 140.7207 106.25586 C 140.7207 107.9852 140.52365 109.51812 139.95312 110.87305 L 161.13477 110.87305 C 163.06047 110.87305 164.59375 112.40632 164.59375 114.33203 C 164.59375 116.25774 163.06021 117.79102 161.13477 117.79102 L 134.17578 117.79102 C 132.07175 119.1462 129.55952 119.91406 126.86719 119.91406 L 86.625 119.91406 L 86.625 148.79688 C 86.625 152.45193 89.51487 155.33984 93.169922 155.33984 L 143.62695 155.33984 C 144.78604 155.33984 145.94315 155.73259 146.51367 156.69531 L 154.98438 167.85547 L 163.45312 156.69531 C 164.21975 155.91091 165.18297 155.33984 166.3418 155.33984 L 176.36133 155.33984 C 180.01612 155.33984 182.9043 152.45193 182.9043 148.79688 L 182.88672 148.79688 L 182.88672 98.927734 C 182.88672 95.272683 179.99685 92.384766 176.3418 92.384766 L 140.7207 92.384766 z M 108.57422 130.69922 L 160.95703 130.69922 C 162.86496 130.68144 164.41602 132.2325 164.41602 134.1582 C 164.41602 136.08365 162.88274 137.61719 160.95703 137.61719 L 108.57422 137.61719 C 106.64877 137.61719 105.11523 136.08391 105.11523 134.1582 C 105.11523 132.2325 106.64851 130.69922 108.57422 130.69922 z "
       transform="translate(0,832.36213)"
       id="rect6440" />
    <g
       id="g6483"
       transform="matrix(0.26146732,0,0,0.26146732,30.000001,862.36215)">
      <g
         id="g6443" />
      <g
         id="g6447" />
      <g
         id="g6449" />
      <g
         id="g6451" />
      <g
         id="g6453" />
      <g
         id="g6455" />
      <g
         id="g6457" />
      <g
         id="g6459" />
      <g
         id="g6461" />
      <g
         id="g6463" />
      <g
         id="g6465" />
      <g
         id="g6467" />
      <g
         id="g6469" />
      <g
         id="g6471" />
      <g
         id="g6473" />
      <g
         id="g6475" />
    </g>
  </g>
</svg>
