<?xml version="1.0" encoding="UTF-8" standalone="no"?>
<!-- Created with Inkscape (http://www.inkscape.org/) -->

<svg
   xmlns:dc="http://purl.org/dc/elements/1.1/"
   xmlns:cc="http://creativecommons.org/ns#"
   xmlns:rdf="http://www.w3.org/1999/02/22-rdf-syntax-ns#"
   xmlns:svg="http://www.w3.org/2000/svg"
   xmlns="http://www.w3.org/2000/svg"
   xmlns:sodipodi="http://sodipodi.sourceforge.net/DTD/sodipodi-0.dtd"
   xmlns:inkscape="http://www.inkscape.org/namespaces/inkscape"
   width="220"
   height="220"
   viewBox="0 0 220 220"
   id="svg2"
   version="1.1"
   inkscape:version="0.91 r13725"
   sodipodi:docname="ufu_graduacao.svg">
  <defs
     id="defs4" />
  <sodipodi:namedview
     id="base"
     pagecolor="#ffffff"
     bordercolor="#666666"
     borderopacity="1.0"
     inkscape:pageopacity="0.0"
     inkscape:pageshadow="2"
     inkscape:zoom="2.9590909"
     inkscape:cx="110"
     inkscape:cy="113.40177"
     inkscape:document-units="px"
     inkscape:current-layer="layer1"
     showgrid="false"
     units="px"
     inkscape:window-width="1440"
     inkscape:window-height="847"
     inkscape:window-x="-8"
     inkscape:window-y="-8"
     inkscape:window-maximized="1" />
  <metadata
     id="metadata7">
    <rdf:RDF>
      <cc:Work
         rdf:about="">
        <dc:format>image/svg+xml</dc:format>
        <dc:type
           rdf:resource="http://purl.org/dc/dcmitype/StillImage" />
        <dc:title></dc:title>
      </cc:Work>
    </rdf:RDF>
  </metadata>
  <g
     inkscape:label="Camada 1"
     inkscape:groupmode="layer"
     id="layer1"
     transform="translate(0,-832.36216)">
    <g
       id="g3383"
       transform="matrix(0.42025415,0,0,0.42025415,30,862.36237)">
      <g
         id="g3339">
        <g
           id="g3341" />
      </g>
      <g
         id="g3347" />
      <g
         id="g3349" />
      <g
         id="g3351" />
      <g
         id="g3353" />
      <g
         id="g3355" />
      <g
         id="g3357" />
      <g
         id="g3359" />
      <g
         id="g3361" />
      <g
         id="g3363" />
      <g
         id="g3365" />
      <g
         id="g3367" />
      <g
         id="g3369" />
      <g
         id="g3371" />
      <g
         id="g3373" />
      <g
         id="g3375" />
    </g>
    <path
       style="color:#000000;clip-rule:nonzero;display:inline;overflow:visible;visibility:visible;opacity:1;isolation:auto;mix-blend-mode:normal;color-interpolation:sRGB;color-interpolation-filters:linearRGB;solid-color:#000000;solid-opacity:1;fill:#ffffff;fill-opacity:1;fill-rule:nonzero;stroke:none;stroke-width:5;stroke-linecap:square;stroke-linejoin:miter;stroke-miterlimit:4;stroke-dasharray:none;stroke-dashoffset:0;stroke-opacity:1;color-rendering:auto;image-rendering:auto;shape-rendering:auto;text-rendering:auto;enable-background:accumulate"
       d="M 0 0 L 0 220 L 220 220 L 220 0 L 0 0 z M 110.67383 51.257812 L 190 81.783203 L 110.67383 107.94531 L 30 81.783203 L 110.67383 51.257812 z M 168.86523 90.982422 L 168.86523 125.05469 L 168.85547 125.10938 C 170.39661 125.85385 171.46875 127.41897 171.46875 129.24609 C 171.46875 130.80601 170.68505 132.18061 169.5 133.01562 C 170.67511 133.71843 171.46875 134.98821 171.46875 136.45703 L 171.46875 168.74219 L 162.24414 168.74219 L 162.24414 136.45703 C 162.24414 134.99152 163.03716 133.71815 164.20703 133.01562 C 163.02198 132.18061 162.24023 130.80601 162.24023 129.24609 C 162.24023 127.37535 163.35681 125.77705 164.95703 125.05078 L 164.83984 124.88672 L 164.83984 92.261719 L 168.86523 90.982422 z M 62.707031 94.863281 L 110 110.79492 L 157.79883 94.863281 L 157.79883 117.33984 C 157.79883 117.33984 136.33246 115.99412 110.25391 132.42969 C 110.25391 132.42969 87.864436 117.6726 62.707031 117.16992 L 62.707031 94.863281 z "
       transform="translate(0,832.36216)"
       id="rect3406" />
    <g
       id="g3455"
       transform="matrix(0.27604245,0,0,0.27604245,30,862.36216)">
      <g
         id="g3409">
        <g
           id="g3411" />
      </g>
      <g
         id="g3419" />
      <g
         id="g3421" />
      <g
         id="g3423" />
      <g
         id="g3425" />
      <g
         id="g3427" />
      <g
         id="g3429" />
      <g
         id="g3431" />
      <g
         id="g3433" />
      <g
         id="g3435" />
      <g
         id="g3437" />
      <g
         id="g3439" />
      <g
         id="g3441" />
      <g
         id="g3443" />
      <g
         id="g3445" />
      <g
         id="g3447" />
    </g>
  </g>
</svg>
