<?xml version="1.0" encoding="UTF-8" standalone="no"?>
<!-- Created with Inkscape (http://www.inkscape.org/) -->

<svg
   xmlns:dc="http://purl.org/dc/elements/1.1/"
   xmlns:cc="http://creativecommons.org/ns#"
   xmlns:rdf="http://www.w3.org/1999/02/22-rdf-syntax-ns#"
   xmlns:svg="http://www.w3.org/2000/svg"
   xmlns="http://www.w3.org/2000/svg"
   xmlns:sodipodi="http://sodipodi.sourceforge.net/DTD/sodipodi-0.dtd"
   xmlns:inkscape="http://www.inkscape.org/namespaces/inkscape"
   width="62.08889mm"
   height="62.08889mm"
   viewBox="0 0 220 220"
   id="svg3391"
   version="1.1"
   inkscape:version="0.91 r13725"
   sodipodi:docname="ufu_ciaem.svg">
  <sodipodi:namedview
     id="base"
     pagecolor="#ffffff"
     bordercolor="#666666"
     borderopacity="1.0"
     inkscape:pageopacity="0.0"
     inkscape:pageshadow="2"
     inkscape:zoom="0.73977271"
     inkscape:cx="-110.72198"
     inkscape:cy="-93.329437"
     inkscape:document-units="px"
     inkscape:current-layer="layer1"
     showgrid="false"
     fit-margin-top="0"
     fit-margin-left="0"
     fit-margin-right="0"
     fit-margin-bottom="0"
     inkscape:window-width="1440"
     inkscape:window-height="847"
     inkscape:window-x="-8"
     inkscape:window-y="-8"
     inkscape:window-maximized="1" />
  <defs
     id="defs3393" />
  <metadata
     id="metadata3396">
    <rdf:RDF>
      <cc:Work
         rdf:about="">
        <dc:format>image/svg+xml</dc:format>
        <dc:type
           rdf:resource="http://purl.org/dc/dcmitype/StillImage" />
        <dc:title></dc:title>
      </cc:Work>
    </rdf:RDF>
  </metadata>
  <g
     transform="translate(-262.04724,-416.18109)"
     id="layer1"
     inkscape:groupmode="layer"
     inkscape:label="Camada 1">
    <path
       style="color:#000000;clip-rule:nonzero;display:inline;overflow:visible;visibility:visible;opacity:1;isolation:auto;mix-blend-mode:normal;color-interpolation:sRGB;color-interpolation-filters:linearRGB;solid-color:#000000;solid-opacity:1;fill:#ffffff;fill-opacity:1;fill-rule:nonzero;stroke:none;stroke-width:5;stroke-linecap:square;stroke-linejoin:miter;stroke-miterlimit:4;stroke-dasharray:none;stroke-dashoffset:0;stroke-opacity:1;color-rendering:auto;image-rendering:auto;shape-rendering:auto;text-rendering:auto;enable-background:accumulate"
       d="M 0 0 L 0 220 L 220 220 L 220 0 L 0 0 z M 126.40039 67.880859 A 38.249633 65.702389 70.71791 0 1 154.54492 74.037109 A 7.393319 7.6573662 0 0 1 160.72266 70.578125 A 7.393319 7.6573662 0 0 1 168.11523 78.234375 A 7.393319 7.6573662 0 0 1 165.48047 84.085938 A 38.249633 65.702389 70.71791 0 1 168.70508 93.427734 A 38.249633 65.702389 70.71791 0 1 163.39258 113.22266 C 163.97946 114.53513 164.44562 115.59786 164.59766 115.99609 C 165.086 117.27529 165.63228 118.49044 165.81055 118.69727 C 165.98882 118.90408 169.26172 112.11475 173.08398 103.60938 C 176.90625 95.103994 180.091 88.202325 180.16211 88.273438 C 180.23323 88.34455 182.40173 97.576836 184.98047 108.78906 C 187.55921 120.00129 189.79108 129.58261 189.93945 130.08008 C 190.17558 130.87175 189.81705 130.98438 187.07227 130.98438 C 185.34751 130.98437 183.9375 130.91184 183.9375 130.82227 C 183.9375 130.7327 182.91193 126.02227 181.6582 120.35547 C 180.40449 114.68867 179.20793 109.00576 179 107.72656 L 178.62109 105.40039 L 177.71289 107.98438 C 177.21286 109.4057 174.38531 115.51689 171.42969 121.56445 L 166.05664 132.56055 L 161.13672 122.33984 C 160.53842 121.09701 160.01769 119.98708 159.43555 118.76367 A 38.249633 65.702389 70.71791 0 1 148.41406 129.65234 L 148.12109 130.98438 L 146.67578 130.98438 A 38.249633 65.702389 70.71791 0 1 109.60938 148.72461 A 38.249633 65.702389 70.71791 0 1 43.169922 130.52734 C 35.585622 127.36053 30.658747 120.40578 30.060547 111.86133 C 29.405177 102.50028 34.08088 94.340217 42.3125 90.480469 C 45.03253 89.205069 46.51394 88.868994 50.1875 88.693359 C 55.04457 88.461141 57.990592 89.000218 62.013672 90.861328 A 38.249633 65.702389 70.71791 0 1 101.48438 71.279297 A 38.249633 65.702389 70.71791 0 1 126.40039 67.880859 z M 130.88672 70.605469 A 33.991835 62.19345 70.225837 0 0 101.70703 75.064453 A 33.991835 62.19345 70.225837 0 0 65.0625 94.457031 L 65.0625 95.273438 C 65.0625 96.911007 64.936803 98.375706 64.783203 98.529297 C 64.655203 98.657294 63.362939 98.166689 61.755859 97.410156 A 33.991835 62.19345 70.225837 0 0 48.160156 125.22852 C 49.312966 125.44281 50.551252 125.54998 51.882812 125.54688 C 55.323253 125.5385 56.558635 125.28881 59.240234 124.05859 C 61.012764 123.24542 62.727591 122.26246 63.050781 121.87305 C 64.185342 120.50597 64.544922 121.19651 64.544922 124.74023 C 64.544922 128.22967 64.504087 128.34207 62.835938 129.37305 C 59.885158 131.19673 54.658334 132.14363 50.021484 131.95898 A 33.991835 62.19345 70.225837 0 0 113.58594 142.7168 A 33.991835 62.19345 70.225837 0 0 139.71484 130.98438 L 132.50781 130.98438 L 116.89453 130.98438 L 114.56445 125.6875 L 112.23242 120.38867 L 104.02344 120.24805 L 95.814453 120.10938 L 93.474609 125.41797 L 91.134766 130.72656 L 87.595703 130.88086 C 84.854533 131.00037 84.117935 130.88323 84.328125 130.36328 C 85.281025 128.00673 103.49119 88.788329 103.77734 88.476562 C 103.97194 88.264537 107.72607 95.926789 112.11914 105.50391 L 120.10742 122.91602 L 120.24219 106.27539 L 120.37891 89.636719 L 131.74219 89.636719 L 143.10547 89.636719 L 143.10547 92.478516 L 143.10547 95.322266 L 135.0957 95.322266 L 127.08398 95.322266 L 127.08398 100.49023 L 127.08398 105.6582 L 135.0957 105.6582 L 143.10547 105.6582 L 143.10547 108.50195 L 143.10547 111.34375 L 135.0957 111.34375 L 127.08398 111.34375 L 127.08398 118.0625 L 127.08398 124.78125 L 135.25781 124.78125 L 143.42969 124.78125 L 146.92383 109.14844 C 148.84528 100.5494 150.69954 92.273024 151.04492 90.757812 L 151.67188 88.003906 L 157.69141 100.83594 C 159.27922 104.22157 160.79158 107.49633 162.01953 110.1875 A 33.991835 62.19345 70.225837 0 0 166.99414 90.953125 A 33.991835 62.19345 70.225837 0 0 164.64062 84.722656 A 7.393319 7.6573662 0 0 1 160.72266 85.892578 A 7.393319 7.6573662 0 0 1 153.32812 78.234375 A 7.393319 7.6573662 0 0 1 153.89258 75.310547 A 33.991835 62.19345 70.225837 0 0 130.88672 70.605469 z M 73.332031 89.636719 L 76.691406 89.636719 L 80.050781 89.636719 L 80.050781 110.31055 L 80.050781 130.98438 L 76.691406 130.98438 L 73.332031 130.98438 L 73.332031 110.31055 L 73.332031 89.636719 z M 51.669922 94.767578 C 49.839022 94.774788 48.048439 95.051591 46.380859 95.605469 C 37.27161 98.631079 33.861928 111.76163 39.992188 120.20508 C 40.687837 121.16322 41.475699 121.9858 42.355469 122.68359 A 38.249633 65.702389 70.71791 0 1 56.871094 95.46875 C 55.147224 95.005439 53.391362 94.760807 51.669922 94.767578 z M 104.15039 101.25977 C 104.06214 101.31903 103.94459 101.49894 103.82031 101.7832 C 101.69542 106.64381 98.658203 113.92603 98.658203 114.1582 C 98.658203 114.31629 101.09919 114.44531 104.08398 114.44531 C 107.06876 114.44531 109.51172 114.34699 109.51172 114.22656 C 109.51172 114.10613 108.34905 111.3414 106.92773 108.08398 C 105.5064 104.82656 104.32783 101.84375 104.30859 101.45508 C 104.29897 101.26081 104.23864 101.20048 104.15039 101.25977 z M 153.21289 106.25391 C 153.02173 106.28662 152.92578 106.68704 152.92578 107.45703 C 152.92578 108.46585 151.75721 114.34037 149.69727 123.79297 A 33.991835 62.19345 70.225837 0 0 157.95312 115.64453 C 156.54847 112.66228 155.36422 110.11138 154.95898 109.15625 C 154.11533 107.16775 153.5315 106.19938 153.21289 106.25391 z "
       transform="translate(262.04724,416.18109)"
       id="rect3422" />
    <g
       transform="matrix(0.78318914,0,0,0.78319055,866.15412,115.0913)"
       id="g18002">
      <g
         id="g18134" />
    </g>
    <g
       style="fill:#ff0000"
       transform="matrix(0.85270574,0,0,0.85270574,149.50938,426.98754)"
       id="g3479">
      <g
         style="fill:#ff0000"
         id="g3426">
        <g
           style="fill:#ff0000"
           id="Layer_5_58_">
          <g
             style="fill:#ff0000"
             id="g3429">
            <g
               style="fill:#ff0000"
               id="g3431" />
            <g
               style="fill:#ff0000"
               id="g3437" />
          </g>
        </g>
      </g>
      <g
         style="fill:#ff0000"
         id="g3443" />
      <g
         style="fill:#ff0000"
         id="g3445" />
      <g
         style="fill:#ff0000"
         id="g3447" />
      <g
         style="fill:#ff0000"
         id="g3449" />
      <g
         style="fill:#ff0000"
         id="g3451" />
      <g
         style="fill:#ff0000"
         id="g3453" />
      <g
         style="fill:#ff0000"
         id="g3455" />
      <g
         style="fill:#ff0000"
         id="g3457" />
      <g
         style="fill:#ff0000"
         id="g3459" />
      <g
         style="fill:#ff0000"
         id="g3461" />
      <g
         style="fill:#ff0000"
         id="g3463" />
      <g
         style="fill:#ff0000"
         id="g3465" />
      <g
         style="fill:#ff0000"
         id="g3467" />
      <g
         style="fill:#ff0000"
         id="g3469" />
      <g
         style="fill:#ff0000"
         id="g3471" />
    </g>
    <g
       transform="matrix(0.78685096,0,0,0.78685096,292.04724,446.18077)"
       id="g3546">
      <g
         id="g3510" />
      <g
         id="g3512" />
      <g
         id="g3514" />
      <g
         id="g3516" />
      <g
         id="g3518" />
      <g
         id="g3520" />
      <g
         id="g3522" />
      <g
         id="g3524" />
      <g
         id="g3526" />
      <g
         id="g3528" />
      <g
         id="g3530" />
      <g
         id="g3532" />
      <g
         id="g3534" />
      <g
         id="g3536" />
      <g
         id="g3538" />
    </g>
    <g
       id="g4389"
       transform="matrix(0.51684584,0,0,0.51684584,329.13105,214.77653)"
       style="fill:#000000" />
  </g>
</svg>
