<?xml version="1.0" encoding="UTF-8" standalone="no"?>
<!-- Created with Inkscape (http://www.inkscape.org/) -->

<svg
   xmlns:dc="http://purl.org/dc/elements/1.1/"
   xmlns:cc="http://creativecommons.org/ns#"
   xmlns:rdf="http://www.w3.org/1999/02/22-rdf-syntax-ns#"
   xmlns:svg="http://www.w3.org/2000/svg"
   xmlns="http://www.w3.org/2000/svg"
   xmlns:sodipodi="http://sodipodi.sourceforge.net/DTD/sodipodi-0.dtd"
   xmlns:inkscape="http://www.inkscape.org/namespaces/inkscape"
   width="220"
   height="220"
   viewBox="0 0 220 220"
   id="svg2"
   version="1.1"
   inkscape:version="0.91 r13725"
   sodipodi:docname="ufu_jornal_portarias.svg">
  <defs
     id="defs4" />
  <sodipodi:namedview
     id="base"
     pagecolor="#ffffff"
     bordercolor="#666666"
     borderopacity="1.0"
     inkscape:pageopacity="0.0"
     inkscape:pageshadow="2"
     inkscape:zoom="1.4795455"
     inkscape:cx="163.18501"
     inkscape:cy="34.905883"
     inkscape:document-units="px"
     inkscape:current-layer="layer1"
     showgrid="false"
     units="px"
     inkscape:window-width="1440"
     inkscape:window-height="847"
     inkscape:window-x="-8"
     inkscape:window-y="-8"
     inkscape:window-maximized="1" />
  <metadata
     id="metadata7">
    <rdf:RDF>
      <cc:Work
         rdf:about="">
        <dc:format>image/svg+xml</dc:format>
        <dc:type
           rdf:resource="http://purl.org/dc/dcmitype/StillImage" />
        <dc:title></dc:title>
      </cc:Work>
    </rdf:RDF>
  </metadata>
  <g
     inkscape:label="Camada 1"
     inkscape:groupmode="layer"
     id="layer1"
     transform="translate(0,-832.36216)">
    <path
       style="color:#000000;clip-rule:nonzero;display:inline;overflow:visible;visibility:visible;opacity:1;isolation:auto;mix-blend-mode:normal;color-interpolation:sRGB;color-interpolation-filters:linearRGB;solid-color:#000000;solid-opacity:1;fill:#ffffff;fill-opacity:1;fill-rule:nonzero;stroke:none;stroke-width:5;stroke-linecap:square;stroke-linejoin:miter;stroke-miterlimit:4;stroke-dasharray:none;stroke-dashoffset:0;stroke-opacity:1;color-rendering:auto;image-rendering:auto;shape-rendering:auto;text-rendering:auto;enable-background:accumulate"
       d="M 0 0 L 0 220 L 220 220 L 220 0 L 0 0 z M 61.21875 42.050781 L 180.92773 42.050781 C 185.92958 42.050781 190 46.120257 190 51.123047 L 190 168.87695 C 190 173.87973 185.93004 177.94922 180.92773 177.94922 L 61.21875 177.94922 C 58.19954 177.94922 55.523067 176.46459 53.873047 174.18945 C 52.808487 173.41459 52.047802 171.99371 51.607422 169.92383 L 30.193359 75.929688 C 29.669469 73.468878 30.221221 71.004212 31.707031 69.169922 C 33.192851 67.334692 35.488046 66.283203 38.003906 66.283203 L 43.234375 66.283203 C 43.234375 66.283203 45.197266 66.240757 45.197266 67.841797 L 45.197266 71.441406 C 45.197266 73.026566 43.234375 73 43.234375 73 L 38.003906 73 C 37.517806 73 37.136347 73.140834 36.929688 73.396484 C 36.722577 73.652594 36.663925 74.05541 36.765625 74.53125 C 36.765625 74.53125 47.7367 121.07881 51.5625 135.40234 C 51.60822 135.57121 52.340084 134.23622 52.146484 131.29492 C 50.816954 111.1261 52.146484 51.123047 52.146484 51.123047 C 52.146484 46.120727 56.21643 42.050781 61.21875 42.050781 z M 61.21875 48.769531 C 59.94286 48.769531 58.863281 49.846687 58.863281 51.123047 L 58.863281 168.87695 C 58.863281 170.17523 59.9214 171.23047 61.21875 171.23047 L 180.92773 171.23047 C 182.22507 171.23047 183.28125 170.17523 183.28125 168.87695 L 183.28125 51.123047 C 183.28125 49.846687 182.20315 48.769531 180.92773 48.769531 L 61.21875 48.769531 z M 70.326172 59.451172 L 171.49805 59.451172 C 172.40819 59.451172 173.15384 60.198285 173.1543 61.109375 L 173.1543 92.902344 C 173.1543 93.813424 172.40819 94.558594 171.49805 94.558594 L 70.326172 94.558594 C 69.415562 94.558594 68.669922 93.813424 68.669922 92.902344 L 68.669922 61.109375 C 68.669922 60.198285 69.415562 59.451172 70.326172 59.451172 z M 89.501953 64.673828 C 88.514263 64.673828 87.64883 64.893481 86.90625 65.332031 C 86.16368 65.770581 85.572583 66.40012 85.132812 67.21875 C 84.700243 68.03738 84.440016 68.94345 84.353516 69.9375 C 84.274256 70.92181 84.234375 72.602539 84.234375 74.980469 L 84.234375 79.03125 C 84.234375 81.46765 84.278734 83.171924 84.365234 84.146484 C 84.451744 85.121044 84.721581 86.023182 85.175781 86.851562 C 85.629971 87.679942 86.228123 88.303596 86.970703 88.722656 C 87.720483 89.131976 88.564723 89.335938 89.501953 89.335938 C 90.489643 89.335937 91.355086 89.116284 92.097656 88.677734 C 92.840226 88.239174 93.426815 87.611599 93.859375 86.792969 C 94.299155 85.974339 94.559372 85.072201 94.638672 84.087891 C 94.725162 83.093841 94.769531 81.40917 94.769531 79.03125 L 94.769531 74.980469 C 94.769531 72.544069 94.725172 70.839794 94.638672 69.865234 C 94.552152 68.890674 94.282325 67.988526 93.828125 67.160156 C 93.373935 66.331776 92.771274 65.712054 92.021484 65.302734 C 91.278914 64.883674 90.439183 64.673828 89.501953 64.673828 z M 163.11328 64.673828 C 162.03186 64.673828 161.1099 64.913095 160.3457 65.390625 C 159.5815 65.858415 159.02574 66.511489 158.67969 67.349609 C 158.34085 68.187739 158.17188 69.513482 158.17188 71.326172 C 158.17188 72.583352 158.28943 73.616891 158.52734 74.425781 C 158.77247 75.234661 159.07958 75.866179 159.44727 76.324219 C 159.81495 76.782269 160.56539 77.519663 161.69727 78.533203 C 162.82915 79.537003 163.53976 80.252841 163.82812 80.681641 C 164.10929 81.110451 164.25 82.022396 164.25 83.416016 C 164.25 84.049486 164.17483 84.526056 164.02344 84.847656 C 163.87925 85.169266 163.65435 85.330078 163.35156 85.330078 C 163.04876 85.330078 162.83545 85.202609 162.71289 84.949219 C 162.59749 84.695839 162.54102 84.127084 162.54102 83.240234 L 162.54102 80.361328 L 158.3125 80.361328 L 158.3125 81.910156 C 158.3125 83.683856 158.44615 85.052758 158.71289 86.017578 C 158.97964 86.982388 159.54247 87.776671 160.40039 88.400391 C 161.26553 89.024111 162.307 89.335938 163.52539 89.335938 C 164.63565 89.335937 165.60706 89.06726 166.44336 88.53125 C 167.27965 87.9855 167.84248 87.312812 168.13086 86.513672 C 168.42644 85.714532 168.57422 84.473089 168.57422 82.787109 C 168.57422 80.467649 168.31145 78.786921 167.78516 77.744141 C 167.25888 76.701361 165.98289 75.365791 163.95703 73.738281 C 163.25051 73.173031 162.82132 72.690586 162.66992 72.291016 C 162.51131 71.891446 162.43164 71.297213 162.43164 70.507812 C 162.43164 69.893843 162.49974 69.434933 162.63672 69.132812 C 162.7809 68.830702 162.99167 68.679688 163.26562 68.679688 C 163.51796 68.679688 163.69655 68.791475 163.80469 69.015625 C 163.91288 69.239775 163.96875 69.761438 163.96875 70.580078 L 163.96875 72.333984 L 168.19727 72.333984 L 168.19727 71.400391 C 168.19727 69.519491 168.05912 68.187853 167.78516 67.408203 C 167.51842 66.618803 166.96715 65.965729 166.13086 65.449219 C 165.30177 64.932699 164.29563 64.673828 163.11328 64.673828 z M 73.248047 65.171875 L 73.248047 88.837891 L 77.800781 88.837891 L 77.800781 79.306641 L 79.023438 79.306641 C 80.018348 79.306641 80.820794 79.122283 81.433594 78.751953 C 82.053604 78.381623 82.480228 77.850143 82.710938 77.158203 C 82.941637 76.466273 83.056641 75.366039 83.056641 73.855469 L 83.056641 71.794922 C 83.056641 70.313592 82.995607 69.221211 82.873047 68.519531 C 82.757697 67.808101 82.530246 67.204051 82.191406 66.707031 C 81.859766 66.210001 81.35797 65.829536 80.6875 65.566406 C 80.02423 65.303276 79.074014 65.171875 77.833984 65.171875 L 73.248047 65.171875 z M 96.476562 65.171875 L 96.476562 88.837891 L 101.0293 88.837891 L 101.0293 78.167969 C 101.65652 78.167969 102.04331 78.318984 102.1875 78.621094 C 102.33887 78.923214 102.41406 79.707679 102.41406 80.974609 L 102.41406 88.837891 L 106.64258 88.837891 L 106.64258 82.595703 C 106.64258 80.685563 106.60274 79.522576 106.52344 79.103516 C 106.45135 78.674706 106.25922 78.205989 105.94922 77.699219 C 105.63921 77.192449 105.03399 76.788448 104.13281 76.486328 C 105.12771 76.359638 105.79592 75.979163 106.13477 75.345703 C 106.47361 74.712233 106.64258 73.474733 106.64258 71.632812 C 106.64258 69.615473 106.401 68.148502 105.91797 67.232422 C 105.44214 66.306592 104.82279 65.731962 104.05859 65.507812 C 103.3016 65.283663 101.84763 65.171875 99.699219 65.171875 L 96.476562 65.171875 z M 107.63672 65.171875 L 107.63672 69.908203 L 110.33008 69.908203 L 110.33008 88.837891 L 114.88281 88.837891 L 114.88281 69.908203 L 117.58594 69.908203 L 117.58594 65.171875 L 107.63672 65.171875 z M 119.03516 65.171875 L 116.7207 88.837891 L 121.43555 88.837891 L 121.70703 84.583984 L 123.33984 84.583984 L 123.56641 88.837891 L 128.22656 88.837891 L 125.62109 65.171875 L 119.03516 65.171875 z M 129.00586 65.171875 L 129.00586 88.837891 L 133.55859 88.837891 L 133.55859 78.167969 C 134.18581 78.167969 134.57066 78.318984 134.71484 78.621094 C 134.86622 78.923214 134.94336 79.707679 134.94336 80.974609 L 134.94336 88.837891 L 139.17188 88.837891 L 139.17188 82.595703 C 139.17188 80.685563 139.13203 79.522576 139.05273 79.103516 C 138.98063 78.674706 138.78853 78.205989 138.47852 77.699219 C 138.16852 77.192449 137.56329 76.788448 136.66211 76.486328 C 137.65701 76.359638 138.32327 75.979163 138.66211 75.345703 C 139.00096 74.712233 139.17188 73.474733 139.17188 71.632812 C 139.17188 69.615473 138.93031 68.148502 138.44727 67.232422 C 137.97145 66.306592 137.35013 65.731962 136.58594 65.507812 C 135.82894 65.283663 134.37694 65.171875 132.22852 65.171875 L 129.00586 65.171875 z M 140.94531 65.171875 L 140.94531 88.837891 L 145.49805 88.837891 L 145.49805 65.171875 L 140.94531 65.171875 z M 148.58008 65.171875 L 146.26562 88.837891 L 150.98047 88.837891 L 151.25195 84.583984 L 152.88477 84.583984 L 153.11133 88.837891 L 157.77148 88.837891 L 155.16602 65.171875 L 148.58008 65.171875 z M 89.523438 68.679688 C 89.804607 68.679688 89.989672 68.836578 90.076172 69.148438 C 90.169882 69.450557 90.214844 70.150693 90.214844 71.251953 L 90.214844 82.128906 C 90.214844 83.522526 90.172438 84.405061 90.085938 84.775391 C 89.999428 85.145731 89.802188 85.330078 89.492188 85.330078 C 89.189388 85.330078 88.99275 85.169266 88.90625 84.847656 C 88.82699 84.526056 88.787109 83.678818 88.787109 82.304688 L 88.787109 71.251953 C 88.787109 70.033753 88.850096 69.304187 88.972656 69.060547 C 89.102426 68.807167 89.285528 68.679688 89.523438 68.679688 z M 77.800781 69.220703 C 78.391961 69.220703 78.78131 69.342298 78.96875 69.585938 C 79.1562 69.829578 79.25 70.357126 79.25 71.166016 L 79.25 73.109375 C 79.25 73.986475 79.167763 74.566989 79.001953 74.849609 C 78.843343 75.122489 78.552916 75.257812 78.134766 75.257812 C 78.041046 75.257812 77.930551 75.254141 77.800781 75.244141 L 77.800781 69.220703 z M 101.0293 69.220703 C 101.55559 69.220703 101.91667 69.338376 102.11133 69.572266 C 102.31319 69.806166 102.41406 70.298418 102.41406 71.048828 L 102.41406 72.349609 C 102.41406 73.392389 102.30869 74.010168 102.09961 74.205078 C 101.89775 74.390278 101.54117 74.484375 101.0293 74.484375 L 101.0293 69.220703 z M 133.55859 69.220703 C 134.08488 69.220703 134.44597 69.338376 134.64062 69.572266 C 134.84249 69.806166 134.94336 70.298418 134.94336 71.048828 L 134.94336 72.349609 C 134.94336 73.392389 134.83799 74.010168 134.62891 74.205078 C 134.42705 74.390278 134.07046 74.484375 133.55859 74.484375 L 133.55859 69.220703 z M 122.51758 70.462891 C 122.74829 74.400111 122.97828 77.710575 123.20898 80.390625 L 121.65234 80.390625 C 121.76769 78.295315 122.05618 74.984851 122.51758 70.462891 z M 152.0625 70.462891 C 152.29321 74.400111 152.52321 77.710575 152.75391 80.390625 L 151.19727 80.390625 C 151.31262 78.295315 151.6011 74.984851 152.0625 70.462891 z M 71.525391 106.45898 L 112.47656 106.45898 C 113.49447 106.45898 114.32617 107.29115 114.32617 108.30859 L 114.32617 112.11133 C 114.32617 113.12877 113.49447 113.96094 112.47656 113.96094 L 71.525391 113.96094 C 70.507481 113.96094 69.675781 113.12877 69.675781 112.11133 L 69.675781 108.30859 C 69.675781 107.29115 70.507481 106.45898 71.525391 106.45898 z M 129.34766 106.45898 L 170.29688 106.45898 C 171.31478 106.45898 172.14648 107.29115 172.14648 108.30859 L 172.14648 112.11133 C 172.14648 113.12877 171.31478 113.96094 170.29688 113.96094 L 129.34766 113.96094 C 128.33068 113.96094 127.49805 113.12877 127.49805 112.11133 L 127.49805 108.30859 C 127.49805 107.29115 128.33068 106.45898 129.34766 106.45898 z M 71.525391 126.86719 L 112.47656 126.86719 C 113.49447 126.86719 114.32617 127.70131 114.32617 128.71875 L 114.32617 132.52148 C 114.32617 133.53892 113.49447 134.37109 112.47656 134.37109 L 71.525391 134.37109 C 70.507481 134.37109 69.675781 133.53892 69.675781 132.52148 L 69.675781 128.71875 C 69.675781 127.70131 70.507481 126.86719 71.525391 126.86719 z M 129.34766 126.86719 L 170.29688 126.86719 C 171.31478 126.86719 172.14648 127.70131 172.14648 128.71875 L 172.14648 132.52148 C 172.14648 133.53892 171.31478 134.37109 170.29688 134.37109 L 129.34766 134.37109 C 128.33068 134.37109 127.49805 133.53892 127.49805 132.52148 L 127.49805 128.71875 C 127.49805 127.70131 128.33068 126.86719 129.34766 126.86719 z M 71.525391 147.27734 L 112.47656 147.27734 C 113.49447 147.27734 114.32617 148.11146 114.32617 149.12891 L 114.32617 152.92969 C 114.32617 153.94714 113.49447 154.78125 112.47656 154.78125 L 71.525391 154.78125 C 70.507481 154.78125 69.675781 153.94714 69.675781 152.92969 L 69.675781 149.12891 C 69.675781 148.11146 70.507481 147.27734 71.525391 147.27734 z M 129.34766 147.27734 L 170.29688 147.27734 C 171.31478 147.27734 172.14648 148.11146 172.14648 149.12891 L 172.14648 152.92969 C 172.14648 153.94714 171.31478 154.78125 170.29688 154.78125 L 129.34766 154.78125 C 128.33068 154.78125 127.49805 153.94714 127.49805 152.92969 L 127.49805 149.12891 C 127.49805 148.11146 128.33068 147.27734 129.34766 147.27734 z "
       transform="translate(0,832.36216)"
       id="rect4136" />
    <g
       id="g4198"
       transform="translate(-117.75595,786.58845)">
      <g
         id="g4139">
        <g
           id="Layer_5_10_">
          <g
             id="g4142">
            <g
               id="g4144" />
          </g>
        </g>
      </g>
      <g
         id="g4162" />
      <g
         id="g4164" />
      <g
         id="g4166" />
      <g
         id="g4168" />
      <g
         id="g4170" />
      <g
         id="g4172" />
      <g
         id="g4174" />
      <g
         id="g4176" />
      <g
         id="g4178" />
      <g
         id="g4180" />
      <g
         id="g4182" />
      <g
         id="g4184" />
      <g
         id="g4186" />
      <g
         id="g4188" />
      <g
         id="g4190" />
    </g>
  </g>
</svg>
