<?xml version="1.0" encoding="UTF-8" standalone="no"?>
<!-- Created with Inkscape (http://www.inkscape.org/) -->

<svg
   xmlns:dc="http://purl.org/dc/elements/1.1/"
   xmlns:cc="http://creativecommons.org/ns#"
   xmlns:rdf="http://www.w3.org/1999/02/22-rdf-syntax-ns#"
   xmlns:svg="http://www.w3.org/2000/svg"
   xmlns="http://www.w3.org/2000/svg"
   xmlns:sodipodi="http://sodipodi.sourceforge.net/DTD/sodipodi-0.dtd"
   xmlns:inkscape="http://www.inkscape.org/namespaces/inkscape"
   width="62.08889mm"
   height="62.08889mm"
   viewBox="0 0 220 220"
   id="svg3391"
   version="1.1"
   inkscape:version="0.91 r13725"
   sodipodi:docname="ufu_agencia_intelecto.svg">
  <defs
     id="defs3393" />
  <sodipodi:namedview
     id="base"
     pagecolor="#ffffff"
     bordercolor="#666666"
     borderopacity="1.0"
     inkscape:pageopacity="0.0"
     inkscape:pageshadow="2"
     inkscape:zoom="2.9590909"
     inkscape:cx="181.8126"
     inkscape:cy="110"
     inkscape:document-units="px"
     inkscape:current-layer="layer1"
     showgrid="false"
     fit-margin-top="0"
     fit-margin-left="0"
     fit-margin-right="0"
     fit-margin-bottom="0"
     inkscape:window-width="1600"
     inkscape:window-height="847"
     inkscape:window-x="1432"
     inkscape:window-y="-8"
     inkscape:window-maximized="1" />
  <metadata
     id="metadata3396">
    <rdf:RDF>
      <cc:Work
         rdf:about="">
        <dc:format>image/svg+xml</dc:format>
        <dc:type
           rdf:resource="http://purl.org/dc/dcmitype/StillImage" />
        <dc:title></dc:title>
      </cc:Work>
    </rdf:RDF>
  </metadata>
  <g
     inkscape:label="Camada 1"
     inkscape:groupmode="layer"
     id="layer1"
     transform="translate(-262.04724,-416.18109)">
    <path
       style="color:#000000;clip-rule:nonzero;display:inline;overflow:visible;visibility:visible;opacity:1;isolation:auto;mix-blend-mode:normal;color-interpolation:sRGB;color-interpolation-filters:linearRGB;solid-color:#000000;solid-opacity:1;fill:#ffffff;fill-opacity:1;fill-rule:nonzero;stroke:none;stroke-width:5;stroke-linecap:square;stroke-linejoin:miter;stroke-miterlimit:4;stroke-dasharray:none;stroke-dashoffset:0;stroke-opacity:1;color-rendering:auto;image-rendering:auto;shape-rendering:auto;text-rendering:auto;enable-background:accumulate"
       d="M 0 0 L 0 220 L 220 220 L 220 0 L 0 0 z M 67.042969 64.945312 L 114.03516 131.51562 L 114.03516 93.921875 L 135.96484 93.921875 L 135.96484 131.51562 L 114.03516 131.51562 L 93.509766 131.51562 L 67.042969 94.021484 L 40.578125 131.51562 L 20.052734 131.51562 L 67.042969 64.945312 z M 125.36133 64.945312 A 10.964647 10.964668 0 0 1 136.32617 75.910156 A 10.964647 10.964668 0 0 1 125.36133 86.873047 A 10.964647 10.964668 0 0 1 114.39648 75.910156 A 10.964647 10.964668 0 0 1 125.36133 64.945312 z M 165.16602 104.29492 L 166.7832 104.29492 L 168.30469 106.24219 L 166.82422 106.24219 L 165.97656 105.10352 L 165.13867 106.24219 L 163.64453 106.24219 L 165.16602 104.29492 z M 149.27734 104.47266 C 150.26417 104.47266 151.14101 104.8168 151.77148 105.44727 C 152.38824 106.06402 152.73242 106.94094 152.73242 107.91406 L 152.73242 114.21875 L 150.92383 114.21875 L 150.92383 111.55859 L 147.64648 111.55859 L 147.64648 114.21875 L 145.83789 114.21875 L 145.83789 107.91406 C 145.83789 106.94094 146.18012 106.06402 146.79688 105.44727 C 147.42734 104.8168 148.30423 104.47266 149.27734 104.47266 z M 187.24609 104.47266 C 187.73951 104.47266 188.15039 104.86983 188.15039 105.37695 L 188.15039 106.39258 L 186.32617 106.39258 L 186.32617 105.37695 C 186.32617 104.86983 186.73897 104.47266 187.24609 104.47266 z M 149.27734 106.24219 C 148.26312 106.24219 147.64648 106.85882 147.64648 107.87305 L 147.64648 109.81836 L 150.92383 109.81836 L 150.92383 107.87305 C 150.92383 106.85882 150.30529 106.24219 149.27734 106.24219 z M 157.625 106.98242 C 159.7494 106.98242 161.24219 108.65509 161.24219 110.69727 L 161.24219 113.86328 C 161.24219 116.20697 159.84545 117.67188 157.58398 117.67188 C 155.88447 117.67187 154.43036 116.69902 154.15625 115.20508 L 156.13086 115.20508 C 156.36386 115.76702 157.09058 115.98633 157.58398 115.98633 C 158.85863 115.98633 159.43359 115.15156 159.43359 113.89062 L 159.43359 113.57422 C 158.89907 114.09504 158.17189 114.36914 157.37695 114.36914 C 155.51296 114.36914 153.99219 112.72572 153.99219 110.69727 C 153.99219 108.65509 155.48689 106.98242 157.625 106.98242 z M 165.99023 106.98242 C 167.68976 106.98242 169.11439 108.05196 169.45703 109.94336 L 164.46875 112.03906 C 164.8251 112.51876 165.3598 112.79297 165.97656 112.79297 C 166.56591 112.79297 167.16918 112.53264 167.4707 111.9707 L 169.40039 111.9707 C 168.98921 113.40981 167.74458 114.38281 165.99023 114.38281 C 163.98919 114.38281 162.37109 112.73943 162.37109 110.69727 C 162.37109 108.65509 163.98919 106.98242 165.99023 106.98242 z M 173.75 106.98242 C 175.72364 106.98242 176.88867 108.28448 176.88867 110.13477 L 176.88867 114.21875 L 175.08008 114.21875 L 175.08008 110.09375 C 175.08008 109.69628 174.94241 108.75 173.75 108.75 C 172.95506 108.75 172.37891 109.29881 172.37891 110.09375 L 172.37891 114.21875 L 170.57031 114.21875 L 170.57031 110.13477 C 170.57031 108.33929 171.83118 106.98242 173.75 106.98242 z M 181.70312 106.98242 C 183.40264 106.98242 184.69039 107.94137 185.10156 109.53125 L 183.16797 109.53125 C 182.92126 109.05154 182.361 108.64062 181.70312 108.64062 C 180.7026 108.64062 179.89453 109.57335 179.89453 110.71094 C 179.89453 111.82111 180.7026 112.73828 181.70312 112.73828 C 182.37471 112.73828 182.9506 112.3274 183.18359 111.83398 L 185.11523 111.83398 C 184.70407 113.43757 183.41635 114.38281 181.70312 114.38281 C 179.57873 114.38281 178.05859 112.73943 178.05859 110.69727 C 178.05859 108.65509 179.57873 106.98242 181.70312 106.98242 z M 193.06641 106.98242 C 195.19081 106.98242 196.68555 108.65509 196.68555 110.69727 L 196.68555 114.21875 L 194.9707 114.21875 L 194.9707 113.47852 C 194.43617 114.06787 193.67008 114.36914 192.82031 114.36914 C 190.95632 114.36914 189.43555 112.72572 189.43555 110.69727 C 189.43555 108.65509 190.9283 106.98242 193.06641 106.98242 z M 186.33984 107.16016 L 188.15039 107.16016 L 188.15039 114.21875 L 186.33984 114.21875 L 186.33984 107.16016 z M 165.97656 108.57031 C 164.93492 108.57031 164.09771 109.39349 164.05664 110.59961 L 167.37305 109.20312 C 167.04411 108.80566 166.55221 108.57031 165.97656 108.57031 z M 157.625 108.68164 C 156.62448 108.68164 155.81445 109.54594 155.81445 110.71094 C 155.81445 111.83482 156.62448 112.69727 157.625 112.69727 C 158.62552 112.69727 159.43359 111.8074 159.43359 110.71094 C 159.43359 109.58706 158.62552 108.68164 157.625 108.68164 z M 193.06641 108.68164 C 192.06588 108.68164 191.25781 109.54594 191.25781 110.71094 C 191.25781 111.83482 192.06588 112.69727 193.06641 112.69727 C 194.06693 112.69727 194.87695 111.8074 194.87695 110.71094 C 194.87695 109.58706 194.06693 108.68164 193.06641 108.68164 z M 67.046875 120.34766 A 15.663782 15.663812 0 0 1 82.039062 131.51562 L 52.050781 131.51562 A 15.663782 15.663812 0 0 1 67.046875 120.34766 z M 169.20312 121.1543 L 171.02734 121.1543 L 171.02734 128.39062 C 171.02734 129.39116 171.47826 129.74818 172.36914 129.69336 L 172.36914 131.33789 C 170.29957 131.55718 169.20312 130.32315 169.20312 128.39062 L 169.20312 121.1543 z M 145.90625 121.83984 L 147.71484 121.83984 L 147.71484 131.35156 L 145.90625 131.35156 L 145.90625 121.83984 z M 157.19922 122.49609 L 159.00781 122.49609 L 159.00781 124.29297 L 160.28125 124.29297 L 160.28125 125.89453 L 159.00781 125.89453 L 159.00781 128.39062 C 159.00781 129.37745 159.46065 129.74818 160.36523 129.69336 L 160.36523 131.33789 C 158.29566 131.55718 157.19922 130.30948 157.19922 128.37695 L 157.19922 122.49609 z M 188.97266 122.49609 L 190.7832 122.49609 L 190.7832 124.29297 L 192.05859 124.29297 L 192.05859 125.89453 L 190.7832 125.89453 L 190.7832 128.39062 C 190.7832 129.37745 191.23409 129.74818 192.13867 129.69336 L 192.13867 131.33789 C 190.0691 131.55718 188.97266 130.30948 188.97266 128.37695 L 188.97266 122.49609 z M 152.57617 124.11523 C 154.5498 124.11523 155.71484 125.41729 155.71484 127.26758 L 155.71484 131.35156 L 153.90625 131.35156 L 153.90625 127.22461 C 153.90625 126.82714 153.76857 125.88086 152.57617 125.88086 C 151.78123 125.88086 151.20508 126.42967 151.20508 127.22461 L 151.20508 131.35156 L 149.39648 131.35156 L 149.39648 127.26758 C 149.39648 125.47211 150.65736 124.11523 152.57617 124.11523 z M 164.73047 124.11523 C 166.42999 124.11523 167.85656 125.1828 168.19922 127.07422 L 163.21094 129.17188 C 163.56729 129.65157 164.10198 129.92383 164.71875 129.92383 C 165.3081 129.92383 165.91136 129.66545 166.21289 129.10352 L 168.14258 129.10352 C 167.73141 130.54263 166.48481 131.51562 164.73047 131.51562 C 162.72942 131.51562 161.11328 129.8703 161.11328 127.82812 C 161.11328 125.78596 162.72942 124.11523 164.73047 124.11523 z M 176.53516 124.11523 C 178.23468 124.11523 179.65931 125.1828 180.00195 127.07422 L 175.01367 129.17188 C 175.37002 129.65157 175.90473 129.92383 176.52148 129.92383 C 177.11083 129.92383 177.7141 129.66545 178.01562 129.10352 L 179.94922 129.10352 C 179.53804 130.54263 178.2895 131.51562 176.53516 131.51562 C 174.53411 131.51562 172.91602 129.8703 172.91602 127.82812 C 172.91602 125.78596 174.53411 124.11523 176.53516 124.11523 z M 184.48633 124.11523 C 186.18585 124.11523 187.47554 125.07418 187.88672 126.66406 L 185.95312 126.66406 C 185.70642 126.18436 185.14421 125.77344 184.48633 125.77344 C 183.48581 125.77344 182.67773 126.70421 182.67773 127.8418 C 182.67773 128.95197 183.48581 129.87109 184.48633 129.87109 C 185.15791 129.87109 185.7338 129.46021 185.9668 128.9668 L 187.90039 128.9668 C 187.48921 130.57038 186.19955 131.51562 184.48633 131.51562 C 182.36193 131.51562 180.8418 129.8703 180.8418 127.82812 C 180.8418 125.78596 182.36193 124.11523 184.48633 124.11523 z M 196.4375 124.11523 C 198.39744 124.11523 200 125.71743 200 127.82812 C 200 129.93883 198.39744 131.51562 196.4375 131.51562 C 194.47757 131.51562 192.88672 129.93883 192.88672 127.82812 C 192.88672 125.71743 194.47757 124.11523 196.4375 124.11523 z M 164.71875 125.70312 C 163.67711 125.70312 162.84 126.52631 162.79883 127.73242 L 166.11523 126.33398 C 165.7863 125.93651 165.29439 125.70312 164.71875 125.70312 z M 176.52148 125.70312 C 175.47984 125.70312 174.64468 126.52631 174.60352 127.73242 L 177.92188 126.33398 C 177.59294 125.93651 177.09713 125.70312 176.52148 125.70312 z M 196.4375 125.77344 C 195.4781 125.77344 194.69531 126.62198 194.69531 127.8418 C 194.69531 129.0342 195.4781 129.85742 196.4375 129.85742 C 197.3969 129.85742 198.17773 129.0342 198.17773 127.8418 C 198.17773 126.62198 197.3969 125.77344 196.4375 125.77344 z M 120.29492 144.38672 L 121.74219 144.38672 L 121.74219 149.72656 C 121.74219 151.3603 120.54718 152.67578 118.84766 152.67578 C 117.13717 152.67578 115.94336 151.3603 115.94336 149.72656 C 115.94336 148.10379 117.15844 146.77734 118.63867 146.77734 C 119.30751 146.77734 119.85634 146.98405 120.29492 147.43359 L 120.29492 144.38672 z M 133.61719 144.38672 L 135.0625 144.38672 L 135.0625 149.72656 C 135.0625 151.3603 133.86749 152.67578 132.16797 152.67578 C 130.45749 152.67578 129.26367 151.3603 129.26367 149.72656 C 129.26368 148.10379 130.48072 146.77734 131.96094 146.77734 C 132.62979 146.77734 133.1786 146.98405 133.61719 147.43359 L 133.61719 144.38672 z M 164.60352 144.38672 L 166.06055 144.38672 L 166.06055 150.17773 C 166.06055 150.97816 166.42402 151.26259 167.13672 151.21875 L 167.13672 152.5332 C 165.48105 152.70863 164.60352 151.72375 164.60352 150.17773 L 164.60352 144.38672 z M 196.91992 144.38672 L 198.37891 144.38672 L 198.37891 150.17773 C 198.37891 150.97816 198.74042 151.26259 199.45312 151.21875 L 199.45312 152.5332 C 197.79746 152.70863 196.91992 151.72375 196.91992 150.17773 L 196.91992 144.38672 z M 57.888672 144.73828 L 58.568359 144.73828 C 58.48065 145.40713 58.108741 146.04297 57.417969 146.04297 C 56.782012 146.04297 56.310436 145.63672 55.882812 145.63672 C 55.630629 145.63672 55.465466 145.76991 55.388672 146.08789 L 54.710938 146.08789 C 54.809612 145.43 55.181384 144.7832 55.916016 144.7832 C 56.551963 144.7832 57.012276 145.19727 57.417969 145.19727 C 57.670153 145.19727 57.800992 145.06723 57.888672 144.73828 z M 82.996094 144.75 C 84.607892 144.75 85.833984 145.99815 85.833984 147.5332 C 85.833984 149.12308 84.528919 150.33008 83.103516 150.33008 L 81.613281 150.33008 L 81.613281 152.54492 L 80.166016 152.54492 L 80.166016 147.5332 C 80.166016 145.99815 81.395251 144.75 82.996094 144.75 z M 107.85156 144.75 C 108.24629 144.75 108.57422 145.06696 108.57422 145.47266 L 108.57422 146.28516 L 107.11719 146.28516 L 107.11719 145.47266 C 107.11719 145.06696 107.44587 144.75 107.85156 144.75 z M 20 144.93555 L 21.447266 144.93555 L 21.447266 152.54492 L 20 152.54492 L 20 144.93555 z M 145.96484 144.93555 L 147.41406 144.93555 L 147.41406 152.54492 L 145.96484 152.54492 L 145.96484 144.93555 z M 155 145.46094 L 156.44727 145.46094 L 156.44727 146.89648 L 157.4668 146.89648 L 157.4668 148.17969 L 156.44727 148.17969 L 156.44727 150.17773 C 156.44727 150.96719 156.80758 151.26259 157.53125 151.21875 L 157.53125 152.5332 C 155.87558 152.70863 155 151.71203 155 150.16602 L 155 145.46094 z M 180.41797 145.46094 L 181.86523 145.46094 L 181.86523 146.89648 L 182.88672 146.89648 L 182.88672 148.17969 L 181.86523 148.17969 L 181.86523 150.17773 C 181.86523 150.96719 182.22946 151.26259 182.95312 151.21875 L 182.95312 152.5332 C 181.29746 152.70863 180.41797 151.71203 180.41797 150.16602 L 180.41797 145.46094 z M 82.996094 146.11914 C 82.239532 146.11914 81.613281 146.76598 81.613281 147.56641 L 81.613281 149.00391 L 82.996094 149.00391 C 83.76362 149.00391 84.386719 148.35586 84.386719 147.56641 C 84.386719 146.76598 83.76362 146.11914 82.996094 146.11914 z M 25.335938 146.75586 C 26.914841 146.75586 27.847656 147.79516 27.847656 149.27539 L 27.847656 152.54492 L 26.400391 152.54492 L 26.400391 149.24414 C 26.400391 148.92617 26.289858 148.16797 25.335938 148.16797 C 24.69998 148.16797 24.240234 148.60819 24.240234 149.24414 L 24.240234 152.54492 L 22.792969 152.54492 L 22.792969 149.27539 C 22.792969 147.83902 23.800884 146.75586 25.335938 146.75586 z M 31.623047 146.75586 C 33.190995 146.75586 34.472656 148.038 34.472656 149.72656 C 34.472656 151.41513 33.190995 152.67578 31.623047 152.67578 C 30.055099 152.67578 28.783203 151.41513 28.783203 149.72656 C 28.783203 148.038 30.055099 146.75586 31.623047 146.75586 z M 43.53125 146.75586 C 45.230778 146.75586 46.425781 148.09282 46.425781 149.72656 L 46.425781 152.54492 L 45.052734 152.54492 L 45.052734 151.95312 C 44.625111 152.42461 44.013791 152.66406 43.333984 152.66406 C 41.842801 152.66406 40.625 151.34934 40.625 149.72656 C 40.625 148.09282 41.820767 146.75586 43.53125 146.75586 z M 50.287109 146.75586 C 51.646723 146.75586 52.677675 147.52303 53.017578 148.79492 L 51.460938 148.79492 C 51.241648 148.41116 50.813407 148.1582 50.287109 148.1582 C 49.486688 148.1582 48.839844 148.87207 48.839844 149.73828 C 48.839844 150.58256 49.486688 151.28516 50.287109 151.28516 C 50.824372 151.28516 51.251414 151.03145 51.470703 150.63672 L 53.017578 150.63672 C 52.699604 151.89766 51.700965 152.65464 50.363281 152.6875 L 50.099609 153.11523 C 50.582057 152.92883 51.339844 153.13615 51.339844 153.83789 C 51.339844 154.38612 50.933131 154.71484 50.330078 154.71484 C 49.946315 154.71484 49.542446 154.51902 49.279297 154.25586 L 49.476562 153.91602 C 49.684897 154.11337 49.979792 154.21094 50.253906 154.21094 C 50.5061 154.21094 50.714844 154.09159 50.714844 153.86133 C 50.714844 153.67493 50.549504 153.49805 50.275391 153.49805 C 50.143811 153.49805 50.013193 153.53098 49.892578 153.64062 L 49.498047 153.37695 L 49.871094 152.6543 C 48.390865 152.45694 47.371094 151.21851 47.371094 149.73828 C 47.371094 148.09358 48.587582 146.75586 50.287109 146.75586 z M 56.529297 146.75586 C 58.228814 146.75586 59.423828 148.09282 59.423828 149.72656 L 59.423828 152.54492 L 58.054688 152.54492 L 58.054688 151.95312 C 57.627074 152.42461 57.011838 152.66406 56.332031 152.66406 C 54.840838 152.66406 53.623047 151.34934 53.623047 149.72656 C 53.623047 148.09282 54.818814 146.75586 56.529297 146.75586 z M 63.208984 146.75586 C 64.776923 146.75586 66.060547 148.038 66.060547 149.72656 C 66.060547 151.41513 64.776923 152.67578 63.208984 152.67578 C 61.641036 152.67578 60.369141 151.41513 60.369141 149.72656 C 60.369141 148.038 61.641036 146.75586 63.208984 146.75586 z M 72.986328 146.75586 C 74.345942 146.75586 75.485652 147.60992 75.759766 149.12305 L 71.769531 150.80078 C 72.05461 151.18454 72.481197 151.4043 72.974609 151.4043 C 73.446092 151.4043 73.930656 151.1976 74.171875 150.74805 L 75.716797 150.74805 C 75.387858 151.89934 74.389802 152.67578 72.986328 152.67578 C 71.385485 152.67578 70.091797 151.3603 70.091797 149.72656 C 70.091797 148.09282 71.385485 146.75586 72.986328 146.75586 z M 92.806641 146.75586 C 94.374589 146.75586 95.65625 148.038 95.65625 149.72656 C 95.65625 151.41513 94.374589 152.67578 92.806641 152.67578 C 91.238692 152.67578 89.964844 151.41513 89.964844 149.72656 C 89.964844 148.038 91.238692 146.75586 92.806641 146.75586 z M 99.332031 146.75586 C 101.03155 146.75586 102.22656 148.08231 102.22656 149.70508 C 102.22656 151.33881 101.02049 152.66406 99.529297 152.66406 C 98.87142 152.66406 98.314342 152.4464 97.886719 152.00781 L 97.886719 155.05469 L 96.425781 155.05469 L 96.425781 149.70508 C 96.425781 148.08231 97.621549 146.75586 99.332031 146.75586 z M 112.49805 146.75586 C 113.85766 146.75586 114.99737 147.60992 115.27148 149.12305 L 111.28125 150.80078 C 111.56633 151.18454 111.99292 151.4043 112.48633 151.4043 C 112.95781 151.4043 113.44237 151.1976 113.68359 150.74805 L 115.22852 150.74805 C 114.89958 151.89934 113.90152 152.67578 112.49805 152.67578 C 110.8972 152.67578 109.60352 151.3603 109.60352 149.72656 C 109.60352 148.09282 110.8972 146.75586 112.49805 146.75586 z M 125.42383 146.75586 C 127.12335 146.75586 128.31641 148.09282 128.31641 149.72656 L 128.31641 152.54492 L 126.94531 152.54492 L 126.94531 151.95312 C 126.51769 152.42461 125.90637 152.66406 125.22656 152.66406 C 123.73537 152.66406 122.51562 151.34934 122.51562 149.72656 C 122.51562 148.09282 123.71334 146.75586 125.42383 146.75586 z M 138.73242 146.75586 C 140.09205 146.75586 141.23175 147.60992 141.50586 149.12305 L 137.51562 150.80078 C 137.8007 151.18454 138.22729 151.4043 138.7207 151.4043 C 139.19218 151.4043 139.67479 151.1976 139.91602 150.74805 L 141.46094 150.74805 C 141.132 151.89934 140.13591 152.67578 138.73242 152.67578 C 137.13159 152.67578 135.83789 151.3603 135.83789 149.72656 C 135.83789 148.09282 137.13159 146.75586 138.73242 146.75586 z M 151.30273 146.75586 C 152.88164 146.75586 153.8125 147.79516 153.8125 149.27539 L 153.8125 152.54492 L 152.36523 152.54492 L 152.36523 149.24414 C 152.36523 148.92617 152.25666 148.16797 151.30273 148.16797 C 150.66678 148.16797 150.20508 148.60819 150.20508 149.24414 L 150.20508 152.54492 L 148.75781 152.54492 L 148.75781 149.27539 C 148.75781 147.83902 149.76768 146.75586 151.30273 146.75586 z M 161.02539 146.75586 C 162.385 146.75586 163.52471 147.60992 163.79883 149.12305 L 159.80859 150.80078 C 160.09367 151.18454 160.52026 151.4043 161.01367 151.4043 C 161.48515 151.4043 161.96777 151.1976 162.20898 150.74805 L 163.75586 150.74805 C 163.42692 151.89934 162.42886 152.67578 161.02539 152.67578 C 159.42455 152.67578 158.13086 151.3603 158.13086 149.72656 C 158.13086 148.09282 159.42455 146.75586 161.02539 146.75586 z M 170.4707 146.75586 C 171.83032 146.75586 172.97003 147.60992 173.24414 149.12305 L 169.25195 150.80078 C 169.53703 151.18454 169.96557 151.4043 170.45898 151.4043 C 170.93047 151.4043 171.41112 151.1976 171.65234 150.74805 L 173.19922 150.74805 C 172.87028 151.89934 171.87418 152.67578 170.4707 152.67578 C 168.86986 152.67578 167.57422 151.3603 167.57422 149.72656 C 167.57422 148.09282 168.86986 146.75586 170.4707 146.75586 z M 176.83008 146.75586 C 178.18969 146.75586 179.22184 147.52303 179.55078 148.79492 L 178.00391 148.79492 C 177.80654 148.41116 177.35639 148.08203 176.83008 148.08203 C 176.02966 148.08203 175.38281 148.82821 175.38281 149.73828 C 175.38281 150.62642 176.02966 151.35938 176.83008 151.35938 C 177.36735 151.35938 177.82728 151.03145 178.01367 150.63672 L 179.56055 150.63672 C 179.23161 151.91959 178.20066 152.67578 176.83008 152.67578 C 175.13056 152.67578 173.91406 151.3603 173.91406 149.72656 C 173.91406 148.09282 175.13056 146.75586 176.83008 146.75586 z M 192.83789 146.75586 C 194.53742 146.75586 195.73242 148.09282 195.73242 149.72656 L 195.73242 152.54492 L 194.36133 152.54492 L 194.36133 151.95312 C 193.93371 152.42461 193.32043 152.66406 192.64062 152.66406 C 191.14943 152.66406 189.93164 151.34934 189.93164 149.72656 C 189.93164 148.09282 191.12741 146.75586 192.83789 146.75586 z M 88.861328 146.76367 C 89.071048 146.75199 89.292973 146.76026 89.527344 146.78906 L 89.527344 148.14844 C 88.606318 147.98396 87.994141 148.47692 87.994141 149.27734 L 87.994141 152.54492 L 86.546875 152.54492 L 86.546875 149.27734 C 86.546875 147.87661 87.393292 146.84541 88.861328 146.76367 z M 105.48047 146.76367 C 105.69019 146.75199 105.91211 146.76026 106.14648 146.78906 L 106.14648 148.14844 C 105.22546 147.98396 104.61133 148.47692 104.61133 149.27734 L 104.61133 152.54492 L 103.16406 152.54492 L 103.16406 149.27734 C 103.16406 147.87661 104.01243 146.84541 105.48047 146.76367 z M 34.630859 146.89648 L 36.144531 146.89648 L 37.548828 151.10938 L 38.962891 146.89648 L 40.453125 146.89648 L 38.328125 152.54492 L 36.769531 152.54492 L 34.630859 146.89648 z M 107.12891 146.89648 L 108.57422 146.89648 L 108.57422 152.54492 L 107.12891 152.54492 L 107.12891 146.89648 z M 183.94141 146.89648 L 185.38867 146.89648 L 185.38867 150.19922 C 185.38867 150.51719 185.50116 151.27344 186.45508 151.27344 C 187.09103 151.27344 187.55078 150.82421 187.55078 150.19922 L 187.55078 146.89648 L 188.99805 146.89648 L 188.99805 150.1543 C 188.99805 151.59067 187.99013 152.67578 186.45508 152.67578 C 184.87617 152.67578 183.94141 151.63453 183.94141 150.1543 L 183.94141 146.89648 z M 72.974609 148.02734 C 72.141293 148.02734 71.474262 148.68549 71.441406 149.65039 L 74.09375 148.5332 C 73.830601 148.21523 73.435127 148.02734 72.974609 148.02734 z M 112.48633 148.02734 C 111.65301 148.02734 110.98403 148.68549 110.95117 149.65039 L 113.60547 148.5332 C 113.34232 148.21523 112.94685 148.02734 112.48633 148.02734 z M 138.7207 148.02734 C 137.88739 148.02734 137.2184 148.68549 137.18555 149.65039 L 139.83984 148.5332 C 139.57669 148.21523 139.18121 148.02734 138.7207 148.02734 z M 161.01367 148.02734 C 160.18036 148.02734 159.51332 148.68549 159.48047 149.65039 L 162.13281 148.5332 C 161.86966 148.21523 161.47419 148.02734 161.01367 148.02734 z M 170.45898 148.02734 C 169.62567 148.02734 168.95668 148.68549 168.92383 149.65039 L 171.57812 148.5332 C 171.31497 148.21523 170.9195 148.02734 170.45898 148.02734 z M 31.623047 148.08203 C 30.85552 148.08203 30.228516 148.76242 30.228516 149.73828 C 30.228516 150.6922 30.85552 151.34961 31.623047 151.34961 C 32.390574 151.34961 33.013672 150.6922 33.013672 149.73828 C 33.013672 148.76242 32.390574 148.08203 31.623047 148.08203 z M 63.208984 148.08203 C 62.441458 148.08203 61.816406 148.76242 61.816406 149.73828 C 61.816406 150.6922 62.441458 151.34961 63.208984 151.34961 C 63.976511 151.34961 64.601562 150.6922 64.601562 149.73828 C 64.601562 148.76242 63.976511 148.08203 63.208984 148.08203 z M 92.806641 148.08203 C 92.039114 148.08203 91.412109 148.76242 91.412109 149.73828 C 91.412109 150.6922 92.039114 151.34961 92.806641 151.34961 C 93.574167 151.34961 94.197266 150.6922 94.197266 149.73828 C 94.197266 148.76242 93.574167 148.08203 92.806641 148.08203 z M 43.53125 148.11523 C 42.730829 148.11523 42.082031 148.80628 42.082031 149.73828 C 42.082031 150.63739 42.730829 151.32812 43.53125 151.32812 C 44.331671 151.32812 44.978516 150.61546 44.978516 149.73828 C 44.978516 148.83918 44.331671 148.11523 43.53125 148.11523 z M 56.529297 148.11523 C 55.728875 148.11523 55.083984 148.80628 55.083984 149.73828 C 55.083984 150.63739 55.728875 151.32812 56.529297 151.32812 C 57.329718 151.32812 57.976562 150.61546 57.976562 149.73828 C 57.976562 148.83918 57.329718 148.11523 56.529297 148.11523 z M 99.332031 148.11523 C 98.53161 148.11523 97.886719 148.8279 97.886719 149.70508 C 97.886719 150.60417 98.53161 151.32812 99.332031 151.32812 C 100.13245 151.32812 100.7793 150.6261 100.7793 149.70508 C 100.7793 148.79501 100.13245 148.11523 99.332031 148.11523 z M 118.84766 148.11523 C 118.04724 148.11523 117.40039 148.80628 117.40039 149.73828 C 117.40039 150.63739 118.04724 151.32812 118.84766 151.32812 C 119.64808 151.32812 120.29492 150.61546 120.29492 149.73828 C 120.29493 148.83918 119.64808 148.11523 118.84766 148.11523 z M 125.42383 148.11523 C 124.62341 148.11523 123.97461 148.80628 123.97461 149.73828 C 123.9746 150.63739 124.62341 151.32812 125.42383 151.32812 C 126.22424 151.32812 126.87109 150.61546 126.87109 149.73828 C 126.87109 148.83918 126.22424 148.11523 125.42383 148.11523 z M 132.16797 148.11523 C 131.36755 148.11523 130.7207 148.80628 130.7207 149.73828 C 130.7207 150.63739 131.36755 151.32812 132.16797 151.32812 C 132.96839 151.32812 133.61719 150.61546 133.61719 149.73828 C 133.61719 148.83918 132.96839 148.11523 132.16797 148.11523 z M 192.83789 148.11523 C 192.03747 148.11523 191.39062 148.80628 191.39062 149.73828 C 191.39062 150.63739 192.03747 151.32812 192.83789 151.32812 C 193.63831 151.32812 194.28516 150.61546 194.28516 149.73828 C 194.28516 148.83918 193.63831 148.11523 192.83789 148.11523 z "
       transform="translate(262.04724,416.18109)"
       id="rect3422" />
    <g
       id="g18002"
       transform="matrix(0.78318914,0,0,0.78319055,866.15412,115.0913)">
      <g
         id="g18134" />
    </g>
  </g>
</svg>
