<?xml version="1.0" encoding="UTF-8" standalone="no"?>
<!-- Created with Inkscape (http://www.inkscape.org/) -->

<svg
   xmlns:dc="http://purl.org/dc/elements/1.1/"
   xmlns:cc="http://creativecommons.org/ns#"
   xmlns:rdf="http://www.w3.org/1999/02/22-rdf-syntax-ns#"
   xmlns:svg="http://www.w3.org/2000/svg"
   xmlns="http://www.w3.org/2000/svg"
   xmlns:sodipodi="http://sodipodi.sourceforge.net/DTD/sodipodi-0.dtd"
   xmlns:inkscape="http://www.inkscape.org/namespaces/inkscape"
   width="220"
   height="220"
   viewBox="0 0 220 220"
   id="svg5354"
   version="1.1"
   inkscape:version="0.91 r13725"
   sodipodi:docname="ufu_eventos.svg">
  <defs
     id="defs5356" />
  <sodipodi:namedview
     id="base"
     pagecolor="#ffffff"
     bordercolor="#666666"
     borderopacity="1.0"
     inkscape:pageopacity="0.0"
     inkscape:pageshadow="2"
     inkscape:zoom="2.9590909"
     inkscape:cx="115.40707"
     inkscape:cy="110"
     inkscape:document-units="px"
     inkscape:current-layer="layer1"
     showgrid="false"
     units="px"
     inkscape:window-width="1440"
     inkscape:window-height="847"
     inkscape:window-x="-8"
     inkscape:window-y="-8"
     inkscape:window-maximized="1" />
  <metadata
     id="metadata5359">
    <rdf:RDF>
      <cc:Work
         rdf:about="">
        <dc:format>image/svg+xml</dc:format>
        <dc:type
           rdf:resource="http://purl.org/dc/dcmitype/StillImage" />
        <dc:title></dc:title>
      </cc:Work>
    </rdf:RDF>
  </metadata>
  <g
     inkscape:label="Camada 1"
     inkscape:groupmode="layer"
     id="layer1"
     transform="translate(0,-832.36213)">
    <path
       style="color:#000000;clip-rule:nonzero;display:inline;overflow:visible;visibility:visible;opacity:1;isolation:auto;mix-blend-mode:normal;color-interpolation:sRGB;color-interpolation-filters:linearRGB;solid-color:#000000;solid-opacity:1;fill:#ffffff;fill-opacity:1;fill-rule:nonzero;stroke:none;stroke-width:5;stroke-linecap:square;stroke-linejoin:miter;stroke-miterlimit:4;stroke-dasharray:none;stroke-dashoffset:0;stroke-opacity:1;color-rendering:auto;image-rendering:auto;shape-rendering:auto;text-rendering:auto;enable-background:accumulate"
       d="M 0 0 L 0 220 L 220 220 L 220 0 L 0 0 z M 149.88867 31.416016 L 152.17773 31.416016 C 155.65618 31.416016 158.47656 34.235411 158.47656 37.712891 L 158.47656 42.720703 L 158.47656 61.595703 C 158.47656 65.073833 155.65618 67.894531 152.17773 67.894531 L 149.88867 67.894531 C 146.4102 67.894531 143.58854 65.074173 143.58789 61.595703 L 143.58789 42.720703 L 143.58789 37.712891 C 143.58789 34.235411 146.40955 31.416016 149.88867 31.416016 z M 69.099609 31.568359 L 71.388672 31.568359 C 74.867456 31.568359 77.6875 34.391341 77.6875 37.869141 L 77.6875 44.371094 L 77.6875 61.751953 C 77.6875 65.229753 74.867456 68.050781 71.388672 68.050781 L 69.099609 68.050781 C 65.621154 68.050781 62.802734 65.229753 62.802734 61.751953 L 62.802734 44.371094 L 62.802734 37.869141 C 62.802735 34.391341 65.621154 31.568359 69.099609 31.568359 z M 40.240234 44.371094 L 57.681641 44.371094 L 57.681641 61.751953 C 57.681641 68.048343 62.80355 73.169922 69.099609 73.169922 L 71.388672 73.169922 C 77.68506 73.169922 82.806641 68.048343 82.806641 61.751953 L 82.806641 44.371094 L 138.4707 44.371094 L 138.4707 61.595703 C 138.4707 67.892093 143.59227 73.013672 149.88867 73.013672 L 152.17773 73.013672 C 158.47346 73.013672 163.5957 69.542484 163.5957 63.246094 L 163.5957 44.371094 L 179.75977 44.371094 C 185.40587 44.371094 190.00065 48.965228 190 54.611328 L 190 178.3457 C 190 183.9921 185.40587 188.58398 179.75977 188.58398 L 40.240234 188.58398 C 34.594137 188.58398 30 183.9921 30 178.3457 L 30 54.611328 C 30 48.964898 34.594137 44.371094 40.240234 44.371094 z M 40.240234 84.902344 L 40.242188 178.3457 L 179.75977 178.3457 L 179.76758 178.3457 L 179.76367 84.904297 L 40.240234 84.902344 z M 110.55469 91.302734 L 122.67383 117.0625 L 150.76172 121.68359 L 130.00781 141.16797 L 134.29297 169.30859 L 109.34961 155.5918 L 83.910156 168.36523 L 89.246094 140.40234 L 69.238281 120.1543 L 97.480469 116.58984 L 110.55469 91.302734 z "
       transform="translate(0,832.36213)"
       id="rect4232" />
    <g
       id="g5972"
       transform="matrix(0.24744768,0,0,0.24744768,24.12566,862.36243)">
      <g
         id="g5905">
        <g
           id="_x31_5_38_">
          <g
             id="g5908" />
        </g>
      </g>
      <g
         id="g5936" />
      <g
         id="g5938" />
      <g
         id="g5940" />
      <g
         id="g5942" />
      <g
         id="g5944" />
      <g
         id="g5946" />
      <g
         id="g5948" />
      <g
         id="g5950" />
      <g
         id="g5952" />
      <g
         id="g5954" />
      <g
         id="g5956" />
      <g
         id="g5958" />
      <g
         id="g5960" />
      <g
         id="g5962" />
      <g
         id="g5964" />
    </g>
    <g
       id="g6052"
       transform="matrix(0.09398474,0,0,0.09398474,140.524,980.12437)">
      <g
         id="g6006">
        <g
           id="g6008" />
      </g>
      <g
         id="g6016" />
      <g
         id="g6018" />
      <g
         id="g6020" />
      <g
         id="g6022" />
      <g
         id="g6024" />
      <g
         id="g6026" />
      <g
         id="g6028" />
      <g
         id="g6030" />
      <g
         id="g6032" />
      <g
         id="g6034" />
      <g
         id="g6036" />
      <g
         id="g6038" />
      <g
         id="g6040" />
      <g
         id="g6042" />
      <g
         id="g6044" />
    </g>
    <g
       transform="matrix(0.24744768,0,0,0.24744768,-235.41351,862.36243)"
       id="g6148">
      <g
         id="g6150">
        <g
           id="g6152">
          <g
             id="g6154" />
        </g>
      </g>
      <g
         id="g6182" />
      <g
         id="g6184" />
      <g
         id="g6186" />
      <g
         id="g6188" />
      <g
         id="g6190" />
      <g
         id="g6192" />
      <g
         id="g6194" />
      <g
         id="g6196" />
      <g
         id="g6198" />
      <g
         id="g6200" />
      <g
         id="g6202" />
      <g
         id="g6204" />
      <g
         id="g6206" />
      <g
         id="g6208" />
      <g
         id="g6210" />
    </g>
    <g
       id="g6268"
       transform="matrix(0.24744768,0,0,0.24744768,-496.35872,862.36243)">
      <g
         id="g6270">
        <g
           id="g6272">
          <g
             id="g6274" />
        </g>
      </g>
      <g
         id="g6302" />
      <g
         id="g6304" />
      <g
         id="g6306" />
      <g
         id="g6308" />
      <g
         id="g6310" />
      <g
         id="g6312" />
      <g
         id="g6314" />
      <g
         id="g6316" />
      <g
         id="g6318" />
      <g
         id="g6320" />
      <g
         id="g6322" />
      <g
         id="g6324" />
      <g
         id="g6326" />
      <g
         id="g6328" />
      <g
         id="g6330" />
    </g>
    <g
       id="g6383"
       transform="matrix(0.83333333,0,0,0.83333333,-372.72273,987.36213)">
      <g
         id="g6341">
        <g
           id="g6343" />
      </g>
      <g
         id="g6347" />
      <g
         id="g6349" />
      <g
         id="g6351" />
      <g
         id="g6353" />
      <g
         id="g6355" />
      <g
         id="g6357" />
      <g
         id="g6359" />
      <g
         id="g6361" />
      <g
         id="g6363" />
      <g
         id="g6365" />
      <g
         id="g6367" />
      <g
         id="g6369" />
      <g
         id="g6371" />
      <g
         id="g6373" />
      <g
         id="g6375" />
    </g>
  </g>
</svg>
