<?xml version="1.0" encoding="UTF-8" standalone="no"?>
<!-- Created with Inkscape (http://www.inkscape.org/) -->

<svg
   xmlns:dc="http://purl.org/dc/elements/1.1/"
   xmlns:cc="http://creativecommons.org/ns#"
   xmlns:rdf="http://www.w3.org/1999/02/22-rdf-syntax-ns#"
   xmlns:svg="http://www.w3.org/2000/svg"
   xmlns="http://www.w3.org/2000/svg"
   xmlns:sodipodi="http://sodipodi.sourceforge.net/DTD/sodipodi-0.dtd"
   xmlns:inkscape="http://www.inkscape.org/namespaces/inkscape"
   width="220"
   height="220"
   viewBox="0 0 219.99999 220"
   id="svg2"
   version="1.1"
   inkscape:version="0.91 r13725"
   sodipodi:docname="ufu_previa_contracheque.svg">
  <defs
     id="defs4" />
  <sodipodi:namedview
     id="base"
     pagecolor="#ffffff"
     bordercolor="#666666"
     borderopacity="1.0"
     inkscape:pageopacity="0.0"
     inkscape:pageshadow="2"
     inkscape:zoom="2.9590909"
     inkscape:cx="110"
     inkscape:cy="110"
     inkscape:document-units="px"
     inkscape:current-layer="layer1"
     showgrid="false"
     units="px"
     inkscape:window-width="1440"
     inkscape:window-height="847"
     inkscape:window-x="-8"
     inkscape:window-y="-8"
     inkscape:window-maximized="1" />
  <metadata
     id="metadata7">
    <rdf:RDF>
      <cc:Work
         rdf:about="">
        <dc:format>image/svg+xml</dc:format>
        <dc:type
           rdf:resource="http://purl.org/dc/dcmitype/StillImage" />
        <dc:title></dc:title>
      </cc:Work>
    </rdf:RDF>
  </metadata>
  <g
     inkscape:label="Camada 1"
     inkscape:groupmode="layer"
     id="layer1"
     transform="translate(0,-832.36216)">
    <path
       style="color:#000000;clip-rule:nonzero;display:inline;overflow:visible;visibility:visible;opacity:1;isolation:auto;mix-blend-mode:normal;color-interpolation:sRGB;color-interpolation-filters:linearRGB;solid-color:#000000;solid-opacity:1;fill:#ffffff;fill-opacity:1;fill-rule:nonzero;stroke:none;stroke-width:5;stroke-linecap:square;stroke-linejoin:miter;stroke-miterlimit:4;stroke-dasharray:none;stroke-dashoffset:0;stroke-opacity:1;color-rendering:auto;image-rendering:auto;shape-rendering:auto;text-rendering:auto;enable-background:accumulate"
       d="M 0 0 L 0 220 L 220 220 L 220 0 L 0 0 z M 122.46875 30 L 127.9668 30.355469 C 157.92973 32.296669 183.93811 56.426278 188.26758 86.298828 C 188.66739 89.057438 189.09104 92.001587 189.20898 92.841797 C 189.61927 95.764987 189.14964 96.015625 183.27148 96.015625 L 177.75 96.015625 L 177.4082 93.664062 C 177.21985 92.370963 176.87831 89.761774 176.65039 87.865234 C 175.44152 77.806824 169.65708 66.301381 161.78906 58.306641 C 152.58251 48.951821 140.27183 43.105079 127.01367 41.792969 L 122.46875 41.34375 L 122.46875 35.671875 L 122.46875 30 z M 122.46875 53.208984 L 126.57617 53.630859 C 136.42312 54.639719 145.74241 59.114529 152.86523 66.255859 C 157.89797 71.301689 160.76146 75.812131 162.97656 82.181641 C 164.47253 86.483301 165.73501 93.800796 165.23828 95.291016 C 165.07971 95.766726 163.10384 96.015625 159.49805 96.015625 L 154 96.015625 L 153.24805 91.470703 C 151.17754 78.931943 141.17678 68.380569 129.05078 65.943359 C 126.98183 65.527529 124.65478 65.065516 123.87891 64.916016 C 122.53902 64.657836 122.46875 64.358214 122.46875 58.927734 L 122.46875 53.208984 z M 122.20117 76.90625 C 125.05723 76.983091 127.9254 77.583711 130.18945 78.691406 C 134.60793 80.853176 138.96418 85.61778 140.35742 89.8125 C 141.83958 94.27482 141.41474 101.007 139.39844 105 C 136.64543 110.45193 129.39517 115.43175 124.19141 115.44531 L 121.8418 115.45117 L 121.8418 110.41602 C 121.8418 100.52337 117.41343 92.220075 109.26562 86.828125 C 107.90584 85.928265 106.79492 84.834128 106.79492 84.398438 C 106.79492 83.198077 111.07133 79.695632 114.28516 78.263672 C 116.50074 77.276502 119.34512 76.829409 122.20117 76.90625 z M 66.693359 76.955078 C 71.492754 77.070408 76.205121 78.827146 79.490234 82.191406 L 81.832031 84.589844 L 79.109375 86.464844 C 70.551332 92.355324 66.065448 100.74967 66.048828 110.90625 L 66.041016 115.45117 L 64.003906 115.42383 C 62.883216 115.40873 60.895348 115.01395 59.585938 114.54688 C 45.506619 109.52465 42.108876 91.481293 53.375 81.564453 C 57.008132 78.366443 61.893965 76.839748 66.693359 76.955078 z M 94.177734 90.615234 C 97.150656 90.665644 100.15621 91.281004 102.53906 92.449219 C 114.49111 98.308789 117.36931 114.28107 108.13672 123.51367 C 104.10038 127.55 101.06763 128.81307 94.882812 129.03125 C 91.191012 129.16148 88.730103 128.91535 86.876953 128.23438 C 83.039573 126.82425 77.791344 121.78665 76.019531 117.81445 C 73.811355 112.86392 73.910066 106.31845 76.267578 101.51758 C 78.214868 97.552098 81.588851 94.317559 86.019531 92.167969 C 88.265636 91.078254 91.204812 90.564824 94.177734 90.615234 z M 119.01953 123.5332 L 123.75391 123.72461 C 140.26551 124.3923 154.84535 144.14471 156.83008 168.53516 C 157.08732 171.69636 157.1967 174.58774 157.07227 174.96094 C 156.92258 175.41014 153.46512 175.63867 146.85156 175.63867 L 136.85742 175.63867 L 136.24609 174.03125 C 135.9098 173.14665 135.63477 172.04378 135.63477 171.58008 C 135.63477 171.11648 134.80676 168.20376 133.79492 165.10742 C 129.74464 152.71307 122.54225 141.58746 115.05273 136.15625 C 112.92445 134.61289 111.18359 133.1106 111.18359 132.81836 C 111.18359 132.5261 112.94639 130.31776 115.10156 127.91016 L 119.01953 123.5332 z M 67.392578 123.60547 C 69.599426 123.5777 69.90374 123.8715 70.464844 124.91992 C 70.897373 125.72811 72.636579 127.85402 74.328125 129.64258 L 77.402344 132.89453 L 74.558594 134.84961 C 68.013036 139.35307 62.047351 146.84921 57.869141 155.81641 C 55.839358 160.17271 54.778924 163.27215 51.734375 173.75781 L 51.279297 175.32617 L 41.179688 175.49805 C 33.442282 175.62975 31.009556 175.48309 30.785156 174.87109 C 30.312995 173.58349 31.512123 163.84968 32.837891 158.20508 C 36.337861 143.30364 44.776926 131.13031 55.146484 126.02539 C 58.516091 124.36654 60.212808 123.9482 64.472656 123.72461 C 65.711009 123.65961 66.656962 123.61473 67.392578 123.60547 z M 93.666016 137.08203 C 100.69997 137.00163 107.79394 140.05257 113.95117 146.375 C 120.6576 153.26139 124.91842 161.3683 127.52148 172.19141 C 129.20878 179.20711 129.8462 188.74252 128.67773 189.48242 C 127.7713 190.05612 60.711561 190.21303 59.302734 189.64453 C 58.268112 189.22703 58.310099 185.50838 59.435547 178.14648 C 61.040799 167.64598 63.671276 160.58948 68.943359 152.63086 C 75.677126 142.4657 84.622354 137.18541 93.666016 137.08203 z "
       transform="translate(-7.6293945e-6,832.36216)"
       id="rect3387" />
    <g
       transform="matrix(1.8390805,0,0,1.8390805,29.999991,-913.01664)"
       id="layer1-6"
       inkscape:label="Camada 1">
      <text
         sodipodi:linespacing="125%"
         id="text3356"
         y="1073.4818"
         x="933.04791"
         style="font-style:normal;font-variant:normal;font-weight:normal;font-stretch:normal;font-size:15px;line-height:125%;font-family:'Open Sans';-inkscape-font-specification:'Open Sans, Normal';text-align:start;letter-spacing:0px;word-spacing:0px;writing-mode:lr-tb;text-anchor:start;fill:#000000;fill-opacity:1;stroke:none;stroke-width:1px;stroke-linecap:butt;stroke-linejoin:miter;stroke-opacity:1"
         xml:space="preserve"><tspan
           y="1073.4818"
           x="933.04791"
           id="tspan3358"
           sodipodi:role="line" /></text>
    </g>
  </g>
</svg>
