<?xml version="1.0" encoding="UTF-8" standalone="no"?>
<!-- Created with Inkscape (http://www.inkscape.org/) -->

<svg
   xmlns:dc="http://purl.org/dc/elements/1.1/"
   xmlns:cc="http://creativecommons.org/ns#"
   xmlns:rdf="http://www.w3.org/1999/02/22-rdf-syntax-ns#"
   xmlns:svg="http://www.w3.org/2000/svg"
   xmlns="http://www.w3.org/2000/svg"
   xmlns:sodipodi="http://sodipodi.sourceforge.net/DTD/sodipodi-0.dtd"
   xmlns:inkscape="http://www.inkscape.org/namespaces/inkscape"
   width="220"
   height="220"
   viewBox="0 0 220 220"
   id="svg2"
   version="1.1"
   inkscape:version="0.91 r13725"
   sodipodi:docname="ufu_pdti.svg">
  <defs
     id="defs4" />
  <sodipodi:namedview
     id="base"
     pagecolor="#ffffff"
     bordercolor="#666666"
     borderopacity="1.0"
     inkscape:pageopacity="0.0"
     inkscape:pageshadow="2"
     inkscape:zoom="0.73977273"
     inkscape:cx="-349.86687"
     inkscape:cy="50.196697"
     inkscape:document-units="px"
     inkscape:current-layer="g4568"
     showgrid="false"
     units="px"
     inkscape:window-width="1600"
     inkscape:window-height="847"
     inkscape:window-x="1432"
     inkscape:window-y="-8"
     inkscape:window-maximized="1" />
  <metadata
     id="metadata7">
    <rdf:RDF>
      <cc:Work
         rdf:about="">
        <dc:format>image/svg+xml</dc:format>
        <dc:type
           rdf:resource="http://purl.org/dc/dcmitype/StillImage" />
        <dc:title></dc:title>
      </cc:Work>
    </rdf:RDF>
  </metadata>
  <g
     inkscape:label="Camada 1"
     inkscape:groupmode="layer"
     id="layer1"
     transform="translate(0,-832.36216)">
    <g
       id="g4157"
       transform="translate(-30.443675,816.45148)" />
    <g
       id="g4159"
       transform="translate(-30.443675,816.45148)" />
    <g
       id="g4161"
       transform="translate(-30.443675,816.45148)" />
    <g
       id="g4163"
       transform="translate(-30.443675,816.45148)" />
    <g
       id="g4165"
       transform="translate(-30.443675,816.45148)" />
    <g
       id="g4167"
       transform="translate(-30.443675,816.45148)" />
    <g
       id="g4169"
       transform="translate(-30.443675,816.45148)" />
    <g
       id="g4171"
       transform="translate(-30.443675,816.45148)" />
    <g
       id="g4173"
       transform="translate(-30.443675,816.45148)" />
    <g
       id="g4175"
       transform="translate(-30.443675,816.45148)" />
    <g
       id="g4177"
       transform="translate(-30.443675,816.45148)" />
    <g
       id="g4179"
       transform="translate(-30.443675,816.45148)" />
    <g
       id="g4181"
       transform="translate(-30.443675,816.45148)" />
    <g
       id="g4183"
       transform="translate(-30.443675,816.45148)" />
    <g
       id="g4185"
       transform="translate(-30.443675,816.45148)" />
    <g
       id="g4505"
       transform="matrix(2.1648564,0,0,2.1648564,550.54342,-937.62931)">
      <g
         id="g4568">
        <g
           transform="translate(-257.94306,799.68535)"
           id="g4297">
          <g
             id="g4299" />
        </g>
        <path
           style="color:#000000;clip-rule:nonzero;display:inline;overflow:visible;visibility:visible;opacity:1;isolation:auto;mix-blend-mode:normal;color-interpolation:sRGB;color-interpolation-filters:linearRGB;solid-color:#000000;solid-opacity:1;fill:#ffffff;fill-opacity:1;fill-rule:nonzero;stroke:none;stroke-width:2;stroke-linecap:square;stroke-linejoin:miter;stroke-miterlimit:4;stroke-dasharray:none;stroke-dashoffset:0;stroke-opacity:1;color-rendering:auto;image-rendering:auto;shape-rendering:auto;text-rendering:auto;enable-background:accumulate"
           d="M 0 0 L 0 220 L 220 220 L 220 0 L 0 0 z M 42.517578 20 L 135.64062 20 L 135.64062 59.013672 C 135.64062 60.99733 137.3679 62.722656 139.35156 62.722656 L 177.33398 62.722656 L 177.48242 200 L 42.517578 200 L 42.517578 20 z M 143.06055 29.148438 L 168.62891 55.302734 L 143.06055 55.302734 L 143.06055 29.148438 z M 64.466797 67.072266 C 63.380147 67.072266 62.5 67.952305 62.5 69.039062 L 62.5 149.19531 C 62.5 150.28185 63.380147 151.16211 64.466797 151.16211 L 87.25 151.16211 C 88.33665 151.16211 89.216797 150.28185 89.216797 149.19531 L 89.216797 69.039062 C 89.217035 67.952305 88.33665 67.072266 87.25 67.072266 L 64.466797 67.072266 z M 74.056641 76.753906 L 77.660156 76.753906 C 77.831721 76.753906 77.972656 76.892347 77.972656 77.064453 L 77.972656 108.10352 C 77.972656 108.27443 77.831829 108.41406 77.660156 108.41406 L 74.056641 108.41406 C 73.884859 108.41406 73.746094 108.27541 73.746094 108.10352 L 73.746094 77.064453 C 73.746094 76.893321 73.884751 76.753906 74.056641 76.753906 z M 94.708984 82.337891 L 94.708984 89.96875 L 151.03711 89.96875 L 151.03711 130.60156 L 94.708984 130.60156 L 94.708984 140.64453 L 104.94336 140.64453 L 97.734375 147.58984 C 97.496219 147.8193 97.361328 148.13579 97.361328 148.4668 L 97.361328 150.02539 C 97.361328 150.69803 97.907262 151.24219 98.580078 151.24219 L 135.45312 151.24219 C 136.12594 151.24219 136.67192 150.69803 136.67188 150.02539 L 136.67188 148.4668 C 136.67188 148.13601 136.53698 147.81954 136.29883 147.58984 L 129.08789 140.64453 L 155.89453 140.64453 C 156.78119 140.64453 157.5 139.92492 157.5 139.03711 L 157.5 83.943359 C 157.5 83.056634 156.78119 82.337891 155.89453 82.337891 L 94.708984 82.337891 z M 75.859375 122.56641 C 76.881967 122.56641 77.708984 123.39572 77.708984 124.41797 C 77.708984 125.44 76.881967 126.26758 75.859375 126.26758 C 74.83726 126.26758 74.007812 125.44021 74.007812 124.41797 C 74.007812 123.39594 74.837022 122.56641 75.859375 122.56641 z M 75.859375 130.47656 C 78.26531 130.47656 80.214844 132.42623 80.214844 134.83203 C 80.214844 137.23827 78.26531 139.18945 75.859375 139.18945 C 73.45344 139.18945 71.501953 137.23827 71.501953 134.83203 C 71.501953 132.42623 73.45344 130.47656 75.859375 130.47656 z M 117.01562 134.13867 C 117.99193 134.13867 118.7832 134.92836 118.7832 135.9043 C 118.7832 136.88021 117.99193 137.67188 117.01562 137.67188 C 116.04055 137.67188 115.25 136.88021 115.25 135.9043 C 115.25 134.92836 116.04055 134.13867 117.01562 134.13867 z M 68.914062 166.69922 L 68.914062 181.21484 L 69.894531 182.19531 L 75.291016 182.19531 L 76.279297 181.20508 L 76.279297 172.91602 L 77.964844 171.23047 L 82.519531 171.23047 L 77.974609 166.69922 L 68.914062 166.69922 z M 91.708984 166.69922 L 91.708984 179.54297 C 91.708984 180.60093 91.913134 181.81411 92.324219 183.18555 C 92.578719 184.03785 93.049198 184.86676 93.734375 185.66992 C 94.429337 186.4733 95.193371 187.09439 96.025391 187.53516 C 96.857388 187.96618 97.889728 188.25535 99.123047 188.40234 C 100.36617 188.54964 101.51126 188.62305 102.55859 188.62305 C 104.36943 188.62305 105.92086 188.38229 107.21289 187.90234 C 108.14278 187.55943 109.02931 186.96735 109.87109 186.125 C 110.72268 185.2727 111.34286 184.28265 111.73438 183.15625 C 112.13572 182.0197 112.33789 180.81634 112.33789 179.54297 L 112.33789 166.69922 L 105.70117 166.69922 L 105.70117 179.85156 C 105.70117 181.04656 105.37262 181.97079 104.7168 182.62695 C 104.07076 183.2736 103.17448 183.59766 102.0293 183.59766 C 100.87426 183.59766 99.970275 183.26964 99.314453 182.61328 C 98.668438 181.94715 98.34375 181.02708 98.34375 179.85156 L 98.34375 166.69922 L 91.708984 166.69922 z M 116.80078 166.69922 L 116.80078 188.24023 L 123.48047 188.24023 L 123.48047 179.43945 L 131.82031 179.43945 L 131.82031 175.08984 L 123.48047 175.08984 L 123.48047 171.32812 L 133.24414 171.32812 L 133.24414 166.69922 L 116.80078 166.69922 z M 136.87109 166.69922 L 136.87109 179.54297 C 136.87109 180.60093 137.07718 181.81411 137.48828 183.18555 C 137.74278 184.03785 138.21326 184.86676 138.89844 185.66992 C 139.5934 186.4733 140.3555 187.09439 141.1875 187.53516 C 142.01952 187.96618 143.05184 188.25535 144.28516 188.40234 C 145.52826 188.54964 146.67337 188.62305 147.7207 188.62305 C 149.53156 188.62305 151.08293 188.38229 152.375 187.90234 C 153.30487 187.55943 154.19144 186.96735 155.0332 186.125 C 155.88477 185.2727 156.50688 184.28265 156.89844 183.15625 C 157.29976 182.0197 157.5 180.81634 157.5 179.54297 L 157.5 166.69922 L 150.86328 166.69922 L 150.86328 179.85156 C 150.86328 181.04656 150.53666 181.97079 149.88086 182.62695 C 149.23484 183.2736 148.33857 183.59766 147.19336 183.59766 C 146.03834 183.59766 145.13238 183.26964 144.47656 182.61328 C 143.83055 181.94715 143.50781 181.02708 143.50781 179.85156 L 143.50781 166.69922 L 136.87109 166.69922 z M 66.568359 169.04688 L 62.5 173.11914 L 62.5 182.21484 L 68.894531 188.62305 L 71.726562 188.62305 L 78.285156 182.05859 L 78.285156 173.75977 L 78.927734 173.11914 L 84.40625 173.11914 L 83.453125 172.18359 L 78.460938 172.18359 L 77.296875 173.35742 L 77.296875 181.55469 L 74.291016 184.56055 L 68.914062 184.56055 L 66.568359 182.21484 L 66.568359 169.04688 z M 79.404297 174.05469 L 79.404297 174.0625 L 79.230469 174.23828 L 79.230469 182.44336 L 73.064453 188.61523 L 73.072266 188.61523 L 77.957031 188.61523 L 84.369141 182.1875 L 84.369141 174.05469 L 79.404297 174.05469 z "
           transform="matrix(0.4619244,0,0,0.4619244,-254.30944,817.60225)"
           id="rect4592" />
        <g
           style="fill:#ffffff"
           id="g4674"
           transform="matrix(0.11252005,0,0,0.11252005,-492.41701,993.65995)" />
        <g
           style="fill:#ffffff"
           id="g4676"
           transform="matrix(0.11252005,0,0,0.11252005,-492.41701,993.65995)" />
        <g
           style="fill:#ffffff"
           id="g4678"
           transform="matrix(0.11252005,0,0,0.11252005,-492.41701,993.65995)" />
        <g
           style="fill:#ffffff"
           id="g4680"
           transform="matrix(0.11252005,0,0,0.11252005,-492.41701,993.65995)" />
        <g
           style="fill:#ffffff"
           id="g4682"
           transform="matrix(0.11252005,0,0,0.11252005,-492.41701,993.65995)" />
        <g
           style="fill:#ffffff"
           id="g4684"
           transform="matrix(0.11252005,0,0,0.11252005,-492.41701,993.65995)" />
        <g
           style="fill:#ffffff"
           id="g4686"
           transform="matrix(0.11252005,0,0,0.11252005,-492.41701,993.65995)" />
        <g
           style="fill:#ffffff"
           id="g4688"
           transform="matrix(0.11252005,0,0,0.11252005,-492.41701,993.65995)" />
        <g
           style="fill:#ffffff"
           id="g4690"
           transform="matrix(0.11252005,0,0,0.11252005,-492.41701,993.65995)" />
        <g
           style="fill:#ffffff"
           id="g4692"
           transform="matrix(0.11252005,0,0,0.11252005,-492.41701,993.65995)" />
        <g
           style="fill:#ffffff"
           id="g4694"
           transform="matrix(0.11252005,0,0,0.11252005,-492.41701,993.65995)" />
        <g
           style="fill:#ffffff"
           id="g4696"
           transform="matrix(0.11252005,0,0,0.11252005,-492.41701,993.65995)" />
        <g
           style="fill:#ffffff"
           id="g4698"
           transform="matrix(0.11252005,0,0,0.11252005,-492.41701,993.65995)" />
        <g
           style="fill:#ffffff"
           id="g4700"
           transform="matrix(0.11252005,0,0,0.11252005,-492.41701,993.65995)" />
        <g
           style="fill:#ffffff"
           id="g4702"
           transform="matrix(0.11252005,0,0,0.11252005,-492.41701,993.65995)" />
        <g
           style="font-style:normal;font-variant:normal;font-weight:normal;font-stretch:normal;font-size:15px;line-height:125%;font-family:'Open Sans';-inkscape-font-specification:'Open Sans, Normal';text-align:start;letter-spacing:0px;word-spacing:0px;writing-mode:lr-tb;text-anchor:start;fill:#000000;fill-opacity:1;stroke:none;stroke-width:1px;stroke-linecap:butt;stroke-linejoin:miter;stroke-opacity:1"
           id="text3356"
           transform="matrix(0.56260074,0,0,0.56260074,-492.41701,459.80764)" />
      </g>
      <g
         id="g4315"
         transform="translate(-257.94306,799.68535)" />
      <g
         id="g4317"
         transform="translate(-257.94306,799.68535)" />
      <g
         id="g4319"
         transform="translate(-257.94306,799.68535)" />
      <g
         id="g4321"
         transform="translate(-257.94306,799.68535)" />
      <g
         id="g4323"
         transform="translate(-257.94306,799.68535)" />
      <g
         id="g4325"
         transform="translate(-257.94306,799.68535)" />
      <g
         id="g4327"
         transform="translate(-257.94306,799.68535)" />
      <g
         id="g4329"
         transform="translate(-257.94306,799.68535)" />
      <g
         id="g4331"
         transform="translate(-257.94306,799.68535)" />
      <g
         id="g4333"
         transform="translate(-257.94306,799.68535)" />
      <g
         id="g4335"
         transform="translate(-257.94306,799.68535)" />
      <g
         id="g4337"
         transform="translate(-257.94306,799.68535)" />
      <g
         id="g4339"
         transform="translate(-257.94306,799.68535)" />
      <g
         id="g4341"
         transform="translate(-257.94306,799.68535)" />
      <g
         id="g4343"
         transform="translate(-257.94306,799.68535)" />
    </g>
  </g>
</svg>
