<?xml version="1.0" encoding="UTF-8" standalone="no"?>
<!-- Created with Inkscape (http://www.inkscape.org/) -->

<svg
   xmlns:dc="http://purl.org/dc/elements/1.1/"
   xmlns:cc="http://creativecommons.org/ns#"
   xmlns:rdf="http://www.w3.org/1999/02/22-rdf-syntax-ns#"
   xmlns:svg="http://www.w3.org/2000/svg"
   xmlns="http://www.w3.org/2000/svg"
   xmlns:sodipodi="http://sodipodi.sourceforge.net/DTD/sodipodi-0.dtd"
   xmlns:inkscape="http://www.inkscape.org/namespaces/inkscape"
   width="220"
   height="220"
   viewBox="0 0 220 220"
   id="svg2"
   version="1.1"
   inkscape:version="0.91 r13725"
   sodipodi:docname="ufu_transporte_intercamp.svg">
  <defs
     id="defs4">
    <pattern
       id="EMFhbasepattern"
       patternUnits="userSpaceOnUse"
       width="6"
       height="6"
       x="0"
       y="0" />
  </defs>
  <sodipodi:namedview
     id="base"
     pagecolor="#ffffff"
     bordercolor="#666666"
     borderopacity="1.0"
     inkscape:pageopacity="0.0"
     inkscape:pageshadow="2"
     inkscape:zoom="2.9590909"
     inkscape:cx="110"
     inkscape:cy="82.96467"
     inkscape:document-units="px"
     inkscape:current-layer="layer1-8"
     showgrid="false"
     units="px"
     inkscape:window-width="1440"
     inkscape:window-height="847"
     inkscape:window-x="-8"
     inkscape:window-y="-8"
     inkscape:window-maximized="1" />
  <metadata
     id="metadata7">
    <rdf:RDF>
      <cc:Work
         rdf:about="">
        <dc:format>image/svg+xml</dc:format>
        <dc:type
           rdf:resource="http://purl.org/dc/dcmitype/StillImage" />
        <dc:title></dc:title>
      </cc:Work>
    </rdf:RDF>
  </metadata>
  <g
     inkscape:label="Camada 1"
     inkscape:groupmode="layer"
     id="layer1"
     transform="translate(0,-832.36216)">
    <g
       id="g4185"
       transform="matrix(0.31054775,0,0,0.31054775,20.000001,852.36216)">
      <g
         id="g4139">
        <g
           id="g4141" />
      </g>
      <g
         id="g4149" />
      <g
         id="g4151" />
      <g
         id="g4153" />
      <g
         id="g4155" />
      <g
         id="g4157" />
      <g
         id="g4159" />
      <g
         id="g4161" />
      <g
         id="g4163" />
      <g
         id="g4165" />
      <g
         id="g4167" />
      <g
         id="g4169" />
      <g
         id="g4171" />
      <g
         id="g4173" />
      <g
         id="g4175" />
      <g
         id="g4177" />
    </g>
    <g
       id="g5587"
       transform="matrix(0.36372527,0,0,0.36372527,19.999788,852.36216)">
      <g
         id="XMLID_211_" />
      <g
         id="g5551" />
      <g
         id="g5553" />
      <g
         id="g5555" />
      <g
         id="g5557" />
      <g
         id="g5559" />
      <g
         id="g5561" />
      <g
         id="g5563" />
      <g
         id="g5565" />
      <g
         id="g5567" />
      <g
         id="g5569" />
      <g
         id="g5571" />
      <g
         id="g5573" />
      <g
         id="g5575" />
      <g
         id="g5577" />
      <g
         id="g5579" />
    </g>
    <g
       transform="matrix(0.35333693,-0.13569772,0.13569772,0.35333693,-98.886859,488.84759)"
       id="layer1-4"
       inkscape:label="Camada 1"
       style="fill:#ffffff">
      <text
         sodipodi:linespacing="125%"
         id="text3356"
         y="1073.4818"
         x="933.04791"
         style="font-style:normal;font-variant:normal;font-weight:normal;font-stretch:normal;font-size:15px;line-height:125%;font-family:'Open Sans';-inkscape-font-specification:'Open Sans, Normal';text-align:start;letter-spacing:0px;word-spacing:0px;writing-mode:lr-tb;text-anchor:start;fill:#ffffff;fill-opacity:1;stroke:none;stroke-width:1px;stroke-linecap:butt;stroke-linejoin:miter;stroke-opacity:1"
         xml:space="preserve"><tspan
           y="1073.4818"
           x="933.04791"
           id="tspan3358"
           sodipodi:role="line" /></text>
    </g>
    <g
       id="g5657"
       transform="matrix(6.2430633,0,0,6.2430633,19.999999,852.36216)">
      <g
         id="g5617" />
      <g
         id="g5621" />
      <g
         id="g5623" />
      <g
         id="g5625" />
      <g
         id="g5627" />
      <g
         id="g5629" />
      <g
         id="g5631" />
      <g
         id="g5633" />
      <g
         id="g5635" />
      <g
         id="g5637" />
      <g
         id="g5639" />
      <g
         id="g5641" />
      <g
         id="g5643" />
      <g
         id="g5645" />
      <g
         id="g5647" />
      <g
         id="g5649" />
    </g>
    <g
       transform="matrix(0.24642901,0,0,0.24642901,146.70265,732.4686)"
       id="layer1-0"
       inkscape:label="Camada 1">
      <text
         sodipodi:linespacing="125%"
         id="text3356-0"
         y="1073.4818"
         x="933.04791"
         style="font-style:normal;font-variant:normal;font-weight:normal;font-stretch:normal;font-size:15px;line-height:125%;font-family:'Open Sans';-inkscape-font-specification:'Open Sans, Normal';text-align:start;letter-spacing:0px;word-spacing:0px;writing-mode:lr-tb;text-anchor:start;fill:#000000;fill-opacity:1;stroke:none;stroke-width:1px;stroke-linecap:butt;stroke-linejoin:miter;stroke-opacity:1"
         xml:space="preserve"><tspan
           y="1073.4818"
           x="933.04791"
           id="tspan3358-1"
           sodipodi:role="line" /></text>
    </g>
    <g
       inkscape:label="Camada 1"
       id="g5689"
       transform="matrix(0.24642901,0,0,0.24642901,51.799546,731.76768)">
      <text
         xml:space="preserve"
         style="font-style:normal;font-variant:normal;font-weight:normal;font-stretch:normal;font-size:15px;line-height:125%;font-family:'Open Sans';-inkscape-font-specification:'Open Sans, Normal';text-align:start;letter-spacing:0px;word-spacing:0px;writing-mode:lr-tb;text-anchor:start;fill:#000000;fill-opacity:1;stroke:none;stroke-width:1px;stroke-linecap:butt;stroke-linejoin:miter;stroke-opacity:1"
         x="933.04791"
         y="1073.4818"
         id="text5693"
         sodipodi:linespacing="125%"><tspan
           sodipodi:role="line"
           id="tspan5695"
           x="933.04791"
           y="1073.4818" /></text>
    </g>
    <g
       inkscape:label="Camada 1"
       id="g5709"
       transform="matrix(0.24642901,0,0,0.24642901,101.48726,679.16698)">
      <text
         xml:space="preserve"
         style="font-style:normal;font-variant:normal;font-weight:normal;font-stretch:normal;font-size:15px;line-height:125%;font-family:'Open Sans';-inkscape-font-specification:'Open Sans, Normal';text-align:start;letter-spacing:0px;word-spacing:0px;writing-mode:lr-tb;text-anchor:start;fill:#000000;fill-opacity:1;stroke:none;stroke-width:1px;stroke-linecap:butt;stroke-linejoin:miter;stroke-opacity:1"
         x="933.04791"
         y="1073.4818"
         id="text5713"
         sodipodi:linespacing="125%"><tspan
           sodipodi:role="line"
           id="tspan5715"
           x="933.04791"
           y="1073.4818" /></text>
    </g>
    <g
       id="g5769"
       transform="matrix(3.9830118,0,0,3.9830118,77.962645,850.34016)">
      <g
         id="g5725">
        <g
           id="g5727" />
      </g>
      <g
         id="g5733" />
      <g
         id="g5735" />
      <g
         id="g5737" />
      <g
         id="g5739" />
      <g
         id="g5741" />
      <g
         id="g5743" />
      <g
         id="g5745" />
      <g
         id="g5747" />
      <g
         id="g5749" />
      <g
         id="g5751" />
      <g
         id="g5753" />
      <g
         id="g5755" />
      <g
         id="g5757" />
      <g
         id="g5759" />
      <g
         id="g5761" />
    </g>
    <g
       id="g5839"
       transform="matrix(0.37151396,0,0,0.37151396,20,875.89852)">
      <g
         id="g5791">
        <g
           id="g5793" />
      </g>
      <g
         id="g5803" />
      <g
         id="g5805" />
      <g
         id="g5807" />
      <g
         id="g5809" />
      <g
         id="g5811" />
      <g
         id="g5813" />
      <g
         id="g5815" />
      <g
         id="g5817" />
      <g
         id="g5819" />
      <g
         id="g5821" />
      <g
         id="g5823" />
      <g
         id="g5825" />
      <g
         id="g5827" />
      <g
         id="g5829" />
      <g
         id="g5831" />
    </g>
    <g
       transform="matrix(0.23089146,0,0,0.23089146,93.70431,646.39838)"
       id="layer1-2"
       inkscape:label="Camada 1">
      <text
         sodipodi:linespacing="125%"
         id="text3356-9"
         y="1073.4818"
         x="933.04791"
         style="font-style:normal;font-variant:normal;font-weight:normal;font-stretch:normal;font-size:15px;line-height:125%;font-family:'Open Sans';-inkscape-font-specification:'Open Sans, Normal';text-align:start;letter-spacing:0px;word-spacing:0px;writing-mode:lr-tb;text-anchor:start;fill:#000000;fill-opacity:1;stroke:none;stroke-width:1px;stroke-linecap:butt;stroke-linejoin:miter;stroke-opacity:1"
         xml:space="preserve"><tspan
           y="1073.4818"
           x="933.04791"
           id="tspan3358-7"
           sodipodi:role="line" /></text>
    </g>
    <g
       id="g5929"
       transform="matrix(0.35224368,0,0,0.35224368,30,866.99055)">
      <g
         id="XMLID_5_" />
      <g
         id="g5893" />
      <g
         id="g5895" />
      <g
         id="g5897" />
      <g
         id="g5899" />
      <g
         id="g5901" />
      <g
         id="g5903" />
      <g
         id="g5905" />
      <g
         id="g5907" />
      <g
         id="g5909" />
      <g
         id="g5911" />
      <g
         id="g5913" />
      <g
         id="g5915" />
      <g
         id="g5917" />
      <g
         id="g5919" />
      <g
         id="g5921" />
    </g>
    <g
       id="g6061"
       transform="matrix(3,0,0,3,20.000001,852.36166)">
      <g
         id="g6019" />
      <g
         id="g6025" />
      <g
         id="g6027" />
      <g
         id="g6029" />
      <g
         id="g6031" />
      <g
         id="g6033" />
      <g
         id="g6035" />
      <g
         id="g6037" />
      <g
         id="g6039" />
      <g
         id="g6041" />
      <g
         id="g6043" />
      <g
         id="g6045" />
      <g
         id="g6047" />
      <g
         id="g6049" />
      <g
         id="g6051" />
      <g
         id="g6053" />
    </g>
    <g
       id="g5998"
       transform="translate(56.909413,942.86316)"
       style="fill:#ff0000">
      <g
         id="g5956"
         style="fill:#ff0000">
        <g
           id="g5958"
           style="fill:#ff0000" />
      </g>
      <g
         id="g5962"
         style="fill:#ff0000" />
      <g
         id="g5964"
         style="fill:#ff0000" />
      <g
         id="g5966"
         style="fill:#ff0000" />
      <g
         id="g5968"
         style="fill:#ff0000" />
      <g
         id="g5970"
         style="fill:#ff0000" />
      <g
         id="g5972"
         style="fill:#ff0000" />
      <g
         id="g5974"
         style="fill:#ff0000" />
      <g
         id="g5976"
         style="fill:#ff0000" />
      <g
         id="g5978"
         style="fill:#ff0000" />
      <g
         id="g5980"
         style="fill:#ff0000" />
      <g
         id="g5982"
         style="fill:#ff0000" />
      <g
         id="g5984"
         style="fill:#ff0000" />
      <g
         id="g5986"
         style="fill:#ff0000" />
      <g
         id="g5988"
         style="fill:#ff0000" />
      <g
         id="g5990"
         style="fill:#ff0000" />
    </g>
    <g
       transform="matrix(0.72032417,0,0,0.72032417,52.11,168.17353)"
       id="layer1-9"
       inkscape:label="Camada 1">
      <text
         sodipodi:linespacing="125%"
         id="text3356-2"
         y="1073.4818"
         x="933.04791"
         style="font-style:normal;font-variant:normal;font-weight:normal;font-stretch:normal;font-size:15px;line-height:125%;font-family:'Open Sans';-inkscape-font-specification:'Open Sans, Normal';text-align:start;letter-spacing:0px;word-spacing:0px;writing-mode:lr-tb;text-anchor:start;fill:#000000;fill-opacity:1;stroke:none;stroke-width:1px;stroke-linecap:butt;stroke-linejoin:miter;stroke-opacity:1"
         xml:space="preserve"><tspan
           y="1073.4818"
           x="933.04791"
           id="tspan3358-4"
           sodipodi:role="line" /></text>
    </g>
    <g
       transform="translate(-11.658979,862.27)"
       id="g6121">
      <g
         transform="translate(-372.37358,-381.61097)"
         id="layer1-8"
         inkscape:label="Camada 1">
        <path
           style="color:#000000;clip-rule:nonzero;display:inline;overflow:visible;visibility:visible;opacity:1;isolation:auto;mix-blend-mode:normal;color-interpolation:sRGB;color-interpolation-filters:linearRGB;solid-color:#000000;solid-opacity:1;fill:#ffffff;fill-opacity:1;fill-rule:nonzero;stroke:none;stroke-width:5;stroke-linecap:square;stroke-linejoin:miter;stroke-miterlimit:4;stroke-dasharray:none;stroke-dashoffset:0;stroke-opacity:1;color-rendering:auto;image-rendering:auto;shape-rendering:auto;text-rendering:auto;enable-background:accumulate"
           d="M 0 0 L 0 220 L 220 220 L 220 0 L 0 0 z M 123.11523 31.398438 C 123.28401 31.422548 123.44526 31.495724 123.59961 31.621094 L 134.71094 41.75 C 134.9038 41.94287 135 42.163932 135 42.414062 C 135 42.684352 134.9038 42.914662 134.71094 43.107422 L 123.60156 53.351562 C 123.29285 53.621093 122.95477 53.680341 122.58789 53.525391 C 122.22193 53.352281 122.03711 53.071877 122.03711 52.685547 L 122.03711 46.205078 L 85.925781 46.205078 C 85.656001 46.205078 85.435529 46.118812 85.261719 45.945312 C 85.088099 45.772002 85 45.549187 85 45.279297 L 85 39.724609 C 85 39.454629 85.088419 39.232094 85.261719 39.058594 C 85.435119 38.885024 85.655591 38.798828 85.925781 38.798828 L 122.03711 38.798828 L 122.03711 32.316406 C 122.03711 31.911126 122.22173 31.631112 122.58789 31.476562 C 122.77118 31.399412 122.94645 31.374338 123.11523 31.398438 z M 110.00195 59.082031 C 131.35586 59.083031 149.37402 60.015949 152.10156 61.261719 C 154.49815 62.088229 156.25091 66.244082 156.25391 71.107422 L 156.25391 81.107422 L 158.75 81.107422 L 163.75391 81.107422 C 164.44419 81.107422 165 81.667162 165 82.357422 L 165 84.855469 L 165 99.857422 C 164.99997 100.54768 164.44419 101.10742 163.75391 101.10742 L 158.75 101.10742 C 158.05974 101.10742 157.50195 100.54768 157.50195 99.857422 L 157.50195 86.105469 L 156.25391 86.105469 L 156.25391 146.10938 C 156.25291 147.89317 155.77228 149.53793 155 150.42969 L 155 161.10742 C 154.99975 162.4882 153.88273 163.60914 152.50195 163.60938 L 145.00391 163.60938 C 143.6231 163.60914 142.50221 162.4882 142.50195 161.10742 L 142.50195 153.60938 L 77.5 153.60938 L 77.5 161.10742 C 77.49974 162.4882 76.38081 163.60914 75 163.60938 L 67.5 163.60938 C 66.11922 163.60914 64.998277 162.4882 64.998047 161.10742 L 64.998047 150.43555 C 64.225257 149.54327 63.749047 147.89391 63.748047 146.10938 L 63.748047 86.105469 L 62.501953 86.105469 L 62.501953 99.857422 C 62.501953 100.54768 61.938307 101.10742 61.248047 101.10742 L 56.25 101.10742 C 55.55973 101.10742 55 100.54768 55 99.857422 L 55 84.855469 L 55 82.357422 C 55 81.667162 55.55973 81.107422 56.25 81.107422 L 61.248047 81.107422 L 63.748047 81.107422 L 63.748047 71.107422 C 63.751047 66.393332 65.400018 62.323604 67.705078 61.339844 C 67.729578 61.328344 67.756203 61.314134 67.783203 61.302734 C 67.837703 61.279634 67.894519 61.261687 67.949219 61.242188 C 70.845019 60.006158 88.790503 59.083031 110.00195 59.082031 z M 71.248047 63.607422 C 69.867267 63.607422 68.75 66.405602 68.75 69.857422 L 68.75 74.855469 C 68.75 75.545739 69.30975 76.109375 70 76.109375 L 150.00195 76.109375 C 150.69222 76.109375 151.25195 75.545739 151.25195 74.855469 L 151.25195 69.857422 C 151.25195 66.405602 150.13272 63.607422 148.75195 63.607422 L 71.248047 63.607422 z M 68.75 78.605469 C 67.36922 78.605469 66.25 79.726642 66.25 81.107422 L 66.25 118.60742 C 66.25026 119.9882 67.36922 121.10716 68.75 121.10742 L 78.085938 121.10742 L 82.121094 118.60547 L 78.755859 118.82422 C 78.741059 118.82526 78.726891 118.82417 78.712891 118.82617 C 78.023131 118.85877 77.436797 118.32844 77.404297 117.63867 C 77.371697 116.94891 77.90398 116.36063 78.59375 116.32812 L 118.22852 113.76367 C 118.25752 113.76058 118.28731 113.75977 118.31641 113.75977 C 118.98543 113.75577 119.53561 114.27728 119.57031 114.94531 C 119.60601 115.63482 119.07818 116.22201 118.38867 116.25781 L 87.416016 118.26367 L 80.308594 122.66992 C 80.607864 122.79217 80.92675 122.85888 81.25 122.85938 L 138.75195 122.85938 C 138.89695 122.85888 139.04076 122.84191 139.18359 122.81641 L 133.47461 119.97852 L 104.56641 119.78516 C 104.55651 119.78516 104.54616 119.78542 104.53516 119.78516 C 103.84491 119.77226 103.29795 119.20003 103.31055 118.50977 C 103.32345 117.81951 103.89569 117.27196 104.58594 117.28516 L 142.70703 117.54297 C 142.71703 117.54297 142.72533 117.54273 142.73633 117.54297 C 143.42658 117.55587 143.97734 118.12419 143.96484 118.81445 C 143.95194 119.50473 143.3797 120.05226 142.68945 120.03906 L 139.16406 120.01367 L 141.35742 121.10742 L 151.25195 121.10742 C 152.63271 121.10716 153.7517 119.9882 153.75195 118.60742 L 153.75195 81.107422 C 153.7517 79.726642 152.63271 78.605729 151.25195 78.605469 L 68.75 78.605469 z M 67.855469 132.58984 C 66.985989 132.58984 66.287109 133.28872 66.287109 134.1582 L 66.287109 138.86914 C 66.287109 139.73862 66.985989 140.43751 67.855469 140.4375 L 83.548828 140.4375 C 84.418318 140.4375 85.121094 139.73862 85.121094 138.86914 L 85.121094 134.1582 C 85.121094 133.28872 84.418318 132.58984 83.548828 132.58984 L 67.855469 132.58984 z M 136.41016 132.58984 C 135.54068 132.58984 134.8418 133.28872 134.8418 134.1582 L 134.8418 138.86914 C 134.8418 139.73862 135.54068 140.43751 136.41016 140.4375 L 152.10352 140.4375 C 152.973 140.4375 153.67578 139.73862 153.67578 138.86914 L 153.67578 134.1582 C 153.67578 133.28872 152.97301 132.58984 152.10352 132.58984 L 136.41016 132.58984 z M 96.886719 166.39844 C 97.055499 166.3743 97.230773 166.39936 97.414062 166.47656 C 97.780222 166.63111 97.964844 166.91113 97.964844 167.31641 L 97.964844 173.79883 L 134.07422 173.79883 C 134.34441 173.79883 134.56682 173.88498 134.74023 174.05859 C 134.91349 174.23209 135 174.45463 135 174.72461 L 135 180.2793 C 135 180.54919 134.91384 180.772 134.74023 180.94531 C 134.56642 181.11877 134.34401 181.20508 134.07422 181.20508 L 97.962891 181.20508 L 97.962891 187.68555 C 97.962891 188.07189 97.780022 188.35229 97.414062 188.52539 C 97.047182 188.68034 96.709101 188.62104 96.400391 188.35156 L 85.289062 178.10742 C 85.096203 177.91466 85 177.68435 85 177.41406 C 85 177.16393 85.098146 176.94287 85.291016 176.75 L 96.400391 166.62109 C 96.554751 166.49573 96.717939 166.42254 96.886719 166.39844 z "
           transform="translate(384.03256,351.70313)"
           id="rect3518" />
        <g
           transform="matrix(3.5437419,0,0,3.5437419,-1011.695,-1512.2909)"
           id="g3565" />
        <g
           id="g4"
           style="fill:#01420a;fill-opacity:1;stroke:none"
           transform="matrix(0.04079813,0,0,0.04079813,387.17713,362.52288)" />
        <g
           id="g3526"
           transform="matrix(0.91077564,0,0,0.91077564,395.00316,-369.48504)">
          <g
             id="g4758"
             transform="matrix(0.1592925,0,0,0.1592925,124.06467,884.27139)"
             style="fill:#01420a;fill-opacity:1">
            <g
               id="g4719"
               style="fill:#01420a;fill-opacity:1" />
            <g
               id="g4722"
               style="fill:#01420a;fill-opacity:1" />
            <g
               id="g4724"
               style="fill:#01420a;fill-opacity:1" />
            <g
               id="g4726"
               style="fill:#01420a;fill-opacity:1" />
            <g
               id="g4728"
               style="fill:#01420a;fill-opacity:1" />
            <g
               id="g4730"
               style="fill:#01420a;fill-opacity:1" />
            <g
               id="g4732"
               style="fill:#01420a;fill-opacity:1" />
            <g
               id="g4734"
               style="fill:#01420a;fill-opacity:1" />
            <g
               id="g4736"
               style="fill:#01420a;fill-opacity:1" />
            <g
               id="g4738"
               style="fill:#01420a;fill-opacity:1" />
            <g
               id="g4740"
               style="fill:#01420a;fill-opacity:1" />
            <g
               id="g4742"
               style="fill:#01420a;fill-opacity:1" />
            <g
               id="g4744"
               style="fill:#01420a;fill-opacity:1" />
            <g
               id="g4746"
               style="fill:#01420a;fill-opacity:1" />
            <g
               id="g4748"
               style="fill:#01420a;fill-opacity:1" />
            <g
               id="g4750"
               style="fill:#01420a;fill-opacity:1" />
          </g>
          <g
             id="g4846"
             transform="translate(-0.70729777,0)">
            <g
               style="fill:#01420a;fill-opacity:1"
               transform="matrix(1.1359245,0,0,1.1359245,10.621929,876.40654)"
               id="g4503" />
            <g
               transform="matrix(1.2012081,0,0,1.2012081,-24.962862,-159.4502)"
               id="g4834" />
          </g>
        </g>
        <g
           id="g3561"
           transform="matrix(0.10134669,0,0,0.10134669,481.27943,400.59306)">
          <g
             id="g3521" />
          <g
             id="g3525" />
          <g
             id="g3527" />
          <g
             id="g3529" />
          <g
             id="g3531" />
          <g
             id="g3533" />
          <g
             id="g3535" />
          <g
             id="g3537" />
          <g
             id="g3539" />
          <g
             id="g3541" />
          <g
             id="g3543" />
          <g
             id="g3545" />
          <g
             id="g3547" />
          <g
             id="g3549" />
          <g
             id="g3551" />
          <g
             id="g3553" />
        </g>
        <g
           transform="matrix(-0.10134669,0,0,0.10134669,531.27942,535.59306)"
           id="g3580">
          <g
             id="g3582" />
          <g
             id="g3586" />
          <g
             id="g3588" />
          <g
             id="g3590" />
          <g
             id="g3592" />
          <g
             id="g3594" />
          <g
             id="g3596" />
          <g
             id="g3598" />
          <g
             id="g3600" />
          <g
             id="g3602" />
          <g
             id="g3604" />
          <g
             id="g3606" />
          <g
             id="g3608" />
          <g
             id="g3610" />
          <g
             id="g3612" />
          <g
             id="g3614" />
        </g>
      </g>
    </g>
  </g>
</svg>
