<?xml version="1.0" encoding="UTF-8" standalone="no"?>
<!-- Created with Inkscape (http://www.inkscape.org/) -->

<svg
   xmlns:dc="http://purl.org/dc/elements/1.1/"
   xmlns:cc="http://creativecommons.org/ns#"
   xmlns:rdf="http://www.w3.org/1999/02/22-rdf-syntax-ns#"
   xmlns:svg="http://www.w3.org/2000/svg"
   xmlns="http://www.w3.org/2000/svg"
   xmlns:sodipodi="http://sodipodi.sourceforge.net/DTD/sodipodi-0.dtd"
   xmlns:inkscape="http://www.inkscape.org/namespaces/inkscape"
   width="220"
   height="220"
   viewBox="0 0 220 220"
   id="svg2"
   version="1.1"
   inkscape:version="0.91 r13725"
   sodipodi:docname="ufu_tecnico.svg">
  <defs
     id="defs4" />
  <sodipodi:namedview
     id="base"
     pagecolor="#ffffff"
     bordercolor="#666666"
     borderopacity="1.0"
     inkscape:pageopacity="0.0"
     inkscape:pageshadow="2"
     inkscape:zoom="2.9590909"
     inkscape:cx="65.560676"
     inkscape:cy="110"
     inkscape:document-units="px"
     inkscape:current-layer="layer1"
     showgrid="false"
     units="px"
     inkscape:window-width="1440"
     inkscape:window-height="847"
     inkscape:window-x="-8"
     inkscape:window-y="-8"
     inkscape:window-maximized="1" />
  <metadata
     id="metadata7">
    <rdf:RDF>
      <cc:Work
         rdf:about="">
        <dc:format>image/svg+xml</dc:format>
        <dc:type
           rdf:resource="http://purl.org/dc/dcmitype/StillImage" />
        <dc:title></dc:title>
      </cc:Work>
    </rdf:RDF>
  </metadata>
  <g
     inkscape:label="Camada 1"
     inkscape:groupmode="layer"
     id="layer1"
     transform="translate(0,-832.36216)">
    <g
       id="g4185"
       transform="matrix(0.31054775,0,0,0.31054775,20.000001,852.36216)">
      <g
         id="g4139">
        <g
           id="g4141" />
      </g>
      <g
         id="g4149" />
      <g
         id="g4151" />
      <g
         id="g4153" />
      <g
         id="g4155" />
      <g
         id="g4157" />
      <g
         id="g4159" />
      <g
         id="g4161" />
      <g
         id="g4163" />
      <g
         id="g4165" />
      <g
         id="g4167" />
      <g
         id="g4169" />
      <g
         id="g4171" />
      <g
         id="g4173" />
      <g
         id="g4175" />
      <g
         id="g4177" />
    </g>
    <g
       id="g4257"
       transform="matrix(0.19210245,0,0,0.19210245,20.000002,852.36216)">
      <g
         id="g4211">
        <g
           id="g4217" />
      </g>
      <g
         id="g4221" />
      <g
         id="g4223" />
      <g
         id="g4225" />
      <g
         id="g4227" />
      <g
         id="g4229" />
      <g
         id="g4231" />
      <g
         id="g4233" />
      <g
         id="g4235" />
      <g
         id="g4237" />
      <g
         id="g4239" />
      <g
         id="g4241" />
      <g
         id="g4243" />
      <g
         id="g4245" />
      <g
         id="g4247" />
      <g
         id="g4249" />
    </g>
    <path
       style="color:#000000;clip-rule:nonzero;display:inline;overflow:visible;visibility:visible;opacity:1;isolation:auto;mix-blend-mode:normal;color-interpolation:sRGB;color-interpolation-filters:linearRGB;solid-color:#000000;solid-opacity:1;fill:#ffffff;fill-opacity:1;fill-rule:nonzero;stroke:none;stroke-width:5;stroke-linecap:square;stroke-linejoin:miter;stroke-miterlimit:4;stroke-dasharray:none;stroke-dashoffset:0;stroke-opacity:1;color-rendering:auto;image-rendering:auto;shape-rendering:auto;text-rendering:auto;enable-background:accumulate"
       d="M 0 0 L 0 220 L 220 220 L 220 0 L 0 0 z M 109.99805 20 A 19.791813 19.791813 0 0 1 129.78906 39.791016 A 19.791813 19.791813 0 0 1 109.99805 59.583984 A 19.791813 19.791813 0 0 1 90.205078 39.791016 A 19.791813 19.791813 0 0 1 109.99805 20 z M 105.21875 60.673828 L 109.99805 65.695312 L 114.92578 60.728516 C 121.90175 62.437005 128.48002 67.657976 129.92188 74.962891 L 161.86133 74.962891 C 163.43215 74.962891 164.70268 76.241171 164.70703 77.810547 L 164.70703 128.87305 C 164.70703 130.44242 163.43411 131.71875 161.86328 131.71875 L 148.66602 131.71875 C 148.65587 131.73904 148.65423 131.75706 148.64844 131.77734 C 147.46162 134.85378 144.51986 136.74609 141.4043 136.74609 C 140.47687 136.74609 139.53346 136.57869 138.61328 136.22656 C 136.47151 135.39768 134.921 133.71807 134.16602 131.72266 L 128.80859 131.72266 L 128.80664 190.91211 C 128.80664 195.92745 124.74335 199.99609 119.72656 199.99609 C 114.71412 199.99609 110.65039 195.92745 110.65039 190.91211 L 110.65039 131.72266 L 109.35742 131.72266 L 109.35742 190.91797 C 109.35742 195.93331 105.29413 200 100.27734 200 C 95.262007 200 91.197266 195.93526 91.197266 190.91992 L 91.195312 131.72656 L 86.234375 131.72656 C 85.479394 133.72197 83.931274 135.40303 81.785156 136.23047 C 80.864977 136.5826 79.920557 136.75 78.990234 136.75 C 75.880465 136.75 72.940215 134.85769 71.751953 131.78125 C 71.746157 131.76096 71.744015 131.74294 71.732422 131.72266 L 58.136719 131.72266 C 56.568792 131.72266 55.292969 130.44633 55.292969 128.87695 L 55.292969 77.8125 C 55.292969 76.243124 56.568792 74.964844 58.136719 74.964844 L 90.074219 74.964844 C 91.527666 67.619354 98.15678 62.362156 105.17188 60.685547 C 105.18782 60.67975 105.20426 60.679625 105.21875 60.673828 z M 60.986328 80.65625 L 60.986328 126.02734 L 70.822266 126.02734 C 71.013547 123.98411 71.79435 122.44059 72.640625 121.37695 C 74.495474 119.03666 77.475854 117.82919 80.421875 118.24219 C 84.343141 118.78125 87.131301 122.16984 87.082031 126.02734 L 133.31055 126.02734 C 133.26273 122.16984 136.05378 118.7798 139.9707 118.24219 C 142.91528 117.84079 145.89761 119.03666 147.75391 121.37695 C 148.59728 122.44059 149.37708 123.98411 149.56836 126.02734 L 159.00977 126.02734 L 159.00977 80.65625 L 60.986328 80.65625 z M 102.47461 84.845703 L 117.49414 84.845703 L 125.02539 92.347656 L 117.47852 92.347656 L 114.68555 95.140625 L 114.68555 108.86914 L 113.04492 110.50977 L 104.09961 110.50977 L 102.47461 108.88477 L 102.47461 84.845703 z M 98.587891 88.732422 L 98.587891 110.53906 L 102.47461 114.42578 L 111.38867 114.42578 L 116.37109 109.44531 L 116.37109 95.869141 L 118.29883 93.925781 L 126.57422 93.925781 L 128.1543 95.474609 L 119.07422 95.474609 L 118.00977 96.539062 L 118.00977 110.28125 L 107.13672 121.1543 L 102.44531 121.1543 L 91.845703 110.53906 L 91.845703 95.474609 L 98.587891 88.732422 z M 119.86328 97.039062 L 128.09375 97.039062 L 128.09375 110.50977 L 117.46289 121.1543 L 109.36914 121.1543 L 109.35547 121.13867 L 119.57422 110.91797 L 119.57422 97.328125 L 119.86328 97.039062 z "
       transform="translate(0,832.36216)"
       id="rect4280" />
    <g
       id="g4327"
       transform="matrix(1.4491004,0,0,1.4491004,20.000721,852.36216)">
      <g
         id="g4283">
        <g
           id="g4285" />
      </g>
      <g
         id="g4291" />
      <g
         id="g4293" />
      <g
         id="g4295" />
      <g
         id="g4297" />
      <g
         id="g4299" />
      <g
         id="g4301" />
      <g
         id="g4303" />
      <g
         id="g4305" />
      <g
         id="g4307" />
      <g
         id="g4309" />
      <g
         id="g4311" />
      <g
         id="g4313" />
      <g
         id="g4315" />
      <g
         id="g4317" />
      <g
         id="g4319" />
    </g>
    <g
       transform="matrix(0.41734202,0,0,0.41734202,91.845622,514.32119)"
       id="layer1-8"
       inkscape:label="Camada 1">
      <text
         sodipodi:linespacing="125%"
         id="text3356"
         y="1073.4818"
         x="933.04791"
         style="font-style:normal;font-variant:normal;font-weight:normal;font-stretch:normal;font-size:15px;line-height:125%;font-family:'Open Sans';-inkscape-font-specification:'Open Sans, Normal';text-align:start;letter-spacing:0px;word-spacing:0px;writing-mode:lr-tb;text-anchor:start;fill:#000000;fill-opacity:1;stroke:none;stroke-width:1px;stroke-linecap:butt;stroke-linejoin:miter;stroke-opacity:1"
         xml:space="preserve"><tspan
           y="1073.4818"
           x="933.04791"
           id="tspan3358"
           sodipodi:role="line" /></text>
    </g>
  </g>
</svg>
