<?xml version="1.0" encoding="UTF-8" standalone="no"?>
<!-- Created with Inkscape (http://www.inkscape.org/) -->

<svg
   xmlns:dc="http://purl.org/dc/elements/1.1/"
   xmlns:cc="http://creativecommons.org/ns#"
   xmlns:rdf="http://www.w3.org/1999/02/22-rdf-syntax-ns#"
   xmlns:svg="http://www.w3.org/2000/svg"
   xmlns="http://www.w3.org/2000/svg"
   xmlns:sodipodi="http://sodipodi.sourceforge.net/DTD/sodipodi-0.dtd"
   xmlns:inkscape="http://www.inkscape.org/namespaces/inkscape"
   sodipodi:docname="ufu_carta_servicos_cidadao.svg"
   inkscape:version="0.91 r13725"
   version="1.1"
   id="svg5354"
   viewBox="0 0 220 220"
   height="220"
   width="220">
  <sodipodi:namedview
     inkscape:window-maximized="1"
     inkscape:window-y="-8"
     inkscape:window-x="-8"
     inkscape:window-height="847"
     inkscape:window-width="1440"
     units="px"
     showgrid="false"
     inkscape:current-layer="layer1"
     inkscape:document-units="px"
     inkscape:cy="81.839734"
     inkscape:cx="143.7109"
     inkscape:zoom="1.0461966"
     inkscape:pageshadow="2"
     inkscape:pageopacity="0.0"
     borderopacity="1.0"
     bordercolor="#666666"
     pagecolor="#ffffff"
     id="base" />
  <defs
     id="defs5356" />
  <metadata
     id="metadata5359">
    <rdf:RDF>
      <cc:Work
         rdf:about="">
        <dc:format>image/svg+xml</dc:format>
        <dc:type
           rdf:resource="http://purl.org/dc/dcmitype/StillImage" />
        <dc:title></dc:title>
      </cc:Work>
    </rdf:RDF>
  </metadata>
  <g
     transform="translate(0,-832.36213)"
     id="layer1"
     inkscape:groupmode="layer"
     inkscape:label="Camada 1">
    <g
       transform="matrix(0.24744768,0,0,0.24744768,24.12566,862.36243)"
       id="g5972">
      <g
         id="g5905">
        <g
           id="_x31_5_38_">
          <g
             id="g5908" />
        </g>
      </g>
      <g
         id="g5936" />
      <g
         id="g5938" />
      <g
         id="g5940" />
      <g
         id="g5942" />
      <g
         id="g5944" />
      <g
         id="g5946" />
      <g
         id="g5948" />
      <g
         id="g5950" />
      <g
         id="g5952" />
      <g
         id="g5954" />
      <g
         id="g5956" />
      <g
         id="g5958" />
      <g
         id="g5960" />
      <g
         id="g5962" />
      <g
         id="g5964" />
    </g>
    <g
       transform="matrix(0.09398474,0,0,0.09398474,140.524,980.12437)"
       id="g6052">
      <g
         id="g6006">
        <g
           id="g6008" />
      </g>
      <g
         id="g6016" />
      <g
         id="g6018" />
      <g
         id="g6020" />
      <g
         id="g6022" />
      <g
         id="g6024" />
      <g
         id="g6026" />
      <g
         id="g6028" />
      <g
         id="g6030" />
      <g
         id="g6032" />
      <g
         id="g6034" />
      <g
         id="g6036" />
      <g
         id="g6038" />
      <g
         id="g6040" />
      <g
         id="g6042" />
      <g
         id="g6044" />
    </g>
    <g
       id="g6148"
       transform="matrix(0.24744768,0,0,0.24744768,-235.41351,862.36243)">
      <g
         id="g6150">
        <g
           id="g6152">
          <g
             id="g6154" />
        </g>
      </g>
      <g
         id="g6182" />
      <g
         id="g6184" />
      <g
         id="g6186" />
      <g
         id="g6188" />
      <g
         id="g6190" />
      <g
         id="g6192" />
      <g
         id="g6194" />
      <g
         id="g6196" />
      <g
         id="g6198" />
      <g
         id="g6200" />
      <g
         id="g6202" />
      <g
         id="g6204" />
      <g
         id="g6206" />
      <g
         id="g6208" />
      <g
         id="g6210" />
    </g>
    <g
       transform="matrix(0.24744768,0,0,0.24744768,-496.35872,862.36243)"
       id="g6268">
      <g
         id="g6270">
        <g
           id="g6272">
          <g
             id="g6274" />
        </g>
      </g>
      <g
         id="g6302" />
      <g
         id="g6304" />
      <g
         id="g6306" />
      <g
         id="g6308" />
      <g
         id="g6310" />
      <g
         id="g6312" />
      <g
         id="g6314" />
      <g
         id="g6316" />
      <g
         id="g6318" />
      <g
         id="g6320" />
      <g
         id="g6322" />
      <g
         id="g6324" />
      <g
         id="g6326" />
      <g
         id="g6328" />
      <g
         id="g6330" />
    </g>
    <g
       transform="matrix(0.83333333,0,0,0.83333333,-372.72273,987.36213)"
       id="g6383">
      <g
         id="g6341">
        <g
           id="g6343" />
      </g>
      <g
         id="g6347" />
      <g
         id="g6349" />
      <g
         id="g6351" />
      <g
         id="g6353" />
      <g
         id="g6355" />
      <g
         id="g6357" />
      <g
         id="g6359" />
      <g
         id="g6361" />
      <g
         id="g6363" />
      <g
         id="g6365" />
      <g
         id="g6367" />
      <g
         id="g6369" />
      <g
         id="g6371" />
      <g
         id="g6373" />
      <g
         id="g6375" />
    </g>
    <g
       transform="matrix(0.29296874,0,0,0.29296874,-678.08878,604.88221)"
       id="g4276">
      <g
         id="g4236" />
      <g
         id="g4240" />
      <g
         id="g4242" />
      <g
         id="g4244" />
      <g
         id="g4246" />
      <g
         id="g4248" />
      <g
         id="g4250" />
      <g
         id="g4252" />
      <g
         id="g4254" />
      <g
         id="g4256" />
      <g
         id="g4258" />
      <g
         id="g4260" />
      <g
         id="g4262" />
      <g
         id="g4264" />
      <g
         id="g4266" />
      <g
         id="g4268" />
    </g>
    <g
       style="fill:#00ff00"
       transform="matrix(0.21739083,0,0,0.21739083,-711.80524,597.1725)"
       id="g4342">
      <g
         style="fill:#00ff00"
         id="g4296">
        <g
           style="fill:#00ff00"
           id="g4298" />
      </g>
      <g
         style="fill:#00ff00"
         id="g4306" />
      <g
         style="fill:#00ff00"
         id="g4308" />
      <g
         style="fill:#00ff00"
         id="g4310" />
      <g
         style="fill:#00ff00"
         id="g4312" />
      <g
         style="fill:#00ff00"
         id="g4314" />
      <g
         style="fill:#00ff00"
         id="g4316" />
      <g
         style="fill:#00ff00"
         id="g4318" />
      <g
         style="fill:#00ff00"
         id="g4320" />
      <g
         style="fill:#00ff00"
         id="g4322" />
      <g
         style="fill:#00ff00"
         id="g4324" />
      <g
         style="fill:#00ff00"
         id="g4326" />
      <g
         style="fill:#00ff00"
         id="g4328" />
      <g
         style="fill:#00ff00"
         id="g4330" />
      <g
         style="fill:#00ff00"
         id="g4332" />
      <g
         style="fill:#00ff00"
         id="g4334" />
    </g>
    <g
       transform="translate(71.380022,907.45957)"
       id="g4424">
      <g
         id="g4370">
        <g
           id="g4372" />
      </g>
      <g
         id="g4388" />
      <g
         id="g4390" />
      <g
         id="g4392" />
      <g
         id="g4394" />
      <g
         id="g4396" />
      <g
         id="g4398" />
      <g
         id="g4400" />
      <g
         id="g4402" />
      <g
         id="g4404" />
      <g
         id="g4406" />
      <g
         id="g4408" />
      <g
         id="g4410" />
      <g
         id="g4412" />
      <g
         id="g4414" />
      <g
         id="g4416" />
    </g>
    <g
       style="fill:#000000"
       inkscape:label="Camada 1"
       id="layer1-7"
       transform="matrix(0.17729023,0,0,0.17729023,169.01022,812.13891)">
      <g
         style="fill:#000000"
         transform="matrix(1.8390805,0,0,1.8390805,29.999991,-913.01664)"
         id="layer1-6"
         inkscape:label="Camada 1">
        <text
           sodipodi:linespacing="125%"
           id="text3356"
           y="1073.4818"
           x="933.04791"
           style="font-style:normal;font-variant:normal;font-weight:normal;font-stretch:normal;font-size:15px;line-height:125%;font-family:'Open Sans';-inkscape-font-specification:'Open Sans, Normal';text-align:start;letter-spacing:0px;word-spacing:0px;writing-mode:lr-tb;text-anchor:start;fill:#000000;fill-opacity:1;stroke:none;stroke-width:1px;stroke-linecap:butt;stroke-linejoin:miter;stroke-opacity:1"
           xml:space="preserve"><tspan
             y="1073.4818"
             x="933.04791"
             id="tspan3358"
             sodipodi:role="line" /></text>
      </g>
    </g>
    <g
       id="g6483"
       transform="matrix(0.26146732,0,0,0.26146732,30.000001,862.36215)">
      <g
         id="g6443" />
      <g
         id="g6447" />
      <g
         id="g6449" />
      <g
         id="g6451" />
      <g
         id="g6453" />
      <g
         id="g6455" />
      <g
         id="g6457" />
      <g
         id="g6459" />
      <g
         id="g6461" />
      <g
         id="g6463" />
      <g
         id="g6465" />
      <g
         id="g6467" />
      <g
         id="g6469" />
      <g
         id="g6471" />
      <g
         id="g6473" />
      <g
         id="g6475" />
    </g>
    <g
       id="g6544"
       transform="matrix(2.6666667,0,0,2.6666667,29.999999,862.36213)">
      <g
         id="g6508" />
      <g
         id="g6510" />
      <g
         id="g6512" />
      <g
         id="g6514" />
      <g
         id="g6516" />
      <g
         id="g6518" />
      <g
         id="g6520" />
      <g
         id="g6522" />
      <g
         id="g6524" />
      <g
         id="g6526" />
      <g
         id="g6528" />
      <g
         id="g6530" />
      <g
         id="g6532" />
      <g
         id="g6534" />
      <g
         id="g6536" />
    </g>
    <g
       id="g6610"
       transform="matrix(0.33898305,0,0,0.33898305,30,862.36213)">
      <g
         id="g6566">
        <g
           id="g6568" />
      </g>
      <g
         id="g6574" />
      <g
         id="g6576" />
      <g
         id="g6578" />
      <g
         id="g6580" />
      <g
         id="g6582" />
      <g
         id="g6584" />
      <g
         id="g6586" />
      <g
         id="g6588" />
      <g
         id="g6590" />
      <g
         id="g6592" />
      <g
         id="g6594" />
      <g
         id="g6596" />
      <g
         id="g6598" />
      <g
         id="g6600" />
      <g
         id="g6602" />
    </g>
    <g
       id="g6748"
       transform="matrix(0.31249939,0,0,0.31249939,29.999687,862.36213)">
      <g
         id="g6634">
        <g
           id="g6636" />
      </g>
      <g
         id="g6640">
        <g
           id="g6642" />
      </g>
      <g
         id="g6646">
        <g
           id="g6648" />
      </g>
      <g
         id="g6652">
        <g
           id="g6654" />
      </g>
      <g
         id="g6658">
        <g
           id="g6660" />
      </g>
      <g
         id="g6664">
        <g
           id="g6666" />
      </g>
      <g
         id="g6670">
        <g
           id="g6672" />
      </g>
      <g
         id="g6676">
        <g
           id="g6678" />
      </g>
      <g
         id="g6682">
        <g
           id="g6684" />
      </g>
      <g
         id="g6688">
        <g
           id="g6690" />
      </g>
      <g
         id="g6694">
        <g
           id="g6696" />
      </g>
      <g
         id="g6700">
        <g
           id="g6702" />
      </g>
      <g
         id="g6706">
        <g
           id="g6708" />
      </g>
      <g
         id="g6712" />
      <g
         id="g6714" />
      <g
         id="g6716" />
      <g
         id="g6718" />
      <g
         id="g6720" />
      <g
         id="g6722" />
      <g
         id="g6724" />
      <g
         id="g6726" />
      <g
         id="g6728" />
      <g
         id="g6730" />
      <g
         id="g6732" />
      <g
         id="g6734" />
      <g
         id="g6736" />
      <g
         id="g6738" />
      <g
         id="g6740" />
    </g>
    <g
       id="g6849"
       transform="translate(-95.032377,919.0632)">
      <g
         id="g6807" />
      <g
         id="g6813" />
      <g
         id="g6815" />
      <g
         id="g6817" />
      <g
         id="g6819" />
      <g
         id="g6821" />
      <g
         id="g6823" />
      <g
         id="g6825" />
      <g
         id="g6827" />
      <g
         id="g6829" />
      <g
         id="g6831" />
      <g
         id="g6833" />
      <g
         id="g6835" />
      <g
         id="g6837" />
      <g
         id="g6839" />
      <g
         id="g6841" />
    </g>
    <path
       style="color:#000000;clip-rule:nonzero;display:inline;overflow:visible;visibility:visible;opacity:1;isolation:auto;mix-blend-mode:normal;color-interpolation:sRGB;color-interpolation-filters:linearRGB;solid-color:#000000;solid-opacity:1;fill:#ffffff;fill-opacity:1;fill-rule:nonzero;stroke:none;stroke-width:5;stroke-linecap:square;stroke-linejoin:miter;stroke-miterlimit:4;stroke-dasharray:none;stroke-dashoffset:0;stroke-opacity:1;color-rendering:auto;image-rendering:auto;shape-rendering:auto;text-rendering:auto;enable-background:accumulate"
       d="M 0 0 L 0 220 L 220 220 L 220 0 L 0 0 z M 49.865234 30 L 170.13281 30 C 173.67651 30 176.57812 32.899662 176.57812 36.443359 L 176.57812 114.83203 C 176.57813 118.37573 173.67651 121.27539 170.13281 121.27539 C 166.58911 121.27539 163.69141 118.37573 163.69141 114.83203 L 163.69141 42.886719 L 56.310547 42.886719 L 56.310547 177.11523 L 105.70312 177.11523 C 109.24683 177.11523 112.14648 180.01294 112.14648 183.55664 C 112.14648 187.10034 109.24683 190 105.70312 190 L 49.865234 190 C 46.32154 190 43.423828 187.10034 43.423828 183.55664 L 43.423828 36.443359 C 43.423828 32.899662 46.321908 30 49.865234 30 z M 131.50195 63.064453 C 133.18252 63.064453 134.4594 63.525573 135.32617 64.445312 C 136.19294 65.365054 136.625 66.714392 136.625 68.496094 C 136.62499 70.272969 136.188 71.624275 135.31641 72.548828 C 134.44482 73.473388 133.17081 73.935547 131.49023 73.935547 C 129.83374 73.935547 128.56181 73.470389 127.67578 72.541016 C 126.79456 71.611646 126.35156 70.259297 126.35156 68.482422 C 126.35156 66.7248 126.78962 65.383544 127.66602 64.458984 C 128.54724 63.529615 129.82619 63.064453 131.50195 63.064453 z M 78.615234 63.080078 C 79.708335 63.080078 80.822554 63.332271 81.958984 63.837891 L 81.087891 66.041016 C 80.100731 65.588366 79.244844 65.361328 78.527344 65.361328 C 78.156564 65.361328 77.889243 65.426621 77.720703 65.556641 C 77.552153 65.686651 77.466797 65.848406 77.466797 66.041016 C 77.466797 66.248076 77.571323 66.433936 77.783203 66.597656 C 77.999893 66.761386 78.584573 67.058807 79.533203 67.492188 C 80.443313 67.901496 81.074251 68.342544 81.425781 68.814453 C 81.782121 69.281542 81.958984 69.871309 81.958984 70.583984 C 81.958984 71.238876 81.795151 71.821593 81.462891 72.332031 C 81.130621 72.837642 80.651391 73.233478 80.025391 73.517578 C 79.39938 73.796876 78.663013 73.935547 77.820312 73.935547 C 77.117263 73.935547 76.529455 73.887318 76.052734 73.791016 C 75.576015 73.689897 75.079703 73.517078 74.564453 73.271484 L 74.564453 70.728516 C 75.108593 71.007803 75.672296 71.22782 76.259766 71.386719 C 76.847245 71.54079 77.387736 71.617188 77.878906 71.617188 C 78.302666 71.617187 78.61505 71.544851 78.8125 71.400391 C 79.00991 71.25111 79.107422 71.061218 79.107422 70.830078 C 79.107422 70.685618 79.066275 70.561021 78.984375 70.455078 C 78.907325 70.34433 78.779732 70.23381 78.601562 70.123047 C 78.428203 70.012299 77.962002 69.785247 77.201172 69.443359 C 76.512572 69.130349 75.993194 68.826944 75.646484 68.533203 C 75.304594 68.239462 75.051353 67.901905 74.882812 67.521484 C 74.719113 67.141064 74.634766 66.691935 74.634766 66.171875 C 74.634766 65.199165 74.989406 64.440624 75.697266 63.896484 C 76.405136 63.352345 77.377685 63.080078 78.615234 63.080078 z M 121.88281 63.080078 C 123.02406 63.080078 124.11416 63.328239 125.1543 63.824219 L 124.2793 66.070312 C 123.88926 65.887323 123.49942 65.732622 123.10938 65.607422 C 122.71933 65.482222 122.30135 65.419922 121.85352 65.419922 C 121.17454 65.419922 120.64603 65.699224 120.26562 66.257812 C 119.8852 66.811582 119.69531 67.577167 119.69531 68.554688 C 119.69531 70.586789 120.46793 71.603516 122.01367 71.603516 C 122.48077 71.603516 122.9329 71.538214 123.37109 71.408203 C 123.80929 71.278185 124.24839 71.120482 124.69141 70.9375 L 124.69141 73.351562 C 123.82766 73.733881 122.8534 73.925597 121.76758 73.933594 L 121.74414 74 C 122.20642 74.187798 122.52886 74.410804 122.70703 74.666016 C 122.88521 74.926044 122.97266 75.240548 122.97266 75.611328 C 122.97266 76.136209 122.7928 76.556141 122.43164 76.869141 C 122.07049 77.186953 121.59125 77.345703 120.99414 77.345703 C 120.33925 77.345703 119.82782 77.274413 119.45703 77.134766 L 119.45703 75.654297 C 119.85671 75.784304 120.20743 75.849609 120.51562 75.849609 C 120.76603 75.849609 120.89062 75.736085 120.89062 75.509766 C 120.89062 75.350856 120.79313 75.209186 120.5957 75.083984 C 120.39827 74.963607 120.14008 74.867119 119.82227 74.794922 L 120.33984 73.798828 C 119.39484 73.601787 118.62305 73.188669 118.0332 72.548828 C 117.18569 71.624275 116.75977 70.28901 116.75977 68.541016 C 116.75977 67.447927 116.96568 66.486453 117.375 65.658203 C 117.78911 64.829953 118.38188 64.194973 119.15234 63.751953 C 119.92762 63.304123 120.83787 63.080078 121.88281 63.080078 z M 142.0918 63.080078 C 143.18489 63.080078 144.30107 63.332271 145.4375 63.837891 L 144.56445 66.041016 C 143.5773 65.588366 142.72139 65.361328 142.00391 65.361328 C 141.63312 65.361328 141.36579 65.426621 141.19727 65.556641 C 141.0287 65.686651 140.94531 65.848406 140.94531 66.041016 C 140.94531 66.248076 141.04789 66.433936 141.25977 66.597656 C 141.47646 66.761386 142.06112 67.058807 143.00977 67.492188 C 143.91987 67.901496 144.55082 68.342544 144.90234 68.814453 C 145.25868 69.281542 145.4375 69.871309 145.4375 70.583984 C 145.4375 71.238876 145.27172 71.821593 144.93945 72.332031 C 144.60719 72.837642 144.12795 73.233478 143.50195 73.517578 C 142.87595 73.796876 142.13957 73.935547 141.29688 73.935547 C 140.59383 73.935547 140.00406 73.887318 139.52734 73.791016 C 139.05061 73.689897 138.5543 73.517078 138.03906 73.271484 L 138.03906 70.728516 C 138.58321 71.007803 139.1508 71.22782 139.73828 71.386719 C 140.32576 71.54079 140.86625 71.617188 141.35742 71.617188 C 141.78118 71.617187 142.09163 71.544851 142.28906 71.400391 C 142.48648 71.25111 142.58398 71.061218 142.58398 70.830078 C 142.58398 70.685618 142.54088 70.561021 142.45898 70.455078 C 142.38193 70.34433 142.25433 70.23381 142.07617 70.123047 C 141.90281 70.012299 141.43857 69.785247 140.67773 69.443359 C 139.98913 69.130349 139.47171 68.826944 139.125 68.533203 C 138.7831 68.239462 138.52596 67.901905 138.35742 67.521484 C 138.19373 67.141064 138.11328 66.691935 138.11328 66.171875 C 138.11328 65.199165 138.46792 64.440624 139.17578 63.896484 C 139.88364 63.352345 140.85424 63.080078 142.0918 63.080078 z M 83.607422 63.230469 L 89.876953 63.230469 L 89.876953 65.521484 L 86.458984 65.521484 L 86.458984 67.181641 L 89.625 67.181641 L 89.625 69.472656 L 86.458984 69.472656 L 86.458984 71.464844 L 89.876953 71.464844 L 89.876953 73.791016 L 83.607422 73.791016 L 83.607422 63.230469 z M 91.726562 63.230469 L 95.183594 63.230469 C 98.053574 63.230469 99.490234 64.271313 99.490234 66.351562 C 99.490234 67.574672 98.891486 68.520112 97.697266 69.189453 L 100.77734 73.791016 L 97.539062 73.791016 L 95.302734 69.949219 L 94.578125 69.949219 L 94.578125 73.791016 L 91.726562 73.791016 L 91.726562 63.230469 z M 100.60938 63.230469 L 103.81641 63.230469 L 105.25391 68.583984 C 105.55247 69.773386 105.71719 70.601259 105.74609 71.068359 C 105.7798 70.731277 105.84615 70.310309 105.94727 69.804688 C 106.0484 69.299077 106.13784 68.902202 106.21484 68.613281 L 107.68164 63.230469 L 110.875 63.230469 L 107.41406 73.791016 L 104.05664 73.791016 L 100.60938 63.230469 z M 112.00781 63.230469 L 114.87695 63.230469 L 114.87695 73.791016 L 112.00781 73.791016 L 112.00781 63.230469 z M 94.578125 65.390625 L 94.578125 67.802734 L 95.113281 67.802734 C 96.110061 67.802734 96.609375 67.363642 96.609375 66.482422 C 96.609375 65.755292 96.118155 65.390625 95.140625 65.390625 L 94.578125 65.390625 z M 131.50195 65.40625 C 130.07177 65.40625 129.35742 66.435102 129.35742 68.496094 C 129.35742 70.537818 130.06969 71.558594 131.49023 71.558594 C 132.21254 71.558594 132.74509 71.312395 133.0918 70.816406 C 133.44332 70.320425 133.62109 69.545851 133.62109 68.496094 C 133.62109 67.441523 133.44032 66.664864 133.08398 66.164062 C 132.73245 65.658444 132.20499 65.40625 131.50195 65.40625 z M 81.007812 85.28125 L 138.99414 85.28125 C 142.53784 85.28125 145.4375 88.181019 145.4375 91.724609 C 145.4375 95.268307 142.53784 98.166016 138.99414 98.166016 L 81.007812 98.166016 C 77.464112 98.166016 74.564453 95.268307 74.564453 91.724609 C 74.564453 88.181019 77.464112 85.28125 81.007812 85.28125 z M 81.007812 105.28125 L 138.99414 105.28125 C 142.53784 105.28125 145.4375 108.18092 145.4375 111.72461 C 145.4375 115.26831 142.53784 118.16602 138.99414 118.16602 L 81.007812 118.16602 C 77.464112 118.16602 74.564453 115.26831 74.564453 111.72461 C 74.564453 108.18092 77.464112 105.28125 81.007812 105.28125 z M 81.007812 125.28125 L 98.189453 125.28125 C 101.73314 125.28125 104.62891 128.18092 104.62891 131.72461 C 104.62891 135.26831 101.73314 138.16602 98.189453 138.16602 L 81.007812 138.16602 C 77.464112 138.16602 74.564453 135.26831 74.564453 131.72461 C 74.564453 128.18091 77.464112 125.28125 81.007812 125.28125 z M 141.83789 140.87695 L 162.1543 140.87695 L 172.3457 151.02734 L 162.13281 151.02734 L 158.35352 154.80664 L 158.35352 173.37891 L 156.13477 175.59766 L 144.0332 175.59766 L 141.83789 173.40039 L 141.83789 140.87695 z M 136.57812 146.13672 L 136.57812 175.63867 L 141.83789 180.89844 L 153.89648 180.89844 L 160.63281 174.16016 L 160.63281 155.79297 L 163.24414 153.16406 L 174.43945 153.16406 L 176.57812 155.25977 L 164.29102 155.25977 L 162.85156 156.69727 L 162.85156 175.29102 L 148.14453 190 L 141.79688 190 L 127.45312 175.63867 L 127.45312 155.25977 L 136.57812 146.13672 z M 165.35938 157.375 L 176.49609 157.375 L 176.49609 175.59766 L 162.11328 190 L 151.16406 190 L 151.14453 189.98047 L 164.9707 176.15234 L 164.9707 157.76562 L 165.35938 157.375 z "
       transform="translate(0,832.36213)"
       id="rect7184" />
    <g
       id="g7227"
       transform="matrix(0.36852094,0,0,0.36852094,84.648524,892.36213)">
      <g
         id="g7187" />
      <g
         id="g7191" />
      <g
         id="g7193" />
      <g
         id="g7195" />
      <g
         id="g7197" />
      <g
         id="g7199" />
      <g
         id="g7201" />
      <g
         id="g7203" />
      <g
         id="g7205" />
      <g
         id="g7207" />
      <g
         id="g7209" />
      <g
         id="g7211" />
      <g
         id="g7213" />
      <g
         id="g7215" />
      <g
         id="g7217" />
      <g
         id="g7219" />
    </g>
    <g
       transform="matrix(0.30701363,0,0,0.30701363,116.54802,711.48142)"
       id="layer1-0"
       inkscape:label="Camada 1"
       style="fill:#ffffff">
      <g
         inkscape:label="Camada 1"
         id="layer1-6-6"
         transform="matrix(1.8390805,0,0,1.8390805,29.999991,-913.01664)"
         style="fill:#ffffff">
        <text
           xml:space="preserve"
           style="font-style:normal;font-variant:normal;font-weight:normal;font-stretch:normal;font-size:15px;line-height:125%;font-family:'Open Sans';-inkscape-font-specification:'Open Sans, Normal';text-align:start;letter-spacing:0px;word-spacing:0px;writing-mode:lr-tb;text-anchor:start;fill:#ffffff;fill-opacity:1;stroke:none;stroke-width:1px;stroke-linecap:butt;stroke-linejoin:miter;stroke-opacity:1"
           x="933.04791"
           y="1073.4818"
           id="text3356-4"
           sodipodi:linespacing="125%"><tspan
             sodipodi:role="line"
             id="tspan3358-1"
             x="933.04791"
             y="1073.4818" /></text>
      </g>
    </g>
  </g>
</svg>
