<?xml version="1.0" encoding="UTF-8" standalone="no"?>
<!-- Created with Inkscape (http://www.inkscape.org/) -->

<svg
   xmlns:dc="http://purl.org/dc/elements/1.1/"
   xmlns:cc="http://creativecommons.org/ns#"
   xmlns:rdf="http://www.w3.org/1999/02/22-rdf-syntax-ns#"
   xmlns:svg="http://www.w3.org/2000/svg"
   xmlns="http://www.w3.org/2000/svg"
   xmlns:sodipodi="http://sodipodi.sourceforge.net/DTD/sodipodi-0.dtd"
   xmlns:inkscape="http://www.inkscape.org/namespaces/inkscape"
   sodipodi:docname="ufu_pesquisa_satisfacao.svg"
   inkscape:version="0.91 r13725"
   version="1.1"
   id="svg5354"
   viewBox="0 0 220 220"
   height="220"
   width="220">
  <sodipodi:namedview
     inkscape:window-maximized="1"
     inkscape:window-y="-8"
     inkscape:window-x="-8"
     inkscape:window-height="847"
     inkscape:window-width="1440"
     units="px"
     showgrid="false"
     inkscape:current-layer="layer1"
     inkscape:document-units="px"
     inkscape:cy="-8.3073891"
     inkscape:cx="-89.775752"
     inkscape:zoom="1.0461966"
     inkscape:pageshadow="2"
     inkscape:pageopacity="0.0"
     borderopacity="1.0"
     bordercolor="#666666"
     pagecolor="#ffffff"
     id="base" />
  <defs
     id="defs5356" />
  <metadata
     id="metadata5359">
    <rdf:RDF>
      <cc:Work
         rdf:about="">
        <dc:format>image/svg+xml</dc:format>
        <dc:type
           rdf:resource="http://purl.org/dc/dcmitype/StillImage" />
        <dc:title></dc:title>
      </cc:Work>
    </rdf:RDF>
  </metadata>
  <g
     transform="translate(0,-832.36213)"
     id="layer1"
     inkscape:groupmode="layer"
     inkscape:label="Camada 1">
    <g
       transform="matrix(0.24744768,0,0,0.24744768,24.12566,862.36243)"
       id="g5972">
      <g
         id="g5905">
        <g
           id="_x31_5_38_">
          <g
             id="g5908" />
        </g>
      </g>
      <g
         id="g5936" />
      <g
         id="g5938" />
      <g
         id="g5940" />
      <g
         id="g5942" />
      <g
         id="g5944" />
      <g
         id="g5946" />
      <g
         id="g5948" />
      <g
         id="g5950" />
      <g
         id="g5952" />
      <g
         id="g5954" />
      <g
         id="g5956" />
      <g
         id="g5958" />
      <g
         id="g5960" />
      <g
         id="g5962" />
      <g
         id="g5964" />
    </g>
    <g
       transform="matrix(0.09398474,0,0,0.09398474,140.524,980.12437)"
       id="g6052">
      <g
         id="g6006">
        <g
           id="g6008" />
      </g>
      <g
         id="g6016" />
      <g
         id="g6018" />
      <g
         id="g6020" />
      <g
         id="g6022" />
      <g
         id="g6024" />
      <g
         id="g6026" />
      <g
         id="g6028" />
      <g
         id="g6030" />
      <g
         id="g6032" />
      <g
         id="g6034" />
      <g
         id="g6036" />
      <g
         id="g6038" />
      <g
         id="g6040" />
      <g
         id="g6042" />
      <g
         id="g6044" />
    </g>
    <g
       id="g6148"
       transform="matrix(0.24744768,0,0,0.24744768,-235.41351,862.36243)">
      <g
         id="g6150">
        <g
           id="g6152">
          <g
             id="g6154" />
        </g>
      </g>
      <g
         id="g6182" />
      <g
         id="g6184" />
      <g
         id="g6186" />
      <g
         id="g6188" />
      <g
         id="g6190" />
      <g
         id="g6192" />
      <g
         id="g6194" />
      <g
         id="g6196" />
      <g
         id="g6198" />
      <g
         id="g6200" />
      <g
         id="g6202" />
      <g
         id="g6204" />
      <g
         id="g6206" />
      <g
         id="g6208" />
      <g
         id="g6210" />
    </g>
    <g
       transform="matrix(0.24744768,0,0,0.24744768,-496.35872,862.36243)"
       id="g6268">
      <g
         id="g6270">
        <g
           id="g6272">
          <g
             id="g6274" />
        </g>
      </g>
      <g
         id="g6302" />
      <g
         id="g6304" />
      <g
         id="g6306" />
      <g
         id="g6308" />
      <g
         id="g6310" />
      <g
         id="g6312" />
      <g
         id="g6314" />
      <g
         id="g6316" />
      <g
         id="g6318" />
      <g
         id="g6320" />
      <g
         id="g6322" />
      <g
         id="g6324" />
      <g
         id="g6326" />
      <g
         id="g6328" />
      <g
         id="g6330" />
    </g>
    <g
       transform="matrix(0.83333333,0,0,0.83333333,-372.72273,987.36213)"
       id="g6383">
      <g
         id="g6341">
        <g
           id="g6343" />
      </g>
      <g
         id="g6347" />
      <g
         id="g6349" />
      <g
         id="g6351" />
      <g
         id="g6353" />
      <g
         id="g6355" />
      <g
         id="g6357" />
      <g
         id="g6359" />
      <g
         id="g6361" />
      <g
         id="g6363" />
      <g
         id="g6365" />
      <g
         id="g6367" />
      <g
         id="g6369" />
      <g
         id="g6371" />
      <g
         id="g6373" />
      <g
         id="g6375" />
    </g>
    <g
       transform="matrix(0.29296874,0,0,0.29296874,-678.08878,604.88221)"
       id="g4276">
      <g
         id="g4236" />
      <g
         id="g4240" />
      <g
         id="g4242" />
      <g
         id="g4244" />
      <g
         id="g4246" />
      <g
         id="g4248" />
      <g
         id="g4250" />
      <g
         id="g4252" />
      <g
         id="g4254" />
      <g
         id="g4256" />
      <g
         id="g4258" />
      <g
         id="g4260" />
      <g
         id="g4262" />
      <g
         id="g4264" />
      <g
         id="g4266" />
      <g
         id="g4268" />
    </g>
    <g
       style="fill:#00ff00"
       transform="matrix(0.21739083,0,0,0.21739083,-711.80524,597.1725)"
       id="g4342">
      <g
         style="fill:#00ff00"
         id="g4296">
        <g
           style="fill:#00ff00"
           id="g4298" />
      </g>
      <g
         style="fill:#00ff00"
         id="g4306" />
      <g
         style="fill:#00ff00"
         id="g4308" />
      <g
         style="fill:#00ff00"
         id="g4310" />
      <g
         style="fill:#00ff00"
         id="g4312" />
      <g
         style="fill:#00ff00"
         id="g4314" />
      <g
         style="fill:#00ff00"
         id="g4316" />
      <g
         style="fill:#00ff00"
         id="g4318" />
      <g
         style="fill:#00ff00"
         id="g4320" />
      <g
         style="fill:#00ff00"
         id="g4322" />
      <g
         style="fill:#00ff00"
         id="g4324" />
      <g
         style="fill:#00ff00"
         id="g4326" />
      <g
         style="fill:#00ff00"
         id="g4328" />
      <g
         style="fill:#00ff00"
         id="g4330" />
      <g
         style="fill:#00ff00"
         id="g4332" />
      <g
         style="fill:#00ff00"
         id="g4334" />
    </g>
    <g
       transform="translate(71.380022,907.45957)"
       id="g4424">
      <g
         id="g4370">
        <g
           id="g4372" />
      </g>
      <g
         id="g4388" />
      <g
         id="g4390" />
      <g
         id="g4392" />
      <g
         id="g4394" />
      <g
         id="g4396" />
      <g
         id="g4398" />
      <g
         id="g4400" />
      <g
         id="g4402" />
      <g
         id="g4404" />
      <g
         id="g4406" />
      <g
         id="g4408" />
      <g
         id="g4410" />
      <g
         id="g4412" />
      <g
         id="g4414" />
      <g
         id="g4416" />
    </g>
    <g
       style="fill:#000000"
       inkscape:label="Camada 1"
       id="layer1-7"
       transform="matrix(0.17729023,0,0,0.17729023,169.01022,812.13891)">
      <g
         style="fill:#000000"
         transform="matrix(1.8390805,0,0,1.8390805,29.999991,-913.01664)"
         id="layer1-6"
         inkscape:label="Camada 1">
        <text
           sodipodi:linespacing="125%"
           id="text3356"
           y="1073.4818"
           x="933.04791"
           style="font-style:normal;font-variant:normal;font-weight:normal;font-stretch:normal;font-size:15px;line-height:125%;font-family:'Open Sans';-inkscape-font-specification:'Open Sans, Normal';text-align:start;letter-spacing:0px;word-spacing:0px;writing-mode:lr-tb;text-anchor:start;fill:#000000;fill-opacity:1;stroke:none;stroke-width:1px;stroke-linecap:butt;stroke-linejoin:miter;stroke-opacity:1"
           xml:space="preserve"><tspan
             y="1073.4818"
             x="933.04791"
             id="tspan3358"
             sodipodi:role="line" /></text>
      </g>
    </g>
    <g
       id="g6483"
       transform="matrix(0.26146732,0,0,0.26146732,30.000001,862.36215)">
      <g
         id="g6443" />
      <g
         id="g6447" />
      <g
         id="g6449" />
      <g
         id="g6451" />
      <g
         id="g6453" />
      <g
         id="g6455" />
      <g
         id="g6457" />
      <g
         id="g6459" />
      <g
         id="g6461" />
      <g
         id="g6463" />
      <g
         id="g6465" />
      <g
         id="g6467" />
      <g
         id="g6469" />
      <g
         id="g6471" />
      <g
         id="g6473" />
      <g
         id="g6475" />
    </g>
    <g
       id="g6544"
       transform="matrix(2.6666667,0,0,2.6666667,29.999999,862.36213)">
      <g
         id="g6508" />
      <g
         id="g6510" />
      <g
         id="g6512" />
      <g
         id="g6514" />
      <g
         id="g6516" />
      <g
         id="g6518" />
      <g
         id="g6520" />
      <g
         id="g6522" />
      <g
         id="g6524" />
      <g
         id="g6526" />
      <g
         id="g6528" />
      <g
         id="g6530" />
      <g
         id="g6532" />
      <g
         id="g6534" />
      <g
         id="g6536" />
    </g>
    <g
       id="g6610"
       transform="matrix(0.33898305,0,0,0.33898305,30,862.36213)">
      <g
         id="g6566">
        <g
           id="g6568" />
      </g>
      <g
         id="g6574" />
      <g
         id="g6576" />
      <g
         id="g6578" />
      <g
         id="g6580" />
      <g
         id="g6582" />
      <g
         id="g6584" />
      <g
         id="g6586" />
      <g
         id="g6588" />
      <g
         id="g6590" />
      <g
         id="g6592" />
      <g
         id="g6594" />
      <g
         id="g6596" />
      <g
         id="g6598" />
      <g
         id="g6600" />
      <g
         id="g6602" />
    </g>
    <g
       id="g6748"
       transform="matrix(0.31249939,0,0,0.31249939,29.999687,862.36213)">
      <g
         id="g6634">
        <g
           id="g6636" />
      </g>
      <g
         id="g6640">
        <g
           id="g6642" />
      </g>
      <g
         id="g6646">
        <g
           id="g6648" />
      </g>
      <g
         id="g6652">
        <g
           id="g6654" />
      </g>
      <g
         id="g6658">
        <g
           id="g6660" />
      </g>
      <g
         id="g6664">
        <g
           id="g6666" />
      </g>
      <g
         id="g6670">
        <g
           id="g6672" />
      </g>
      <g
         id="g6676">
        <g
           id="g6678" />
      </g>
      <g
         id="g6682">
        <g
           id="g6684" />
      </g>
      <g
         id="g6688">
        <g
           id="g6690" />
      </g>
      <g
         id="g6694">
        <g
           id="g6696" />
      </g>
      <g
         id="g6700">
        <g
           id="g6702" />
      </g>
      <g
         id="g6706">
        <g
           id="g6708" />
      </g>
      <g
         id="g6712" />
      <g
         id="g6714" />
      <g
         id="g6716" />
      <g
         id="g6718" />
      <g
         id="g6720" />
      <g
         id="g6722" />
      <g
         id="g6724" />
      <g
         id="g6726" />
      <g
         id="g6728" />
      <g
         id="g6730" />
      <g
         id="g6732" />
      <g
         id="g6734" />
      <g
         id="g6736" />
      <g
         id="g6738" />
      <g
         id="g6740" />
    </g>
    <g
       id="g6849"
       transform="translate(-95.032377,919.0632)">
      <g
         id="g6807" />
      <g
         id="g6813" />
      <g
         id="g6815" />
      <g
         id="g6817" />
      <g
         id="g6819" />
      <g
         id="g6821" />
      <g
         id="g6823" />
      <g
         id="g6825" />
      <g
         id="g6827" />
      <g
         id="g6829" />
      <g
         id="g6831" />
      <g
         id="g6833" />
      <g
         id="g6835" />
      <g
         id="g6837" />
      <g
         id="g6839" />
      <g
         id="g6841" />
    </g>
    <path
       style="color:#000000;clip-rule:nonzero;display:inline;overflow:visible;visibility:visible;opacity:1;isolation:auto;mix-blend-mode:normal;color-interpolation:sRGB;color-interpolation-filters:linearRGB;solid-color:#000000;solid-opacity:1;fill:#ffffff;fill-opacity:1;fill-rule:nonzero;stroke:none;stroke-width:5;stroke-linecap:square;stroke-linejoin:miter;stroke-miterlimit:4;stroke-dasharray:none;stroke-dashoffset:0;stroke-opacity:1;color-rendering:auto;image-rendering:auto;shape-rendering:auto;text-rendering:auto;enable-background:accumulate"
       d="M 0 0 L 0 220 L 220 220 L 220 0 L 0 0 z M 35.789062 30 C 78.759545 30.00027 131.36385 29.99991 180.91016 30 C 180.91016 67.5839 180.80538 102.45572 180.91016 140.23242 L 165.65039 138.0957 L 152.71289 112.82812 L 156.72266 112.82812 C 158.20612 112.82812 159.41016 111.62677 159.41016 110.14062 C 159.41016 108.65449 158.20612 107.45312 156.72266 107.45312 L 108.34961 107.45312 C 106.86615 107.45312 105.66211 108.65449 105.66211 110.14062 C 105.66211 111.62677 106.86615 112.82812 108.34961 112.82812 L 144.61328 112.82812 L 131.67578 138.0957 L 98.25 142.77344 C 97.228778 142.91856 96.374241 143.63872 96.0625 144.625 C 95.748071 145.61129 96.02999 146.687 96.785156 147.39648 L 120.93555 170.08789 L 118.68945 183.23047 L 35.773438 183.13672 L 35.789062 30 z M 89.144531 56.402344 C 88.458229 56.454754 87.78904 56.765718 87.306641 57.330078 L 70.515625 76.919922 L 60.248047 69.214844 C 59.060204 68.325304 57.3766 68.568009 56.484375 69.755859 C 55.594836 70.941009 55.831688 72.624102 57.019531 73.513672 L 69.302734 82.730469 C 69.786471 83.093319 70.35825 83.265625 70.919922 83.265625 C 71.677776 83.265625 72.428827 82.946972 72.960938 82.326172 L 91.390625 60.826172 C 92.355411 59.700142 92.221734 58.007749 91.095703 57.042969 C 90.53403 56.559229 89.830832 56.349944 89.144531 56.402344 z M 108.34961 69.828125 C 106.86615 69.828125 105.66211 71.029485 105.66211 72.515625 C 105.66211 74.001775 106.86615 75.203125 108.34961 75.203125 L 156.72266 75.203125 C 158.20612 75.203125 159.41016 74.001775 159.41016 72.515625 C 159.41016 71.029485 158.20612 69.828125 156.72266 69.828125 L 108.34961 69.828125 z M 89.144531 94.025391 C 88.458229 94.077801 87.78904 94.390718 87.306641 94.955078 L 70.515625 114.54297 L 60.248047 106.83789 C 59.060204 105.94835 57.3766 106.19107 56.484375 107.37891 C 55.594836 108.56407 55.831688 110.24718 57.019531 111.13672 L 69.302734 120.35352 C 69.786471 120.71638 70.35825 120.88867 70.919922 120.88867 C 71.677776 120.88867 72.428827 120.57001 72.960938 119.94922 L 91.390625 98.451172 C 92.355411 97.325142 92.221734 95.630806 91.095703 94.666016 C 90.53403 94.182336 89.830832 93.972991 89.144531 94.025391 z M 149.29102 125.60742 C 150.25681 125.60742 151.22404 126.05943 151.68359 126.95703 L 161.01172 145.17578 L 181.91211 148.10547 C 182.93333 148.25059 183.78982 148.96683 184.10156 149.95312 C 184.4133 150.9394 184.13383 152.01513 183.38672 152.72461 L 168.32227 166.88086 L 171.87109 186.83594 C 172.04846 187.84104 171.64901 188.8594 170.83203 189.4668 C 170.35905 189.8188 169.79361 189.99609 169.22656 189.99609 C 168.8127 189.99609 168.39798 189.90323 168.01367 189.70703 L 149.29492 180.22266 L 130.57812 189.70703 C 129.66977 190.17193 128.57944 190.0768 127.75977 189.4668 C 126.94279 188.8594 126.54333 187.83834 126.7207 186.83594 L 130.26953 166.88086 L 115.20508 152.72461 C 114.44988 152.01781 114.17263 150.94209 114.48438 149.95312 C 114.79612 148.96414 115.64406 148.25059 116.66797 148.10547 L 137.57031 145.17578 L 146.90234 126.95703 C 147.36054 126.05943 148.32522 125.60742 149.29102 125.60742 z M 89.144531 134.33789 C 88.458229 134.3903 87.78904 134.70127 87.306641 135.26562 L 70.515625 154.84961 L 60.248047 147.15039 C 59.060204 146.26354 57.3766 146.49771 56.484375 147.68555 C 55.594836 148.87071 55.831688 150.55968 57.019531 151.44922 L 69.302734 160.66016 C 69.786471 161.02288 70.35825 161.20117 70.919922 161.20117 C 71.680464 161.20117 72.431515 160.87397 72.960938 160.25586 L 91.390625 138.76172 C 92.355411 137.63569 92.221734 135.94331 91.095703 134.97852 C 90.53403 134.49484 89.830832 134.28549 89.144531 134.33789 z "
       transform="translate(0,832.36213)"
       id="rect6869" />
  </g>
</svg>
