<?xml version="1.0" encoding="UTF-8" standalone="no"?>
<!-- Created with Inkscape (http://www.inkscape.org/) -->

<svg
   xmlns:dc="http://purl.org/dc/elements/1.1/"
   xmlns:cc="http://creativecommons.org/ns#"
   xmlns:rdf="http://www.w3.org/1999/02/22-rdf-syntax-ns#"
   xmlns:svg="http://www.w3.org/2000/svg"
   xmlns="http://www.w3.org/2000/svg"
   xmlns:sodipodi="http://sodipodi.sourceforge.net/DTD/sodipodi-0.dtd"
   xmlns:inkscape="http://www.inkscape.org/namespaces/inkscape"
   width="220"
   height="220"
   viewBox="0 0 220 220"
   id="svg2"
   version="1.1"
   inkscape:version="0.91 r13725"
   sodipodi:docname="ufu_comunidade.svg">
  <defs
     id="defs4" />
  <sodipodi:namedview
     id="base"
     pagecolor="#ffffff"
     bordercolor="#666666"
     borderopacity="1.0"
     inkscape:pageopacity="0.0"
     inkscape:pageshadow="2"
     inkscape:zoom="2.9590909"
     inkscape:cx="111.1828"
     inkscape:cy="110"
     inkscape:document-units="px"
     inkscape:current-layer="layer1"
     showgrid="false"
     units="px"
     inkscape:window-width="1440"
     inkscape:window-height="847"
     inkscape:window-x="-8"
     inkscape:window-y="-8"
     inkscape:window-maximized="1" />
  <metadata
     id="metadata7">
    <rdf:RDF>
      <cc:Work
         rdf:about="">
        <dc:format>image/svg+xml</dc:format>
        <dc:type
           rdf:resource="http://purl.org/dc/dcmitype/StillImage" />
        <dc:title></dc:title>
      </cc:Work>
    </rdf:RDF>
  </metadata>
  <g
     inkscape:label="Camada 1"
     inkscape:groupmode="layer"
     id="layer1"
     transform="translate(0,-832.36216)">
    <g
       id="g4185"
       transform="matrix(0.31054775,0,0,0.31054775,20.000001,852.36216)">
      <g
         id="g4139">
        <g
           id="g4141" />
      </g>
      <g
         id="g4149" />
      <g
         id="g4151" />
      <g
         id="g4153" />
      <g
         id="g4155" />
      <g
         id="g4157" />
      <g
         id="g4159" />
      <g
         id="g4161" />
      <g
         id="g4163" />
      <g
         id="g4165" />
      <g
         id="g4167" />
      <g
         id="g4169" />
      <g
         id="g4171" />
      <g
         id="g4173" />
      <g
         id="g4175" />
      <g
         id="g4177" />
    </g>
    <g
       id="g5587"
       transform="matrix(0.36372527,0,0,0.36372527,19.999788,852.36216)">
      <g
         id="XMLID_211_" />
      <g
         id="g5551" />
      <g
         id="g5553" />
      <g
         id="g5555" />
      <g
         id="g5557" />
      <g
         id="g5559" />
      <g
         id="g5561" />
      <g
         id="g5563" />
      <g
         id="g5565" />
      <g
         id="g5567" />
      <g
         id="g5569" />
      <g
         id="g5571" />
      <g
         id="g5573" />
      <g
         id="g5575" />
      <g
         id="g5577" />
      <g
         id="g5579" />
    </g>
    <g
       transform="matrix(0.35333693,-0.13569772,0.13569772,0.35333693,-98.886859,488.84759)"
       id="layer1-4"
       inkscape:label="Camada 1"
       style="fill:#ffffff">
      <text
         sodipodi:linespacing="125%"
         id="text3356"
         y="1073.4818"
         x="933.04791"
         style="font-style:normal;font-variant:normal;font-weight:normal;font-stretch:normal;font-size:15px;line-height:125%;font-family:'Open Sans';-inkscape-font-specification:'Open Sans, Normal';text-align:start;letter-spacing:0px;word-spacing:0px;writing-mode:lr-tb;text-anchor:start;fill:#ffffff;fill-opacity:1;stroke:none;stroke-width:1px;stroke-linecap:butt;stroke-linejoin:miter;stroke-opacity:1"
         xml:space="preserve"><tspan
           y="1073.4818"
           x="933.04791"
           id="tspan3358"
           sodipodi:role="line" /></text>
    </g>
    <path
       style="color:#000000;clip-rule:nonzero;display:inline;overflow:visible;visibility:visible;opacity:1;isolation:auto;mix-blend-mode:normal;color-interpolation:sRGB;color-interpolation-filters:linearRGB;solid-color:#000000;solid-opacity:1;fill:#ffffff;fill-opacity:1;fill-rule:nonzero;stroke:none;stroke-width:5;stroke-linecap:square;stroke-linejoin:miter;stroke-miterlimit:4;stroke-dasharray:none;stroke-dashoffset:0;stroke-opacity:1;color-rendering:auto;image-rendering:auto;shape-rendering:auto;text-rendering:auto;enable-background:accumulate"
       d="M 0 0 L 0 220 L 220 220 L 220 0 L 0 0 z M 112.70312 35.632812 C 122.59839 35.632812 130.61523 43.649667 130.61523 53.544922 C 130.61523 63.440177 122.59839 71.455078 112.70312 71.455078 C 102.80787 71.455078 94.791016 63.433934 94.791016 53.544922 C 94.791016 43.65591 102.80787 35.632812 112.70312 35.632812 z M 158.50195 71.455078 C 168.39721 71.455078 176.41992 79.477792 176.41992 89.373047 C 176.41992 99.268302 168.39721 107.29102 158.50195 107.29102 C 148.6067 107.29102 140.59023 99.268302 140.58398 89.373047 C 140.58398 79.477792 148.6067 71.455078 158.50195 71.455078 z M 63.658203 71.460938 C 73.534729 71.460937 81.568359 79.484035 81.568359 89.373047 C 81.568359 99.262059 73.534729 107.29688 63.658203 107.29688 C 53.775434 107.29686 45.746094 99.255816 45.746094 89.373047 C 45.746094 79.484035 53.769191 71.460938 63.658203 71.460938 z M 93.867188 77.236328 L 129.78516 77.236328 C 129.78516 77.236328 134.91047 77.205379 140.4668 79.234375 C 138.89979 82.206073 138.00586 85.607504 138.00586 89.197266 C 138.00586 98.199763 143.55049 105.94268 151.37305 109.19531 L 140.7168 109.19531 C 140.16741 109.19531 139.649 109.2508 139.09961 109.26953 C 137.39525 109.36942 135.74593 109.51276 134.19141 109.75 C 127.34901 110.81132 121.96132 113.41583 118.11523 117.52344 C 111.95371 124.10396 112.26681 132.1076 112.2793 132.26367 L 112.26562 143.33789 L 110.00586 143.33789 L 110.00586 132.26367 L 109.99414 131.94531 C 108.78923 117.74859 97.913421 111.81743 88.898438 109.92578 C 87.237781 109.58866 85.633136 109.36394 84.166016 109.25781 C 83.479279 109.20787 82.798134 109.18164 82.173828 109.18164 C 82.061453 109.18164 81.961601 109.18283 81.855469 109.19531 L 73.041016 109.19531 C 80.87606 105.93643 86.414062 98.199763 86.414062 89.197266 C 86.414064 85.388997 85.408598 81.793407 83.654297 78.671875 C 86.482405 77.835305 89.852896 77.329974 93.867188 77.236328 z M 107.76367 84.697266 L 107.76367 98.892578 L 108.72266 99.851562 L 114.00391 99.851562 L 114.97266 98.882812 L 114.97266 90.777344 L 116.62305 89.126953 L 121.08008 89.126953 L 116.63281 84.697266 L 107.76367 84.697266 z M 105.46875 86.994141 L 101.48633 90.974609 L 101.48633 99.869141 L 107.74609 106.13672 L 110.51758 106.13672 L 116.9375 99.716797 L 116.9375 91.601562 L 117.56445 90.974609 L 122.92578 90.974609 L 121.99414 90.060547 L 117.10742 90.060547 L 115.96875 91.207031 L 115.96875 99.224609 L 113.02734 102.16602 L 107.76367 102.16602 L 105.46875 99.869141 L 105.46875 86.994141 z M 118.03125 91.898438 L 117.86133 92.068359 L 117.86133 100.09375 L 111.82617 106.12891 L 111.83398 106.13672 L 116.61328 106.13672 L 122.89062 99.851562 L 122.89062 91.898438 L 118.03125 91.898438 z M 44.822266 113.07227 L 80.732422 113.07227 C 80.732422 113.07227 103.51942 112.77809 105.17383 132.4375 L 105.17383 176.48828 L 105.17383 176.55078 C 105.17383 180.72739 101.78989 184.11133 97.613281 184.11133 C 93.455401 184.11133 90.078125 180.72739 90.078125 176.55078 L 90.078125 176.48828 L 90.052734 176.48828 L 90.052734 135.51562 L 85.146484 135.51562 L 85.183594 179.19141 L 39.822266 179.1543 L 39.859375 135.71484 L 35.126953 135.71484 L 35.126953 176.49414 L 35.095703 176.49414 C 35.114432 176.60027 35.126953 176.70675 35.126953 176.80664 C 35.126953 180.98949 31.754734 184.36719 27.578125 184.36719 C 23.407759 184.36719 20.005859 180.98949 20.005859 176.80664 C 20.005859 176.71299 20.025391 176.60027 20.025391 176.49414 L 20 176.49414 L 20.005859 132.44336 C 20.005859 132.44336 19.113329 113.54674 44.822266 113.07227 z M 139.66016 113.07227 L 175.58398 113.07227 C 175.58398 113.07227 198.36432 112.77809 200 132.4375 L 200 176.48828 L 200 176.55078 C 200 180.72739 196.6153 184.11133 192.45117 184.11133 C 188.28081 184.11133 184.89844 180.72739 184.89844 176.55078 L 184.89844 176.48828 L 184.88477 176.48828 L 184.88477 135.51562 L 179.97852 135.51562 L 180.01562 179.19141 L 134.6543 179.1543 L 134.71094 135.71484 L 129.96484 135.71484 L 129.96484 176.49414 L 129.93945 176.49414 C 129.9457 176.60027 129.96484 176.70675 129.96484 176.80664 C 129.96484 180.98949 126.60044 184.36719 122.42383 184.36719 C 118.25346 184.36719 114.85742 180.98949 114.85742 176.80664 C 114.85742 176.71299 114.875 176.60027 114.875 176.49414 L 114.84375 176.49414 L 114.85742 132.44336 C 114.85742 132.44336 113.94498 113.54674 139.66016 113.07227 z M 58.144531 138 L 58.144531 152.19336 L 59.103516 153.1543 L 64.384766 153.1543 L 65.353516 152.18555 L 65.353516 144.07812 L 67.003906 142.42969 L 71.458984 142.42969 L 67.011719 138 L 58.144531 138 z M 152.97852 138 L 152.97852 152.19336 L 153.93945 153.1543 L 159.2207 153.1543 L 160.18945 152.18555 L 160.18945 144.07812 L 161.83789 142.42969 L 166.29492 142.42969 L 161.84766 138 L 152.97852 138 z M 55.847656 140.29492 L 51.867188 144.27734 L 51.867188 153.17188 L 58.126953 159.43945 L 60.896484 159.43945 L 67.316406 153.01953 L 67.316406 144.9043 L 67.945312 144.27734 L 73.306641 144.27734 L 72.375 143.36133 L 67.488281 143.36133 L 66.347656 144.50977 L 66.347656 152.52539 L 63.408203 155.4668 L 58.144531 155.4668 L 55.847656 153.17188 L 55.847656 140.29492 z M 150.68359 140.29492 L 146.70312 144.27734 L 146.70312 153.17188 L 152.96094 159.43945 L 155.73242 159.43945 L 162.15234 153.01953 L 162.15234 144.9043 L 162.7793 144.27734 L 168.14258 144.27734 L 167.20898 143.36133 L 162.32227 143.36133 L 161.18359 144.50977 L 161.18359 152.52539 L 158.24219 155.4668 L 152.97852 155.4668 L 150.68359 153.17188 L 150.68359 140.29492 z M 68.410156 145.19922 L 68.240234 145.37109 L 68.240234 153.39453 L 62.205078 159.42969 L 62.214844 159.43945 L 66.994141 159.43945 L 73.271484 153.1543 L 73.271484 145.19922 L 68.410156 145.19922 z M 163.24609 145.19922 L 163.07617 145.37109 L 163.07617 153.39453 L 157.04102 159.42969 L 157.05078 159.43945 L 161.83008 159.43945 L 168.10547 153.1543 L 168.10547 145.19922 L 163.24609 145.19922 z "
       transform="translate(0,832.36216)"
       id="rect5614" />
    <g
       id="g5657"
       transform="matrix(6.2430633,0,0,6.2430633,19.999999,852.36216)">
      <g
         id="g5617" />
      <g
         id="g5621" />
      <g
         id="g5623" />
      <g
         id="g5625" />
      <g
         id="g5627" />
      <g
         id="g5629" />
      <g
         id="g5631" />
      <g
         id="g5633" />
      <g
         id="g5635" />
      <g
         id="g5637" />
      <g
         id="g5639" />
      <g
         id="g5641" />
      <g
         id="g5643" />
      <g
         id="g5645" />
      <g
         id="g5647" />
      <g
         id="g5649" />
    </g>
    <g
       transform="matrix(0.24642901,0,0,0.24642901,146.70265,732.4686)"
       id="layer1-0"
       inkscape:label="Camada 1">
      <text
         sodipodi:linespacing="125%"
         id="text3356-0"
         y="1073.4818"
         x="933.04791"
         style="font-style:normal;font-variant:normal;font-weight:normal;font-stretch:normal;font-size:15px;line-height:125%;font-family:'Open Sans';-inkscape-font-specification:'Open Sans, Normal';text-align:start;letter-spacing:0px;word-spacing:0px;writing-mode:lr-tb;text-anchor:start;fill:#000000;fill-opacity:1;stroke:none;stroke-width:1px;stroke-linecap:butt;stroke-linejoin:miter;stroke-opacity:1"
         xml:space="preserve"><tspan
           y="1073.4818"
           x="933.04791"
           id="tspan3358-1"
           sodipodi:role="line" /></text>
    </g>
    <g
       inkscape:label="Camada 1"
       id="g5689"
       transform="matrix(0.24642901,0,0,0.24642901,51.799546,731.76768)">
      <text
         xml:space="preserve"
         style="font-style:normal;font-variant:normal;font-weight:normal;font-stretch:normal;font-size:15px;line-height:125%;font-family:'Open Sans';-inkscape-font-specification:'Open Sans, Normal';text-align:start;letter-spacing:0px;word-spacing:0px;writing-mode:lr-tb;text-anchor:start;fill:#000000;fill-opacity:1;stroke:none;stroke-width:1px;stroke-linecap:butt;stroke-linejoin:miter;stroke-opacity:1"
         x="933.04791"
         y="1073.4818"
         id="text5693"
         sodipodi:linespacing="125%"><tspan
           sodipodi:role="line"
           id="tspan5695"
           x="933.04791"
           y="1073.4818" /></text>
    </g>
    <g
       inkscape:label="Camada 1"
       id="g5709"
       transform="matrix(0.24642901,0,0,0.24642901,101.48726,679.16698)">
      <text
         xml:space="preserve"
         style="font-style:normal;font-variant:normal;font-weight:normal;font-stretch:normal;font-size:15px;line-height:125%;font-family:'Open Sans';-inkscape-font-specification:'Open Sans, Normal';text-align:start;letter-spacing:0px;word-spacing:0px;writing-mode:lr-tb;text-anchor:start;fill:#000000;fill-opacity:1;stroke:none;stroke-width:1px;stroke-linecap:butt;stroke-linejoin:miter;stroke-opacity:1"
         x="933.04791"
         y="1073.4818"
         id="text5713"
         sodipodi:linespacing="125%"><tspan
           sodipodi:role="line"
           id="tspan5715"
           x="933.04791"
           y="1073.4818" /></text>
    </g>
  </g>
</svg>
