<?xml version="1.0" encoding="UTF-8" standalone="no"?>
<!-- Created with Inkscape (http://www.inkscape.org/) -->

<svg
   xmlns:dc="http://purl.org/dc/elements/1.1/"
   xmlns:cc="http://creativecommons.org/ns#"
   xmlns:rdf="http://www.w3.org/1999/02/22-rdf-syntax-ns#"
   xmlns:svg="http://www.w3.org/2000/svg"
   xmlns="http://www.w3.org/2000/svg"
   xmlns:sodipodi="http://sodipodi.sourceforge.net/DTD/sodipodi-0.dtd"
   xmlns:inkscape="http://www.inkscape.org/namespaces/inkscape"
   width="220"
   height="220"
   viewBox="0 0 220 220"
   id="svg5354"
   version="1.1"
   inkscape:version="0.91 r13725"
   sodipodi:docname="ufu_calendario_academico.svg">
  <defs
     id="defs5356" />
  <sodipodi:namedview
     id="base"
     pagecolor="#ffffff"
     bordercolor="#666666"
     borderopacity="1.0"
     inkscape:pageopacity="0.0"
     inkscape:pageshadow="2"
     inkscape:zoom="1.0461966"
     inkscape:cx="-120.65477"
     inkscape:cy="180.81455"
     inkscape:document-units="px"
     inkscape:current-layer="layer1"
     showgrid="false"
     units="px"
     inkscape:window-width="1440"
     inkscape:window-height="847"
     inkscape:window-x="-8"
     inkscape:window-y="-8"
     inkscape:window-maximized="1" />
  <metadata
     id="metadata5359">
    <rdf:RDF>
      <cc:Work
         rdf:about="">
        <dc:format>image/svg+xml</dc:format>
        <dc:type
           rdf:resource="http://purl.org/dc/dcmitype/StillImage" />
        <dc:title></dc:title>
      </cc:Work>
    </rdf:RDF>
  </metadata>
  <g
     inkscape:label="Camada 1"
     inkscape:groupmode="layer"
     id="layer1"
     transform="translate(0,-832.36213)">
    <path
       style="color:#000000;clip-rule:nonzero;display:inline;overflow:visible;visibility:visible;opacity:1;isolation:auto;mix-blend-mode:normal;color-interpolation:sRGB;color-interpolation-filters:linearRGB;solid-color:#000000;solid-opacity:1;fill:#ffffff;fill-opacity:1;fill-rule:nonzero;stroke:none;stroke-width:5;stroke-linecap:square;stroke-linejoin:miter;stroke-miterlimit:4;stroke-dasharray:none;stroke-dashoffset:0;stroke-opacity:1;color-rendering:auto;image-rendering:auto;shape-rendering:auto;text-rendering:auto;enable-background:accumulate"
       d="M 0 0 L 0 220 L 220 220 L 220 0 L 0 0 z M 114.04102 31.0625 L 115.75781 31.0625 C 118.36665 31.0625 120.48242 33.177058 120.48242 35.785156 L 120.48242 39.541016 L 120.48242 53.697266 C 120.48242 56.305859 118.36665 58.421875 115.75781 58.421875 L 114.04102 58.421875 C 111.43217 58.421875 109.3169 56.306107 109.31641 53.697266 L 109.31641 39.541016 L 109.31641 35.785156 C 109.31641 33.177058 111.43168 31.0625 114.04102 31.0625 z M 53.449219 31.177734 L 55.166016 31.177734 C 57.775104 31.177734 59.890625 33.293998 59.890625 35.902344 L 59.890625 40.779297 L 59.890625 53.814453 C 59.890625 56.422799 57.775104 58.539062 55.166016 58.539062 L 53.449219 58.539062 C 50.840378 58.539062 48.726562 56.422799 48.726562 53.814453 L 48.726562 40.779297 L 48.726562 35.902344 C 48.726563 33.293998 50.840378 31.177734 53.449219 31.177734 z M 31.804688 40.779297 L 44.886719 40.779297 L 44.886719 53.814453 C 44.886719 58.536745 48.727175 62.378906 53.449219 62.378906 L 55.166016 62.378906 C 59.888307 62.378906 63.730469 58.536745 63.730469 53.814453 L 63.730469 40.779297 L 105.47852 40.779297 L 105.47852 53.697266 C 105.47852 58.419557 109.31872 62.261719 114.04102 62.261719 L 115.75781 62.261719 C 120.47961 62.261719 124.32227 59.657838 124.32227 54.935547 L 124.32227 40.779297 L 136.44531 40.779297 C 140.67988 40.779297 144.12549 44.224412 144.125 48.458984 L 144.125 141.25977 C 144.125 145.49459 140.67988 148.93945 136.44531 148.93945 L 31.804688 148.93945 C 27.570115 148.93945 24.125 145.49459 24.125 141.25977 L 24.125 48.458984 C 24.125 44.224165 27.570115 40.779297 31.804688 40.779297 z M 31.804688 71.177734 L 31.806641 141.25977 L 136.44531 141.25977 C 136.44878 141.25977 136.45068 141.25781 136.45117 141.25781 L 136.44727 71.177734 L 31.804688 71.177734 z M 88.089844 80.765625 L 101.88086 80.765625 C 102.42747 80.765625 102.86914 81.209247 102.86914 81.755859 L 102.86914 93.695312 C 102.86914 94.241924 102.42747 94.685547 101.88086 94.685547 L 88.089844 94.685547 C 87.543232 94.685547 87.101563 94.241925 87.101562 93.695312 L 87.101562 81.755859 C 87.101564 81.209247 87.543232 80.765625 88.089844 80.765625 z M 110.59375 80.765625 L 124.38477 80.765625 C 124.93138 80.765625 125.37305 81.209247 125.37305 81.755859 L 125.37305 93.695312 C 125.37305 94.241924 124.93138 94.685547 124.38477 94.685547 L 110.59375 94.685547 C 110.04714 94.685547 109.60547 94.241925 109.60547 93.695312 L 109.60547 81.755859 C 109.60547 81.209247 110.04714 80.765625 110.59375 80.765625 z M 43.082031 100.31445 L 56.873047 100.31445 C 57.419659 100.31445 57.861328 100.75612 57.861328 101.30273 L 57.861328 113.24414 C 57.861328 113.79075 57.419659 114.23437 56.873047 114.23438 L 43.082031 114.23438 C 42.535419 114.23436 42.09375 113.79075 42.09375 113.24414 L 42.09375 101.30273 C 42.09375 100.75612 42.535419 100.31445 43.082031 100.31445 z M 65.585938 100.31445 L 79.376953 100.31445 C 79.923565 100.31445 80.365234 100.75612 80.365234 101.30273 L 80.365234 113.24414 C 80.365234 113.79075 79.923565 114.23437 79.376953 114.23438 L 65.585938 114.23438 C 65.039326 114.23436 64.597656 113.79075 64.597656 113.24414 L 64.597656 101.30273 C 64.597656 100.75612 65.039326 100.31445 65.585938 100.31445 z M 88.089844 100.31445 L 101.88086 100.31445 C 102.42747 100.31445 102.86914 100.75612 102.86914 101.30273 L 102.86914 113.24414 C 102.86914 113.79075 102.42747 114.23437 101.88086 114.23438 L 88.089844 114.23438 C 87.543232 114.23436 87.101563 113.79075 87.101562 113.24414 L 87.101562 101.30273 C 87.101564 100.75612 87.543232 100.31445 88.089844 100.31445 z M 110.59375 100.31445 L 124.38477 100.31445 C 124.93138 100.31445 125.37305 100.75612 125.37305 101.30273 L 125.37305 113.24414 C 125.37305 113.79075 124.93138 114.23437 124.38477 114.23438 L 110.59375 114.23438 C 110.04714 114.23436 109.60547 113.79075 109.60547 113.24414 L 109.60547 101.30273 C 109.60547 100.75612 110.04714 100.31445 110.59375 100.31445 z M 43.083984 119.86133 L 56.873047 119.86133 C 57.419659 119.86133 57.861081 120.30495 57.861328 120.85156 L 57.861328 132.79297 C 57.861328 133.33958 57.419659 133.7832 56.873047 133.7832 L 43.083984 133.7832 C 42.537372 133.7832 42.09375 133.33958 42.09375 132.79297 L 42.09375 120.85156 C 42.09375 120.30495 42.537372 119.86133 43.083984 119.86133 z M 65.587891 119.86133 L 79.376953 119.86133 C 79.923565 119.86133 80.365234 120.30495 80.365234 120.85156 L 80.365234 132.79297 C 80.365234 133.33958 79.923565 133.7832 79.376953 133.7832 L 65.587891 133.7832 C 65.041279 133.7832 64.597656 133.33958 64.597656 132.79297 L 64.597656 120.85156 C 64.597656 120.30495 65.041279 119.86133 65.587891 119.86133 z M 88.091797 119.86133 L 101.88086 119.86133 C 102.42747 119.86133 102.87109 120.30495 102.87109 120.85156 L 102.87109 132.79297 C 102.87109 133.33958 102.42747 133.7832 101.88086 133.7832 L 88.091797 133.7832 C 87.545185 133.7832 87.101563 133.33958 87.101562 132.79297 L 87.101562 120.85156 C 87.101563 120.30495 87.545185 119.86133 88.091797 119.86133 z M 110.59375 119.86133 L 124.38477 119.86133 C 124.93138 119.86133 125.37305 120.30495 125.37305 120.85156 L 125.37305 132.79297 C 125.37305 133.33958 124.93138 133.7832 124.38477 133.7832 L 110.59375 133.7832 C 110.04714 133.7832 109.60547 133.33958 109.60547 132.79297 L 109.60547 120.85156 C 109.60547 120.30495 110.04714 119.86133 110.59375 119.86133 z M 167.99023 155 L 195 165.39258 L 167.99023 174.30078 L 140.52344 165.39258 L 167.99023 155 z M 187.80469 168.52539 L 187.80469 180.125 L 187.80078 180.14453 C 188.3255 180.39801 188.68945 180.93065 188.68945 181.55273 C 188.68945 182.08384 188.42301 182.55163 188.01953 182.83594 C 188.41962 183.07522 188.68945 183.50772 188.68945 184.00781 L 188.68945 195 L 185.54883 195 L 185.54883 184.00781 C 185.54883 183.50885 185.81849 183.07513 186.2168 182.83594 C 185.81332 182.55163 185.54883 182.08384 185.54883 181.55273 C 185.54883 180.9158 185.92783 180.37227 186.47266 180.125 L 186.43359 180.06836 L 186.43359 168.96094 L 187.80469 168.52539 z M 151.66016 169.8457 L 167.76172 175.27148 L 184.03711 169.8457 L 184.03711 177.49805 C 184.03711 177.49805 176.72668 177.04087 167.84766 182.63672 C 167.84766 182.63672 160.22555 177.61255 151.66016 177.44141 L 151.66016 169.8457 z "
       transform="translate(0,832.36213)"
       id="rect5902" />
    <g
       id="g5972"
       transform="matrix(0.24744768,0,0,0.24744768,24.12566,862.36243)">
      <g
         id="g5905">
        <g
           id="_x31_5_38_">
          <g
             id="g5908" />
        </g>
      </g>
      <g
         id="g5936" />
      <g
         id="g5938" />
      <g
         id="g5940" />
      <g
         id="g5942" />
      <g
         id="g5944" />
      <g
         id="g5946" />
      <g
         id="g5948" />
      <g
         id="g5950" />
      <g
         id="g5952" />
      <g
         id="g5954" />
      <g
         id="g5956" />
      <g
         id="g5958" />
      <g
         id="g5960" />
      <g
         id="g5962" />
      <g
         id="g5964" />
    </g>
    <g
       id="g6052"
       transform="matrix(0.09398474,0,0,0.09398474,140.524,980.12437)">
      <g
         id="g6006">
        <g
           id="g6008" />
      </g>
      <g
         id="g6016" />
      <g
         id="g6018" />
      <g
         id="g6020" />
      <g
         id="g6022" />
      <g
         id="g6024" />
      <g
         id="g6026" />
      <g
         id="g6028" />
      <g
         id="g6030" />
      <g
         id="g6032" />
      <g
         id="g6034" />
      <g
         id="g6036" />
      <g
         id="g6038" />
      <g
         id="g6040" />
      <g
         id="g6042" />
      <g
         id="g6044" />
    </g>
    <g
       transform="matrix(0.24744768,0,0,0.24744768,-235.41351,862.36243)"
       id="g6148">
      <g
         id="g6150">
        <g
           id="g6152">
          <g
             id="g6154" />
        </g>
      </g>
      <g
         id="g6182" />
      <g
         id="g6184" />
      <g
         id="g6186" />
      <g
         id="g6188" />
      <g
         id="g6190" />
      <g
         id="g6192" />
      <g
         id="g6194" />
      <g
         id="g6196" />
      <g
         id="g6198" />
      <g
         id="g6200" />
      <g
         id="g6202" />
      <g
         id="g6204" />
      <g
         id="g6206" />
      <g
         id="g6208" />
      <g
         id="g6210" />
    </g>
    <g
       id="g6268"
       transform="matrix(0.24744768,0,0,0.24744768,-496.35872,862.36243)">
      <g
         id="g6270">
        <g
           id="g6272">
          <g
             id="g6274" />
        </g>
      </g>
      <g
         id="g6302" />
      <g
         id="g6304" />
      <g
         id="g6306" />
      <g
         id="g6308" />
      <g
         id="g6310" />
      <g
         id="g6312" />
      <g
         id="g6314" />
      <g
         id="g6316" />
      <g
         id="g6318" />
      <g
         id="g6320" />
      <g
         id="g6322" />
      <g
         id="g6324" />
      <g
         id="g6326" />
      <g
         id="g6328" />
      <g
         id="g6330" />
    </g>
    <g
       id="g6383"
       transform="matrix(0.83333333,0,0,0.83333333,-372.72273,987.36213)">
      <g
         id="g6341">
        <g
           id="g6343" />
      </g>
      <g
         id="g6347" />
      <g
         id="g6349" />
      <g
         id="g6351" />
      <g
         id="g6353" />
      <g
         id="g6355" />
      <g
         id="g6357" />
      <g
         id="g6359" />
      <g
         id="g6361" />
      <g
         id="g6363" />
      <g
         id="g6365" />
      <g
         id="g6367" />
      <g
         id="g6369" />
      <g
         id="g6371" />
      <g
         id="g6373" />
      <g
         id="g6375" />
    </g>
  </g>
</svg>
