<?xml version="1.0" encoding="UTF-8" standalone="no"?>
<!-- Created with Inkscape (http://www.inkscape.org/) -->

<svg
   xmlns:dc="http://purl.org/dc/elements/1.1/"
   xmlns:cc="http://creativecommons.org/ns#"
   xmlns:rdf="http://www.w3.org/1999/02/22-rdf-syntax-ns#"
   xmlns:svg="http://www.w3.org/2000/svg"
   xmlns="http://www.w3.org/2000/svg"
   xmlns:sodipodi="http://sodipodi.sourceforge.net/DTD/sodipodi-0.dtd"
   xmlns:inkscape="http://www.inkscape.org/namespaces/inkscape"
   width="220"
   height="220"
   viewBox="0 0 220 220"
   id="svg2"
   version="1.1"
   inkscape:version="0.91 r13725"
   sodipodi:docname="ufu_ct_infra.svg">
  <defs
     id="defs4" />
  <sodipodi:namedview
     id="base"
     pagecolor="#ffffff"
     bordercolor="#666666"
     borderopacity="1.0"
     inkscape:pageopacity="0.0"
     inkscape:pageshadow="2"
     inkscape:zoom="2.9590909"
     inkscape:cx="147.15229"
     inkscape:cy="96.482335"
     inkscape:document-units="px"
     inkscape:current-layer="layer1"
     showgrid="false"
     units="px"
     inkscape:window-width="1440"
     inkscape:window-height="847"
     inkscape:window-x="-8"
     inkscape:window-y="-8"
     inkscape:window-maximized="1" />
  <metadata
     id="metadata7">
    <rdf:RDF>
      <cc:Work
         rdf:about="">
        <dc:format>image/svg+xml</dc:format>
        <dc:type
           rdf:resource="http://purl.org/dc/dcmitype/StillImage" />
        <dc:title></dc:title>
      </cc:Work>
    </rdf:RDF>
  </metadata>
  <g
     inkscape:label="Camada 1"
     inkscape:groupmode="layer"
     id="layer1"
     transform="translate(0,-832.3622)">
    <path
       style="color:#000000;clip-rule:nonzero;display:inline;overflow:visible;visibility:visible;opacity:1;isolation:auto;mix-blend-mode:normal;color-interpolation:sRGB;color-interpolation-filters:linearRGB;solid-color:#000000;solid-opacity:1;fill:#ffffff;fill-opacity:1;fill-rule:nonzero;stroke:none;stroke-width:5;stroke-linecap:square;stroke-linejoin:miter;stroke-miterlimit:4;stroke-dasharray:none;stroke-dashoffset:0;stroke-opacity:1;color-rendering:auto;image-rendering:auto;shape-rendering:auto;text-rendering:auto;enable-background:accumulate"
       d="M 0 0 L 0 220 L 220 220 L 220 0 L 0 0 z M 149.41016 30 C 157.72217 30 164.44141 36.717416 164.44141 45.011719 C 164.44141 53.309563 157.72217 60.03125 149.41016 60.03125 C 147.96875 60.03125 146.59407 59.759805 145.26953 59.380859 L 131.81641 82.021484 C 129.81189 80.495074 127.63758 79.191244 125.33203 78.146484 L 138.74414 55.570312 C 136.05965 52.853946 134.39844 49.130538 134.39844 45.011719 C 134.39844 36.713874 141.11231 30 149.41016 30 z M 149.15625 39.267578 L 138.85547 43.166016 L 149.15625 46.505859 L 159.2832 43.166016 L 149.15625 39.267578 z M 156.58594 44.339844 L 156.07227 44.503906 L 156.07227 48.667969 L 156.08594 48.689453 C 155.88163 48.782181 155.74023 48.985759 155.74023 49.224609 C 155.74023 49.423775 155.83893 49.600417 155.99023 49.707031 C 155.84087 49.796728 155.74023 49.959372 155.74023 50.146484 L 155.74023 54.267578 L 156.91797 54.267578 L 156.91797 50.146484 C 156.91797 49.958949 156.81605 49.796761 156.66602 49.707031 C 156.81732 49.600417 156.91797 49.423775 156.91797 49.224609 C 156.91797 48.991327 156.78075 48.792316 156.58398 48.697266 L 156.58594 48.689453 L 156.58594 44.339844 z M 143.03125 44.835938 L 143.03125 47.683594 C 146.24327 47.747773 149.10156 49.632812 149.10156 49.632812 C 152.43119 47.534368 155.17188 47.705078 155.17188 47.705078 L 155.17188 44.835938 L 149.07031 46.869141 L 143.03125 44.835938 z M 65.755859 51.451172 C 74.053699 51.451172 80.771484 58.168588 80.771484 66.462891 C 80.771484 69.080094 80.042621 71.505801 78.863281 73.648438 L 88.988281 83.21875 C 87.061681 84.8514 85.336591 86.702379 83.806641 88.724609 L 73.695312 79.166016 C 71.386222 80.610966 68.681179 81.482422 65.755859 81.482422 C 57.458009 81.482422 50.728516 74.760735 50.728516 66.462891 C 50.728506 58.165046 57.458009 51.451172 65.755859 51.451172 z M 64.390625 58.580078 L 58.503906 59.822266 L 58.503906 60.734375 L 59.1875 60.605469 L 59.1875 72.951172 L 64.367188 73.580078 L 65.294922 73.453125 L 65.294922 70.699219 L 66.742188 70.615234 L 66.742188 73.277344 L 67.640625 73.167969 L 67.640625 70.546875 L 68.941406 70.470703 L 68.941406 73.011719 L 69.652344 72.925781 L 73.304688 72.492188 L 73.304688 63.445312 L 73.664062 63.492188 L 73.664062 62.78125 L 69.654297 62.185547 L 69.654297 60.615234 L 70.123047 60.703125 L 70.123047 59.800781 L 64.390625 58.59375 L 64.390625 58.580078 z M 64.882812 60.269531 L 65.763672 60.423828 L 65.763672 61.1875 L 64.882812 61.048828 L 64.882812 60.269531 z M 64.052734 60.357422 L 64.052734 61.103516 L 63.160156 61.242188 L 63.160156 60.509766 L 64.052734 60.357422 z M 66.207031 60.494141 L 67.037109 60.640625 L 67.037109 61.382812 L 66.207031 61.251953 L 66.207031 60.494141 z M 62.744141 60.578125 L 62.744141 61.302734 L 61.902344 61.433594 L 61.902344 60.722656 L 62.744141 60.578125 z M 67.388672 60.703125 L 68.177734 60.839844 L 68.177734 61.5625 L 67.388672 61.439453 L 67.388672 60.703125 z M 61.533203 60.78125 L 61.533203 61.484375 L 60.736328 61.607422 L 60.736328 60.917969 L 61.533203 60.78125 z M 68.53125 60.917969 L 69.275391 61.048828 L 69.275391 61.751953 L 68.53125 61.634766 L 68.53125 60.917969 z M 60.332031 61.005859 L 60.332031 61.689453 L 59.580078 61.806641 L 59.580078 61.134766 L 60.332031 61.005859 z M 64.849609 61.505859 L 65.732422 61.634766 L 65.732422 62.400391 L 64.849609 62.285156 L 64.849609 61.505859 z M 64.052734 61.564453 L 64.052734 62.310547 L 63.160156 62.425781 L 63.160156 61.695312 L 64.052734 61.564453 z M 66.191406 61.710938 L 67.023438 61.833984 L 67.023438 62.576172 L 66.191406 62.46875 L 66.191406 61.710938 z M 62.744141 61.751953 L 62.744141 62.476562 L 61.902344 62.583984 L 61.902344 61.875 L 62.744141 61.751953 z M 67.375 61.886719 L 68.164062 62.001953 L 68.164062 62.724609 L 67.375 62.623047 L 67.375 61.886719 z M 61.533203 61.919922 L 61.533203 62.625 L 60.736328 62.726562 L 60.736328 62.037109 L 61.533203 61.919922 z M 68.517578 62.070312 L 69.263672 62.179688 L 69.263672 62.882812 L 68.517578 62.787109 L 68.517578 62.070312 z M 60.332031 62.113281 L 60.332031 62.796875 L 59.580078 62.894531 L 59.580078 62.222656 L 60.332031 62.113281 z M 64.865234 62.794922 L 65.748047 62.900391 L 65.748047 63.664062 L 64.865234 63.574219 L 64.865234 62.794922 z M 64.037109 62.8125 L 64.037109 63.558594 L 63.144531 63.648438 L 63.144531 62.917969 L 64.037109 62.8125 z M 62.730469 62.962891 L 62.730469 63.685547 L 61.888672 63.771484 L 61.888672 63.0625 L 62.730469 62.962891 z M 66.207031 62.962891 L 67.037109 63.060547 L 67.037109 63.802734 L 66.207031 63.71875 L 66.207031 62.962891 z M 61.519531 63.097656 L 61.519531 63.802734 L 60.722656 63.882812 L 60.722656 63.191406 L 61.519531 63.097656 z M 67.388672 63.103516 L 68.177734 63.195312 L 68.177734 63.917969 L 67.388672 63.839844 L 67.388672 63.103516 z M 68.53125 63.253906 L 69.275391 63.341797 L 69.275391 64.044922 L 68.53125 63.970703 L 68.53125 63.253906 z M 60.318359 63.257812 L 60.318359 63.941406 L 59.566406 64.017578 L 59.566406 63.347656 L 60.318359 63.257812 z M 70.310547 63.4375 L 70.996094 63.525391 L 70.996094 64.199219 L 70.310547 64.123047 L 70.310547 63.4375 z M 71.353516 63.578125 L 72.001953 63.662109 L 72.001953 64.318359 L 71.353516 64.246094 L 71.353516 63.578125 z M 72.277344 63.697266 L 72.896484 63.777344 L 72.896484 64.417969 L 72.277344 64.349609 L 72.277344 63.697266 z M 64.849609 64.050781 L 65.732422 64.128906 L 65.732422 64.894531 L 64.849609 64.830078 L 64.849609 64.050781 z M 64.044922 64.068359 L 64.044922 64.814453 L 63.152344 64.880859 L 63.152344 64.148438 L 64.044922 64.068359 z M 66.191406 64.179688 L 67.023438 64.253906 L 67.023438 64.996094 L 66.191406 64.935547 L 66.191406 64.179688 z M 62.738281 64.181641 L 62.738281 64.90625 L 61.894531 64.966797 L 61.894531 64.257812 L 62.738281 64.181641 z M 61.525391 64.283203 L 61.525391 64.988281 L 60.728516 65.044922 L 60.728516 64.355469 L 61.525391 64.283203 z M 67.375 64.289062 L 68.164062 64.357422 L 68.164062 65.080078 L 67.375 65.023438 L 67.375 64.289062 z M 68.517578 64.40625 L 69.263672 64.472656 L 69.263672 65.175781 L 68.517578 65.123047 L 68.517578 64.40625 z M 60.326172 64.410156 L 60.326172 65.09375 L 59.574219 65.148438 L 59.574219 64.478516 L 60.326172 64.410156 z M 70.298828 64.541016 L 70.982422 64.609375 L 70.982422 65.283203 L 70.298828 65.228516 L 70.298828 64.541016 z M 71.341797 64.652344 L 71.990234 64.71875 L 71.990234 65.375 L 71.341797 65.322266 L 71.341797 64.652344 z M 72.265625 64.748047 L 72.884766 64.808594 L 72.884766 65.451172 L 72.265625 65.400391 L 72.265625 64.748047 z M 64.875 65.341797 L 65.755859 65.396484 L 65.755859 66.160156 L 64.875 66.123047 L 64.875 65.341797 z M 64.044922 65.380859 L 64.044922 66.125 L 63.152344 66.164062 L 63.152344 65.433594 L 64.044922 65.380859 z M 66.199219 65.417969 L 67.03125 65.46875 L 67.03125 66.210938 L 66.199219 66.175781 L 66.199219 65.417969 z M 62.738281 65.457031 L 62.738281 66.179688 L 61.894531 66.216797 L 61.894531 65.505859 L 62.738281 65.457031 z M 67.382812 65.492188 L 68.169922 65.541016 L 68.169922 66.263672 L 67.382812 66.228516 L 67.382812 65.492188 z M 61.525391 65.521484 L 61.525391 66.226562 L 60.728516 66.261719 L 60.728516 65.570312 L 61.525391 65.521484 z M 68.523438 65.578125 L 69.269531 65.625 L 69.269531 66.328125 L 68.523438 66.294922 L 68.523438 65.578125 z M 60.326172 65.613281 L 60.326172 66.296875 L 59.574219 66.330078 L 59.574219 65.658203 L 60.326172 65.613281 z M 70.318359 65.677734 L 71.001953 65.726562 L 71.001953 66.400391 L 70.318359 66.365234 L 70.318359 65.677734 z M 71.347656 65.746094 L 71.996094 65.792969 L 71.996094 66.449219 L 71.347656 66.414062 L 71.347656 65.746094 z M 72.271484 65.814453 L 72.890625 65.857422 L 72.890625 66.498047 L 72.271484 66.466797 L 72.271484 65.814453 z M 64.857422 66.583984 L 65.740234 66.613281 L 65.740234 67.376953 L 64.857422 67.363281 L 64.857422 66.583984 z M 64.044922 66.626953 L 64.044922 67.375 L 63.152344 67.388672 L 63.152344 66.65625 L 64.044922 66.626953 z M 66.183594 66.636719 L 67.015625 66.664062 L 67.015625 67.40625 L 66.183594 67.392578 L 66.183594 66.636719 z M 62.738281 66.666016 L 62.738281 67.390625 L 61.894531 67.404297 L 61.894531 66.695312 L 62.738281 66.666016 z M 67.369141 66.677734 L 68.15625 66.703125 L 68.15625 67.425781 L 67.369141 67.414062 L 67.369141 66.677734 z M 61.525391 66.699219 L 61.525391 67.404297 L 60.728516 67.417969 L 60.728516 66.726562 L 61.525391 66.699219 z M 68.509766 66.732422 L 69.257812 66.755859 L 69.257812 67.460938 L 68.509766 67.449219 L 68.509766 66.732422 z M 60.326172 66.757812 L 60.326172 67.441406 L 59.574219 67.455078 L 59.574219 66.783203 L 60.326172 66.757812 z M 70.304688 66.769531 L 70.990234 66.798828 L 70.990234 67.472656 L 70.304688 67.455078 L 70.304688 66.769531 z M 71.335938 66.822266 L 71.984375 66.851562 L 71.984375 67.507812 L 71.335938 67.490234 L 71.335938 66.822266 z M 72.259766 66.863281 L 72.878906 66.890625 L 72.878906 67.533203 L 72.259766 67.517578 L 72.259766 66.863281 z M 64.857422 67.888672 L 65.740234 67.894531 L 65.740234 68.658203 L 64.857422 68.669922 L 64.857422 67.888672 z M 64.037109 67.892578 L 64.037109 68.638672 L 63.144531 68.628906 L 63.144531 67.898438 L 64.037109 67.892578 z M 61.517578 67.894531 L 61.517578 68.597656 L 60.722656 68.587891 L 60.722656 67.898438 L 61.517578 67.894531 z M 62.730469 67.894531 L 62.730469 68.619141 L 61.888672 68.609375 L 61.888672 67.898438 L 62.730469 67.894531 z M 66.183594 67.904297 L 67.015625 67.908203 L 67.015625 68.650391 L 66.183594 68.660156 L 66.183594 67.904297 z M 67.367188 67.910156 L 68.15625 67.914062 L 68.15625 68.636719 L 67.367188 68.648438 L 67.367188 67.910156 z M 60.318359 67.917969 L 60.318359 68.601562 L 59.566406 68.591797 L 59.566406 67.919922 L 60.318359 67.917969 z M 70.304688 67.917969 L 70.990234 67.927734 L 70.990234 68.601562 L 70.304688 68.605469 L 70.304688 67.917969 z M 68.509766 67.931641 L 69.255859 67.933594 L 69.255859 68.638672 L 68.509766 68.648438 L 68.509766 67.931641 z M 71.335938 67.941406 L 71.984375 67.951172 L 71.984375 68.607422 L 71.335938 68.609375 L 71.335938 67.941406 z M 72.259766 67.957031 L 72.878906 67.964844 L 72.878906 68.605469 L 72.259766 68.609375 L 72.259766 67.957031 z M 72.851562 69.009766 L 72.851562 69.654297 L 72.230469 69.671875 L 72.230469 69.019531 L 72.851562 69.009766 z M 71.974609 69.023438 L 71.974609 69.681641 L 71.324219 69.701172 L 71.324219 69.033203 L 71.974609 69.023438 z M 70.980469 69.03125 L 70.980469 69.707031 L 70.294922 69.726562 L 70.294922 69.041016 L 70.980469 69.03125 z M 69.251953 69.076172 L 69.251953 69.779297 L 68.505859 69.810547 L 68.505859 69.09375 L 69.251953 69.076172 z M 59.566406 69.083984 L 60.318359 69.101562 L 60.318359 69.785156 L 59.566406 69.753906 L 59.566406 69.083984 z M 60.722656 69.091797 L 61.517578 69.111328 L 61.517578 69.814453 L 60.722656 69.783203 L 60.722656 69.091797 z M 68.119141 69.09375 L 68.119141 69.818359 L 67.330078 69.849609 L 67.330078 69.113281 L 68.119141 69.09375 z M 67.001953 69.121094 L 67.001953 69.863281 L 66.169922 69.898438 L 66.169922 69.140625 L 67.001953 69.121094 z M 61.888672 69.126953 L 62.730469 69.148438 L 62.730469 69.871094 L 61.888672 69.835938 L 61.888672 69.126953 z M 65.728516 69.144531 L 65.728516 69.910156 L 64.84375 69.947266 L 64.84375 69.166016 L 65.728516 69.144531 z M 63.144531 69.162109 L 64.037109 69.183594 L 64.037109 69.927734 L 63.144531 69.892578 L 63.144531 69.162109 z M 111.16797 83.623047 A 25.750586 25.750586 0 0 1 136.91992 109.37305 A 25.750586 25.750586 0 0 1 111.16797 135.12305 A 25.750586 25.750586 0 0 1 85.417969 109.37305 A 25.750586 25.750586 0 0 1 111.16797 83.623047 z M 111.16992 89.373047 C 100.12397 89.373047 91.169922 98.327734 91.169922 109.37305 C 91.169922 120.41858 100.12397 129.37305 111.16992 129.37305 C 122.21545 129.37305 131.16797 120.41858 131.16797 109.37305 C 131.16797 98.327734 122.21545 89.373047 111.16992 89.373047 z M 111.16992 94.007812 C 119.65562 94.007812 126.5332 100.88757 126.5332 109.37305 C 126.5332 117.85854 119.65562 124.73828 111.16992 124.73828 C 102.68379 124.73828 95.804688 117.85854 95.804688 109.37305 C 95.804688 100.88757 102.68379 94.007812 111.16992 94.007812 z M 111.82617 99.074219 C 111.35633 99.074219 110.97266 99.44706 110.97266 99.90625 L 110.97461 101.50781 C 110.97461 101.63061 110.84157 101.68401 110.79297 101.69531 C 108.52157 102.23635 107.10352 103.90127 107.10352 106 C 107.10352 108.61631 109.26447 109.7981 111.59961 110.68555 C 113.46639 111.41845 114.22852 112.16198 114.22852 113.25195 C 114.22852 114.43806 113.15057 115.26562 111.60547 115.26562 C 110.28612 115.26564 108.50012 114.43088 108.48242 114.42188 C 108.36816 114.36776 108.24754 114.33984 108.12305 114.33984 C 107.78324 114.33984 107.48745 114.54501 107.36914 114.86328 L 106.97656 115.92578 C 106.83714 116.32229 107.05139 116.64385 107.32617 116.78711 C 108.42275 117.35821 110.54427 117.69233 110.63867 117.70703 C 110.66404 117.71065 110.79492 117.7569 110.79492 117.875 L 110.79492 119.46875 C 110.79492 119.9275 111.17796 120.30273 111.64844 120.30273 L 112.4082 120.30273 C 112.8789 120.30273 113.26367 119.92772 113.26367 119.46875 L 113.26367 117.79102 C 113.26367 117.63414 113.37844 117.62123 113.40234 117.61523 C 115.82211 117.07163 117.3125 115.30115 117.3125 113.07812 C 117.31186 110.79479 116.04483 109.32002 113.07422 108.14648 C 110.81412 107.24048 110.16016 106.69249 110.16016 105.70312 C 110.16016 104.91138 110.76047 103.98633 112.45117 103.98633 C 113.9466 103.98633 115.09332 104.57508 115.10352 104.58008 C 115.22417 104.64448 115.36005 104.67969 115.49414 104.67969 C 115.82137 104.67969 116.11045 104.48038 116.23047 104.17383 L 116.64062 103.125 C 116.78369 102.74235 116.56772 102.40865 116.29102 102.28906 C 115.37031 101.88829 113.57103 101.57722 113.55273 101.57422 C 113.52374 101.5691 113.42188 101.54758 113.42188 101.42969 L 113.41602 99.90625 C 113.41602 99.44749 113.03277 99.074219 112.5625 99.074219 L 111.82617 99.074219 z M 178.2168 100.97656 C 186.5111 100.97656 193.22656 107.69752 193.22656 115.98828 C 193.22656 124.28258 186.5111 130.99805 178.2168 130.99805 C 170.72642 130.99805 164.55358 125.50012 163.42383 118.33203 L 144.73828 116.48828 C 145.22347 114.18981 145.49414 111.80964 145.49414 109.37305 C 145.49414 109.23493 145.47266 109.10064 145.47266 108.95898 L 164.16406 110.80273 C 166.28545 105.07959 171.75701 100.97656 178.2168 100.97656 z M 168.54688 108.54102 C 168.279 108.54102 168.0625 108.75947 168.0625 109.02734 L 168.0625 123.05664 C 168.0625 123.3245 168.279 123.54102 168.54688 123.54102 L 175.32227 123.54102 C 175.59014 123.54102 175.80664 123.3245 175.80664 123.05664 L 175.80664 121.01562 L 174.67383 121.01562 C 173.94859 121.01564 173.35938 120.4265 173.35938 119.70117 L 173.35938 115.79102 L 169.52734 115.79102 C 169.25948 115.79102 169.04102 115.5745 169.04102 115.30664 C 169.04102 115.03877 169.25948 114.82031 169.52734 114.82031 L 173.35938 114.82031 L 173.35938 113.57227 L 169.52734 113.57227 C 169.25948 113.57227 169.04102 113.35575 169.04102 113.08789 C 169.04102 112.82002 169.25948 112.60352 169.52734 112.60352 L 173.35938 112.60352 L 173.35938 111.69922 C 173.35936 111.57954 173.37605 111.46389 173.40625 111.35352 L 169.52734 111.35352 C 169.25948 111.35352 169.04102 111.137 169.04102 110.86914 C 169.04102 110.60127 169.25948 110.38477 169.52734 110.38477 L 174.3418 110.38477 C 174.3849 110.38477 174.4269 110.39174 174.4668 110.40234 C 174.53468 110.39174 174.60303 110.38477 174.67383 110.38477 L 175.80664 110.38477 L 175.80664 109.02734 C 175.80664 108.75947 175.59014 108.54102 175.32227 108.54102 L 168.54688 108.54102 z M 174.67383 111.35547 C 174.48335 111.35547 174.32812 111.50864 174.32812 111.69922 L 174.32812 119.70117 C 174.32814 119.89174 174.48326 120.04688 174.67383 120.04688 L 187.4375 120.04688 C 187.62807 120.04688 187.7833 119.89184 187.7832 119.70117 L 187.7832 111.69922 C 187.7832 111.50874 187.62807 111.35547 187.4375 111.35547 L 174.67383 111.35547 z M 77.619141 116.62305 C 78.161001 119.12693 78.996988 121.51697 80.048828 123.78711 L 56.707031 131.60352 C 56.735351 131.94351 56.810547 132.26229 56.810547 132.60938 C 56.810547 140.91431 50.077869 147.63281 41.787109 147.63281 C 33.489259 147.63281 26.773438 140.91431 26.773438 132.60938 C 26.773436 124.31506 33.489259 117.5957 41.787109 117.5957 C 47.046309 117.5957 51.667072 120.31685 54.351562 124.41797 L 77.619141 116.62305 z M 171.93555 119.21094 C 172.3484 119.21094 172.68164 119.54613 172.68164 119.95898 C 172.68164 120.37184 172.3484 120.70703 171.93555 120.70703 C 171.52269 120.70703 171.1875 120.37184 171.1875 119.95898 C 171.1875 119.54613 171.52269 119.21094 171.93555 119.21094 z M 179.50391 121.01758 L 179.50391 122.57227 L 178.21094 122.57227 C 177.94307 122.57227 177.72656 122.78877 177.72656 123.05664 C 177.72656 123.3245 177.94307 123.54102 178.21094 123.54102 L 179.99023 123.54102 L 182.12305 123.54102 L 183.90039 123.54102 C 184.16826 123.54102 184.38672 123.3245 184.38672 123.05664 C 184.38672 122.78877 184.16816 122.57227 183.90039 122.57227 L 182.60742 122.57227 L 182.60742 121.01758 L 179.50391 121.01758 z M 45.306641 125.20703 L 34.710938 126.67969 C 34.710938 126.67969 33.497079 126.85326 33.605469 128.73828 C 33.664309 129.76423 33.986168 130.26765 34.267578 130.51562 L 33.398438 130.77734 C 33.157116 131.04527 33.464563 131.24507 33.908203 131.38672 C 33.916603 131.39462 33.923594 131.40416 33.933594 131.41016 C 34.475824 131.74828 34.464719 132.75363 34.386719 133.33789 C 32.438789 133.891 33.138672 134.07031 33.138672 134.07031 L 33.564453 134.17383 C 33.263893 134.44543 32.965584 134.9607 33.021484 135.9375 C 33.129934 137.82217 34.126953 137.95312 34.126953 137.95312 L 41.060547 140.20703 L 51.525391 137.67188 C 51.525391 137.67188 52.225784 137.49067 50.277344 136.9375 C 50.199014 136.35416 50.186989 135.34875 50.730469 135.00977 C 50.740469 135.00377 50.747859 134.99433 50.755859 134.98633 C 51.199519 134.84446 51.506665 134.64684 51.265625 134.37891 L 50.810547 134.24023 C 51.113907 134.05729 51.569225 133.57981 51.640625 132.33789 C 51.689895 131.48364 51.468888 130.98399 51.210938 130.68945 L 52.109375 130.4707 C 52.109435 130.47104 52.809478 130.29145 50.861328 129.73828 C 50.783618 129.15414 50.771893 128.14839 51.314453 127.81055 C 51.324153 127.80435 51.331844 127.79511 51.339844 127.78711 C 51.783414 127.64523 52.090579 127.44566 51.849609 127.17773 L 45.306641 125.20703 z M 34.804688 127.45703 C 34.853888 127.45703 34.890578 127.46289 34.892578 127.46289 L 39.457031 128.95117 L 41.736328 129.69336 L 41.660156 132.00391 L 35.271484 130.21289 L 34.933594 130.11914 C 34.921194 130.11514 34.905578 130.11385 34.892578 130.11328 C 34.866248 130.11139 34.233825 130.05184 34.203125 128.64648 C 34.192405 128.14509 34.282301 127.78392 34.462891 127.59961 C 34.577811 127.48193 34.711686 127.45703 34.804688 127.45703 z M 50.699219 127.94727 C 50.416059 128.46547 50.429762 129.17506 50.476562 129.63086 C 50.486864 129.73397 50.498266 129.82684 50.509766 129.89844 L 49.539062 130.14062 L 42.033203 132.00781 L 42.107422 129.71289 L 43.867188 129.35156 L 49.814453 128.12891 L 50.699219 127.94727 z M 50.496094 131.06055 C 50.582904 131.0701 50.692056 131.10452 50.785156 131.19922 C 50.965416 131.38353 51.055422 131.74666 51.044922 132.24805 C 51.013382 133.653 50.382375 133.71089 50.359375 133.71289 C 50.343875 133.71289 50.327 133.71375 50.3125 133.71875 L 49.673828 133.89844 L 43.585938 135.60547 L 43.511719 133.29492 L 45.509766 132.64258 L 50.345703 131.06641 C 50.346023 131.06641 50.409294 131.05055 50.496094 131.06055 z M 34.546875 131.54688 L 35.433594 131.73047 L 41.144531 132.9043 L 41.644531 133.00586 L 43.140625 133.31445 L 43.212891 135.60742 L 35.498047 133.68945 L 34.738281 133.5 C 34.749481 133.42831 34.760784 133.33386 34.771484 133.23047 C 34.818054 132.77501 34.830235 132.06507 34.546875 131.54688 z M 34.222656 134.65625 C 34.271856 134.65625 34.305594 134.66406 34.308594 134.66406 L 41.152344 136.89453 L 41.078125 139.20508 L 34.349609 137.31836 C 34.337209 137.31436 34.321594 137.31313 34.308594 137.3125 C 34.281814 137.31072 33.649741 137.25268 33.619141 135.84766 C 33.608241 135.34564 33.698656 134.98332 33.878906 134.79883 C 33.994116 134.68116 34.129856 134.65625 34.222656 134.65625 z M 50.117188 135.14844 C 49.833776 135.66658 49.845678 136.37462 49.892578 136.83008 C 49.903178 136.93353 49.914281 137.02791 49.925781 137.09961 L 41.449219 139.20898 L 41.523438 136.91406 L 43.335938 136.54102 L 43.603516 136.60547 L 44.605469 136.2793 L 49.230469 135.33008 L 50.117188 135.14844 z M 122.45508 141.75977 L 126.63477 160.01953 C 134.71658 160.26035 141.20396 166.85212 141.19336 174.99414 C 141.19336 183.2849 134.47985 190 126.18555 190 C 117.87354 190 111.1582 183.28844 111.1582 174.99414 C 111.1582 169.20017 114.46878 164.23752 119.26758 161.72656 L 115.08203 143.46289 C 117.64257 143.16894 120.09641 142.58141 122.45508 141.75977 z M 123.2168 167.40234 C 123.08154 167.40234 122.9707 167.5112 122.9707 167.64648 L 122.9707 167.81055 C 122.9707 167.94583 123.08152 168.05469 123.2168 168.05469 L 123.51172 168.05469 C 123.51072 168.06829 123.50781 168.0816 123.50781 168.0957 L 123.50781 168.69141 C 123.32446 168.71182 123.18164 168.8655 123.18164 169.05469 L 123.18164 174.44336 C 123.18164 174.64281 123.34086 174.80259 123.53906 174.80859 L 123.53906 177.2793 L 123.55078 177.2793 C 123.60828 177.34914 123.86109 177.46289 124.16211 177.46289 C 124.46368 177.46289 124.71418 177.3491 124.77148 177.2793 L 124.7832 177.2793 L 124.7832 174.80859 C 124.98133 174.80317 125.14062 174.64281 125.14062 174.44336 L 125.14062 173.0625 C 125.31393 173.1215 125.49839 173.1543 125.69141 173.1543 C 126.30618 173.1543 126.84566 172.82919 127.14844 172.3418 C 128.19068 173.03695 128.88672 174.28587 128.88672 175.70898 C 128.88672 176.59143 128.61941 177.40826 128.16797 178.06641 L 126.9375 178.55664 L 126.9375 178.52539 L 122.06055 178.52539 L 122.06055 179.05469 L 126.9375 179.05469 L 126.9375 178.82031 L 127.86523 178.44922 C 127.20391 179.1935 126.27728 179.6582 125.25195 179.6582 L 125.25195 179.66797 L 124.16211 179.66797 L 124.16211 180.93164 L 120.65234 180.93164 L 120.65234 182.40234 L 128.30469 182.40234 L 128.30469 180.93164 L 126.36523 180.93164 L 126.36523 180.61719 C 128.44147 180.08156 129.99023 178.08525 129.99023 175.70898 C 129.99023 173.74298 128.93056 172.03731 127.38867 171.20312 C 127.27223 170.37024 126.55567 169.72656 125.69141 169.72656 C 125.49839 169.72656 125.31393 169.75946 125.14062 169.81836 L 125.14062 169.05469 C 125.14062 168.86582 124.99791 168.71181 124.81445 168.69141 L 124.81445 168.0957 C 124.81445 168.0817 124.81155 168.06829 124.81055 168.05469 L 125.10742 168.05469 C 125.24236 168.05469 125.35156 167.94583 125.35156 167.81055 L 125.35156 167.64648 C 125.35156 167.5112 125.24238 167.40234 125.10742 167.40234 L 123.2168 167.40234 z M 125.69336 170.09375 C 126.28165 170.09375 126.78173 170.4729 126.96484 171 C 126.80436 170.93348 126.63899 170.87584 126.4707 170.82812 C 126.28932 170.59731 126.00804 170.44922 125.69141 170.44922 C 125.14361 170.44922 124.70117 170.89375 124.70117 171.44141 C 124.70117 171.9891 125.1438 172.43164 125.69141 172.43164 C 126.02989 172.43164 126.3285 172.26297 126.50781 172.00391 C 126.61865 172.04834 126.72675 172.0988 126.83203 172.1543 C 126.59404 172.53441 126.17414 172.78711 125.69336 172.78711 C 124.95059 172.78711 124.3457 172.18413 124.3457 171.44141 C 124.3457 170.69872 124.95059 170.09375 125.69336 170.09375 z "
       transform="translate(0,832.3622)"
       id="rect5657" />
    <g
       id="g4263"
       transform="matrix(0.66666667,0,0,0.66666667,13.854,892.06317)">
      <g
         id="g4219" />
      <g
         id="g4227" />
      <g
         id="g4229" />
      <g
         id="g4231" />
      <g
         id="g4233" />
      <g
         id="g4235" />
      <g
         id="g4237" />
      <g
         id="g4239" />
      <g
         id="g4241" />
      <g
         id="g4243" />
      <g
         id="g4245" />
      <g
         id="g4247" />
      <g
         id="g4249" />
      <g
         id="g4251" />
      <g
         id="g4253" />
      <g
         id="g4255" />
    </g>
    <g
       id="g5774"
       transform="matrix(3.5415468,0,0,3.5415468,26.773859,859.13543)">
      <g
         id="g5721">
        <g
           id="Layer_1_110_">
          <g
             id="g5724" />
        </g>
      </g>
      <g
         id="g5738" />
      <g
         id="g5740" />
      <g
         id="g5742" />
      <g
         id="g5744" />
      <g
         id="g5746" />
      <g
         id="g5748" />
      <g
         id="g5750" />
      <g
         id="g5752" />
      <g
         id="g5754" />
      <g
         id="g5756" />
      <g
         id="g5758" />
      <g
         id="g5760" />
      <g
         id="g5762" />
      <g
         id="g5764" />
      <g
         id="g5766" />
    </g>
    <g
       id="g5839"
       transform="matrix(0.09698255,0,0,0.09698255,282.13129,960.88557)"
       style="fill:#ff0000">
      <g
         id="g5803"
         style="fill:#ff0000" />
      <g
         id="g5805"
         style="fill:#ff0000" />
      <g
         id="g5807"
         style="fill:#ff0000" />
      <g
         id="g5809"
         style="fill:#ff0000" />
      <g
         id="g5811"
         style="fill:#ff0000" />
      <g
         id="g5813"
         style="fill:#ff0000" />
      <g
         id="g5815"
         style="fill:#ff0000" />
      <g
         id="g5817"
         style="fill:#ff0000" />
      <g
         id="g5819"
         style="fill:#ff0000" />
      <g
         id="g5821"
         style="fill:#ff0000" />
      <g
         id="g5823"
         style="fill:#ff0000" />
      <g
         id="g5825"
         style="fill:#ff0000" />
      <g
         id="g5827"
         style="fill:#ff0000" />
      <g
         id="g5829"
         style="fill:#ff0000" />
      <g
         id="g5831"
         style="fill:#ff0000" />
    </g>
    <g
       id="g5911"
       transform="matrix(0.21317644,0,0,0.21317644,170.55594,939.59387)"
       style="fill:#ff0000">
      <g
         id="g5858"
         style="fill:#ff0000">
        <g
           id="Layer_5_58_"
           style="fill:#ff0000">
          <g
             id="g5861"
             style="fill:#ff0000">
            <g
               id="g5863"
               style="fill:#ff0000" />
            <g
               id="g5869"
               style="fill:#ff0000" />
          </g>
        </g>
      </g>
      <g
         id="g5875"
         style="fill:#ff0000" />
      <g
         id="g5877"
         style="fill:#ff0000" />
      <g
         id="g5879"
         style="fill:#ff0000" />
      <g
         id="g5881"
         style="fill:#ff0000" />
      <g
         id="g5883"
         style="fill:#ff0000" />
      <g
         id="g5885"
         style="fill:#ff0000" />
      <g
         id="g5887"
         style="fill:#ff0000" />
      <g
         id="g5889"
         style="fill:#ff0000" />
      <g
         id="g5891"
         style="fill:#ff0000" />
      <g
         id="g5893"
         style="fill:#ff0000" />
      <g
         id="g5895"
         style="fill:#ff0000" />
      <g
         id="g5897"
         style="fill:#ff0000" />
      <g
         id="g5899"
         style="fill:#ff0000" />
      <g
         id="g5901"
         style="fill:#ff0000" />
      <g
         id="g5903"
         style="fill:#ff0000" />
    </g>
    <g
       id="g5978"
       transform="matrix(0.0261963,0,0,0.0261963,231.88877,1022.106)"
       style="fill:#800080">
      <g
         id="g5938"
         style="fill:#800080" />
      <g
         id="g5942"
         style="fill:#800080" />
      <g
         id="g5944"
         style="fill:#800080" />
      <g
         id="g5946"
         style="fill:#800080" />
      <g
         id="g5948"
         style="fill:#800080" />
      <g
         id="g5950"
         style="fill:#800080" />
      <g
         id="g5952"
         style="fill:#800080" />
      <g
         id="g5954"
         style="fill:#800080" />
      <g
         id="g5956"
         style="fill:#800080" />
      <g
         id="g5958"
         style="fill:#800080" />
      <g
         id="g5960"
         style="fill:#800080" />
      <g
         id="g5962"
         style="fill:#800080" />
      <g
         id="g5964"
         style="fill:#800080" />
      <g
         id="g5966"
         style="fill:#800080" />
      <g
         id="g5968"
         style="fill:#800080" />
      <g
         id="g5970"
         style="fill:#800080" />
    </g>
    <g
       id="g6109"
       transform="matrix(0.05734756,0,0,0.05734756,147.08367,977.80227)"
       style="fill:#00ff00">
      <g
         id="g6067"
         style="fill:#00ff00">
        <g
           id="g6069"
           style="fill:#00ff00" />
      </g>
      <g
         id="g6073"
         style="fill:#00ff00" />
      <g
         id="g6075"
         style="fill:#00ff00" />
      <g
         id="g6077"
         style="fill:#00ff00" />
      <g
         id="g6079"
         style="fill:#00ff00" />
      <g
         id="g6081"
         style="fill:#00ff00" />
      <g
         id="g6083"
         style="fill:#00ff00" />
      <g
         id="g6085"
         style="fill:#00ff00" />
      <g
         id="g6087"
         style="fill:#00ff00" />
      <g
         id="g6089"
         style="fill:#00ff00" />
      <g
         id="g6091"
         style="fill:#00ff00" />
      <g
         id="g6093"
         style="fill:#00ff00" />
      <g
         id="g6095"
         style="fill:#00ff00" />
      <g
         id="g6097"
         style="fill:#00ff00" />
      <g
         id="g6099"
         style="fill:#00ff00" />
      <g
         id="g6101"
         style="fill:#00ff00" />
    </g>
    <g
       id="g5701"
       transform="matrix(0.47379892,0,0,0.47379892,172.57143,913.20331)"
       style="fill:#ffffff">
      <g
         id="g5661"
         style="fill:#ffffff" />
      <g
         id="g5665"
         style="fill:#ffffff" />
      <g
         id="g5667"
         style="fill:#ffffff" />
      <g
         id="g5669"
         style="fill:#ffffff" />
      <g
         id="g5671"
         style="fill:#ffffff" />
      <g
         id="g5673"
         style="fill:#ffffff" />
      <g
         id="g5675"
         style="fill:#ffffff" />
      <g
         id="g5677"
         style="fill:#ffffff" />
      <g
         id="g5679"
         style="fill:#ffffff" />
      <g
         id="g5681"
         style="fill:#ffffff" />
      <g
         id="g5683"
         style="fill:#ffffff" />
      <g
         id="g5685"
         style="fill:#ffffff" />
      <g
         id="g5687"
         style="fill:#ffffff" />
      <g
         id="g5689"
         style="fill:#ffffff" />
      <g
         id="g5691"
         style="fill:#ffffff" />
      <g
         id="g5693"
         style="fill:#ffffff" />
    </g>
    <g
       id="g6044"
       transform="matrix(0.03524428,0,0,0.03524428,252.92376,891.25802)"
       style="fill:#00ffff">
      <g
         id="g5998"
         style="fill:#00ffff">
        <g
           id="g6000"
           style="fill:#00ffff" />
      </g>
      <g
         id="g6008"
         style="fill:#00ffff" />
      <g
         id="g6010"
         style="fill:#00ffff" />
      <g
         id="g6012"
         style="fill:#00ffff" />
      <g
         id="g6014"
         style="fill:#00ffff" />
      <g
         id="g6016"
         style="fill:#00ffff" />
      <g
         id="g6018"
         style="fill:#00ffff" />
      <g
         id="g6020"
         style="fill:#00ffff" />
      <g
         id="g6022"
         style="fill:#00ffff" />
      <g
         id="g6024"
         style="fill:#00ffff" />
      <g
         id="g6026"
         style="fill:#00ffff" />
      <g
         id="g6028"
         style="fill:#00ffff" />
      <g
         id="g6030"
         style="fill:#00ffff" />
      <g
         id="g6032"
         style="fill:#00ffff" />
      <g
         id="g6034"
         style="fill:#00ffff" />
      <g
         id="g6036"
         style="fill:#00ffff" />
    </g>
  </g>
</svg>
