<?xml version="1.0" encoding="UTF-8" standalone="no"?>
<!-- Created with Inkscape (http://www.inkscape.org/) -->

<svg
   xmlns:dc="http://purl.org/dc/elements/1.1/"
   xmlns:cc="http://creativecommons.org/ns#"
   xmlns:rdf="http://www.w3.org/1999/02/22-rdf-syntax-ns#"
   xmlns:svg="http://www.w3.org/2000/svg"
   xmlns="http://www.w3.org/2000/svg"
   xmlns:sodipodi="http://sodipodi.sourceforge.net/DTD/sodipodi-0.dtd"
   xmlns:inkscape="http://www.inkscape.org/namespaces/inkscape"
   width="62.08889mm"
   height="62.08889mm"
   viewBox="0 0 220 220"
   id="svg8137"
   version="1.1"
   inkscape:version="0.91 r13725"
   sodipodi:docname="ufu_calendario_estes.svg">
  <defs
     id="defs8139" />
  <sodipodi:namedview
     id="base"
     pagecolor="#ffffff"
     bordercolor="#666666"
     borderopacity="1.0"
     inkscape:pageopacity="0.0"
     inkscape:pageshadow="2"
     inkscape:zoom="0.91738281"
     inkscape:cx="8.0998509"
     inkscape:cy="123.12327"
     inkscape:document-units="px"
     inkscape:current-layer="layer1"
     showgrid="false"
     fit-margin-top="0"
     fit-margin-left="0"
     fit-margin-right="0"
     fit-margin-bottom="0"
     inkscape:window-width="1600"
     inkscape:window-height="847"
     inkscape:window-x="1432"
     inkscape:window-y="-8"
     inkscape:window-maximized="1" />
  <metadata
     id="metadata8142">
    <rdf:RDF>
      <cc:Work
         rdf:about="">
        <dc:format>image/svg+xml</dc:format>
        <dc:type
           rdf:resource="http://purl.org/dc/dcmitype/StillImage" />
        <dc:title></dc:title>
      </cc:Work>
    </rdf:RDF>
  </metadata>
  <g
     inkscape:label="Camada 1"
     inkscape:groupmode="layer"
     id="layer1"
     transform="translate(-223.55759,-435.48547)">
    <path
       inkscape:connector-curvature="0"
       style="color:#000000;clip-rule:nonzero;display:inline;overflow:visible;visibility:visible;opacity:1;isolation:auto;mix-blend-mode:normal;color-interpolation:sRGB;color-interpolation-filters:linearRGB;solid-color:#000000;solid-opacity:1;fill:#ffffff;fill-opacity:1;fill-rule:nonzero;stroke:none;stroke-width:5;stroke-linecap:square;stroke-linejoin:miter;stroke-miterlimit:4;stroke-dasharray:none;stroke-dashoffset:0;stroke-opacity:1;color-rendering:auto;image-rendering:auto;shape-rendering:auto;text-rendering:auto;enable-background:accumulate"
       d="m 223.55759,435.48547 0,220 220,0 0,-220 -220,0 z m 114.04101,31.0625 1.7168,0 c 2.60884,0 4.72461,2.11456 4.72461,4.72266 l 0,3.75586 0,14.15625 c 0,2.60859 -2.11577,4.72461 -4.72461,4.72461 l -1.7168,0 c -2.60884,0 -4.72411,-2.11577 -4.72461,-4.72461 l 0,-14.15625 0,-3.75586 c 0,-2.6081 2.11528,-4.72266 4.72461,-4.72266 z m -60.59179,0.11524 1.71679,0 c 2.60909,0 4.72461,2.11626 4.72461,4.72461 l 0,4.87695 0,13.03516 c 0,2.60834 -2.11552,4.72461 -4.72461,4.72461 l -1.71679,0 c -2.60884,0 -4.72461,-2.11627 -4.72461,-4.72461 l 0,-13.03516 0,-4.87695 c 0,-2.60835 2.11577,-4.72461 4.72461,-4.72461 z m -21.64454,9.60156 13.08204,0 0,13.03516 c 0,4.72229 3.84045,8.56445 8.5625,8.56445 l 1.71679,0 c 4.72229,0 8.56446,-3.84216 8.56446,-8.56445 l 0,-13.03516 41.74804,0 0,12.91797 c 0,4.72229 3.84021,8.56445 8.5625,8.56445 l 1.7168,0 c 4.7218,0 8.56445,-2.60388 8.56445,-7.32617 l 0,-14.15625 12.12305,0 c 4.23457,0 7.68018,3.44512 7.67969,7.67969 l 0,92.80078 c 0,4.23482 -3.44512,7.67968 -7.67969,7.67968 l -104.64063,0 c -4.23455,0 -7.67968,-3.44486 -7.67968,-7.67968 l 0,-92.80078 c 0,-4.23482 3.44513,-7.67969 7.67968,-7.67969 z m 0,30.39844 0,70.08203 104.64063,0 c 0.003,0 0.005,-0.002 0.006,-0.002 l -0.004,-70.08007 -104.64258,0 z m 56.28516,9.58789 13.78906,0 c 0.54662,0 0.99024,0.44362 0.99024,0.99023 l 0,11.93946 c 0,0.54661 -0.44362,0.99023 -0.99024,0.99023 l -13.78906,0 c -0.54661,0 -0.99023,-0.44362 -0.99023,-0.99023 l 0,-11.93946 c 0,-0.54661 0.44362,-0.99023 0.99023,-0.99023 z m 22.50391,0 13.79101,0 c 0.54662,0 0.98828,0.44362 0.98828,0.99023 l 0,11.93946 c 0,0.54661 -0.44166,0.99023 -0.98828,0.99023 l -13.79101,0 c -0.54661,0 -0.98828,-0.44362 -0.98828,-0.99023 l 0,-11.93946 c 0,-0.54661 0.44167,-0.99023 0.98828,-0.99023 z m -67.51172,19.54882 13.78906,0 c 0.54661,0 0.99024,0.44167 0.99024,0.98828 l 0,11.94141 c 0,0.54661 -0.44363,0.99024 -0.99024,0.99024 l -13.78906,0 c -0.54661,-10e-6 -0.98828,-0.44363 -0.98828,-0.99024 l 0,-11.94141 c 0,-0.54661 0.44167,-0.98828 0.98828,-0.98828 z m 22.50391,0 13.78906,0 c 0.54661,0 0.99023,0.44167 0.99023,0.98828 l 0,11.94141 c 0,0.54661 -0.44362,0.99024 -0.99023,0.99024 l -13.78906,0 c -0.54662,-10e-6 -0.98829,-0.44363 -0.98829,-0.99024 l 0,-11.94141 c 0,-0.54661 0.44167,-0.98828 0.98829,-0.98828 z m 22.5039,0 13.78906,0 c 0.54662,0 0.99024,0.44167 0.99024,0.98828 l 0,11.94141 c 0,0.54661 -0.44362,0.99024 -0.99024,0.99024 l -13.78906,0 c -0.54661,-10e-6 -0.98828,-0.44363 -0.98828,-0.99024 l 0,-11.94141 c 0,-0.54661 0.44167,-0.98828 0.98828,-0.98828 z m 22.50391,0 13.79101,0 c 0.54662,0 0.98828,0.44167 0.98828,0.98828 l 0,11.94141 c 0,0.54661 -0.44166,0.99024 -0.98828,0.99024 l -13.79101,0 c -0.54661,-10e-6 -0.98828,-0.44363 -0.98828,-0.99024 l 0,-11.94141 c 0,-0.54661 0.44167,-0.98828 0.98828,-0.98828 z m -67.50977,19.54688 13.78711,0 c 0.54661,0 0.98999,0.44362 0.99024,0.99023 l 0,11.94141 c 0,0.54661 -0.44167,0.99023 -0.98829,0.99023 l -13.78906,0 c -0.54661,0 -0.99023,-0.44362 -0.99023,-0.99023 l 0,-11.94141 c 0,-0.54661 0.44362,-0.99023 0.99023,-0.99023 z m 22.50196,0 13.79101,0 c 0.54661,0 0.98828,0.44362 0.98828,0.99023 l 0,11.94141 c 0,0.54661 -0.44167,0.99023 -0.98828,0.99023 l -13.79101,0 c -0.54662,0 -0.98829,-0.44362 -0.98829,-0.99023 l 0,-11.94141 c 0,-0.54661 0.44167,-0.99023 0.98829,-0.99023 z m 22.5039,0 13.79102,0 c 0.54661,0 0.98828,0.44362 0.98828,0.99023 l 0,11.94141 c 0,0.54661 -0.44167,0.99023 -0.98828,0.99023 l -13.79102,0 c -0.54661,0 -0.98828,-0.44362 -0.98828,-0.99023 l 0,-11.94141 c 0,-0.54661 0.44167,-0.99023 0.98828,-0.99023 z m 22.50391,0 13.79101,0 c 0.54662,0 0.98828,0.44362 0.98828,0.99023 l 0,11.94141 c 0,0.54661 -0.44166,0.99023 -0.98828,0.99023 l -13.79101,0 c -0.54661,0 -0.98828,-0.44362 -0.98828,-0.99023 l 0,-11.94141 c 0,-0.54661 0.44167,-0.99023 0.98828,-0.99023 z m 34,58.47265 c 2.02148,0 3.54248,0.44385 4.56054,1.33008 1.02539,0.88623 1.56397,2.06739 1.61524,3.54688 l -3.25195,0.14453 c -0.13916,-0.82764 -0.44092,-1.42236 -0.90235,-1.78125 -0.4541,-0.36621 -1.13916,-0.54883 -2.05469,-0.54883 -0.94482,0 -1.68408,0.19385 -2.21875,0.58203 -0.34423,0.24903 -0.51562,0.58252 -0.51562,1 0,0.38086 0.16016,0.70752 0.48242,0.97852 0.41016,0.34424 1.40625,0.70263 2.98828,1.07617 1.58203,0.37353 2.75147,0.76123 3.50586,1.16406 0.76172,0.39551 1.35449,0.94092 1.7793,1.63672 0.43213,0.68848 0.64844,1.54248 0.64844,2.56055 0,0.92285 -0.25686,1.78613 -0.76953,2.59179 -0.5127,0.80567 -1.23829,1.40723 -2.17579,1.80274 -0.9375,0.38818 -2.10498,0.58203 -3.5039,0.58203 -2.03614,0 -3.6001,-0.46875 -4.69141,-1.40625 -1.09131,-0.94482 -1.74267,-2.31738 -1.95508,-4.11914 l 3.16407,-0.30859 c 0.19043,1.06201 0.57373,1.84179 1.15234,2.33984 0.58594,0.49805 1.37451,0.74805 2.36328,0.74805 1.04736,0 1.83399,-0.22071 2.36133,-0.66016 0.53467,-0.44678 0.80273,-0.96533 0.80273,-1.55859 0,-0.38086 -0.11474,-0.70313 -0.34179,-0.9668 -0.21973,-0.271 -0.60743,-0.50537 -1.16407,-0.70313 -0.38086,-0.13183 -1.24853,-0.36621 -2.60351,-0.70312 -1.74317,-0.43213 -2.9668,-0.96387 -3.66992,-1.59375 -0.98877,-0.88623 -1.48243,-1.96582 -1.48243,-3.24024 0,-0.82029 0.22998,-1.58642 0.69141,-2.29687 0.46875,-0.71777 1.14014,-1.26318 2.01172,-1.63672 0.87891,-0.37353 1.93603,-0.56055 3.17383,-0.56055 z m 43.76953,0 c 2.02148,0 3.54248,0.44385 4.56055,1.33008 1.02539,0.88623 1.56396,2.06739 1.61523,3.54688 l -3.25195,0.14453 c -0.13916,-0.82764 -0.44092,-1.42236 -0.90235,-1.78125 -0.4541,-0.36621 -1.13916,-0.54883 -2.05468,-0.54883 -0.94483,0 -1.68409,0.19385 -2.21875,0.58203 -0.34424,0.24903 -0.51563,0.58252 -0.51563,1 0,0.38086 0.16016,0.70752 0.48242,0.97852 0.41016,0.34424 1.40625,0.70263 2.98828,1.07617 1.58203,0.37353 2.75147,0.76123 3.50586,1.16406 0.76172,0.39551 1.35449,0.94092 1.7793,1.63672 0.43213,0.68848 0.64844,1.54248 0.64844,2.56055 0,0.92285 -0.25684,1.78613 -0.76953,2.59179 -0.5127,0.80567 -1.23829,1.40723 -2.17579,1.80274 -0.9375,0.38818 -2.10498,0.58203 -3.5039,0.58203 -2.03613,0 -3.6001,-0.46875 -4.69141,-1.40625 -1.0913,-0.94482 -1.74267,-2.31738 -1.95508,-4.11914 l 3.16407,-0.30859 c 0.19043,1.06201 0.57373,1.84179 1.15234,2.33984 0.58594,0.49805 1.37451,0.74805 2.36328,0.74805 1.04736,0 1.83399,-0.22071 2.36133,-0.66016 0.53467,-0.44678 0.80273,-0.96533 0.80273,-1.55859 0,-0.38086 -0.11474,-0.70313 -0.34179,-0.9668 -0.21973,-0.271 -0.60742,-0.50537 -1.16407,-0.70313 -0.38085,-0.13183 -1.24853,-0.36621 -2.60351,-0.70312 -1.74317,-0.43213 -2.9668,-0.96387 -3.66992,-1.59375 -0.98877,-0.88623 -1.48242,-1.96582 -1.48242,-3.24024 0,-0.82029 0.22998,-1.58642 0.6914,-2.29687 0.46875,-0.71777 1.14014,-1.26318 2.01172,-1.63672 0.87891,-0.37353 1.93604,-0.56055 3.17383,-0.56055 z m -64.4336,0.2754 11.94141,0 0,2.7246 -8.68945,0 0,3.57032 8.08594,0 0,2.71289 -8.08594,0 0,4.38281 8.99804,0 0,2.71484 -12.25,0 0,-16.10546 z m 28.9043,0 12.79883,0 0,2.7246 -4.76758,0 0,13.38086 -3.25195,0 0,-13.38086 -4.7793,0 0,-2.7246 z m 14.86524,0 11.9414,0 0,2.7246 -8.68945,0 0,3.57032 8.08594,0 0,2.71289 -8.08594,0 0,4.38281 8.99805,0 0,2.71484 -12.25,0 0,-16.10546 z"
       id="rect6146" />
  </g>
</svg>
