<?xml version="1.0" encoding="UTF-8" standalone="no"?>
<!-- Created with Inkscape (http://www.inkscape.org/) -->

<svg
   xmlns:dc="http://purl.org/dc/elements/1.1/"
   xmlns:cc="http://creativecommons.org/ns#"
   xmlns:rdf="http://www.w3.org/1999/02/22-rdf-syntax-ns#"
   xmlns:svg="http://www.w3.org/2000/svg"
   xmlns="http://www.w3.org/2000/svg"
   xmlns:sodipodi="http://sodipodi.sourceforge.net/DTD/sodipodi-0.dtd"
   xmlns:inkscape="http://www.inkscape.org/namespaces/inkscape"
   width="62.08889mm"
   height="62.08889mm"
   viewBox="0 0 220 220"
   id="svg2"
   version="1.1"
   inkscape:version="0.91 r13725"
   sodipodi:docname="ufu_revistas.svg">
  <defs
     id="defs4" />
  <sodipodi:namedview
     id="base"
     pagecolor="#ffffff"
     bordercolor="#666666"
     borderopacity="1.0"
     inkscape:pageopacity="0.0"
     inkscape:pageshadow="2"
     inkscape:zoom="2.9590909"
     inkscape:cx="153.93241"
     inkscape:cy="112.05872"
     inkscape:document-units="px"
     inkscape:current-layer="layer1"
     showgrid="false"
     fit-margin-top="0"
     fit-margin-left="0"
     fit-margin-right="0"
     fit-margin-bottom="0"
     inkscape:window-width="1440"
     inkscape:window-height="847"
     inkscape:window-x="-8"
     inkscape:window-y="-8"
     inkscape:window-maximized="1" />
  <metadata
     id="metadata7">
    <rdf:RDF>
      <cc:Work
         rdf:about="">
        <dc:format>image/svg+xml</dc:format>
        <dc:type
           rdf:resource="http://purl.org/dc/dcmitype/StillImage" />
        <dc:title></dc:title>
      </cc:Work>
    </rdf:RDF>
  </metadata>
  <g
     inkscape:label="Camada 1"
     inkscape:groupmode="layer"
     id="layer1"
     transform="translate(-255.16926,-346.10076)">
    <g
       transform="translate(-185.30977,-160.23845)"
       id="layer1-5"
       inkscape:label="Camada 1"
       style="fill:#ffffff">
      <path
         style="color:#000000;clip-rule:nonzero;display:inline;overflow:visible;visibility:visible;opacity:1;isolation:auto;mix-blend-mode:normal;color-interpolation:sRGB;color-interpolation-filters:linearRGB;solid-color:#000000;solid-opacity:1;fill:#ffffff;fill-opacity:1;fill-rule:nonzero;stroke:none;stroke-width:5;stroke-linecap:square;stroke-linejoin:miter;stroke-miterlimit:4;stroke-dasharray:none;stroke-dashoffset:0;stroke-opacity:1;color-rendering:auto;image-rendering:auto;shape-rendering:auto;text-rendering:auto;enable-background:accumulate"
         d="M 0 0 L 0 220 L 220 220 L 220 0 L 0 0 z M 89.287109 46.173828 C 89.641053 46.152571 90.001956 46.185501 90.359375 46.275391 C 90.736056 46.36956 127.99169 55.597656 152.01367 55.597656 C 162.78333 55.597656 166.82514 53.715232 168.28906 52.59375 C 169.61602 51.549322 171.51664 51.608237 172.80078 52.738281 C 174.0678 53.868325 174.3681 55.751671 173.48633 57.207031 L 160.48047 78.953125 C 161.99575 79.860584 166.42271 81.641087 172.24414 76.564453 C 175.18909 74.013295 177.35581 75.494156 177.95508 76.007812 C 179.71861 77.531657 181.02721 78.696172 170.39453 97.162109 C 172.05535 97.410376 176.90091 97.511909 183.15039 92.058594 C 186.09535 89.490358 188.25305 91.005127 188.84375 91.527344 C 191.74591 94.095624 193.20156 95.380778 141.43359 171.78711 C 140.98843 172.53191 140.19094 173.83398 135.48242 173.83398 C 126.15956 173.83398 101.46168 168.72232 33.582031 143.97266 C 31.929771 143.37339 31.065309 141.66037 31.390625 139.98242 C 30.286264 139.13489 29.737804 137.67968 30.123047 136.25 L 30.123047 136.23438 C 29.592269 133.3151 33.899245 123.16926 86.591797 47.6875 C 87.227446 46.782183 88.225286 46.237634 89.287109 46.173828 z M 91.009766 53.740234 C 73.656752 78.643993 48.426333 115.7051 39.908203 130.18164 C 43.931842 129.41973 48.512461 129.0332 53.597656 129.0332 C 77.559712 129.0332 106.6937 137.33788 115.64844 140.08594 L 162.36523 62.001953 C 159.3946 62.464244 155.9532 62.695312 151.99805 62.695312 C 130.40737 62.695313 99.78472 55.820541 91.009766 53.740234 z M 101.13672 59.226562 L 105.33008 60.349609 L 100.87109 68.865234 C 100.33407 69.890942 100.14864 70.691034 100.31445 71.263672 C 100.48027 71.836309 100.9603 72.228236 101.75586 72.441406 C 102.60774 72.669667 103.34365 72.606689 103.96289 72.251953 C 104.59264 71.892484 105.1811 71.190091 105.72852 70.144531 L 110.17578 61.648438 L 114.34766 62.765625 L 109.77539 71.5 C 108.78104 73.399215 107.43521 74.718963 105.74023 75.457031 C 104.05574 76.190369 102.13677 76.268661 99.982422 75.691406 C 97.877362 75.127356 96.523327 74.187287 95.919922 72.871094 C 95.323559 71.55679 95.523226 69.949995 96.517578 68.050781 L 101.13672 59.226562 z M 117.61133 63.640625 L 126.73633 66.083984 L 125.08789 69.232422 L 120.07227 67.886719 L 118.62109 70.65625 L 123.24805 71.896484 L 121.59961 75.042969 L 116.97461 73.802734 L 114.12109 79.251953 L 110.01367 78.152344 L 117.61133 63.640625 z M 129.18555 66.742188 L 133.37891 67.865234 L 128.91992 76.380859 C 128.38298 77.406567 128.19746 78.206656 128.36328 78.779297 C 128.52912 79.351937 129.00912 79.743864 129.80469 79.957031 C 130.65657 80.185291 131.39251 80.122318 132.01172 79.767578 C 132.64146 79.40811 133.22996 78.705717 133.77734 77.660156 L 138.22461 69.164062 L 142.39648 70.28125 L 137.82422 79.015625 C 136.82987 80.914838 135.48405 82.234584 133.78906 82.972656 C 132.10458 83.705994 130.1856 83.784286 128.03125 83.207031 C 125.92619 82.642981 124.57212 81.70291 123.96875 80.386719 C 123.37235 79.072413 123.57205 77.46562 124.56641 75.566406 L 129.18555 66.742188 z M 106.28711 82.076172 C 106.54394 82.076172 107.93821 82.086009 108.73438 82.308594 C 109.05968 82.394237 109.50634 82.419922 109.63477 82.419922 C 109.80598 82.428483 109.97676 82.454038 110.13086 82.488281 C 110.21647 82.505403 112.35664 83.052381 115.51562 84.285156 L 117.42383 85.074219 C 121.45603 86.615186 122.74962 88.317099 122.95508 88.599609 C 125.3179 91.52745 122.31266 94.574979 120.52344 95.996094 C 120.57472 96.039326 120.59271 96.082944 120.62695 96.117188 C 121.14062 96.896233 119.84678 98.102983 119.00781 98.779297 C 118.3743 99.404288 117.63891 99.729172 116.98828 99.900391 C 113.54679 103.35901 104.90751 106.19309 98.101562 104.90039 C 92.263005 103.78747 88.1197 98.856502 89.386719 94.644531 C 89.069981 94.293524 88.830442 93.778917 89.027344 93.068359 C 89.095831 92.24651 89.37901 90.852623 90.628906 90.416016 C 90.808686 90.347528 91.005019 90.30498 91.193359 90.279297 C 92.20355 86.623777 93.872863 85.363958 94.232422 85.132812 C 98.307427 82.213531 105.97035 82.076172 106.28711 82.076172 z M 106.44922 83.472656 C 106.40641 83.472656 99.668093 83.591676 96.337891 86.005859 C 96.303647 86.022981 96.287402 86.031706 96.261719 86.048828 C 96.261719 86.048828 94.514881 87.213435 93.607422 91.228516 C 93.547495 91.485344 93.231822 91.700295 92.769531 91.777344 C 92.521264 91.820251 92.272453 91.8194 92.015625 91.785156 C 91.835845 92.119033 91.672916 92.684066 91.638672 93.214844 C 91.638672 93.240527 91.629655 93.265333 91.621094 93.291016 C 91.518363 93.667697 91.595027 93.984283 91.826172 94.164062 C 92.040178 94.32672 92.117316 94.516738 92.048828 94.705078 C 90.78181 98.232183 94.241289 102.71783 98.898438 103.59961 C 104.43736 104.6526 112.15718 101.96378 114.85352 99.027344 C 114.99904 98.864686 115.28211 98.744725 115.60742 98.693359 C 115.99266 98.624872 116.3778 98.410797 116.70312 98.068359 C 116.72025 98.042677 116.75361 98.017122 116.7793 98 C 117.36146 97.54627 117.89249 96.990583 118.07227 96.673828 C 117.87536 96.59678 117.71285 96.501461 117.60156 96.373047 C 117.38754 96.141902 117.44015 95.869525 117.72266 95.664062 C 118.92974 94.799417 122.7556 91.777231 120.54688 89.097656 C 120.52975 89.080534 120.51517 89.054231 120.49805 89.037109 C 120.49805 89.028548 119.50454 87.555297 115.90039 86.185547 L 114 85.390625 C 111.62006 84.466043 109.85558 83.95172 109.27344 83.789062 C 108.89676 83.771941 108.17755 83.695112 107.62109 83.541016 C 107.33858 83.489736 106.75741 83.472656 106.44922 83.472656 z M 156.82617 85.039062 L 120.28711 146.12109 C 119.6365 147.20829 118.47347 147.85156 117.25781 147.85156 C 116.88969 147.85156 116.51265 147.79834 116.14453 147.66992 C 115.79353 147.55007 80.538917 136.11328 53.597656 136.11328 C 50.627012 136.11328 47.913691 136.30147 45.371094 136.58398 C 112.63436 153.76576 126.80254 151.17224 128.99414 150.45312 C 144.39526 126.36266 160.77253 99.874915 168.17773 86.605469 C 163.41785 87.761195 159.37735 86.554347 156.82617 85.039062 z M 89.480469 101.66406 C 89.480469 101.66406 94.498455 111.13289 108.76953 105.3457 C 108.76953 105.3457 110.09703 106.85205 111.75781 107.74219 C 112.16874 107.93909 112.613 108.14581 113.15234 108.37695 C 113.15234 108.37695 115.65134 109.36114 118.14258 110.63672 C 118.52782 110.79082 118.76758 110.89258 118.76758 110.89258 C 121.66974 112.17672 122.44922 113.42773 122.44922 113.42773 C 125.01749 118.13625 120.49805 126.63672 120.49805 126.63672 C 119.27382 128.54583 117.56055 128.43359 117.56055 128.43359 C 104.80474 128.93012 86.972656 126.04688 86.972656 126.04688 L 86.972656 126.00391 C 86.082319 125.86693 85.183889 125.71298 84.242188 125.5332 C 84.242188 125.5332 66.973761 121.72248 57.376953 116.98828 C 57.376953 116.98828 55.921779 116.49216 57.017578 114.54883 C 57.017578 114.54883 62.685604 106.26095 69.833984 103.41016 C 69.833984 103.41016 71.827815 102.68268 75.517578 102.64844 C 75.517578 102.64844 87.648429 102.99957 89.480469 101.66406 z M 177.84375 103.25586 C 171.85967 105.22486 167.73144 103.8637 167.47461 103.76953 C 167.20066 103.67536 166.987 103.4971 166.75586 103.35156 C 160.00128 114.71192 149.78775 131.08853 134.56641 154.89648 L 134.55859 154.88867 C 133.1118 157.10596 128.81406 158.04688 122.49609 158.04688 C 111.32407 158.04688 93.843585 155.06716 74.744141 150.88086 C 100.85499 159.60445 116.02442 163.5685 124.63672 165.33203 C 131.60532 166.75333 134.80616 166.84749 136.10742 166.80469 C 136.15023 166.787 136.21156 166.78786 136.27148 166.7793 C 149.66936 146.96931 168.72636 118.22037 177.84375 103.25586 z "
         transform="translate(440.47903,506.33921)"
         id="rect6146" />
    </g>
    <g
       id="g4250"
       transform="matrix(0.09753267,0,0,0.09753267,404.01726,498.02478)">
      <g
         id="g4208" />
      <g
         id="g4214" />
      <g
         id="g4216" />
      <g
         id="g4218" />
      <g
         id="g4220" />
      <g
         id="g4222" />
      <g
         id="g4224" />
      <g
         id="g4226" />
      <g
         id="g4228" />
      <g
         id="g4230" />
      <g
         id="g4232" />
      <g
         id="g4234" />
      <g
         id="g4236" />
      <g
         id="g4238" />
      <g
         id="g4240" />
      <g
         id="g4242" />
    </g>
    <g
       id="g293773"
       transform="matrix(0.08019764,0,0,0.08019764,372.33747,506.43793)"
       style="fill:#ff0000">
      <g
         id="g293733"
         style="fill:#ff0000" />
      <g
         id="g293737"
         style="fill:#ff0000" />
      <g
         id="g293739"
         style="fill:#ff0000" />
      <g
         id="g293741"
         style="fill:#ff0000" />
      <g
         id="g293743"
         style="fill:#ff0000" />
      <g
         id="g293745"
         style="fill:#ff0000" />
      <g
         id="g293747"
         style="fill:#ff0000" />
      <g
         id="g293749"
         style="fill:#ff0000" />
      <g
         id="g293751"
         style="fill:#ff0000" />
      <g
         id="g293753"
         style="fill:#ff0000" />
      <g
         id="g293755"
         style="fill:#ff0000" />
      <g
         id="g293757"
         style="fill:#ff0000" />
      <g
         id="g293759"
         style="fill:#ff0000" />
      <g
         id="g293761"
         style="fill:#ff0000" />
      <g
         id="g293763"
         style="fill:#ff0000" />
      <g
         id="g293765"
         style="fill:#ff0000" />
    </g>
    <g
       id="g294015"
       transform="matrix(3.0461685,0,0,3.0461685,285.16926,376.10076)"
       style="fill:#ffffff">
      <g
         id="g293975"
         style="fill:#ffffff" />
      <g
         id="g293979"
         style="fill:#ffffff" />
      <g
         id="g293981"
         style="fill:#ffffff" />
      <g
         id="g293983"
         style="fill:#ffffff" />
      <g
         id="g293985"
         style="fill:#ffffff" />
      <g
         id="g293987"
         style="fill:#ffffff" />
      <g
         id="g293989"
         style="fill:#ffffff" />
      <g
         id="g293991"
         style="fill:#ffffff" />
      <g
         id="g293993"
         style="fill:#ffffff" />
      <g
         id="g293995"
         style="fill:#ffffff" />
      <g
         id="g293997"
         style="fill:#ffffff" />
      <g
         id="g293999"
         style="fill:#ffffff" />
      <g
         id="g294001"
         style="fill:#ffffff" />
      <g
         id="g294003"
         style="fill:#ffffff" />
      <g
         id="g294005"
         style="fill:#ffffff" />
      <g
         id="g294007"
         style="fill:#ffffff" />
    </g>
    <g
       id="g293956"
       transform="matrix(0.30124439,0,0,0.30124489,-142.35334,148.02629)">
      <g
         id="g293920" />
      <g
         id="g293922" />
      <g
         id="g293924" />
      <g
         id="g293926" />
      <g
         id="g293928" />
      <g
         id="g293930" />
      <g
         id="g293932" />
      <g
         id="g293934" />
      <g
         id="g293936" />
      <g
         id="g293938" />
      <g
         id="g293940" />
      <g
         id="g293942" />
      <g
         id="g293944" />
      <g
         id="g293946" />
      <g
         id="g293948" />
    </g>
    <g
       style="font-style:normal;font-variant:normal;font-weight:bold;font-stretch:normal;font-size:18.09542465px;line-height:125%;font-family:Arial;-inkscape-font-specification:'Arial Bold';text-align:start;letter-spacing:0px;word-spacing:0px;writing-mode:lr-tb;text-anchor:start;fill:#ff0000;fill-opacity:1;stroke:none;stroke-width:1px;stroke-linecap:butt;stroke-linejoin:miter;stroke-opacity:1"
       id="text294183"
       transform="translate(22.165899,-37.849463)" />
    <g
       style="font-style:normal;font-variant:normal;font-weight:bold;font-stretch:normal;font-size:9.06061077px;line-height:125%;font-family:Arial;-inkscape-font-specification:'Arial Bold';text-align:start;letter-spacing:0px;word-spacing:0px;writing-mode:lr-tb;text-anchor:start;fill:#ff0000;fill-opacity:1;stroke:none;stroke-width:1px;stroke-linecap:butt;stroke-linejoin:miter;stroke-opacity:1"
       id="text294187"
       transform="translate(12.165899,-37.849463)" />
    <g
       style="font-style:normal;font-variant:normal;font-weight:bold;font-stretch:normal;font-size:47.24942398px;line-height:125%;font-family:Arial;-inkscape-font-specification:'Arial Bold';text-align:start;letter-spacing:0px;word-spacing:0px;writing-mode:lr-tb;text-anchor:start;fill:#ff0000;fill-opacity:1;stroke:none;stroke-width:1px;stroke-linecap:butt;stroke-linejoin:miter;stroke-opacity:1"
       id="text294191"
       transform="translate(12.165899,-37.849463)" />
    <g
       id="g294254"
       transform="matrix(0.10204082,0,0,0.10204082,339.04681,374.97831)"
       style="fill:#ff0000">
      <g
         id="g294256"
         style="fill:#ff0000" />
    </g>
    <g
       id="g294329"
       transform="matrix(0.29438703,0,0,0.29438703,399.73721,413.26137)"
       style="fill:#ff0000">
      <g
         id="g294273"
         style="fill:#ff0000">
        <g
           id="g294275"
           style="fill:#ff0000" />
      </g>
      <g
         id="g294293"
         style="fill:#ff0000" />
      <g
         id="g294295"
         style="fill:#ff0000" />
      <g
         id="g294297"
         style="fill:#ff0000" />
      <g
         id="g294299"
         style="fill:#ff0000" />
      <g
         id="g294301"
         style="fill:#ff0000" />
      <g
         id="g294303"
         style="fill:#ff0000" />
      <g
         id="g294305"
         style="fill:#ff0000" />
      <g
         id="g294307"
         style="fill:#ff0000" />
      <g
         id="g294309"
         style="fill:#ff0000" />
      <g
         id="g294311"
         style="fill:#ff0000" />
      <g
         id="g294313"
         style="fill:#ff0000" />
      <g
         id="g294315"
         style="fill:#ff0000" />
      <g
         id="g294317"
         style="fill:#ff0000" />
      <g
         id="g294319"
         style="fill:#ff0000" />
      <g
         id="g294321"
         style="fill:#ff0000" />
    </g>
    <g
       transform="matrix(0.26196654,0,0,0.26196654,353.77372,193.81262)"
       id="layer1-7"
       inkscape:label="Camada 1">
      <text
         sodipodi:linespacing="125%"
         id="text3356"
         y="1073.4818"
         x="933.04791"
         style="font-style:normal;font-variant:normal;font-weight:normal;font-stretch:normal;font-size:15px;line-height:125%;font-family:'Open Sans';-inkscape-font-specification:'Open Sans, Normal';text-align:start;letter-spacing:0px;word-spacing:0px;writing-mode:lr-tb;text-anchor:start;fill:#000000;fill-opacity:1;stroke:none;stroke-width:1px;stroke-linecap:butt;stroke-linejoin:miter;stroke-opacity:1"
         xml:space="preserve"><tspan
           y="1073.4818"
           x="933.04791"
           id="tspan3358"
           sodipodi:role="line" /></text>
    </g>
    <g
       id="g294430"
       transform="matrix(8.5609344,0,0,8.5609344,286.0425,350.98439)">
      <g
         id="g294372">
        <g
           id="g294374">
          <path
             id="path294382"
             d="M 9.037,8.823 C 9.058,8.816 9.078,8.81 9.099,8.802 9.099,8.795 9.101,8.791 9.101,8.791 9.078,8.803 9.058,8.811 9.037,8.823 Z"
             style="fill:#030104"
             inkscape:connector-curvature="0" />
          <polygon
             id="polygon294384"
             points="6.853,8.368 6.853,8.372 6.853,8.368 "
             style="fill:#030104" />
          <polygon
             id="polygon294386"
             points="6.845,8.372 6.853,8.368 6.853,8.365 "
             style="fill:#030104" />
        </g>
      </g>
      <g
         id="g294394" />
      <g
         id="g294396" />
      <g
         id="g294398" />
      <g
         id="g294400" />
      <g
         id="g294402" />
      <g
         id="g294404" />
      <g
         id="g294406" />
      <g
         id="g294408" />
      <g
         id="g294410" />
      <g
         id="g294412" />
      <g
         id="g294414" />
      <g
         id="g294416" />
      <g
         id="g294418" />
      <g
         id="g294420" />
      <g
         id="g294422" />
    </g>
  </g>
</svg>
