<?xml version="1.0" encoding="UTF-8" standalone="no"?>
<!-- Created with Inkscape (http://www.inkscape.org/) -->

<svg
   xmlns:dc="http://purl.org/dc/elements/1.1/"
   xmlns:cc="http://creativecommons.org/ns#"
   xmlns:rdf="http://www.w3.org/1999/02/22-rdf-syntax-ns#"
   xmlns:svg="http://www.w3.org/2000/svg"
   xmlns="http://www.w3.org/2000/svg"
   xmlns:sodipodi="http://sodipodi.sourceforge.net/DTD/sodipodi-0.dtd"
   xmlns:inkscape="http://www.inkscape.org/namespaces/inkscape"
   sodipodi:docname="ufu_servicos_sus.svg"
   inkscape:version="0.91 r13725"
   version="1.1"
   id="svg5354"
   viewBox="0 0 220 220"
   height="220"
   width="220">
  <sodipodi:namedview
     inkscape:window-maximized="1"
     inkscape:window-y="-8"
     inkscape:window-x="-8"
     inkscape:window-height="847"
     inkscape:window-width="1440"
     units="px"
     showgrid="false"
     inkscape:current-layer="layer1"
     inkscape:document-units="px"
     inkscape:cy="110"
     inkscape:cx="110"
     inkscape:zoom="2.9590909"
     inkscape:pageshadow="2"
     inkscape:pageopacity="0.0"
     borderopacity="1.0"
     bordercolor="#666666"
     pagecolor="#ffffff"
     id="base" />
  <defs
     id="defs5356" />
  <metadata
     id="metadata5359">
    <rdf:RDF>
      <cc:Work
         rdf:about="">
        <dc:format>image/svg+xml</dc:format>
        <dc:type
           rdf:resource="http://purl.org/dc/dcmitype/StillImage" />
        <dc:title></dc:title>
      </cc:Work>
    </rdf:RDF>
  </metadata>
  <g
     transform="translate(0,-832.36213)"
     id="layer1"
     inkscape:groupmode="layer"
     inkscape:label="Camada 1">
    <path
       style="color:#000000;clip-rule:nonzero;display:inline;overflow:visible;visibility:visible;opacity:1;isolation:auto;mix-blend-mode:normal;color-interpolation:sRGB;color-interpolation-filters:linearRGB;solid-color:#000000;solid-opacity:1;fill:#ffffff;fill-opacity:1;fill-rule:nonzero;stroke:none;stroke-width:5;stroke-linecap:square;stroke-linejoin:miter;stroke-miterlimit:4;stroke-dasharray:none;stroke-dashoffset:0;stroke-opacity:1;color-rendering:auto;image-rendering:auto;shape-rendering:auto;text-rendering:auto;enable-background:accumulate"
       d="M 0 0 L 0 220 L 220 220 L 220 0 L 0 0 z M 92.339844 30.001953 L 109.74023 30.001953 L 127.13672 30.001953 L 127.13672 46.263672 L 127.13672 62.527344 L 109.74023 62.527344 L 92.339844 62.527344 L 92.339844 46.263672 L 92.339844 30.001953 z M 163.16016 66.025391 L 163.16016 82.898438 L 163.16016 99.773438 L 142.56836 99.773438 L 121.97852 99.773438 L 113.74609 91.859375 L 113.74609 91.857422 C 109.21799 87.506032 101.7506 80.328347 97.150391 75.904297 L 88.785156 67.861328 L 87.544922 67.746094 C 86.863429 67.682844 84.694281 67.540628 82.722656 67.429688 C 78.724258 67.204687 72.707606 66.670138 70.042969 66.304688 C 68.53225 66.097467 74.746322 66.060769 115.72656 66.042969 L 163.16016 66.025391 z M 56.839844 67.763672 L 57.236328 67.853516 C 57.779155 67.976856 61.948615 68.563051 65.322266 68.988281 C 71.012396 69.705451 78.911899 70.407842 84.208984 70.669922 L 86.480469 70.783203 L 89.279297 73.53125 C 90.818176 75.04197 94.5565 78.66932 97.585938 81.59375 C 103.81495 87.60663 113.43666 96.930154 116.51367 99.933594 C 117.96146 101.34671 118.56836 102.05802 118.56836 102.3418 L 118.56836 102.74609 L 112.23047 102.71094 C 108.74512 102.69184 105.26478 102.65341 104.49414 102.62891 L 104.49219 102.62891 C 90.138034 102.15301 74.993396 100.91354 59.291016 98.929688 L 56.929688 98.630859 L 56.884766 83.197266 L 56.839844 67.763672 z M 126.63281 103.46484 C 126.88731 103.46774 127.05377 103.47935 127.07227 103.49805 C 127.10957 103.53539 127.11935 108.90825 127.09375 115.43945 C 127.06815 121.97065 127.02936 127.11195 127.00586 126.86523 C 126.26655 119.05844 125.90125 114.20276 125.58008 107.94922 L 125.41797 104.84961 L 124.875 104.19141 L 124.33203 103.53125 L 125.66797 103.48047 C 126.03565 103.46577 126.37831 103.46184 126.63281 103.46484 z M 89.621094 104.88086 C 89.656294 104.84566 90.97145 104.89888 92.542969 105 C 101.13369 105.55371 114.12971 105.67186 120.77344 105.25586 L 122.53711 105.14648 L 122.6582 107.83594 C 122.93532 113.97962 123.60183 121.90728 124.5293 130.10938 C 124.82295 132.70606 125.10711 135.24504 125.16211 135.75 L 125.26172 136.66797 L 108.80273 136.66797 C 99.748764 136.66797 92.339844 136.63716 92.339844 136.59766 C 92.339844 136.55819 92.069481 134.3756 91.738281 131.74609 C 91.086549 126.57137 90.364212 119.30963 90.072266 114.98633 C 89.824479 111.31646 89.540984 104.96086 89.621094 104.88086 z M 78.041016 147.33203 L 86.585938 147.33203 L 86.585938 149.9375 L 86.585938 152.53906 L 80.871094 152.53906 C 74.469956 152.53906 73.808312 152.67551 72.773438 154.12891 C 72.137388 155.02211 71.913653 156.9653 72.330078 157.9707 C 72.834075 159.1873 73.744835 159.68273 78.148438 161.14453 C 83.484408 162.91573 84.55986 163.45319 86.205078 165.17969 C 88.652423 167.7479 89.93732 171.69024 89.681641 175.83594 C 89.536682 178.18624 89.220198 179.42013 88.279297 181.29883 C 86.955784 183.94143 84.931905 185.97131 82.306641 187.28711 C 79.765426 188.56081 79.506632 188.5895 69.554688 188.6875 L 60.333984 188.7793 L 60.333984 185.72461 L 60.333984 182.66992 L 67.707031 182.65625 C 75.844267 182.64025 76.037729 182.60941 77.230469 181.19531 C 78.181823 180.06711 78.495684 179.08239 78.396484 177.52539 C 78.295152 175.92459 77.679137 174.81715 76.402344 173.93945 C 75.952426 173.63025 73.701859 172.83827 71.195312 172.10938 C 68.768019 171.40348 66.182688 170.51085 65.451172 170.12305 C 63.664943 169.17645 61.724225 167.18272 60.714844 165.26172 C 56.965105 158.12592 60.624615 149.70077 68.367188 147.63867 C 69.214969 147.41247 71.646917 147.33398 78.041016 147.33398 L 78.041016 147.33203 z M 148.88086 147.33398 L 157.42578 147.33398 L 157.42578 149.93555 L 157.42578 152.54102 L 151.71094 152.54102 C 145.30969 152.54102 144.64815 152.67355 143.61328 154.12695 C 142.97723 155.02015 142.75156 156.96355 143.16797 157.96875 C 143.6724 159.18675 144.58329 159.68418 148.98828 161.14258 C 151.32683 161.91688 153.93196 162.91031 154.7793 163.34961 C 158.27561 165.16231 160.41035 169.03094 160.73633 174.14844 C 160.99327 178.18364 159.66127 181.76775 156.86523 184.56445 C 155.02183 186.40805 153.87625 187.12765 151.40234 187.99805 L 149.61719 188.62695 L 140.39453 188.70312 L 131.16992 188.77734 L 131.16992 185.71875 L 131.16992 182.6582 L 138.58398 182.64453 L 145.99609 182.62891 L 147.00391 182.00781 C 149.47654 180.48331 150.03313 176.62114 148.08008 174.52734 C 147.30665 173.69824 146.28943 173.27789 142.26172 172.11719 C 137.78271 170.82659 136.64141 170.39403 135.32227 169.48633 C 130.19387 165.95792 128.52587 159.09284 131.45898 153.58984 C 132.43593 151.75684 134.65753 149.57351 136.44141 148.69531 C 139.10924 147.38181 139.53211 147.33398 148.88086 147.33398 z M 93.832031 147.55859 L 99.933594 147.55859 L 106.03516 147.55859 L 106.10156 162.77734 C 106.17516 179.88345 106.05625 178.7287 107.91992 180.75 C 109.35064 182.3023 110.752 182.92496 113.06836 183.03906 C 114.63955 183.11696 115.22776 183.05024 116.27148 182.65234 C 117.96247 182.01474 119.45907 180.66315 120.24414 179.06445 L 120.87695 177.77148 L 120.94141 162.66406 L 121.00586 147.55859 L 123.82617 147.55859 L 126.64844 147.55859 L 126.64844 162.23242 C 126.64844 176.10563 126.62367 177.00365 126.20117 178.65625 C 125.44149 181.62635 123.75984 184.2196 121.2168 186.3418 C 119.86941 187.4662 116.49281 189.1015 114.63672 189.5293 C 112.6938 189.977 109.70382 190.1296 107.87695 189.875 L 107.875 189.875 C 102.16719 189.0797 97.4252 185.90286 95.197266 181.38086 C 93.84314 178.63226 93.835731 178.51583 93.832031 162.32422 L 93.832031 147.55859 z "
       transform="translate(0,832.36213)"
       id="rect7181" />
    <g
       transform="matrix(0.24744768,0,0,0.24744768,24.12566,862.36243)"
       id="g5972">
      <g
         id="g5905">
        <g
           id="_x31_5_38_">
          <g
             id="g5908" />
        </g>
      </g>
      <g
         id="g5936" />
      <g
         id="g5938" />
      <g
         id="g5940" />
      <g
         id="g5942" />
      <g
         id="g5944" />
      <g
         id="g5946" />
      <g
         id="g5948" />
      <g
         id="g5950" />
      <g
         id="g5952" />
      <g
         id="g5954" />
      <g
         id="g5956" />
      <g
         id="g5958" />
      <g
         id="g5960" />
      <g
         id="g5962" />
      <g
         id="g5964" />
    </g>
    <g
       transform="matrix(0.09398474,0,0,0.09398474,140.524,980.12437)"
       id="g6052">
      <g
         id="g6006">
        <g
           id="g6008" />
      </g>
      <g
         id="g6016" />
      <g
         id="g6018" />
      <g
         id="g6020" />
      <g
         id="g6022" />
      <g
         id="g6024" />
      <g
         id="g6026" />
      <g
         id="g6028" />
      <g
         id="g6030" />
      <g
         id="g6032" />
      <g
         id="g6034" />
      <g
         id="g6036" />
      <g
         id="g6038" />
      <g
         id="g6040" />
      <g
         id="g6042" />
      <g
         id="g6044" />
    </g>
    <g
       id="g6148"
       transform="matrix(0.24744768,0,0,0.24744768,-235.41351,862.36243)">
      <g
         id="g6150">
        <g
           id="g6152">
          <g
             id="g6154" />
        </g>
      </g>
      <g
         id="g6182" />
      <g
         id="g6184" />
      <g
         id="g6186" />
      <g
         id="g6188" />
      <g
         id="g6190" />
      <g
         id="g6192" />
      <g
         id="g6194" />
      <g
         id="g6196" />
      <g
         id="g6198" />
      <g
         id="g6200" />
      <g
         id="g6202" />
      <g
         id="g6204" />
      <g
         id="g6206" />
      <g
         id="g6208" />
      <g
         id="g6210" />
    </g>
    <g
       transform="matrix(0.24744768,0,0,0.24744768,-496.35872,862.36243)"
       id="g6268">
      <g
         id="g6270">
        <g
           id="g6272">
          <g
             id="g6274" />
        </g>
      </g>
      <g
         id="g6302" />
      <g
         id="g6304" />
      <g
         id="g6306" />
      <g
         id="g6308" />
      <g
         id="g6310" />
      <g
         id="g6312" />
      <g
         id="g6314" />
      <g
         id="g6316" />
      <g
         id="g6318" />
      <g
         id="g6320" />
      <g
         id="g6322" />
      <g
         id="g6324" />
      <g
         id="g6326" />
      <g
         id="g6328" />
      <g
         id="g6330" />
    </g>
    <g
       transform="matrix(0.83333333,0,0,0.83333333,-372.72273,987.36213)"
       id="g6383">
      <g
         id="g6341">
        <g
           id="g6343" />
      </g>
      <g
         id="g6347" />
      <g
         id="g6349" />
      <g
         id="g6351" />
      <g
         id="g6353" />
      <g
         id="g6355" />
      <g
         id="g6357" />
      <g
         id="g6359" />
      <g
         id="g6361" />
      <g
         id="g6363" />
      <g
         id="g6365" />
      <g
         id="g6367" />
      <g
         id="g6369" />
      <g
         id="g6371" />
      <g
         id="g6373" />
      <g
         id="g6375" />
    </g>
    <g
       transform="matrix(0.29296874,0,0,0.29296874,-678.08878,604.88221)"
       id="g4276">
      <g
         id="g4236" />
      <g
         id="g4240" />
      <g
         id="g4242" />
      <g
         id="g4244" />
      <g
         id="g4246" />
      <g
         id="g4248" />
      <g
         id="g4250" />
      <g
         id="g4252" />
      <g
         id="g4254" />
      <g
         id="g4256" />
      <g
         id="g4258" />
      <g
         id="g4260" />
      <g
         id="g4262" />
      <g
         id="g4264" />
      <g
         id="g4266" />
      <g
         id="g4268" />
    </g>
    <g
       style="fill:#00ff00"
       transform="matrix(0.21739083,0,0,0.21739083,-711.80524,597.1725)"
       id="g4342">
      <g
         style="fill:#00ff00"
         id="g4296">
        <g
           style="fill:#00ff00"
           id="g4298" />
      </g>
      <g
         style="fill:#00ff00"
         id="g4306" />
      <g
         style="fill:#00ff00"
         id="g4308" />
      <g
         style="fill:#00ff00"
         id="g4310" />
      <g
         style="fill:#00ff00"
         id="g4312" />
      <g
         style="fill:#00ff00"
         id="g4314" />
      <g
         style="fill:#00ff00"
         id="g4316" />
      <g
         style="fill:#00ff00"
         id="g4318" />
      <g
         style="fill:#00ff00"
         id="g4320" />
      <g
         style="fill:#00ff00"
         id="g4322" />
      <g
         style="fill:#00ff00"
         id="g4324" />
      <g
         style="fill:#00ff00"
         id="g4326" />
      <g
         style="fill:#00ff00"
         id="g4328" />
      <g
         style="fill:#00ff00"
         id="g4330" />
      <g
         style="fill:#00ff00"
         id="g4332" />
      <g
         style="fill:#00ff00"
         id="g4334" />
    </g>
    <g
       transform="translate(71.380022,907.45957)"
       id="g4424">
      <g
         id="g4370">
        <g
           id="g4372" />
      </g>
      <g
         id="g4388" />
      <g
         id="g4390" />
      <g
         id="g4392" />
      <g
         id="g4394" />
      <g
         id="g4396" />
      <g
         id="g4398" />
      <g
         id="g4400" />
      <g
         id="g4402" />
      <g
         id="g4404" />
      <g
         id="g4406" />
      <g
         id="g4408" />
      <g
         id="g4410" />
      <g
         id="g4412" />
      <g
         id="g4414" />
      <g
         id="g4416" />
    </g>
    <g
       style="fill:#000000"
       inkscape:label="Camada 1"
       id="layer1-7"
       transform="matrix(0.17729023,0,0,0.17729023,169.01022,812.13891)">
      <g
         style="fill:#000000"
         transform="matrix(1.8390805,0,0,1.8390805,29.999991,-913.01664)"
         id="layer1-6"
         inkscape:label="Camada 1">
        <text
           sodipodi:linespacing="125%"
           id="text3356"
           y="1073.4818"
           x="933.04791"
           style="font-style:normal;font-variant:normal;font-weight:normal;font-stretch:normal;font-size:15px;line-height:125%;font-family:'Open Sans';-inkscape-font-specification:'Open Sans, Normal';text-align:start;letter-spacing:0px;word-spacing:0px;writing-mode:lr-tb;text-anchor:start;fill:#000000;fill-opacity:1;stroke:none;stroke-width:1px;stroke-linecap:butt;stroke-linejoin:miter;stroke-opacity:1"
           xml:space="preserve"><tspan
             y="1073.4818"
             x="933.04791"
             id="tspan3358"
             sodipodi:role="line" /></text>
      </g>
    </g>
    <g
       id="g6483"
       transform="matrix(0.26146732,0,0,0.26146732,30.000001,862.36215)">
      <g
         id="g6443" />
      <g
         id="g6447" />
      <g
         id="g6449" />
      <g
         id="g6451" />
      <g
         id="g6453" />
      <g
         id="g6455" />
      <g
         id="g6457" />
      <g
         id="g6459" />
      <g
         id="g6461" />
      <g
         id="g6463" />
      <g
         id="g6465" />
      <g
         id="g6467" />
      <g
         id="g6469" />
      <g
         id="g6471" />
      <g
         id="g6473" />
      <g
         id="g6475" />
    </g>
    <g
       id="g6544"
       transform="matrix(2.6666667,0,0,2.6666667,29.999999,862.36213)">
      <g
         id="g6508" />
      <g
         id="g6510" />
      <g
         id="g6512" />
      <g
         id="g6514" />
      <g
         id="g6516" />
      <g
         id="g6518" />
      <g
         id="g6520" />
      <g
         id="g6522" />
      <g
         id="g6524" />
      <g
         id="g6526" />
      <g
         id="g6528" />
      <g
         id="g6530" />
      <g
         id="g6532" />
      <g
         id="g6534" />
      <g
         id="g6536" />
    </g>
    <g
       id="g6610"
       transform="matrix(0.33898305,0,0,0.33898305,30,862.36213)">
      <g
         id="g6566">
        <g
           id="g6568" />
      </g>
      <g
         id="g6574" />
      <g
         id="g6576" />
      <g
         id="g6578" />
      <g
         id="g6580" />
      <g
         id="g6582" />
      <g
         id="g6584" />
      <g
         id="g6586" />
      <g
         id="g6588" />
      <g
         id="g6590" />
      <g
         id="g6592" />
      <g
         id="g6594" />
      <g
         id="g6596" />
      <g
         id="g6598" />
      <g
         id="g6600" />
      <g
         id="g6602" />
    </g>
    <g
       id="g6748"
       transform="matrix(0.31249939,0,0,0.31249939,29.999687,862.36213)">
      <g
         id="g6634">
        <g
           id="g6636" />
      </g>
      <g
         id="g6640">
        <g
           id="g6642" />
      </g>
      <g
         id="g6646">
        <g
           id="g6648" />
      </g>
      <g
         id="g6652">
        <g
           id="g6654" />
      </g>
      <g
         id="g6658">
        <g
           id="g6660" />
      </g>
      <g
         id="g6664">
        <g
           id="g6666" />
      </g>
      <g
         id="g6670">
        <g
           id="g6672" />
      </g>
      <g
         id="g6676">
        <g
           id="g6678" />
      </g>
      <g
         id="g6682">
        <g
           id="g6684" />
      </g>
      <g
         id="g6688">
        <g
           id="g6690" />
      </g>
      <g
         id="g6694">
        <g
           id="g6696" />
      </g>
      <g
         id="g6700">
        <g
           id="g6702" />
      </g>
      <g
         id="g6706">
        <g
           id="g6708" />
      </g>
      <g
         id="g6712" />
      <g
         id="g6714" />
      <g
         id="g6716" />
      <g
         id="g6718" />
      <g
         id="g6720" />
      <g
         id="g6722" />
      <g
         id="g6724" />
      <g
         id="g6726" />
      <g
         id="g6728" />
      <g
         id="g6730" />
      <g
         id="g6732" />
      <g
         id="g6734" />
      <g
         id="g6736" />
      <g
         id="g6738" />
      <g
         id="g6740" />
    </g>
    <g
       id="g6849"
       transform="translate(-95.032377,919.0632)">
      <g
         id="g6807" />
      <g
         id="g6813" />
      <g
         id="g6815" />
      <g
         id="g6817" />
      <g
         id="g6819" />
      <g
         id="g6821" />
      <g
         id="g6823" />
      <g
         id="g6825" />
      <g
         id="g6827" />
      <g
         id="g6829" />
      <g
         id="g6831" />
      <g
         id="g6833" />
      <g
         id="g6835" />
      <g
         id="g6837" />
      <g
         id="g6839" />
      <g
         id="g6841" />
    </g>
  </g>
</svg>
