<?xml version="1.0" encoding="UTF-8" standalone="no"?>
<!-- Created with Inkscape (http://www.inkscape.org/) -->

<svg
   xmlns:dc="http://purl.org/dc/elements/1.1/"
   xmlns:cc="http://creativecommons.org/ns#"
   xmlns:rdf="http://www.w3.org/1999/02/22-rdf-syntax-ns#"
   xmlns:svg="http://www.w3.org/2000/svg"
   xmlns="http://www.w3.org/2000/svg"
   xmlns:sodipodi="http://sodipodi.sourceforge.net/DTD/sodipodi-0.dtd"
   xmlns:inkscape="http://www.inkscape.org/namespaces/inkscape"
   width="62.08889mm"
   height="62.08889mm"
   viewBox="0 0 220 220"
   id="svg7574"
   version="1.1"
   inkscape:version="0.91 r13725"
   sodipodi:docname="ufu_calendario_eseba.svg">
  <defs
     id="defs7576" />
  <sodipodi:namedview
     id="base"
     pagecolor="#ffffff"
     bordercolor="#666666"
     borderopacity="1.0"
     inkscape:pageopacity="0.0"
     inkscape:pageshadow="2"
     inkscape:zoom="0.91738281"
     inkscape:cx="41.346602"
     inkscape:cy="72.980625"
     inkscape:document-units="px"
     inkscape:current-layer="layer1"
     showgrid="false"
     fit-margin-top="0"
     fit-margin-left="0"
     fit-margin-right="0"
     fit-margin-bottom="0"
     inkscape:window-width="1600"
     inkscape:window-height="847"
     inkscape:window-x="1432"
     inkscape:window-y="-8"
     inkscape:window-maximized="1" />
  <metadata
     id="metadata7579">
    <rdf:RDF>
      <cc:Work
         rdf:about="">
        <dc:format>image/svg+xml</dc:format>
        <dc:type
           rdf:resource="http://purl.org/dc/dcmitype/StillImage" />
        <dc:title></dc:title>
      </cc:Work>
    </rdf:RDF>
  </metadata>
  <g
     inkscape:label="Camada 1"
     inkscape:groupmode="layer"
     id="layer1"
     transform="translate(-176.68512,-385.34283)">
    <path
       inkscape:connector-curvature="0"
       style="color:#000000;clip-rule:nonzero;display:inline;overflow:visible;visibility:visible;opacity:1;isolation:auto;mix-blend-mode:normal;color-interpolation:sRGB;color-interpolation-filters:linearRGB;solid-color:#000000;solid-opacity:1;fill:#ffffff;fill-opacity:1;fill-rule:nonzero;stroke:none;stroke-width:5;stroke-linecap:square;stroke-linejoin:miter;stroke-miterlimit:4;stroke-dasharray:none;stroke-dashoffset:0;stroke-opacity:1;color-rendering:auto;image-rendering:auto;shape-rendering:auto;text-rendering:auto;enable-background:accumulate"
       d="m 176.68512,385.34283 0,220 220,0 0,-220 -220,0 z m 114.04102,31.0625 1.7168,0 c 2.60884,0 4.72461,2.11456 4.72461,4.72266 l 0,3.75586 0,14.15625 c 0,2.60859 -2.11577,4.72461 -4.72461,4.72461 l -1.7168,0 c -2.60884,0 -4.72411,-2.11577 -4.72461,-4.72461 l 0,-14.15625 0,-3.75586 c 0,-2.6081 2.11527,-4.72266 4.72461,-4.72266 z m -60.5918,0.11523 1.7168,0 c 2.60909,0 4.72461,2.11627 4.72461,4.72461 l 0,4.87696 0,13.03515 c 0,2.60835 -2.11552,4.72461 -4.72461,4.72461 l -1.7168,0 c -2.60884,0 -4.72265,-2.11626 -4.72265,-4.72461 l 0,-13.03515 0,-4.87696 c 0,-2.60834 2.11381,-4.72461 4.72265,-4.72461 z m -21.64453,9.60157 13.08203,0 0,13.03515 c 0,4.7223 3.84046,8.56446 8.5625,8.56446 l 1.7168,0 c 4.72229,0 8.56445,-3.84216 8.56445,-8.56446 l 0,-13.03515 41.74805,0 0,12.91797 c 0,4.72229 3.84021,8.56445 8.5625,8.56445 l 1.7168,0 c 4.72179,0 8.56445,-2.60388 8.56445,-7.32617 l 0,-14.15625 12.12305,0 c 4.23457,0 7.68018,3.44511 7.67968,7.67968 l 0,92.80079 c 1e-5,4.23482 -3.44511,7.67968 -7.67968,7.67968 l -104.64063,0 c -4.23457,0 -7.67969,-3.44486 -7.67969,-7.67968 l 0,-92.80079 c 10e-6,-4.23481 3.44512,-7.67968 7.67969,-7.67968 z m 0,30.39843 0.002,70.08204 104.63867,0 c 0.004,0 0.005,-0.002 0.006,-0.002 l -0.004,-70.08008 -104.64258,0 z m 56.28516,9.5879 13.79101,0 c 0.54662,0 0.98829,0.44362 0.98829,0.99023 l 0,11.93945 c 0,0.54661 -0.44167,0.99024 -0.98829,0.99024 l -13.79101,0 c -0.54661,0 -0.98828,-0.44363 -0.98828,-0.99024 l 0,-11.93945 c 0,-0.54661 0.44167,-0.99023 0.98828,-0.99023 z m 22.50391,0 13.79101,0 c 0.54661,0 0.98828,0.44362 0.98828,0.99023 l 0,11.93945 c 0,0.54661 -0.44167,0.99024 -0.98828,0.99024 l -13.79101,0 c -0.54662,0 -0.98829,-0.44363 -0.98829,-0.99024 l 0,-11.93945 c 0,-0.54661 0.44167,-0.99023 0.98829,-0.99023 z m -67.51172,19.54882 13.79101,0 c 0.54661,0 0.98828,0.44167 0.98828,0.98828 l 0,11.94141 c 0,0.54661 -0.44167,0.99024 -0.98828,0.99024 l -13.79101,0 c -0.54662,-10e-6 -0.98828,-0.44363 -0.98828,-0.99024 l 0,-11.94141 c -10e-6,-0.54661 0.44166,-0.98828 0.98828,-0.98828 z m 22.5039,0 13.79102,0 c 0.54661,0 0.98828,0.44167 0.98828,0.98828 l 0,11.94141 c 0,0.54661 -0.44167,0.99024 -0.98828,0.99024 l -13.79102,0 c -0.54661,-10e-6 -0.98828,-0.44363 -0.98828,-0.99024 l 0,-11.94141 c 0,-0.54661 0.44167,-0.98828 0.98828,-0.98828 z m 22.50391,0 13.79101,0 c 0.54662,0 0.98829,0.44167 0.98829,0.98828 l 0,11.94141 c 0,0.54661 -0.44167,0.99024 -0.98829,0.99024 l -13.79101,0 c -0.54661,-10e-6 -0.98828,-0.44363 -0.98828,-0.99024 l 0,-11.94141 c 0,-0.54661 0.44167,-0.98828 0.98828,-0.98828 z m 22.50391,0 13.79101,0 c 0.54661,0 0.98828,0.44167 0.98828,0.98828 l 0,11.94141 c 0,0.54661 -0.44167,0.99024 -0.98828,0.99024 l -13.79101,0 c -0.54662,-10e-6 -0.98829,-0.44363 -0.98829,-0.99024 l 0,-11.94141 c 0,-0.54661 0.44167,-0.98828 0.98829,-0.98828 z m -67.50977,19.54688 13.78906,0 c 0.54661,0 0.98804,0.44362 0.98828,0.99023 l 0,11.94141 c 0,0.54661 -0.44167,0.99023 -0.98828,0.99023 l -13.78906,0 c -0.54661,0 -0.99023,-0.44362 -0.99023,-0.99023 l 0,-11.94141 c -10e-6,-0.54661 0.44362,-0.99023 0.99023,-0.99023 z m 22.50391,0 13.78906,0 c 0.54661,0 0.98828,0.44362 0.98828,0.99023 l 0,11.94141 c 0,0.54661 -0.44167,0.99023 -0.98828,0.99023 l -13.78906,0 c -0.54662,0 -0.99024,-0.44362 -0.99024,-0.99023 l 0,-11.94141 c 0,-0.54661 0.44362,-0.99023 0.99024,-0.99023 z m 22.5039,0 13.78906,0 c 0.54662,0 0.99024,0.44362 0.99024,0.99023 l 0,11.94141 c 0,0.54661 -0.44362,0.99023 -0.99024,0.99023 l -13.78906,0 c -0.54661,0 -0.99023,-0.44362 -0.99023,-0.99023 l 0,-11.94141 c 0,-0.54661 0.44362,-0.99023 0.99023,-0.99023 z m 22.50196,0 13.79101,0 c 0.54661,0 0.98828,0.44362 0.98828,0.99023 l 0,11.94141 c 0,0.54661 -0.44167,0.99023 -0.98828,0.99023 l -13.79101,0 c -0.54662,0 -0.98829,-0.44362 -0.98829,-0.99023 l 0,-11.94141 c 0,-0.54661 0.44167,-0.99023 0.98829,-0.99023 z m 29.19921,58.47265 c 2.02149,0 3.54248,0.44385 4.56055,1.33008 1.02539,0.88623 1.56397,2.06739 1.61524,3.54688 l -3.25196,0.14453 c -0.13916,-0.82764 -0.44092,-1.42236 -0.90234,-1.78125 -0.4541,-0.36621 -1.13916,-0.54883 -2.05469,-0.54883 -0.94482,0 -1.68408,0.19385 -2.21875,0.58203 -0.34424,0.24903 -0.51562,0.58252 -0.51562,1 0,0.38086 0.16015,0.70752 0.48242,0.97852 0.41015,0.34424 1.40625,0.70263 2.98828,1.07617 1.58203,0.37353 2.75146,0.76123 3.50586,1.16406 0.76172,0.39551 1.35449,0.94092 1.7793,1.63672 0.43211,0.68848 0.64843,1.54248 0.64843,2.56055 0,0.92285 -0.25683,1.78613 -0.76953,2.59179 -0.51269,0.80567 -1.23828,1.40723 -2.17578,1.80274 -0.9375,0.38818 -2.10498,0.58203 -3.50391,0.58203 -2.03613,0 -3.60009,-0.46875 -4.6914,-1.40625 -1.09131,-0.94482 -1.74268,-2.31738 -1.95508,-4.11914 l 3.16406,-0.30859 c 0.19043,1.06201 0.57373,1.84179 1.15235,2.33984 0.58593,0.49805 1.37451,0.74805 2.36328,0.74805 1.04736,0 1.83399,-0.22071 2.36132,-0.66016 0.53467,-0.44678 0.80274,-0.96533 0.80274,-1.55859 0,-0.38086 -0.11475,-0.70313 -0.3418,-0.9668 -0.21972,-0.271 -0.60742,-0.50537 -1.16406,-0.70313 -0.38086,-0.13183 -1.24854,-0.36621 -2.60352,-0.70312 -1.74316,-0.43213 -2.96679,-0.96387 -3.66992,-1.59375 -0.98877,-0.88623 -1.48242,-1.96582 -1.48242,-3.24024 0,-0.8203 0.22998,-1.58642 0.69141,-2.29687 0.46875,-0.71777 1.14013,-1.26318 2.01172,-1.63672 0.8789,-0.37353 1.93603,-0.56055 3.17382,-0.56055 z m -20.66406,0.2754 11.94141,0 0,2.7246 -8.68946,0 0,3.57032 8.08594,0 0,2.71289 -8.08594,0 0,4.38281 8.99805,0 0,2.71484 -12.25,0 0,-16.10546 z m 30.05859,0 11.94141,0 0,2.7246 -8.68945,0 0,3.57032 8.08594,0 0,2.71289 -8.08594,0 0,4.38281 8.99804,0 0,2.71484 -12.25,0 0,-16.10546 z m 15.03907,0 6.43945,0 c 1.27441,0 2.22119,0.0542 2.84375,0.16406 0.62988,0.10254 1.19092,0.32129 1.68164,0.6582 0.49805,0.33691 0.9126,0.7876 1.24219,1.35156 0.32959,0.55664 0.49414,1.18311 0.49414,1.87891 0,0.75439 -0.20508,1.44629 -0.61524,2.07617 -0.40282,0.62988 -0.95263,1.10303 -1.64843,1.41797 0.98144,0.28564 1.73633,0.77246 2.26367,1.46094 0.52734,0.68847 0.79102,1.49756 0.79102,2.42773 0,0.73242 -0.17334,1.44678 -0.51758,2.14258 -0.33692,0.68848 -0.80127,1.24072 -1.39453,1.6582 -0.58594,0.41016 -1.31153,0.66455 -2.17579,0.75977 -0.54199,0.0586 -1.84912,0.0947 -3.92187,0.10937 l -5.48242,0 0,-16.10546 z m 20.88476,0 3.43946,0 6.44921,16.10546 -3.5371,0 -1.40625,-3.6582 -6.43946,0 -1.32812,3.6582 -3.44922,0 6.27148,-16.10546 z m -17.63281,2.67968 0,3.72461 2.13281,0 c 1.26709,0 2.05371,-0.0181 2.36133,-0.0547 0.55664,-0.0659 0.9917,-0.25732 1.30664,-0.57226 0.32227,-0.32227 0.48438,-0.74365 0.48438,-1.26367 0,-0.49805 -0.13965,-0.89942 -0.41797,-1.20703 -0.271,-0.31495 -0.67676,-0.50635 -1.21875,-0.57227 -0.32227,-0.0366 -1.24854,-0.0547 -2.7793,-0.0547 l -1.86914,0 z m 19.31445,1.07617 -2.17578,5.97657 4.39453,0 -2.21875,-5.97657 z m -19.31445,5.32813 0,4.30664 3.01172,0 c 1.17187,0 1.91357,-0.0317 2.22852,-0.0977 0.48338,-0.0879 0.87548,-0.2998 1.17578,-0.63672 0.30761,-0.34422 0.46289,-0.80371 0.46289,-1.375 0,-0.48338 -0.11719,-0.89355 -0.35157,-1.23046 -0.23437,-0.33692 -0.57666,-0.58057 -1.02343,-0.73438 -0.43946,-0.15381 -1.39746,-0.23242 -2.87696,-0.23242 l -2.62695,0 z"
       id="rect6266" />
  </g>
</svg>
