<?xml version="1.0" encoding="UTF-8" standalone="no"?>
<!-- Created with Inkscape (http://www.inkscape.org/) -->

<svg
   xmlns:dc="http://purl.org/dc/elements/1.1/"
   xmlns:cc="http://creativecommons.org/ns#"
   xmlns:rdf="http://www.w3.org/1999/02/22-rdf-syntax-ns#"
   xmlns:svg="http://www.w3.org/2000/svg"
   xmlns="http://www.w3.org/2000/svg"
   xmlns:sodipodi="http://sodipodi.sourceforge.net/DTD/sodipodi-0.dtd"
   xmlns:inkscape="http://www.inkscape.org/namespaces/inkscape"
   width="220"
   height="220"
   viewBox="0 0 220 220"
   id="svg2"
   version="1.1"
   inkscape:version="0.91 r13725"
   sodipodi:docname="ufu_concessoes.svg">
  <defs
     id="defs4">
    <pattern
       id="EMFhbasepattern"
       patternUnits="userSpaceOnUse"
       width="6"
       height="6"
       x="0"
       y="0" />
  </defs>
  <sodipodi:namedview
     id="base"
     pagecolor="#ffffff"
     bordercolor="#666666"
     borderopacity="1.0"
     inkscape:pageopacity="0.0"
     inkscape:pageshadow="2"
     inkscape:zoom="2.9590909"
     inkscape:cx="110"
     inkscape:cy="110"
     inkscape:document-units="px"
     inkscape:current-layer="layer1-40"
     showgrid="false"
     units="px"
     inkscape:window-width="1440"
     inkscape:window-height="847"
     inkscape:window-x="-8"
     inkscape:window-y="-8"
     inkscape:window-maximized="1" />
  <metadata
     id="metadata7">
    <rdf:RDF>
      <cc:Work
         rdf:about="">
        <dc:format>image/svg+xml</dc:format>
        <dc:type
           rdf:resource="http://purl.org/dc/dcmitype/StillImage" />
        <dc:title></dc:title>
      </cc:Work>
    </rdf:RDF>
  </metadata>
  <g
     inkscape:label="Camada 1"
     inkscape:groupmode="layer"
     id="layer1"
     transform="translate(0,-832.36216)">
    <g
       id="g4185"
       transform="matrix(0.31054775,0,0,0.31054775,20.000001,852.36216)">
      <g
         id="g4139">
        <g
           id="g4141" />
      </g>
      <g
         id="g4149" />
      <g
         id="g4151" />
      <g
         id="g4153" />
      <g
         id="g4155" />
      <g
         id="g4157" />
      <g
         id="g4159" />
      <g
         id="g4161" />
      <g
         id="g4163" />
      <g
         id="g4165" />
      <g
         id="g4167" />
      <g
         id="g4169" />
      <g
         id="g4171" />
      <g
         id="g4173" />
      <g
         id="g4175" />
      <g
         id="g4177" />
    </g>
    <g
       id="g5587"
       transform="matrix(0.36372527,0,0,0.36372527,19.999788,852.36216)">
      <g
         id="XMLID_211_" />
      <g
         id="g5551" />
      <g
         id="g5553" />
      <g
         id="g5555" />
      <g
         id="g5557" />
      <g
         id="g5559" />
      <g
         id="g5561" />
      <g
         id="g5563" />
      <g
         id="g5565" />
      <g
         id="g5567" />
      <g
         id="g5569" />
      <g
         id="g5571" />
      <g
         id="g5573" />
      <g
         id="g5575" />
      <g
         id="g5577" />
      <g
         id="g5579" />
    </g>
    <g
       transform="matrix(0.35333693,-0.13569772,0.13569772,0.35333693,-98.886859,488.84759)"
       id="layer1-4"
       inkscape:label="Camada 1"
       style="fill:#ffffff">
      <text
         sodipodi:linespacing="125%"
         id="text3356"
         y="1073.4818"
         x="933.04791"
         style="font-style:normal;font-variant:normal;font-weight:normal;font-stretch:normal;font-size:15px;line-height:125%;font-family:'Open Sans';-inkscape-font-specification:'Open Sans, Normal';text-align:start;letter-spacing:0px;word-spacing:0px;writing-mode:lr-tb;text-anchor:start;fill:#ffffff;fill-opacity:1;stroke:none;stroke-width:1px;stroke-linecap:butt;stroke-linejoin:miter;stroke-opacity:1"
         xml:space="preserve"><tspan
           y="1073.4818"
           x="933.04791"
           id="tspan3358"
           sodipodi:role="line" /></text>
    </g>
    <g
       id="g5657"
       transform="matrix(6.2430633,0,0,6.2430633,19.999999,852.36216)">
      <g
         id="g5617" />
      <g
         id="g5621" />
      <g
         id="g5623" />
      <g
         id="g5625" />
      <g
         id="g5627" />
      <g
         id="g5629" />
      <g
         id="g5631" />
      <g
         id="g5633" />
      <g
         id="g5635" />
      <g
         id="g5637" />
      <g
         id="g5639" />
      <g
         id="g5641" />
      <g
         id="g5643" />
      <g
         id="g5645" />
      <g
         id="g5647" />
      <g
         id="g5649" />
    </g>
    <g
       transform="matrix(0.24642901,0,0,0.24642901,146.70265,732.4686)"
       id="layer1-0"
       inkscape:label="Camada 1">
      <text
         sodipodi:linespacing="125%"
         id="text3356-0"
         y="1073.4818"
         x="933.04791"
         style="font-style:normal;font-variant:normal;font-weight:normal;font-stretch:normal;font-size:15px;line-height:125%;font-family:'Open Sans';-inkscape-font-specification:'Open Sans, Normal';text-align:start;letter-spacing:0px;word-spacing:0px;writing-mode:lr-tb;text-anchor:start;fill:#000000;fill-opacity:1;stroke:none;stroke-width:1px;stroke-linecap:butt;stroke-linejoin:miter;stroke-opacity:1"
         xml:space="preserve"><tspan
           y="1073.4818"
           x="933.04791"
           id="tspan3358-1"
           sodipodi:role="line" /></text>
    </g>
    <g
       inkscape:label="Camada 1"
       id="g5689"
       transform="matrix(0.24642901,0,0,0.24642901,51.799546,731.76768)">
      <text
         xml:space="preserve"
         style="font-style:normal;font-variant:normal;font-weight:normal;font-stretch:normal;font-size:15px;line-height:125%;font-family:'Open Sans';-inkscape-font-specification:'Open Sans, Normal';text-align:start;letter-spacing:0px;word-spacing:0px;writing-mode:lr-tb;text-anchor:start;fill:#000000;fill-opacity:1;stroke:none;stroke-width:1px;stroke-linecap:butt;stroke-linejoin:miter;stroke-opacity:1"
         x="933.04791"
         y="1073.4818"
         id="text5693"
         sodipodi:linespacing="125%"><tspan
           sodipodi:role="line"
           id="tspan5695"
           x="933.04791"
           y="1073.4818" /></text>
    </g>
    <g
       inkscape:label="Camada 1"
       id="g5709"
       transform="matrix(0.24642901,0,0,0.24642901,101.48726,679.16698)">
      <text
         xml:space="preserve"
         style="font-style:normal;font-variant:normal;font-weight:normal;font-stretch:normal;font-size:15px;line-height:125%;font-family:'Open Sans';-inkscape-font-specification:'Open Sans, Normal';text-align:start;letter-spacing:0px;word-spacing:0px;writing-mode:lr-tb;text-anchor:start;fill:#000000;fill-opacity:1;stroke:none;stroke-width:1px;stroke-linecap:butt;stroke-linejoin:miter;stroke-opacity:1"
         x="933.04791"
         y="1073.4818"
         id="text5713"
         sodipodi:linespacing="125%"><tspan
           sodipodi:role="line"
           id="tspan5715"
           x="933.04791"
           y="1073.4818" /></text>
    </g>
    <g
       id="g5769"
       transform="matrix(3.9830118,0,0,3.9830118,77.962645,850.34016)">
      <g
         id="g5725">
        <g
           id="g5727" />
      </g>
      <g
         id="g5733" />
      <g
         id="g5735" />
      <g
         id="g5737" />
      <g
         id="g5739" />
      <g
         id="g5741" />
      <g
         id="g5743" />
      <g
         id="g5745" />
      <g
         id="g5747" />
      <g
         id="g5749" />
      <g
         id="g5751" />
      <g
         id="g5753" />
      <g
         id="g5755" />
      <g
         id="g5757" />
      <g
         id="g5759" />
      <g
         id="g5761" />
    </g>
    <g
       id="g5839"
       transform="matrix(0.37151396,0,0,0.37151396,20,875.89852)">
      <g
         id="g5791">
        <g
           id="g5793" />
      </g>
      <g
         id="g5803" />
      <g
         id="g5805" />
      <g
         id="g5807" />
      <g
         id="g5809" />
      <g
         id="g5811" />
      <g
         id="g5813" />
      <g
         id="g5815" />
      <g
         id="g5817" />
      <g
         id="g5819" />
      <g
         id="g5821" />
      <g
         id="g5823" />
      <g
         id="g5825" />
      <g
         id="g5827" />
      <g
         id="g5829" />
      <g
         id="g5831" />
    </g>
    <g
       transform="matrix(0.23089146,0,0,0.23089146,93.70431,646.39838)"
       id="layer1-2"
       inkscape:label="Camada 1">
      <text
         sodipodi:linespacing="125%"
         id="text3356-9"
         y="1073.4818"
         x="933.04791"
         style="font-style:normal;font-variant:normal;font-weight:normal;font-stretch:normal;font-size:15px;line-height:125%;font-family:'Open Sans';-inkscape-font-specification:'Open Sans, Normal';text-align:start;letter-spacing:0px;word-spacing:0px;writing-mode:lr-tb;text-anchor:start;fill:#000000;fill-opacity:1;stroke:none;stroke-width:1px;stroke-linecap:butt;stroke-linejoin:miter;stroke-opacity:1"
         xml:space="preserve"><tspan
           y="1073.4818"
           x="933.04791"
           id="tspan3358-7"
           sodipodi:role="line" /></text>
    </g>
    <g
       id="g5929"
       transform="matrix(0.35224368,0,0,0.35224368,30,866.99055)">
      <g
         id="XMLID_5_" />
      <g
         id="g5893" />
      <g
         id="g5895" />
      <g
         id="g5897" />
      <g
         id="g5899" />
      <g
         id="g5901" />
      <g
         id="g5903" />
      <g
         id="g5905" />
      <g
         id="g5907" />
      <g
         id="g5909" />
      <g
         id="g5911" />
      <g
         id="g5913" />
      <g
         id="g5915" />
      <g
         id="g5917" />
      <g
         id="g5919" />
      <g
         id="g5921" />
    </g>
    <g
       id="g6061"
       transform="matrix(3,0,0,3,20.000001,852.36166)">
      <g
         id="g6019" />
      <g
         id="g6025" />
      <g
         id="g6027" />
      <g
         id="g6029" />
      <g
         id="g6031" />
      <g
         id="g6033" />
      <g
         id="g6035" />
      <g
         id="g6037" />
      <g
         id="g6039" />
      <g
         id="g6041" />
      <g
         id="g6043" />
      <g
         id="g6045" />
      <g
         id="g6047" />
      <g
         id="g6049" />
      <g
         id="g6051" />
      <g
         id="g6053" />
    </g>
    <g
       id="g5998"
       transform="translate(56.909413,942.86316)"
       style="fill:#ff0000">
      <g
         id="g5956"
         style="fill:#ff0000">
        <g
           id="g5958"
           style="fill:#ff0000" />
      </g>
      <g
         id="g5962"
         style="fill:#ff0000" />
      <g
         id="g5964"
         style="fill:#ff0000" />
      <g
         id="g5966"
         style="fill:#ff0000" />
      <g
         id="g5968"
         style="fill:#ff0000" />
      <g
         id="g5970"
         style="fill:#ff0000" />
      <g
         id="g5972"
         style="fill:#ff0000" />
      <g
         id="g5974"
         style="fill:#ff0000" />
      <g
         id="g5976"
         style="fill:#ff0000" />
      <g
         id="g5978"
         style="fill:#ff0000" />
      <g
         id="g5980"
         style="fill:#ff0000" />
      <g
         id="g5982"
         style="fill:#ff0000" />
      <g
         id="g5984"
         style="fill:#ff0000" />
      <g
         id="g5986"
         style="fill:#ff0000" />
      <g
         id="g5988"
         style="fill:#ff0000" />
      <g
         id="g5990"
         style="fill:#ff0000" />
    </g>
    <g
       transform="matrix(0.72032417,0,0,0.72032417,52.11,168.17353)"
       id="layer1-9"
       inkscape:label="Camada 1">
      <text
         sodipodi:linespacing="125%"
         id="text3356-2"
         y="1073.4818"
         x="933.04791"
         style="font-style:normal;font-variant:normal;font-weight:normal;font-stretch:normal;font-size:15px;line-height:125%;font-family:'Open Sans';-inkscape-font-specification:'Open Sans, Normal';text-align:start;letter-spacing:0px;word-spacing:0px;writing-mode:lr-tb;text-anchor:start;fill:#000000;fill-opacity:1;stroke:none;stroke-width:1px;stroke-linecap:butt;stroke-linejoin:miter;stroke-opacity:1"
         xml:space="preserve"><tspan
           y="1073.4818"
           x="933.04791"
           id="tspan3358-4"
           sodipodi:role="line" /></text>
    </g>
    <g
       transform="translate(-11.658979,862.27)"
       id="g6121">
      <g
         transform="translate(-372.37358,-381.61097)"
         id="layer1-8"
         inkscape:label="Camada 1">
        <g
           transform="translate(370.68388,-477.44867)"
           id="layer1-3"
           inkscape:label="Camada 1">
          <g
             transform="translate(-6.0829566,-41.90476)"
             id="layer1-40"
             inkscape:label="Camada 1">
            <path
               style="opacity:1;fill:#ffffff;fill-opacity:1;stroke:none;stroke-width:1;stroke-linecap:square;stroke-miterlimit:4;stroke-dasharray:none;stroke-opacity:1"
               d="M 0 0 L 0 220 L 220 220 L 220 0 L 0 0 z M 113.43555 20 C 117.59816 20 122.07591 21.864689 126.4082 23.667969 C 127.82475 24.256849 129.1641 24.813602 130.4668 25.294922 L 169.48438 41.730469 C 173.93366 43.773779 174.20212 45.881761 173.9668 46.957031 C 173.48011 49.183261 170.17639 50.798828 166.10938 50.798828 C 164.97733 50.798828 163.83169 50.673381 162.70312 50.425781 C 157.58511 49.303191 130.89015 42.713084 130.62109 42.646484 L 130.10352 42.517578 L 130.4668 42.125 C 132.91353 39.48115 133.76676 36.891794 132.86719 34.833984 C 131.59353 31.920444 127.08814 30.316406 120.18359 30.316406 C 114.17169 30.316406 106.70408 31.510058 97.951172 33.867188 C 99.005312 33.774137 100.04955 33.680191 101.07812 33.587891 C 107.47832 33.012891 113.52555 32.466797 118.41992 32.466797 C 125.7424 32.466797 129.40078 33.689638 130.28711 36.429688 C 130.89492 38.308018 130.00905 39.937564 127.64844 41.271484 C 125.04213 42.743534 119.51308 44.077181 114.16797 45.369141 C 110.50596 46.253571 107.0456 47.090221 104.67773 47.925781 C 96.274014 50.892611 87.58632 53.960938 76.945312 53.960938 C 75.320892 53.960938 73.671789 53.885031 72.042969 53.738281 C 63.852749 53.001161 55.702474 51.836418 47.123047 50.173828 L 45.972656 49.949219 L 45.972656 30.128906 L 47.650391 30.441406 C 52.584826 31.364966 57.425769 32.193359 62.355469 32.193359 C 65.214759 32.193359 67.845748 31.914534 70.398438 31.339844 C 73.651047 30.608384 81.780728 28.201797 89.642578 25.873047 C 97.718908 23.480907 105.34642 21.221124 108.36719 20.552734 C 110.04461 20.181414 111.70359 20 113.43555 20 z M 68.259766 58.353516 L 151.74219 58.353516 L 151.74219 139.22656 L 150.96484 139.22656 C 148.65959 131.49216 141.55116 126.18864 133.48047 126.18164 C 123.39551 126.18206 115.22113 134.35651 115.2207 144.44141 C 115.22405 152.51381 120.52613 159.62629 128.26172 161.93359 L 128.26172 162.70703 L 68.259766 162.70703 L 68.259766 58.353516 z M 83.914062 79.224609 L 83.914062 87.052734 L 136.08789 87.052734 L 136.08789 79.224609 L 83.914062 79.224609 z M 83.914062 94.875 L 83.914062 102.70117 L 136.08789 102.70117 L 136.08789 94.875 L 83.914062 94.875 z M 83.914062 110.52734 L 83.914062 118.35547 L 136.08789 118.35547 L 136.08789 110.52734 L 83.914062 110.52734 z M 97.142578 128.79297 C 92.820338 128.79297 89.316406 132.29684 89.316406 136.61914 C 89.316406 137.98034 89.663881 139.25805 90.275391 140.37305 L 83.914062 146.73633 L 88.525391 147.65625 L 89.449219 152.26758 L 97.142578 144.57422 L 104.83984 152.26758 L 105.75977 147.65625 L 110.37109 146.73633 L 104.00977 140.37305 C 104.62128 139.25835 104.96875 137.98064 104.96875 136.61914 C 104.96875 132.29684 101.46482 128.79297 97.142578 128.79297 z M 133.48047 128.79297 C 142.12885 128.79297 149.16211 135.82621 149.16211 144.47461 C 149.16211 153.12291 142.12885 160.09961 133.48047 160.09961 C 124.8321 160.09961 117.79492 153.12291 117.79492 144.47461 C 117.79492 135.82621 124.8321 128.79297 133.48047 128.79297 z M 133.48047 131.3418 C 132.90328 131.3418 132.43164 131.81147 132.43164 132.38867 L 132.43164 143.88867 L 125.11523 143.88867 C 124.53806 143.88867 124.07031 144.35639 124.07031 144.93359 C 124.07031 145.51079 124.53806 145.97852 125.11523 145.97852 L 133.48047 145.97852 C 134.05766 145.97852 134.52539 145.51079 134.52539 144.93359 L 134.52539 132.38867 C 134.52539 131.81147 134.05766 131.3418 133.48047 131.3418 z M 143.05273 166.04297 C 144.67715 166.04297 146.32624 166.11462 147.95508 166.26172 C 156.14527 166.99882 164.29948 168.16552 172.87891 169.82812 L 174.0293 170.05078 L 174.0293 189.875 L 172.34766 189.55859 C 167.41322 188.63509 162.57618 187.80664 157.64648 187.80664 C 154.7872 187.80664 152.15621 188.08546 149.60352 188.66016 C 146.35091 189.39166 138.22123 191.80216 130.35938 194.13086 C 122.28306 196.52306 114.65163 198.78287 111.63086 199.45117 C 109.95345 199.82247 108.29837 200 106.56641 200 C 102.40382 200 97.922134 198.13533 93.589844 196.33203 C 92.173294 195.74313 90.837856 195.18628 89.535156 194.70508 L 50.513672 178.27344 C 46.064353 176.23014 45.795947 174.11817 46.03125 173.04297 C 46.517943 170.81667 49.823597 169.20312 53.890625 169.20312 C 55.022668 169.20312 56.170258 169.33053 57.298828 169.57812 C 62.416838 170.70083 89.107893 177.29142 89.376953 177.35742 L 89.898438 177.48242 L 89.535156 177.87891 C 87.088426 180.52291 86.235196 183.11212 87.134766 185.16992 C 88.408446 188.08352 92.913809 189.68359 99.818359 189.68359 C 105.83026 189.68359 113.29592 188.49187 122.04883 186.13477 C 120.99469 186.22787 119.94851 186.32402 118.91992 186.41602 C 112.51974 186.99102 106.4764 187.5332 101.58203 187.5332 C 94.259541 187.5332 90.597268 186.31041 89.710938 183.57031 C 89.103128 181.69211 89.992916 180.06642 92.353516 178.73242 C 94.959836 177.26042 100.48497 175.92286 105.83008 174.63086 C 109.49209 173.74636 112.95244 172.91373 115.32031 172.07812 C 123.72406 169.11122 132.41172 166.04297 143.05273 166.04297 z "
               transform="translate(19.431636,871.05656)"
               id="rect4200" />
            <g
               transform="translate(-279.76381,329.7638)"
               id="g4220">
              <g
                 transform="translate(0,10.000002)"
                 id="g4249" />
            </g>
            <g
               id="g4894"
               transform="matrix(0.14185866,0,0,0.14185866,97.0046,969.53159)"
               style="fill:#01420a;fill-opacity:1">
              <g
                 id="XMLID_9_"
                 style="fill:#01420a;fill-opacity:1" />
              <g
                 id="g4858"
                 style="fill:#01420a;fill-opacity:1" />
              <g
                 id="g4860"
                 style="fill:#01420a;fill-opacity:1" />
              <g
                 id="g4862"
                 style="fill:#01420a;fill-opacity:1" />
              <g
                 id="g4864"
                 style="fill:#01420a;fill-opacity:1" />
              <g
                 id="g4866"
                 style="fill:#01420a;fill-opacity:1" />
              <g
                 id="g4868"
                 style="fill:#01420a;fill-opacity:1" />
              <g
                 id="g4870"
                 style="fill:#01420a;fill-opacity:1" />
              <g
                 id="g4872"
                 style="fill:#01420a;fill-opacity:1" />
              <g
                 id="g4874"
                 style="fill:#01420a;fill-opacity:1" />
              <g
                 id="g4876"
                 style="fill:#01420a;fill-opacity:1" />
              <g
                 id="g4878"
                 style="fill:#01420a;fill-opacity:1" />
              <g
                 id="g4880"
                 style="fill:#01420a;fill-opacity:1" />
              <g
                 id="g4882"
                 style="fill:#01420a;fill-opacity:1" />
              <g
                 id="g4884"
                 style="fill:#01420a;fill-opacity:1" />
              <g
                 id="g4886"
                 style="fill:#01420a;fill-opacity:1" />
            </g>
            <g
               id="g5054"
               transform="matrix(0.09732445,0,0,0.09732445,151.77268,986.50566)">
              <g
                 style="fill:#01420a;fill-opacity:1"
                 transform="matrix(2.9210609,0,0,2.9210609,-668.65401,458.5528)"
                 id="g5034">
                <g
                   style="fill:#01420a;fill-opacity:1"
                   id="g4998" />
                <g
                   style="fill:#01420a;fill-opacity:1"
                   id="g5000" />
                <g
                   style="fill:#01420a;fill-opacity:1"
                   id="g5002" />
                <g
                   style="fill:#01420a;fill-opacity:1"
                   id="g5004" />
                <g
                   style="fill:#01420a;fill-opacity:1"
                   id="g5006" />
                <g
                   style="fill:#01420a;fill-opacity:1"
                   id="g5008" />
                <g
                   style="fill:#01420a;fill-opacity:1"
                   id="g5010" />
                <g
                   style="fill:#01420a;fill-opacity:1"
                   id="g5012" />
                <g
                   style="fill:#01420a;fill-opacity:1"
                   id="g5014" />
                <g
                   style="fill:#01420a;fill-opacity:1"
                   id="g5016" />
                <g
                   style="fill:#01420a;fill-opacity:1"
                   id="g5018" />
                <g
                   style="fill:#01420a;fill-opacity:1"
                   id="g5020" />
                <g
                   style="fill:#01420a;fill-opacity:1"
                   id="g5022" />
                <g
                   style="fill:#01420a;fill-opacity:1"
                   id="g5024" />
                <g
                   style="fill:#01420a;fill-opacity:1"
                   id="g5026" />
              </g>
            </g>
          </g>
        </g>
      </g>
    </g>
  </g>
</svg>
