<?xml version="1.0" encoding="UTF-8" standalone="no"?>
<!-- Created with Inkscape (http://www.inkscape.org/) -->

<svg
   xmlns:dc="http://purl.org/dc/elements/1.1/"
   xmlns:cc="http://creativecommons.org/ns#"
   xmlns:rdf="http://www.w3.org/1999/02/22-rdf-syntax-ns#"
   xmlns:svg="http://www.w3.org/2000/svg"
   xmlns="http://www.w3.org/2000/svg"
   xmlns:sodipodi="http://sodipodi.sourceforge.net/DTD/sodipodi-0.dtd"
   xmlns:inkscape="http://www.inkscape.org/namespaces/inkscape"
   width="220"
   height="220"
   viewBox="0 0 220 220"
   id="svg2"
   version="1.1"
   inkscape:version="0.91 r13725"
   sodipodi:docname="ufu_espcacos_cultura.svg">
  <defs
     id="defs4" />
  <sodipodi:namedview
     id="base"
     pagecolor="#ffffff"
     bordercolor="#666666"
     borderopacity="1.0"
     inkscape:pageopacity="0.0"
     inkscape:pageshadow="2"
     inkscape:zoom="2.9590909"
     inkscape:cx="104.08602"
     inkscape:cy="123.51767"
     inkscape:document-units="px"
     inkscape:current-layer="layer1"
     showgrid="false"
     units="px"
     inkscape:window-width="1440"
     inkscape:window-height="847"
     inkscape:window-x="-8"
     inkscape:window-y="-8"
     inkscape:window-maximized="1" />
  <metadata
     id="metadata7">
    <rdf:RDF>
      <cc:Work
         rdf:about="">
        <dc:format>image/svg+xml</dc:format>
        <dc:type
           rdf:resource="http://purl.org/dc/dcmitype/StillImage" />
        <dc:title></dc:title>
      </cc:Work>
    </rdf:RDF>
  </metadata>
  <g
     inkscape:label="Camada 1"
     inkscape:groupmode="layer"
     id="layer1"
     transform="translate(0,-832.36216)">
    <path
       style="color:#000000;clip-rule:nonzero;display:inline;overflow:visible;visibility:visible;opacity:1;isolation:auto;mix-blend-mode:normal;color-interpolation:sRGB;color-interpolation-filters:linearRGB;solid-color:#000000;solid-opacity:1;fill:#ffffff;fill-opacity:1;fill-rule:nonzero;stroke:none;stroke-width:5;stroke-linecap:square;stroke-linejoin:miter;stroke-miterlimit:4;stroke-dasharray:none;stroke-dashoffset:0;stroke-opacity:1;color-rendering:auto;image-rendering:auto;shape-rendering:auto;text-rendering:auto;enable-background:accumulate"
       d="M 0 0 L 0 220 L 220 220 L 220 0 L 0 0 z M 30 35.607422 L 30.421875 35.607422 L 33.917969 39.560547 C 41.878348 48.56146 53.003187 56.057265 66.089844 61.238281 C 72.281041 63.689216 78.873488 65.611771 85.703125 66.957031 C 81.63 84.558469 73.497945 106.25982 57.261719 122.9082 C 57.16435 122.8816 57.070505 122.85818 56.980469 122.83789 C 44.360705 119.99219 30 112.84001 30 112.83984 L 30 35.607422 z M 38.388672 35.607422 L 89.791016 35.607422 L 129.94531 35.607422 L 181.34766 35.607422 C 170.5131 47.858002 153.24931 57.104768 132.79297 61.117188 C 125.50752 62.546175 117.81878 63.3125 109.86914 63.3125 C 101.9195 63.3125 94.228806 62.546175 86.943359 61.117188 C 66.487017 57.104768 49.223225 47.858002 38.388672 35.607422 z M 189.31445 35.607422 L 189.73633 35.607422 L 189.73633 113.01758 C 189.73633 113.01758 174.90555 120.04233 162.50781 122.83789 C 162.48053 122.84403 162.45375 122.85077 162.42578 122.85742 C 146.22264 106.21569 138.10224 84.540564 134.0332 66.957031 C 140.86284 65.611601 147.45546 63.689216 153.64648 61.238281 C 166.73331 56.057265 177.85798 48.56129 185.81836 39.560547 L 189.31445 35.607422 z M 82.560547 107.99805 C 82.730456 107.99805 82.901391 108.02604 83.064453 108.08398 C 86.599571 109.32597 92.052778 110.125 98.1875 110.125 C 104.3221 110.125 109.77543 109.32597 113.31055 108.08398 C 113.4745 108.02604 113.64637 107.99805 113.81641 107.99805 C 114.06544 107.99805 114.3125 108.05867 114.53516 108.17773 C 114.91213 108.37985 115.18653 108.72952 115.29102 109.14453 C 115.98815 111.8897 116.375 114.84782 116.375 117.9375 C 116.375 132.26271 108.23228 143.875 98.1875 143.875 C 88.142466 143.875 80 132.26271 80 117.9375 C 80 114.84782 80.384898 111.88983 81.082031 109.14453 C 81.186639 108.73041 81.463889 108.37985 81.839844 108.17773 C 82.063515 108.05829 82.311643 107.99805 82.560547 107.99805 z M 90.734375 118.83594 C 88.8281 118.83594 87.283203 119.87582 87.283203 121.16016 C 87.283203 122.44424 88.8281 123.48633 90.734375 123.48633 C 92.640524 123.48633 94.185547 123.64541 94.185547 122.36133 C 94.185547 121.077 92.640524 118.83594 90.734375 118.83594 z M 105.64062 118.83594 C 103.73435 118.83594 102.18945 121.077 102.18945 122.36133 C 102.18945 123.64541 103.73435 123.48633 105.64062 123.48633 C 107.54678 123.48633 109.0918 122.44424 109.0918 121.16016 C 109.0918 119.87582 107.54678 118.83594 105.64062 118.83594 z M 30 120.04102 C 32.413249 121.66952 41.452309 125.13336 52.074219 127.80273 C 53.254753 128.09945 54.453252 128.38468 55.666016 128.6582 C 57.228352 129.0105 57.779503 135.86328 55.408203 135.86328 C 53.603894 135.86328 51.576577 135.72838 49.451172 135.4668 C 42.639439 134.62782 34.809786 132.48046 30 129.23438 L 30 120.04102 z M 190 120.04102 L 190 129.23438 C 189.91457 129.29201 189.82381 129.34734 189.73633 129.4043 C 184.93899 132.52761 177.07523 134.60685 170.28516 135.44531 C 168.05096 135.72122 165.93299 135.86523 164.08008 135.86523 C 161.70878 135.86523 162.25993 129.01246 163.82227 128.66016 C 165.09659 128.37265 166.36275 128.0686 167.61133 127.75586 C 177.88725 125.1813 186.97436 121.88847 189.73633 120.20898 C 189.83148 120.15101 189.92002 120.0949 190 120.04102 z M 137.55859 124.12695 C 137.7671 124.14291 137.97218 124.20218 138.16016 124.30273 C 138.53713 124.5051 138.81153 124.85452 138.91602 125.26953 C 139.61315 128.01483 139.99987 130.97244 140 134.0625 C 140 148.38746 131.85728 160 121.8125 160 C 114.28326 160 107.82215 153.47388 105.05859 144.17188 C 107.50972 142.9385 109.73549 141.07427 111.64062 138.70898 C 112.27145 139.25776 113.249 139.61719 114.35938 139.61719 C 116.26552 139.61719 117.81055 137.37588 117.81055 136.0918 C 117.81055 134.80772 116.26565 134.9668 114.35938 134.9668 C 114.28722 134.9668 114.218 134.97755 114.14648 134.98047 C 115.61721 132.34764 116.76964 129.35917 117.49023 126.10352 C 118.88387 126.19316 120.32111 126.25 121.8125 126.25 C 127.94697 126.25 133.40043 125.45097 136.93555 124.20898 C 137.13716 124.13817 137.35009 124.11099 137.55859 124.12695 z M 91.412109 129.67969 C 91.345097 129.66687 91.27398 129.67142 91.207031 129.69336 C 91.073387 129.7385 90.97166 129.84793 90.939453 129.98438 C 90.822292 130.48345 90.75 130.99799 90.75 131.5332 C 90.75 135.64043 94.079891 138.9707 98.1875 138.9707 C 102.29486 138.9707 105.62513 135.64043 105.625 131.5332 C 105.625 130.99799 105.55271 130.48345 105.43555 129.98438 C 105.40334 129.84793 105.30174 129.73748 105.16797 129.69336 C 105.0342 129.6486 104.88695 129.67666 104.7793 129.76758 C 103.36259 130.95808 100.9522 131.74805 98.1875 131.74805 C 95.422805 131.74805 93.01254 130.95808 91.595703 129.76758 C 91.541941 129.72263 91.479122 129.69251 91.412109 129.67969 z M 127.92188 134.96094 C 126.68317 134.97641 125.81445 135.12874 125.81445 136.0918 C 125.81445 137.37588 127.35935 139.61719 129.26562 139.61719 C 131.17178 139.61719 132.71667 138.5751 132.7168 137.29102 C 132.7168 136.00694 131.17178 134.9668 129.26562 134.9668 C 128.78909 134.9668 128.33477 134.95578 127.92188 134.96094 z M 30 136.11133 C 37.505763 139.87427 47.94473 141.83203 55.408203 141.83203 C 55.597655 141.83203 55.78787 141.82428 55.978516 141.80859 C 61.356316 148.60191 68.101562 161.65429 68.101562 184.39258 L 30 184.39258 L 30 136.11133 z M 189.73633 136.23438 L 189.73633 184.39258 L 151.63477 184.39258 C 151.63477 161.67185 158.37034 148.62197 163.74609 141.82422 C 163.85796 141.8295 163.96873 141.83203 164.08008 141.83203 C 168.46202 141.83203 173.86246 141.14765 178.89648 139.95312 C 181.98739 139.2197 186.03836 138.03186 189.73633 136.23438 z M 121.8125 143.43945 C 117.70502 143.43945 114.375 146.76934 114.375 150.87695 C 114.375 151.41217 114.44717 151.92671 114.56445 152.42578 C 114.59666 152.56247 114.69826 152.67386 114.83203 152.71875 C 114.96568 152.76262 115.11305 152.73443 115.2207 152.64453 C 116.63741 151.45403 119.04768 150.66211 121.8125 150.66211 C 124.57707 150.66211 126.98746 151.45403 128.4043 152.64453 C 128.51182 152.73545 128.65907 152.76351 128.79297 152.71875 C 128.92661 152.67488 129.02834 152.56247 129.06055 152.42578 C 129.17771 151.92683 129.24975 151.41217 129.25 150.87695 C 129.25 146.76947 125.91998 143.43945 121.8125 143.43945 z "
       transform="translate(0,832.36216)"
       id="rect4925" />
    <g
       id="g3379"
       transform="matrix(0.45693639,0,0,0.45693639,30.000026,862.36223)">
      <g
         id="g3337">
        <g
           id="g3339" />
      </g>
      <g
         id="g3343" />
      <g
         id="g3345" />
      <g
         id="g3347" />
      <g
         id="g3349" />
      <g
         id="g3351" />
      <g
         id="g3353" />
      <g
         id="g3355" />
      <g
         id="g3357" />
      <g
         id="g3359" />
      <g
         id="g3361" />
      <g
         id="g3363" />
      <g
         id="g3365" />
      <g
         id="g3367" />
      <g
         id="g3369" />
      <g
         id="g3371" />
    </g>
    <g
       id="g3449"
       transform="matrix(0.12063696,0,0,0.12063696,42.287741,973.78024)">
      <g
         id="g3403">
        <g
           id="g3405" />
      </g>
      <g
         id="g3413" />
      <g
         id="g3415" />
      <g
         id="g3417" />
      <g
         id="g3419" />
      <g
         id="g3421" />
      <g
         id="g3423" />
      <g
         id="g3425" />
      <g
         id="g3427" />
      <g
         id="g3429" />
      <g
         id="g3431" />
      <g
         id="g3433" />
      <g
         id="g3435" />
      <g
         id="g3437" />
      <g
         id="g3439" />
      <g
         id="g3441" />
    </g>
    <g
       id="g3516"
       transform="matrix(1.2932781,0,0,1.2932781,31.917579,861.35601)">
      <g
         id="g3472">
        <g
           id="g3474" />
      </g>
      <g
         id="g3480" />
      <g
         id="g3482" />
      <g
         id="g3484" />
      <g
         id="g3486" />
      <g
         id="g3488" />
      <g
         id="g3490" />
      <g
         id="g3492" />
      <g
         id="g3494" />
      <g
         id="g3496" />
      <g
         id="g3498" />
      <g
         id="g3500" />
      <g
         id="g3502" />
      <g
         id="g3504" />
      <g
         id="g3506" />
      <g
         id="g3508" />
    </g>
    <g
       id="g3590"
       transform="matrix(0.17423737,0,0,0.17423737,121.21146,942.76295)">
      <g
         id="g3538">
        <g
           id="g3540">
          <g
             id="g3542" />
        </g>
      </g>
      <g
         id="g3554" />
      <g
         id="g3556" />
      <g
         id="g3558" />
      <g
         id="g3560" />
      <g
         id="g3562" />
      <g
         id="g3564" />
      <g
         id="g3566" />
      <g
         id="g3568" />
      <g
         id="g3570" />
      <g
         id="g3572" />
      <g
         id="g3574" />
      <g
         id="g3576" />
      <g
         id="g3578" />
      <g
         id="g3580" />
      <g
         id="g3582" />
    </g>
    <g
       id="g4610"
       transform="matrix(1.3717358,0,0,1.3246545,-1.4761196,-342.28949)" />
    <g
       id="g4599"
       transform="translate(110.92536,68.60215)" />
    <g
       id="g4603"
       transform="translate(-68.84778,-95.179617)" />
    <g
       transform="translate(0,3e-5)"
       id="layer1-2"
       inkscape:label="Camada 1"
       style="fill:#666666">
      <g
         transform="matrix(0.24744768,0,0,0.24744768,24.12566,862.36243)"
         id="g5972"
         style="fill:#666666">
        <g
           id="g5905"
           style="fill:#666666">
          <g
             id="_x31_5_38_"
             style="fill:#666666">
            <g
               id="g5908"
               style="fill:#666666" />
          </g>
        </g>
        <g
           id="g5936"
           style="fill:#666666" />
        <g
           id="g5938"
           style="fill:#666666" />
        <g
           id="g5940"
           style="fill:#666666" />
        <g
           id="g5942"
           style="fill:#666666" />
        <g
           id="g5944"
           style="fill:#666666" />
        <g
           id="g5946"
           style="fill:#666666" />
        <g
           id="g5948"
           style="fill:#666666" />
        <g
           id="g5950"
           style="fill:#666666" />
        <g
           id="g5952"
           style="fill:#666666" />
        <g
           id="g5954"
           style="fill:#666666" />
        <g
           id="g5956"
           style="fill:#666666" />
        <g
           id="g5958"
           style="fill:#666666" />
        <g
           id="g5960"
           style="fill:#666666" />
        <g
           id="g5962"
           style="fill:#666666" />
        <g
           id="g5964"
           style="fill:#666666" />
      </g>
      <g
         transform="matrix(0.09398474,0,0,0.09398474,140.524,980.12437)"
         id="g6052"
         style="fill:#666666">
        <g
           id="g6006"
           style="fill:#666666">
          <g
             id="g6008"
             style="fill:#666666" />
        </g>
        <g
           id="g6016"
           style="fill:#666666" />
        <g
           id="g6018"
           style="fill:#666666" />
        <g
           id="g6020"
           style="fill:#666666" />
        <g
           id="g6022"
           style="fill:#666666" />
        <g
           id="g6024"
           style="fill:#666666" />
        <g
           id="g6026"
           style="fill:#666666" />
        <g
           id="g6028"
           style="fill:#666666" />
        <g
           id="g6030"
           style="fill:#666666" />
        <g
           id="g6032"
           style="fill:#666666" />
        <g
           id="g6034"
           style="fill:#666666" />
        <g
           id="g6036"
           style="fill:#666666" />
        <g
           id="g6038"
           style="fill:#666666" />
        <g
           id="g6040"
           style="fill:#666666" />
        <g
           id="g6042"
           style="fill:#666666" />
        <g
           id="g6044"
           style="fill:#666666" />
      </g>
      <g
         id="g6148"
         transform="matrix(0.24744768,0,0,0.24744768,-235.41351,862.36243)"
         style="fill:#666666">
        <g
           id="g6150"
           style="fill:#666666">
          <g
             id="g6152"
             style="fill:#666666">
            <g
               id="g6154"
               style="fill:#666666" />
          </g>
        </g>
        <g
           id="g6182"
           style="fill:#666666" />
        <g
           id="g6184"
           style="fill:#666666" />
        <g
           id="g6186"
           style="fill:#666666" />
        <g
           id="g6188"
           style="fill:#666666" />
        <g
           id="g6190"
           style="fill:#666666" />
        <g
           id="g6192"
           style="fill:#666666" />
        <g
           id="g6194"
           style="fill:#666666" />
        <g
           id="g6196"
           style="fill:#666666" />
        <g
           id="g6198"
           style="fill:#666666" />
        <g
           id="g6200"
           style="fill:#666666" />
        <g
           id="g6202"
           style="fill:#666666" />
        <g
           id="g6204"
           style="fill:#666666" />
        <g
           id="g6206"
           style="fill:#666666" />
        <g
           id="g6208"
           style="fill:#666666" />
        <g
           id="g6210"
           style="fill:#666666" />
      </g>
      <g
         transform="matrix(0.24744768,0,0,0.24744768,-496.35872,862.36243)"
         id="g6268"
         style="fill:#666666">
        <g
           id="g6270"
           style="fill:#666666">
          <g
             id="g6272"
             style="fill:#666666">
            <g
               id="g6274"
               style="fill:#666666" />
          </g>
        </g>
        <g
           id="g6302"
           style="fill:#666666" />
        <g
           id="g6304"
           style="fill:#666666" />
        <g
           id="g6306"
           style="fill:#666666" />
        <g
           id="g6308"
           style="fill:#666666" />
        <g
           id="g6310"
           style="fill:#666666" />
        <g
           id="g6312"
           style="fill:#666666" />
        <g
           id="g6314"
           style="fill:#666666" />
        <g
           id="g6316"
           style="fill:#666666" />
        <g
           id="g6318"
           style="fill:#666666" />
        <g
           id="g6320"
           style="fill:#666666" />
        <g
           id="g6322"
           style="fill:#666666" />
        <g
           id="g6324"
           style="fill:#666666" />
        <g
           id="g6326"
           style="fill:#666666" />
        <g
           id="g6328"
           style="fill:#666666" />
        <g
           id="g6330"
           style="fill:#666666" />
      </g>
      <g
         transform="matrix(0.83333333,0,0,0.83333333,-372.72273,987.36213)"
         id="g6383"
         style="fill:#666666">
        <g
           id="g6341"
           style="fill:#666666">
          <g
             id="g6343"
             style="fill:#666666" />
        </g>
        <g
           id="g6347"
           style="fill:#666666" />
        <g
           id="g6349"
           style="fill:#666666" />
        <g
           id="g6351"
           style="fill:#666666" />
        <g
           id="g6353"
           style="fill:#666666" />
        <g
           id="g6355"
           style="fill:#666666" />
        <g
           id="g6357"
           style="fill:#666666" />
        <g
           id="g6359"
           style="fill:#666666" />
        <g
           id="g6361"
           style="fill:#666666" />
        <g
           id="g6363"
           style="fill:#666666" />
        <g
           id="g6365"
           style="fill:#666666" />
        <g
           id="g6367"
           style="fill:#666666" />
        <g
           id="g6369"
           style="fill:#666666" />
        <g
           id="g6371"
           style="fill:#666666" />
        <g
           id="g6373"
           style="fill:#666666" />
        <g
           id="g6375"
           style="fill:#666666" />
      </g>
    </g>
    <g
       id="g4905"
       transform="matrix(0.55271521,0,0,0.55271521,154.999,987.36216)">
      <g
         id="g4865" />
      <g
         id="g4869" />
      <g
         id="g4871" />
      <g
         id="g4873" />
      <g
         id="g4875" />
      <g
         id="g4877" />
      <g
         id="g4879" />
      <g
         id="g4881" />
      <g
         id="g4883" />
      <g
         id="g4885" />
      <g
         id="g4887" />
      <g
         id="g4889" />
      <g
         id="g4891" />
      <g
         id="g4893" />
      <g
         id="g4895" />
      <g
         id="g4897" />
    </g>
    <g
       id="g4981"
       transform="matrix(0.17052352,0,0,0.17052352,29.999999,862.36224)">
      <g
         id="g4929" />
      <g
         id="g4945" />
      <g
         id="g4947" />
      <g
         id="g4949" />
      <g
         id="g4951" />
      <g
         id="g4953" />
      <g
         id="g4955" />
      <g
         id="g4957" />
      <g
         id="g4959" />
      <g
         id="g4961" />
      <g
         id="g4963" />
      <g
         id="g4965" />
      <g
         id="g4967" />
      <g
         id="g4969" />
      <g
         id="g4971" />
      <g
         id="g4973" />
    </g>
    <g
       id="g5049"
       transform="matrix(0.12679762,0,0,0.12679762,80,936.3611)">
      <g
         id="g5007" />
      <g
         id="g5013" />
      <g
         id="g5015" />
      <g
         id="g5017" />
      <g
         id="g5019" />
      <g
         id="g5021" />
      <g
         id="g5023" />
      <g
         id="g5025" />
      <g
         id="g5027" />
      <g
         id="g5029" />
      <g
         id="g5031" />
      <g
         id="g5033" />
      <g
         id="g5035" />
      <g
         id="g5037" />
      <g
         id="g5039" />
      <g
         id="g5041" />
    </g>
  </g>
</svg>
