<?xml version="1.0" encoding="UTF-8" standalone="no"?>
<!-- Created with Inkscape (http://www.inkscape.org/) -->

<svg
   xmlns:dc="http://purl.org/dc/elements/1.1/"
   xmlns:cc="http://creativecommons.org/ns#"
   xmlns:rdf="http://www.w3.org/1999/02/22-rdf-syntax-ns#"
   xmlns:svg="http://www.w3.org/2000/svg"
   xmlns="http://www.w3.org/2000/svg"
   xmlns:sodipodi="http://sodipodi.sourceforge.net/DTD/sodipodi-0.dtd"
   xmlns:inkscape="http://www.inkscape.org/namespaces/inkscape"
   width="220"
   height="220"
   viewBox="0 0 220 220"
   id="svg2"
   version="1.1"
   inkscape:version="0.91 r13725"
   sodipodi:docname="ufu_analises_quimicas.svg">
  <defs
     id="defs4" />
  <sodipodi:namedview
     id="base"
     pagecolor="#ffffff"
     bordercolor="#666666"
     borderopacity="1.0"
     inkscape:pageopacity="0.0"
     inkscape:pageshadow="2"
     inkscape:zoom="2.9590909"
     inkscape:cx="110"
     inkscape:cy="110"
     inkscape:document-units="px"
     inkscape:current-layer="layer1"
     showgrid="false"
     units="px"
     inkscape:window-width="1440"
     inkscape:window-height="847"
     inkscape:window-x="-8"
     inkscape:window-y="-8"
     inkscape:window-maximized="1" />
  <metadata
     id="metadata7">
    <rdf:RDF>
      <cc:Work
         rdf:about="">
        <dc:format>image/svg+xml</dc:format>
        <dc:type
           rdf:resource="http://purl.org/dc/dcmitype/StillImage" />
        <dc:title></dc:title>
      </cc:Work>
    </rdf:RDF>
  </metadata>
  <g
     inkscape:label="Camada 1"
     inkscape:groupmode="layer"
     id="layer1"
     transform="translate(0,-832.36216)">
    <g
       id="g4198"
       transform="translate(-117.75595,786.58845)">
      <g
         id="g4139">
        <g
           id="Layer_5_10_">
          <g
             id="g4142">
            <g
               id="g4144" />
          </g>
        </g>
      </g>
      <g
         id="g4162" />
      <g
         id="g4164" />
      <g
         id="g4166" />
      <g
         id="g4168" />
      <g
         id="g4170" />
      <g
         id="g4172" />
      <g
         id="g4174" />
      <g
         id="g4176" />
      <g
         id="g4178" />
      <g
         id="g4180" />
      <g
         id="g4182" />
      <g
         id="g4184" />
      <g
         id="g4186" />
      <g
         id="g4188" />
      <g
         id="g4190" />
    </g>
    <g
       id="g4355"
       transform="translate(82.437134,885.39837)">
      <g
         id="g4309">
        <g
           id="g4311" />
      </g>
      <g
         id="g4319" />
      <g
         id="g4321" />
      <g
         id="g4323" />
      <g
         id="g4325" />
      <g
         id="g4327" />
      <g
         id="g4329" />
      <g
         id="g4331" />
      <g
         id="g4333" />
      <g
         id="g4335" />
      <g
         id="g4337" />
      <g
         id="g4339" />
      <g
         id="g4341" />
      <g
         id="g4343" />
      <g
         id="g4345" />
      <g
         id="g4347" />
    </g>
    <g
       id="g4286"
       transform="matrix(0.07682478,0,0,0.07682478,125.8679,965.03021)"
       style="fill:#ff0000">
      <g
         id="g4240"
         style="fill:#ff0000">
        <g
           id="g4242"
           style="fill:#ff0000" />
      </g>
      <g
         id="g4250"
         style="fill:#ff0000" />
      <g
         id="g4252"
         style="fill:#ff0000" />
      <g
         id="g4254"
         style="fill:#ff0000" />
      <g
         id="g4256"
         style="fill:#ff0000" />
      <g
         id="g4258"
         style="fill:#ff0000" />
      <g
         id="g4260"
         style="fill:#ff0000" />
      <g
         id="g4262"
         style="fill:#ff0000" />
      <g
         id="g4264"
         style="fill:#ff0000" />
      <g
         id="g4266"
         style="fill:#ff0000" />
      <g
         id="g4268"
         style="fill:#ff0000" />
      <g
         id="g4270"
         style="fill:#ff0000" />
      <g
         id="g4272"
         style="fill:#ff0000" />
      <g
         id="g4274"
         style="fill:#ff0000" />
      <g
         id="g4276"
         style="fill:#ff0000" />
      <g
         id="g4278"
         style="fill:#ff0000" />
    </g>
    <path
       style="color:#000000;clip-rule:nonzero;display:inline;overflow:visible;visibility:visible;opacity:1;isolation:auto;mix-blend-mode:normal;color-interpolation:sRGB;color-interpolation-filters:linearRGB;solid-color:#000000;solid-opacity:1;fill:#ffffff;fill-opacity:1;fill-rule:nonzero;stroke:none;stroke-width:5;stroke-linecap:square;stroke-linejoin:miter;stroke-miterlimit:4;stroke-dasharray:none;stroke-dashoffset:0;stroke-opacity:1;color-rendering:auto;image-rendering:auto;shape-rendering:auto;text-rendering:auto;enable-background:accumulate"
       d="M 0 0 L 0 220 L 220 220 L 220 0 L 0 0 z M 76.839844 30.099609 L 80.164062 30.099609 L 117.47461 30.099609 L 121.10352 30.099609 C 122.71073 30.099589 124.01172 31.401569 124.01172 33.005859 L 124.01172 38.878906 C 124.01172 40.486106 122.71073 41.787109 121.10352 41.787109 L 117.47461 41.787109 L 117.47461 76.679688 L 137.43359 114.06641 A 33.287128 33.287128 0 0 0 133.00586 113.73242 A 33.287128 33.287128 0 0 0 108.74609 124.28711 C 107.4612 124.41949 106.08709 124.67586 104.63477 125.06641 C 104.42232 124.36507 104.19276 123.69177 103.94727 123.04883 C 103.11209 120.86146 102.12556 119.12049 101.01172 117.88281 C 99.727245 116.45568 98.250248 115.69336 96.742188 115.69336 L 96.734375 115.69336 C 94.827255 115.69336 93.359347 116.89594 92.466797 117.89453 C 91.357087 119.13591 90.377611 120.88285 89.550781 123.07422 C 89.312581 123.70546 89.088972 124.36754 88.882812 125.05469 C 86.746733 124.48357 84.762424 124.17969 83.021484 124.17969 C 80.936294 124.17969 78.166164 124.64012 76.808594 126.83203 C 75.804404 128.45334 76.041739 130.32789 76.417969 131.61328 C 76.885669 133.21133 77.843908 134.9645 79.267578 136.82422 C 79.872938 137.61496 80.551702 138.413 81.294922 139.20703 C 80.551702 140.00092 79.872938 140.79522 79.267578 141.58594 C 77.843908 143.44575 76.885669 145.19877 76.417969 146.79688 C 76.041809 148.08227 75.804334 149.95292 76.808594 151.57422 C 78.166234 153.76612 80.936374 154.22852 83.021484 154.22852 C 84.775324 154.22852 86.777511 153.91914 88.931641 153.33984 C 89.143511 154.03814 89.370604 154.71096 89.615234 155.35156 C 90.450354 157.53906 91.438984 159.27217 92.552734 160.50977 C 93.837064 161.93717 95.314286 162.68555 96.822266 162.68555 L 96.830078 162.68555 C 98.737248 162.68555 100.20504 161.49665 101.09766 160.49805 C 101.42983 160.12645 101.74419 159.69903 102.05273 159.24023 A 33.287128 33.287128 0 0 0 108.61133 169.60547 L 59.820312 169.60547 C 43.768563 169.60547 37.758765 158.63756 46.390625 145.10547 L 80.164062 76.681641 L 80.164062 41.787109 L 76.839844 41.787109 C 75.232644 41.787109 73.931651 40.486106 73.931641 38.878906 L 73.931641 33.005859 C 73.931651 31.401569 75.232644 30.099609 76.839844 30.099609 z M 91.787109 41.787109 L 91.787109 76.681641 L 91.787109 79.394531 L 90.585938 81.828125 L 75.888672 111.60547 L 122.94336 111.60547 L 107.21875 82.158203 L 105.84961 79.59375 L 105.84961 76.681641 L 105.84961 41.787109 L 91.787109 41.787109 z M 96.742188 118.37695 C 98.347387 118.37695 100.1082 120.47935 101.45312 124.00195 C 101.67813 124.59135 101.88871 125.21125 102.08398 125.85547 C 100.36797 126.45163 98.587643 127.19583 96.783203 128.07617 C 94.963243 127.18822 93.165127 126.4404 91.435547 125.8418 C 91.625427 125.20877 91.829998 124.59946 92.048828 124.01953 C 93.379898 120.49155 95.132548 118.37995 96.742188 118.37695 z M 132.44336 119.05078 C 139.03711 119.05078 145.6305 121.56022 150.65039 126.58008 C 159.02192 134.9517 160.41198 147.70104 154.82227 157.52734 L 175.56055 178.26562 C 178.21834 180.92313 178.21815 185.24905 175.56055 187.90625 C 172.90332 190.56355 168.5793 190.56365 165.92188 187.90625 L 145.18359 167.16602 C 135.35743 172.75568 122.60786 171.36755 114.23633 162.99609 C 104.19674 152.95649 104.19693 136.61981 114.23633 126.58008 C 119.25603 121.56035 125.84962 119.05078 132.44336 119.05078 z M 132.44336 126.29883 C 127.70702 126.29883 122.97107 128.10318 119.36523 131.70898 C 112.15367 138.92061 112.15367 150.65589 119.36523 157.86719 C 126.57694 165.07899 138.30797 165.07899 145.51953 157.86719 C 152.73108 150.65599 152.73126 138.92061 145.51953 131.70898 C 141.91373 128.10318 137.17973 126.29883 132.44336 126.29883 z M 83.021484 126.85156 C 84.511274 126.85156 86.274981 127.12049 88.212891 127.64062 C 87.776361 129.59681 87.455386 131.7096 87.259766 133.91602 C 85.792686 135.02012 84.428383 136.16006 83.189453 137.31836 C 82.530573 136.61034 81.926702 135.90203 81.388672 135.19922 C 79.096472 132.2052 78.232725 129.60327 79.078125 128.23828 C 79.826075 127.03066 81.869774 126.85156 83.021484 126.85156 z M 106.11914 127.45703 A 33.287128 33.287128 0 0 0 105.45117 128.36133 C 105.40258 128.12876 105.36625 127.88081 105.31445 127.65234 C 105.58896 127.57831 105.85187 127.52113 106.11914 127.45703 z M 90.771484 128.4375 C 90.794884 128.4457 90.814491 128.45489 90.837891 128.46289 C 91.808901 128.80696 92.804071 129.20002 93.806641 129.64062 C 93.086931 130.04601 92.365228 130.47207 91.648438 130.91602 C 91.148647 131.22564 90.656555 131.54137 90.171875 131.86133 C 90.331665 130.67523 90.533944 129.52992 90.771484 128.4375 z M 102.75977 128.44922 C 102.99888 129.53191 103.20011 130.667 103.36328 131.8418 C 102.88814 131.52853 102.40765 131.21933 101.91797 130.91602 C 101.20087 130.47191 100.47979 130.04615 99.759766 129.64062 C 100.76269 129.20002 101.75524 128.80516 102.72656 128.46094 C 102.73756 128.45664 102.74857 128.45322 102.75977 128.44922 z M 96.783203 131.07031 C 98.033343 131.71853 99.282855 132.42838 100.51172 133.18945 C 101.11175 133.56111 101.66639 133.95745 102.24219 134.34375 A 33.287128 33.287128 0 0 0 101.16992 137.33398 A 4.7748791 4.7748791 0 0 0 96.783203 134.42969 A 4.7748791 4.7748791 0 0 0 92.007812 139.20312 A 4.7748791 4.7748791 0 0 0 96.783203 143.97852 A 4.7748791 4.7748791 0 0 0 100.03906 142.69141 A 33.287128 33.287128 0 0 0 99.787109 145.65039 C 98.791429 146.24679 97.790153 146.8199 96.783203 147.3418 C 95.533823 146.6932 94.282697 145.98521 93.054688 145.22461 C 91.941297 144.53504 90.866304 143.81637 89.839844 143.08008 C 89.751754 141.82012 89.708078 140.53073 89.705078 139.2207 C 89.702308 137.90461 89.742572 136.60432 89.826172 135.33789 C 90.857182 134.59786 91.935778 133.87861 93.054688 133.18555 C 94.282857 132.42485 95.533673 131.71814 96.783203 131.07031 z M 87.056641 137.47266 C 87.040941 138.05254 87.032203 138.63542 87.033203 139.22266 C 87.034403 139.79916 87.0451 140.37391 87.0625 140.94336 C 86.36822 140.36985 85.705455 139.78698 85.078125 139.20312 C 85.703455 138.62092 86.364661 138.04446 87.056641 137.47266 z M 83.185547 141.08984 C 84.430767 142.25445 85.803727 143.40391 87.279297 144.51367 C 87.482777 146.70926 87.810743 148.81041 88.251953 150.75781 C 86.298543 151.28461 84.521474 151.55859 83.021484 151.55859 C 81.869774 151.55859 79.826075 151.37947 79.078125 150.17188 C 78.232725 148.80697 79.096632 146.2031 81.388672 143.20898 C 81.926242 142.50671 82.527257 141.79735 83.185547 141.08984 z M 90.201172 146.57227 C 90.675772 146.88517 91.159408 147.19319 91.648438 147.49609 C 92.363918 147.93939 93.082391 148.36278 93.800781 148.76758 C 92.799511 149.20728 91.807601 149.60367 90.837891 149.94727 C 90.827291 149.95727 90.817141 149.95703 90.806641 149.95703 C 90.567681 148.87643 90.364392 147.74487 90.201172 146.57227 z M 99.78125 148.75391 A 33.287128 33.287128 0 0 0 99.78125 148.7793 C 99.77245 148.7783 99.764859 148.76758 99.755859 148.76758 C 99.764259 148.76358 99.77325 148.75391 99.78125 148.75391 z M 96.777344 150.33398 C 97.898354 150.88128 99.002539 151.35883 100.0957 151.79883 A 33.287128 33.287128 0 0 0 100.91016 155.81836 C 99.677902 158.46816 98.200525 160.01367 96.828125 160.01367 L 96.822266 160.01367 C 95.216846 160.01367 93.456288 157.91898 92.111328 154.39648 C 91.887348 153.80998 91.678865 153.19529 91.484375 152.55469 C 93.197835 151.95929 94.975754 151.21268 96.777344 150.33398 z "
       transform="translate(0,832.36216)"
       id="rect4383" />
    <g
       style="fill:#ff0000"
       id="g3383"
       transform="matrix(0.42025415,0,0,0.42025415,-322.98003,832.1166)">
      <g
         style="fill:#ff0000"
         id="g3339">
        <g
           style="fill:#ff0000"
           id="g3341" />
      </g>
      <g
         style="fill:#ff0000"
         id="g3347" />
      <g
         style="fill:#ff0000"
         id="g3349" />
      <g
         style="fill:#ff0000"
         id="g3351" />
      <g
         style="fill:#ff0000"
         id="g3353" />
      <g
         style="fill:#ff0000"
         id="g3355" />
      <g
         style="fill:#ff0000"
         id="g3357" />
      <g
         style="fill:#ff0000"
         id="g3359" />
      <g
         style="fill:#ff0000"
         id="g3361" />
      <g
         style="fill:#ff0000"
         id="g3363" />
      <g
         style="fill:#ff0000"
         id="g3365" />
      <g
         style="fill:#ff0000"
         id="g3367" />
      <g
         style="fill:#ff0000"
         id="g3369" />
      <g
         style="fill:#ff0000"
         id="g3371" />
      <g
         style="fill:#ff0000"
         id="g3373" />
      <g
         style="fill:#ff0000"
         id="g3375" />
    </g>
    <g
       style="fill:#ff0000"
       id="g3455"
       transform="matrix(0.27604245,0,0,0.27604245,-322.98003,832.11639)">
      <g
         style="fill:#ff0000"
         id="g3409">
        <g
           style="fill:#ff0000"
           id="g3411" />
      </g>
      <g
         style="fill:#ff0000"
         id="g3419" />
      <g
         style="fill:#ff0000"
         id="g3421" />
      <g
         style="fill:#ff0000"
         id="g3423" />
      <g
         style="fill:#ff0000"
         id="g3425" />
      <g
         style="fill:#ff0000"
         id="g3427" />
      <g
         style="fill:#ff0000"
         id="g3429" />
      <g
         style="fill:#ff0000"
         id="g3431" />
      <g
         style="fill:#ff0000"
         id="g3433" />
      <g
         style="fill:#ff0000"
         id="g3435" />
      <g
         style="fill:#ff0000"
         id="g3437" />
      <g
         style="fill:#ff0000"
         id="g3439" />
      <g
         style="fill:#ff0000"
         id="g3441" />
      <g
         style="fill:#ff0000"
         id="g3443" />
      <g
         style="fill:#ff0000"
         id="g3445" />
      <g
         style="fill:#ff0000"
         id="g3447" />
    </g>
    <g
       style="fill:#ff0000"
       id="g3522"
       transform="matrix(2.006427,0,0,2.006427,-251.13454,885.80789)">
      <g
         style="fill:#ff0000"
         id="g3480">
        <g
           style="fill:#ff0000"
           id="g3482" />
      </g>
      <g
         style="fill:#ff0000"
         id="g3486" />
      <g
         style="fill:#ff0000"
         id="g3488" />
      <g
         style="fill:#ff0000"
         id="g3490" />
      <g
         style="fill:#ff0000"
         id="g3492" />
      <g
         style="fill:#ff0000"
         id="g3494" />
      <g
         style="fill:#ff0000"
         id="g3496" />
      <g
         style="fill:#ff0000"
         id="g3498" />
      <g
         style="fill:#ff0000"
         id="g3500" />
      <g
         style="fill:#ff0000"
         id="g3502" />
      <g
         style="fill:#ff0000"
         id="g3504" />
      <g
         style="fill:#ff0000"
         id="g3506" />
      <g
         style="fill:#ff0000"
         id="g3508" />
      <g
         style="fill:#ff0000"
         id="g3510" />
      <g
         style="fill:#ff0000"
         id="g3512" />
      <g
         style="fill:#ff0000"
         id="g3514" />
    </g>
    <g
       style="fill:#ff0000"
       id="g3585"
       transform="matrix(0.20475885,0,0,0.20475885,-322.98,842.1163)">
      <g
         style="fill:#ff0000"
         id="g3543">
        <g
           style="fill:#ff0000"
           id="g3545" />
      </g>
      <g
         style="fill:#ff0000"
         id="g3549" />
      <g
         style="fill:#ff0000"
         id="g3551" />
      <g
         style="fill:#ff0000"
         id="g3553" />
      <g
         style="fill:#ff0000"
         id="g3555" />
      <g
         style="fill:#ff0000"
         id="g3557" />
      <g
         style="fill:#ff0000"
         id="g3559" />
      <g
         style="fill:#ff0000"
         id="g3561" />
      <g
         style="fill:#ff0000"
         id="g3563" />
      <g
         style="fill:#ff0000"
         id="g3565" />
      <g
         style="fill:#ff0000"
         id="g3567" />
      <g
         style="fill:#ff0000"
         id="g3569" />
      <g
         style="fill:#ff0000"
         id="g3571" />
      <g
         style="fill:#ff0000"
         id="g3573" />
      <g
         style="fill:#ff0000"
         id="g3575" />
      <g
         style="fill:#ff0000"
         id="g3577" />
    </g>
    <g
       id="g4660"
       transform="matrix(0.05300917,0,0,0.05300917,-520.42973,993.5607)">
      <g
         id="g4616">
        <g
           id="g4618" />
      </g>
      <g
         id="g4624" />
      <g
         id="g4626" />
      <g
         id="g4628" />
      <g
         id="g4630" />
      <g
         id="g4632" />
      <g
         id="g4634" />
      <g
         id="g4636" />
      <g
         id="g4638" />
      <g
         id="g4640" />
      <g
         id="g4642" />
      <g
         id="g4644" />
      <g
         id="g4646" />
      <g
         id="g4648" />
      <g
         id="g4650" />
      <g
         id="g4652" />
    </g>
  </g>
</svg>
