<?xml version="1.0" encoding="UTF-8" standalone="no"?>
<!-- Created with Inkscape (http://www.inkscape.org/) -->

<svg
   xmlns:dc="http://purl.org/dc/elements/1.1/"
   xmlns:cc="http://creativecommons.org/ns#"
   xmlns:rdf="http://www.w3.org/1999/02/22-rdf-syntax-ns#"
   xmlns:svg="http://www.w3.org/2000/svg"
   xmlns="http://www.w3.org/2000/svg"
   xmlns:sodipodi="http://sodipodi.sourceforge.net/DTD/sodipodi-0.dtd"
   xmlns:inkscape="http://www.inkscape.org/namespaces/inkscape"
   width="220"
   height="220"
   viewBox="0 0 220 220"
   id="svg2"
   version="1.1"
   inkscape:version="0.91 r13725"
   sodipodi:docname="ufu_ouvidoria.svg">
  <defs
     id="defs4" />
  <sodipodi:namedview
     id="base"
     pagecolor="#ffffff"
     bordercolor="#666666"
     borderopacity="1.0"
     inkscape:pageopacity="0.0"
     inkscape:pageshadow="2"
     inkscape:zoom="2.9590909"
     inkscape:cx="111.1828"
     inkscape:cy="110"
     inkscape:document-units="px"
     inkscape:current-layer="layer1"
     showgrid="false"
     units="px"
     inkscape:window-width="1440"
     inkscape:window-height="847"
     inkscape:window-x="-8"
     inkscape:window-y="-8"
     inkscape:window-maximized="1" />
  <metadata
     id="metadata7">
    <rdf:RDF>
      <cc:Work
         rdf:about="">
        <dc:format>image/svg+xml</dc:format>
        <dc:type
           rdf:resource="http://purl.org/dc/dcmitype/StillImage" />
        <dc:title></dc:title>
      </cc:Work>
    </rdf:RDF>
  </metadata>
  <g
     inkscape:label="Camada 1"
     inkscape:groupmode="layer"
     id="layer1"
     transform="translate(0,-832.36216)">
    <g
       id="g4185"
       transform="matrix(0.31054775,0,0,0.31054775,20.000001,852.36216)">
      <g
         id="g4139">
        <g
           id="g4141" />
      </g>
      <g
         id="g4149" />
      <g
         id="g4151" />
      <g
         id="g4153" />
      <g
         id="g4155" />
      <g
         id="g4157" />
      <g
         id="g4159" />
      <g
         id="g4161" />
      <g
         id="g4163" />
      <g
         id="g4165" />
      <g
         id="g4167" />
      <g
         id="g4169" />
      <g
         id="g4171" />
      <g
         id="g4173" />
      <g
         id="g4175" />
      <g
         id="g4177" />
    </g>
    <g
       id="g5587"
       transform="matrix(0.36372527,0,0,0.36372527,19.999788,852.36216)">
      <g
         id="XMLID_211_" />
      <g
         id="g5551" />
      <g
         id="g5553" />
      <g
         id="g5555" />
      <g
         id="g5557" />
      <g
         id="g5559" />
      <g
         id="g5561" />
      <g
         id="g5563" />
      <g
         id="g5565" />
      <g
         id="g5567" />
      <g
         id="g5569" />
      <g
         id="g5571" />
      <g
         id="g5573" />
      <g
         id="g5575" />
      <g
         id="g5577" />
      <g
         id="g5579" />
    </g>
    <g
       transform="matrix(0.35333693,-0.13569772,0.13569772,0.35333693,-98.886859,488.84759)"
       id="layer1-4"
       inkscape:label="Camada 1"
       style="fill:#ffffff">
      <text
         sodipodi:linespacing="125%"
         id="text3356"
         y="1073.4818"
         x="933.04791"
         style="font-style:normal;font-variant:normal;font-weight:normal;font-stretch:normal;font-size:15px;line-height:125%;font-family:'Open Sans';-inkscape-font-specification:'Open Sans, Normal';text-align:start;letter-spacing:0px;word-spacing:0px;writing-mode:lr-tb;text-anchor:start;fill:#ffffff;fill-opacity:1;stroke:none;stroke-width:1px;stroke-linecap:butt;stroke-linejoin:miter;stroke-opacity:1"
         xml:space="preserve"><tspan
           y="1073.4818"
           x="933.04791"
           id="tspan3358"
           sodipodi:role="line" /></text>
    </g>
    <g
       id="g5657"
       transform="matrix(6.2430633,0,0,6.2430633,19.999999,852.36216)">
      <g
         id="g5617" />
      <g
         id="g5621" />
      <g
         id="g5623" />
      <g
         id="g5625" />
      <g
         id="g5627" />
      <g
         id="g5629" />
      <g
         id="g5631" />
      <g
         id="g5633" />
      <g
         id="g5635" />
      <g
         id="g5637" />
      <g
         id="g5639" />
      <g
         id="g5641" />
      <g
         id="g5643" />
      <g
         id="g5645" />
      <g
         id="g5647" />
      <g
         id="g5649" />
    </g>
    <g
       transform="matrix(0.24642901,0,0,0.24642901,146.70265,732.4686)"
       id="layer1-0"
       inkscape:label="Camada 1">
      <text
         sodipodi:linespacing="125%"
         id="text3356-0"
         y="1073.4818"
         x="933.04791"
         style="font-style:normal;font-variant:normal;font-weight:normal;font-stretch:normal;font-size:15px;line-height:125%;font-family:'Open Sans';-inkscape-font-specification:'Open Sans, Normal';text-align:start;letter-spacing:0px;word-spacing:0px;writing-mode:lr-tb;text-anchor:start;fill:#000000;fill-opacity:1;stroke:none;stroke-width:1px;stroke-linecap:butt;stroke-linejoin:miter;stroke-opacity:1"
         xml:space="preserve"><tspan
           y="1073.4818"
           x="933.04791"
           id="tspan3358-1"
           sodipodi:role="line" /></text>
    </g>
    <g
       inkscape:label="Camada 1"
       id="g5689"
       transform="matrix(0.24642901,0,0,0.24642901,51.799546,731.76768)">
      <text
         xml:space="preserve"
         style="font-style:normal;font-variant:normal;font-weight:normal;font-stretch:normal;font-size:15px;line-height:125%;font-family:'Open Sans';-inkscape-font-specification:'Open Sans, Normal';text-align:start;letter-spacing:0px;word-spacing:0px;writing-mode:lr-tb;text-anchor:start;fill:#000000;fill-opacity:1;stroke:none;stroke-width:1px;stroke-linecap:butt;stroke-linejoin:miter;stroke-opacity:1"
         x="933.04791"
         y="1073.4818"
         id="text5693"
         sodipodi:linespacing="125%"><tspan
           sodipodi:role="line"
           id="tspan5695"
           x="933.04791"
           y="1073.4818" /></text>
    </g>
    <g
       inkscape:label="Camada 1"
       id="g5709"
       transform="matrix(0.24642901,0,0,0.24642901,101.48726,679.16698)">
      <text
         xml:space="preserve"
         style="font-style:normal;font-variant:normal;font-weight:normal;font-stretch:normal;font-size:15px;line-height:125%;font-family:'Open Sans';-inkscape-font-specification:'Open Sans, Normal';text-align:start;letter-spacing:0px;word-spacing:0px;writing-mode:lr-tb;text-anchor:start;fill:#000000;fill-opacity:1;stroke:none;stroke-width:1px;stroke-linecap:butt;stroke-linejoin:miter;stroke-opacity:1"
         x="933.04791"
         y="1073.4818"
         id="text5713"
         sodipodi:linespacing="125%"><tspan
           sodipodi:role="line"
           id="tspan5715"
           x="933.04791"
           y="1073.4818" /></text>
    </g>
    <path
       style="color:#000000;clip-rule:nonzero;display:inline;overflow:visible;visibility:visible;opacity:1;isolation:auto;mix-blend-mode:normal;color-interpolation:sRGB;color-interpolation-filters:linearRGB;solid-color:#000000;solid-opacity:1;fill:#ffffff;fill-opacity:1;fill-rule:nonzero;stroke:none;stroke-width:5;stroke-linecap:square;stroke-linejoin:miter;stroke-miterlimit:4;stroke-dasharray:none;stroke-dashoffset:0;stroke-opacity:1;color-rendering:auto;image-rendering:auto;shape-rendering:auto;text-rendering:auto;enable-background:accumulate"
       d="M 0 0 L 0 220 L 220 220 L 220 0 L 0 0 z M 115.67383 32.988281 C 129.66095 32.988281 141 41.707625 141 52.46875 C 141 55.998649 139.77963 59.310127 137.64844 62.158203 C 137.55493 65.579009 137.80799 73.004792 141.33789 76.355469 C 136.37421 76.355465 131.29443 73.237827 128.0957 70.806641 C 131.3178 67.296221 133.20703 62.976177 133.20703 58.3125 C 133.20703 46.47994 120.99605 36.884766 105.93359 36.884766 C 103.71279 36.884766 101.55519 37.094761 99.490234 37.484375 C 103.87728 34.679157 109.51793 32.988281 115.67383 32.988281 z M 103.98633 40.779297 C 117.97345 40.779297 129.3125 49.500591 129.3125 60.261719 C 129.3125 71.026736 117.97345 79.740234 103.98633 79.740234 C 100.99021 79.740234 98.121988 79.339898 95.457031 78.607422 C 92.250513 81.038608 87.17852 84.148438 82.214844 84.148438 C 84.70837 81.791275 85.569029 77.416497 85.826172 73.839844 C 81.392371 70.333328 78.662109 65.537082 78.662109 60.261719 C 78.662109 49.500591 89.9992 40.779297 103.98633 40.779297 z M 99.585938 49.917969 L 99.585938 63.216797 L 100.48438 64.117188 L 105.43164 64.117188 L 106.33984 63.208984 L 106.33984 55.615234 L 107.88477 54.068359 L 112.06055 54.068359 L 107.89453 49.917969 L 99.585938 49.917969 z M 97.433594 52.068359 L 93.705078 55.798828 L 93.705078 64.132812 L 99.568359 70.005859 L 102.16406 70.005859 L 108.17969 63.990234 L 108.17969 56.386719 L 108.76758 55.798828 L 113.79102 55.798828 L 112.91797 54.941406 L 108.33984 54.941406 L 107.27148 56.017578 L 107.27148 63.529297 L 104.51758 66.283203 L 99.585938 66.283203 L 97.433594 64.132812 L 97.433594 52.068359 z M 109.20508 56.664062 L 109.04492 56.824219 L 109.04492 64.34375 L 103.39062 69.998047 L 103.40039 70.005859 L 107.87695 70.005859 L 113.75781 64.117188 L 113.75781 56.664062 L 109.20508 56.664062 z M 164.41992 68.222656 A 11.290819 11.290819 0 0 1 175.70898 79.513672 A 11.290819 11.290819 0 0 1 164.41992 90.804688 A 11.290819 11.290819 0 0 1 153.12891 79.513672 A 11.290819 11.290819 0 0 1 164.41992 68.222656 z M 55.580078 68.771484 A 11.290819 11.290819 0 0 1 66.871094 80.0625 A 11.290819 11.290819 0 0 1 55.580078 91.353516 A 11.290819 11.290819 0 0 1 44.291016 80.0625 A 11.290819 11.290819 0 0 1 55.580078 68.771484 z M 157.19531 96 C 157.42319 95.994424 157.65295 95.998138 157.88477 96.013672 L 171.46094 96.914062 C 175.6625 97.193037 178.84291 100.82543 178.56641 105.02734 L 175.85938 146.13867 L 182.22266 146.13867 L 182.22266 107.4043 C 182.22266 105.25667 183.9637 103.51562 186.11133 103.51562 C 188.25896 103.51563 190 105.25596 190 107.4043 L 190 182.21875 C 190 184.36638 188.25896 186.10742 186.11133 186.10742 C 183.9637 186.10742 182.22266 184.36638 182.22266 182.21875 L 182.22266 169.23047 L 157.01562 169.23047 L 157.01562 171.83008 C 154.76939 166.83315 153.3534 163.68283 149.96094 156.13672 L 157.01562 154.24219 L 157.01562 161.45312 L 182.22266 161.45312 L 182.22266 153.91406 C 145.09582 153.91406 153.51726 153.74322 143.86719 154.48047 L 154.59961 178.35352 C 155.98956 181.44552 154.60957 185.0788 151.51758 186.46875 C 148.42946 187.85729 144.79406 186.48259 143.40234 183.38672 L 129.08594 151.54297 C 128.26627 149.71905 128.38705 147.60993 129.4082 145.89062 C 130.42936 144.17132 132.22275 143.05681 134.2168 142.9043 L 160.07031 140.92969 L 147.35352 139.5293 L 148.4668 122.75781 C 149.66971 122.22275 148.70491 122.89941 165.39844 108.96289 L 147.88672 117.14062 C 146.3372 117.86448 144.52429 117.76794 143.05859 116.875 L 125.60742 106.23828 C 123.1949 104.76802 122.43208 101.61955 123.90234 99.207031 C 125.37261 96.794513 128.51912 96.031688 130.93164 97.501953 L 146.04102 106.71094 L 161.07031 99.691406 L 150.00391 101.68555 C 150.85524 98.434776 153.77718 96.078943 157.19531 96 z M 62.896484 96.550781 C 66.759824 96.685829 69.968928 99.729676 70.230469 103.66992 L 70.679688 110.42383 L 62.671875 104.16602 L 72.695312 117.38477 L 83.28125 116.72461 C 81.221681 110.30919 82.618533 114.65505 79.296875 104.30859 C 78.761465 102.64178 79.678534 100.85572 81.345703 100.32031 C 83.012168 99.78455 84.796621 100.70393 85.332031 102.37109 C 86.956932 107.43213 88.224394 111.37599 89.810547 116.31641 L 90.355469 116.2832 C 93.172009 116.10074 95.603527 118.2506 95.779297 121.07031 C 95.931818 123.51877 94.333607 125.6712 92.064453 126.31055 L 137.20703 126.31055 C 139.15247 126.31055 140.72852 127.88659 140.72852 129.83203 C 140.72852 131.77747 139.15247 133.35547 137.20703 133.35547 L 113.52344 133.35547 L 113.52344 178.75781 L 124.79492 178.75781 C 126.74036 178.75781 128.31641 180.33385 128.31641 182.2793 C 128.31641 184.22474 126.74036 185.80273 124.79492 185.80273 L 96.083984 185.80273 C 95.816279 185.80273 95.555482 185.76961 95.304688 185.71289 C 94.627323 186.2402 93.833831 186.63875 92.943359 186.84766 C 89.641427 187.62187 86.338685 185.57326 85.564453 182.27344 L 82.871094 170.79688 L 90.472656 162.41797 C 91.835135 160.91847 92.244936 160.52815 92.84375 159.56055 L 97.349609 178.75781 L 106.47852 178.75781 L 106.47852 133.35547 L 83.371094 133.35547 C 81.427061 133.35547 79.849609 131.76726 79.849609 129.83203 C 79.849609 128.73409 80.351407 127.75344 81.138672 127.10742 C 69.880611 127.80925 70.534995 127.77539 70.275391 127.77539 C 68.681136 127.77539 67.16965 127.03005 66.199219 125.75 L 54.519531 110.34766 L 62.123047 128.8418 C 63.192459 131.43149 65.821283 133.1878 68.773438 133.00391 C 71.419139 132.83909 70.757203 132.88067 72.164062 132.79297 L 72.345703 135.53125 L 82.341797 135.53125 C 85.1918 135.53125 87.667413 137.49295 88.318359 140.26758 L 89.683594 146.0918 C 88.734297 145.50249 87.667238 145.06639 86.509766 144.82617 C 82.565693 144.0072 63.628832 140.07544 60.677734 139.46289 L 84.652344 149.33789 C 86.501271 150.09944 87.863135 151.71334 88.302734 153.66406 C 88.742335 155.61514 88.205138 157.65784 86.861328 159.13867 L 63.398438 184.99609 C 61.123296 187.50301 57.24123 187.6975 54.726562 185.41602 C 52.215771 183.1377 52.02868 179.25458 54.306641 176.74414 L 71.896484 157.36133 L 66.570312 155.16797 L 37.777344 155.16797 L 37.777344 162.92188 L 60.261719 162.92188 L 53.205078 170.69727 L 37.777344 170.69727 L 37.777344 183.04492 C 37.777344 185.19255 36.036304 186.93164 33.888672 186.93164 C 31.741044 186.93164 30 185.19255 30 183.04492 L 30 108.6582 C 30 106.51092 31.740996 104.76958 33.888672 104.76953 C 36.036304 104.76953 37.777344 106.51057 37.777344 108.6582 L 37.777344 147.39258 L 47.6875 147.39258 C 45.356704 146.43271 44.029452 144.42129 43.808594 142.30078 C 43.80749 142.29043 43.807741 142.28029 43.806641 142.26953 C 43.806641 142.26953 43.944771 143.36913 41.4375 105.58008 C 41.158523 101.37711 44.339997 97.743814 48.542969 97.464844 L 62.115234 96.564453 C 62.37792 96.547115 62.638927 96.54162 62.896484 96.550781 z "
       transform="translate(0,832.36216)"
       id="rect5722" />
    <g
       id="g5769"
       transform="matrix(3.9830118,0,0,3.9830118,77.962645,850.34016)">
      <g
         id="g5725">
        <g
           id="g5727" />
      </g>
      <g
         id="g5733" />
      <g
         id="g5735" />
      <g
         id="g5737" />
      <g
         id="g5739" />
      <g
         id="g5741" />
      <g
         id="g5743" />
      <g
         id="g5745" />
      <g
         id="g5747" />
      <g
         id="g5749" />
      <g
         id="g5751" />
      <g
         id="g5753" />
      <g
         id="g5755" />
      <g
         id="g5757" />
      <g
         id="g5759" />
      <g
         id="g5761" />
    </g>
    <g
       id="g5839"
       transform="matrix(0.37151396,0,0,0.37151396,20,875.89852)">
      <g
         id="g5791">
        <g
           id="g5793" />
      </g>
      <g
         id="g5803" />
      <g
         id="g5805" />
      <g
         id="g5807" />
      <g
         id="g5809" />
      <g
         id="g5811" />
      <g
         id="g5813" />
      <g
         id="g5815" />
      <g
         id="g5817" />
      <g
         id="g5819" />
      <g
         id="g5821" />
      <g
         id="g5823" />
      <g
         id="g5825" />
      <g
         id="g5827" />
      <g
         id="g5829" />
      <g
         id="g5831" />
    </g>
    <g
       transform="matrix(0.23089146,0,0,0.23089146,93.70431,646.39838)"
       id="layer1-2"
       inkscape:label="Camada 1">
      <text
         sodipodi:linespacing="125%"
         id="text3356-9"
         y="1073.4818"
         x="933.04791"
         style="font-style:normal;font-variant:normal;font-weight:normal;font-stretch:normal;font-size:15px;line-height:125%;font-family:'Open Sans';-inkscape-font-specification:'Open Sans, Normal';text-align:start;letter-spacing:0px;word-spacing:0px;writing-mode:lr-tb;text-anchor:start;fill:#000000;fill-opacity:1;stroke:none;stroke-width:1px;stroke-linecap:butt;stroke-linejoin:miter;stroke-opacity:1"
         xml:space="preserve"><tspan
           y="1073.4818"
           x="933.04791"
           id="tspan3358-7"
           sodipodi:role="line" /></text>
    </g>
    <g
       id="g5929"
       transform="matrix(0.35224368,0,0,0.35224368,30,866.99055)">
      <g
         id="XMLID_5_" />
      <g
         id="g5893" />
      <g
         id="g5895" />
      <g
         id="g5897" />
      <g
         id="g5899" />
      <g
         id="g5901" />
      <g
         id="g5903" />
      <g
         id="g5905" />
      <g
         id="g5907" />
      <g
         id="g5909" />
      <g
         id="g5911" />
      <g
         id="g5913" />
      <g
         id="g5915" />
      <g
         id="g5917" />
      <g
         id="g5919" />
      <g
         id="g5921" />
    </g>
  </g>
</svg>
