<?xml version="1.0" encoding="UTF-8" standalone="no"?>
<!-- Created with Inkscape (http://www.inkscape.org/) -->

<svg
   xmlns:dc="http://purl.org/dc/elements/1.1/"
   xmlns:cc="http://creativecommons.org/ns#"
   xmlns:rdf="http://www.w3.org/1999/02/22-rdf-syntax-ns#"
   xmlns:svg="http://www.w3.org/2000/svg"
   xmlns="http://www.w3.org/2000/svg"
   xmlns:sodipodi="http://sodipodi.sourceforge.net/DTD/sodipodi-0.dtd"
   xmlns:inkscape="http://www.inkscape.org/namespaces/inkscape"
   width="220"
   height="220"
   viewBox="0 0 219.99999 220"
   id="svg2"
   version="1.1"
   inkscape:version="0.91 r13725"
   sodipodi:docname="ufu_avaliacao_desempenho.svg">
  <defs
     id="defs4" />
  <sodipodi:namedview
     id="base"
     pagecolor="#ffffff"
     bordercolor="#666666"
     borderopacity="1.0"
     inkscape:pageopacity="0.0"
     inkscape:pageshadow="2"
     inkscape:zoom="2.9590909"
     inkscape:cx="110"
     inkscape:cy="110"
     inkscape:document-units="px"
     inkscape:current-layer="layer1"
     showgrid="false"
     units="px"
     inkscape:window-width="1440"
     inkscape:window-height="847"
     inkscape:window-x="-8"
     inkscape:window-y="-8"
     inkscape:window-maximized="1"
     inkscape:object-paths="true" />
  <metadata
     id="metadata7">
    <rdf:RDF>
      <cc:Work
         rdf:about="">
        <dc:format>image/svg+xml</dc:format>
        <dc:type
           rdf:resource="http://purl.org/dc/dcmitype/StillImage" />
        <dc:title></dc:title>
      </cc:Work>
    </rdf:RDF>
  </metadata>
  <g
     inkscape:label="Camada 1"
     inkscape:groupmode="layer"
     id="layer1"
     transform="translate(0,-832.36216)">
    <path
       style="color:#000000;clip-rule:nonzero;display:inline;overflow:visible;visibility:visible;opacity:1;isolation:auto;mix-blend-mode:normal;color-interpolation:sRGB;color-interpolation-filters:linearRGB;solid-color:#000000;solid-opacity:1;fill:#ffffff;fill-opacity:1;fill-rule:nonzero;stroke:none;stroke-width:5;stroke-linecap:square;stroke-linejoin:miter;stroke-miterlimit:4;stroke-dasharray:none;stroke-dashoffset:0;stroke-opacity:1;color-rendering:auto;image-rendering:auto;shape-rendering:auto;text-rendering:auto;enable-background:accumulate"
       d="M 0 0 L 0 220 L 220 220 L 220 0 L 0 0 z M 110 30 C 117.28575 30 123.35783 35.187027 124.73242 42.068359 C 124.81064 42.459519 124.89087 43.257812 125.44336 43.257812 L 134.56445 43.257812 C 136.02345 43.257812 137.04928 44.438393 136.84375 45.882812 L 134.49414 62.4375 C 134.28906 63.881477 132.92688 65.064453 131.46875 65.064453 L 88.53125 65.064453 C 87.072245 65.064453 85.710942 63.881477 85.505859 62.4375 L 83.154297 45.882812 C 82.949214 44.438393 83.975473 43.257812 85.433594 43.257812 L 94.539062 43.257812 C 95.239173 43.257812 95.209845 42.331052 95.306641 41.878906 C 96.754155 35.091719 102.78055 30 110 30 z M 110 37.955078 C 107.49746 37.955078 105.46875 39.98422 105.46875 42.486328 C 105.46875 44.988418 107.49746 47.015625 110 47.015625 C 112.50166 47.015625 114.53125 44.988418 114.53125 42.486328 C 114.53125 39.98422 112.50166 37.955078 110 37.955078 z M 50.998047 50.402344 L 73.322266 50.402344 C 73.98525 50.402344 74.140625 51.210938 74.140625 51.210938 L 75.167969 58.435547 C 75.167969 58.435547 75.342808 59.242188 74.587891 59.242188 L 59.835938 59.242188 C 57.404999 59.242188 55.416016 61.231173 55.416016 63.662109 L 55.416016 176.74023 C 55.416016 179.17117 57.404999 181.16016 59.835938 181.16016 L 160.16211 181.16016 C 162.59305 181.16016 164.58203 179.17117 164.58203 176.74023 L 164.58203 63.662109 C 164.58203 61.231173 162.59305 59.242188 160.16211 59.242188 L 145.66797 59.242188 C 144.60897 59.242188 144.85547 58.28125 144.85547 58.28125 L 145.85156 51.263672 C 145.85156 51.263672 145.96086 50.402344 146.74805 50.402344 L 169.00195 50.402344 C 171.43289 50.402344 173.42188 52.391311 173.42188 54.822266 L 173.42188 185.58008 C 173.42188 188.01101 171.43289 190 169.00195 190 L 50.998047 190 C 48.567107 190 46.578125 188.01101 46.578125 185.58008 L 46.578125 54.822266 C 46.578125 52.391311 48.567107 50.402344 50.998047 50.402344 z M 78.984375 75.984375 C 83.690007 75.984375 84.501953 78.98486 84.501953 82.685547 C 84.501953 86.38618 82.031117 89.386719 78.984375 89.386719 C 75.937789 89.386719 73.466797 86.38618 73.466797 82.685547 C 73.466797 78.98486 74.278744 75.984375 78.984375 75.984375 z M 103.14453 86.910156 L 119.24219 86.910156 C 119.70698 86.910156 120.08789 87.700077 120.08789 88.664062 L 120.08789 92.265625 C 120.08789 93.230036 119.70698 94.019531 119.24219 94.019531 L 103.14453 94.019531 C 102.68016 94.019531 102.30078 93.230036 102.30078 92.265625 L 102.30078 88.664062 C 102.30078 87.700077 102.68016 86.910156 103.14453 86.910156 z M 75.962891 89.900391 C 75.962891 89.900391 76.870541 91.056641 78.984375 91.056641 C 81.09821 91.056641 82.005859 89.900391 82.005859 89.900391 C 88.378291 91.050471 89.271235 92.859635 89.388672 99.136719 C 89.39829 99.649284 89.402526 99.676686 89.404297 99.617188 C 89.403943 99.728674 89.402344 99.935327 89.402344 100.29492 C 89.402344 100.29492 87.869374 103.38672 78.984375 103.38672 C 70.099531 103.38672 68.56445 100.29492 68.564453 100.29492 C 68.564453 100.06389 68.56463 99.902277 68.564453 99.792969 C 68.566171 99.829777 68.569671 99.758066 68.576172 99.345703 C 68.678338 92.89914 69.520155 91.063153 75.962891 89.900391 z M 150.50586 110.09766 C 151.00121 110.0976 151.49563 110.2862 151.87109 110.66211 L 153.63672 112.42773 C 154.38809 113.17957 154.38809 114.40834 153.63672 115.16016 L 143.33398 125.46289 C 142.58217 126.21428 141.35384 126.21471 140.60156 125.46289 L 133.71289 118.57422 C 132.9615 117.8224 132.96194 116.59363 133.71289 115.8418 L 135.47852 114.07617 C 136.22945 113.3248 137.46152 113.32435 138.21289 114.07617 L 140.60156 116.46484 C 141.35251 117.21666 142.58261 117.21622 143.33398 116.46484 L 149.13867 110.66211 C 149.51416 110.28643 150.01049 110.09771 150.50586 110.09766 z M 70.316406 114.50977 L 118.33398 114.50977 C 119.29841 114.50977 120.08594 115.29773 120.08594 116.26172 L 120.08594 119.86523 C 120.08594 120.82965 119.29841 121.61719 118.33398 121.61719 L 70.316406 121.61719 C 69.352871 121.61719 68.564453 120.82965 68.564453 119.86523 L 68.564453 116.26172 C 68.564453 115.29773 69.352871 114.50977 70.316406 114.50977 z M 150.50586 134.83594 C 151.00121 134.83594 151.49563 135.02448 151.87109 135.40039 L 153.63672 137.16602 C 154.38809 137.91695 154.38809 139.14618 153.63672 139.89844 L 143.33398 150.20117 C 142.58217 150.95212 141.35384 150.95212 140.60156 150.20117 L 133.71289 143.3125 C 132.9615 142.56068 132.96194 141.33145 133.71289 140.58008 L 135.47852 138.81445 C 136.22945 138.06265 137.46152 138.06264 138.21289 138.81445 L 140.60156 141.20312 C 141.35251 141.95407 142.58261 141.95407 143.33398 141.20312 L 149.13867 135.40039 C 149.51416 135.02448 150.01049 134.83594 150.50586 134.83594 z M 70.316406 139.24609 L 118.33398 139.24609 C 119.29841 139.24609 120.08594 140.03557 120.08594 141 L 120.08594 144.60156 C 120.08594 145.56599 119.29841 146.35547 118.33398 146.35547 L 70.316406 146.35547 C 69.352871 146.35547 68.564453 145.56599 68.564453 144.60156 L 68.564453 141 C 68.564453 140.03557 69.352871 139.24609 70.316406 139.24609 z M 150.50586 159.57422 C 151.00121 159.57422 151.49563 159.76102 151.87109 160.13672 L 153.63672 161.90234 C 154.38809 162.65372 154.38809 163.88293 153.63672 164.63477 L 143.33398 174.9375 C 142.58217 175.68887 141.35384 175.68887 140.60156 174.9375 L 133.71289 168.04883 C 132.9615 167.29744 132.96194 166.06778 133.71289 165.31641 L 135.47852 163.55078 C 136.22945 162.79983 137.46152 162.79941 138.21289 163.55078 L 140.60156 165.94141 C 141.35251 166.69278 142.58261 166.69278 143.33398 165.94141 L 149.13867 160.13672 C 149.51416 159.76102 150.01049 159.57422 150.50586 159.57422 z M 70.316406 163.98438 L 103.7168 163.98438 C 104.68122 163.98438 105.46875 164.77236 105.46875 165.73633 L 105.46875 169.33984 C 105.46875 170.30427 104.68122 171.0918 103.7168 171.0918 L 70.316406 171.0918 C 69.352871 171.0918 68.564453 170.30427 68.564453 169.33984 L 68.564453 165.73633 C 68.564453 164.77236 69.352871 163.98438 70.316406 163.98438 z "
       transform="translate(-7.6293945e-6,832.36216)"
       id="rect4809" />
    <g
       id="g3389"
       transform="matrix(0.2,0,0,0.2,29.999992,862.36226)">
      <g
         id="g3339" />
      <g
         id="g3353" />
      <g
         id="g3355" />
      <g
         id="g3357" />
      <g
         id="g3359" />
      <g
         id="g3361" />
      <g
         id="g3363" />
      <g
         id="g3365" />
      <g
         id="g3367" />
      <g
         id="g3369" />
      <g
         id="g3371" />
      <g
         id="g3373" />
      <g
         id="g3375" />
      <g
         id="g3377" />
      <g
         id="g3379" />
      <g
         id="g3381" />
    </g>
    <g
       style="font-style:normal;font-variant:normal;font-weight:bold;font-stretch:normal;font-size:9.57567501px;line-height:125%;font-family:Arial;-inkscape-font-specification:'Arial, Bold';text-align:start;letter-spacing:0px;word-spacing:0px;writing-mode:lr-tb;text-anchor:start;fill:#000000;fill-opacity:1;stroke:none;stroke-width:1px;stroke-linecap:butt;stroke-linejoin:miter;stroke-opacity:1"
       id="text4773" />
    <g
       id="g4859"
       transform="matrix(-0.17713161,0,0,0.17713161,-59.570304,659.0907)">
      <g
         id="g4813">
        <path
           id="path4817"
           d="m 41.909,301.853 c -0.012,-2.882 -0.024,-0.812 0,0 l 0,0 z"
           inkscape:connector-curvature="0" />
        <path
           id="path4819"
           d="m 308.085,304.104 c 0.038,-0.789 0.013,-5.474 0,0 l 0,0 z"
           inkscape:connector-curvature="0" />
      </g>
      <g
         id="g4823" />
      <g
         id="g4825" />
      <g
         id="g4827" />
      <g
         id="g4829" />
      <g
         id="g4831" />
      <g
         id="g4833" />
      <g
         id="g4835" />
      <g
         id="g4837" />
      <g
         id="g4839" />
      <g
         id="g4841" />
      <g
         id="g4843" />
      <g
         id="g4845" />
      <g
         id="g4847" />
      <g
         id="g4849" />
      <g
         id="g4851" />
    </g>
    <g
       id="g4951"
       transform="translate(-206.34613,555.0488)">
      <g
         id="g4882">
        <g
           id="Layer_5_13_">
          <g
             id="g4885">
            <g
               id="g4891">
              <g
                 id="g4895" />
            </g>
            <g
               id="g4899">
              <g
                 id="g4903" />
            </g>
            <g
               id="g4907">
              <g
                 id="g4911" />
            </g>
          </g>
        </g>
      </g>
      <g
         id="g4915" />
      <g
         id="g4917" />
      <g
         id="g4919" />
      <g
         id="g4921" />
      <g
         id="g4923" />
      <g
         id="g4925" />
      <g
         id="g4927" />
      <g
         id="g4929" />
      <g
         id="g4931" />
      <g
         id="g4933" />
      <g
         id="g4935" />
      <g
         id="g4937" />
      <g
         id="g4939" />
      <g
         id="g4941" />
      <g
         id="g4943" />
    </g>
  </g>
</svg>
