<?xml version="1.0" encoding="UTF-8" standalone="no"?>
<!-- Created with Inkscape (http://www.inkscape.org/) -->

<svg
   xmlns:dc="http://purl.org/dc/elements/1.1/"
   xmlns:cc="http://creativecommons.org/ns#"
   xmlns:rdf="http://www.w3.org/1999/02/22-rdf-syntax-ns#"
   xmlns:svg="http://www.w3.org/2000/svg"
   xmlns="http://www.w3.org/2000/svg"
   xmlns:sodipodi="http://sodipodi.sourceforge.net/DTD/sodipodi-0.dtd"
   xmlns:inkscape="http://www.inkscape.org/namespaces/inkscape"
   width="220"
   height="220"
   viewBox="0 0 220 220"
   id="svg2"
   version="1.1"
   inkscape:version="0.91 r13725"
   sodipodi:docname="ufu_caps_ad.svg">
  <defs
     id="defs4" />
  <sodipodi:namedview
     id="base"
     pagecolor="#ffffff"
     bordercolor="#666666"
     borderopacity="1.0"
     inkscape:pageopacity="0.0"
     inkscape:pageshadow="2"
     inkscape:zoom="2.9590909"
     inkscape:cx="76.543779"
     inkscape:cy="110"
     inkscape:document-units="px"
     inkscape:current-layer="layer1"
     showgrid="false"
     units="px"
     inkscape:window-width="1440"
     inkscape:window-height="847"
     inkscape:window-x="-8"
     inkscape:window-y="-8"
     inkscape:window-maximized="1" />
  <metadata
     id="metadata7">
    <rdf:RDF>
      <cc:Work
         rdf:about="">
        <dc:format>image/svg+xml</dc:format>
        <dc:type
           rdf:resource="http://purl.org/dc/dcmitype/StillImage" />
        <dc:title></dc:title>
      </cc:Work>
    </rdf:RDF>
  </metadata>
  <g
     inkscape:label="Camada 1"
     inkscape:groupmode="layer"
     id="layer1"
     transform="translate(0,-832.36216)">
    <path
       style="color:#000000;clip-rule:nonzero;display:inline;overflow:visible;visibility:visible;opacity:1;isolation:auto;mix-blend-mode:normal;color-interpolation:sRGB;color-interpolation-filters:linearRGB;solid-color:#000000;solid-opacity:1;fill:#ffffff;fill-opacity:1;fill-rule:nonzero;stroke:none;stroke-width:5;stroke-linecap:square;stroke-linejoin:miter;stroke-miterlimit:4;stroke-dasharray:none;stroke-dashoffset:0;stroke-opacity:1;color-rendering:auto;image-rendering:auto;shape-rendering:auto;text-rendering:auto;enable-background:accumulate"
       d="M 0 0 L 0 220 L 220 220 L 220 0 L 0 0 z M 41.394531 50.425781 C 44.271979 50.425781 46.64569 50.981853 48.517578 52.095703 C 50.389466 53.209553 51.619166 54.602668 52.207031 56.273438 C 52.794897 57.928747 53.089844 60.511718 53.089844 64.023438 L 53.089844 67.597656 L 43.320312 67.597656 L 43.320312 61.052734 C 43.320312 59.149904 43.210723 57.966053 42.994141 57.501953 C 42.793029 57.022373 42.336627 56.783203 41.625 56.783203 C 40.820552 56.783203 40.310332 57.070188 40.09375 57.642578 C 39.877168 58.214978 39.769531 59.452639 39.769531 61.355469 L 39.769531 78.804688 C 39.769531 80.630167 39.877168 81.821986 40.09375 82.378906 C 40.310332 82.935836 40.798603 83.214844 41.556641 83.214844 C 42.283738 83.214844 42.756074 82.935836 42.972656 82.378906 C 43.204708 81.821986 43.320312 80.514561 43.320312 78.457031 L 43.320312 73.746094 L 53.089844 73.746094 L 53.089844 75.208984 C 53.089844 79.091994 52.810832 81.84439 52.253906 83.46875 C 51.712451 85.09312 50.498686 86.516131 48.611328 87.738281 C 46.73944 88.960421 44.425561 89.572266 41.671875 89.572266 C 38.809898 89.572266 36.450168 89.054078 34.59375 88.017578 C 32.737332 86.981078 31.507633 85.550089 30.904297 83.724609 C 30.300961 81.883669 30 79.121343 30 75.439453 L 30 64.464844 C 30 61.757564 30.093655 59.730666 30.279297 58.384766 C 30.464939 57.023396 31.013042 55.715981 31.925781 54.462891 C 32.85399 53.209811 34.131494 52.227255 35.755859 51.515625 C 37.395695 50.788525 39.275121 50.425781 41.394531 50.425781 z M 114.41992 50.425781 C 116.95703 50.425781 119.11546 50.834377 120.89453 51.654297 C 122.68907 52.474217 123.87292 53.510582 124.44531 54.763672 C 125.03318 56.001282 125.32617 58.113879 125.32617 61.099609 L 125.32617 62.583984 L 116.25391 62.583984 L 116.25391 59.800781 C 116.25391 58.501281 116.1383 57.672216 115.90625 57.316406 C 115.6742 56.960596 115.28755 56.783203 114.74609 56.783203 C 114.15823 56.783203 113.70979 57.022373 113.40039 57.501953 C 113.10646 57.981523 112.95898 58.708984 112.95898 59.683594 C 112.95898 60.936684 113.12841 61.881345 113.46875 62.515625 C 113.79362 63.149905 114.71439 63.91524 116.23047 64.8125 C 120.57758 67.39602 123.31599 69.514612 124.44531 71.169922 C 125.57463 72.825222 126.13867 75.493871 126.13867 79.175781 C 126.13867 81.852111 125.82178 83.8252 125.1875 85.09375 C 124.56869 86.36231 123.3629 87.430545 121.56836 88.296875 C 119.77382 89.147735 117.68514 89.572266 115.30273 89.572266 C 112.68828 89.572266 110.45212 89.077981 108.5957 88.087891 C 106.75476 87.097811 105.54896 85.836238 104.97656 84.304688 C 104.40417 82.773148 104.11719 80.598763 104.11719 77.783203 L 104.11719 75.324219 L 113.19141 75.324219 L 113.19141 79.896484 C 113.19141 81.304264 113.31498 82.209108 113.5625 82.611328 C 113.82549 83.013558 114.28189 83.214844 114.93164 83.214844 C 115.58139 83.214844 116.05974 82.959739 116.36914 82.449219 C 116.69401 81.938709 116.85742 81.179388 116.85742 80.173828 C 116.85742 77.961598 116.55451 76.514674 115.95117 75.833984 C 115.33237 75.153294 113.80967 74.017258 111.38086 72.423828 C 108.95205 70.814938 107.34367 69.647012 106.55469 68.919922 C 105.76571 68.192822 105.10802 67.186364 104.58203 65.902344 C 104.07152 64.618324 103.81641 62.980025 103.81641 60.984375 C 103.81641 58.106925 104.17915 56.002305 104.90625 54.671875 C 105.64882 53.341445 106.84063 52.30507 108.48047 51.5625 C 110.1203 50.80447 112.0994 50.425781 114.41992 50.425781 z M 59.376953 51.214844 L 73.509766 51.214844 L 79.101562 88.783203 L 69.101562 88.783203 L 68.613281 82.03125 L 65.109375 82.03125 L 64.529297 88.783203 L 54.412109 88.783203 L 59.376953 51.214844 z M 80.773438 51.214844 L 90.611328 51.214844 C 93.272194 51.214844 95.315028 51.422144 96.738281 51.839844 C 98.177005 52.257534 99.251264 52.861421 99.962891 53.650391 C 100.68999 54.439371 101.17826 55.398024 101.42578 56.527344 C 101.68877 57.641194 101.82031 59.375093 101.82031 61.726562 L 101.82031 64.998047 C 101.82031 67.395917 101.57317 69.143807 101.07812 70.242188 C 100.58308 71.340568 99.670277 72.183614 98.339844 72.771484 C 97.024881 73.359344 95.298944 73.654297 93.164062 73.654297 L 90.542969 73.654297 L 90.542969 88.783203 L 80.773438 88.783203 L 80.773438 51.214844 z M 145.98047 51.214844 L 160.11133 51.214844 L 165.70508 88.783203 L 155.70312 88.783203 L 155.21484 82.03125 L 151.71094 82.03125 L 151.13086 88.783203 L 141.01367 88.783203 L 145.98047 51.214844 z M 167.375 51.214844 L 174.68359 51.214844 C 179.40199 51.214844 182.58883 51.430111 184.24414 51.863281 C 185.91492 52.296441 187.18445 53.007957 188.05078 53.998047 C 188.91711 54.988137 189.4592 56.094266 189.67578 57.316406 C 189.89236 58.523076 190 60.906704 190 64.464844 L 190 77.621094 C 190 80.993584 189.83854 83.253647 189.51367 84.398438 C 189.20427 85.527758 188.65421 86.416656 187.86523 87.066406 C 187.07626 87.700686 186.10167 88.149119 184.94141 88.412109 C 183.78115 88.659639 182.03326 88.783203 179.69727 88.783203 L 167.375 88.783203 L 167.375 51.214844 z M 90.542969 57.642578 L 90.542969 67.205078 C 90.821431 67.220478 91.060607 67.226562 91.261719 67.226562 C 92.158987 67.226562 92.778797 67.009332 93.119141 66.576172 C 93.474954 66.127532 93.652344 65.206763 93.652344 63.814453 L 93.652344 60.728516 C 93.652344 59.444496 93.451052 58.609406 93.048828 58.222656 C 92.646604 57.835906 91.811521 57.642578 90.542969 57.642578 z M 177.14453 57.642578 L 177.14453 82.355469 C 178.55231 82.355469 179.41927 82.076451 179.74414 81.519531 C 180.06901 80.947131 180.23047 79.408504 180.23047 76.902344 L 180.23047 62.306641 C 180.23047 60.604921 180.17665 59.514736 180.06836 59.035156 C 179.96007 58.555586 179.71293 58.206814 179.32617 57.990234 C 178.93942 57.758184 178.21197 57.642578 177.14453 57.642578 z M 66.849609 59.615234 C 65.85952 66.793384 65.241663 72.045014 64.994141 75.371094 L 68.335938 75.371094 C 67.840893 71.116804 67.344654 65.865174 66.849609 59.615234 z M 153.45117 59.615234 C 152.46108 66.793384 151.84323 72.045014 151.5957 75.371094 L 154.9375 75.371094 C 154.44246 71.116804 153.94622 65.865174 153.45117 59.615234 z M 128.11133 70.150391 L 140.43359 70.150391 L 140.43359 76.623047 L 128.11133 76.623047 L 128.11133 70.150391 z M 98.316406 105.45703 L 101.33203 105.45703 L 101.33203 121.71289 L 98.613281 121.71289 L 98.474609 120.54883 C 97.860767 121.46613 97.072095 121.92578 96.105469 121.92578 C 94.906006 121.92578 93.988525 121.46613 93.353516 120.54883 C 92.725562 119.63163 92.404735 118.28391 92.390625 116.50586 L 92.390625 115.63867 C 92.390625 113.76186 92.706787 112.3618 93.341797 111.4375 C 93.976807 110.51321 94.90166 110.05078 96.115234 110.05078 C 96.997192 110.05078 97.730786 110.43135 98.316406 111.19336 L 98.316406 105.45703 z M 175.08984 105.47852 L 176.77148 105.60547 C 176.77148 106.38866 176.57014 107.05513 176.16797 107.60547 C 175.77285 108.14877 175.2728 108.41992 174.66602 108.41992 C 174.44023 108.41992 174.23889 108.38967 174.0625 108.32617 C 173.89316 108.26267 173.64954 108.13115 173.33203 107.93359 C 173.02158 107.73603 172.80007 107.61652 172.66602 107.57422 C 172.53901 107.53192 172.39741 107.51172 172.24219 107.51172 C 172.05168 107.51172 171.89264 107.60095 171.76562 107.77734 C 171.63868 107.94668 171.57617 108.19302 171.57617 108.51758 L 169.88281 108.42188 C 169.88281 107.63869 170.0822 106.97222 170.48438 106.42188 C 170.88655 105.86447 171.38118 105.58594 171.9668 105.58594 C 172.12202 105.58594 172.271 105.61076 172.41211 105.66016 C 172.56028 105.70249 172.80933 105.82664 173.16211 106.03125 C 173.52195 106.22881 173.78032 106.35571 173.93555 106.41211 C 174.09077 106.46151 174.24517 106.48438 174.40039 106.48438 C 174.58384 106.48438 174.7429 106.39981 174.87695 106.23047 C 175.01804 106.05408 175.08984 105.80308 175.08984 105.47852 z M 35.439453 106.0918 C 37.118701 106.0918 38.391919 106.5616 39.259766 107.5 C 40.134668 108.43841 40.632007 109.78611 40.751953 111.54297 L 37.630859 111.54297 C 37.602637 110.4564 37.433496 109.70806 37.123047 109.29883 C 36.819653 108.88255 36.25791 108.67578 35.439453 108.67578 C 34.606885 108.67578 34.017603 108.96711 33.671875 109.55273 C 33.326147 110.13129 33.144217 111.08835 33.123047 112.42188 L 33.123047 115.33203 C 33.123047 116.8631 33.292187 117.91483 33.630859 118.48633 C 33.976587 119.05783 34.565869 119.34375 35.398438 119.34375 C 36.216895 119.34375 36.781348 119.1451 37.091797 118.75 C 37.402246 118.3478 37.578764 117.62431 37.621094 116.58008 L 40.732422 116.58008 C 40.65481 118.33691 40.160181 119.66721 39.25 120.57031 C 38.339819 121.47341 37.05652 121.92578 35.398438 121.92578 C 33.655688 121.92578 32.318066 121.35404 31.386719 120.21094 C 30.462427 119.06094 30 117.4245 30 115.30078 L 30 112.70703 C 30 110.59033 30.479883 108.96136 31.439453 107.81836 C 32.399023 106.66829 33.731982 106.0918 35.439453 106.0918 z M 122.87109 106.30469 L 125.7168 106.30469 L 130.56445 121.71484 L 127.24023 121.71484 L 126.41602 118.56055 L 122.17188 118.56055 L 121.3457 121.71484 L 118.05469 121.71484 L 122.87109 106.30469 z M 64.025391 107.44727 L 67.021484 107.44727 L 67.021484 110.26172 L 68.556641 110.26172 L 68.556641 112.51758 L 67.021484 112.51758 L 67.021484 118.19922 C 67.021484 118.65082 67.081226 118.96146 67.201172 119.13086 C 67.328174 119.29976 67.567139 119.38477 67.919922 119.38477 C 68.209204 119.38477 68.445459 119.35955 68.628906 119.31055 L 68.609375 121.64062 C 68.101367 121.83073 67.549707 121.92773 66.957031 121.92773 C 65.023779 121.92773 64.046561 120.81892 64.025391 118.60352 L 64.025391 112.51758 L 62.703125 112.51758 L 62.703125 110.26172 L 64.025391 110.26172 L 64.025391 107.44727 z M 132.18359 107.44727 L 135.17969 107.44727 L 135.17969 110.26172 L 136.71289 110.26172 L 136.71289 112.51758 L 135.17969 112.51758 L 135.17969 118.19922 C 135.17969 118.65082 135.23943 118.96146 135.35938 119.13086 C 135.48637 119.29976 135.72535 119.38477 136.07812 119.38477 C 136.36742 119.38477 136.60366 119.35955 136.78711 119.31055 L 136.76562 121.64062 C 136.25762 121.83073 135.70791 121.92773 135.11523 121.92773 C 133.18198 121.92773 132.20479 120.81892 132.18359 118.60352 L 132.18359 112.51758 L 130.86133 112.51758 L 130.86133 110.26172 L 132.18359 110.26172 L 132.18359 107.44727 z M 46.816406 110.05078 C 48.255762 110.05078 49.339673 110.51321 50.066406 111.4375 C 50.79314 112.35474 51.163624 113.71523 51.177734 115.52148 L 51.177734 116.99414 L 45.21875 116.99414 C 45.261084 117.8408 45.447681 118.46232 45.779297 118.85742 C 46.110913 119.24542 46.622998 119.4375 47.314453 119.4375 C 48.316357 119.4375 49.151978 119.09651 49.822266 118.41211 L 50.998047 120.2207 C 50.631152 120.72869 50.098901 121.14344 49.400391 121.46094 C 48.70188 121.77134 47.943457 121.92773 47.125 121.92773 C 45.586865 121.92773 44.386182 121.46613 43.525391 120.54883 C 42.6646 119.63163 42.234375 118.3208 42.234375 116.61328 L 42.234375 115.70312 C 42.234375 113.89688 42.629688 112.50222 43.419922 111.52148 C 44.210156 110.54074 45.341773 110.05078 46.816406 110.05078 z M 58.353516 110.05078 C 60.322046 110.05078 61.334185 111.43068 61.390625 114.18945 L 61.390625 121.71289 L 58.384766 121.71289 L 58.384766 114.41016 C 58.384766 113.76104 58.285449 113.29319 58.087891 113.00391 C 57.897388 112.70758 57.559106 112.55859 57.072266 112.55859 C 56.52898 112.55859 56.106128 112.83713 55.802734 113.39453 L 55.802734 121.71484 L 52.796875 121.71484 L 52.796875 110.26172 L 55.611328 110.26172 L 55.697266 111.39453 C 56.374609 110.49846 57.259888 110.05078 58.353516 110.05078 z M 75.042969 110.05078 C 75.381641 110.05078 75.657471 110.0958 75.869141 110.1875 L 75.837891 113.15234 L 74.841797 113.06641 C 74.02334 113.06641 73.470923 113.4268 73.181641 114.14648 L 73.181641 121.71289 L 70.175781 121.71289 L 70.175781 110.26172 L 73 110.26172 L 73.085938 111.5 C 73.558667 110.53338 74.2104 110.05078 75.042969 110.05078 z M 81.277344 110.05078 C 82.737866 110.05078 83.876856 110.5454 84.695312 111.5332 C 85.513771 112.52099 85.923828 113.88886 85.923828 115.63867 L 85.923828 116.36914 C 85.923828 118.1119 85.518433 119.47623 84.707031 120.45703 C 83.89563 121.43773 82.759351 121.92773 81.298828 121.92773 C 79.83125 121.92773 78.687598 121.43773 77.869141 120.45703 C 77.057739 119.46923 76.652344 118.09751 76.652344 116.34766 L 76.652344 115.61719 C 76.652344 113.8815 77.060449 112.52099 77.878906 111.5332 C 78.697363 110.5454 79.830933 110.05078 81.277344 110.05078 z M 107.86328 110.05078 C 109.30264 110.05078 110.3846 110.51321 111.11133 111.4375 C 111.83806 112.35474 112.20856 113.71523 112.22266 115.52148 L 112.22266 116.99414 L 106.26562 116.99414 C 106.30796 117.8408 106.49456 118.46232 106.82617 118.85742 C 107.15779 119.24542 107.66791 119.4375 108.35938 119.4375 C 109.36128 119.4375 110.19885 119.09651 110.86914 118.41211 L 112.04297 120.2207 C 111.67607 120.72869 111.14382 121.14344 110.44531 121.46094 C 109.7468 121.77134 108.98838 121.92773 108.16992 121.92773 C 106.63179 121.92773 105.43306 121.46613 104.57227 120.54883 C 103.71147 119.63163 103.2793 118.3208 103.2793 116.61328 L 103.2793 115.70312 C 103.2793 113.89688 103.67461 112.50222 104.46484 111.52148 C 105.25508 110.54074 106.38865 110.05078 107.86328 110.05078 z M 142.66211 110.05078 C 144.10146 110.05078 145.18342 110.51321 145.91016 111.4375 C 146.63689 112.35474 147.00738 113.71523 147.02148 115.52148 L 147.02148 116.99414 L 141.0625 116.99414 C 141.10483 117.8408 141.29338 118.46232 141.625 118.85742 C 141.95662 119.24542 142.46675 119.4375 143.1582 119.4375 C 144.16011 119.4375 144.99768 119.09651 145.66797 118.41211 L 146.8418 120.2207 C 146.4749 120.72869 145.94265 121.14344 145.24414 121.46094 C 144.54563 121.77134 143.78721 121.92773 142.96875 121.92773 C 141.43062 121.92773 140.22993 121.46613 139.36914 120.54883 C 138.50835 119.63163 138.07814 118.3208 138.07812 116.61328 L 138.07812 115.70312 C 138.07813 113.89688 138.47344 112.50222 139.26367 111.52148 C 140.05391 110.54074 141.18748 110.05078 142.66211 110.05078 z M 154.19727 110.05078 C 156.1658 110.05078 157.17798 111.43068 157.23438 114.18945 L 157.23438 121.71289 L 154.22852 121.71289 L 154.22852 114.41016 C 154.22852 113.76104 154.13115 113.29319 153.93359 113.00391 C 153.74309 112.70758 153.40286 112.55859 152.91602 112.55859 C 152.37273 112.55859 151.94988 112.83713 151.64648 113.39453 L 151.64648 121.71484 L 148.64062 121.71484 L 148.64062 110.26172 L 151.45703 110.26172 L 151.54102 111.39453 C 152.21836 110.49846 153.10364 110.05078 154.19727 110.05078 z M 163.56445 110.05078 C 164.82742 110.05078 165.82209 110.44144 166.54883 111.22461 C 167.27556 112.00074 167.64606 113.10676 167.66016 114.53906 L 164.84375 114.53906 C 164.83669 113.89699 164.73196 113.40236 164.52734 113.05664 C 164.32273 112.71091 163.98445 112.53711 163.51172 112.53711 C 162.9896 112.53711 162.61445 112.72566 162.38867 113.09961 C 162.16289 113.46651 162.0434 114.18265 162.0293 115.24805 L 162.0293 116.41211 C 162.0293 117.34351 162.07432 117.99524 162.16602 118.36914 C 162.25774 118.73604 162.40942 119.00719 162.62109 119.18359 C 162.83276 119.35249 163.13342 119.4375 163.52148 119.4375 C 164.38933 119.4375 164.82965 118.87304 164.84375 117.74414 L 167.66016 117.74414 C 167.64604 118.99304 167.26082 120.00434 166.50586 120.77344 C 165.97357 121.31564 165.32592 121.65641 164.57617 121.81641 L 164.50586 122.26562 C 164.91509 122.35733 165.22854 122.55864 165.44727 122.86914 C 165.67305 123.18664 165.78711 123.5948 165.78711 124.0957 C 165.78711 124.8718 165.50662 125.48405 164.94922 125.93555 C 164.39182 126.38715 163.59578 126.61523 162.55859 126.61523 L 162.49414 124.8457 C 163.0092 124.8457 163.26758 124.55712 163.26758 123.97852 C 163.26758 123.69632 163.17563 123.49962 162.99219 123.38672 C 162.8158 123.27382 162.51243 123.20102 162.08203 123.16602 L 162.33984 121.79492 C 161.4621 121.60062 160.74881 121.18683 160.20898 120.54883 C 159.43286 119.63163 159.03754 118.2812 159.02344 116.49609 L 159.02344 115.58594 C 159.02344 113.78675 159.404 112.41421 160.16602 111.46875 C 160.93508 110.5233 162.06865 110.05078 163.56445 110.05078 z M 173.45898 110.05078 C 174.71489 110.05078 175.68474 110.37899 176.36914 111.03516 C 177.0606 111.68428 177.40625 112.61455 177.40625 113.82812 L 177.40625 119.2168 C 177.42036 120.2046 177.56196 120.9758 177.83008 121.5332 L 177.83008 121.71484 L 174.81445 121.71484 C 174.72979 121.53844 174.64525 121.24052 174.56055 120.82422 C 174.02432 121.55802 173.29614 121.92773 172.37891 121.92773 C 171.41934 121.92773 170.62329 121.60961 169.98828 120.97461 C 169.36033 120.33951 169.04688 119.51681 169.04688 118.50781 C 169.04687 117.30831 169.42744 116.37884 170.18945 115.72266 C 170.95852 115.06648 172.0626 114.73285 173.50195 114.71875 L 174.41211 114.71875 L 174.41211 113.79688 C 174.41211 113.28182 174.32288 112.9187 174.14648 112.70703 C 173.97009 112.49536 173.71367 112.38867 173.375 112.38867 C 172.6271 112.38867 172.25195 112.82626 172.25195 113.70117 L 169.25781 113.70117 C 169.25781 112.64282 169.65313 111.77229 170.44336 111.08789 C 171.24065 110.39644 172.24541 110.05078 173.45898 110.05078 z M 183.85156 110.05078 C 185.31208 110.05078 186.45303 110.5454 187.27148 111.5332 C 188.08994 112.52099 188.49805 113.88886 188.49805 115.63867 L 188.49805 116.36914 C 188.49805 118.1119 188.09265 119.47623 187.28125 120.45703 C 186.46985 121.43773 185.33357 121.92773 183.87305 121.92773 C 182.40547 121.92773 181.26377 121.43773 180.44531 120.45703 C 179.63391 119.46923 179.22656 118.09751 179.22656 116.34766 L 179.22656 115.61719 C 179.22656 113.8815 179.63662 112.52099 180.45508 111.5332 C 181.27354 110.5454 182.40515 110.05078 183.85156 110.05078 z M 124.28906 110.47461 L 122.84961 115.9668 L 125.72852 115.9668 L 124.28906 110.47461 z M 46.796875 112.53711 C 46.274756 112.53711 45.892236 112.72566 45.652344 113.09961 C 45.419507 113.47356 45.282564 114.07293 45.240234 114.89844 L 48.236328 114.89844 L 48.236328 114.62305 C 48.222217 113.93865 48.108154 113.41919 47.896484 113.06641 C 47.684814 112.71363 47.318994 112.53711 46.796875 112.53711 z M 81.277344 112.53711 C 80.769336 112.53711 80.371313 112.79277 80.082031 113.30078 C 79.799805 113.80173 79.658203 114.57295 79.658203 115.61719 L 79.658203 116.36914 C 79.658203 118.4153 80.2052 119.4375 81.298828 119.4375 C 82.307788 119.4375 82.850124 118.5844 82.927734 116.87695 L 82.939453 115.61719 C 82.939453 114.57295 82.793188 113.80173 82.503906 113.30078 C 82.214624 112.79277 81.806519 112.53711 81.277344 112.53711 z M 107.8418 112.53711 C 107.31968 112.53711 106.93911 112.72566 106.69922 113.09961 C 106.46638 113.47356 106.32746 114.07293 106.28516 114.89844 L 109.28125 114.89844 L 109.28125 114.62305 C 109.26714 113.93865 109.15308 113.41919 108.94141 113.06641 C 108.72974 112.71363 108.36392 112.53711 107.8418 112.53711 z M 142.64062 112.53711 C 142.11851 112.53711 141.73794 112.72566 141.49805 113.09961 C 141.26521 113.47356 141.12628 114.07293 141.08398 114.89844 L 144.08008 114.89844 L 144.08008 114.62305 C 144.06597 113.93865 143.9519 113.41919 143.74023 113.06641 C 143.52856 112.71363 143.16275 112.53711 142.64062 112.53711 z M 183.85156 112.53711 C 183.34355 112.53711 182.94553 112.79277 182.65625 113.30078 C 182.37402 113.80173 182.23242 114.57295 182.23242 115.61719 L 182.23242 116.36914 C 182.23242 118.4153 182.77942 119.4375 183.87305 119.4375 C 184.88201 119.4375 185.42631 118.5844 185.50391 116.87695 L 185.51367 115.61719 C 185.51367 114.57295 185.36936 113.80173 185.08008 113.30078 C 184.7908 112.79277 184.38074 112.53711 183.85156 112.53711 z M 96.982422 112.55859 C 96.43208 112.55859 96.031348 112.78205 95.777344 113.22656 C 95.52334 113.67107 95.394531 114.4617 95.394531 115.59766 L 95.394531 116.39062 C 95.394531 117.5195 95.515967 118.31022 95.755859 118.76172 C 95.995752 119.20622 96.401147 119.42773 96.972656 119.42773 C 97.565332 119.42773 98.013013 119.16582 98.316406 118.63672 L 98.316406 113.40625 C 98.020068 112.84179 97.575098 112.55859 96.982422 112.55859 z M 173.69141 116.51758 C 173.1834 116.51758 172.78267 116.67935 172.48633 117.00391 C 172.19705 117.32851 172.05078 117.76344 172.05078 118.30664 C 172.05078 119.15334 172.38363 119.57812 173.04688 119.57812 C 173.37848 119.57812 173.65974 119.5091 173.89258 119.375 C 174.12542 119.2409 174.29922 119.08194 174.41211 118.89844 L 174.41211 116.51758 L 173.69141 116.51758 z M 155.0332 127.13281 L 158.03906 127.13281 L 158.03906 143.39062 L 155.0332 143.39062 L 155.0332 127.13281 z M 83.964844 127.38672 C 84.45874 127.38672 84.854053 127.53563 85.150391 127.83203 C 85.446729 128.12833 85.595703 128.50891 85.595703 128.97461 C 85.595703 129.43321 85.446729 129.81574 85.150391 130.11914 C 84.861108 130.42254 84.465796 130.57422 83.964844 130.57422 C 83.463892 130.57422 83.065869 130.42254 82.769531 130.11914 C 82.480249 129.81574 82.335937 129.43321 82.335938 128.97461 C 82.335937 128.50891 82.482959 128.12833 82.779297 127.83203 C 83.075635 127.53563 83.470947 127.38672 83.964844 127.38672 z M 140.86133 127.38672 C 141.35522 127.38672 141.75054 127.53563 142.04688 127.83203 C 142.34321 128.12833 142.49219 128.50891 142.49219 128.97461 C 142.49219 129.43321 142.34321 129.81574 142.04688 130.11914 C 141.75759 130.42254 141.36228 130.57422 140.86133 130.57422 C 140.36038 130.57422 139.96235 130.42254 139.66602 130.11914 C 139.37673 129.81574 139.23242 129.43321 139.23242 128.97461 C 139.23242 128.50891 139.3814 128.12833 139.67773 127.83203 C 139.97407 127.53563 140.36743 127.38672 140.86133 127.38672 z M 60.300781 127.97852 L 65.550781 127.97852 C 67.074805 127.97852 68.288281 128.45294 69.191406 129.39844 C 70.101587 130.34384 70.556641 131.57213 70.556641 133.08203 C 70.556641 134.59192 70.107006 135.78525 69.210938 136.66016 C 68.314867 137.53506 67.073852 137.97266 65.486328 137.97266 L 63.412109 137.97266 L 63.412109 143.39062 L 60.300781 143.39062 L 60.300781 127.97852 z M 63.412109 130.57422 L 63.412109 135.37891 L 65.550781 135.37891 C 66.143457 135.37891 66.601221 135.18302 66.925781 134.79492 C 67.250342 134.40692 67.412109 133.84432 67.412109 133.10352 C 67.412109 132.33442 67.247632 131.72494 66.916016 131.27344 C 66.584399 130.81484 66.139429 130.58422 65.582031 130.57422 L 63.412109 130.57422 z M 76.271484 131.72852 C 77.527393 131.72852 78.532153 132.05012 79.287109 132.69922 C 80.042065 133.34832 80.419922 134.22271 80.419922 135.31641 L 77.423828 135.31641 C 77.423828 134.38501 77.035889 133.91602 76.259766 133.91602 C 75.942261 133.91602 75.681178 134.01724 75.476562 134.21484 C 75.271949 134.41234 75.169922 134.68822 75.169922 135.04102 C 75.169922 135.29502 75.283984 135.51734 75.509766 135.71484 C 75.735547 135.90534 76.267798 136.18122 77.107422 136.54102 C 78.328052 136.99262 79.188501 137.49924 79.689453 138.05664 C 80.197461 138.60694 80.451172 139.32123 80.451172 140.20312 C 80.451172 141.22622 80.067895 142.04902 79.298828 142.66992 C 78.529761 143.29082 77.520337 143.59961 76.271484 143.59961 C 75.43186 143.59961 74.690894 143.43972 74.048828 143.11523 C 73.406763 142.78363 72.902051 142.32583 72.535156 141.74023 C 72.175317 141.15463 71.996094 140.52115 71.996094 139.84375 L 74.841797 139.84375 C 74.855908 140.36595 74.975391 140.75843 75.201172 141.01953 C 75.434009 141.28053 75.811865 141.41211 76.333984 141.41211 C 77.13833 141.41211 77.541016 141.04701 77.541016 140.32031 C 77.541016 140.06631 77.41687 139.83475 77.169922 139.62305 C 76.930029 139.40435 76.390405 139.11104 75.550781 138.74414 C 74.31604 138.24314 73.465674 137.72565 73 137.18945 C 72.541382 136.65325 72.3125 135.98285 72.3125 135.18555 C 72.3125 134.18365 72.6729 133.36004 73.392578 132.71094 C 74.119311 132.05474 75.079077 131.72852 76.271484 131.72852 z M 91.976562 131.72852 C 93.239527 131.72852 94.234204 132.11914 94.960938 132.90234 C 95.68767 133.67844 96.058156 134.78254 96.072266 136.21484 L 93.257812 136.21484 C 93.250758 135.57274 93.144067 135.07812 92.939453 134.73242 C 92.734839 134.38662 92.396558 134.21484 91.923828 134.21484 C 91.401709 134.21484 91.028516 134.39954 90.802734 134.77344 C 90.576953 135.14034 90.455516 135.85843 90.441406 136.92383 L 90.441406 138.08594 C 90.441406 139.01734 90.488358 139.67102 90.580078 140.04492 C 90.671802 140.41182 90.823486 140.68493 91.035156 140.86133 C 91.246826 141.03023 91.547485 141.11523 91.935547 141.11523 C 92.803394 141.11523 93.243702 140.54882 93.257812 139.41992 L 96.072266 139.41992 C 96.058154 140.66882 95.674878 141.68012 94.919922 142.44922 C 94.164966 143.21822 93.190454 143.59961 91.998047 143.59961 C 90.523413 143.59961 89.397217 143.14181 88.621094 142.22461 C 87.844971 141.30741 87.45161 139.95893 87.4375 138.17383 L 87.4375 137.26172 C 87.4375 135.46252 87.818066 134.09003 88.580078 133.14453 C 89.349145 132.19913 90.480762 131.72852 91.976562 131.72852 z M 102.0625 131.72852 C 103.52302 131.72852 104.66397 132.21923 105.48242 133.20703 C 106.30088 134.19483 106.70898 135.56651 106.70898 137.31641 L 106.70898 138.04492 C 106.70898 139.78772 106.30359 141.14821 105.49219 142.12891 C 104.68079 143.10961 103.54451 143.59961 102.08398 143.59961 C 100.61641 143.59961 99.472754 143.10961 98.654297 142.12891 C 97.842896 141.14111 97.4375 139.77324 97.4375 138.02344 L 97.4375 137.29492 C 97.4375 135.55922 97.847559 134.19483 98.666016 133.20703 C 99.484473 132.21923 100.61609 131.72852 102.0625 131.72852 z M 112.38281 131.72852 C 113.63872 131.72852 114.64348 132.05012 115.39844 132.69922 C 116.15339 133.34832 116.53125 134.22271 116.53125 135.31641 L 113.53516 135.31641 C 113.53516 134.38501 113.14722 133.91602 112.37109 133.91602 C 112.05359 133.91602 111.79251 134.01724 111.58789 134.21484 C 111.38328 134.41234 111.28125 134.68822 111.28125 135.04102 C 111.28125 135.29502 111.39336 135.51734 111.61914 135.71484 C 111.84492 135.90534 112.37913 136.18122 113.21875 136.54102 C 114.43938 136.99262 115.29983 137.49924 115.80078 138.05664 C 116.30879 138.60694 116.5625 139.32123 116.5625 140.20312 C 116.5625 141.22622 116.17727 142.04902 115.4082 142.66992 C 114.63914 143.29082 113.63166 143.59961 112.38281 143.59961 C 111.54319 143.59961 110.80222 143.43972 110.16016 143.11523 C 109.51809 142.78363 109.01338 142.32583 108.64648 141.74023 C 108.28665 141.15463 108.10547 140.52115 108.10547 139.84375 L 110.95312 139.84375 C 110.96724 140.36595 111.08672 140.75843 111.3125 141.01953 C 111.54534 141.28053 111.92319 141.41211 112.44531 141.41211 C 113.24966 141.41211 113.65234 141.04701 113.65234 140.32031 C 113.65234 140.06631 113.5282 139.83475 113.28125 139.62305 C 113.04136 139.40435 112.50173 139.11104 111.66211 138.74414 C 110.42737 138.24314 109.577 137.72565 109.11133 137.18945 C 108.65271 136.65325 108.42383 135.98285 108.42383 135.18555 C 108.42383 134.18365 108.78423 133.36004 109.50391 132.71094 C 110.23064 132.05474 111.1904 131.72852 112.38281 131.72852 z M 122.72266 131.72852 C 124.18318 131.72852 125.32216 132.21923 126.14062 133.20703 C 126.95907 134.19483 127.36914 135.56651 127.36914 137.31641 L 127.36914 138.04492 C 127.36914 139.78772 126.96179 141.14821 126.15039 142.12891 C 125.33899 143.10961 124.20466 143.59961 122.74414 143.59961 C 121.27656 143.59961 120.13291 143.10961 119.31445 142.12891 C 118.50305 141.14111 118.09766 139.77324 118.09766 138.02344 L 118.09766 137.29492 C 118.09766 135.55922 118.50576 134.19483 119.32422 133.20703 C 120.14268 132.21923 121.27625 131.72852 122.72266 131.72852 z M 133.42188 131.72852 C 134.68484 131.72852 135.67952 132.11914 136.40625 132.90234 C 137.13298 133.67844 137.50348 134.78254 137.51758 136.21484 L 134.70312 136.21484 C 134.69607 135.57274 134.58938 135.07812 134.38477 134.73242 C 134.18015 134.38662 133.84187 134.21484 133.36914 134.21484 C 132.84702 134.21484 132.47383 134.39954 132.24805 134.77344 C 132.02227 135.14034 131.90082 135.85843 131.88672 136.92383 L 131.88672 138.08594 C 131.88672 139.01734 131.93369 139.67102 132.02539 140.04492 C 132.11711 140.41182 132.2688 140.68493 132.48047 140.86133 C 132.69214 141.03023 132.99084 141.11523 133.37891 141.11523 C 134.24675 141.11523 134.68902 140.54882 134.70312 139.41992 L 137.51758 139.41992 C 137.50347 140.66882 137.11824 141.68012 136.36328 142.44922 C 135.60833 143.21822 134.63577 143.59961 133.44336 143.59961 C 131.96873 143.59961 130.84253 143.14181 130.06641 142.22461 C 129.29028 141.30741 128.89496 139.95893 128.88086 138.17383 L 128.88086 137.26172 C 128.88086 135.46252 129.26338 134.09003 130.02539 133.14453 C 130.79446 132.19913 131.92606 131.72852 133.42188 131.72852 z M 148.7793 131.72852 C 150.03521 131.72852 151.00505 132.05474 151.68945 132.71094 C 152.38091 133.36004 152.72656 134.29031 152.72656 135.50391 L 152.72656 140.89062 C 152.74067 141.87842 152.88228 142.65354 153.15039 143.21094 L 153.15039 143.39062 L 150.13281 143.39062 C 150.04814 143.21422 149.96361 142.91825 149.87891 142.50195 C 149.34268 143.23575 148.61646 143.59961 147.69922 143.59961 C 146.73965 143.59961 145.94165 143.28344 145.30664 142.64844 C 144.67869 142.01344 144.36523 141.19064 144.36523 140.18164 C 144.36523 138.98224 144.7458 138.05464 145.50781 137.39844 C 146.27688 136.74234 147.38096 136.40853 148.82031 136.39453 L 149.73047 136.39453 L 149.73047 135.47461 C 149.73047 134.95951 149.64319 134.59451 149.4668 134.38281 C 149.29041 134.17111 149.03203 134.06641 148.69336 134.06641 C 147.94546 134.06641 147.57227 134.50401 147.57227 135.37891 L 144.57617 135.37891 C 144.57617 134.32051 144.97148 133.45002 145.76172 132.76562 C 146.55901 132.07412 147.56572 131.72852 148.7793 131.72852 z M 82.472656 131.93945 L 85.478516 131.93945 L 85.478516 143.39062 L 82.472656 143.39062 L 82.472656 131.93945 z M 139.36914 131.93945 L 142.375 131.93945 L 142.375 143.39062 L 139.36914 143.39062 L 139.36914 131.93945 z M 102.0625 134.21484 C 101.55449 134.21484 101.15647 134.46661 100.86719 134.97461 C 100.58496 135.47561 100.44336 136.25062 100.44336 137.29492 L 100.44336 138.04492 C 100.44336 140.09112 100.99036 141.11523 102.08398 141.11523 C 103.09294 141.11523 103.63724 140.26023 103.71484 138.55273 L 103.72461 137.29492 C 103.72461 136.25062 103.5803 135.47561 103.29102 134.97461 C 103.00173 134.46661 102.59167 134.21484 102.0625 134.21484 z M 122.72266 134.21484 C 122.21465 134.21484 121.81467 134.46661 121.52539 134.97461 C 121.24316 135.47561 121.10352 136.25062 121.10352 137.29492 L 121.10352 138.04492 C 121.10352 140.09112 121.65051 141.11523 122.74414 141.11523 C 123.7531 141.11523 124.29545 140.26023 124.37305 138.55273 L 124.38281 137.29492 C 124.38281 136.25062 124.2385 135.47561 123.94922 134.97461 C 123.65994 134.46661 123.25183 134.21484 122.72266 134.21484 z M 149.01172 138.19141 C 148.50371 138.19141 148.10103 138.35704 147.80469 138.68164 C 147.51541 139.00614 147.37109 139.43912 147.37109 139.98242 C 147.37109 140.82902 147.702 141.25195 148.36523 141.25195 C 148.69685 141.25195 148.98005 141.18293 149.21289 141.04883 C 149.44573 140.91483 149.61758 140.75772 149.73047 140.57422 L 149.73047 138.19141 L 149.01172 138.19141 z M 47.939453 145.52734 L 51.304688 145.52734 L 48.363281 148.80664 L 45.865234 148.80664 L 47.939453 145.52734 z M 55.019531 148.80664 L 58.025391 148.80664 L 58.025391 165.06641 L 55.019531 165.06641 L 55.019531 148.80664 z M 92.0625 148.80664 L 95.066406 148.80664 L 95.066406 165.06641 L 92.0625 165.06641 L 92.0625 148.80664 z M 45.886719 149.65625 L 48.732422 149.65625 L 53.580078 165.06641 L 50.255859 165.06641 L 49.431641 161.91211 L 45.1875 161.91211 L 44.361328 165.06641 L 41.070312 165.06641 L 45.886719 149.65625 z M 117.89648 149.65625 L 121.9707 149.65625 C 123.7699 149.65625 125.20217 150.22614 126.26758 151.36914 C 127.34004 152.51224 127.887 154.08061 127.9082 156.07031 L 127.9082 158.56641 C 127.9082 160.59141 127.37129 162.18274 126.29883 163.33984 C 125.23342 164.48994 123.76353 165.06641 121.88672 165.06641 L 117.89648 165.06641 L 117.89648 149.65625 z M 121.00781 152.24805 L 121.00781 162.48242 L 121.93945 162.48242 C 122.97664 162.48242 123.70557 162.20933 124.12891 161.66602 C 124.55225 161.11572 124.77568 160.17263 124.79688 158.83203 L 124.79688 156.15234 C 124.79687 154.71304 124.59553 153.71284 124.19336 153.14844 C 123.79119 152.57694 123.10725 152.27605 122.14062 152.24805 L 121.00781 152.24805 z M 64.523438 153.40234 C 65.7864 153.40234 66.78108 153.79491 67.507812 154.57812 C 68.234547 155.35423 68.605031 156.45832 68.619141 157.89062 L 65.804688 157.89062 C 65.797631 157.24851 65.690942 156.75205 65.486328 156.40625 C 65.281714 156.06056 64.943433 155.89062 64.470703 155.89062 C 63.948584 155.89062 63.573437 156.07532 63.347656 156.44922 C 63.121875 156.81612 63.002391 157.53421 62.988281 158.59961 L 62.988281 159.76172 C 62.988281 160.69312 63.035233 161.34485 63.126953 161.71875 C 63.218677 162.08565 63.370361 162.36071 63.582031 162.53711 C 63.793701 162.70601 64.092407 162.79102 64.480469 162.79102 C 65.348315 162.79102 65.790577 162.2246 65.804688 161.0957 L 68.619141 161.0957 C 68.605029 162.3446 68.2198 163.35199 67.464844 164.12109 C 66.709888 164.89019 65.737329 165.27734 64.544922 165.27734 C 63.070288 165.27734 61.944092 164.81954 61.167969 163.90234 C 60.391846 162.98514 59.996532 161.6308 59.982422 159.8457 L 59.982422 158.93555 C 59.982422 157.13645 60.364941 155.76571 61.126953 154.82031 C 61.89602 153.87482 63.027636 153.40234 64.523438 153.40234 z M 74.609375 153.40234 C 76.069897 153.40234 77.208887 153.89501 78.027344 154.88281 C 78.845801 155.87061 79.255859 157.24043 79.255859 158.99023 L 79.255859 159.71875 C 79.255859 161.46155 78.850465 162.82584 78.039062 163.80664 C 77.227661 164.78734 76.091382 165.27734 74.630859 165.27734 C 73.163281 165.27734 72.019629 164.78734 71.201172 163.80664 C 70.389771 162.81884 69.984375 161.44902 69.984375 159.69922 L 69.984375 158.96875 C 69.984375 157.23305 70.394434 155.87061 71.212891 154.88281 C 72.031348 153.89501 73.162964 153.40234 74.609375 153.40234 z M 85.404297 153.40234 C 86.864819 153.40234 88.003809 153.89501 88.822266 154.88281 C 89.640723 155.87061 90.050781 157.24043 90.050781 158.99023 L 90.050781 159.71875 C 90.050781 161.46155 89.645386 162.82584 88.833984 163.80664 C 88.022583 164.78734 86.886304 165.27734 85.425781 165.27734 C 83.958203 165.27734 82.814551 164.78734 81.996094 163.80664 C 81.184692 162.81884 80.779297 161.44902 80.779297 159.69922 L 80.779297 158.96875 C 80.779297 157.23305 81.189356 155.87061 82.007812 154.88281 C 82.82627 153.89501 83.957886 153.40234 85.404297 153.40234 z M 106.69922 153.40234 C 108.13857 153.40234 109.22053 153.86281 109.94727 154.78711 C 110.674 155.70431 111.04449 157.06685 111.05859 158.87305 L 111.05859 160.34375 L 105.09961 160.34375 C 105.14194 161.19045 105.33049 161.81193 105.66211 162.20703 C 105.99373 162.59514 106.50386 162.79102 107.19531 162.79102 C 108.19722 162.79102 109.03479 162.44612 109.70508 161.76172 L 110.87891 163.57422 C 110.51201 164.08222 109.97976 164.49304 109.28125 164.81055 C 108.58274 165.12105 107.82432 165.27734 107.00586 165.27734 C 105.46773 165.27734 104.26704 164.81954 103.40625 163.90234 C 102.54546 162.98513 102.11523 161.67234 102.11523 159.96484 L 102.11523 159.05273 C 102.11523 157.24653 102.51055 155.85375 103.30078 154.87305 C 104.09102 153.89235 105.22459 153.40234 106.69922 153.40234 z M 134.83984 153.40234 C 135.17852 153.40234 135.45435 153.44902 135.66602 153.54102 L 135.63477 156.50391 L 134.63867 156.41602 C 133.82021 156.41602 133.26584 156.77639 132.97656 157.49609 L 132.97656 165.06641 L 129.97266 165.06641 L 129.97266 153.61523 L 132.79688 153.61523 L 132.88281 154.85352 C 133.35554 153.88682 134.00728 153.40234 134.83984 153.40234 z M 141.07422 153.40234 C 142.53474 153.40234 143.67373 153.89501 144.49219 154.88281 C 145.31064 155.87061 145.7207 157.24043 145.7207 158.99023 L 145.7207 159.71875 C 145.7207 161.46155 145.31335 162.82584 144.50195 163.80664 C 143.69055 164.78734 142.55623 165.27734 141.0957 165.27734 C 139.62813 165.27734 138.48447 164.78734 137.66602 163.80664 C 136.85461 162.81884 136.44922 161.44902 136.44922 159.69922 L 136.44922 158.96875 C 136.44922 157.23305 136.85732 155.87061 137.67578 154.88281 C 138.49424 153.89501 139.62781 153.40234 141.07422 153.40234 z M 151.0957 153.40234 C 152.13289 153.40234 152.93359 153.81041 153.49805 154.62891 L 153.61523 153.61523 L 156.31445 153.61523 L 156.31445 165.06641 C 156.31445 166.52691 155.90439 167.6391 155.08594 168.4082 C 154.26748 169.1843 153.09358 169.57227 151.5625 169.57227 C 150.93455 169.57227 150.27349 169.44541 149.58203 169.19141 C 148.89058 168.94451 148.37578 168.62628 148.03711 168.23828 L 149.04297 166.16602 C 149.3252 166.46231 149.69297 166.70321 150.14453 166.88672 C 150.59609 167.07682 151.02166 167.16992 151.42383 167.16992 C 152.09412 167.16992 152.574 167.01015 152.86328 166.68555 C 153.15962 166.36805 153.31136 165.85322 153.31836 165.14062 L 153.31836 164.1543 C 152.74685 164.90221 152.00317 165.27734 151.08594 165.27734 C 149.86531 165.27734 148.92029 164.80292 148.25 163.85742 C 147.58677 162.90492 147.24652 161.56463 147.23242 159.83594 L 147.23242 158.99023 C 147.23242 157.11343 147.57266 155.7114 148.25 154.78711 C 148.92734 153.8628 149.87507 153.40234 151.0957 153.40234 z M 162.60156 153.40234 C 163.85747 153.40234 164.82732 153.73052 165.51172 154.38672 C 166.20317 155.03582 166.54883 155.96804 166.54883 157.18164 L 166.54883 162.56641 C 166.56294 163.55421 166.70259 164.32541 166.9707 164.88281 L 166.9707 165.06641 L 163.95508 165.06641 C 163.87041 164.89001 163.78587 164.59013 163.70117 164.17383 C 163.16494 164.90763 162.43872 165.27734 161.52148 165.27734 C 160.56191 165.27734 159.76392 164.95922 159.12891 164.32422 C 158.50095 163.68922 158.1875 162.86642 158.1875 161.85742 C 158.1875 160.65802 158.56807 159.73042 159.33008 159.07422 C 160.09915 158.41802 161.20322 158.08431 162.64258 158.07031 L 163.55273 158.07031 L 163.55273 157.14844 C 163.55273 156.63335 163.46545 156.26834 163.28906 156.05664 C 163.11267 155.84505 162.85431 155.74023 162.51562 155.74023 C 161.76773 155.74023 161.39453 156.17782 161.39453 157.05273 L 158.39844 157.05273 C 158.39844 155.99443 158.79375 155.12385 159.58398 154.43945 C 160.38127 153.74795 161.38799 153.40234 162.60156 153.40234 z M 172.51758 153.40234 C 173.77349 153.40234 174.77825 153.72785 175.5332 154.37695 C 176.28816 155.02605 176.66602 155.89663 176.66602 156.99023 L 173.67188 156.99023 C 173.67188 156.05883 173.28198 155.59375 172.50586 155.59375 C 172.18835 155.59375 171.92727 155.69303 171.72266 155.89062 C 171.51804 156.08812 171.41602 156.36204 171.41602 156.71484 C 171.41602 156.96884 171.53008 157.19313 171.75586 157.39062 C 171.98164 157.58112 172.51389 157.85895 173.35352 158.21875 C 174.57415 158.67035 175.43459 159.17502 175.93555 159.73242 C 176.44355 160.28272 176.69727 160.99691 176.69727 161.87891 C 176.69727 162.90201 176.31399 163.72295 175.54492 164.34375 C 174.77585 164.96465 173.76643 165.27734 172.51758 165.27734 C 171.67795 165.27734 170.93699 165.11552 170.29492 164.79102 C 169.65286 164.45932 169.14814 163.99771 168.78125 163.41211 C 168.42141 162.82651 168.24219 162.19683 168.24219 161.51953 L 171.08789 161.51953 C 171.102 162.04163 171.22344 162.43421 171.44922 162.69531 C 171.68206 162.95631 172.05796 163.08594 172.58008 163.08594 C 173.38442 163.08594 173.78711 162.72094 173.78711 161.99414 C 173.78711 161.74014 173.66296 161.51043 173.41602 161.29883 C 173.17612 161.08003 172.63649 160.78682 171.79688 160.41992 C 170.56212 159.91891 169.71177 159.39763 169.24609 158.86133 C 168.78748 158.32513 168.55859 157.65863 168.55859 156.86133 C 168.55859 155.85943 168.91899 155.03582 169.63867 154.38672 C 170.36541 153.73051 171.32517 153.40234 172.51758 153.40234 z M 47.304688 153.82422 L 45.865234 159.31641 L 48.744141 159.31641 L 47.304688 153.82422 z M 74.609375 155.89062 C 74.101367 155.89062 73.703345 156.14433 73.414062 156.65234 C 73.131837 157.15324 72.990234 157.9226 72.990234 158.9668 L 72.990234 159.71875 C 72.990234 161.76495 73.537231 162.79102 74.630859 162.79102 C 75.639819 162.79102 76.182156 161.93592 76.259766 160.22852 L 76.271484 158.9668 C 76.271484 157.92261 76.127173 157.15324 75.837891 156.65234 C 75.548608 156.14433 75.13855 155.89062 74.609375 155.89062 z M 85.404297 155.89062 C 84.896289 155.89062 84.498267 156.14433 84.208984 156.65234 C 83.926758 157.15324 83.785156 157.9226 83.785156 158.9668 L 83.785156 159.71875 C 83.785156 161.76495 84.332153 162.79102 85.425781 162.79102 C 86.434741 162.79102 86.977077 161.93592 87.054688 160.22852 L 87.066406 158.9668 C 87.066406 157.92261 86.922095 157.15324 86.632812 156.65234 C 86.34353 156.14433 85.933472 155.89062 85.404297 155.89062 z M 106.67773 155.89062 C 106.15561 155.89062 105.77505 156.07532 105.53516 156.44922 C 105.30232 156.82322 105.16339 157.42255 105.12109 158.24805 L 108.11719 158.24805 L 108.11719 157.97461 C 108.10308 157.2902 107.98901 156.76882 107.77734 156.41602 C 107.56567 156.06323 107.19985 155.89062 106.67773 155.89062 z M 141.07422 155.89062 C 140.56621 155.89062 140.16624 156.14433 139.87695 156.65234 C 139.59473 157.15324 139.45508 157.9226 139.45508 158.9668 L 139.45508 159.71875 C 139.45508 161.76495 140.00208 162.79102 141.0957 162.79102 C 142.10466 162.79102 142.64701 161.93592 142.72461 160.22852 L 142.73633 158.9668 C 142.73633 157.92261 142.59006 157.15324 142.30078 156.65234 C 142.0115 156.14433 141.60339 155.89062 141.07422 155.89062 z M 151.97461 155.91016 C 151.38193 155.91016 150.94163 156.15373 150.65234 156.64062 C 150.37012 157.12743 150.22852 157.91073 150.22852 158.99023 L 150.22852 159.74219 C 150.22852 160.80059 150.36545 161.57376 150.64062 162.06055 C 150.91581 162.54035 151.3534 162.7793 151.95312 162.7793 C 152.56697 162.7793 153.02202 162.55779 153.31836 162.11328 L 153.31836 156.64062 C 153.00791 156.15373 152.56023 155.91016 151.97461 155.91016 z M 162.83398 159.86914 C 162.32598 159.86914 161.92329 160.03097 161.62695 160.35547 C 161.33767 160.68007 161.19336 161.115 161.19336 161.6582 C 161.19336 162.5049 161.52427 162.92773 162.1875 162.92773 C 162.51912 162.92773 162.80232 162.86066 163.03516 162.72656 C 163.26799 162.59256 163.43984 162.43351 163.55273 162.25 L 163.55273 159.86914 L 162.83398 159.86914 z "
       transform="translate(0,832.36216)"
       id="rect4157" />
  </g>
</svg>
