<?xml version="1.0" encoding="UTF-8" standalone="no"?>
<!-- Created with Inkscape (http://www.inkscape.org/) -->

<svg
   xmlns:dc="http://purl.org/dc/elements/1.1/"
   xmlns:cc="http://creativecommons.org/ns#"
   xmlns:rdf="http://www.w3.org/1999/02/22-rdf-syntax-ns#"
   xmlns:svg="http://www.w3.org/2000/svg"
   xmlns="http://www.w3.org/2000/svg"
   xmlns:sodipodi="http://sodipodi.sourceforge.net/DTD/sodipodi-0.dtd"
   xmlns:inkscape="http://www.inkscape.org/namespaces/inkscape"
   width="220"
   height="220"
   viewBox="0 0 220 220"
   id="svg6980"
   version="1.1"
   inkscape:version="0.91 r13725"
   sodipodi:docname="ufu_calendario_administrativo.svg">
  <defs
     id="defs6982" />
  <sodipodi:namedview
     id="base"
     pagecolor="#ffffff"
     bordercolor="#666666"
     borderopacity="1.0"
     inkscape:pageopacity="0.0"
     inkscape:pageshadow="2"
     inkscape:zoom="2.9590909"
     inkscape:cx="110"
     inkscape:cy="110"
     inkscape:document-units="px"
     inkscape:current-layer="layer1"
     showgrid="false"
     fit-margin-top="0"
     fit-margin-left="0"
     fit-margin-right="0"
     fit-margin-bottom="0"
     units="px"
     inkscape:window-width="1440"
     inkscape:window-height="847"
     inkscape:window-x="-8"
     inkscape:window-y="-8"
     inkscape:window-maximized="1" />
  <metadata
     id="metadata6985">
    <rdf:RDF>
      <cc:Work
         rdf:about="">
        <dc:format>image/svg+xml</dc:format>
        <dc:type
           rdf:resource="http://purl.org/dc/dcmitype/StillImage" />
        <dc:title></dc:title>
      </cc:Work>
    </rdf:RDF>
  </metadata>
  <g
     inkscape:label="Camada 1"
     inkscape:groupmode="layer"
     id="layer1"
     transform="translate(-440.47903,-506.33921)">
    <path
       inkscape:connector-curvature="0"
       style="color:#000000;clip-rule:nonzero;display:inline;overflow:visible;visibility:visible;opacity:1;isolation:auto;mix-blend-mode:normal;color-interpolation:sRGB;color-interpolation-filters:linearRGB;solid-color:#000000;solid-opacity:1;fill:#ffffff;fill-opacity:1;fill-rule:nonzero;stroke:none;stroke-width:5;stroke-linecap:square;stroke-linejoin:miter;stroke-miterlimit:4;stroke-dasharray:none;stroke-dashoffset:0;stroke-opacity:1;color-rendering:auto;image-rendering:auto;shape-rendering:auto;text-rendering:auto;enable-background:accumulate"
       d="m 440.47903,506.33921 0,220 220,0 0,-220 -220,0 z m 114.04101,31.0625 1.7168,0 c 2.60884,0 4.72461,2.11456 4.72461,4.72266 l 0,3.75586 0,14.15625 c 0,2.60859 -2.11577,4.72461 -4.72461,4.72461 l -1.7168,0 c -2.60884,0 -4.72411,-2.11577 -4.72461,-4.72461 l 0,-14.15625 0,-3.75586 c 0,-2.6081 2.11528,-4.72266 4.72461,-4.72266 z m -60.59179,0.11524 1.71679,0 c 2.60909,0 4.72461,2.11626 4.72461,4.72461 l 0,4.87695 0,13.03515 c 0,2.60835 -2.11552,4.72461 -4.72461,4.72461 l -1.71679,0 c -2.60884,0 -4.72461,-2.11626 -4.72461,-4.72461 l 0,-13.03515 0,-4.87695 c 0,-2.60835 2.11577,-4.72461 4.72461,-4.72461 z m -21.64454,9.60156 13.08204,0 0,13.03515 c 0,4.7223 3.84045,8.56446 8.5625,8.56446 l 1.71679,0 c 4.72229,0 8.56446,-3.84216 8.56446,-8.56446 l 0,-13.03515 41.74804,0 0,12.91797 c 0,4.72229 3.84021,8.56445 8.5625,8.56445 l 1.7168,0 c 4.7218,0 8.56445,-2.60388 8.56445,-7.32617 l 0,-14.15625 12.12305,0 c 4.23457,0 7.68018,3.44511 7.67969,7.67969 l 0,92.80078 c 0,4.23482 -3.44512,7.67968 -7.67969,7.67968 l -104.64063,0 c -4.23454,0 -7.67968,-3.44486 -7.67968,-7.67968 l 0,-92.80078 c 0,-4.23482 3.44514,-7.67969 7.67968,-7.67969 z m 0,30.39844 0,70.08203 104.64063,0 c 0.003,0 0.005,-0.002 0.006,-0.002 l -0.004,-70.08007 -104.64258,0 z m 56.28516,9.58789 13.78906,0 c 0.54662,0 0.99024,0.44362 0.99024,0.99023 l 0,11.93945 c 0,0.54662 -0.44362,0.99024 -0.99024,0.99024 l -13.78906,0 c -0.54661,0 -0.99023,-0.44362 -0.99023,-0.99024 l 0,-11.93945 c 0,-0.54661 0.44362,-0.99023 0.99023,-0.99023 z m 22.50391,0 13.79101,0 c 0.54662,0 0.98828,0.44362 0.98828,0.99023 l 0,11.93945 c 0,0.54662 -0.44166,0.99024 -0.98828,0.99024 l -13.79101,0 c -0.54661,0 -0.98828,-0.44362 -0.98828,-0.99024 l 0,-11.93945 c 0,-0.54661 0.44167,-0.99023 0.98828,-0.99023 z m -67.51172,19.54882 13.78906,0 c 0.54661,0 0.99024,0.44167 0.99024,0.98828 l 0,11.94141 c 0,0.54661 -0.44363,0.99024 -0.99024,0.99024 l -13.78906,0 c -0.54661,-10e-6 -0.98828,-0.44363 -0.98828,-0.99024 l 0,-11.94141 c 0,-0.54661 0.44167,-0.98828 0.98828,-0.98828 z m 22.50391,0 13.78906,0 c 0.54661,0 0.99023,0.44167 0.99023,0.98828 l 0,11.94141 c 0,0.54661 -0.44362,0.99024 -0.99023,0.99024 l -13.78906,0 c -0.54662,-10e-6 -0.98829,-0.44363 -0.98829,-0.99024 l 0,-11.94141 c 0,-0.54661 0.44167,-0.98828 0.98829,-0.98828 z m 22.5039,0 13.78906,0 c 0.54662,0 0.99024,0.44167 0.99024,0.98828 l 0,11.94141 c 0,0.54661 -0.44362,0.99024 -0.99024,0.99024 l -13.78906,0 c -0.54661,-10e-6 -0.98828,-0.44363 -0.98828,-0.99024 l 0,-11.94141 c 0,-0.54661 0.44167,-0.98828 0.98828,-0.98828 z m 22.50391,0 13.79101,0 c 0.54662,0 0.98828,0.44167 0.98828,0.98828 l 0,11.94141 c 0,0.54661 -0.44166,0.99024 -0.98828,0.99024 l -13.79101,0 c -0.54661,-10e-6 -0.98828,-0.44363 -0.98828,-0.99024 l 0,-11.94141 c 0,-0.54661 0.44167,-0.98828 0.98828,-0.98828 z m -67.50977,19.54688 13.78711,0 c 0.54661,0 0.98999,0.44362 0.99024,0.99023 l 0,11.94141 c 0,0.54661 -0.44167,0.99023 -0.98829,0.99023 l -13.78906,0 c -0.54661,0 -0.99023,-0.44362 -0.99023,-0.99023 l 0,-11.94141 c 0,-0.54661 0.44362,-0.99023 0.99023,-0.99023 z m 22.50196,0 13.79101,0 c 0.54661,0 0.98828,0.44362 0.98828,0.99023 l 0,11.94141 c 0,0.54661 -0.44167,0.99023 -0.98828,0.99023 l -13.79101,0 c -0.54662,0 -0.98829,-0.44362 -0.98829,-0.99023 l 0,-11.94141 c 0,-0.54661 0.44167,-0.99023 0.98829,-0.99023 z m 22.5039,0 13.79102,0 c 0.54661,0 0.98828,0.44362 0.98828,0.99023 l 0,11.94141 c 0,0.54661 -0.44167,0.99023 -0.98828,0.99023 l -13.79102,0 c -0.54661,0 -0.98828,-0.44362 -0.98828,-0.99023 l 0,-11.94141 c 0,-0.54661 0.44167,-0.99023 0.98828,-0.99023 z m 22.50391,0 13.79101,0 c 0.54662,0 0.98828,0.44362 0.98828,0.99023 l 0,11.94141 c 0,0.54661 -0.44166,0.99023 -0.98828,0.99023 l -13.79101,0 c -0.54661,0 -0.98828,-0.44362 -0.98828,-0.99023 l 0,-11.94141 c 0,-0.54661 0.44167,-0.99023 0.98828,-0.99023 z m 48.8789,35.13867 16.54493,0 8.29687,8.26367 -8.31445,0 -3.07813,3.07813 0,15.125 -1.80664,1.80664 -9.85351,0 -1.78907,-1.79102 0,-26.48242 z m -4.2832,4.2832 0,24.02344 4.2832,4.28125 9.82032,0 5.48632,-5.48633 0,-14.95508 2.125,-2.14257 9.11719,0 1.74024,1.70703 -10.00391,0 -1.17188,1.16992 0,15.14062 -11.97851,11.97852 -5.16797,0 -11.67773,-11.69336 0,-16.5957 7.42773,-7.42774 z m 23.4375,9.15039 9.06836,0 0,14.83985 -11.71094,11.72656 -8.91601,0 -0.0176,-0.0176 11.25781,-11.25781 0,-14.97266 0.31836,-0.31836 z"
       id="rect6146" />
  </g>
</svg>
