<?xml version="1.0" encoding="UTF-8" standalone="no"?>
<!-- Created with Inkscape (http://www.inkscape.org/) -->

<svg
   xmlns:dc="http://purl.org/dc/elements/1.1/"
   xmlns:cc="http://creativecommons.org/ns#"
   xmlns:rdf="http://www.w3.org/1999/02/22-rdf-syntax-ns#"
   xmlns:svg="http://www.w3.org/2000/svg"
   xmlns="http://www.w3.org/2000/svg"
   xmlns:sodipodi="http://sodipodi.sourceforge.net/DTD/sodipodi-0.dtd"
   xmlns:inkscape="http://www.inkscape.org/namespaces/inkscape"
   width="220"
   height="220"
   viewBox="0 0 220 220"
   id="svg2"
   version="1.1"
   inkscape:version="0.91 r13725"
   sodipodi:docname="ufu_estudante.svg">
  <defs
     id="defs4" />
  <sodipodi:namedview
     id="base"
     pagecolor="#ffffff"
     bordercolor="#666666"
     borderopacity="1.0"
     inkscape:pageopacity="0.0"
     inkscape:pageshadow="2"
     inkscape:zoom="2.9590909"
     inkscape:cx="110"
     inkscape:cy="110"
     inkscape:document-units="px"
     inkscape:current-layer="layer1"
     showgrid="false"
     units="px"
     inkscape:window-width="1440"
     inkscape:window-height="847"
     inkscape:window-x="-8"
     inkscape:window-y="-8"
     inkscape:window-maximized="1" />
  <metadata
     id="metadata7">
    <rdf:RDF>
      <cc:Work
         rdf:about="">
        <dc:format>image/svg+xml</dc:format>
        <dc:type
           rdf:resource="http://purl.org/dc/dcmitype/StillImage" />
        <dc:title />
      </cc:Work>
    </rdf:RDF>
  </metadata>
  <g
     inkscape:label="Camada 1"
     inkscape:groupmode="layer"
     id="layer1"
     transform="translate(0,-832.36216)">
    <path
       style="color:#000000;clip-rule:nonzero;display:inline;overflow:visible;visibility:visible;opacity:1;isolation:auto;mix-blend-mode:normal;color-interpolation:sRGB;color-interpolation-filters:linearRGB;solid-color:#000000;solid-opacity:1;fill:#ffffff;fill-opacity:1;fill-rule:nonzero;stroke:none;stroke-width:5;stroke-linecap:square;stroke-linejoin:miter;stroke-miterlimit:4;stroke-dasharray:none;stroke-dashoffset:0;stroke-opacity:1;color-rendering:auto;image-rendering:auto;shape-rendering:auto;text-rendering:auto;enable-background:accumulate"
       d="M 0 0 L 0 220 L 220 220 L 220 0 L 0 0 z M 86.513672 20 L 130.3125 20 C 132.81129 20 133.91211 21.337855 133.91211 23.011719 L 133.91211 41.230469 C 133.91211 42.89633 132.5648 44.242188 130.90039 44.242188 C 129.22253 44.242188 127.88672 42.789759 127.88672 41.230469 L 127.88672 26.023438 L 125.14062 26.023438 L 125.14062 38.060547 L 91.685547 38.060547 L 91.685547 26.023438 L 86.513672 26.023438 C 84.019244 26.023437 82.914062 24.68631 82.914062 23.011719 C 82.914062 21.338219 84.019244 20 86.513672 20 z M 91.574219 43.234375 L 91.685547 43.234375 L 125.04102 43.234375 C 125.05847 43.566456 125.14062 43.883664 125.14062 44.222656 C 125.14062 53.51911 117.61169 61.052734 108.30469 61.052734 C 99.008961 61.052734 91.474609 53.519474 91.474609 44.222656 C 91.474609 43.883664 91.549849 43.566456 91.574219 43.234375 z M 95.427734 64.296875 L 121.56836 64.296875 C 125.06958 64.296875 127.99854 65.505628 129.41016 68.597656 L 153.41406 121.18945 C 155.06719 124.80525 153.47185 129.07452 149.85352 130.72656 C 146.24718 132.36769 141.96967 130.79731 140.31836 127.16406 L 130.92969 106.60352 L 134.25781 170.26953 C 134.31601 171.35234 133.92287 172.41298 133.17578 173.20117 C 132.42833 173.98645 131.39441 174.43359 130.30469 174.43359 L 128.74219 174.43359 L 128.74219 191.36133 C 128.74219 196.13195 124.87132 200 120.09961 200 C 115.32753 200 111.45703 196.13195 111.45703 191.36133 L 111.45703 174.43359 L 105.16406 174.43359 L 105.16406 191.36133 C 105.16406 196.13195 101.29356 200 96.521484 200 C 91.751591 200 87.878906 196.13195 87.878906 191.36133 L 87.878906 174.43359 L 86.326172 174.43359 C 85.243362 174.43359 84.195623 173.98641 83.455078 173.19531 C 82.701439 172.40421 82.313799 171.34217 82.378906 170.25391 L 85.373047 116.82422 C 87.679793 117.32725 94.433118 118.9707 96.560547 118.9707 C 100.96817 118.9707 105.02157 116.62203 107.26758 112.90039 L 116.48047 109.38477 C 121.52788 107.46102 123.99335 101.82192 122.0918 96.841797 L 112.58594 71.947266 C 110.69129 66.973686 105.0807 64.412195 100.04492 66.335938 L 88.091797 70.904297 L 84.513672 72.267578 L 87.832031 67.482422 C 89.543359 65.022548 92.326976 64.296875 95.427734 64.296875 z M 103.63867 71.460938 C 105.17921 71.514184 106.61775 72.466167 107.20508 74.003906 L 116.71094 98.896484 C 117.49404 100.95953 116.4465 103.23476 114.42383 104.00586 L 109.04492 106.05859 C 108.89288 100.43213 104.96243 95.410873 99.214844 94.158203 L 85.220703 91.099609 L 82.320312 83.507812 C 81.539394 81.466223 82.560376 79.177537 84.607422 78.398438 L 102.0918 71.71875 C 102.60074 71.525248 103.12516 71.443188 103.63867 71.460938 z M 98.234375 78.0625 L 93.609375 79.839844 L 96.451172 87.240234 L 97.144531 87.548828 L 99.898438 86.492188 L 100.20898 85.792969 L 98.585938 81.566406 L 99.115234 80.375 L 101.43945 79.482422 L 98.234375 78.0625 z M 93.609375 79.839844 L 93.609375 79.837891 L 93.603516 79.839844 L 93.609375 79.839844 z M 102.10352 79.785156 L 99.554688 80.763672 L 99.191406 81.589844 L 100.79688 85.771484 L 99.851562 87.894531 L 97.107422 88.947266 L 95.451172 88.210938 L 92.871094 81.496094 L 91.591797 84.369141 L 93.373047 89.007812 L 97.894531 91.023438 L 99.337891 90.46875 L 101.40039 85.833984 L 99.775391 81.601562 L 99.976562 81.148438 L 102.77344 80.074219 L 102.10352 79.785156 z M 102.93945 80.564453 L 100.40625 81.537109 L 100.35156 81.660156 L 101.95703 85.845703 L 100.01953 90.201172 L 100.02539 90.203125 L 102.51758 89.248047 L 104.5332 84.710938 L 102.93945 80.564453 z M 76.478516 83.851562 C 76.586178 84.42443 76.725314 84.999224 76.935547 85.564453 L 80.794922 95.664062 L 82.671875 96.076172 L 97.679688 99.355469 C 101.56136 100.20549 104.0264 104.03938 103.17383 107.92578 C 102.44456 111.29097 99.463564 113.58984 96.150391 113.58984 C 94.962464 113.58984 72.766296 108.6476 71.560547 108.38281 C 69.15996 107.85759 67.173267 105.94472 66.394531 103.98242 C 65.607066 101.97902 65.801074 99.229124 67.183594 97.246094 L 67.207031 97.208984 C 67.213578 97.199891 67.220703 97.19332 67.220703 97.1875 L 76.478516 83.851562 z "
       transform="translate(0,832.36216)"
       id="rect5611" />
    <g
       id="g4185"
       transform="matrix(0.31054775,0,0,0.31054775,20.000001,852.36216)">
      <g
         id="g4139">
        <g
           id="g4141" />
      </g>
      <g
         id="g4149" />
      <g
         id="g4151" />
      <g
         id="g4153" />
      <g
         id="g4155" />
      <g
         id="g4157" />
      <g
         id="g4159" />
      <g
         id="g4161" />
      <g
         id="g4163" />
      <g
         id="g4165" />
      <g
         id="g4167" />
      <g
         id="g4169" />
      <g
         id="g4171" />
      <g
         id="g4173" />
      <g
         id="g4175" />
      <g
         id="g4177" />
    </g>
    <g
       id="g5587"
       transform="matrix(0.36372527,0,0,0.36372527,19.999788,852.36216)">
      <g
         id="XMLID_211_" />
      <g
         id="g5551" />
      <g
         id="g5553" />
      <g
         id="g5555" />
      <g
         id="g5557" />
      <g
         id="g5559" />
      <g
         id="g5561" />
      <g
         id="g5563" />
      <g
         id="g5565" />
      <g
         id="g5567" />
      <g
         id="g5569" />
      <g
         id="g5571" />
      <g
         id="g5573" />
      <g
         id="g5575" />
      <g
         id="g5577" />
      <g
         id="g5579" />
    </g>
    <g
       transform="matrix(0.35333693,-0.13569772,0.13569772,0.35333693,-98.886859,488.84759)"
       id="layer1-4"
       inkscape:label="Camada 1"
       style="fill:#ffffff">
      <text
         sodipodi:linespacing="125%"
         id="text3356"
         y="1073.4818"
         x="933.04791"
         style="font-style:normal;font-variant:normal;font-weight:normal;font-stretch:normal;font-size:15px;line-height:125%;font-family:'Open Sans';-inkscape-font-specification:'Open Sans, Normal';text-align:start;letter-spacing:0px;word-spacing:0px;writing-mode:lr-tb;text-anchor:start;fill:#ffffff;fill-opacity:1;stroke:none;stroke-width:1px;stroke-linecap:butt;stroke-linejoin:miter;stroke-opacity:1"
         xml:space="preserve"><tspan
           y="1073.4818"
           x="933.04791"
           id="tspan3358"
           sodipodi:role="line" /></text>
    </g>
  </g>
</svg>
