<?xml version="1.0" encoding="UTF-8" standalone="no"?>
<!-- Created with Inkscape (http://www.inkscape.org/) -->

<svg
   xmlns:dc="http://purl.org/dc/elements/1.1/"
   xmlns:cc="http://creativecommons.org/ns#"
   xmlns:rdf="http://www.w3.org/1999/02/22-rdf-syntax-ns#"
   xmlns:svg="http://www.w3.org/2000/svg"
   xmlns="http://www.w3.org/2000/svg"
   xmlns:sodipodi="http://sodipodi.sourceforge.net/DTD/sodipodi-0.dtd"
   xmlns:inkscape="http://www.inkscape.org/namespaces/inkscape"
   width="62.08889mm"
   height="62.08889mm"
   viewBox="0 0 220 220"
   id="svg3391"
   version="1.1"
   inkscape:version="0.91 r13725"
   sodipodi:docname="ufu_segpropp.svg">
  <defs
     id="defs3393" />
  <sodipodi:namedview
     id="base"
     pagecolor="#ffffff"
     bordercolor="#666666"
     borderopacity="1.0"
     inkscape:pageopacity="0.0"
     inkscape:pageshadow="2"
     inkscape:zoom="1.4795454"
     inkscape:cx="-47.954918"
     inkscape:cy="150.11955"
     inkscape:document-units="px"
     inkscape:current-layer="layer1"
     showgrid="false"
     fit-margin-top="0"
     fit-margin-left="0"
     fit-margin-right="0"
     fit-margin-bottom="0"
     inkscape:window-width="1440"
     inkscape:window-height="847"
     inkscape:window-x="-8"
     inkscape:window-y="-8"
     inkscape:window-maximized="1" />
  <metadata
     id="metadata3396">
    <rdf:RDF>
      <cc:Work
         rdf:about="">
        <dc:format>image/svg+xml</dc:format>
        <dc:type
           rdf:resource="http://purl.org/dc/dcmitype/StillImage" />
        <dc:title></dc:title>
      </cc:Work>
    </rdf:RDF>
  </metadata>
  <g
     inkscape:label="Camada 1"
     inkscape:groupmode="layer"
     id="layer1"
     transform="translate(-262.04724,-416.18109)">
    <path
       style="color:#000000;clip-rule:nonzero;display:inline;overflow:visible;visibility:visible;opacity:1;isolation:auto;mix-blend-mode:normal;color-interpolation:sRGB;color-interpolation-filters:linearRGB;solid-color:#000000;solid-opacity:1;fill:#ffffff;fill-opacity:1;fill-rule:nonzero;stroke:none;stroke-width:5;stroke-linecap:square;stroke-linejoin:miter;stroke-miterlimit:4;stroke-dasharray:none;stroke-dashoffset:0;stroke-opacity:1;color-rendering:auto;image-rendering:auto;shape-rendering:auto;text-rendering:auto;enable-background:accumulate"
       d="M 0 0 L 0 220 L 220 220 L 220 0 L 0 0 z M 33.933594 49.150391 L 88.890625 49.150391 C 91.063907 49.150391 92.826172 50.910702 92.826172 53.083984 L 92.826172 64.099609 L 83.638672 64.099609 C 83.064271 64.099609 82.505874 64.157966 81.955078 64.246094 C 81.631682 64.160327 81.299367 64.099609 80.949219 64.099609 L 41.876953 64.099609 C 39.703671 64.099609 37.943359 65.861874 37.943359 68.035156 C 37.943359 70.208439 39.703671 71.96875 41.876953 71.96875 L 73.353516 71.96875 C 73.108805 72.864186 72.966797 73.80051 72.966797 74.771484 L 72.966797 82.097656 L 41.876953 82.097656 C 39.703671 82.097656 37.943359 83.857968 37.943359 86.03125 C 37.943359 88.204532 39.703671 89.964844 41.876953 89.964844 L 72.966797 89.964844 L 72.966797 100.09375 L 41.876953 100.09375 C 39.703671 100.09375 37.943359 101.85601 37.943359 104.0293 C 37.943359 106.20258 39.703671 107.96289 41.876953 107.96289 L 72.966797 107.96289 L 72.966797 139.6875 C 72.966797 145.57236 77.7546 150.35938 83.638672 150.35938 L 92.826172 150.35938 L 92.826172 166.91406 C 92.826172 169.08734 91.063907 170.84961 88.890625 170.84961 L 33.933594 170.84961 C 31.760311 170.84961 30 169.08734 30 166.91406 L 30 53.083984 C 30 50.910702 31.760311 49.150391 33.933594 49.150391 z M 83.640625 71.96875 L 187.19727 71.96875 C 188.74343 71.96875 190 73.228061 190 74.773438 L 190 139.6875 C 190.00079 141.23445 188.74343 142.49219 187.19727 142.49219 L 83.640625 142.49219 C 82.094463 142.49219 80.835938 141.23366 80.835938 139.6875 L 80.835938 74.773438 C 80.835938 73.227275 82.09525 71.96875 83.640625 71.96875 z M 150.41992 101.44922 C 148.63721 101.44922 147.2773 101.94295 146.33984 102.93164 C 145.40751 103.9152 144.94141 105.34114 144.94141 107.21094 C 144.94141 109.10122 145.4102 110.54061 146.34766 111.5293 C 147.29024 112.51798 148.64403 113.01367 150.40625 113.01367 C 152.19408 113.01367 153.5513 112.52067 154.47852 111.53711 C 155.40573 110.55355 155.86914 109.11685 155.86914 107.22656 C 155.86914 105.33115 155.40842 103.89446 154.48633 102.91602 C 153.56424 101.93757 152.20775 101.44922 150.41992 101.44922 z M 99.136719 101.46484 C 97.820175 101.46484 96.786243 101.75316 96.033203 102.33203 C 95.280163 102.9109 94.902344 103.71716 94.902344 104.75195 C 94.902344 105.30521 94.989894 105.78476 95.164062 106.18945 C 95.343362 106.59415 95.614802 106.95315 95.978516 107.26562 C 96.347352 107.57811 96.898309 107.90139 97.630859 108.23438 C 98.440246 108.59808 98.936672 108.83726 99.121094 108.95508 C 99.31063 109.0729 99.447331 109.19077 99.529297 109.30859 C 99.616409 109.42129 99.660156 109.5553 99.660156 109.70898 C 99.660156 109.95488 99.553784 110.1576 99.34375 110.31641 C 99.133716 110.47008 98.80431 110.54687 98.353516 110.54688 C 97.830992 110.54688 97.257785 110.46471 96.632812 110.30078 C 96.007834 110.13173 95.405042 109.89868 94.826172 109.60156 L 94.826172 112.30664 C 95.374308 112.5679 95.903007 112.7518 96.410156 112.85938 C 96.917305 112.96183 97.543098 113.01367 98.291016 113.01367 C 99.187491 113.01367 99.968802 112.86548 100.63477 112.56836 C 101.30072 112.26612 101.81059 111.84453 102.16406 111.30664 C 102.51752 110.76363 102.69531 110.14396 102.69531 109.44727 C 102.69531 108.6891 102.50603 108.06136 102.12695 107.56445 C 101.75299 107.06243 101.08148 106.59363 100.11328 106.1582 C 99.104107 105.69716 98.48443 105.3812 98.253906 105.20703 C 98.028505 105.03286 97.916016 104.83551 97.916016 104.61523 C 97.916016 104.41033 98.004302 104.23792 98.183594 104.09961 C 98.362893 103.9613 98.650473 103.89258 99.044922 103.89258 C 99.808207 103.89258 100.71548 104.1337 101.76562 104.61523 L 102.69531 102.27148 C 101.48636 101.7336 100.29957 101.46484 99.136719 101.46484 z M 118.57031 101.46484 C 116.70564 101.46484 115.2555 101.96934 114.2207 102.97852 C 113.18592 103.98769 112.66797 105.39749 112.66797 107.21094 C 112.66797 109.07049 113.13945 110.50376 114.08203 111.50781 C 115.02974 112.51187 116.37008 113.01367 118.10156 113.01367 C 119.67936 113.01367 121.12682 112.78869 122.44336 112.33789 L 122.44336 106.28125 L 117.59375 106.28125 L 117.59375 108.625 L 119.59961 108.625 L 119.59961 110.38477 C 119.22053 110.47185 118.80626 110.51563 118.35547 110.51562 C 117.53071 110.51562 116.89758 110.24149 116.45703 109.69336 C 116.0216 109.1401 115.80469 108.33922 115.80469 107.28906 C 115.80469 106.21841 116.04385 105.39601 116.52539 104.82227 C 117.01205 104.2434 117.6997 103.95313 118.58594 103.95312 C 119.55413 103.95312 120.44256 104.15316 121.25195 104.55273 L 122.21289 102.16992 C 121.74672 101.96501 121.19845 101.79725 120.56836 101.66406 C 119.94339 101.53087 119.27725 101.46484 118.57031 101.46484 z M 104.44727 101.625 L 104.44727 112.85938 L 111.11719 112.85938 L 111.11719 110.38477 L 107.48242 110.38477 L 107.48242 108.26367 L 110.84766 108.26367 L 110.84766 105.82812 L 107.48242 105.82812 L 107.48242 104.06055 L 111.11719 104.06055 L 111.11719 101.625 L 104.44727 101.625 z M 124.73242 101.625 L 124.73242 112.85938 L 127.76758 112.85938 L 127.76758 109.13281 L 128.62109 109.13281 C 129.98374 109.13281 131.03381 108.79265 131.77148 108.11133 C 132.51428 107.42488 132.88477 106.45429 132.88477 105.19922 C 132.88477 104.05685 132.53042 103.17454 131.81836 102.55469 C 131.1063 101.93484 130.04009 101.625 128.62109 101.625 L 124.73242 101.625 z M 134.69141 101.625 L 134.69141 112.85938 L 137.72656 112.85938 L 137.72656 108.77148 L 138.49414 108.77148 L 140.87695 112.85938 L 144.32031 112.85938 L 141.04688 107.96484 C 142.31731 107.25279 142.95117 106.24649 142.95117 104.94531 C 142.95117 102.73229 141.42619 101.625 138.37305 101.625 L 134.69141 101.625 z M 157.89648 101.625 L 157.89648 112.85938 L 160.93359 112.85938 L 160.93359 109.13281 L 161.78516 109.13281 C 163.1478 109.13281 164.19787 108.79265 164.93555 108.11133 C 165.67834 107.42488 166.05078 106.45429 166.05078 105.19922 C 166.05078 104.05685 165.69448 103.17454 164.98242 102.55469 C 164.27036 101.93484 163.20415 101.625 161.78516 101.625 L 157.89648 101.625 z M 167.85547 101.625 L 167.85547 112.85938 L 170.89062 112.85938 L 170.89062 109.13281 L 171.74414 109.13281 C 173.10679 109.13281 174.15686 108.79265 174.89453 108.11133 C 175.63733 107.42488 176.00977 106.45429 176.00977 105.19922 C 176.00977 104.05685 175.65347 103.17454 174.94141 102.55469 C 174.22935 101.93484 173.16314 101.625 171.74414 101.625 L 167.85547 101.625 z M 137.72656 103.92188 L 138.32617 103.92188 C 139.36609 103.92186 139.88672 104.31045 139.88672 105.08398 C 139.88672 106.02144 139.35533 106.49023 138.29492 106.49023 L 137.72656 106.49023 L 137.72656 103.92188 z M 150.41992 103.9375 C 151.16784 103.9375 151.72956 104.20625 152.10352 104.74414 C 152.4826 105.2769 152.67188 106.10469 152.67188 107.22656 C 152.67188 108.34332 152.48529 109.16572 152.11133 109.69336 C 151.74249 110.221 151.17466 110.48438 150.40625 110.48438 C 148.89505 110.48438 148.13867 109.3986 148.13867 107.22656 C 148.13867 105.03404 148.89847 103.9375 150.41992 103.9375 z M 127.76758 104.07617 L 128.55273 104.07617 C 129.39286 104.07617 129.8125 104.45473 129.8125 105.21289 C 129.8125 105.66369 129.6758 106.0173 129.4043 106.27344 C 129.13791 106.52957 128.77819 106.6582 128.32227 106.6582 L 127.76758 106.6582 L 127.76758 104.07617 z M 160.93359 104.07617 L 161.7168 104.07617 C 162.55692 104.07617 162.97656 104.45473 162.97656 105.21289 C 162.97656 105.66369 162.83986 106.0173 162.56836 106.27344 C 162.30198 106.52957 161.94225 106.6582 161.48633 106.6582 L 160.93359 106.6582 L 160.93359 104.07617 z M 170.89062 104.07617 L 171.67578 104.07617 C 172.51591 104.07617 172.93555 104.45473 172.93555 105.21289 C 172.93555 105.66369 172.79885 106.0173 172.52734 106.27344 C 172.26096 106.52957 171.90124 106.6582 171.44531 106.6582 L 170.89062 106.6582 L 170.89062 104.07617 z M 61.412109 135.71875 C 58.062485 135.71875 55.347656 138.43358 55.347656 141.7832 C 55.347656 145.13283 58.062485 147.84766 61.412109 147.84766 C 64.761734 147.84766 67.478516 145.13283 67.478516 141.7832 C 67.478516 138.43358 64.761734 135.71875 61.412109 135.71875 z M 122.83008 150.36133 L 148.00781 150.36133 L 148.00781 162.98047 L 158.5 162.98047 C 160.6725 162.98047 162.43359 164.74273 162.43359 166.91602 C 162.43359 169.0893 160.67328 170.84961 158.5 170.84961 L 144.07422 170.84961 L 126.76367 170.84961 L 112.33789 170.84961 C 110.16461 170.84961 108.4043 169.0893 108.4043 166.91602 C 108.4043 164.74273 110.16461 162.98047 112.33789 162.98047 L 122.83008 162.98047 L 122.83008 150.36133 z "
       transform="translate(262.04724,416.18109)"
       id="rect3422" />
    <g
       id="g18002"
       transform="matrix(0.78318914,0,0,0.78319055,866.15412,115.0913)">
      <g
         id="g18134" />
    </g>
    <g
       id="g3479"
       transform="matrix(0.85270574,0,0,0.85270574,149.50938,426.98754)"
       style="fill:#ff0000">
      <g
         id="g3426"
         style="fill:#ff0000">
        <g
           id="Layer_5_58_"
           style="fill:#ff0000">
          <g
             id="g3429"
             style="fill:#ff0000">
            <g
               id="g3431"
               style="fill:#ff0000" />
            <g
               id="g3437"
               style="fill:#ff0000" />
          </g>
        </g>
      </g>
      <g
         id="g3443"
         style="fill:#ff0000" />
      <g
         id="g3445"
         style="fill:#ff0000" />
      <g
         id="g3447"
         style="fill:#ff0000" />
      <g
         id="g3449"
         style="fill:#ff0000" />
      <g
         id="g3451"
         style="fill:#ff0000" />
      <g
         id="g3453"
         style="fill:#ff0000" />
      <g
         id="g3455"
         style="fill:#ff0000" />
      <g
         id="g3457"
         style="fill:#ff0000" />
      <g
         id="g3459"
         style="fill:#ff0000" />
      <g
         id="g3461"
         style="fill:#ff0000" />
      <g
         id="g3463"
         style="fill:#ff0000" />
      <g
         id="g3465"
         style="fill:#ff0000" />
      <g
         id="g3467"
         style="fill:#ff0000" />
      <g
         id="g3469"
         style="fill:#ff0000" />
      <g
         id="g3471"
         style="fill:#ff0000" />
    </g>
    <g
       id="g3546"
       transform="matrix(0.78685096,0,0,0.78685096,292.04724,446.18077)">
      <g
         id="g3510" />
      <g
         id="g3512" />
      <g
         id="g3514" />
      <g
         id="g3516" />
      <g
         id="g3518" />
      <g
         id="g3520" />
      <g
         id="g3522" />
      <g
         id="g3524" />
      <g
         id="g3526" />
      <g
         id="g3528" />
      <g
         id="g3530" />
      <g
         id="g3532" />
      <g
         id="g3534" />
      <g
         id="g3536" />
      <g
         id="g3538" />
    </g>
  </g>
</svg>
