<?xml version="1.0" encoding="UTF-8" standalone="no"?>
<!-- Generator: Adobe Illustrator 18.1.1, SVG Export Plug-In . SVG Version: 6.00 Build 0)  -->

<svg
   xmlns:dc="http://purl.org/dc/elements/1.1/"
   xmlns:cc="http://creativecommons.org/ns#"
   xmlns:rdf="http://www.w3.org/1999/02/22-rdf-syntax-ns#"
   xmlns:svg="http://www.w3.org/2000/svg"
   xmlns="http://www.w3.org/2000/svg"
   xmlns:sodipodi="http://sodipodi.sourceforge.net/DTD/sodipodi-0.dtd"
   xmlns:inkscape="http://www.inkscape.org/namespaces/inkscape"
   version="1.1"
   id="Capa_1"
   x="0px"
   y="0px"
   viewBox="0 0 220 220"
   xml:space="preserve"
   inkscape:version="0.91 r13725"
   sodipodi:docname="ufu_portal_estudante.svg"
   width="220"
   height="220"><metadata
     id="metadata59"><rdf:RDF><cc:Work
         rdf:about=""><dc:format>image/svg+xml</dc:format><dc:type
           rdf:resource="http://purl.org/dc/dcmitype/StillImage" /><dc:title></dc:title></cc:Work></rdf:RDF></metadata><defs
     id="defs57" /><sodipodi:namedview
     pagecolor="#ffffff"
     bordercolor="#666666"
     borderopacity="1"
     objecttolerance="10"
     gridtolerance="10"
     guidetolerance="10"
     inkscape:pageopacity="0"
     inkscape:pageshadow="2"
     inkscape:window-width="1440"
     inkscape:window-height="847"
     id="namedview55"
     showgrid="false"
     inkscape:zoom="2.9590909"
     inkscape:cx="110"
     inkscape:cy="110"
     inkscape:window-x="-8"
     inkscape:window-y="-8"
     inkscape:window-maximized="1"
     inkscape:current-layer="Capa_1" /><path
     style="color:#000000;clip-rule:nonzero;display:inline;overflow:visible;visibility:visible;opacity:1;isolation:auto;mix-blend-mode:normal;color-interpolation:sRGB;color-interpolation-filters:linearRGB;solid-color:#000000;solid-opacity:1;fill:#ffffff;fill-opacity:1;fill-rule:nonzero;stroke:none;stroke-width:5;stroke-linecap:square;stroke-linejoin:miter;stroke-miterlimit:4;stroke-dasharray:none;stroke-dashoffset:0;stroke-opacity:1;color-rendering:auto;image-rendering:auto;shape-rendering:auto;text-rendering:auto;enable-background:accumulate"
     d="M 0 0 L 0 220 L 220 220 L 220 0 L 0 0 z M 40.166016 30 L 179.82617 30 C 183.35673 30 186.21094 32.850354 186.21094 36.378906 L 186.21094 133.64648 C 186.21094 137.14496 183.35642 140.02339 179.83789 140.02539 L 40.167969 140.02539 C 36.659465 140.02539 33.787109 137.14692 33.787109 133.64844 L 33.787109 36.378906 C 33.787109 32.848349 36.657512 30 40.166016 30 z M 46.53125 42.746094 L 46.53125 127.27148 L 173.46484 127.27148 L 173.46484 42.746094 L 46.53125 42.746094 z M 101.52148 51.996094 L 117.33203 51.996094 C 118.23405 51.996094 118.63281 52.479748 118.63281 53.083984 L 118.63281 59.660156 C 118.63281 60.261504 118.14575 60.748047 117.54492 60.748047 C 116.93924 60.748047 116.45703 60.223034 116.45703 59.660156 L 116.45703 54.171875 L 115.46484 54.171875 L 115.46484 58.515625 L 103.38867 58.515625 L 103.38867 54.171875 L 101.52148 54.171875 C 100.62104 54.171875 100.22266 53.688483 100.22266 53.083984 C 100.22266 52.479879 100.62104 51.996094 101.52148 51.996094 z M 103.34766 60.384766 L 103.38867 60.384766 L 115.42969 60.384766 C 115.43599 60.504641 115.46484 60.617864 115.46484 60.740234 C 115.46484 64.096097 112.74834 66.816406 109.38867 66.816406 C 106.03307 66.816406 103.3125 64.096228 103.3125 60.740234 C 103.3125 60.617864 103.33866 60.504641 103.34766 60.384766 z M 104.74023 67.988281 L 114.17578 67.988281 C 115.43966 67.988281 116.49629 68.422897 117.00586 69.539062 L 125.67188 88.525391 C 126.26859 89.830633 125.69288 91.370438 124.38672 91.966797 C 123.08489 92.559217 121.54141 91.9932 120.94531 90.681641 L 117.55469 83.259766 L 118.75586 106.24219 C 118.77687 106.63306 118.63492 107.01626 118.36523 107.30078 C 118.09542 107.58425 117.72345 107.74414 117.33008 107.74414 L 116.76562 107.74414 L 116.76562 113.85547 C 116.76562 115.57758 115.36899 116.97461 113.64648 116.97461 C 111.92384 116.97461 110.52539 115.57758 110.52539 113.85547 L 110.52539 107.74414 L 108.25391 107.74414 L 108.25391 113.85547 C 108.25391 115.57758 106.8574 116.97461 105.13477 116.97461 C 103.41292 116.97461 102.01563 115.57758 102.01562 113.85547 L 102.01562 107.74414 L 101.45508 107.74414 C 101.0642 107.74414 100.68529 107.5844 100.41797 107.29883 C 100.14592 107.01325 100.0058 106.62917 100.0293 106.23633 L 101.10938 86.949219 C 101.94203 87.130804 104.38047 87.724609 105.14844 87.724609 C 106.73951 87.724609 108.2029 86.876652 109.01367 85.533203 L 112.33984 84.263672 C 114.16187 83.569231 115.05166 81.534068 114.36523 79.736328 L 110.93359 70.75 C 110.24966 68.954622 108.22408 68.028218 106.40625 68.722656 L 102.0918 70.373047 L 100.80078 70.865234 L 101.99805 69.136719 C 102.61581 68.248746 103.62091 67.988281 104.74023 67.988281 z M 107.70312 70.574219 C 108.25923 70.593441 108.77822 70.93709 108.99023 71.492188 L 112.42188 80.476562 C 112.70452 81.221287 112.32781 82.043912 111.59766 82.322266 L 109.6543 83.0625 C 109.59941 81.031443 108.1822 79.219771 106.10742 78.767578 L 101.05469 77.662109 L 100.00781 74.921875 C 99.725926 74.184896 100.09504 73.359367 100.83398 73.078125 L 107.14453 70.666016 C 107.32825 70.596166 107.5178 70.567819 107.70312 70.574219 z M 105.75195 72.957031 L 104.08398 73.597656 L 105.10938 76.269531 L 105.35938 76.380859 L 106.35352 76 L 106.46484 75.748047 L 105.87891 74.220703 L 106.07031 73.791016 L 106.91016 73.46875 L 105.75195 72.957031 z M 107.15039 73.578125 L 106.22852 73.931641 L 106.09766 74.230469 L 106.67773 75.740234 L 106.33594 76.505859 L 105.3457 76.886719 L 104.74805 76.619141 L 103.81641 74.195312 L 103.35547 75.232422 L 103.99805 76.908203 L 105.63086 77.634766 L 106.15039 77.435547 L 106.89648 75.761719 L 106.30859 74.234375 L 106.38086 74.070312 L 107.39062 73.683594 L 107.15039 73.578125 z M 107.45117 73.859375 L 106.53711 74.210938 L 106.51758 74.255859 L 107.0957 75.765625 L 106.39648 77.337891 L 106.39844 77.339844 L 107.29883 76.994141 L 108.02734 75.357422 L 107.45117 73.859375 z M 97.898438 75.046875 C 97.937298 75.253671 97.988544 75.460042 98.064453 75.664062 L 99.457031 79.310547 L 100.13477 79.458984 L 105.55273 80.642578 C 106.95395 80.949422 107.84292 82.333404 107.53516 83.736328 C 107.2719 84.951105 106.196 85.78125 105 85.78125 C 104.57118 85.78125 96.558302 83.997924 96.123047 83.902344 C 95.256476 83.712748 94.540876 83.020857 94.259766 82.3125 C 93.975504 81.589307 94.045856 80.5967 94.544922 79.880859 L 94.552734 79.867188 C 94.555034 79.863888 94.556641 79.861475 94.556641 79.859375 L 97.898438 75.046875 z M 166.56055 149.17773 C 174.93885 149.17773 183.61691 155.77116 185.89844 163.80664 L 189.19141 175.42188 C 191.46492 183.45734 186.46152 190.0401 178.11328 190 L 42.013672 189.92578 C 33.635364 189.92578 28.610711 183.3136 30.753906 175.24805 L 33.869141 163.85938 C 36.048423 155.77378 44.691397 149.17969 53.017578 149.17969 L 166.56055 149.17969 L 166.56055 149.17773 z "
     id="rect4378" /><g
     id="g3"
     transform="matrix(0.75229938,0,0,0.75229938,30,30.000108)"><g
       id="g4269"
       transform="matrix(2.6649756,0,0,2.6649756,0.00112068,-1.4277849e-4)"><g
         id="g4229" /><g
         id="g4233" /><g
         id="g4235" /><g
         id="g4237" /><g
         id="g4239" /><g
         id="g4241" /><g
         id="g4243" /><g
         id="g4245" /><g
         id="g4247" /><g
         id="g4249" /><g
         id="g4251" /><g
         id="g4253" /><g
         id="g4255" /><g
         id="g4257" /><g
         id="g4259" /><g
         id="g4261" /></g><g
       transform="matrix(0.47983965,0,0,0.47983965,53.558282,-379.75766)"
       id="layer1-45"
       inkscape:label="Camada 1"><g
         transform="matrix(0.31054775,0,0,0.31054775,20.000001,852.36216)"
         id="g4185"><g
           id="g4139"><g
             id="g4141" /></g><g
           id="g4149" /><g
           id="g4151" /><g
           id="g4153" /><g
           id="g4155" /><g
           id="g4157" /><g
           id="g4159" /><g
           id="g4161" /><g
           id="g4163" /><g
           id="g4165" /><g
           id="g4167" /><g
           id="g4169" /><g
           id="g4171" /><g
           id="g4173" /><g
           id="g4175" /><g
           id="g4177" /></g><g
         transform="matrix(0.36372527,0,0,0.36372527,19.999788,852.36216)"
         id="g5587"><g
           id="XMLID_211_" /><g
           id="g5551" /><g
           id="g5553" /><g
           id="g5555" /><g
           id="g5557" /><g
           id="g5559" /><g
           id="g5561" /><g
           id="g5563" /><g
           id="g5565" /><g
           id="g5567" /><g
           id="g5569" /><g
           id="g5571" /><g
           id="g5573" /><g
           id="g5575" /><g
           id="g5577" /><g
           id="g5579" /></g><g
         style="fill:#ffffff"
         inkscape:label="Camada 1"
         id="layer1-4"
         transform="matrix(0.35333693,-0.13569772,0.13569772,0.35333693,-98.886859,488.84759)"><text
           xml:space="preserve"
           style="font-style:normal;font-variant:normal;font-weight:normal;font-stretch:normal;font-size:15px;line-height:125%;font-family:'Open Sans';-inkscape-font-specification:'Open Sans, Normal';text-align:start;letter-spacing:0px;word-spacing:0px;writing-mode:lr-tb;text-anchor:start;fill:#ffffff;fill-opacity:1;stroke:none;stroke-width:1px;stroke-linecap:butt;stroke-linejoin:miter;stroke-opacity:1"
           x="933.04791"
           y="1073.4818"
           id="text3356-3"
           sodipodi:linespacing="125%"><tspan
             sodipodi:role="line"
             id="tspan3358-2"
             x="933.04791"
             y="1073.4818" /></text>
</g></g></g><g
     id="g25"
     transform="translate(0,7.3190002)" /><g
     id="g27"
     transform="translate(0,7.3190002)" /><g
     id="g29"
     transform="translate(0,7.3190002)" /><g
     id="g31"
     transform="translate(0,7.3190002)" /><g
     id="g33"
     transform="translate(0,7.3190002)" /><g
     id="g35"
     transform="translate(0,7.3190002)" /><g
     id="g37"
     transform="translate(0,7.3190002)" /><g
     id="g39"
     transform="translate(0,7.3190002)" /><g
     id="g41"
     transform="translate(0,7.3190002)" /><g
     id="g43"
     transform="translate(0,7.3190002)" /><g
     id="g45"
     transform="translate(0,7.3190002)" /><g
     id="g47"
     transform="translate(0,7.3190002)" /><g
     id="g49"
     transform="translate(0,7.3190002)" /><g
     id="g51"
     transform="translate(0,7.3190002)" /><g
     id="g53"
     transform="translate(0,7.3190002)" /><g
     transform="matrix(0.2175077,0,0,0.2175077,38.951695,-109.60306)"
     id="layer1"
     inkscape:label="Camada 1"><text
       sodipodi:linespacing="125%"
       id="text3356"
       y="1073.4818"
       x="933.04791"
       style="font-style:normal;font-variant:normal;font-weight:normal;font-stretch:normal;font-size:15px;line-height:125%;font-family:'Open Sans';-inkscape-font-specification:'Open Sans, Normal';text-align:start;letter-spacing:0px;word-spacing:0px;writing-mode:lr-tb;text-anchor:start;fill:#000000;fill-opacity:1;stroke:none;stroke-width:1px;stroke-linecap:butt;stroke-linejoin:miter;stroke-opacity:1"
       xml:space="preserve"><tspan
         y="1073.4818"
         x="933.04791"
         id="tspan3358"
         sodipodi:role="line" /></text>
</g><text
     xml:space="preserve"
     style="font-style:normal;font-variant:normal;font-weight:normal;font-stretch:normal;font-size:15px;line-height:125%;font-family:'Open Sans';-inkscape-font-specification:'Open Sans, Normal';text-align:start;letter-spacing:0px;word-spacing:0px;writing-mode:lr-tb;text-anchor:start;fill:#000000;fill-opacity:1;stroke:none;stroke-width:1px;stroke-linecap:butt;stroke-linejoin:miter;stroke-opacity:1"
     x="997.0918"
     y="178.27911"
     id="text3356-9"
     sodipodi:linespacing="125%"><tspan
       sodipodi:role="line"
       id="tspan3358-1"
       x="997.0918"
       y="178.27911" /></text>
</svg>