<?xml version="1.0" encoding="UTF-8" standalone="no"?>
<!-- Created with Inkscape (http://www.inkscape.org/) -->

<svg
   xmlns:dc="http://purl.org/dc/elements/1.1/"
   xmlns:cc="http://creativecommons.org/ns#"
   xmlns:rdf="http://www.w3.org/1999/02/22-rdf-syntax-ns#"
   xmlns:svg="http://www.w3.org/2000/svg"
   xmlns="http://www.w3.org/2000/svg"
   xmlns:sodipodi="http://sodipodi.sourceforge.net/DTD/sodipodi-0.dtd"
   xmlns:inkscape="http://www.inkscape.org/namespaces/inkscape"
   width="220"
   height="220"
   viewBox="0 0 220 220"
   id="svg2"
   version="1.1"
   inkscape:version="0.91 r13725"
   sodipodi:docname="ufu_radio_universitaria.svg">
  <defs
     id="defs4" />
  <sodipodi:namedview
     id="base"
     pagecolor="#ffffff"
     bordercolor="#666666"
     borderopacity="1.0"
     inkscape:pageopacity="0.0"
     inkscape:pageshadow="2"
     inkscape:zoom="4.1847865"
     inkscape:cx="55.183541"
     inkscape:cy="91.520329"
     inkscape:document-units="px"
     inkscape:current-layer="g4487"
     showgrid="false"
     units="px"
     inkscape:window-width="1440"
     inkscape:window-height="847"
     inkscape:window-x="-8"
     inkscape:window-y="-8"
     inkscape:window-maximized="1" />
  <metadata
     id="metadata7">
    <rdf:RDF>
      <cc:Work
         rdf:about="">
        <dc:format>image/svg+xml</dc:format>
        <dc:type
           rdf:resource="http://purl.org/dc/dcmitype/StillImage" />
        <dc:title></dc:title>
      </cc:Work>
    </rdf:RDF>
  </metadata>
  <g
     inkscape:label="Camada 1"
     inkscape:groupmode="layer"
     id="layer1"
     transform="translate(0,-832.36216)">
    <g
       id="g4183"
       transform="matrix(0.9959374,0,0,0.9959374,29.673666,-38.85735)">
      <g
         id="g4213"
         transform="translate(30.122388,8.5266673)" />
    </g>
    <g
       id="g4323"
       transform="matrix(0.87499997,0,0,0.87499997,40.000001,131.54529)" />
    <g
       id="g4391"
       transform="matrix(0.3125,0,0,0.3125,30,862.36216)"
       style="fill:#ffff00">
      <g
         id="g4351"
         style="fill:#ffff00" />
      <g
         id="g4355"
         style="fill:#ffff00" />
      <g
         id="g4357"
         style="fill:#ffff00" />
      <g
         id="g4359"
         style="fill:#ffff00" />
      <g
         id="g4361"
         style="fill:#ffff00" />
      <g
         id="g4363"
         style="fill:#ffff00" />
      <g
         id="g4365"
         style="fill:#ffff00" />
      <g
         id="g4367"
         style="fill:#ffff00" />
      <g
         id="g4369"
         style="fill:#ffff00" />
      <g
         id="g4371"
         style="fill:#ffff00" />
      <g
         id="g4373"
         style="fill:#ffff00" />
      <g
         id="g4375"
         style="fill:#ffff00" />
      <g
         id="g4377"
         style="fill:#ffff00" />
      <g
         id="g4379"
         style="fill:#ffff00" />
      <g
         id="g4381"
         style="fill:#ffff00" />
      <g
         id="g4383"
         style="fill:#ffff00" />
    </g>
    <g
       id="g4487"
       transform="matrix(0.85829339,0,0,0.85829339,42.536137,733.53285)">
      <g
         id="g4413"
         transform="translate(-13.082745,8.036776)">
        <g
           id="g4415" />
      </g>
      <g
         id="g4451" />
      <g
         id="g4453" />
      <g
         id="g4455" />
      <g
         id="g4457" />
      <g
         id="g4459" />
      <g
         id="g4461" />
      <g
         id="g4463" />
      <g
         id="g4465" />
      <g
         id="g4467" />
      <g
         id="g4469" />
      <g
         id="g4471" />
      <g
         id="g4473" />
      <g
         id="g4475" />
      <g
         id="g4477" />
      <g
         id="g4479" />
      <rect
         style="color:#000000;clip-rule:nonzero;display:inline;overflow:visible;visibility:visible;opacity:1;isolation:auto;mix-blend-mode:normal;color-interpolation:sRGB;color-interpolation-filters:linearRGB;solid-color:#000000;solid-opacity:1;fill:#ffff00;fill-opacity:1;fill-rule:nonzero;stroke:none;stroke-width:5;stroke-linecap:square;stroke-linejoin:miter;stroke-miterlimit:4;stroke-dasharray:none;stroke-dashoffset:0;stroke-opacity:1;color-rendering:auto;image-rendering:auto;shape-rendering:auto;text-rendering:auto;enable-background:accumulate"
         id="rect4726"
         width="256.3226"
         height="256.3226"
         x="-49.558971"
         y="115.14629" />
      <path
         style="fill:#295fa9"
         d="M 45.976254,328.41943 C 22.987233,320.69787 4.7009377,304.3767 -6.5272583,281.5582 -13.18175,268.03461 -16.284604,254.53274 -16.284604,239.09972 c 0,-16.18443 3.287833,-30.15829 10.4477777,-44.40485 11.801883,-23.48291 33.5486953,-41.3896 57.9992903,-47.75761 27.51165,-7.16523 55.856776,-1.0393 78.007916,16.85903 4.56074,3.68512 11.86487,11.30819 15.52215,16.19993 9.07938,12.14401 14.91324,25.61119 17.71987,40.9054 0.97484,5.31224 1.89177,16.20176 1.62382,19.28456 -0.28019,3.22367 -0.89211,2.12567 -0.9377,-1.68256 -0.11435,-9.55306 -3.92427,-24.07262 -9.13739,-34.82254 -5.65008,-11.65094 -13.98989,-22.16005 -23.95152,-30.18166 -11.87278,-9.56056 -25.44113,-15.42848 -40.820996,-17.65392 -7.40994,-1.07221 -20.46136,-0.67281 -27.61031,0.84492 -51.571406,10.94867 -81.897119,66.00575 -64.7305363,117.5199 6.308219,18.92996 19.2049583,35.67877 35.6275573,46.269 3.985479,2.57007 10.962509,6.05948 15.977159,7.99063 2.20755,0.85014 4.09521,1.62374 4.19481,1.71911 0.70256,0.67282 -2.81563,-0.13879 -7.67104,-1.76963 z m 11.18393,-1.36465 c -33.827642,-9.96811 -57.79974428,-43.47297 -57.79974428,-80.78441 0,-31.34463 16.02306228,-59.54771 42.47661428,-74.76544 22.59166,-12.99613 49.33609,-14.02076 73.018246,-2.79745 19.66335,9.31874 35.332,27.31391 42.47433,48.78103 2.89198,8.6922 4.61114,18.32227 4.51749,25.30518 -0.0512,3.8182 -0.40122,2.69751 -1.62876,-5.21501 -4.76654,-30.72459 -26.78495,-56.08 -55.49035,-63.90021 -24.219826,-6.59821 -48.953826,-1.06532 -68.481966,15.31913 -19.464296,16.33088 -30.4393783,42.91656 -28.2773523,68.49811 1.241575,14.69054 5.6595343,27.70035 13.3026573,39.17301 8.820692,13.24025 19.905105,22.47864 34.585075,28.82519 7.28526,3.1496 7.47787,3.38021 1.30376,1.56087 z m 4.12855,-2.95456 c -9.37393,-3.61205 -19.55468,-10.82283 -26.35615,-18.6674 -8.86274,-10.22196 -14.887546,-22.74393 -17.383296,-36.12947 -1.383823,-7.42191 -1.387568,-19.51114 -0.0084,-26.87892 4.505525,-24.06815 19.471432,-43.92034 40.705682,-53.99589 18.77843,-8.91026 40.73266,-8.65366 59.4056,0.69435 13.4153,6.71593 24.86181,18.26797 31.84895,32.14257 3.48651,6.9233 6.18623,15.62249 7.19063,23.17009 0.7281,5.4713 0.30054,5.95345 -0.85633,0.96565 -4.38818,-18.91966 -14.28114,-33.68883 -29.29139,-43.72903 -6.88523,-4.60546 -14.05075,-7.59696 -22.96335,-9.58691 -5.9766,-1.33441 -18.90459,-1.43641 -24.69134,-0.19482 -13.53424,2.90389 -24.77909,8.97176 -34.33218,18.5261 -26.357071,26.36054 -27.645357,69.1039 -2.9347,97.36854 5.21968,5.97039 11.48096,10.83941 19.46521,15.1369 4.38297,2.35912 4.46159,2.81998 0.20099,1.17824 z m -17.78627,-27.01385 c -1.01483,-1.01483 -1.1663,-2.09974 -1.02727,-7.35755 l 0.12641,-4.78043 1.15483,-0.13363 1.15483,-0.13362 0.14892,4.5674 c 0.1637,5.02047 0.66046,6.23851 1.99901,4.9015 0.59521,-0.59452 0.78958,-1.68942 0.90756,-5.1126 l 0.15016,-4.35607 1.1536,0.13351 1.15361,0.13351 0.12027,6.14188 c 0.13151,6.71647 -0.0457,7.18874 -2.31013,6.15699 -0.82704,-0.37683 -1.21717,-0.37399 -1.60282,0.0116 -0.72064,0.72064 -2.32421,0.63221 -3.12898,-0.17256 z m 9.99479,-7.5e-4 c -0.54397,-0.54375 -0.68292,-1.73018 -0.68292,-5.83113 0,-2.83163 0.11871,-5.45777 0.26379,-5.83585 0.29061,-0.7573 2.13589,-0.9407 2.56002,-0.25443 0.16879,0.2731 0.73218,0.19275 1.52565,-0.21756 0.99176,-0.51286 1.48788,-0.54584 2.34392,-0.1558 1.53595,0.69983 1.99832,2.45715 1.99832,7.59516 0,3.84958 -0.10905,4.54136 -0.77175,4.89602 -0.48958,0.26202 -1.04571,0.25971 -1.52105,-0.006 -0.63007,-0.35261 -0.7493,-1.09894 -0.7493,-4.69037 0,-3.12204 -0.16298,-4.4063 -0.60583,-4.77383 -0.46776,-0.3882 -0.7649,-0.34373 -1.30375,0.19512 -0.5461,0.54609 -0.69793,1.62647 -0.69793,4.96623 0,3.49123 -0.12514,4.31633 -0.68742,4.53209 -0.92008,0.35307 -0.89268,0.35993 -1.67175,-0.41913 z m 10.88026,0.11893 c -0.62644,-0.45807 -0.70863,-1.32908 -0.60326,-6.39329 l 0.12199,-5.86274 1.30375,0 1.30376,0 0.12076,5.95376 c 0.11081,5.46267 0.053,5.99001 -0.70048,6.39328 -0.57854,0.30962 -1.03561,0.28279 -1.54652,-0.0908 z m 6.99825,-0.0584 c -0.52449,-0.52428 -3.35097,-10.62005 -3.35097,-11.96896 0,-0.24529 0.57884,-0.44599 1.28631,-0.44599 1.35165,0 1.48425,0.2472 2.52008,4.6983 0.44562,1.91492 1.04999,1.94765 1.51623,0.0821 1.14933,-4.5988 1.22843,-4.78043 2.08207,-4.78043 1.13568,0 1.09731,0.46803 -0.55998,6.83062 -1.46219,5.61358 -2.23284,6.84544 -3.49374,5.58454 z m 8.10379,-0.14782 c -3.02798,-2.44236 -3.13718,-8.97035 -0.19393,-11.59374 1.32825,-1.18389 3.65293,-1.10385 5.0116,0.17255 1.22657,1.15231 2.1115,3.43339 1.90269,4.90455 -0.12514,0.88167 -0.43709,1.00822 -2.96466,1.20265 -2.46686,0.18976 -2.8415,0.33433 -2.95657,1.14093 -0.12491,0.87558 0.88807,2.33574 1.6204,2.33574 0.18705,0 0.85999,-0.48183 1.49543,-1.07074 2.30885,-2.13976 3.43123,0.15462 1.17792,2.40793 -1.47929,1.4793 -3.61849,1.68937 -5.09288,0.50013 z m 3.7557,-8.30265 c 0,-1.7154 -2.18697,-2.21054 -2.79261,-0.63228 -0.38057,0.99174 0.0968,1.44823 1.51451,1.44823 0.96059,0 1.2781,-0.2027 1.2781,-0.81595 z m 5.479,8.50906 c -0.62645,-0.45806 -0.70863,-1.32908 -0.60326,-6.39328 l 0.12198,-5.86296 2.49886,-0.0386 2.49886,-0.0386 0,1.49708 c 0,1.07927 -0.30321,1.73559 -1.08646,2.35169 -1.00469,0.7903 -1.08646,1.12909 -1.08646,4.50175 0,3.11216 -0.11869,3.71066 -0.80913,4.08017 -0.56415,0.30193 -1.02873,0.27247 -1.53439,-0.0973 z m 6.62042,-0.74185 c -0.71821,-0.71821 -1.22565,-1.54935 -1.12764,-1.84698 0.27738,-0.8423 2.05079,-0.90668 2.93493,-0.10655 1.04848,0.94886 2.8248,0.70422 2.8248,-0.38906 0,-0.60728 -0.53715,-0.98026 -2.04489,-1.41989 -2.40437,-0.70109 -3.38742,-1.89975 -3.38742,-4.13041 0,-2.4274 1.55919,-4.03634 3.91153,-4.03634 1.39477,0 2.026826,0.24202 2.653626,1.01609 0.45253,0.55884 0.82278,1.2939 0.82278,1.63345 0,0.97604 -1.25689,1.2018 -2.156776,0.38742 -1.02304,-0.92585 -2.40636,-0.70858 -2.40636,0.37795 0,0.58479 0.52599,0.97056 1.86076,1.36466 1.023406,0.30218 2.142716,0.78343 2.487356,1.06946 0.93175,0.77329 1.26665,3.28885 0.63943,4.80309 -1.20211,2.90216 -4.742306,3.54693 -7.012126,1.27711 z m 9.738446,1.01803 c -0.39949,-0.1612 -0.54322,-1.88465 -0.54322,-6.51333 l 0,-6.29412 1.1951,0.13751 1.19511,0.13752 0.1214,6.05065 c 0.13114,6.53632 -0.0833,7.24242 -1.96839,6.48177 z m 6.00111,-0.47326 c -0.87239,-0.70642 -1.02185,-1.3074 -1.22128,-4.911 -0.15544,-2.80874 -0.41437,-4.21588 -0.81952,-4.45361 -0.89611,-0.52581 -0.71996,-2.37835 0.27689,-2.91185 0.538,-0.28792 0.8717,-0.9147 0.87583,-1.64498 0.009,-1.58694 0.57759,-2.38439 1.56646,-2.19678 0.5971,0.11328 0.85375,0.59855 0.95324,1.80231 0.10577,1.27978 0.37241,1.73712 1.19511,2.04991 1.38501,0.52658 1.37141,1.9377 -0.0275,2.85431 -0.96498,0.63228 -1.08571,1.00996 -1.0798,3.37804 0.007,2.87487 0.2156,3.44 1.43484,3.89051 0.55595,0.20542 0.74887,0.64619 0.65188,1.48934 -0.11301,0.98255 -0.37785,1.22103 -1.47492,1.32816 -0.81751,0.0798 -1.7235,-0.18226 -2.33122,-0.67436 z m 5.61419,-0.43403 c -0.72299,-0.91716 -0.89049,-1.58197 -0.72024,-2.85853 0.28957,-2.17127 1.26586,-3.18962 3.7233,-3.88369 2.15061,-0.60742 2.69381,-1.74587 1.26351,-2.64809 -0.58091,-0.36642 -0.9625,-0.2593 -1.76635,0.49587 -1.90467,1.78935 -3.42652,1.02083 -2.29841,-1.16069 1.29841,-2.51083 5.984,-2.72975 7.27915,-0.34009 0.2811,0.51865 0.5968,3.12344 0.70156,5.78842 0.17609,4.48006 0.12599,4.87991 -0.66454,5.30299 -0.63499,0.33984 -1.08059,0.29957 -1.73172,-0.1565 -0.75603,-0.52955 -0.98962,-0.5286 -1.69687,0.007 -1.34207,1.01604 -3.03609,0.78964 -4.08939,-0.54654 z m 4.85672,-2.47115 c 0.55416,-1.21626 0.23743,-2.41792 -0.63733,-2.41792 -1.01671,0 -2.14331,1.58675 -1.82922,2.57636 0.39296,1.23811 1.87357,1.14301 2.46655,-0.15844 z m 6.11363,3.30013 c -0.418,-0.26525 -0.52586,-1.85444 -0.43458,-6.40346 l 0.12139,-6.05065 2.49886,-0.0633 2.49886,-0.0633 0,1.45106 c 0,0.96591 -0.29517,1.65783 -0.88282,2.06943 -1.14472,0.80179 -1.72468,2.89553 -1.72468,6.22628 0,2.03609 -0.1637,2.73534 -0.68743,2.93631 -0.82961,0.31836 -0.71314,0.32693 -1.3896,-0.10234 z m 6.9661,0.0783 c -0.39948,-0.1612 -0.54323,-1.88465 -0.54323,-6.51333 l 0,-6.29412 1.19511,0.13751 1.19511,0.13752 0.12139,6.05065 c 0.13115,6.53632 -0.0833,7.24242 -1.96838,6.48177 z m 5.1413,-0.4727 c -1.34516,-1.0994 -1.58241,-3.47966 -0.51655,-5.18234 0.63262,-1.01059 1.42299,-1.53769 2.95422,-1.97018 2.25772,-0.63766 2.80555,-1.76752 1.30279,-2.68692 -0.63883,-0.39084 -0.93955,-0.29709 -1.5907,0.49587 -0.81488,0.99233 -2.36335,1.3089 -2.81644,0.5758 -0.48176,-0.77951 0.77024,-2.60676 2.27553,-3.32107 1.27726,-0.6061 1.79952,-0.64014 3.23285,-0.2107 2.35988,0.70704 2.94589,2.26181 2.94589,7.8158 0,3.79229 -0.10285,4.39955 -0.80913,4.77755 -0.57644,0.3085 -1.04182,0.26289 -1.61822,-0.15859 -0.684,-0.50015 -0.94338,-0.49755 -1.67778,0.0168 -1.17471,0.82279 -2.55966,0.7656 -3.68246,-0.15207 z m 4.29563,-2.68759 c 0.74721,-1.39618 0.5547,-2.63607 -0.40928,-2.63607 -1.05386,0 -2.30285,1.78934 -1.92901,2.76356 0.37446,0.97583 1.78908,0.89871 2.33829,-0.12749 z M 64.376604,283.29736 c -0.51375,-0.37567 -0.72337,-0.99387 -0.62629,-1.84698 0.12548,-1.10265 0.3286,-1.28232 1.44968,-1.28232 1.10614,0 1.32498,0.18513 1.4438,1.22138 0.13058,1.13879 -0.51494,2.47258 -1.19666,2.47258 -0.16407,0 -0.6458,-0.25409 -1.07053,-0.56466 z m 40.696516,0.27685 c -0.30481,-0.123 -0.54322,-0.96625 -0.54322,-1.92132 0,-1.60153 0.0771,-1.70213 1.30375,-1.70213 1.22535,0 1.30375,0.10174 1.30375,1.69184 0,1.14185 -0.22348,1.7776 -0.68742,1.95563 -0.37808,0.14509 -0.72032,0.24835 -0.76053,0.22948 -0.0402,-0.0189 -0.31755,-0.13294 -0.61633,-0.2535 z m 29.55175,0 c -0.30481,-0.123 -0.54323,-0.96625 -0.54323,-1.92132 0,-1.60153 0.0771,-1.70213 1.30376,-1.70213 1.22535,0 1.30375,0.10174 1.30375,1.69184 0,1.14185 -0.22348,1.7776 -0.68742,1.95563 -0.37808,0.14509 -0.72032,0.24835 -0.76052,0.22948 -0.0402,-0.0189 -0.31756,-0.13294 -0.61634,-0.2535 z m -15.14813,-1.52546 c -0.34959,-0.56566 2.80645,-3.47732 3.523,-3.25018 1.10007,0.3487 0.60103,1.60797 -1.05036,2.65044 -2.01788,1.27384 -2.05104,1.28188 -2.47264,0.59974 z M 90.949134,277.3049 c -0.92186,-0.53263 -0.96278,-2.57365 -0.151,-7.53166 0.42945,-2.62292 0.79721,-3.63073 1.54616,-4.2372 1.89848,-1.5373 4.79767,-0.64977 4.79767,1.4687 0,1.39662 -2.54851,9.31591 -3.15375,9.80003 -0.92615,0.74081 -2.24646,0.95809 -3.03908,0.50013 z m -48.75748,-6.14253 c -0.5672,-0.80979 -0.67652,-2.67071 -0.67652,-11.51649 0,-5.80284 -0.13127,-10.55062 -0.29172,-10.55062 -0.16044,0 -0.62106,0.29806 -1.02361,0.66236 -0.99886,0.90396 -1.87824,0.4629 -2.75882,-1.3837 -0.8808,-1.84706 -0.74895,-2.12159 2.84341,-5.92046 2.20203,-2.32861 2.47597,-2.48447 4.36655,-2.48447 3.51161,0 3.38296,-0.61011 3.38296,16.04331 0,16.60789 0.10311,16.11594 -3.3776,16.11594 -1.35514,0 -1.95194,-0.23387 -2.46465,-0.96587 z m 15.35317,0.39113 c -5.19397,-1.93817 -7.75119,-7.01533 -7.76616,-15.4191 -0.0137,-7.68552 2.16073,-12.7243 6.45333,-14.95434 2.03089,-1.05506 2.81466,-1.20985 6.08418,-1.20153 4.22522,0.0107 6.23966,0.69532 8.88777,3.0204 l 1.60128,1.40594 0,-1.25208 c 0,-0.68864 0.30444,-1.68672 0.67652,-2.21794 0.66409,-0.94812 0.85144,-0.96586 10.19745,-0.96586 10.82447,0 10.42067,-0.14429 10.42067,3.72361 0,1.59425 -1.09676,4.77129 -4.99818,14.47851 -3.02312,7.52187 -5.36049,12.73661 -5.91504,13.19661 -1.15601,0.9589 -4.40628,1.02453 -5.16994,0.10438 -0.45067,-0.54302 0.29241,-2.725 4.31055,-12.65746 2.67031,-6.60073 4.79667,-12.05976 4.72525,-12.13117 -0.38265,-0.38266 -13.37742,-0.36168 -13.36323,0.0216 0.009,0.23902 0.2994,1.60796 0.64569,3.04209 0.82693,3.42471 0.81105,9.08582 -0.036,12.80972 -0.85408,3.75513 -2.73466,6.63569 -5.32203,8.15199 -1.69761,0.99487 -2.58308,1.18907 -5.92843,1.30021 -2.53926,0.0844 -4.48941,-0.0771 -5.50375,-0.45556 z m 7.95065,-6.51699 c 0.46219,-0.28242 1.26926,-1.19797 1.79349,-2.03454 0.84992,-1.35636 0.95312,-2.11268 0.95312,-6.98509 0,-5.22578 -0.0518,-5.54236 -1.18839,-7.25984 -2.28009,-3.44545 -7.01741,-3.53535 -9.24093,-0.17537 -1.36588,2.06398 -1.96914,6.25691 -1.47197,10.23087 0.51942,4.15184 1.70878,5.90219 4.73065,6.962 0.88441,0.31017 3.39368,-0.10843 4.42403,-0.73803 z m 38.178236,6.63038 c -3.24049,-1.36017 -5.227996,-3.97343 -5.227996,-6.87396 0,-1.96544 0.87056,-3.09472 2.385706,-3.09472 1.61813,0 2.31434,0.41922 3.27346,1.97111 1.09827,1.77704 3.20434,2.55233 6.16154,2.26818 2.88573,-0.27729 4.04163,-1.42658 4.04163,-4.01855 0,-3.20858 -0.52841,-3.45642 -7.72544,-3.62346 -3.42037,-0.0794 -6.41941,-0.3455 -6.721766,-0.59645 -0.75894,-0.62985 -0.78142,-16.45159 -0.0245,-17.20855 0.371976,-0.37199 3.097866,-0.5215 9.507646,-0.5215 7.8287,0 9.06297,0.0926 9.58259,0.71866 0.75538,0.91019 0.77757,4.27122 0.0331,5.01785 -0.3891,0.39024 -2.53949,0.63216 -6.95335,0.78225 l -6.39005,0.2173 0,2.39021 0,2.39022 4.12856,0.31309 c 2.2707,0.1722 4.95413,0.62627 5.96317,1.00904 3.60982,1.36934 5.10543,4.52836 4.81901,10.17871 -0.20472,4.03875 -1.19774,6.21876 -3.53854,7.7683 -1.61955,1.07209 -2.12906,1.16385 -6.99408,1.25959 -2.90087,0.0571 -5.72731,-0.0982 -6.32076,-0.34732 z m 21.57138,-0.26296 c -0.15935,-0.15934 -0.28972,-1.89547 -0.28972,-3.85804 0,-2.64168 -0.16929,-3.70882 -0.65188,-4.10934 -0.35853,-0.29756 -0.65188,-0.78646 -0.65188,-1.08646 0,-0.3 0.29335,-0.78891 0.65188,-1.08646 0.35853,-0.29756 0.65188,-0.99178 0.65188,-1.54272 0,-1.28317 1.91696,-2.80313 3.53528,-2.80313 1.0214,0 1.24515,0.1857 1.24515,1.03346 0,0.57315 -0.43552,1.3474 -0.97782,1.73833 l -0.97781,0.70489 0.97781,0.70488 c 1.20963,0.87199 1.24936,1.72672 0.10865,2.33721 -0.75461,0.40385 -0.86917,0.90994 -0.86917,3.83963 0,2.04514 -0.20544,3.57991 -0.5215,3.89597 -0.56819,0.56819 -1.76963,0.69302 -2.23087,0.23178 z m 6.5371,0.0183 c -0.16943,-0.16943 -0.30806,-2.53227 -0.30806,-5.25075 l 0,-4.9427 1.84699,0.0521 c 1.01584,0.0287 2.38442,-0.084 3.04129,-0.25039 0.80322,-0.20344 1.55065,-0.069 2.28254,0.41054 0.9842,0.64487 1.21073,0.6497 2.36944,0.0505 1.69362,-0.87581 2.28908,-0.83701 3.65597,0.23818 1.10008,0.86533 1.14506,1.07073 1.14506,5.22865 0,3.60598 -0.11859,4.37345 -0.71094,4.60076 -1.5515,0.59537 -2.10784,-0.43989 -2.2404,-4.16903 -0.0941,-2.64697 -0.29058,-3.62296 -0.76607,-3.80542 -1.34111,-0.51464 -1.93218,0.703 -1.93218,3.98039 0,3.32751 -0.51223,4.34312 -2.0434,4.0515 -0.65655,-0.12505 -0.81612,-0.73116 -0.9987,-3.79343 -0.16793,-2.81671 -0.38732,-3.75133 -0.96585,-4.11449 -1.27341,-0.79935 -1.84149,0.35042 -2.07624,4.20228 -0.1934,3.1734 -0.31481,3.57936 -1.10434,3.69237 -0.48788,0.0698 -1.02568,-0.0116 -1.19511,-0.18107 z"
         id="path4741"
         inkscape:connector-curvature="0" />
      <text
         xml:space="preserve"
         style="font-style:normal;font-variant:normal;font-weight:normal;font-stretch:normal;font-size:14.5637846px;line-height:125%;font-family:'Open Sans';-inkscape-font-specification:'Open Sans, Normal';text-align:start;letter-spacing:0px;word-spacing:0px;writing-mode:lr-tb;text-anchor:start;fill:#000000;fill-opacity:1;stroke:none;stroke-width:1px;stroke-linecap:butt;stroke-linejoin:miter;stroke-opacity:1"
         x="42.596035"
         y="248.13155"
         id="text4749"
         sodipodi:linespacing="125%"><tspan
           sodipodi:role="line"
           id="tspan4751"
           x="42.596035"
           y="248.13155"
           style="-inkscape-font-specification:'sans-serif, Bold';font-family:sans-serif;font-weight:bold;font-style:normal;font-stretch:normal;font-variant:normal;font-size:14.56378454px;text-anchor:start;text-align:start;writing-mode:lr;line-height:125%">107,5</tspan></text>
    </g>
    <g
       id="g4564"
       transform="translate(114.4606,926.67259)">
      <g
         id="g4524" />
      <g
         id="g4528" />
      <g
         id="g4530" />
      <g
         id="g4532" />
      <g
         id="g4534" />
      <g
         id="g4536" />
      <g
         id="g4538" />
      <g
         id="g4540" />
      <g
         id="g4542" />
      <g
         id="g4544" />
      <g
         id="g4546" />
      <g
         id="g4548" />
      <g
         id="g4550" />
      <g
         id="g4552" />
      <g
         id="g4554" />
      <g
         id="g4556" />
    </g>
    <g
       id="g4698"
       transform="matrix(-0.16005387,0,0,0.16005387,84.920308,888.20887)">
      <g
         id="g4658" />
      <g
         id="g4662" />
      <g
         id="g4664" />
      <g
         id="g4666" />
      <g
         id="g4668" />
      <g
         id="g4670" />
      <g
         id="g4672" />
      <g
         id="g4674" />
      <g
         id="g4676" />
      <g
         id="g4678" />
      <g
         id="g4680" />
      <g
         id="g4682" />
      <g
         id="g4684" />
      <g
         id="g4686" />
      <g
         id="g4688" />
      <g
         id="g4690" />
    </g>
  </g>
</svg>
