<?xml version="1.0" encoding="UTF-8" standalone="no"?>
<!-- Created with Inkscape (http://www.inkscape.org/) -->

<svg
   xmlns:dc="http://purl.org/dc/elements/1.1/"
   xmlns:cc="http://creativecommons.org/ns#"
   xmlns:rdf="http://www.w3.org/1999/02/22-rdf-syntax-ns#"
   xmlns:svg="http://www.w3.org/2000/svg"
   xmlns="http://www.w3.org/2000/svg"
   xmlns:sodipodi="http://sodipodi.sourceforge.net/DTD/sodipodi-0.dtd"
   xmlns:inkscape="http://www.inkscape.org/namespaces/inkscape"
   width="220"
   height="220"
   viewBox="0 0 220 220"
   id="svg2"
   version="1.1"
   inkscape:version="0.91 r13725"
   sodipodi:docname="ufu_professor.svg">
  <defs
     id="defs4" />
  <sodipodi:namedview
     id="base"
     pagecolor="#ffffff"
     bordercolor="#666666"
     borderopacity="1.0"
     inkscape:pageopacity="0.0"
     inkscape:pageshadow="2"
     inkscape:zoom="2.9590909"
     inkscape:cx="110"
     inkscape:cy="110"
     inkscape:document-units="px"
     inkscape:current-layer="layer1"
     showgrid="false"
     units="px"
     inkscape:window-width="1440"
     inkscape:window-height="847"
     inkscape:window-x="-8"
     inkscape:window-y="-8"
     inkscape:window-maximized="1" />
  <metadata
     id="metadata7">
    <rdf:RDF>
      <cc:Work
         rdf:about="">
        <dc:format>image/svg+xml</dc:format>
        <dc:type
           rdf:resource="http://purl.org/dc/dcmitype/StillImage" />
        <dc:title />
      </cc:Work>
    </rdf:RDF>
  </metadata>
  <g
     inkscape:label="Camada 1"
     inkscape:groupmode="layer"
     id="layer1"
     transform="translate(0,-832.36216)">
    <g
       id="g4185"
       transform="matrix(0.31054775,0,0,0.31054775,20.000001,852.36216)">
      <g
         id="g4139">
        <g
           id="g4141" />
      </g>
      <g
         id="g4149" />
      <g
         id="g4151" />
      <g
         id="g4153" />
      <g
         id="g4155" />
      <g
         id="g4157" />
      <g
         id="g4159" />
      <g
         id="g4161" />
      <g
         id="g4163" />
      <g
         id="g4165" />
      <g
         id="g4167" />
      <g
         id="g4169" />
      <g
         id="g4171" />
      <g
         id="g4173" />
      <g
         id="g4175" />
      <g
         id="g4177" />
    </g>
    <path
       style="color:#000000;clip-rule:nonzero;display:inline;overflow:visible;visibility:visible;opacity:1;isolation:auto;mix-blend-mode:normal;color-interpolation:sRGB;color-interpolation-filters:linearRGB;solid-color:#000000;solid-opacity:1;fill:#ffffff;fill-opacity:1;fill-rule:nonzero;stroke:none;stroke-width:5;stroke-linecap:square;stroke-linejoin:miter;stroke-miterlimit:4;stroke-dasharray:none;stroke-dashoffset:0;stroke-opacity:1;color-rendering:auto;image-rendering:auto;shape-rendering:auto;text-rendering:auto;enable-background:accumulate"
       d="M 0 0 L 0 220 L 220 220 L 220 0 L 0 0 z M 58.669922 23.736328 A 19.671291 19.671291 0 0 1 78.341797 43.408203 A 19.671291 19.671291 0 0 1 58.669922 63.078125 A 19.671291 19.671291 0 0 1 38.998047 43.408203 A 19.671291 19.671291 0 0 1 58.669922 23.736328 z M 103.37305 39.123047 L 195.19727 39.123047 C 197.84828 39.123047 200 41.274767 200 43.925781 L 200 104.72656 C 200 107.37777 197.84828 109.5293 195.19727 109.5293 L 122.91016 109.5293 C 126.57931 107.87741 129.15234 104.1706 129.15234 99.886719 C 129.15234 97.581489 128.40296 95.447672 127.1543 93.71875 L 145.57812 71.128906 C 146.74995 69.707348 146.55664 67.613231 145.1543 66.441406 C 143.71353 65.211951 141.50549 65.479475 140.31445 66.939453 L 121.67969 89.78125 C 120.68075 89.493096 119.64433 89.320312 118.56836 89.320312 L 118.56836 89.339844 L 102.91211 89.339844 L 98.570312 83.845703 L 98.570312 43.925781 C 98.570313 41.274767 100.72203 39.123047 103.37305 39.123047 z M 161.52344 51.96875 L 161.52344 71.980469 L 162.87695 73.332031 L 170.32227 73.332031 L 171.6875 71.966797 L 171.6875 60.539062 L 174.01367 58.212891 L 180.29688 58.212891 L 174.02734 51.96875 L 161.52344 51.96875 z M 158.28711 55.205078 L 152.67578 60.818359 L 152.67578 73.357422 L 161.49805 82.193359 L 165.4043 82.193359 L 174.45703 73.142578 L 174.45703 61.703125 L 175.3418 60.818359 L 182.90039 60.818359 L 181.58594 59.527344 L 174.69727 59.527344 L 173.0918 61.146484 L 173.0918 72.447266 L 168.94531 76.59375 L 161.52344 76.59375 L 158.28711 73.357422 L 158.28711 55.205078 z M 175.99805 62.119141 L 175.75781 62.359375 L 175.75781 73.673828 L 167.25 82.181641 L 167.26367 82.193359 L 174.00195 82.193359 L 182.84961 73.332031 L 182.84961 62.119141 L 175.99805 62.119141 z M 31.007812 69.380859 L 74.75 69.380859 C 79.437108 69.380859 83.874965 71.532015 86.794922 75.201172 L 98.550781 90.03125 L 101.0293 93.162109 C 101.0293 93.162109 112.16972 93.16243 118.58594 93.181641 C 121.23695 93.181641 123.38867 95.333361 123.38867 97.984375 L 123.38867 101.80664 C 123.38867 104.45765 121.23695 106.60937 118.58594 106.60938 L 97.800781 106.60938 C 95.745285 106.60938 93.804986 105.66854 92.537109 104.05469 L 83.777344 92.796875 C 83.335508 92.220568 82.624521 91.875 81.894531 91.875 L 81.300781 91.875 C 79.994485 91.875 78.917969 92.930545 78.917969 94.255859 L 78.841797 191.46094 C 78.841797 194.11214 76.690077 196.26367 74.039062 196.26367 L 65.970703 196.26367 C 63.319689 196.26367 61.167969 194.11214 61.167969 191.46094 L 61.167969 151.19727 C 61.167969 149.77571 60.015308 148.62305 58.59375 148.62305 C 57.172192 148.62305 56.019531 149.77571 56.019531 151.19727 L 56.019531 191.26953 C 56.019531 194.01679 53.772456 196.26367 51.025391 196.26367 L 43.128906 196.26367 C 40.477892 196.26367 38.326172 194.11214 38.326172 191.46094 L 38.289062 94.257812 C 38.289062 92.951516 37.231757 91.875 35.90625 91.875 C 34.599953 91.875 33.523438 92.932498 33.523438 94.257812 L 33.523438 131.64062 C 33.523438 134.29164 31.371717 136.44336 28.720703 136.44336 L 24.802734 136.44336 C 22.151721 136.44336 20 134.29164 20 131.64062 L 20 80.386719 C 20 74.297071 24.937375 69.380859 31.007812 69.380859 z "
       transform="translate(0,832.36216)"
       id="rect4208" />
    <g
       id="g4257"
       transform="matrix(0.19210245,0,0,0.19210245,20.000002,852.36216)">
      <g
         id="g4211">
        <g
           id="g4217" />
      </g>
      <g
         id="g4221" />
      <g
         id="g4223" />
      <g
         id="g4225" />
      <g
         id="g4227" />
      <g
         id="g4229" />
      <g
         id="g4231" />
      <g
         id="g4233" />
      <g
         id="g4235" />
      <g
         id="g4237" />
      <g
         id="g4239" />
      <g
         id="g4241" />
      <g
         id="g4243" />
      <g
         id="g4245" />
      <g
         id="g4247" />
      <g
         id="g4249" />
    </g>
    <g
       transform="matrix(0.34742306,0,0,0.34742306,152.67511,548.94158)"
       id="layer1-4"
       inkscape:label="Camada 1">
      <text
         sodipodi:linespacing="125%"
         id="text3356"
         y="1073.4818"
         x="933.04791"
         style="font-style:normal;font-variant:normal;font-weight:normal;font-stretch:normal;font-size:15px;line-height:125%;font-family:'Open Sans';-inkscape-font-specification:'Open Sans, Normal';text-align:start;letter-spacing:0px;word-spacing:0px;writing-mode:lr-tb;text-anchor:start;fill:#000000;fill-opacity:1;stroke:none;stroke-width:1px;stroke-linecap:butt;stroke-linejoin:miter;stroke-opacity:1"
         xml:space="preserve"><tspan
           y="1073.4818"
           x="933.04791"
           id="tspan3358"
           sodipodi:role="line" /></text>
    </g>
  </g>
</svg>
