<?xml version="1.0" encoding="UTF-8" standalone="no"?>
<!-- Created with Inkscape (http://www.inkscape.org/) -->

<svg
   xmlns:dc="http://purl.org/dc/elements/1.1/"
   xmlns:cc="http://creativecommons.org/ns#"
   xmlns:rdf="http://www.w3.org/1999/02/22-rdf-syntax-ns#"
   xmlns:svg="http://www.w3.org/2000/svg"
   xmlns="http://www.w3.org/2000/svg"
   xmlns:sodipodi="http://sodipodi.sourceforge.net/DTD/sodipodi-0.dtd"
   xmlns:inkscape="http://www.inkscape.org/namespaces/inkscape"
   width="220"
   height="220"
   viewBox="0 0 220 220"
   id="svg5354"
   version="1.1"
   inkscape:version="0.91 r13725"
   sodipodi:docname="ufu_normas_procedimentos_legislacoes.svg">
  <defs
     id="defs5356" />
  <sodipodi:namedview
     id="base"
     pagecolor="#ffffff"
     bordercolor="#666666"
     borderopacity="1.0"
     inkscape:pageopacity="0.0"
     inkscape:pageshadow="2"
     inkscape:zoom="0.73977273"
     inkscape:cx="-62.030674"
     inkscape:cy="33.782751"
     inkscape:document-units="px"
     inkscape:current-layer="layer1"
     showgrid="false"
     units="px"
     inkscape:window-width="1440"
     inkscape:window-height="847"
     inkscape:window-x="-8"
     inkscape:window-y="-8"
     inkscape:window-maximized="1" />
  <metadata
     id="metadata5359">
    <rdf:RDF>
      <cc:Work
         rdf:about="">
        <dc:format>image/svg+xml</dc:format>
        <dc:type
           rdf:resource="http://purl.org/dc/dcmitype/StillImage" />
        <dc:title></dc:title>
      </cc:Work>
    </rdf:RDF>
  </metadata>
  <g
     inkscape:label="Camada 1"
     inkscape:groupmode="layer"
     id="layer1"
     transform="translate(0,-832.36213)">
    <path
       style="color:#000000;clip-rule:nonzero;display:inline;overflow:visible;visibility:visible;opacity:1;isolation:auto;mix-blend-mode:normal;color-interpolation:sRGB;color-interpolation-filters:linearRGB;solid-color:#000000;solid-opacity:1;fill:#ffffff;fill-opacity:1;fill-rule:nonzero;stroke:none;stroke-width:5;stroke-linecap:square;stroke-linejoin:miter;stroke-miterlimit:4;stroke-dasharray:none;stroke-dashoffset:0;stroke-opacity:1;color-rendering:auto;image-rendering:auto;shape-rendering:auto;text-rendering:auto;enable-background:accumulate"
       d="M 0 0 L 0 220 L 220 220 L 220 0 L 0 0 z M 58.4375 35 L 161.5625 35 L 161.5625 156.875 L 58.4375 156.875 C 53.260156 156.875 49.0625 161.06797 49.0625 166.25 C 49.0625 171.43203 53.260156 175.625 58.4375 175.625 L 170.9375 175.625 L 170.9375 53.75 L 180.3125 53.75 L 180.3125 185 L 58.4375 185 C 48.082813 185 39.6875 176.60469 39.6875 166.25 L 39.6875 53.75 C 39.6875 43.395313 48.082813 35 58.4375 35 z M 104.5918 55.947266 C 101.06803 55.947266 98.175195 58.647311 97.871094 62.091797 C 95.744199 62.735411 93.928057 64.092188 92.697266 65.882812 L 70.900391 65.882812 C 69.263838 65.882812 67.935547 67.209561 67.935547 68.845703 C 67.935547 70.482051 69.263662 71.808594 70.900391 71.808594 L 71.039062 71.808594 L 59.939453 89.421875 C 59.376543 90.314932 59.644023 91.495889 60.537109 92.058594 C 60.853809 92.258311 61.206406 92.351562 61.554688 92.351562 C 62.189346 92.351562 62.81043 92.037119 63.173828 91.460938 L 72.800781 76.183594 L 82.427734 91.460938 C 82.990645 92.354023 84.171397 92.621709 85.064453 92.058594 C 85.957744 91.495889 86.224814 90.314932 85.662109 89.421875 L 74.5625 71.808594 L 100.76758 71.808594 L 100.76758 128.79297 L 94.548828 128.79297 C 90.827598 128.79297 87.810547 131.80999 87.810547 135.53125 L 121.36914 135.53125 C 121.36914 131.80999 118.35387 128.79297 114.63281 128.79297 L 108.41406 128.79297 L 108.41406 71.808594 L 134.61914 71.808594 L 123.51953 89.421875 C 122.95662 90.314932 123.22393 91.495889 124.11719 92.058594 C 124.43392 92.258311 124.7843 92.351562 125.13281 92.351562 C 125.76765 92.351562 126.39054 92.037119 126.75391 91.460938 L 136.38086 76.183594 L 146.00586 91.460938 C 146.56897 92.354023 147.74973 92.621709 148.64258 92.058594 C 149.53566 91.495889 149.80489 90.314932 149.24219 89.421875 L 138.14062 71.808594 L 138.2832 71.808594 C 139.91955 71.808594 141.24609 70.482051 141.24609 68.845703 C 141.24609 67.209561 139.91976 65.882812 138.2832 65.882812 L 116.48438 65.882812 C 115.25338 64.092188 113.43549 62.735411 111.30859 62.091797 C 111.00473 58.647311 108.11536 55.947266 104.5918 55.947266 z M 58.734375 94.386719 C 58.17167 94.386719 57.716797 94.841416 57.716797 95.404297 C 57.716797 103.72218 64.482725 110.49023 72.800781 110.49023 C 81.118633 110.49023 87.886719 103.72218 87.886719 95.404297 C 87.886514 94.841621 87.429893 94.386719 86.867188 94.386719 L 58.734375 94.386719 z M 122.31445 94.386719 C 121.75175 94.386719 121.29492 94.841416 121.29492 95.404297 C 121.29492 103.72218 128.0626 110.49023 136.38086 110.49023 C 144.69871 110.49023 151.4668 103.72218 151.4668 95.404297 C 151.46659 94.841621 151.00802 94.386719 150.44531 94.386719 L 122.31445 94.386719 z "
       transform="translate(0,832.36213)"
       id="rect4364" />
    <g
       id="g5972"
       transform="matrix(0.24744768,0,0,0.24744768,24.12566,862.36243)">
      <g
         id="g5905">
        <g
           id="_x31_5_38_">
          <g
             id="g5908" />
        </g>
      </g>
      <g
         id="g5936" />
      <g
         id="g5938" />
      <g
         id="g5940" />
      <g
         id="g5942" />
      <g
         id="g5944" />
      <g
         id="g5946" />
      <g
         id="g5948" />
      <g
         id="g5950" />
      <g
         id="g5952" />
      <g
         id="g5954" />
      <g
         id="g5956" />
      <g
         id="g5958" />
      <g
         id="g5960" />
      <g
         id="g5962" />
      <g
         id="g5964" />
    </g>
    <g
       id="g6052"
       transform="matrix(0.09398474,0,0,0.09398474,140.524,980.12437)">
      <g
         id="g6006">
        <g
           id="g6008" />
      </g>
      <g
         id="g6016" />
      <g
         id="g6018" />
      <g
         id="g6020" />
      <g
         id="g6022" />
      <g
         id="g6024" />
      <g
         id="g6026" />
      <g
         id="g6028" />
      <g
         id="g6030" />
      <g
         id="g6032" />
      <g
         id="g6034" />
      <g
         id="g6036" />
      <g
         id="g6038" />
      <g
         id="g6040" />
      <g
         id="g6042" />
      <g
         id="g6044" />
    </g>
    <g
       transform="matrix(0.24744768,0,0,0.24744768,-235.41351,862.36243)"
       id="g6148">
      <g
         id="g6150">
        <g
           id="g6152">
          <g
             id="g6154" />
        </g>
      </g>
      <g
         id="g6182" />
      <g
         id="g6184" />
      <g
         id="g6186" />
      <g
         id="g6188" />
      <g
         id="g6190" />
      <g
         id="g6192" />
      <g
         id="g6194" />
      <g
         id="g6196" />
      <g
         id="g6198" />
      <g
         id="g6200" />
      <g
         id="g6202" />
      <g
         id="g6204" />
      <g
         id="g6206" />
      <g
         id="g6208" />
      <g
         id="g6210" />
    </g>
    <g
       id="g6268"
       transform="matrix(0.24744768,0,0,0.24744768,-496.35872,862.36243)">
      <g
         id="g6270">
        <g
           id="g6272">
          <g
             id="g6274" />
        </g>
      </g>
      <g
         id="g6302" />
      <g
         id="g6304" />
      <g
         id="g6306" />
      <g
         id="g6308" />
      <g
         id="g6310" />
      <g
         id="g6312" />
      <g
         id="g6314" />
      <g
         id="g6316" />
      <g
         id="g6318" />
      <g
         id="g6320" />
      <g
         id="g6322" />
      <g
         id="g6324" />
      <g
         id="g6326" />
      <g
         id="g6328" />
      <g
         id="g6330" />
    </g>
    <g
       id="g6383"
       transform="matrix(0.83333333,0,0,0.83333333,-372.72273,987.36213)">
      <g
         id="g6341">
        <g
           id="g6343" />
      </g>
      <g
         id="g6347" />
      <g
         id="g6349" />
      <g
         id="g6351" />
      <g
         id="g6353" />
      <g
         id="g6355" />
      <g
         id="g6357" />
      <g
         id="g6359" />
      <g
         id="g6361" />
      <g
         id="g6363" />
      <g
         id="g6365" />
      <g
         id="g6367" />
      <g
         id="g6369" />
      <g
         id="g6371" />
      <g
         id="g6373" />
      <g
         id="g6375" />
    </g>
    <g
       id="g4276"
       transform="matrix(0.29296874,0,0,0.29296874,-678.08878,604.88221)">
      <g
         id="g4236" />
      <g
         id="g4240" />
      <g
         id="g4242" />
      <g
         id="g4244" />
      <g
         id="g4246" />
      <g
         id="g4248" />
      <g
         id="g4250" />
      <g
         id="g4252" />
      <g
         id="g4254" />
      <g
         id="g4256" />
      <g
         id="g4258" />
      <g
         id="g4260" />
      <g
         id="g4262" />
      <g
         id="g4264" />
      <g
         id="g4266" />
      <g
         id="g4268" />
    </g>
    <g
       id="g4342"
       transform="matrix(0.21739083,0,0,0.21739083,-711.80524,597.1725)"
       style="fill:#00ff00">
      <g
         id="g4296"
         style="fill:#00ff00">
        <g
           id="g4298"
           style="fill:#00ff00" />
      </g>
      <g
         id="g4306"
         style="fill:#00ff00" />
      <g
         id="g4308"
         style="fill:#00ff00" />
      <g
         id="g4310"
         style="fill:#00ff00" />
      <g
         id="g4312"
         style="fill:#00ff00" />
      <g
         id="g4314"
         style="fill:#00ff00" />
      <g
         id="g4316"
         style="fill:#00ff00" />
      <g
         id="g4318"
         style="fill:#00ff00" />
      <g
         id="g4320"
         style="fill:#00ff00" />
      <g
         id="g4322"
         style="fill:#00ff00" />
      <g
         id="g4324"
         style="fill:#00ff00" />
      <g
         id="g4326"
         style="fill:#00ff00" />
      <g
         id="g4328"
         style="fill:#00ff00" />
      <g
         id="g4330"
         style="fill:#00ff00" />
      <g
         id="g4332"
         style="fill:#00ff00" />
      <g
         id="g4334"
         style="fill:#00ff00" />
    </g>
  </g>
</svg>
