<?xml version="1.0" encoding="UTF-8" standalone="no"?>
<!-- Created with Inkscape (http://www.inkscape.org/) -->

<svg
   xmlns:dc="http://purl.org/dc/elements/1.1/"
   xmlns:cc="http://creativecommons.org/ns#"
   xmlns:rdf="http://www.w3.org/1999/02/22-rdf-syntax-ns#"
   xmlns:svg="http://www.w3.org/2000/svg"
   xmlns="http://www.w3.org/2000/svg"
   xmlns:sodipodi="http://sodipodi.sourceforge.net/DTD/sodipodi-0.dtd"
   xmlns:inkscape="http://www.inkscape.org/namespaces/inkscape"
   width="220"
   height="220"
   viewBox="0 0 219.99999 220"
   id="svg2"
   version="1.1"
   inkscape:version="0.91 r13725"
   sodipodi:docname="ufu_certificados_dicap.svg">
  <defs
     id="defs4" />
  <sodipodi:namedview
     id="base"
     pagecolor="#ffffff"
     bordercolor="#666666"
     borderopacity="1.0"
     inkscape:pageopacity="0.0"
     inkscape:pageshadow="2"
     inkscape:zoom="2.9590909"
     inkscape:cx="52.734423"
     inkscape:cy="122.98333"
     inkscape:document-units="px"
     inkscape:current-layer="layer1"
     showgrid="false"
     units="px"
     inkscape:window-width="1440"
     inkscape:window-height="847"
     inkscape:window-x="-8"
     inkscape:window-y="-8"
     inkscape:window-maximized="1"
     inkscape:object-paths="true" />
  <metadata
     id="metadata7">
    <rdf:RDF>
      <cc:Work
         rdf:about="">
        <dc:format>image/svg+xml</dc:format>
        <dc:type
           rdf:resource="http://purl.org/dc/dcmitype/StillImage" />
        <dc:title></dc:title>
      </cc:Work>
    </rdf:RDF>
  </metadata>
  <g
     inkscape:label="Camada 1"
     inkscape:groupmode="layer"
     id="layer1"
     transform="translate(0,-832.36216)">
    <path
       style="color:#000000;clip-rule:nonzero;display:inline;overflow:visible;visibility:visible;opacity:1;isolation:auto;mix-blend-mode:normal;color-interpolation:sRGB;color-interpolation-filters:linearRGB;solid-color:#000000;solid-opacity:1;fill:#ffffff;fill-opacity:1;fill-rule:nonzero;stroke:none;stroke-width:5;stroke-linecap:square;stroke-linejoin:miter;stroke-miterlimit:4;stroke-dasharray:none;stroke-dashoffset:0;stroke-opacity:1;color-rendering:auto;image-rendering:auto;shape-rendering:auto;text-rendering:auto;enable-background:accumulate"
       d="M 0 0 L 0 220 L 220 220 L 220 0 L 0 0 z M 30 49.046875 L 190 49.046875 L 190 170.95312 L 30 170.95312 L 30 49.046875 z M 45.238281 64.285156 L 45.238281 155.71484 L 116.4043 155.71484 L 116.4043 168.9375 L 137.08594 163.00977 L 157.38672 168.72656 L 157.33398 155.71484 L 174.76172 155.71484 L 174.76172 64.285156 L 45.238281 64.285156 z M 137.07227 77.333984 L 147.27344 83.169922 L 158.62305 86.255859 L 161.70508 97.601562 L 167.54492 107.80664 L 161.70508 118.00977 L 158.62305 129.35156 L 154.36133 130.51172 L 154.50195 164.93555 L 137.07812 160.02734 L 119.27344 165.13281 L 119.27344 130.37109 L 115.52344 129.35156 L 112.4375 118.00977 L 106.59766 107.80664 L 112.4375 97.601562 L 115.52344 86.255859 L 126.86914 83.169922 L 137.07227 77.333984 z M 55.464844 80.464844 L 101.6543 80.464844 L 101.6543 86.203125 L 55.464844 86.203125 L 55.464844 80.464844 z M 137.07227 83.945312 L 128.72852 88.611328 L 120.19922 90.931641 L 117.59961 100.13281 L 113.21094 107.80664 L 117.87891 116.15039 L 120.19922 124.68164 L 120.21094 124.68359 L 129.40234 127.27734 L 137.07227 131.66797 L 145.41406 126.99805 L 153.94727 124.68164 L 156.54297 115.47656 L 160.93359 107.80664 L 156.26367 99.460938 L 153.94727 90.931641 L 144.74219 88.333984 L 137.07227 83.945312 z M 55.464844 95.703125 L 101.6543 95.703125 L 101.6543 101.44141 L 55.464844 101.44141 L 55.464844 95.703125 z M 135.36914 104.4375 C 136.20763 104.4375 136.88844 104.68407 137.41211 105.17969 C 137.72382 105.47269 137.95938 105.89475 138.11523 106.44336 L 136.74414 106.76953 C 136.66309 106.41418 136.49309 106.13346 136.23438 105.92773 C 135.97876 105.72201 135.66665 105.61914 135.29883 105.61914 C 134.79075 105.61914 134.37849 105.80132 134.06055 106.16602 C 133.74572 106.53072 133.58789 107.12277 133.58789 107.93945 C 133.58789 108.806 133.74493 109.4232 134.05664 109.79102 C 134.36835 110.15884 134.77275 110.3418 135.27148 110.3418 C 135.6393 110.3418 135.95575 110.22597 136.2207 109.99219 C 136.48566 109.75841 136.67568 109.39052 136.79102 108.88867 L 138.13281 109.31445 C 137.92709 110.06255 137.58355 110.61772 137.10352 110.98242 C 136.6266 111.344 136.02078 111.52539 135.28516 111.52539 C 134.37496 111.52539 133.62702 111.216 133.04102 110.5957 C 132.455 109.97228 132.16211 109.11952 132.16211 108.04102 C 132.16211 106.90016 132.45775 106.01637 133.04688 105.38672 C 133.63599 104.75395 134.40907 104.4375 135.36914 104.4375 z M 122.82422 104.55469 L 125.35547 104.55469 C 125.9259 104.55469 126.35896 104.59827 126.6582 104.68555 C 127.06031 104.804 127.40464 105.01405 127.69141 105.31641 C 127.97818 105.61877 128.19804 105.99018 128.34766 106.42969 C 128.49728 106.86608 128.57227 107.40475 128.57227 108.04688 C 128.57227 108.61106 128.50159 109.09752 128.36133 109.50586 C 128.18989 110.00459 127.94489 110.4082 127.62695 110.7168 C 127.38693 110.95058 127.06263 111.13276 126.6543 111.26367 C 126.34882 111.36031 125.94089 111.4082 125.42969 111.4082 L 122.82422 111.4082 L 122.82422 104.55469 z M 129.70703 104.55469 L 131.0918 104.55469 L 131.0918 111.4082 L 129.70703 111.4082 L 129.70703 104.55469 z M 141.29883 104.55469 L 142.76172 104.55469 L 145.50586 111.4082 L 144 111.4082 L 143.40234 109.85156 L 140.66211 109.85156 L 140.09766 111.4082 L 138.62891 111.4082 L 141.29883 104.55469 z M 146.26367 104.55469 L 148.48438 104.55469 C 149.32597 104.55469 149.87525 104.58768 150.13086 104.65625 C 150.52361 104.75911 150.85223 104.98408 151.11719 105.33008 C 151.38214 105.67296 151.51563 106.11662 151.51562 106.66211 C 151.51562 107.08292 151.4379 107.43784 151.28516 107.72461 C 151.13242 108.01138 150.93807 108.23714 150.70117 108.40234 C 150.46739 108.56443 150.22946 108.67162 149.98633 108.72461 C 149.65592 108.79008 149.17731 108.82227 148.55078 108.82227 L 147.64844 108.82227 L 147.64844 111.4082 L 146.26367 111.4082 L 146.26367 104.55469 z M 124.20898 105.71289 L 124.20898 110.25391 L 125.24219 110.25391 C 125.62871 110.25391 125.90864 110.23117 126.08008 110.1875 C 126.30451 110.13137 126.48827 110.03635 126.63477 109.90234 C 126.78439 109.76831 126.90649 109.54962 127 109.24414 C 127.09351 108.93555 127.14062 108.51623 127.14062 107.98633 C 127.14062 107.45643 127.09351 107.0493 127 106.76562 C 126.90649 106.48197 126.77574 106.26053 126.60742 106.10156 C 126.4391 105.94259 126.22552 105.8354 125.9668 105.7793 C 125.77354 105.73563 125.39427 105.71289 124.83008 105.71289 L 124.20898 105.71289 z M 147.64844 105.71289 L 147.64844 107.6582 L 148.40625 107.6582 C 148.95174 107.6582 149.31609 107.62247 149.5 107.55078 C 149.68391 107.47909 149.82683 107.36758 149.92969 107.21484 C 150.03567 107.06211 150.08789 106.88425 150.08789 106.68164 C 150.08789 106.43227 150.01565 106.22654 149.86914 106.06445 C 149.72264 105.90237 149.53693 105.80029 149.3125 105.75977 C 149.14729 105.72857 148.81514 105.71289 148.31641 105.71289 L 147.64844 105.71289 z M 142.01367 106.15234 L 141.08789 108.69727 L 142.95898 108.69727 L 142.01367 106.15234 z M 55.464844 110.94141 L 101.6543 110.94141 L 101.6543 116.67773 L 55.464844 116.67773 L 55.464844 110.94141 z M 55.464844 126.17969 L 101.6543 126.17969 L 101.6543 131.91602 L 55.464844 131.91602 L 55.464844 126.17969 z "
       transform="translate(-7.6293945e-6,832.36216)"
       id="rect4809" />
    <g
       id="g3389"
       transform="matrix(0.2,0,0,0.2,29.999992,862.36226)">
      <g
         id="g3339" />
      <g
         id="g3353" />
      <g
         id="g3355" />
      <g
         id="g3357" />
      <g
         id="g3359" />
      <g
         id="g3361" />
      <g
         id="g3363" />
      <g
         id="g3365" />
      <g
         id="g3367" />
      <g
         id="g3369" />
      <g
         id="g3371" />
      <g
         id="g3373" />
      <g
         id="g3375" />
      <g
         id="g3377" />
      <g
         id="g3379" />
      <g
         id="g3381" />
    </g>
    <g
       style="font-style:normal;font-variant:normal;font-weight:bold;font-stretch:normal;font-size:9.57567501px;line-height:125%;font-family:Arial;-inkscape-font-specification:'Arial, Bold';text-align:start;letter-spacing:0px;word-spacing:0px;writing-mode:lr-tb;text-anchor:start;fill:#000000;fill-opacity:1;stroke:none;stroke-width:1px;stroke-linecap:butt;stroke-linejoin:miter;stroke-opacity:1"
       id="text4773" />
  </g>
</svg>
