<?xml version="1.0" encoding="UTF-8" standalone="no"?>
<!-- Created with Inkscape (http://www.inkscape.org/) -->

<svg
   xmlns:dc="http://purl.org/dc/elements/1.1/"
   xmlns:cc="http://creativecommons.org/ns#"
   xmlns:rdf="http://www.w3.org/1999/02/22-rdf-syntax-ns#"
   xmlns:svg="http://www.w3.org/2000/svg"
   xmlns="http://www.w3.org/2000/svg"
   xmlns:sodipodi="http://sodipodi.sourceforge.net/DTD/sodipodi-0.dtd"
   xmlns:inkscape="http://www.inkscape.org/namespaces/inkscape"
   width="220"
   height="220"
   viewBox="0 0 219.99999 220"
   id="svg2"
   version="1.1"
   inkscape:version="0.91 r13725"
   sodipodi:docname="ufu_prefeitura.svg">
  <defs
     id="defs4" />
  <sodipodi:namedview
     id="base"
     pagecolor="#ffffff"
     bordercolor="#666666"
     borderopacity="1.0"
     inkscape:pageopacity="0.0"
     inkscape:pageshadow="2"
     inkscape:zoom="2.9590909"
     inkscape:cx="110"
     inkscape:cy="110"
     inkscape:document-units="px"
     inkscape:current-layer="layer1"
     showgrid="false"
     units="px"
     inkscape:window-width="1440"
     inkscape:window-height="847"
     inkscape:window-x="-8"
     inkscape:window-y="-8"
     inkscape:window-maximized="1" />
  <metadata
     id="metadata7">
    <rdf:RDF>
      <cc:Work
         rdf:about="">
        <dc:format>image/svg+xml</dc:format>
        <dc:type
           rdf:resource="http://purl.org/dc/dcmitype/StillImage" />
        <dc:title></dc:title>
      </cc:Work>
    </rdf:RDF>
  </metadata>
  <g
     inkscape:label="Camada 1"
     inkscape:groupmode="layer"
     id="layer1"
     transform="translate(0,-832.36216)">
    <path
       style="color:#000000;clip-rule:nonzero;display:inline;overflow:visible;visibility:visible;opacity:1;isolation:auto;mix-blend-mode:normal;color-interpolation:sRGB;color-interpolation-filters:linearRGB;solid-color:#000000;solid-opacity:1;fill:#ffffff;fill-opacity:1;fill-rule:nonzero;stroke:none;stroke-width:5;stroke-linecap:square;stroke-linejoin:miter;stroke-miterlimit:4;stroke-dasharray:none;stroke-dashoffset:0;stroke-opacity:1;color-rendering:auto;image-rendering:auto;shape-rendering:auto;text-rendering:auto;enable-background:accumulate"
       d="M 0 0 L 0 220 L 220 220 L 220 0 L 0 0 z M 109.99805 30 C 110.48179 30 110.875 30.399216 110.875 30.876953 L 110.875 43.160156 L 117.01758 43.160156 L 117.01758 48.177734 C 135.79056 51.3296 150.34129 66.888705 151.92773 86.148438 L 152.10938 86.148438 C 154.04435 86.148438 155.61719 87.725319 155.61719 89.654297 C 155.61719 91.592289 154.04435 93.164062 152.10938 93.164062 L 67.888672 93.164062 C 65.953685 93.164063 64.382812 91.591387 64.382812 89.650391 C 64.382812 87.721413 65.953685 86.144531 67.888672 86.144531 L 68.066406 86.144531 C 69.661869 66.884799 84.209443 51.327647 102.98242 48.175781 L 102.98242 43.158203 L 109.12109 43.158203 L 109.12109 30.876953 C 109.12109 30.399216 109.5143 30 109.99805 30 z M 62.654297 99.304688 L 157.39648 99.304688 C 159.82423 99.304688 161.7832 101.26666 161.7832 103.69141 C 161.7832 106.12216 159.82423 108.07812 157.39648 108.07812 L 152.97656 108.07812 C 152.97656 108.1262 153.01367 108.18886 153.01367 108.25195 L 153.01367 127.1875 L 144.24023 127.1875 L 144.24023 108.25195 C 144.24023 108.20388 144.27148 108.14423 144.27148 108.07812 L 140.10547 108.07812 C 140.10547 108.1262 140.14062 108.18886 140.14062 108.25195 L 140.14062 127.1875 L 131.36719 127.1875 L 131.36719 108.25195 C 131.36719 108.20388 131.4043 108.14423 131.4043 108.07812 L 127.23633 108.07812 C 127.23633 108.1262 127.26953 108.18886 127.26953 108.25195 L 127.26953 127.1875 L 118.49609 127.1875 L 118.49609 108.25195 C 118.49609 108.20388 118.53125 108.14423 118.53125 108.07812 L 114.36328 108.07812 C 114.36328 108.1262 114.40039 108.18886 114.40039 108.25195 L 114.40039 127.1875 L 105.62695 127.1875 L 105.62695 108.25195 C 105.62695 108.20388 105.66211 108.14423 105.66211 108.07812 L 101.49609 108.07812 C 101.49609 108.1262 101.53125 108.18886 101.53125 108.25195 L 101.53125 127.1875 L 92.757812 127.1875 L 92.757812 108.25195 C 92.757813 108.20388 92.791016 108.14423 92.791016 108.07812 L 88.623047 108.07812 C 88.623047 108.1262 88.65625 108.18886 88.65625 108.25195 L 88.65625 127.1875 L 79.886719 127.1875 L 79.886719 108.25195 C 79.886719 108.20388 79.919922 108.14423 79.919922 108.07812 L 75.751953 108.07812 C 75.751953 108.1262 75.785156 108.18886 75.785156 108.25195 L 75.785156 127.1875 L 67.011719 127.1875 L 67.011719 108.25195 C 67.011719 108.20388 67.046875 108.14423 67.046875 108.07812 L 62.626953 108.07812 C 60.20221 108.07813 58.267578 106.11014 58.267578 103.69141 C 58.267578 101.26666 60.235563 99.304688 62.654297 99.304688 z M 50.34375 132.09766 L 169.65625 132.09766 C 172.084 132.09766 174.04297 134.07165 174.04297 136.48438 C 174.04297 138.91812 172.084 140.87109 169.65625 140.87109 L 165.26953 140.87109 L 165.26953 181.22852 L 169.65625 181.22852 C 172.084 181.22852 174.04297 183.20657 174.04297 185.61328 C 174.04297 188.05004 172.084 190 169.65625 190 L 50.34375 190 C 47.922011 190 45.957031 188.05004 45.957031 185.61328 C 45.957031 183.20056 47.922011 181.22852 50.34375 181.22852 L 54.730469 181.22852 L 54.730469 140.87109 L 50.34375 140.87109 C 47.922011 140.87109 45.957031 138.91812 45.957031 136.48438 C 45.957031 134.07165 47.922011 132.09766 50.34375 132.09766 z M 67.011719 140.87109 L 67.011719 181.22852 L 74.378906 181.22852 L 74.378906 140.87109 L 67.011719 140.87109 z M 86.664062 140.87109 L 86.664062 181.22852 L 94.035156 181.22852 L 94.035156 140.87109 L 86.664062 140.87109 z M 106.31445 140.87109 L 106.31445 181.22852 L 113.68164 181.22852 L 113.68164 140.87109 L 106.31445 140.87109 z M 125.96875 140.87109 L 125.96875 181.22852 L 133.33594 181.22852 L 133.33594 140.87109 L 125.96875 140.87109 z M 145.61914 140.87109 L 145.61914 181.22852 L 152.98633 181.22852 L 152.98633 140.87109 L 145.61914 140.87109 z "
       transform="translate(-7.6293945e-6,832.36216)"
       id="rect3336" />
    <g
       id="g3389"
       transform="matrix(0.2,0,0,0.2,29.999992,862.36226)">
      <g
         id="g3339" />
      <g
         id="g3353" />
      <g
         id="g3355" />
      <g
         id="g3357" />
      <g
         id="g3359" />
      <g
         id="g3361" />
      <g
         id="g3363" />
      <g
         id="g3365" />
      <g
         id="g3367" />
      <g
         id="g3369" />
      <g
         id="g3371" />
      <g
         id="g3373" />
      <g
         id="g3375" />
      <g
         id="g3377" />
      <g
         id="g3379" />
      <g
         id="g3381" />
    </g>
    <g
       id="g3454"
       transform="matrix(0.32653032,0,0,0.32653032,30.000115,862.36239)">
      <g
         id="g3418" />
      <g
         id="g3420" />
      <g
         id="g3422" />
      <g
         id="g3424" />
      <g
         id="g3426" />
      <g
         id="g3428" />
      <g
         id="g3430" />
      <g
         id="g3432" />
      <g
         id="g3434" />
      <g
         id="g3436" />
      <g
         id="g3438" />
      <g
         id="g3440" />
      <g
         id="g3442" />
      <g
         id="g3444" />
      <g
         id="g3446" />
    </g>
    <g
       id="g3511"
       transform="matrix(0.65437933,0.17534041,-0.17534041,0.65437933,76.186008,919.72815)">
      <g
         id="g3475" />
      <g
         id="g3477" />
      <g
         id="g3479" />
      <g
         id="g3481" />
      <g
         id="g3483" />
      <g
         id="g3485" />
      <g
         id="g3487" />
      <g
         id="g3489" />
      <g
         id="g3491" />
      <g
         id="g3493" />
      <g
         id="g3495" />
      <g
         id="g3497" />
      <g
         id="g3499" />
      <g
         id="g3501" />
      <g
         id="g3503" />
    </g>
    <g
       transform="matrix(-0.32653032,0,0,0.32653032,183.95486,862.36239)"
       id="g3529">
      <g
         id="g3533" />
      <g
         id="g3535" />
      <g
         id="g3537" />
      <g
         id="g3539" />
      <g
         id="g3541" />
      <g
         id="g3543" />
      <g
         id="g3545" />
      <g
         id="g3547" />
      <g
         id="g3549" />
      <g
         id="g3551" />
      <g
         id="g3553" />
      <g
         id="g3555" />
      <g
         id="g3557" />
      <g
         id="g3559" />
      <g
         id="g3561" />
    </g>
    <g
       id="g3614"
       transform="matrix(3.0046384,0,0,3.0046384,29.999993,862.36216)">
      <g
         id="g3568">
        <g
           id="g3570" />
      </g>
      <g
         id="g3578" />
      <g
         id="g3580" />
      <g
         id="g3582" />
      <g
         id="g3584" />
      <g
         id="g3586" />
      <g
         id="g3588" />
      <g
         id="g3590" />
      <g
         id="g3592" />
      <g
         id="g3594" />
      <g
         id="g3596" />
      <g
         id="g3598" />
      <g
         id="g3600" />
      <g
         id="g3602" />
      <g
         id="g3604" />
      <g
         id="g3606" />
    </g>
  </g>
</svg>
