<?xml version="1.0" encoding="UTF-8" standalone="no"?>
<!-- Created with Inkscape (http://www.inkscape.org/) -->

<svg
   xmlns:dc="http://purl.org/dc/elements/1.1/"
   xmlns:cc="http://creativecommons.org/ns#"
   xmlns:rdf="http://www.w3.org/1999/02/22-rdf-syntax-ns#"
   xmlns:svg="http://www.w3.org/2000/svg"
   xmlns="http://www.w3.org/2000/svg"
   xmlns:sodipodi="http://sodipodi.sourceforge.net/DTD/sodipodi-0.dtd"
   xmlns:inkscape="http://www.inkscape.org/namespaces/inkscape"
   width="62.08889mm"
   height="62.08889mm"
   viewBox="0 0 220 220"
   id="svg2"
   version="1.1"
   inkscape:version="0.91 r13725"
   sodipodi:docname="ufu_caderno_graduacao.svg">
  <defs
     id="defs4" />
  <sodipodi:namedview
     id="base"
     pagecolor="#ffffff"
     bordercolor="#666666"
     borderopacity="1.0"
     inkscape:pageopacity="0.0"
     inkscape:pageshadow="2"
     inkscape:zoom="2.0923932"
     inkscape:cx="7.7575682"
     inkscape:cy="121.2187"
     inkscape:document-units="px"
     inkscape:current-layer="layer1"
     showgrid="false"
     fit-margin-top="0"
     fit-margin-left="0"
     fit-margin-right="0"
     fit-margin-bottom="0"
     inkscape:window-width="1440"
     inkscape:window-height="847"
     inkscape:window-x="-8"
     inkscape:window-y="-8"
     inkscape:window-maximized="1" />
  <metadata
     id="metadata7">
    <rdf:RDF>
      <cc:Work
         rdf:about="">
        <dc:format>image/svg+xml</dc:format>
        <dc:type
           rdf:resource="http://purl.org/dc/dcmitype/StillImage" />
        <dc:title></dc:title>
      </cc:Work>
    </rdf:RDF>
  </metadata>
  <g
     inkscape:label="Camada 1"
     inkscape:groupmode="layer"
     id="layer1"
     transform="translate(-255.16926,-346.10076)">
    <g
       transform="translate(-185.30977,-160.23845)"
       id="layer1-5"
       inkscape:label="Camada 1"
       style="fill:#ffffff">
      <path
         style="color:#000000;clip-rule:nonzero;display:inline;overflow:visible;visibility:visible;opacity:1;isolation:auto;mix-blend-mode:normal;color-interpolation:sRGB;color-interpolation-filters:linearRGB;solid-color:#000000;solid-opacity:1;fill:#ffffff;fill-opacity:1;fill-rule:nonzero;stroke:none;stroke-width:5;stroke-linecap:square;stroke-linejoin:miter;stroke-miterlimit:4;stroke-dasharray:none;stroke-dashoffset:0;stroke-opacity:1;color-rendering:auto;image-rendering:auto;shape-rendering:auto;text-rendering:auto;enable-background:accumulate"
         d="M 0 0 L 0 220 L 220 220 L 220 0 L 0 0 z M 69.017578 30 L 168.88477 30 C 173.93227 30 178.02344 34.091171 178.02344 39.138672 L 178.02344 180.86133 C 178.02344 185.90883 173.93227 190 168.88477 190 L 69.017578 190 C 63.970077 190 59.878906 187.83469 59.878906 185.16016 C 59.878906 182.48562 55.873619 180.31836 50.929688 180.31836 C 45.985755 180.31836 41.976562 176.84737 41.976562 172.56445 C 41.976564 168.28154 45.985755 164.80859 50.929688 164.80859 C 55.873619 164.80859 59.878906 161.27141 59.878906 156.90625 C 59.878906 152.54414 55.873619 149.00391 50.929688 149.00391 C 45.985755 149.00391 41.976562 145.53291 41.976562 141.25 C 41.976564 136.96404 45.985755 133.49023 50.929688 133.49023 C 55.873619 133.49023 59.878906 129.95305 59.878906 125.58789 C 59.878906 121.22578 55.873619 117.6875 50.929688 117.6875 C 45.985755 117.6875 41.976562 114.21455 41.976562 109.93164 C 41.976564 105.64873 45.985755 102.17578 50.929688 102.17578 C 55.873619 102.17578 59.878906 98.635551 59.878906 94.273438 C 59.878906 89.911323 55.873619 86.373047 50.929688 86.373047 C 45.985755 86.373047 41.976562 82.9001 41.976562 78.617188 C 41.976564 74.334274 45.985755 70.861328 50.929688 70.861328 C 55.873619 70.861328 59.878906 67.321098 59.878906 62.958984 C 59.878906 58.596871 55.873619 55.058594 50.929688 55.058594 C 45.985755 55.058594 41.976562 51.585647 41.976562 47.302734 C 41.976564 43.019821 45.985755 39.546875 50.929688 39.546875 C 55.873619 39.546875 59.878906 37.408373 59.878906 34.773438 C 59.878906 32.135455 63.970077 30 69.017578 30 z M 81.060547 74.150391 C 79.246297 74.150391 77.783222 74.749552 76.669922 75.945312 C 75.556632 77.135183 75 78.806991 75 80.962891 C 75 83.000981 75.552746 84.609019 76.660156 85.787109 C 77.767556 86.959299 79.182334 87.544922 80.902344 87.544922 C 82.292484 87.544922 83.438604 87.204774 84.339844 86.521484 C 85.246964 85.832304 85.894423 84.780897 86.283203 83.367188 L 83.748047 82.5625 C 83.530097 83.51086 83.170612 84.206657 82.669922 84.648438 C 82.169242 85.090217 81.57007 85.310547 80.875 85.310547 C 79.93253 85.310547 79.167165 84.962638 78.578125 84.267578 C 77.989085 83.572498 77.695312 82.407071 77.695312 80.769531 C 77.695313 79.226231 77.992961 78.109102 78.587891 77.419922 C 79.188721 76.730742 79.969547 76.386719 80.929688 76.386719 C 81.624757 76.386719 82.212302 76.57998 82.695312 76.96875 C 83.184223 77.35752 83.505043 77.889047 83.658203 78.560547 L 86.248047 77.941406 C 85.953527 76.904686 85.510915 76.108388 84.921875 75.554688 C 83.932275 74.618107 82.645077 74.150391 81.060547 74.150391 z M 158.69922 74.150391 C 157.64483 74.150391 156.71519 74.322412 155.9082 74.664062 C 155.30149 74.917353 154.74099 75.305828 154.22852 75.830078 C 153.72194 76.354328 153.32186 76.945739 153.02734 77.605469 C 152.63268 78.500809 152.43555 79.608274 152.43555 80.927734 C 152.43555 82.989394 153.00378 84.609019 154.14062 85.787109 C 155.2775 86.959299 156.81015 87.544922 158.73633 87.544922 C 160.63894 87.544922 162.15807 86.957387 163.29492 85.779297 C 164.43178 84.595327 165 82.956344 165 80.865234 C 165 78.756454 164.42598 77.109751 163.27734 75.925781 C 162.1346 74.741801 160.60772 74.150391 158.69922 74.150391 z M 92.265625 74.371094 L 87.21875 87.324219 L 89.994141 87.324219 L 91.0625 84.382812 L 96.240234 84.382812 L 97.371094 87.324219 L 100.2168 87.324219 L 95.03125 74.371094 L 92.265625 74.371094 z M 101.63867 74.371094 L 101.63867 87.324219 L 106.56055 87.324219 C 107.52658 87.324219 108.29774 87.233421 108.875 87.050781 C 109.64665 86.803381 110.25932 86.459358 110.71289 86.017578 C 111.31371 85.434418 111.77759 84.670996 112.10156 83.728516 C 112.36664 82.956876 112.49805 82.038826 112.49805 80.972656 C 112.49805 79.759226 112.35696 78.738723 112.07422 77.914062 C 111.79148 77.083512 111.37981 76.38387 110.83789 75.8125 C 110.29596 75.24112 109.64463 74.842971 108.88477 74.619141 C 108.31928 74.454201 107.49787 74.371094 106.41992 74.371094 L 101.63867 74.371094 z M 114.72461 74.371094 L 114.72461 87.324219 L 124.57617 87.324219 L 124.57617 85.142578 L 117.33984 85.142578 L 117.33984 81.617188 L 123.84375 81.617188 L 123.84375 79.433594 L 117.33984 79.433594 L 117.33984 76.5625 L 124.33008 76.5625 L 124.33008 74.371094 L 114.72461 74.371094 z M 126.82031 74.371094 L 126.82031 87.324219 L 129.43555 87.324219 L 129.43555 81.917969 L 129.9668 81.917969 C 130.56762 81.917969 131.00635 81.968269 131.2832 82.068359 C 131.56005 82.162559 131.82291 82.342352 132.07031 82.607422 C 132.31771 82.866602 132.77576 83.498589 133.44727 84.505859 L 135.33789 87.324219 L 138.4668 87.324219 L 136.88477 84.796875 C 136.26038 83.789605 135.76367 83.089973 135.39258 82.695312 C 135.02737 82.300653 134.56158 81.937292 133.99609 81.607422 C 135.13295 81.442492 135.98722 81.046296 136.55859 80.416016 C 137.12997 79.779856 137.41602 78.975826 137.41602 78.003906 C 137.41602 77.238146 137.2266 76.557821 136.84961 75.962891 C 136.47262 75.367951 135.96817 74.954329 135.33789 74.724609 C 134.7135 74.488989 133.71043 74.371094 132.32617 74.371094 L 126.82031 74.371094 z M 139.91602 74.371094 L 139.91602 87.324219 L 142.3457 87.324219 L 142.3457 78.876953 L 147.56641 87.324219 L 150.19141 87.324219 L 150.19141 74.371094 L 147.76172 74.371094 L 147.76172 83.021484 L 142.46094 74.371094 L 139.91602 74.371094 z M 158.72656 76.386719 C 159.80452 76.386719 160.66846 76.752002 161.31641 77.482422 C 161.97025 78.212832 162.29688 79.320297 162.29688 80.804688 C 162.29688 82.306747 161.96058 83.43352 161.28906 84.1875 C 160.62345 84.93558 159.76918 85.310547 158.72656 85.310547 C 157.68396 85.310547 156.82388 84.933667 156.14648 84.179688 C 155.46908 83.419826 155.13086 82.306564 155.13086 80.839844 C 155.13086 79.349564 155.46136 78.2363 156.12109 77.5 C 156.78082 76.7578 157.64862 76.386719 158.72656 76.386719 z M 104.25391 76.5625 L 105.42969 76.5625 C 106.49586 76.5625 107.21097 76.605 107.57617 76.6875 C 108.06508 76.79352 108.46903 76.996465 108.78711 77.296875 C 109.1052 77.597295 109.35259 78.014751 109.5293 78.550781 C 109.70601 79.086811 109.79492 79.856052 109.79492 80.857422 C 109.79492 81.858792 109.70602 82.651225 109.5293 83.234375 C 109.35259 83.811645 109.12258 84.227179 108.83984 84.480469 C 108.56298 84.733759 108.21318 84.913501 107.78906 85.019531 C 107.46509 85.102031 106.93745 85.142578 106.20703 85.142578 L 104.25391 85.142578 L 104.25391 76.5625 z M 129.43555 76.5625 L 131.47656 76.5625 C 132.53684 76.5625 133.17467 76.577922 133.38672 76.607422 C 133.81083 76.678122 134.13746 76.848181 134.36719 77.119141 C 134.60281 77.384201 134.7207 77.735985 134.7207 78.171875 C 134.7207 78.560655 134.6318 78.883398 134.45508 79.142578 C 134.27836 79.401748 134.03485 79.585376 133.72266 79.691406 C 133.41046 79.797436 132.62576 79.849609 131.37109 79.849609 L 129.43555 79.849609 L 129.43555 76.5625 z M 93.617188 77.392578 L 95.402344 82.199219 L 91.867188 82.199219 L 93.617188 77.392578 z M 139.92969 95.539062 C 139.91199 95.677674 139.86959 95.774984 139.80469 95.833984 C 139.74279 95.892984 139.66469 95.923828 139.57031 95.923828 C 139.43759 95.923828 139.25353 95.872731 139.01758 95.769531 C 138.78457 95.663371 138.62364 95.598795 138.53516 95.578125 C 138.44666 95.554525 138.35127 95.542969 138.24805 95.542969 C 138.01209 95.542969 137.81839 95.626772 137.66797 95.794922 C 137.51755 95.960082 137.44336 96.198123 137.44336 96.507812 C 137.44336 96.546113 137.44427 96.598216 137.44727 96.666016 L 138.01367 96.666016 C 138.01667 96.524476 138.04456 96.427164 138.09766 96.371094 C 138.15076 96.312094 138.22398 96.28125 138.31836 96.28125 C 138.44224 96.28125 138.64076 96.33425 138.91211 96.4375 C 139.18346 96.54076 139.35209 96.599526 139.41992 96.617188 C 139.51722 96.637887 139.61652 96.648438 139.7168 96.648438 C 139.94685 96.648438 140.13478 96.563628 140.2793 96.392578 C 140.42705 96.221508 140.50124 95.937233 140.50391 95.539062 L 139.92969 95.539062 z M 93.113281 96.914062 C 92.493901 96.914063 91.974454 97.022971 91.558594 97.238281 C 91.012954 97.518471 90.599556 97.920322 90.316406 98.445312 C 90.033266 98.970313 89.892578 99.570688 89.892578 100.24609 C 89.892578 100.86842 90.017834 101.44566 90.271484 101.97656 C 90.525134 102.50451 90.903853 102.91118 91.408203 103.19727 C 91.912553 103.48041 92.505224 103.62109 93.183594 103.62109 C 93.717434 103.62109 94.242619 103.52087 94.761719 103.32031 C 95.283769 103.1168 95.682741 102.88264 95.957031 102.61719 L 95.957031 100.0332 L 93.134766 100.0332 L 93.134766 101.12695 L 94.634766 101.12695 L 94.634766 101.94922 C 94.437146 102.10259 94.199115 102.23462 93.921875 102.34375 C 93.647575 102.44993 93.373909 102.50195 93.099609 102.50195 C 92.545119 102.50195 92.096036 102.31116 91.753906 101.92773 C 91.411776 101.54136 91.240234 100.96316 91.240234 100.19336 C 91.240234 99.479598 91.409854 98.940905 91.746094 98.578125 C 92.085274 98.215345 92.541101 98.033203 93.113281 98.033203 C 93.490811 98.033203 93.803987 98.1267 94.054688 98.3125 C 94.308337 98.49536 94.480826 98.745923 94.572266 99.064453 L 95.873047 98.820312 C 95.743277 98.224522 95.450294 97.760058 94.996094 97.423828 C 94.544834 97.084648 93.918481 96.914062 93.113281 96.914062 z M 132.74023 96.914062 C 131.83181 96.914062 131.09846 97.21377 130.54102 97.8125 C 129.98358 98.40828 129.70508 99.246684 129.70508 100.32617 C 129.70508 101.34667 129.98066 102.15035 130.53516 102.74023 C 131.00759 103.24031 131.5998 103.51389 132.29492 103.58789 C 132.14854 103.60729 132.00736 103.63709 131.87305 103.68359 L 131.75781 104.12109 C 131.95542 104.06209 132.14717 104.0332 132.33594 104.0332 C 132.52764 104.0332 132.67029 104.0688 132.76172 104.14258 C 132.85312 104.21628 132.89844 104.30402 132.89844 104.4043 C 132.89844 104.51638 132.84934 104.60891 132.75195 104.67969 C 132.62513 104.77409 132.43047 104.82031 132.16797 104.82031 C 131.91432 104.82031 131.63582 104.80388 131.33203 104.77148 L 131.33203 105.29297 C 131.52669 105.34017 131.81484 105.36523 132.19531 105.36523 C 132.72916 105.36523 133.13969 105.25441 133.42578 105.0332 C 133.63814 104.87098 133.74414 104.65993 133.74414 104.40039 C 133.74414 104.16738 133.64674 103.96885 133.45508 103.80664 C 133.3261 103.6975 133.14267 103.63924 132.93359 103.60352 C 133.50512 103.56302 133.99154 103.40259 134.38086 103.10742 C 134.83507 102.76234 135.15886 102.23716 135.35352 101.5293 L 134.08398 101.12695 C 133.97485 101.6018 133.79562 101.94871 133.54492 102.16992 C 133.29422 102.39113 132.99452 102.50195 132.64648 102.50195 C 132.17458 102.50195 131.79103 102.3285 131.49609 101.98047 C 131.20115 101.63243 131.05273 101.04846 131.05273 100.22852 C 131.05273 99.455772 131.20211 98.895871 131.5 98.550781 C 131.80084 98.205701 132.19307 98.033203 132.67383 98.033203 C 133.02186 98.033203 133.31675 98.131502 133.55859 98.326172 C 133.8034 98.520842 133.96238 98.786817 134.03906 99.123047 L 135.33594 98.8125 C 135.18847 98.2934 134.96681 97.894437 134.67188 97.617188 C 134.17637 97.148236 133.53363 96.914062 132.74023 96.914062 z M 145.91797 96.914062 C 145.39002 96.914063 144.92555 97.000765 144.52148 97.171875 C 144.21769 97.298695 143.93629 97.493359 143.67969 97.755859 C 143.42604 98.018359 143.22561 98.314201 143.07812 98.644531 C 142.88052 99.092841 142.78125 99.647928 142.78125 100.30859 C 142.78125 101.34089 143.06748 102.15035 143.63672 102.74023 C 144.20596 103.32717 144.97109 103.62109 145.93555 103.62109 C 146.88821 103.62109 147.64952 103.32621 148.21875 102.73633 C 148.78799 102.14349 149.07227 101.32439 149.07227 100.27734 C 149.07227 99.221458 148.78607 98.395574 148.21094 97.802734 C 147.63875 97.209904 146.87358 96.914062 145.91797 96.914062 z M 75 97.025391 L 75 103.51172 L 77.464844 103.51172 C 77.948544 103.51172 78.333997 103.46453 78.623047 103.37305 C 79.009417 103.24918 79.315869 103.07667 79.542969 102.85547 C 79.843819 102.56347 80.076071 102.18285 80.238281 101.71094 C 80.371011 101.32457 80.4375 100.86392 80.4375 100.33008 C 80.4375 99.722496 80.366199 99.211748 80.224609 98.798828 C 80.083039 98.382958 79.876819 98.032184 79.605469 97.746094 C 79.334119 97.460004 79.007423 97.260517 78.626953 97.148438 C 78.343803 97.065836 77.932318 97.025391 77.392578 97.025391 L 75 97.025391 z M 81.552734 97.025391 L 81.552734 103.51172 L 86.484375 103.51172 L 86.484375 102.41797 L 82.861328 102.41797 L 82.861328 100.65234 L 86.117188 100.65234 L 86.117188 99.560547 L 82.861328 99.560547 L 82.861328 98.123047 L 86.361328 98.123047 L 86.361328 97.025391 L 81.552734 97.025391 z M 97.164062 97.025391 L 97.164062 103.51172 L 98.474609 103.51172 L 98.474609 100.80273 L 98.740234 100.80273 C 99.041074 100.80273 99.259816 100.82871 99.398438 100.87891 C 99.537067 100.92611 99.669099 101.01572 99.792969 101.14844 C 99.916839 101.27822 100.14619 101.59526 100.48242 102.09961 L 101.42969 103.51172 L 102.99609 103.51172 L 102.20312 102.24609 C 101.89049 101.74174 101.64285 101.39096 101.45703 101.19336 C 101.27417 100.99574 101.04096 100.81361 100.75781 100.64844 C 101.32705 100.56584 101.75492 100.36637 102.04102 100.05078 C 102.32711 99.732252 102.46875 99.3304 102.46875 98.84375 C 102.46875 98.46032 102.37435 98.120166 102.18555 97.822266 C 101.99679 97.524386 101.74528 97.316202 101.42969 97.201172 C 101.11705 97.083192 100.61498 97.025391 99.921875 97.025391 L 97.164062 97.025391 z M 105.57422 97.025391 L 103.04883 103.51172 L 104.4375 103.51172 L 104.97266 102.03711 L 107.56641 102.03711 L 108.13281 103.51172 L 109.55664 103.51172 L 106.95898 97.025391 L 105.57422 97.025391 z M 110.26953 97.025391 L 110.26953 103.51172 L 112.73242 103.51172 C 113.21613 103.51172 113.60354 103.46453 113.89258 103.37305 C 114.27895 103.24918 114.58539 103.07667 114.8125 102.85547 C 115.11334 102.56347 115.34559 102.18285 115.50781 101.71094 C 115.64053 101.32457 115.70703 100.86392 115.70703 100.33008 C 115.70703 99.722496 115.63573 99.211748 115.49414 98.798828 C 115.35257 98.382958 115.14635 98.032184 114.875 97.746094 C 114.60365 97.460004 114.27696 97.260517 113.89648 97.148438 C 113.61334 97.065836 113.20186 97.025391 112.66211 97.025391 L 110.26953 97.025391 z M 116.8125 97.025391 L 116.8125 100.48438 C 116.8125 101.20993 116.8559 101.75923 116.94141 102.13086 C 117.00041 102.38156 117.12278 102.62151 117.30859 102.85156 C 117.49441 103.07867 117.74592 103.26368 118.06445 103.4082 C 118.38594 103.54977 118.85718 103.62109 119.47656 103.62109 C 119.98976 103.62109 120.40412 103.55559 120.72266 103.42578 C 121.0412 103.29306 121.29559 103.11769 121.48438 102.89648 C 121.67609 102.67528 121.80812 102.40352 121.87891 102.08203 C 121.94971 101.76054 121.98438 101.21028 121.98438 100.43164 L 121.98438 97.025391 L 120.67383 97.025391 L 120.67383 100.61328 C 120.67383 101.12647 120.65549 101.49363 120.61719 101.71484 C 120.57889 101.93605 120.46611 102.12397 120.27734 102.27734 C 120.08858 102.42776 119.80717 102.50195 119.43555 102.50195 C 119.06982 102.50195 118.78072 102.42295 118.56836 102.26367 C 118.35898 102.10145 118.22599 101.88654 118.16992 101.62109 C 118.13742 101.45592 118.12109 101.09455 118.12109 100.53711 L 118.12109 97.025391 L 116.8125 97.025391 z M 125.23633 97.025391 L 122.70898 103.51172 L 124.09961 103.51172 L 124.63477 102.03711 L 127.22656 102.03711 L 127.79297 103.51172 L 129.2168 103.51172 L 126.62109 97.025391 L 125.23633 97.025391 z M 138.34961 97.025391 L 135.82227 103.51172 L 137.21289 103.51172 L 137.74805 102.03711 L 140.33984 102.03711 L 140.90625 103.51172 L 142.33008 103.51172 L 139.73438 97.025391 L 138.34961 97.025391 z M 152.59961 97.025391 L 152.59961 103.51172 L 155.0625 103.51172 C 155.54621 103.51172 155.93362 103.46453 156.22266 103.37305 C 156.60903 103.24918 156.91547 103.07667 157.14258 102.85547 C 157.44342 102.56347 157.67567 102.18285 157.83789 101.71094 C 157.97061 101.32457 158.03711 100.86392 158.03711 100.33008 C 158.03711 99.722496 157.96581 99.211748 157.82422 98.798828 C 157.68265 98.382958 157.47642 98.032184 157.20508 97.746094 C 156.93373 97.460004 156.60704 97.260517 156.22656 97.148438 C 155.94342 97.065836 155.53193 97.025391 154.99219 97.025391 L 152.59961 97.025391 z M 161.01758 97.025391 L 158.49219 103.51172 L 159.88086 103.51172 L 160.41602 102.03711 L 163.00977 102.03711 L 163.57617 103.51172 L 165 103.51172 L 162.40234 97.025391 L 161.01758 97.025391 z M 145.93164 98.033203 C 146.47139 98.033203 146.90408 98.216301 147.22852 98.582031 C 147.5559 98.947761 147.71875 99.502848 147.71875 100.24609 C 147.71875 100.9982 147.55108 101.56193 147.21484 101.93945 C 146.88156 102.31403 146.45369 102.50195 145.93164 102.50195 C 145.40959 102.50195 144.97983 102.31308 144.64062 101.93555 C 144.30145 101.55508 144.13086 100.99808 144.13086 100.26367 C 144.13086 99.517474 144.29662 98.960477 144.62695 98.591797 C 144.95729 98.220177 145.3919 98.033203 145.93164 98.033203 z M 76.308594 98.121094 L 76.898438 98.121094 C 77.432277 98.121094 77.789786 98.140441 77.972656 98.181641 C 78.217456 98.234741 78.420808 98.337861 78.580078 98.488281 C 78.739348 98.638701 78.862692 98.846844 78.951172 99.115234 C 79.039672 99.383634 79.083984 99.768132 79.083984 100.26953 C 79.083984 100.77093 79.039692 101.16894 78.951172 101.46094 C 78.862672 101.74998 78.747039 101.95716 78.605469 102.08398 C 78.466849 102.21083 78.292438 102.30045 78.080078 102.35352 C 77.917858 102.39482 77.652839 102.41602 77.287109 102.41602 L 76.308594 102.41602 L 76.308594 98.121094 z M 98.474609 98.121094 L 99.496094 98.121094 C 100.02699 98.121094 100.34499 98.128078 100.45117 98.142578 C 100.66353 98.177978 100.82834 98.262757 100.94336 98.398438 C 101.06134 98.531158 101.11914 98.707531 101.11914 98.925781 C 101.11914 99.120451 101.07674 99.282339 100.98828 99.412109 C 100.89978 99.541899 100.77741 99.632477 100.62109 99.685547 C 100.46477 99.738647 100.07159 99.767578 99.443359 99.767578 L 98.474609 99.767578 L 98.474609 98.123047 L 98.474609 98.121094 z M 111.57812 98.121094 L 112.16797 98.121094 C 112.70182 98.121094 113.05933 98.140441 113.24219 98.181641 C 113.48699 98.234741 113.68839 98.337861 113.84766 98.488281 C 114.00692 98.638701 114.13222 98.846844 114.2207 99.115234 C 114.3092 99.383634 114.35352 99.768132 114.35352 100.26953 C 114.35352 100.77093 114.30922 101.16894 114.2207 101.46094 C 114.1322 101.74998 114.01657 101.95716 113.875 102.08398 C 113.73638 102.21083 113.56002 102.30045 113.34766 102.35352 C 113.18544 102.39482 112.92237 102.41602 112.55664 102.41602 L 111.57812 102.41602 L 111.57812 98.121094 z M 153.9082 98.121094 L 154.49805 98.121094 C 155.03189 98.121094 155.38941 98.140441 155.57227 98.181641 C 155.81707 98.234741 156.01847 98.337861 156.17773 98.488281 C 156.337 98.638701 156.46229 98.846844 156.55078 99.115234 C 156.63928 99.383634 156.68359 99.768132 156.68359 100.26953 C 156.68359 100.77093 156.63929 101.16894 156.55078 101.46094 C 156.46228 101.74998 156.34665 101.95716 156.20508 102.08398 C 156.06646 102.21083 155.89009 102.30045 155.67773 102.35352 C 155.51552 102.39482 155.25245 102.41602 154.88672 102.41602 L 153.9082 102.41602 L 153.9082 98.121094 z M 106.25195 98.537109 L 107.14648 100.94336 L 105.37695 100.94336 L 106.25195 98.537109 z M 125.91211 98.537109 L 126.80664 100.94336 L 125.03711 100.94336 L 125.91211 98.537109 z M 139.02539 98.537109 L 139.91992 100.94336 L 138.15039 100.94336 L 139.02539 98.537109 z M 161.69531 98.537109 L 162.58789 100.94336 L 160.81836 100.94336 L 161.69531 98.537109 z M 75 111.45117 L 75 129.49219 C 75 133.27583 75.223882 136.13821 75.669922 138.07617 C 75.977542 139.38353 76.615004 140.63624 77.583984 141.83594 C 78.552964 143.02024 79.868187 143.98853 81.529297 144.74219 C 83.205787 145.48046 85.658732 145.84961 88.888672 145.84961 C 91.564912 145.84961 93.733421 145.51268 95.394531 144.83594 C 97.055651 144.1438 98.378921 143.21995 99.363281 142.06641 C 100.36303 140.91285 101.04688 139.49876 101.41602 137.82227 C 101.78516 136.14577 101.9707 133.2773 101.9707 129.2168 L 101.9707 111.45117 L 95.140625 111.45117 L 95.140625 130.16211 C 95.140625 132.83834 95.041727 134.7527 94.841797 135.90625 C 94.641847 137.0598 94.048813 138.03614 93.064453 138.83594 C 92.080083 139.62036 90.619601 140.01367 88.681641 140.01367 C 86.774441 140.01367 85.267566 139.59814 84.160156 138.76758 C 83.068126 137.92164 82.374271 136.80614 82.082031 135.42188 C 81.912851 134.56053 81.828125 132.67648 81.828125 129.76953 L 81.828125 111.45117 L 75 111.45117 z M 109.23828 111.45117 L 109.23828 145.27344 L 116.06641 145.27344 L 116.06641 130.90039 L 130.18555 130.90039 L 130.18555 125.17773 L 116.06641 125.17773 L 116.06641 117.17383 L 132.42383 117.17383 L 132.42383 111.45117 L 109.23828 111.45117 z M 138.0293 111.45117 L 138.0293 129.49219 C 138.0293 133.27583 138.25318 136.13821 138.69922 138.07617 C 139.00683 139.38353 139.6443 140.63624 140.61328 141.83594 C 141.58227 143.02024 142.89748 143.98853 144.55859 144.74219 C 146.23509 145.48046 148.68803 145.84961 151.91797 145.84961 C 154.5942 145.84961 156.76271 145.51268 158.42383 144.83594 C 160.08494 144.1438 161.40821 143.21995 162.39258 142.06641 C 163.39232 140.91285 164.07813 139.49876 164.44727 137.82227 C 164.8164 136.14577 165 133.2773 165 129.2168 L 165 111.45117 L 158.17188 111.45117 L 158.17188 130.16211 C 158.17188 132.83834 158.07104 134.7527 157.87109 135.90625 C 157.67114 137.0598 157.07811 138.03614 156.09375 138.83594 C 155.10939 139.62036 153.6489 140.01367 151.71094 140.01367 C 149.80373 140.01367 148.29686 139.59814 147.18945 138.76758 C 146.09743 137.92164 145.40551 136.80614 145.11328 135.42188 C 144.94409 134.56053 144.85938 132.67648 144.85938 129.76953 L 144.85938 111.45117 L 138.0293 111.45117 z "
         transform="translate(440.47903,506.33921)"
         id="rect6146" />
    </g>
    <g
       id="g4250"
       transform="matrix(0.09753267,0,0,0.09753267,404.01726,498.02478)">
      <g
         id="g4208" />
      <g
         id="g4214" />
      <g
         id="g4216" />
      <g
         id="g4218" />
      <g
         id="g4220" />
      <g
         id="g4222" />
      <g
         id="g4224" />
      <g
         id="g4226" />
      <g
         id="g4228" />
      <g
         id="g4230" />
      <g
         id="g4232" />
      <g
         id="g4234" />
      <g
         id="g4236" />
      <g
         id="g4238" />
      <g
         id="g4240" />
      <g
         id="g4242" />
    </g>
    <g
       id="g293773"
       transform="matrix(0.08019764,0,0,0.08019764,372.33747,506.43793)"
       style="fill:#ff0000">
      <g
         id="g293733"
         style="fill:#ff0000" />
      <g
         id="g293737"
         style="fill:#ff0000" />
      <g
         id="g293739"
         style="fill:#ff0000" />
      <g
         id="g293741"
         style="fill:#ff0000" />
      <g
         id="g293743"
         style="fill:#ff0000" />
      <g
         id="g293745"
         style="fill:#ff0000" />
      <g
         id="g293747"
         style="fill:#ff0000" />
      <g
         id="g293749"
         style="fill:#ff0000" />
      <g
         id="g293751"
         style="fill:#ff0000" />
      <g
         id="g293753"
         style="fill:#ff0000" />
      <g
         id="g293755"
         style="fill:#ff0000" />
      <g
         id="g293757"
         style="fill:#ff0000" />
      <g
         id="g293759"
         style="fill:#ff0000" />
      <g
         id="g293761"
         style="fill:#ff0000" />
      <g
         id="g293763"
         style="fill:#ff0000" />
      <g
         id="g293765"
         style="fill:#ff0000" />
    </g>
    <g
       id="g294015"
       transform="matrix(3.0461685,0,0,3.0461685,285.16926,376.10076)"
       style="fill:#ffffff">
      <g
         id="g293975"
         style="fill:#ffffff" />
      <g
         id="g293979"
         style="fill:#ffffff" />
      <g
         id="g293981"
         style="fill:#ffffff" />
      <g
         id="g293983"
         style="fill:#ffffff" />
      <g
         id="g293985"
         style="fill:#ffffff" />
      <g
         id="g293987"
         style="fill:#ffffff" />
      <g
         id="g293989"
         style="fill:#ffffff" />
      <g
         id="g293991"
         style="fill:#ffffff" />
      <g
         id="g293993"
         style="fill:#ffffff" />
      <g
         id="g293995"
         style="fill:#ffffff" />
      <g
         id="g293997"
         style="fill:#ffffff" />
      <g
         id="g293999"
         style="fill:#ffffff" />
      <g
         id="g294001"
         style="fill:#ffffff" />
      <g
         id="g294003"
         style="fill:#ffffff" />
      <g
         id="g294005"
         style="fill:#ffffff" />
      <g
         id="g294007"
         style="fill:#ffffff" />
    </g>
    <g
       id="g293956"
       transform="matrix(0.30124439,0,0,0.30124489,-142.35334,148.02629)">
      <g
         id="g293920" />
      <g
         id="g293922" />
      <g
         id="g293924" />
      <g
         id="g293926" />
      <g
         id="g293928" />
      <g
         id="g293930" />
      <g
         id="g293932" />
      <g
         id="g293934" />
      <g
         id="g293936" />
      <g
         id="g293938" />
      <g
         id="g293940" />
      <g
         id="g293942" />
      <g
         id="g293944" />
      <g
         id="g293946" />
      <g
         id="g293948" />
    </g>
    <g
       style="font-style:normal;font-variant:normal;font-weight:bold;font-stretch:normal;font-size:18.09542465px;line-height:125%;font-family:Arial;-inkscape-font-specification:'Arial Bold';text-align:start;letter-spacing:0px;word-spacing:0px;writing-mode:lr-tb;text-anchor:start;fill:#000000;fill-opacity:1;stroke:none;stroke-width:1px;stroke-linecap:butt;stroke-linejoin:miter;stroke-opacity:1"
       id="text294183"
       transform="translate(10,0)" />
    <g
       style="font-style:normal;font-variant:normal;font-weight:bold;font-stretch:normal;font-size:9.06061077px;line-height:125%;font-family:Arial;-inkscape-font-specification:'Arial Bold';text-align:start;letter-spacing:0px;word-spacing:0px;writing-mode:lr-tb;text-anchor:start;fill:#000000;fill-opacity:1;stroke:none;stroke-width:1px;stroke-linecap:butt;stroke-linejoin:miter;stroke-opacity:1"
       id="text294187" />
    <g
       style="font-style:normal;font-variant:normal;font-weight:bold;font-stretch:normal;font-size:47.24942398px;line-height:125%;font-family:Arial;-inkscape-font-specification:'Arial Bold';text-align:start;letter-spacing:0px;word-spacing:0px;writing-mode:lr-tb;text-anchor:start;fill:#000000;fill-opacity:1;stroke:none;stroke-width:1px;stroke-linecap:butt;stroke-linejoin:miter;stroke-opacity:1"
       id="text294191" />
  </g>
</svg>
