<?xml version="1.0" encoding="UTF-8" standalone="no"?>
<!-- Created with Inkscape (http://www.inkscape.org/) -->

<svg
   xmlns:dc="http://purl.org/dc/elements/1.1/"
   xmlns:cc="http://creativecommons.org/ns#"
   xmlns:rdf="http://www.w3.org/1999/02/22-rdf-syntax-ns#"
   xmlns:svg="http://www.w3.org/2000/svg"
   xmlns="http://www.w3.org/2000/svg"
   xmlns:sodipodi="http://sodipodi.sourceforge.net/DTD/sodipodi-0.dtd"
   xmlns:inkscape="http://www.inkscape.org/namespaces/inkscape"
   width="220"
   height="220"
   viewBox="0 0 220 220"
   id="svg2"
   version="1.1"
   inkscape:version="0.91 r13725"
   sodipodi:docname="ufu_restaurante_universitario.svg">
  <defs
     id="defs4" />
  <sodipodi:namedview
     id="base"
     pagecolor="#ffffff"
     bordercolor="#666666"
     borderopacity="1.0"
     inkscape:pageopacity="0.0"
     inkscape:pageshadow="2"
     inkscape:zoom="2.9590909"
     inkscape:cx="110"
     inkscape:cy="113.40177"
     inkscape:document-units="px"
     inkscape:current-layer="layer1"
     showgrid="false"
     units="px"
     inkscape:window-width="1440"
     inkscape:window-height="847"
     inkscape:window-x="-8"
     inkscape:window-y="-8"
     inkscape:window-maximized="1" />
  <metadata
     id="metadata7">
    <rdf:RDF>
      <cc:Work
         rdf:about="">
        <dc:format>image/svg+xml</dc:format>
        <dc:type
           rdf:resource="http://purl.org/dc/dcmitype/StillImage" />
        <dc:title></dc:title>
      </cc:Work>
    </rdf:RDF>
  </metadata>
  <g
     inkscape:label="Camada 1"
     inkscape:groupmode="layer"
     id="layer1"
     transform="translate(0,-832.36216)">
    <path
       style="color:#000000;clip-rule:nonzero;display:inline;overflow:visible;visibility:visible;opacity:1;isolation:auto;mix-blend-mode:normal;color-interpolation:sRGB;color-interpolation-filters:linearRGB;solid-color:#000000;solid-opacity:1;fill:#ffffff;fill-opacity:1;fill-rule:nonzero;stroke:none;stroke-width:5;stroke-linecap:square;stroke-linejoin:miter;stroke-miterlimit:4;stroke-dasharray:none;stroke-dashoffset:0;stroke-opacity:1;color-rendering:auto;image-rendering:auto;shape-rendering:auto;text-rendering:auto;enable-background:accumulate"
       d="M 0 0 L 0 220 L 220 220 L 220 0 L 0 0 z M 110.00391 30 C 154.11042 30 189.99958 65.888864 190 110 C 190 154.10147 154.11042 190 110.00391 190 C 65.895287 190 30 154.10147 30 110 C 30 65.888864 65.895287 30 110.00391 30 z M 110.00391 35.958984 C 69.178733 35.958984 35.964844 69.174831 35.964844 110 C 35.964844 150.82055 69.178733 184.0332 110.00391 184.0332 C 150.82403 184.0332 184.04255 150.82055 184.04297 110 C 184.04297 69.174831 150.82445 35.958984 110.00391 35.958984 z M 110.00391 42.529297 C 147.26448 42.529297 177.47026 72.734804 177.47656 110 C 177.47656 139.87293 158.0387 165.1714 131.14453 174.04297 L 129.0332 133.70117 C 129.0332 133.70117 129.12125 133.66223 129.21875 133.63281 C 134.6581 132.39264 139.30706 128.89611 142.22656 124.54102 C 145.87437 119.07225 139.42383 70.720703 139.42383 70.720703 L 136.20117 70.720703 L 136.20117 116.09766 L 132.03711 116.09766 L 132.03711 70.720703 L 127.30469 70.720703 L 127.30469 116.09766 L 123.15039 116.09766 L 123.15039 70.720703 L 118.59375 70.720703 L 118.59375 116.09766 L 114.42383 116.09766 L 114.42383 70.720703 L 110.2207 70.720703 C 110.2207 70.720703 103.76416 119.07183 107.41406 124.54102 C 110.36088 128.94024 115.05856 132.44663 120.56641 133.65234 L 118.33594 176.89844 C 115.59672 177.2359 112.83333 177.46484 110.00586 177.46484 C 104.84766 177.46484 99.847287 176.83601 95.015625 175.73242 L 93.980469 149.99609 L 93.994141 149.99609 C 93.994141 149.99609 93.683594 65.396534 93.683594 58.121094 C 93.624758 53.106621 88.159943 58.316449 85.835938 63.091797 C 83.525799 67.872188 74.121094 89.293323 74.121094 111.43945 C 74.121094 119.74998 73.955078 130.82038 73.955078 136.13281 C 73.955078 145.6108 83.970703 141.26853 83.970703 154.81836 L 83.089844 171.84961 C 59.230335 161.45462 42.535156 137.69055 42.535156 110 C 42.535156 72.734384 72.738706 42.529297 110.00391 42.529297 z "
       transform="translate(0,832.36216)"
       id="rect3336" />
    <g
       id="g3383"
       transform="matrix(0.42025415,0,0,0.42025415,30,862.36237)">
      <g
         id="g3339">
        <g
           id="g3341" />
      </g>
      <g
         id="g3347" />
      <g
         id="g3349" />
      <g
         id="g3351" />
      <g
         id="g3353" />
      <g
         id="g3355" />
      <g
         id="g3357" />
      <g
         id="g3359" />
      <g
         id="g3361" />
      <g
         id="g3363" />
      <g
         id="g3365" />
      <g
         id="g3367" />
      <g
         id="g3369" />
      <g
         id="g3371" />
      <g
         id="g3373" />
      <g
         id="g3375" />
    </g>
  </g>
</svg>
