<?xml version="1.0" encoding="UTF-8" standalone="no"?>
<!-- Created with Inkscape (http://www.inkscape.org/) -->

<svg
   xmlns:dc="http://purl.org/dc/elements/1.1/"
   xmlns:cc="http://creativecommons.org/ns#"
   xmlns:rdf="http://www.w3.org/1999/02/22-rdf-syntax-ns#"
   xmlns:svg="http://www.w3.org/2000/svg"
   xmlns="http://www.w3.org/2000/svg"
   xmlns:sodipodi="http://sodipodi.sourceforge.net/DTD/sodipodi-0.dtd"
   xmlns:inkscape="http://www.inkscape.org/namespaces/inkscape"
   width="62.08889mm"
   height="62.08889mm"
   viewBox="0 0 220 220"
   id="svg3391"
   version="1.1"
   inkscape:version="0.91 r13725"
   sodipodi:docname="ufu_auxilio_financeiro.svg">
  <defs
     id="defs3393" />
  <sodipodi:namedview
     id="base"
     pagecolor="#ffffff"
     bordercolor="#666666"
     borderopacity="1.0"
     inkscape:pageopacity="0.0"
     inkscape:pageshadow="2"
     inkscape:zoom="1.4795454"
     inkscape:cx="18.957525"
     inkscape:cy="150.11955"
     inkscape:document-units="px"
     inkscape:current-layer="layer1"
     showgrid="false"
     fit-margin-top="0"
     fit-margin-left="0"
     fit-margin-right="0"
     fit-margin-bottom="0"
     inkscape:window-width="1440"
     inkscape:window-height="847"
     inkscape:window-x="-8"
     inkscape:window-y="-8"
     inkscape:window-maximized="1" />
  <metadata
     id="metadata3396">
    <rdf:RDF>
      <cc:Work
         rdf:about="">
        <dc:format>image/svg+xml</dc:format>
        <dc:type
           rdf:resource="http://purl.org/dc/dcmitype/StillImage" />
        <dc:title></dc:title>
      </cc:Work>
    </rdf:RDF>
  </metadata>
  <g
     inkscape:label="Camada 1"
     inkscape:groupmode="layer"
     id="layer1"
     transform="translate(-262.04724,-416.18109)">
    <path
       style="color:#000000;clip-rule:nonzero;display:inline;overflow:visible;visibility:visible;opacity:1;isolation:auto;mix-blend-mode:normal;color-interpolation:sRGB;color-interpolation-filters:linearRGB;solid-color:#000000;solid-opacity:1;fill:#ffffff;fill-opacity:1;fill-rule:nonzero;stroke:none;stroke-width:5;stroke-linecap:square;stroke-linejoin:miter;stroke-miterlimit:4;stroke-dasharray:none;stroke-dashoffset:0;stroke-opacity:1;color-rendering:auto;image-rendering:auto;shape-rendering:auto;text-rendering:auto;enable-background:accumulate"
       d="M 0 0 L 0 220 L 220 220 L 220 0 L 0 0 z M 110 30 C 154.1821 30 189.99805 65.818757 189.99805 110 C 189.99805 154.1821 154.1821 190 110 190 C 65.816199 190 30.001953 154.1821 30.001953 110 C 30.001953 65.818757 65.816199 30 110 30 z M 110 48.541016 C 76.05549 48.541016 48.541016 76.058048 48.541016 110 C 48.541016 143.94195 76.05549 171.45898 110 171.45898 C 143.9428 171.45898 171.45703 143.94195 171.45703 110 C 171.45703 76.058048 143.9428 48.541016 110 48.541016 z M 108.81641 67.544922 L 111.76367 67.544922 C 113.64474 67.544922 115.17773 69.039977 115.17773 70.875 L 115.20117 76.96875 C 115.20117 77.440296 115.60278 77.52641 115.71875 77.546875 C 115.79208 77.559666 122.99099 78.799257 126.67383 80.402344 C 127.78064 80.880712 128.64834 82.215487 128.07617 83.746094 L 126.43359 87.945312 C 125.95352 89.171503 124.79523 89.964844 123.48633 89.964844 C 122.94998 89.964844 122.40841 89.825877 121.92578 89.568359 C 121.88485 89.547894 117.29618 87.189453 111.31445 87.189453 C 104.55164 87.189453 102.1543 90.889692 102.1543 94.056641 C 102.1543 98.014048 104.76625 100.20608 113.80664 103.83008 C 125.6891 108.52422 130.76111 114.42526 130.76367 123.55859 C 130.76367 132.45061 124.80016 139.53263 115.12109 141.70703 C 115.02559 141.73005 114.5625 141.78452 114.5625 142.41211 L 114.5625 149.125 C 114.5625 150.96088 113.03121 152.45508 111.14844 152.45508 L 108.10156 152.45508 C 106.21964 152.45508 104.6875 150.96002 104.6875 149.125 L 104.6875 142.74805 C 104.6875 142.27565 104.17178 142.09262 104.07031 142.07812 C 103.69256 142.0193 95.204678 140.68088 90.818359 138.39648 C 89.719222 137.82347 88.860299 136.53525 89.417969 134.94922 L 90.986328 130.70117 C 91.45958 129.42808 92.64274 128.60742 94.001953 128.60742 C 94.499933 128.60742 94.984356 128.71701 95.441406 128.93359 C 95.512181 128.9677 102.6562 132.3125 107.93359 132.3125 C 114.114 132.3125 118.42773 128.99836 118.42773 124.25391 C 118.42773 119.89402 115.38121 116.92184 107.91406 113.99023 C 98.573527 110.44042 89.921875 105.71135 89.921875 95.246094 C 89.921875 86.851206 95.599964 80.195417 104.68555 78.03125 C 104.87996 77.986057 105.41211 77.772409 105.41211 77.28125 L 105.4043 70.875 C 105.4043 69.038272 106.93704 67.544922 108.81641 67.544922 z "
       transform="translate(262.04724,416.18109)"
       id="rect3422" />
    <g
       id="g18002"
       transform="matrix(0.78318914,0,0,0.78319055,866.15412,115.0913)">
      <g
         id="g18134" />
    </g>
    <g
       id="g3479"
       transform="matrix(0.85270574,0,0,0.85270574,149.50938,426.98754)"
       style="fill:#ff0000">
      <g
         id="g3426"
         style="fill:#ff0000">
        <g
           id="Layer_5_58_"
           style="fill:#ff0000">
          <g
             id="g3429"
             style="fill:#ff0000">
            <g
               id="g3431"
               style="fill:#ff0000" />
            <g
               id="g3437"
               style="fill:#ff0000" />
          </g>
        </g>
      </g>
      <g
         id="g3443"
         style="fill:#ff0000" />
      <g
         id="g3445"
         style="fill:#ff0000" />
      <g
         id="g3447"
         style="fill:#ff0000" />
      <g
         id="g3449"
         style="fill:#ff0000" />
      <g
         id="g3451"
         style="fill:#ff0000" />
      <g
         id="g3453"
         style="fill:#ff0000" />
      <g
         id="g3455"
         style="fill:#ff0000" />
      <g
         id="g3457"
         style="fill:#ff0000" />
      <g
         id="g3459"
         style="fill:#ff0000" />
      <g
         id="g3461"
         style="fill:#ff0000" />
      <g
         id="g3463"
         style="fill:#ff0000" />
      <g
         id="g3465"
         style="fill:#ff0000" />
      <g
         id="g3467"
         style="fill:#ff0000" />
      <g
         id="g3469"
         style="fill:#ff0000" />
      <g
         id="g3471"
         style="fill:#ff0000" />
    </g>
  </g>
</svg>
