<?xml version="1.0" encoding="UTF-8" standalone="no"?>
<!-- Created with Inkscape (http://www.inkscape.org/) -->

<svg
   xmlns:dc="http://purl.org/dc/elements/1.1/"
   xmlns:cc="http://creativecommons.org/ns#"
   xmlns:rdf="http://www.w3.org/1999/02/22-rdf-syntax-ns#"
   xmlns:svg="http://www.w3.org/2000/svg"
   xmlns="http://www.w3.org/2000/svg"
   xmlns:sodipodi="http://sodipodi.sourceforge.net/DTD/sodipodi-0.dtd"
   xmlns:inkscape="http://www.inkscape.org/namespaces/inkscape"
   width="220"
   height="220"
   viewBox="0 0 220 220"
   id="svg2"
   version="1.1"
   inkscape:version="0.91 r13725"
   sodipodi:docname="ufu_matricula.svg">
  <defs
     id="defs4" />
  <sodipodi:namedview
     id="base"
     pagecolor="#ffffff"
     bordercolor="#666666"
     borderopacity="1.0"
     inkscape:pageopacity="0.0"
     inkscape:pageshadow="2"
     inkscape:zoom="2.9590909"
     inkscape:cx="115.4265"
     inkscape:cy="96.45444"
     inkscape:document-units="px"
     inkscape:current-layer="layer1"
     showgrid="false"
     units="px"
     inkscape:window-width="1440"
     inkscape:window-height="847"
     inkscape:window-x="-8"
     inkscape:window-y="-8"
     inkscape:window-maximized="1"
     inkscape:object-paths="true" />
  <metadata
     id="metadata7">
    <rdf:RDF>
      <cc:Work
         rdf:about="">
        <dc:format>image/svg+xml</dc:format>
        <dc:type
           rdf:resource="http://purl.org/dc/dcmitype/StillImage" />
        <dc:title></dc:title>
      </cc:Work>
    </rdf:RDF>
  </metadata>
  <g
     inkscape:label="Camada 1"
     inkscape:groupmode="layer"
     id="layer1"
     transform="translate(0,-832.36216)">
    <path
       style="color:#000000;clip-rule:nonzero;display:inline;overflow:visible;visibility:visible;opacity:1;isolation:auto;mix-blend-mode:normal;color-interpolation:sRGB;color-interpolation-filters:linearRGB;solid-color:#000000;solid-opacity:1;fill:#ffffff;fill-opacity:1;fill-rule:nonzero;stroke:none;stroke-width:5;stroke-linecap:square;stroke-linejoin:miter;stroke-miterlimit:4;stroke-dasharray:none;stroke-dashoffset:0;stroke-opacity:1;color-rendering:auto;image-rendering:auto;shape-rendering:auto;text-rendering:auto;enable-background:accumulate"
       d="M 0 0 L 0 220 L 220 220 L 220 0 L 0 0 z M 37.376953 30 L 104.64844 30 L 104.64844 30.076172 L 146.4668 30.076172 L 146.4668 71.818359 L 146.4668 72.320312 L 146.4668 106.7793 C 133.78825 106.7793 122.26619 111.81964 113.79492 120 L 55.558594 120 L 55.558594 130.9082 L 105.38086 130.9082 C 102.8845 135.36275 101.09053 140.26199 100.15234 145.45508 L 55.558594 145.45508 L 55.558594 156.36328 L 99.470703 156.36328 C 99.953249 165.46692 103.03615 173.89039 107.98633 180.9082 L 37.376953 180.9082 L 37.376953 30 z M 91.390625 54.132812 L 90.548828 55.958984 L 91.636719 55.958984 L 93.316406 54.132812 L 91.390625 54.132812 z M 98.152344 56.318359 C 96.898261 56.318359 95.886736 56.732034 95.117188 57.558594 C 94.347637 58.381074 93.962891 59.537104 93.962891 61.027344 C 93.962891 62.43615 94.345849 63.548941 95.111328 64.363281 C 95.876807 65.173548 96.854033 65.578125 98.042969 65.578125 C 99.003889 65.578125 99.794996 65.341454 100.41797 64.869141 C 101.04501 64.392747 101.49299 63.66666 101.76172 62.689453 L 100.00977 62.132812 C 99.859107 62.788352 99.609766 63.268839 99.263672 63.574219 C 98.917577 63.879592 98.503896 64.033203 98.023438 64.033203 C 97.371966 64.033203 96.842717 63.79296 96.435547 63.3125 C 96.028377 62.83204 95.826172 62.024505 95.826172 60.892578 C 95.826172 59.825791 96.032117 59.054512 96.443359 58.578125 C 96.858672 58.101732 97.39686 57.863281 98.060547 57.863281 C 98.541008 57.863281 98.949324 57.998845 99.283203 58.267578 C 99.621154 58.536311 99.841402 58.903014 99.947266 59.367188 L 101.73828 58.939453 C 101.53469 58.222833 101.22943 57.671803 100.82227 57.289062 C 100.13822 56.641665 99.24763 56.318359 98.152344 56.318359 z M 55.558594 56.470703 L 55.558594 65.425781 L 57.238281 65.425781 L 57.238281 58.376953 L 59.009766 65.425781 L 60.75 65.425781 L 62.527344 58.376953 L 62.527344 65.425781 L 64.207031 65.425781 L 64.207031 56.470703 L 61.496094 56.470703 L 59.888672 62.580078 L 58.263672 56.470703 L 55.558594 56.470703 z M 68.591797 56.470703 L 65.105469 65.425781 L 67.021484 65.425781 L 67.761719 63.390625 L 71.339844 63.390625 L 72.123047 65.425781 L 74.089844 65.425781 L 70.503906 56.470703 L 68.591797 56.470703 z M 73.507812 56.470703 L 73.507812 57.986328 L 76.166016 57.986328 L 76.166016 65.425781 L 77.972656 65.425781 L 77.972656 57.986328 L 80.623047 57.986328 L 80.623047 56.470703 L 73.507812 56.470703 z M 81.777344 56.470703 L 81.777344 65.425781 L 83.585938 65.425781 L 83.585938 61.6875 L 83.953125 61.6875 C 84.368438 61.6875 84.671912 61.721802 84.863281 61.791016 C 85.054651 61.856169 85.235239 61.980838 85.40625 62.164062 C 85.577261 62.343216 85.895202 62.780304 86.359375 63.476562 L 87.666016 65.425781 L 89.828125 65.425781 L 88.734375 63.677734 C 88.302775 62.981474 87.959642 62.497416 87.703125 62.224609 C 87.45068 61.951803 87.129165 61.702623 86.738281 61.474609 C 87.524119 61.360603 88.114811 61.084109 88.509766 60.648438 C 88.90472 60.208697 89.101562 59.654255 89.101562 58.982422 C 89.101562 58.453102 88.971524 57.981552 88.710938 57.570312 C 88.450349 57.159075 88.101687 56.875597 87.666016 56.716797 C 87.234416 56.55393 86.540833 56.470703 85.583984 56.470703 L 81.777344 56.470703 z M 90.755859 56.470703 L 90.755859 65.425781 L 92.564453 65.425781 L 92.564453 56.470703 L 90.755859 56.470703 z M 103.30664 56.470703 L 103.30664 61.248047 C 103.30664 62.249687 103.36629 63.006498 103.48438 63.519531 C 103.56579 63.865625 103.73567 64.198032 103.99219 64.515625 C 104.24871 64.829145 104.59542 65.085643 105.03516 65.285156 C 105.47898 65.480596 106.12932 65.578125 106.98438 65.578125 C 107.69283 65.578125 108.26729 65.487747 108.70703 65.308594 C 109.14678 65.125367 109.49723 64.881545 109.75781 64.576172 C 110.02247 64.270792 110.20306 63.896938 110.30078 63.453125 C 110.3985 63.009305 110.44727 62.248755 110.44727 61.173828 L 110.44727 56.470703 L 108.63867 56.470703 L 108.63867 61.425781 C 108.63867 62.134255 108.61348 62.639935 108.56055 62.945312 C 108.50761 63.250693 108.35043 63.508976 108.08984 63.720703 C 107.82926 63.928356 107.44273 64.033203 106.92969 64.033203 C 106.4248 64.033203 106.02558 63.922992 105.73242 63.703125 C 105.44333 63.479178 105.259 63.18286 105.18164 62.816406 C 105.13684 62.588393 105.11523 62.089866 105.11523 61.320312 L 105.11523 56.470703 L 103.30664 56.470703 z M 122.58203 56.470703 L 119.0957 65.425781 L 121.01367 65.425781 L 121.75195 63.390625 L 125.33203 63.390625 L 126.11328 65.425781 L 128.08008 65.425781 L 124.49414 56.470703 L 122.58203 56.470703 z M 112.4082 56.544922 L 112.4082 65.425781 L 118.71094 65.425781 L 118.71094 63.916016 L 114.21484 63.916016 L 114.21484 56.544922 L 112.4082 56.544922 z M 83.585938 57.986328 L 84.996094 57.986328 C 85.728999 57.986328 86.169826 57.997245 86.316406 58.017578 C 86.609569 58.066438 86.835345 58.183794 86.994141 58.371094 C 87.157009 58.55432 87.238281 58.79635 87.238281 59.097656 C 87.238281 59.36639 87.176837 59.590378 87.054688 59.769531 C 86.932537 59.948685 86.764628 60.075151 86.548828 60.148438 C 86.333028 60.221729 85.791099 60.257812 84.923828 60.257812 L 83.585938 60.257812 L 83.585938 57.986328 z M 69.527344 58.560547 L 70.759766 61.882812 L 68.316406 61.882812 L 69.527344 58.560547 z M 123.51758 58.560547 L 124.75195 61.882812 L 122.30859 61.882812 L 123.51758 58.560547 z M 55.558594 94.544922 L 55.558594 105.45508 L 128.28516 105.45508 L 128.28516 94.544922 L 55.558594 94.544922 z M 146.4668 117.6875 C 166.40352 117.6875 182.62305 133.90702 182.62305 153.84375 C 182.62305 173.78048 166.40352 190 146.4668 190 C 126.53007 190 110.31055 173.78011 110.31055 153.84375 C 110.31055 133.90739 126.53007 117.6875 146.4668 117.6875 z M 162.31641 137.87109 L 141.94141 158.24609 L 128.26953 144.57617 L 120.55664 152.28906 L 141.94141 173.67383 L 170.03125 145.58398 L 162.31641 137.87109 z "
       transform="translate(0,832.36216)"
       id="rect3888" />
    <g
       id="g3485"
       transform="matrix(0.56430217,0,0,0.56430217,30.000194,872.57161)">
      <g
         id="g3415">
        <g
           id="g3417">
          <g
             id="g3419" />
          <g
             id="g3427" />
        </g>
      </g>
      <g
         id="g3449" />
      <g
         id="g3451" />
      <g
         id="g3453" />
      <g
         id="g3455" />
      <g
         id="g3457" />
      <g
         id="g3459" />
      <g
         id="g3461" />
      <g
         id="g3463" />
      <g
         id="g3465" />
      <g
         id="g3467" />
      <g
         id="g3469" />
      <g
         id="g3471" />
      <g
         id="g3473" />
      <g
         id="g3475" />
      <g
         id="g3477" />
    </g>
    <g
       id="g3621"
       transform="matrix(0,-0.10893246,-0.10893246,0,165.76498,914.10372)">
      <g
         id="g3580">
        <g
           id="reply">
          <g
             id="g3676">
            <g
               transform="matrix(0,-1.8947074,-1.8947074,0,28.961248,682.40826)"
               id="g3389"
               style="">
              <g
                 id="g3337">
                <g
                   id="g3339">
                  <g
                     id="g3341">
                    <g
                       id="g3343" />
                  </g>
                  <g
                     id="g3347">
                    <g
                       id="g3349" />
                  </g>
                </g>
              </g>
              <g
                 id="g3353" />
              <g
                 id="g3355" />
              <g
                 id="g3357" />
              <g
                 id="g3359" />
              <g
                 id="g3361" />
              <g
                 id="g3363" />
              <g
                 id="g3365" />
              <g
                 id="g3367" />
              <g
                 id="g3369" />
              <g
                 id="g3371" />
              <g
                 id="g3373" />
              <g
                 id="g3375" />
              <g
                 id="g3377" />
              <g
                 id="g3379" />
              <g
                 id="g3381" />
            </g>
          </g>
        </g>
      </g>
      <g
         id="g3585" />
      <g
         id="g3587" />
      <g
         id="g3589" />
      <g
         id="g3591" />
      <g
         id="g3593" />
      <g
         id="g3595" />
      <g
         id="g3597" />
      <g
         id="g3599" />
      <g
         id="g3601" />
      <g
         id="g3603" />
      <g
         id="g3605" />
      <g
         id="g3607" />
      <g
         id="g3609" />
      <g
         id="g3611" />
      <g
         id="g3613" />
    </g>
    <g
       id="g3766"
       transform="matrix(0.36363636,0,0,0.36363636,30.000001,862.36216)">
      <g
         id="g3722" />
      <g
         id="g3730" />
      <g
         id="g3732" />
      <g
         id="g3734" />
      <g
         id="g3736" />
      <g
         id="g3738" />
      <g
         id="g3740" />
      <g
         id="g3742" />
      <g
         id="g3744" />
      <g
         id="g3746" />
      <g
         id="g3748" />
      <g
         id="g3750" />
      <g
         id="g3752" />
      <g
         id="g3754" />
      <g
         id="g3756" />
      <g
         id="g3758" />
    </g>
    <g
       style="font-style:normal;font-variant:normal;font-weight:bold;font-stretch:normal;font-size:12.50825405px;line-height:125%;font-family:Arial;-inkscape-font-specification:'Arial, Bold';text-align:start;letter-spacing:0px;word-spacing:0px;writing-mode:lr-tb;text-anchor:start;fill:#ffffff;fill-opacity:1;stroke:none;stroke-width:1px;stroke-linecap:butt;stroke-linejoin:miter;stroke-opacity:1"
       id="text3856" />
  </g>
</svg>
