<?xml version="1.0" encoding="UTF-8" standalone="no"?>
<!-- Created with Inkscape (http://www.inkscape.org/) -->

<svg
   xmlns:dc="http://purl.org/dc/elements/1.1/"
   xmlns:cc="http://creativecommons.org/ns#"
   xmlns:rdf="http://www.w3.org/1999/02/22-rdf-syntax-ns#"
   xmlns:svg="http://www.w3.org/2000/svg"
   xmlns="http://www.w3.org/2000/svg"
   xmlns:sodipodi="http://sodipodi.sourceforge.net/DTD/sodipodi-0.dtd"
   xmlns:inkscape="http://www.inkscape.org/namespaces/inkscape"
   width="220"
   height="220"
   viewBox="0 0 219.99999 220"
   id="svg2"
   version="1.1"
   inkscape:version="0.91 r13725"
   sodipodi:docname="ufu_ferias.svg">
  <defs
     id="defs4" />
  <sodipodi:namedview
     id="base"
     pagecolor="#ffffff"
     bordercolor="#666666"
     borderopacity="1.0"
     inkscape:pageopacity="0.0"
     inkscape:pageshadow="2"
     inkscape:zoom="2.9590909"
     inkscape:cx="110"
     inkscape:cy="110"
     inkscape:document-units="px"
     inkscape:current-layer="layer1"
     showgrid="false"
     units="px"
     inkscape:window-width="1440"
     inkscape:window-height="847"
     inkscape:window-x="-8"
     inkscape:window-y="-8"
     inkscape:window-maximized="1" />
  <metadata
     id="metadata7">
    <rdf:RDF>
      <cc:Work
         rdf:about="">
        <dc:format>image/svg+xml</dc:format>
        <dc:type
           rdf:resource="http://purl.org/dc/dcmitype/StillImage" />
        <dc:title></dc:title>
      </cc:Work>
    </rdf:RDF>
  </metadata>
  <g
     inkscape:label="Camada 1"
     inkscape:groupmode="layer"
     id="layer1"
     transform="translate(0,-832.36216)">
    <path
       style="color:#000000;clip-rule:nonzero;display:inline;overflow:visible;visibility:visible;opacity:1;isolation:auto;mix-blend-mode:normal;color-interpolation:sRGB;color-interpolation-filters:linearRGB;solid-color:#000000;solid-opacity:1;fill:#ffffff;fill-opacity:1;fill-rule:nonzero;stroke:none;stroke-width:5;stroke-linecap:square;stroke-linejoin:miter;stroke-miterlimit:4;stroke-dasharray:none;stroke-dashoffset:0;stroke-opacity:1;color-rendering:auto;image-rendering:auto;shape-rendering:auto;text-rendering:auto;enable-background:accumulate"
       d="M 0 0 L 0 220 L 220 220 L 220 0 L 0 0 z M 48.554688 46.988281 C 55.666422 46.988281 64.842372 49.861073 69.166016 63.160156 C 69.762933 62.301263 70.607491 61.25341 71.740234 60.203125 C 74.131968 57.986498 78.31621 55.34375 84.671875 55.34375 C 89.551371 55.34375 95.038048 56.890929 100.98242 59.943359 C 101.35299 60.133734 101.55521 60.54387 101.47852 60.953125 C 101.40182 61.362379 101.06669 61.67302 100.65234 61.716797 C 100.60993 61.721548 96.334611 62.191105 91.40625 63.828125 C 87.283837 65.197394 81.907423 67.664806 78.787109 71.808594 C 79.775974 72.085841 81.218372 72.563231 82.865234 73.328125 C 85.658754 74.625456 89.590375 77.040822 92.453125 81.183594 C 96.086193 86.441803 97.17385 93.141624 95.6875 101.09766 C 95.615898 101.48181 95.313831 101.78165 94.929688 101.85156 C 94.545205 101.92146 94.157671 101.74832 93.955078 101.41406 C 93.870918 101.27459 86.130843 88.610826 78.134766 84.453125 C 78.902373 86.229277 79.835943 88.89818 80.195312 91.996094 C 80.574705 95.27183 80.228516 98.342765 79.166016 101.12305 C 77.838141 104.59798 75.393474 107.60604 71.896484 110.06055 C 71.734953 110.17389 71.543889 110.23047 71.353516 110.23047 C 71.206917 110.23047 71.060844 110.19583 70.925781 110.12695 C 70.614937 109.96813 70.417203 109.64997 70.412109 109.30078 C 70.41143 109.23801 70.313987 102.91393 69.470703 95.863281 C 68.76927 90.002389 67.76587 85.347067 66.513672 82.070312 C 64.698157 86.080059 62.501336 91.234332 61.501953 94.734375 C 60.145524 99.484431 59.280445 104.25815 58.890625 108.97852 C 64.407296 113.00553 75.784221 118.94616 77.019531 119.58789 A 6.3217465 6.3217465 0 0 1 76.615234 117.37695 A 6.3217465 6.3217465 0 0 1 82.9375 111.05273 A 6.3217465 6.3217465 0 0 1 86.65625 112.27148 C 89.061443 113.72878 90.329697 116.64941 89.566406 119.49805 C 89.24879 120.68341 88.616513 121.70002 87.789062 122.49219 L 90.382812 123.71094 L 90.884766 121.83594 C 91.094323 121.05386 91.721852 120.50062 92.460938 120.33203 C 92.661741 120.23276 92.869834 120.15571 93.087891 120.11719 L 108.4375 117.41016 C 108.74255 117.35705 109.04911 117.36922 109.34766 117.44922 C 110.13993 117.66151 110.74238 118.31882 110.88477 119.12305 L 111.08008 120.23242 C 111.17801 120.78639 111.05438 121.34703 110.73047 121.81055 C 110.40673 122.27339 109.92183 122.58194 109.36719 122.67969 L 105.04297 123.44141 L 110.74023 124.9668 C 110.81198 124.93573 110.88166 124.90154 110.95312 124.87695 L 119.61328 121.87109 C 120.23908 121.65466 120.99174 121.64476 121.73438 121.84375 C 122.3784 122.01632 122.95537 122.33804 123.35938 122.74805 L 131.48828 130.99609 C 131.90872 131.42364 132.22338 132.02369 132.40625 132.66602 L 159.30859 130.60156 C 159.37173 130.3836 159.45841 130.14598 159.51367 129.93555 C 160.42347 126.30994 160.99326 122.56028 161.23047 118.73242 L 161.35547 114.55273 C 161.34597 108.04334 160.39127 101.36423 158.49805 94.734375 C 157.49867 91.234332 155.30185 86.080059 153.48633 82.070312 C 152.23414 85.347067 151.23073 90.002389 150.5293 95.863281 C 149.68601 102.91393 149.58854 109.23801 149.58789 109.30078 C 149.5828 109.64997 149.38506 109.96813 149.07422 110.12695 C 148.93916 110.19583 148.79308 110.23047 148.64648 110.23047 C 148.45611 110.23047 148.26505 110.17389 148.10352 110.06055 C 144.60652 107.60604 142.16187 104.59798 140.83398 101.12305 C 139.77149 98.342765 139.4253 95.27183 139.80469 91.996094 C 140.16406 88.89818 141.09763 86.229277 141.86523 84.453125 C 133.86916 88.610826 126.12908 101.27459 126.04492 101.41406 C 125.84233 101.74832 125.45479 101.92146 125.07031 101.85156 C 124.68616 101.78165 124.3841 101.48181 124.3125 101.09766 C 122.82615 93.141624 123.9138 86.441803 127.54688 81.183594 C 130.40962 77.040822 134.34124 74.625456 137.13477 73.328125 C 138.78162 72.563231 140.22403 72.085841 141.21289 71.808594 C 138.09257 67.664806 132.71616 65.197394 128.59375 63.828125 C 123.66539 62.191105 119.39007 61.721548 119.34766 61.716797 C 118.93331 61.67302 118.59818 61.362379 118.52148 60.953125 C 118.4448 60.54387 118.64701 60.133734 119.01758 59.943359 C 124.96195 56.890916 130.44863 55.34375 135.32812 55.34375 C 141.6838 55.34375 145.86803 57.986498 148.25977 60.203125 C 149.39251 61.25341 150.23707 62.301263 150.83398 63.160156 C 155.15763 49.861073 164.33358 46.988281 171.44531 46.988281 C 178.61678 46.988281 184.63585 49.831978 184.88867 49.953125 C 185.25992 50.130604 185.47277 50.527989 185.41406 50.935547 C 185.3557 51.343105 185.03935 51.663956 184.63281 51.730469 C 176.80912 53.003026 169.86666 57.408725 165.42188 60.878906 C 164.38076 61.691987 163.42539 62.492574 162.56445 63.25 C 165.39225 62.051421 168.17499 61.447266 170.88672 61.447266 C 175.96372 61.447266 180.86365 63.61177 185.05664 67.707031 C 188.19325 70.770669 189.82242 73.804046 189.89062 73.931641 C 190.06335 74.257077 190.03027 74.65441 189.80664 74.947266 C 189.58301 75.239448 189.20669 75.374412 188.84766 75.292969 C 182.72682 73.905032 177.13371 73.201172 172.22266 73.201172 C 165.54359 73.201172 161.37346 74.462387 158.87891 75.712891 C 161.31407 78.936026 165.19756 85.076379 169.22461 95.488281 C 174.25139 108.48534 175.76185 121.79683 173.59375 133.98047 C 170.94309 148.87992 164.02249 162.97573 154.60352 172.6543 C 154.38227 172.882 154.0774 173.01172 153.75977 173.01172 L 133.91992 173.01172 C 133.42719 173.01172 132.98744 172.70473 132.81641 172.24219 C 132.64538 171.77966 132.77805 171.26014 133.15234 170.93945 C 141.98307 163.37591 154.9012 143.65492 158.85742 132.08008 C 120.52683 147.72194 76.821511 141.39051 58.804688 110.08203 C 58.704728 111.57959 58.646686 113.07028 58.644531 114.55273 L 58.769531 118.73242 C 59.006735 122.56028 59.576535 126.30994 60.486328 129.93555 C 63.404049 141.0455 77.443024 162.88602 86.845703 170.93945 C 87.220005 171.26014 87.354624 171.77966 87.183594 172.24219 C 87.01256 172.70473 86.572812 173.01172 86.080078 173.01172 L 66.240234 173.01172 C 65.922602 173.01172 65.617741 172.882 65.396484 172.6543 C 55.977519 162.97573 49.056905 148.87992 46.40625 133.98047 C 44.23815 121.79683 45.748616 108.48534 50.775391 95.488281 C 54.802444 85.076379 58.685927 78.936026 61.121094 75.712891 C 58.626541 74.462387 54.454454 73.201172 47.775391 73.201172 C 42.864333 73.201172 37.273179 73.905032 31.152344 75.292969 C 30.793313 75.374412 30.41699 75.239448 30.193359 74.947266 C 29.969728 74.65441 29.936646 74.257077 30.109375 73.931641 C 30.177584 73.804046 31.806759 70.770669 34.943359 67.707031 C 39.136354 63.61177 44.036283 61.447266 49.113281 61.447266 C 51.825018 61.447266 54.607752 62.051421 57.435547 63.25 C 56.574618 62.492574 55.619247 61.691987 54.578125 60.878906 C 50.133333 57.408725 43.190876 53.003026 35.367188 51.730469 C 34.960648 51.663956 34.644306 51.343105 34.585938 50.935547 C 34.527231 50.527989 34.740081 50.130604 35.111328 49.953125 C 35.364143 49.831978 41.383227 46.988281 48.554688 46.988281 z M 119.30859 128.24023 C 119.10633 128.24506 118.91574 128.27788 118.75391 128.33984 L 112.79492 130.62891 C 114.61988 130.98597 116.34969 131.27228 117.89062 131.45703 L 124.0957 131.97461 L 120.99219 128.82422 C 120.62748 128.45316 119.91539 128.22577 119.30859 128.24023 z "
       transform="translate(-7.6293945e-6,832.36216)"
       id="rect3336" />
    <g
       id="g3389"
       transform="matrix(0.2,0,0,0.2,29.999992,862.36226)">
      <g
         id="g3339" />
      <g
         id="g3353" />
      <g
         id="g3355" />
      <g
         id="g3357" />
      <g
         id="g3359" />
      <g
         id="g3361" />
      <g
         id="g3363" />
      <g
         id="g3365" />
      <g
         id="g3367" />
      <g
         id="g3369" />
      <g
         id="g3371" />
      <g
         id="g3373" />
      <g
         id="g3375" />
      <g
         id="g3377" />
      <g
         id="g3379" />
      <g
         id="g3381" />
    </g>
    <g
       id="g3454"
       transform="matrix(0.32653032,0,0,0.32653032,30.000115,862.36239)">
      <g
         id="g3418" />
      <g
         id="g3420" />
      <g
         id="g3422" />
      <g
         id="g3424" />
      <g
         id="g3426" />
      <g
         id="g3428" />
      <g
         id="g3430" />
      <g
         id="g3432" />
      <g
         id="g3434" />
      <g
         id="g3436" />
      <g
         id="g3438" />
      <g
         id="g3440" />
      <g
         id="g3442" />
      <g
         id="g3444" />
      <g
         id="g3446" />
    </g>
    <g
       id="g3511"
       transform="matrix(0.65437933,0.17534041,-0.17534041,0.65437933,76.186008,919.72815)">
      <g
         id="g3475" />
      <g
         id="g3477" />
      <g
         id="g3479" />
      <g
         id="g3481" />
      <g
         id="g3483" />
      <g
         id="g3485" />
      <g
         id="g3487" />
      <g
         id="g3489" />
      <g
         id="g3491" />
      <g
         id="g3493" />
      <g
         id="g3495" />
      <g
         id="g3497" />
      <g
         id="g3499" />
      <g
         id="g3501" />
      <g
         id="g3503" />
    </g>
    <g
       transform="matrix(-0.32653032,0,0,0.32653032,183.95486,862.36239)"
       id="g3529">
      <g
         id="g3533" />
      <g
         id="g3535" />
      <g
         id="g3537" />
      <g
         id="g3539" />
      <g
         id="g3541" />
      <g
         id="g3543" />
      <g
         id="g3545" />
      <g
         id="g3547" />
      <g
         id="g3549" />
      <g
         id="g3551" />
      <g
         id="g3553" />
      <g
         id="g3555" />
      <g
         id="g3557" />
      <g
         id="g3559" />
      <g
         id="g3561" />
    </g>
  </g>
</svg>
