<?xml version="1.0" encoding="UTF-8" standalone="no"?>
<!-- Created with Inkscape (http://www.inkscape.org/) -->

<svg
   xmlns:dc="http://purl.org/dc/elements/1.1/"
   xmlns:cc="http://creativecommons.org/ns#"
   xmlns:rdf="http://www.w3.org/1999/02/22-rdf-syntax-ns#"
   xmlns:svg="http://www.w3.org/2000/svg"
   xmlns="http://www.w3.org/2000/svg"
   xmlns:sodipodi="http://sodipodi.sourceforge.net/DTD/sodipodi-0.dtd"
   xmlns:inkscape="http://www.inkscape.org/namespaces/inkscape"
   width="220"
   height="220"
   viewBox="0 0 220 220"
   id="svg2"
   version="1.1"
   inkscape:version="0.91 r13725"
   sodipodi:docname="ufu_central_linguas.svg">
  <defs
     id="defs4" />
  <sodipodi:namedview
     id="base"
     pagecolor="#ffffff"
     bordercolor="#666666"
     borderopacity="1.0"
     inkscape:pageopacity="0.0"
     inkscape:pageshadow="2"
     inkscape:zoom="2.9590909"
     inkscape:cx="104.08602"
     inkscape:cy="110"
     inkscape:document-units="px"
     inkscape:current-layer="layer1"
     showgrid="false"
     units="px"
     inkscape:window-width="1440"
     inkscape:window-height="847"
     inkscape:window-x="-8"
     inkscape:window-y="-8"
     inkscape:window-maximized="1" />
  <metadata
     id="metadata7">
    <rdf:RDF>
      <cc:Work
         rdf:about="">
        <dc:format>image/svg+xml</dc:format>
        <dc:type
           rdf:resource="http://purl.org/dc/dcmitype/StillImage" />
        <dc:title></dc:title>
      </cc:Work>
    </rdf:RDF>
  </metadata>
  <g
     inkscape:label="Camada 1"
     inkscape:groupmode="layer"
     id="layer1"
     transform="translate(0,-832.36216)">
    <path
       style="color:#000000;clip-rule:nonzero;display:inline;overflow:visible;visibility:visible;opacity:1;isolation:auto;mix-blend-mode:normal;color-interpolation:sRGB;color-interpolation-filters:linearRGB;solid-color:#000000;solid-opacity:1;fill:#ffffff;fill-opacity:1;fill-rule:nonzero;stroke:none;stroke-width:5;stroke-linecap:square;stroke-linejoin:miter;stroke-miterlimit:4;stroke-dasharray:none;stroke-dashoffset:0;stroke-opacity:1;color-rendering:auto;image-rendering:auto;shape-rendering:auto;text-rendering:auto;enable-background:accumulate"
       d="M 0 0 L 0 220 L 220 220 L 220 0 L 0 0 z M 52.609375 33.070312 L 77.667969 33.070312 L 102.72461 33.070312 L 102.72461 39.400391 L 102.72461 45.732422 L 106.09375 50.601562 C 107.94596 53.279823 109.53033 55.46975 109.61523 55.46875 C 109.70003 55.46875 111.30222 53.260153 113.17578 50.564453 L 116.58203 45.664062 L 116.58203 39.367188 L 116.58203 33.070312 L 141.98633 33.070312 L 167.39062 33.070312 L 167.39062 83.070312 L 167.39062 133.07031 L 141.98633 133.07031 L 116.58203 133.07031 L 116.58398 111.07227 L 116.58594 89.074219 L 118.35156 86.765625 C 122.85328 80.878595 126.28125 76.297239 126.28125 76.167969 C 126.28125 76.089899 124.09908 76.025391 121.43164 76.025391 L 116.58203 76.025391 L 116.58203 70.251953 L 116.58203 64.478516 L 109.6543 64.478516 L 102.72461 64.478516 L 102.72461 70.248047 L 102.72461 76.017578 L 97.869141 76.078125 L 93.011719 76.140625 L 97.861328 82.609375 L 102.71094 89.074219 L 102.71875 111.07227 L 102.72461 133.07227 L 77.667969 133.07227 L 52.609375 133.07227 L 52.609375 83.072266 L 52.609375 33.072266 L 52.609375 33.070312 z M 57.228516 37.921875 L 57.228516 46.601562 L 57.228516 55.279297 L 58.671875 53.964844 C 60.540833 52.262534 63.056273 50.563636 65.275391 49.503906 C 66.926537 48.715406 67.189398 48.660156 69.238281 48.660156 C 71.169938 48.660156 71.589257 48.737554 72.740234 49.302734 C 75.781732 50.796364 77.691766 54.581846 77.949219 59.628906 C 78.14238 63.415576 77.229543 66.196384 74.957031 68.746094 C 71.99918 72.064674 70.124201 72.231018 67.630859 69.398438 C 65.716241 67.223358 64.822546 64.010702 65.533203 61.857422 C 65.763531 61.159552 65.918824 61.015625 66.449219 61.015625 C 67.29787 61.015625 67.747842 61.576593 68.046875 63.001953 C 68.603036 65.653033 69.74762 67.710938 70.664062 67.710938 C 70.779396 67.710938 71.392663 67.226596 72.025391 66.634766 C 74.519315 64.301996 75.485251 60.856984 74.693359 57.121094 C 74.22174 54.896134 73.425837 53.567096 72.101562 52.791016 C 71.136999 52.225786 70.905305 52.186791 69.242188 52.300781 C 67.753074 52.402821 67.150403 52.569876 65.851562 53.253906 C 63.789328 54.339956 61.379394 56.448692 59.083984 59.169922 L 57.234375 61.363281 L 57.232422 76.083984 L 57.228516 90.808594 L 77.783203 90.808594 C 89.088027 90.808594 98.337891 90.765344 98.337891 90.714844 C 98.337891 90.663844 95.37594 86.590626 91.755859 81.660156 C 86.288744 74.214136 85.173828 72.565687 85.173828 71.935547 L 85.173828 71.177734 L 91.755859 71.177734 L 98.337891 71.177734 L 98.337891 65.402344 L 98.337891 59.628906 L 102.60938 59.628906 C 104.95925 59.628906 106.88281 59.577772 106.88281 59.513672 C 106.88281 59.449872 104.95924 56.533763 102.60938 53.033203 L 98.337891 46.666016 L 98.337891 42.294922 L 98.337891 37.921875 L 77.783203 37.921875 L 57.228516 37.921875 z M 120.9707 37.921875 L 120.9707 42.261719 L 120.9707 46.603516 L 116.69727 52.912109 C 114.34739 56.382349 112.42578 59.314011 112.42578 59.425781 C 112.42578 59.537601 114.34739 59.628906 116.69727 59.628906 L 120.9707 59.628906 L 120.9707 65.402344 L 120.9707 71.175781 L 127.63867 71.175781 L 134.30664 71.175781 L 134.44922 71.884766 C 134.5797 72.537286 134.05728 73.304131 127.9375 81.425781 C 124.27751 86.283011 121.20658 90.38031 121.11328 90.53125 C 120.9828 90.74234 125.76591 90.806641 141.85742 90.806641 L 162.77148 90.806641 L 162.77148 77.433594 L 162.77148 64.060547 L 159.72266 61.439453 C 156.11587 58.339943 154.06114 56.789183 152.52539 56.007812 C 151.50903 55.490723 151.23425 55.452593 149.63867 55.595703 C 147.66549 55.772753 146.94342 56.231494 146.11914 57.833984 C 145.5192 59.000434 145.26307 62.559437 145.73438 63.179688 C 146.00432 63.535008 146.15225 63.566796 146.55078 63.353516 C 146.81817 63.210406 147.562 63.09375 148.20508 63.09375 C 149.22254 63.09375 149.49451 63.200495 150.29297 63.921875 C 151.33688 64.865005 152.20334 66.504489 152.71875 68.511719 C 153.63576 72.082819 152.68872 74.127016 149.92773 74.541016 C 148.071 74.819496 146.73006 73.658872 145.5625 70.763672 C 145.21862 69.910922 144.56447 68.38557 144.10938 67.375 C 143.39442 65.7873 143.25701 65.192001 143.09766 62.988281 C 142.88527 60.050841 143.03063 57.493031 143.50781 55.769531 C 143.89495 54.371291 145.55 52.566579 147.16016 51.787109 C 148.39476 51.189489 150.36841 51.167865 151.85938 51.734375 C 152.46571 51.964765 154.88415 53.556918 157.23242 55.273438 C 159.58069 56.989988 161.78741 58.581544 162.13672 58.808594 L 162.77148 59.222656 L 162.77148 48.572266 L 162.77148 37.921875 L 141.87109 37.921875 L 120.9707 37.921875 z M 120.96875 94.041016 L 120.97656 100.56641 L 120.98242 107.08984 L 121.8418 106.13477 C 122.31495 105.60937 123.46165 104.33733 124.38867 103.31055 C 127.55902 99.799187 132.18629 96.874198 136.21289 95.835938 C 137.82272 95.420867 138.84086 95.330266 141.87109 95.322266 C 145.34496 95.313266 145.67714 95.349208 147.41406 95.960938 C 152.08113 97.604308 158.59719 101.89953 161.60938 105.31641 L 162.76562 106.62891 L 162.76758 100.33398 L 162.77148 94.041016 L 141.87109 94.041016 L 120.96875 94.041016 z M 69.123047 94.042969 L 63.234375 94.099609 L 57.34375 94.15625 L 57.302734 101.43164 C 57.279994 105.43281 57.303789 108.60354 57.355469 108.47656 C 57.407339 108.34952 57.720261 107.30916 58.048828 106.16602 C 58.84176 103.40712 60.02476 101.26221 61.837891 99.296875 C 63.554241 97.436505 64.94869 96.358376 67.390625 95.003906 L 69.123047 94.042969 z M 96.578125 94.076172 C 95.562365 94.071872 94.17403 94.078503 92.65625 94.095703 L 87.136719 94.15625 L 88.175781 94.705078 C 92.783913 97.139788 96.099692 100.7399 97.576172 104.91016 L 98.222656 106.73242 L 98.283203 100.46875 C 98.317103 97.02297 98.306566 94.163987 98.259766 94.117188 C 98.236366 94.093887 97.593885 94.080172 96.578125 94.076172 z M 78.345703 94.734375 C 77.19142 94.734375 76.402613 95.28757 75.603516 96.65625 C 75.03094 97.63698 74.041658 100.7625 73.751953 102.50781 L 73.591797 103.4707 L 74.822266 103.69336 C 77.115254 104.11081 77.089844 104.12005 77.089844 102.8457 C 77.089844 101.59345 77.478969 101.07268 78.234375 101.3125 C 78.636081 101.43997 78.707031 101.65528 78.707031 102.74219 C 78.707031 103.95293 78.734909 104.01469 79.226562 103.89453 C 79.51236 103.82493 80.447298 103.64749 81.304688 103.5 C 82.269497 103.33399 82.863281 103.12087 82.863281 102.93945 C 82.863281 102.23706 81.707432 98.17463 81.244141 97.25 C 80.964406 96.69166 80.415722 95.897235 80.023438 95.484375 C 79.44119 94.871665 79.131677 94.734375 78.345703 94.734375 z M 74.074219 94.740234 C 73.076593 94.692044 67.677308 96.96252 66.373047 98.03125 L 65.703125 98.582031 L 66.998047 99.855469 C 68.149347 100.98857 71.011713 102.79265 71.685547 102.81055 C 71.824467 102.81755 72.11468 101.90832 72.332031 100.79688 C 72.549375 99.685445 73.080883 97.896173 73.511719 96.820312 C 73.942547 95.744453 74.258231 94.82655 74.212891 94.78125 C 74.188014 94.75635 74.140729 94.743234 74.074219 94.740234 z M 82.142578 94.964844 C 81.724196 94.964844 81.731204 95.023206 82.259766 96.066406 C 82.566512 96.671736 83.147371 98.256151 83.550781 99.587891 C 83.954191 100.91963 84.327529 102.14535 84.380859 102.3125 C 84.539638 102.81007 86.690428 101.49927 88.394531 99.865234 L 89.908203 98.414062 L 89.330078 97.964844 C 87.790755 96.768174 83.471179 94.964844 82.142578 94.964844 z M 141.88281 98.181641 C 141.12872 98.187611 140.39581 98.302223 139.79102 98.533203 C 136.45985 99.805403 134.59166 104.66773 134.59766 112.04883 C 134.60267 118.18407 135.82791 122.78207 137.98828 124.77344 C 139.47162 126.14069 140.17369 126.38856 142.35156 126.31836 C 143.96424 126.26606 144.36803 126.16513 145.33203 125.56641 C 148.27557 123.73803 149.60542 119.56436 149.60742 112.14258 C 149.60942 104.86104 148.30247 100.84016 145.3418 99.009766 C 144.45615 98.462186 143.13965 98.171641 141.88281 98.181641 z M 136.10352 98.742188 C 135.61247 98.840618 133.57573 99.736001 132.39258 100.39453 C 131.62471 100.82186 130.37747 101.64886 129.62109 102.23438 C 127.66716 103.74676 122.73559 108.6883 121.74609 110.125 L 120.91211 111.33594 L 121.52344 112.38281 C 123.21194 115.26403 129.56248 121.82389 132.50977 123.73047 C 134.01212 124.70237 136.01122 125.729 136.14258 125.59766 C 136.17348 125.56676 135.74086 124.62986 135.18164 123.51562 C 132.00197 117.1801 132.05391 107.10268 135.29883 100.6543 C 135.80186 99.654717 136.21289 98.798353 136.21289 98.751953 C 136.21289 98.730253 136.17362 98.728088 136.10352 98.742188 z M 148.31055 98.914062 C 148.24505 98.932423 148.22838 98.980553 148.27148 99.064453 C 150.05202 102.5311 150.82224 104.89586 151.2168 108.12305 C 151.92483 113.91423 151.02579 120.07472 148.89648 124.0332 L 147.98242 125.73438 L 148.62109 125.58008 C 148.97291 125.49528 150.20531 124.96945 151.35938 124.41211 C 155.20643 122.5541 160.03597 118.49667 161.32422 116.04102 C 161.70808 115.30929 162.25818 113.98884 162.54688 113.10547 L 163.07227 111.49805 L 162.40625 110.21875 C 161.54957 108.56965 156.12452 103.10737 153.85156 101.60547 C 151.66237 100.15886 148.76889 98.785472 148.31055 98.914062 z M 92.013672 100.31445 L 90.333984 101.88086 C 89.301419 102.84517 87.930034 103.82682 86.767578 104.43164 L 84.876953 105.41602 L 85.025391 107.48633 C 85.106211 108.62488 85.229191 109.64977 85.300781 109.76562 C 85.373221 109.88277 87.837216 109.97656 90.853516 109.97656 C 95.019814 109.97656 96.300299 109.90837 96.386719 109.68359 C 96.589699 109.15459 95.595922 105.82894 94.763672 104.25 C 94.315132 103.39897 93.512529 102.16443 92.980469 101.50781 L 92.013672 100.31445 z M 63.662109 100.49805 L 63.212891 101.02148 C 61.321308 103.23343 59.148987 109.04744 59.923828 109.82227 C 60.008508 109.90697 62.593012 109.97656 65.667969 109.97656 L 71.259766 109.97656 L 71.404297 109.25586 C 71.483675 108.85887 71.546875 107.92468 71.546875 107.17969 L 71.546875 105.82422 L 70.085938 105.16211 C 68.006523 104.21926 66.139483 102.97535 64.810547 101.64648 L 63.662109 100.49805 z M 142.2168 105.35742 C 147.10127 105.35742 149.27783 108.13643 148.66602 113.5918 C 148.37348 116.20049 147.30117 117.83107 145.33984 118.65039 C 144.42519 119.03247 141.36621 119.29838 140.48438 119.07227 C 138.36669 118.52936 137.1978 117.69254 136.41602 116.16016 C 135.8255 115.00274 135.52657 112.33436 135.7793 110.48633 C 136.25806 106.9856 138.3006 105.35742 142.2168 105.35742 z M 82.480469 106.12695 C 81.511543 106.16202 79.653507 106.42983 79.017578 106.67383 C 78.687397 106.80052 78.559477 109.52039 78.869141 109.83008 C 78.958111 109.91878 80.023342 109.96373 81.236328 109.92773 L 83.441406 109.86133 L 83.361328 108.12891 C 83.317558 107.1763 83.188697 106.29985 83.074219 106.17969 C 83.026868 106.12999 82.803444 106.11525 82.480469 106.12695 z M 73.234375 106.24805 L 73.09375 107.91992 C 73.01667 108.83931 73.006866 109.67935 73.072266 109.78516 C 73.137686 109.89097 74.068446 109.97656 75.140625 109.97656 L 77.089844 109.97656 L 77.089844 108.37305 C 77.089844 107.49139 77.013229 106.72542 76.917969 106.66992 C 76.822699 106.61472 75.953514 106.4962 74.988281 106.4082 L 73.234375 106.24805 z M 141.39453 107.93164 C 140.53268 107.94696 140.16839 108.06897 139.58203 108.41016 C 138.2891 109.16534 137.70673 110.3984 137.74023 112.31445 C 137.77273 114.17354 138.4064 115.45783 139.64453 116.17578 C 140.81038 116.85183 143.46985 116.86922 144.76367 116.20898 C 146.07368 115.54067 146.69241 114.24711 146.69336 112.17188 C 146.69409 110.29923 146.29866 109.35869 145.16602 108.55078 C 144.54374 108.10694 144.06722 108.00157 142.44727 107.94727 C 142.02254 107.93267 141.68181 107.92664 141.39453 107.93164 z M 59.769531 112.05469 L 59.769531 113.04688 C 59.769531 114.47359 60.348156 116.53971 61.28125 118.45117 C 62.241985 120.41915 64.543368 123.49171 64.003906 122.08594 C 63.702974 121.3017 67.322513 118.40121 70.044922 117.24414 L 71.546875 116.60547 L 71.546875 115.05273 C 71.546875 114.19855 71.483647 113.17428 71.404297 112.77734 L 71.259766 112.05469 L 65.513672 112.05469 L 59.769531 112.05469 z M 75.140625 112.05469 C 74.068445 112.05469 73.126455 112.16023 73.046875 112.28906 C 72.967285 112.41783 72.975213 113.36093 73.064453 114.38477 C 73.216495 116.12791 73.257637 116.23989 73.714844 116.12891 C 73.983415 116.06361 74.852605 115.93731 75.646484 115.84961 L 77.089844 115.69141 L 77.089844 113.87305 L 77.089844 112.05469 L 75.140625 112.05469 z M 90.960938 112.05469 C 87.919937 112.05469 85.383832 112.13322 85.326172 112.22852 C 85.268492 112.32382 85.148634 113.39463 85.058594 114.60742 L 84.894531 116.8125 L 86.361328 117.55664 C 88.198104 118.48916 90.773931 120.40414 91.59375 121.44727 L 92.216797 122.24023 L 93.050781 121.31055 C 93.509581 120.79928 94.266752 119.65765 94.732422 118.77148 C 95.619852 117.08269 96.490234 114.13875 96.490234 112.82617 L 96.490234 112.05469 L 90.960938 112.05469 z M 80.996094 112.10352 L 78.822266 112.16992 L 78.822266 113.89648 L 78.822266 115.62109 L 80.208984 115.88672 C 80.971106 116.03285 81.969762 116.16729 82.429688 116.18359 L 83.265625 116.21289 L 83.429688 114.33789 C 83.523242 113.26383 83.502425 112.37159 83.380859 112.25 C 83.264135 112.13332 82.191405 112.06672 80.996094 112.10352 z M 57.425781 114.94727 C 57.287956 114.90795 57.270636 116.32861 57.253906 121.08203 C 57.240706 124.83973 57.298162 127.98366 57.382812 128.06836 C 57.549778 128.23533 67.621094 128.28726 67.621094 128.12109 C 67.621094 128.06589 66.721609 127.43215 65.621094 126.71484 C 61.518707 124.04073 59.108731 120.64102 57.607422 115.4043 C 57.530648 115.13648 57.471721 114.96037 57.425781 114.94727 z M 98.240234 116.21289 C 98.186934 116.21289 97.968516 116.7589 97.753906 117.42578 C 96.519466 121.26153 93.862905 124.56727 90.023438 127.04883 C 89.213114 127.57259 88.500263 128.05053 88.439453 128.11133 C 88.378623 128.17231 90.581877 128.2207 93.333984 128.2207 L 98.337891 128.2207 L 98.337891 122.2168 C 98.337891 118.91428 98.293534 116.21289 98.240234 116.21289 z M 120.97266 116.32812 L 120.9707 122.27539 L 120.9707 128.2207 L 128.41797 128.2207 L 135.86719 128.2207 L 133.40625 127.00195 L 133.40625 126.99805 C 130.10467 125.36221 128.02021 123.71092 124.18945 119.69727 L 120.97266 116.32812 z M 162.77148 118.10352 L 159.82227 121.02734 C 156.59305 124.2272 154.20953 125.88632 150.96289 127.19531 C 149.95089 127.60336 149.05887 128.00178 148.98047 128.08008 C 148.90207 128.15851 151.9729 128.2207 155.80469 128.2207 L 162.77148 128.2207 L 162.77148 123.16211 L 162.77148 118.10352 z M 76.869141 118.36523 C 76.815554 118.34943 76.750875 118.35671 76.671875 118.37891 C 76.457193 118.43921 75.813779 118.55462 75.242188 118.63672 C 73.316756 118.91319 73.410731 118.78541 73.767578 120.6582 C 74.385778 123.90262 75.321597 126.26185 76.46875 127.4707 C 77.081505 128.11641 77.337349 128.2207 78.300781 128.2207 C 79.171549 128.2207 79.542512 128.10004 79.96875 127.67383 C 80.270256 127.37232 80.789297 126.5903 81.121094 125.93555 C 81.715779 124.76199 82.768429 121.14358 82.908203 119.79297 C 82.978083 119.11763 82.944381 119.09272 81.59375 118.82422 C 78.8241 118.27376 78.83139 118.27254 78.75 119.40234 C 78.68034 120.36966 78.659405 120.39547 77.943359 120.32617 C 77.253592 120.25947 77.201776 120.1913 77.134766 119.26172 C 77.091296 118.65902 77.029902 118.41273 76.869141 118.36523 z M 71.572266 119.67578 C 70.417408 119.67578 65.503772 123.44232 65.875 124.04297 C 66.119038 124.43775 68.880869 126.21391 70.046875 126.72656 C 71.009195 127.1496 74.392764 128.21305 74.490234 128.12305 C 74.521004 128.09435 74.194803 127.19512 73.765625 126.125 C 73.336438 125.05489 72.752833 123.16621 72.46875 121.92773 C 72.072033 120.19827 71.864856 119.67578 71.572266 119.67578 z M 84.708984 119.90039 C 84.662372 119.90379 84.625502 119.91555 84.601562 119.93945 C 84.549402 119.99175 84.298004 120.99162 84.042969 122.16016 C 83.787934 123.32869 83.306123 124.93542 82.972656 125.73242 C 82.248688 127.46281 82.078153 127.99023 82.236328 127.99023 C 82.301248 127.99023 83.066731 127.77244 83.9375 127.50586 C 85.791515 126.93827 88.230987 125.70861 89.341797 124.78125 L 90.125 124.12695 L 89.46875 123.26562 C 88.505892 122.00327 85.408134 119.84939 84.708984 119.90039 z M 49.552734 145.48047 C 53.909853 145.48047 58.073877 146.42867 62.044922 148.32227 L 58.707031 156.89648 C 57.21789 156.19787 55.729376 155.61276 54.240234 155.13477 C 52.751093 154.65677 51.151162 154.41602 49.441406 154.41602 C 46.849197 154.41602 44.827373 155.48263 43.375 157.61523 C 41.922627 159.72944 41.195313 162.65272 41.195312 166.38477 C 41.195312 174.14302 44.147415 178.02148 50.048828 178.02148 C 51.832121 178.02148 53.559436 177.77179 55.232422 177.27539 C 56.905408 176.77909 58.587926 176.18298 60.279297 175.48438 L 60.279297 184.69531 C 56.91494 186.18441 53.110093 186.92969 48.863281 186.92969 C 42.778023 186.92969 38.107566 185.16457 34.853516 181.63477 C 31.61785 178.10487 30 173.00167 30 166.32812 C 30 162.15485 30.78112 158.48814 32.34375 155.32617 C 33.924814 152.16405 36.185439 149.73825 39.126953 148.04688 C 42.086852 146.33711 45.563305 145.48242 49.552734 145.48242 L 49.552734 145.48047 z M 68.111328 146.06055 L 92.046875 146.06055 L 92.046875 154.80273 L 79.003906 154.80273 L 79.003906 161.14648 L 91.082031 161.14648 L 91.082031 169.88672 L 79.003906 169.88672 L 79.003906 177.49805 L 92.046875 177.49805 L 92.046875 186.37891 L 68.111328 186.37891 L 68.111328 146.06055 z M 99.107422 146.06055 L 110 146.06055 L 110 177.58203 L 125.52539 177.58203 L 125.52539 186.37891 L 99.107422 186.37891 L 99.107422 146.06055 z M 131.97852 146.06055 L 142.92578 146.06055 L 142.92578 186.37891 L 131.97852 186.37891 L 131.97852 146.06055 z M 151.61328 146.06055 L 165.84375 146.06055 L 180.51367 174.07812 L 180.67969 174.07812 C 180.42231 170.01513 180.29297 166.75257 180.29297 164.28906 L 180.29297 146.06055 L 190 146.06055 L 190 186.37891 L 175.71484 186.37891 L 160.99023 157.97461 L 160.74023 157.97461 C 161.08954 162.44204 161.26562 165.85179 161.26562 168.20508 L 161.26562 186.37891 L 151.61328 186.37891 L 151.61328 146.06055 z "
       transform="translate(0,832.36216)"
       id="rect4153" />
  </g>
</svg>
