<?xml version="1.0" encoding="UTF-8" standalone="no"?>
<!-- Created with Inkscape (http://www.inkscape.org/) -->

<svg
   xmlns:dc="http://purl.org/dc/elements/1.1/"
   xmlns:cc="http://creativecommons.org/ns#"
   xmlns:rdf="http://www.w3.org/1999/02/22-rdf-syntax-ns#"
   xmlns:svg="http://www.w3.org/2000/svg"
   xmlns="http://www.w3.org/2000/svg"
   xmlns:sodipodi="http://sodipodi.sourceforge.net/DTD/sodipodi-0.dtd"
   xmlns:inkscape="http://www.inkscape.org/namespaces/inkscape"
   width="220"
   height="220"
   viewBox="0 0 220 220"
   id="svg2"
   version="1.1"
   inkscape:version="0.91 r13725"
   sodipodi:docname="ufu_ic_ensinomedio.svg">
  <defs
     id="defs4" />
  <sodipodi:namedview
     id="base"
     pagecolor="#ffffff"
     bordercolor="#666666"
     borderopacity="1.0"
     inkscape:pageopacity="0.0"
     inkscape:pageshadow="2"
     inkscape:zoom="2.9590909"
     inkscape:cx="110"
     inkscape:cy="110"
     inkscape:document-units="px"
     inkscape:current-layer="layer1"
     showgrid="false"
     units="px"
     inkscape:window-width="1440"
     inkscape:window-height="847"
     inkscape:window-x="-8"
     inkscape:window-y="-8"
     inkscape:window-maximized="1" />
  <metadata
     id="metadata7">
    <rdf:RDF>
      <cc:Work
         rdf:about="">
        <dc:format>image/svg+xml</dc:format>
        <dc:type
           rdf:resource="http://purl.org/dc/dcmitype/StillImage" />
        <dc:title />
      </cc:Work>
    </rdf:RDF>
  </metadata>
  <g
     inkscape:label="Camada 1"
     inkscape:groupmode="layer"
     id="layer1"
     transform="translate(0,-832.3622)">
    <path
       style="color:#000000;clip-rule:nonzero;display:inline;overflow:visible;visibility:visible;opacity:1;isolation:auto;mix-blend-mode:normal;color-interpolation:sRGB;color-interpolation-filters:linearRGB;solid-color:#000000;solid-opacity:1;fill:#ffffff;fill-opacity:1;fill-rule:nonzero;stroke:none;stroke-width:5;stroke-linecap:square;stroke-linejoin:miter;stroke-miterlimit:4;stroke-dasharray:none;stroke-dashoffset:0;stroke-opacity:1;color-rendering:auto;image-rendering:auto;shape-rendering:auto;text-rendering:auto;enable-background:accumulate"
       d="M 0 0 L 0 220 L 220 220 L 220 0 L 0 0 z M 40.716797 30 L 179.2832 110 L 40.716797 190 L 40.716797 30 z M 61.501953 82.287109 L 61.501953 137.71289 L 70.740234 137.71289 L 86.367188 137.71289 L 89.714844 125.43359 L 103.99414 111.15234 L 103.99414 82.287109 L 70.740234 82.287109 L 61.501953 82.287109 z M 63.351562 84.134766 L 68.894531 84.134766 L 68.894531 135.86523 L 63.351562 135.86523 L 63.351562 84.134766 z M 75.359375 91.523438 L 97.529297 91.523438 L 97.529297 104.45703 L 75.359375 104.45703 L 75.359375 91.523438 z M 77.207031 93.371094 L 77.207031 102.60938 L 95.679688 102.60938 L 95.679688 93.371094 L 77.207031 93.371094 z M 79.978516 95.220703 L 92.910156 95.220703 L 92.910156 97.066406 L 79.978516 97.066406 L 79.978516 95.220703 z M 79.978516 98.914062 L 92.910156 98.914062 L 92.910156 100.76367 L 79.978516 100.76367 L 79.978516 98.914062 z M 108.36328 111.87305 C 107.64907 111.87305 106.93747 112.13374 106.41602 112.6543 L 92.197266 126.87109 L 90.240234 134.05859 L 89.757812 134.53711 C 89.399474 134.89553 89.398149 135.47279 89.751953 135.83398 L 89.75 135.85352 L 89.765625 135.84961 C 89.944825 136.02607 90.180346 136.11719 90.414062 136.11719 C 90.650543 136.11719 90.88432 136.02585 91.064453 135.8457 L 91.546875 135.36523 L 98.730469 133.4043 L 112.94922 119.1875 C 114.02312 118.11132 114.0215 116.36432 112.94531 115.28906 L 110.31055 112.6543 C 109.78954 112.13377 109.07746 111.87305 108.36328 111.87305 z M 108.36328 113.70312 C 108.59918 113.70312 108.836 113.78964 109.00781 113.96094 L 111.64062 116.5918 C 111.99536 116.94563 111.99629 117.52613 111.64062 117.88086 L 109.01562 120.50391 L 105.0957 116.58594 L 107.71875 113.96094 C 107.89102 113.78875 108.12737 113.70312 108.36328 113.70312 z M 103.79102 117.88867 L 107.71094 121.81055 L 98.25 131.27344 L 94.330078 127.35156 L 103.79102 117.88867 z M 93.494141 129.13281 L 96.46875 132.10547 L 92.378906 133.2207 L 93.494141 129.13281 z M 121.08789 154.44531 C 124.39706 154.44531 127.70727 155.70344 130.22656 158.22266 C 134.42793 162.42416 135.12559 168.82446 132.32031 173.75586 L 142.72656 184.16211 C 144.06039 185.49601 144.06031 187.6662 142.72656 189 C 141.39299 190.3335 139.22233 190.3335 137.88867 189 L 127.48047 178.5918 C 122.54906 181.3972 116.15058 180.69965 111.94922 176.49805 C 106.91071 171.45955 106.9108 163.26116 111.94922 158.22266 C 114.46842 155.70344 117.77873 154.44531 121.08789 154.44531 z M 158.51562 154.44531 L 159.36133 154.44531 L 168.87109 154.44531 L 169.79688 154.44531 C 170.2065 154.44531 170.53906 154.7747 170.53906 155.18359 L 170.53906 156.68164 C 170.53906 157.09133 170.2065 157.42383 169.79688 157.42383 L 168.87109 157.42383 L 168.87109 166.31641 L 178.22266 183.83398 C 180.4871 187.23978 179.00638 190 174.91602 190 L 154.17773 190 C 150.08663 190 148.55392 187.20671 150.75391 183.75781 L 159.36133 166.31836 L 159.36133 157.42383 L 158.51562 157.42383 C 158.10599 157.42383 157.77344 157.09134 157.77344 156.68164 L 157.77344 155.18359 C 157.77343 154.7747 158.106 154.44531 158.51562 154.44531 z M 162.32422 157.42383 L 162.32422 166.31836 L 162.32422 167.00781 L 162.01758 167.62891 L 158.27344 175.21875 L 170.26562 175.21875 L 166.25781 167.71289 L 165.9082 167.05859 L 165.9082 166.31836 L 165.9082 157.42383 L 162.32422 157.42383 z M 121.08789 158.08203 C 118.71089 158.08203 116.33308 158.98532 114.52344 160.79492 C 110.90422 164.41402 110.90422 170.30463 114.52344 173.92383 C 118.14273 177.54313 124.03117 177.54313 127.65039 173.92383 C 131.2696 170.30473 131.26969 164.41402 127.65039 160.79492 C 125.84078 158.98532 123.4649 158.08203 121.08789 158.08203 z "
       transform="translate(0,832.3622)"
       id="rect5657" />
    <g
       id="g4263"
       transform="matrix(0.66666667,0,0,0.66666667,13.854,892.06317)">
      <g
         id="g4219" />
      <g
         id="g4227" />
      <g
         id="g4229" />
      <g
         id="g4231" />
      <g
         id="g4233" />
      <g
         id="g4235" />
      <g
         id="g4237" />
      <g
         id="g4239" />
      <g
         id="g4241" />
      <g
         id="g4243" />
      <g
         id="g4245" />
      <g
         id="g4247" />
      <g
         id="g4249" />
      <g
         id="g4251" />
      <g
         id="g4253" />
      <g
         id="g4255" />
    </g>
  </g>
</svg>
