<?xml version="1.0" encoding="UTF-8" standalone="no"?>
<!-- Created with Inkscape (http://www.inkscape.org/) -->

<svg
   xmlns:dc="http://purl.org/dc/elements/1.1/"
   xmlns:cc="http://creativecommons.org/ns#"
   xmlns:rdf="http://www.w3.org/1999/02/22-rdf-syntax-ns#"
   xmlns:svg="http://www.w3.org/2000/svg"
   xmlns="http://www.w3.org/2000/svg"
   xmlns:sodipodi="http://sodipodi.sourceforge.net/DTD/sodipodi-0.dtd"
   xmlns:inkscape="http://www.inkscape.org/namespaces/inkscape"
   width="220"
   height="220"
   viewBox="0 0 220 220"
   id="svg2"
   version="1.1"
   inkscape:version="0.91 r13725"
   sodipodi:docname="ufu_anuario.svg">
  <defs
     id="defs4" />
  <sodipodi:namedview
     id="base"
     pagecolor="#ffffff"
     bordercolor="#666666"
     borderopacity="1.0"
     inkscape:pageopacity="0.0"
     inkscape:pageshadow="2"
     inkscape:zoom="2.9590909"
     inkscape:cx="123.51767"
     inkscape:cy="110"
     inkscape:document-units="px"
     inkscape:current-layer="layer1"
     showgrid="false"
     units="px"
     showguides="true"
     inkscape:guide-bbox="true"
     inkscape:window-width="1600"
     inkscape:window-height="847"
     inkscape:window-x="1432"
     inkscape:window-y="-8"
     inkscape:window-maximized="1" />
  <metadata
     id="metadata7">
    <rdf:RDF>
      <cc:Work
         rdf:about="">
        <dc:format>image/svg+xml</dc:format>
        <dc:type
           rdf:resource="http://purl.org/dc/dcmitype/StillImage" />
        <dc:title></dc:title>
      </cc:Work>
    </rdf:RDF>
  </metadata>
  <g
     inkscape:label="Camada 1"
     inkscape:groupmode="layer"
     id="layer1"
     transform="translate(0,-832.36216)">
    <path
       style="color:#000000;clip-rule:nonzero;display:inline;overflow:visible;visibility:visible;opacity:1;isolation:auto;mix-blend-mode:normal;color-interpolation:sRGB;color-interpolation-filters:linearRGB;solid-color:#000000;solid-opacity:1;fill:#ffffff;fill-opacity:1;fill-rule:nonzero;stroke:none;stroke-width:5;stroke-linecap:square;stroke-linejoin:miter;stroke-miterlimit:4;stroke-dasharray:none;stroke-dashoffset:0;stroke-opacity:1;color-rendering:auto;image-rendering:auto;shape-rendering:auto;text-rendering:auto;enable-background:accumulate"
       d="m 0,832.36223 0,219.99997 220,0 0,-219.99997 -220,0 z m 48.124998,20 123.750002,0 0,146.24993 -123.750002,0 c -6.212808,0 -11.249998,5.03164 -11.249998,11.25004 0,6.2185 5.03719,11.25 11.249998,11.25 l 135.000002,0 0,-146.24997 11.25,0 0,157.49997 -146.250002,0 c -12.425618,0 -22.499998,-10.0743 -22.499998,-22.5 l 0,-134.99997 c 0,-12.42562 10.07438,-22.5 22.499998,-22.5 z m 34.94727,27.63867 0,52.96485 3.58008,3.58007 19.707032,0 3.61328,-3.61328 0,-30.24609 6.15625,-6.15625 16.63086,0 -16.59571,-16.5293 -33.091792,0 z m -8.56446,8.56641 -14.85742,14.85547 0,33.1914 23.35547,23.38672 10.33789,0 23.957032,-23.95703 0,-30.27929 2.3418,-2.3418 20.00781,0 -3.47851,-3.41406 -18.23438,0 -4.25,4.2832 0,29.91211 -10.97461,10.97461 -19.640622,0 -8.56446,-8.56446 0,-48.04687 z m 46.875002,18.30078 -0.63476,0.63672 0,29.94531 -22.519532,22.51758 0.0351,0.0332 17.832032,0 23.42188,-23.45508 0,-29.67773 -18.13477,0 z"
       id="rect3427"
       inkscape:connector-curvature="0" />
    <g
       id="g3377"
       transform="matrix(0.3515625,0,0,0.3515625,20,852.36216)">
      <g
         id="g3337" />
      <g
         id="g3341" />
      <g
         id="g3343" />
      <g
         id="g3345" />
      <g
         id="g3347" />
      <g
         id="g3349" />
      <g
         id="g3351" />
      <g
         id="g3353" />
      <g
         id="g3355" />
      <g
         id="g3357" />
      <g
         id="g3359" />
      <g
         id="g3361" />
      <g
         id="g3363" />
      <g
         id="g3365" />
      <g
         id="g3367" />
      <g
         id="g3369" />
    </g>
    <g
       transform="matrix(1.388889,0,0,1.388889,49.175151,-527.31813)"
       id="layer1-9"
       inkscape:label="Camada 1">
      <g
         style="fill:#ffffff"
         transform="matrix(0.1198986,0,0,0.11999989,0,926.07885)"
         id="g3360" />
      <g
         style="font-style:normal;font-variant:normal;font-weight:normal;font-stretch:normal;font-size:15px;line-height:125%;font-family:'Open Sans';-inkscape-font-specification:'Open Sans, Normal';text-align:start;letter-spacing:0px;word-spacing:0px;writing-mode:lr-tb;text-anchor:start;fill:#000000;fill-opacity:1;stroke:none;stroke-width:1px;stroke-linecap:butt;stroke-linejoin:miter;stroke-opacity:1"
         id="text3356" />
    </g>
  </g>
</svg>
