<?xml version="1.0" encoding="UTF-8" standalone="no"?>
<!-- Created with Inkscape (http://www.inkscape.org/) -->

<svg
   xmlns:dc="http://purl.org/dc/elements/1.1/"
   xmlns:cc="http://creativecommons.org/ns#"
   xmlns:rdf="http://www.w3.org/1999/02/22-rdf-syntax-ns#"
   xmlns:svg="http://www.w3.org/2000/svg"
   xmlns="http://www.w3.org/2000/svg"
   xmlns:sodipodi="http://sodipodi.sourceforge.net/DTD/sodipodi-0.dtd"
   xmlns:inkscape="http://www.inkscape.org/namespaces/inkscape"
   width="220"
   height="220"
   viewBox="0 0 220 220"
   id="svg2"
   version="1.1"
   inkscape:version="0.91 r13725"
   sodipodi:docname="ufu_cepes.svg">
  <defs
     id="defs4" />
  <sodipodi:namedview
     id="base"
     pagecolor="#ffffff"
     bordercolor="#666666"
     borderopacity="1.0"
     inkscape:pageopacity="0.0"
     inkscape:pageshadow="2"
     inkscape:zoom="2.9590909"
     inkscape:cx="143.28725"
     inkscape:cy="110"
     inkscape:document-units="px"
     inkscape:current-layer="layer1"
     showgrid="false"
     units="px"
     inkscape:window-width="1440"
     inkscape:window-height="847"
     inkscape:window-x="-8"
     inkscape:window-y="-8"
     inkscape:window-maximized="1" />
  <metadata
     id="metadata7">
    <rdf:RDF>
      <cc:Work
         rdf:about="">
        <dc:format>image/svg+xml</dc:format>
        <dc:type
           rdf:resource="http://purl.org/dc/dcmitype/StillImage" />
        <dc:title></dc:title>
      </cc:Work>
    </rdf:RDF>
  </metadata>
  <g
     inkscape:label="Camada 1"
     inkscape:groupmode="layer"
     id="layer1"
     transform="translate(0,-832.36216)">
    <path
       style="color:#000000;clip-rule:nonzero;display:inline;overflow:visible;visibility:visible;opacity:1;isolation:auto;mix-blend-mode:normal;color-interpolation:sRGB;color-interpolation-filters:linearRGB;solid-color:#000000;solid-opacity:1;fill:#ffffff;fill-opacity:1;fill-rule:nonzero;stroke:none;stroke-width:5;stroke-linecap:square;stroke-linejoin:miter;stroke-miterlimit:4;stroke-dasharray:none;stroke-dashoffset:0;stroke-opacity:1;color-rendering:auto;image-rendering:auto;shape-rendering:auto;text-rendering:auto;enable-background:accumulate"
       d="M 0 0 L 0 220 L 220 220 L 220 0 L 0 0 z M 53.023438 63.152344 C 57.053222 63.152344 59.925315 63.956236 61.638672 65.566406 C 63.367528 67.176576 64.278004 69.531729 64.371094 72.630859 L 55.142578 73.955078 C 55.152066 72.777758 54.857535 71.895311 54.257812 71.306641 C 53.677831 70.700671 52.767277 70.396484 51.527344 70.396484 C 49.961928 70.396484 48.536132 71.029079 47.25 72.292969 C 45.983609 73.539549 45.039627 75.435369 44.416016 77.980469 C 43.86028 80.248559 43.917369 81.971117 44.589844 83.148438 C 45.262319 84.325767 46.344111 84.914062 47.832031 84.914062 C 49.071965 84.914062 50.196144 84.559469 51.207031 83.849609 C 52.233418 83.139749 53.136946 82.049785 53.916016 80.578125 L 62.632812 81.720703 C 61.623525 83.815643 60.364469 85.632918 58.855469 87.173828 C 57.350711 88.697428 55.611494 89.884052 53.636719 90.732422 C 51.677442 91.580782 49.34126 92.003906 46.628906 92.003906 C 44.009547 92.003906 41.889427 91.735939 40.269531 91.199219 C 38.669377 90.645189 37.390115 89.762741 36.431641 88.550781 C 35.477408 87.321521 34.845104 85.885024 34.535156 84.240234 C 34.225209 82.595434 34.404277 80.413542 35.070312 77.695312 C 35.766042 74.855873 36.779016 72.492659 38.109375 70.605469 C 39.084221 69.220379 40.255344 67.981385 41.623047 66.890625 C 42.994992 65.782555 44.327146 64.960548 45.621094 64.423828 C 47.673365 63.575458 50.140592 63.152344 53.023438 63.152344 z M 84.339844 63.152344 C 87.873654 63.152344 90.51831 63.748719 92.271484 64.943359 C 94.024659 66.137999 95.158168 67.870582 95.671875 70.138672 C 96.185582 72.406752 95.996342 75.358281 95.105469 78.994141 L 94.8125 80.1875 L 75.841797 80.1875 C 75.596547 81.88424 75.697195 83.149419 76.144531 83.980469 C 76.766266 85.175109 77.812735 85.771484 79.285156 85.771484 C 80.215106 85.771484 81.16273 85.511597 82.126953 84.992188 C 82.719028 84.663227 83.412482 84.083003 84.205078 83.251953 L 93.291016 84.212891 C 91.186331 86.983071 88.977865 88.97555 86.666016 90.1875 C 84.358408 91.38214 81.322938 91.978516 77.556641 91.978516 C 74.286316 91.978516 71.837997 91.468766 70.212891 90.447266 C 68.592027 89.408446 67.434871 87.772512 66.742188 85.539062 C 66.069248 83.288293 66.103308 80.647068 66.845703 77.617188 C 67.902025 73.306097 69.989747 69.816691 73.107422 67.150391 C 76.240596 64.484101 79.984578 63.152344 84.339844 63.152344 z M 120.23438 63.152344 C 123.53571 63.152344 125.74125 64.562646 126.84766 67.384766 C 127.96958 70.206886 128.02205 73.696293 127.00391 77.851562 C 125.87971 82.439662 124.03497 85.945241 121.47266 88.369141 C 118.9146 90.775741 116.13379 91.978516 113.12695 91.978516 C 111.67003 91.978516 110.40521 91.702477 109.33203 91.148438 C 108.27434 90.594407 107.40671 89.770448 106.72852 88.679688 L 103.50195 101.84766 L 93.945312 101.84766 L 103.27539 63.775391 L 112.13281 63.775391 L 111.13281 67.851562 C 112.77723 66.137512 114.18599 64.979027 115.35742 64.373047 C 116.93623 63.559307 118.56046 63.152344 120.23438 63.152344 z M 147.94727 63.152344 C 151.48108 63.152344 154.12574 63.748719 155.87891 64.943359 C 157.63209 66.137999 158.76363 67.870582 159.27734 70.138672 C 159.79105 72.406752 159.60571 75.358281 158.71484 78.994141 L 158.42188 80.1875 L 139.45117 80.1875 C 139.20592 81.88424 139.30657 83.149419 139.75391 83.980469 C 140.37565 85.175109 141.42211 85.771484 142.89453 85.771484 C 143.82448 85.771484 144.77015 85.511597 145.73438 84.992188 C 146.32645 84.663227 147.01796 84.083003 147.81055 83.251953 L 156.90039 84.212891 C 154.7957 86.983071 152.58724 88.97555 150.27539 90.1875 C 147.96778 91.38214 144.93036 91.978516 141.16406 91.978516 C 137.89373 91.978516 135.44738 91.468766 133.82227 90.447266 C 132.20141 89.408446 131.04424 87.772512 130.35156 85.539062 C 129.67862 83.288293 129.71073 80.647068 130.45312 77.617188 C 131.50945 73.306097 133.59717 69.816691 136.71484 67.150391 C 139.84802 64.484101 143.59201 63.152344 147.94727 63.152344 z M 178.35742 63.152344 C 181.30226 63.152344 183.41169 63.402207 184.68359 63.904297 C 185.97099 64.406397 186.94992 65.186057 187.62109 66.242188 C 188.30776 67.298318 188.74114 68.726724 188.91992 70.527344 L 179.70312 71.513672 C 179.687 70.630672 179.45629 69.981936 179.01562 69.566406 C 178.40742 69.012366 177.57933 68.734375 176.52539 68.734375 C 175.45594 68.734375 174.61766 68.951926 174.01562 69.384766 C 173.43334 69.800296 173.07036 70.310036 172.92188 70.916016 C 172.75642 71.591246 172.94144 72.102949 173.47656 72.449219 C 174.01168 72.795489 175.28201 73.107746 177.29102 73.384766 C 180.33978 73.782976 182.54576 74.337015 183.90625 75.046875 C 185.26673 75.756735 186.18832 76.768144 186.67188 78.083984 C 187.17092 79.399814 187.22589 80.846335 186.83984 82.421875 C 186.44955 84.014725 185.63742 85.564022 184.40039 87.070312 C 183.17886 88.576593 181.52777 89.779378 179.44727 90.679688 C 177.38651 91.562687 174.75924 92.003906 171.56641 92.003906 C 167.05616 92.003906 164.01706 91.286639 162.44727 89.849609 C 160.89298 88.412579 160.16879 86.369683 160.27539 83.720703 L 169.91016 82.734375 C 169.9922 83.980955 170.31685 84.871473 170.88281 85.408203 C 171.44876 85.944923 172.31023 86.212891 173.47266 86.212891 C 174.7436 86.212891 175.80444 85.910668 176.65039 85.304688 C 177.30316 84.854537 177.7115 84.292418 177.87695 83.617188 C 178.06361 82.855388 177.85138 82.265139 177.24023 81.849609 C 176.80088 81.555279 175.53427 81.192606 173.43945 80.759766 C 170.31059 80.119166 168.16859 79.530871 167.01367 78.994141 C 165.87849 78.440111 165.02817 77.513364 164.46289 76.214844 C 163.9131 74.916324 163.8408 73.435547 164.24805 71.773438 C 164.69349 69.955507 165.54855 68.388096 166.81641 67.072266 C 168.08427 65.756426 169.62604 64.779272 171.44141 64.138672 C 173.26103 63.480752 175.56757 63.152344 178.35742 63.152344 z M 83.201172 69.410156 C 81.697753 69.410156 80.33498 70.077006 79.109375 71.410156 C 78.332278 72.241206 77.663475 73.48021 77.105469 75.125 L 86.427734 75.125 C 86.742331 73.082 86.605227 71.617365 86.015625 70.734375 C 85.441523 69.851375 84.503102 69.410156 83.201172 69.410156 z M 146.80859 69.410156 C 145.30517 69.410156 143.94045 70.077006 142.71484 71.410156 C 141.93774 72.241206 141.27284 73.48021 140.71484 75.125 L 150.03516 75.125 C 150.34976 73.082 150.21266 71.617365 149.62305 70.734375 C 149.04895 69.851375 148.11052 69.410156 146.80859 69.410156 z M 115.24023 70.916016 C 114.0313 70.916016 112.89481 71.445823 111.83008 72.501953 C 110.76534 73.558083 109.94057 75.270618 109.35938 77.642578 C 108.82488 79.824098 108.83966 81.44387 109.40234 82.5 C 109.96502 83.55613 110.87348 84.083984 112.12891 84.083984 C 113.22936 84.083984 114.27562 83.582315 115.26562 82.578125 C 116.25989 81.556625 117.05452 79.834066 117.64844 77.410156 C 118.19573 75.176696 118.20987 73.540763 117.68945 72.501953 C 117.17327 71.445823 116.35617 70.916016 115.24023 70.916016 z M 92.078125 117.49219 L 94.802734 117.49219 L 94.802734 132.17969 L 92.345703 132.17969 L 92.220703 131.12695 C 91.666144 131.9556 90.95335 132.37109 90.080078 132.37109 C 88.996456 132.37109 88.167432 131.9556 87.59375 131.12695 C 87.026442 130.29829 86.737359 129.08092 86.724609 127.47461 L 86.724609 126.69141 C 86.724609 124.99586 87.010302 123.72955 87.583984 122.89453 C 88.157667 122.0595 88.993473 121.64258 90.089844 121.64258 C 90.886625 121.64258 91.549062 121.98737 92.078125 122.67578 L 92.078125 117.49219 z M 160.84375 117.72266 C 161.28994 117.72266 161.64634 117.85729 161.91406 118.125 C 162.18178 118.39272 162.31641 118.73555 162.31641 119.15625 C 162.31641 119.57058 162.18178 119.91535 161.91406 120.18945 C 161.65271 120.46354 161.29632 120.59961 160.84375 120.59961 C 160.39117 120.59961 160.03139 120.46354 159.76367 120.18945 C 159.50232 119.91535 159.37109 119.57058 159.37109 119.15625 C 159.37109 118.73555 159.50376 118.39272 159.77148 118.125 C 160.0392 117.85729 160.39755 117.72266 160.84375 117.72266 z M 35.273438 118.06641 C 36.790509 118.06641 37.940577 118.49012 38.724609 119.33789 C 39.515016 120.18567 39.965857 121.40304 40.074219 122.99023 L 37.253906 122.99023 C 37.228409 122.00859 37.075389 121.3326 36.794922 120.96289 C 36.520829 120.58681 36.01285 120.40039 35.273438 120.40039 C 34.521276 120.40039 33.990073 120.6643 33.677734 121.19336 C 33.365396 121.71605 33.198808 122.58043 33.179688 123.78516 L 33.179688 126.41406 C 33.179688 127.79727 33.332708 128.74735 33.638672 129.26367 C 33.95101 129.77998 34.484167 130.03711 35.236328 130.03711 C 35.975741 130.03711 36.485158 129.8589 36.765625 129.50195 C 37.046092 129.13861 37.205891 128.48636 37.244141 127.54297 L 40.054688 127.54297 C 39.984572 129.13016 39.539075 130.33057 38.716797 131.14648 C 37.894519 131.96238 36.734276 132.37109 35.236328 132.37109 C 33.661889 132.37109 32.452729 131.8549 31.611328 130.82227 C 30.776302 129.78327 30.359375 128.30342 30.359375 126.38477 L 30.359375 124.04297 C 30.359375 122.1307 30.793259 120.65763 31.660156 119.625 C 32.527054 118.586 33.730869 118.06641 35.273438 118.06641 z M 110.81641 118.25781 L 115.55859 118.25781 C 116.93543 118.25781 118.03176 118.68491 118.84766 119.53906 C 119.66994 120.39321 120.08398 121.5031 120.08398 122.86719 C 120.08398 124.23128 119.67867 125.30725 118.86914 126.09766 C 118.05961 126.88807 116.93812 127.2832 115.50391 127.2832 L 113.62891 127.2832 L 113.62891 132.17969 L 110.81641 132.17969 L 110.81641 118.25781 z M 61.099609 119.29102 L 63.804688 119.29102 L 63.804688 121.83398 L 65.191406 121.83398 L 65.191406 123.87109 L 63.804688 123.87109 L 63.804688 129.00586 C 63.804687 129.41381 63.858435 129.69271 63.966797 129.8457 C 64.081533 129.99867 64.298475 130.07617 64.617188 130.07617 C 64.878532 130.07617 65.092082 130.05437 65.257812 130.00977 L 65.240234 132.11328 C 64.781289 132.2854 64.283484 132.37109 63.748047 132.37109 C 62.001503 132.37109 61.118729 131.37066 61.099609 129.36914 L 61.099609 123.87109 L 59.904297 123.87109 L 59.904297 121.83398 L 61.099609 121.83398 L 61.099609 119.29102 z M 113.62891 120.59961 L 113.62891 124.94141 L 115.55859 124.94141 C 116.09403 124.94141 116.50952 124.7666 116.80273 124.41602 C 117.09595 124.06544 117.24414 123.55407 117.24414 122.88477 C 117.24414 122.18998 117.09451 121.64037 116.79492 121.23242 C 116.49533 120.81809 116.0934 120.60561 115.58984 120.59961 L 113.62891 120.59961 z M 45.552734 121.64258 C 46.853081 121.64258 47.831734 122.0595 48.488281 122.89453 C 49.144829 123.72318 49.479438 124.95413 49.492188 126.58594 L 49.492188 127.91406 L 44.109375 127.91406 C 44.14762 128.67897 44.315645 129.2407 44.615234 129.59766 C 44.914824 129.94824 45.377277 130.12305 46.001953 130.12305 C 46.907096 130.12305 47.662025 129.81361 48.267578 129.19531 L 49.330078 130.83203 C 48.998617 131.29097 48.515816 131.66238 47.884766 131.94922 C 47.253715 132.22969 46.569491 132.37109 45.830078 132.37109 C 44.440492 132.37109 43.355783 131.9556 42.578125 131.12695 C 41.800467 130.29829 41.412109 129.11287 41.412109 127.57031 L 41.412109 126.74805 C 41.412109 125.11624 41.768506 123.85868 42.482422 122.97266 C 43.196338 122.08664 44.220517 121.64258 45.552734 121.64258 z M 55.974609 121.64258 C 57.753025 121.64258 58.66776 122.88853 58.71875 125.38086 L 58.71875 132.17969 L 56.003906 132.17969 L 56.003906 125.58203 C 56.003906 124.99559 55.912854 124.57189 55.734375 124.31055 C 55.56227 124.04283 55.256229 123.9082 54.816406 123.9082 C 54.325589 123.9082 53.944015 124.16049 53.669922 124.66406 L 53.669922 132.17969 L 50.955078 132.17969 L 50.955078 121.83398 L 53.498047 121.83398 L 53.574219 122.85742 C 54.186147 122.04789 54.986601 121.64258 55.974609 121.64258 z M 71.052734 121.64258 C 71.358698 121.64258 71.607601 121.68468 71.798828 121.76758 L 71.769531 124.44336 L 70.871094 124.36719 C 70.131681 124.36719 69.630485 124.69358 69.369141 125.34375 L 69.369141 132.17969 L 66.654297 132.17969 L 66.654297 121.83398 L 69.207031 121.83398 L 69.283203 122.95312 C 69.710278 122.07985 70.300573 121.64258 71.052734 121.64258 z M 76.683594 121.64258 C 78.003063 121.64258 79.034025 122.08808 79.773438 122.98047 C 80.51285 123.87287 80.880859 125.1106 80.880859 126.69141 L 80.880859 127.35156 C 80.880859 128.926 80.514289 130.155 79.78125 131.04102 C 79.048211 131.92704 78.022594 132.37109 76.703125 132.37109 C 75.377281 132.37109 74.344882 131.92704 73.605469 131.04102 C 72.87243 130.14862 72.505859 128.91284 72.505859 127.33203 L 72.505859 126.67188 C 72.505859 125.1038 72.875822 123.87287 73.615234 122.98047 C 74.354647 122.08808 75.376873 121.64258 76.683594 121.64258 z M 100.70312 121.64258 C 102.00347 121.64258 102.98212 122.0595 103.63867 122.89453 C 104.29521 123.72318 104.62793 124.95413 104.64062 126.58594 L 104.64062 127.91406 L 99.257812 127.91406 C 99.296058 128.67897 99.466035 129.2407 99.765625 129.59766 C 100.06522 129.94824 100.52766 130.12305 101.15234 130.12305 C 102.05748 130.12305 102.81047 129.81361 103.41602 129.19531 L 104.47852 130.83203 C 104.14706 131.29097 103.66621 131.66238 103.03516 131.94922 C 102.40411 132.22969 101.71794 132.37109 100.97852 132.37109 C 99.588934 132.37109 98.506174 131.9556 97.728516 131.12695 C 96.950857 130.29829 96.5625 129.11287 96.5625 127.57031 L 96.5625 126.74805 C 96.5625 125.11624 96.918897 123.85868 97.632812 122.97266 C 98.346728 122.08664 99.370907 121.64258 100.70312 121.64258 z M 125.59766 121.64258 C 126.89801 121.64258 127.87861 122.0595 128.53516 122.89453 C 129.19171 123.72318 129.52636 124.95413 129.53906 126.58594 L 129.53906 127.91406 L 124.15625 127.91406 C 124.19449 128.67897 124.36447 129.2407 124.66406 129.59766 C 124.96365 129.94824 125.42221 130.12305 126.04688 130.12305 C 126.95202 130.12305 127.71086 129.81361 128.31641 129.19531 L 129.37695 130.83203 C 129.04549 131.29097 128.56464 131.66238 127.93359 131.94922 C 127.30254 132.22969 126.61636 132.37109 125.87695 132.37109 C 124.48736 132.37109 123.40461 131.9556 122.62695 131.12695 C 121.84929 130.29829 121.45898 129.11287 121.45898 127.57031 L 121.45898 126.74805 C 121.45898 125.11624 121.81733 123.85868 122.53125 122.97266 C 123.24516 122.08664 124.26545 121.64258 125.59766 121.64258 z M 134.50195 121.64258 C 135.63656 121.64258 136.54451 121.93505 137.22656 122.52148 C 137.9086 123.10791 138.24805 123.89676 138.24805 124.88477 L 135.54492 124.88477 C 135.54492 124.04337 135.1914 123.62109 134.49023 123.62109 C 134.20339 123.62109 133.97001 123.71019 133.78516 123.88867 C 133.60032 124.06714 133.50781 124.31606 133.50781 124.63477 C 133.50781 124.86424 133.60658 125.06957 133.81055 125.24805 C 134.01453 125.42016 134.49927 125.6671 135.25781 125.99219 C 136.36055 126.40014 137.13727 126.85777 137.58984 127.36133 C 138.04878 127.85852 138.27734 128.504 138.27734 129.30078 C 138.27734 130.22505 137.92917 130.96837 137.23438 131.5293 C 136.53958 132.09023 135.63019 132.37109 134.50195 132.37109 C 133.74341 132.37109 133.07419 132.22486 132.49414 131.93164 C 131.91408 131.63205 131.45841 131.21657 131.12695 130.6875 C 130.80186 130.15844 130.63867 129.58848 130.63867 128.97656 L 133.20898 128.97656 C 133.22173 129.44825 133.33119 129.80127 133.53516 130.03711 C 133.74551 130.27296 134.08689 130.39062 134.55859 130.39062 C 135.28525 130.39062 135.64648 130.0628 135.64648 129.40625 C 135.64648 129.17678 135.53755 128.96662 135.31445 128.77539 C 135.09772 128.57779 134.61009 128.31388 133.85156 127.98242 C 132.73606 127.52984 131.96758 127.06061 131.54688 126.57617 C 131.13254 126.09172 130.92578 125.48982 130.92578 124.76953 C 130.92578 123.86438 131.25021 123.11768 131.90039 122.53125 C 132.55693 121.93845 133.4247 121.64258 134.50195 121.64258 z M 142.99023 121.64258 C 143.89538 121.64258 144.6169 122.05129 145.15234 122.86719 L 145.32617 121.83398 L 147.68555 121.83398 L 147.68555 136.15625 L 144.9707 136.15625 L 144.9707 131.37695 C 144.46713 132.03987 143.80469 132.37109 142.98242 132.37109 C 141.89242 132.37109 141.05806 131.95078 140.48438 131.10938 C 139.91707 130.26159 139.62793 129.04227 139.61523 127.45508 L 139.61523 126.67188 C 139.61523 124.97632 139.90144 123.71342 140.46875 122.88477 C 141.03605 122.05612 141.87474 121.64258 142.99023 121.64258 z M 167.73438 121.64258 C 168.86899 121.64258 169.78084 121.93505 170.46289 122.52148 C 171.14493 123.10791 171.48438 123.89676 171.48438 124.88477 L 168.77734 124.88477 C 168.77734 124.04337 168.42969 123.62109 167.72852 123.62109 C 167.44168 123.62109 167.20438 123.71019 167.01953 123.88867 C 166.83468 124.06714 166.74023 124.31606 166.74023 124.63477 C 166.74023 124.86424 166.84291 125.06957 167.04688 125.24805 C 167.25085 125.42016 167.7317 125.6671 168.49023 125.99219 C 169.59298 126.40014 170.3736 126.85777 170.82617 127.36133 C 171.28511 127.85852 171.51367 128.504 171.51367 129.30078 C 171.51367 130.22505 171.16745 130.96837 170.47266 131.5293 C 169.77787 132.09023 168.86263 132.37109 167.73438 132.37109 C 166.97584 132.37109 166.30858 132.22486 165.72852 131.93164 C 165.14846 131.63205 164.69083 131.21657 164.35938 130.6875 C 164.03429 130.15844 163.87305 129.58848 163.87305 128.97656 L 166.44727 128.97656 C 166.46002 129.44825 166.5675 129.80127 166.77148 130.03711 C 166.98183 130.27296 167.32322 130.39062 167.79492 130.39062 C 168.52158 130.39062 168.88477 130.0628 168.88477 129.40625 C 168.88477 129.17678 168.77387 128.96662 168.55078 128.77539 C 168.33405 128.57779 167.84642 128.31388 167.08789 127.98242 C 165.97239 127.52984 165.2039 127.06061 164.7832 126.57617 C 164.36887 126.09172 164.16016 125.48982 164.16016 124.76953 C 164.16016 123.86438 164.4846 123.11768 165.13477 122.53125 C 165.79132 121.93845 166.65714 121.64258 167.73438 121.64258 z M 176.90625 121.64258 C 178.04086 121.64258 178.91686 121.93845 179.53516 122.53125 C 180.15984 123.11768 180.47266 123.96027 180.47266 125.05664 L 180.47266 129.92383 C 180.48541 130.81623 180.6113 131.51402 180.85352 132.01758 L 180.85352 132.17969 L 178.12891 132.17969 C 178.05242 132.02034 177.97689 131.75303 177.90039 131.37695 C 177.41594 132.03987 176.76029 132.37109 175.93164 132.37109 C 175.06474 132.37109 174.34321 132.08345 173.76953 131.50977 C 173.20222 130.93609 172.91992 130.19471 172.91992 129.2832 C 172.91992 128.19957 173.26275 127.36039 173.95117 126.76758 C 174.64596 126.17478 175.64496 125.87207 176.94531 125.85938 L 177.76562 125.85938 L 177.76562 125.02734 C 177.76563 124.56202 177.68669 124.2342 177.52734 124.04297 C 177.36798 123.85176 177.1341 123.75586 176.82812 123.75586 C 176.15246 123.75586 175.81641 124.151 175.81641 124.94141 L 173.10938 124.94141 C 173.10937 123.98527 173.46772 123.19838 174.18164 122.58008 C 174.90193 121.95541 175.80987 121.64258 176.90625 121.64258 z M 185.86523 121.64258 C 186.99985 121.64258 187.90779 121.93505 188.58984 122.52148 C 189.27188 123.10791 189.61328 123.89676 189.61328 124.88477 L 186.9082 124.88477 C 186.9082 124.04337 186.55469 123.62109 185.85352 123.62109 C 185.56668 123.62109 185.33134 123.71019 185.14648 123.88867 C 184.96164 124.06714 184.87109 124.31606 184.87109 124.63477 C 184.87109 124.86424 184.97375 125.06957 185.17773 125.24805 C 185.38171 125.42016 185.86255 125.6671 186.62109 125.99219 C 187.72383 126.40014 188.50055 126.85777 188.95312 127.36133 C 189.41208 127.85852 189.64062 128.504 189.64062 129.30078 C 189.64062 130.22505 189.29246 130.96837 188.59766 131.5293 C 187.90287 132.09023 186.99347 132.37109 185.86523 132.37109 C 185.10669 132.37109 184.43747 132.22486 183.85742 131.93164 C 183.27736 131.63205 182.82169 131.21657 182.49023 130.6875 C 182.16514 130.15844 182.00195 129.58848 182.00195 128.97656 L 184.57227 128.97656 C 184.58502 129.44825 184.69641 129.80127 184.90039 130.03711 C 185.11074 130.27296 185.45019 130.39062 185.92188 130.39062 C 186.64854 130.39062 187.01367 130.0628 187.01367 129.40625 C 187.01367 129.17678 186.90083 128.96662 186.67773 128.77539 C 186.461 128.57779 185.97337 128.31388 185.21484 127.98242 C 184.09935 127.52984 183.33086 127.06061 182.91016 126.57617 C 182.49584 126.09172 182.28906 125.48982 182.28906 124.76953 C 182.28906 123.86438 182.61545 123.11768 183.26562 122.53125 C 183.92218 121.93845 184.78798 121.64258 185.86523 121.64258 z M 149.66602 121.83398 L 152.37109 121.83398 L 152.37109 128.60352 C 152.38384 129.61065 152.7204 130.11329 153.37695 130.11328 C 153.99525 130.11328 154.44075 129.84599 154.71484 129.31055 L 154.71484 121.83398 L 157.43945 121.83398 L 157.43945 132.17969 L 154.89648 132.17969 L 154.82031 131.23242 C 154.25937 131.99095 153.50394 132.37109 152.56055 132.37109 C 151.61079 132.37109 150.89316 132.0447 150.40234 131.39453 C 149.91152 130.73798 149.66602 129.78647 149.66602 128.53711 L 149.66602 121.83398 z M 159.49609 121.83398 L 162.20898 121.83398 L 162.20898 132.17969 L 159.49609 132.17969 L 159.49609 121.83398 z M 45.533203 123.88867 C 45.061509 123.88867 44.716724 124.05864 44.5 124.39648 C 44.28965 124.73431 44.165203 125.27569 44.126953 126.02148 L 46.833984 126.02148 L 46.833984 125.77344 C 46.821236 125.15514 46.718571 124.6859 46.527344 124.36719 C 46.336116 124.04848 46.004897 123.88867 45.533203 123.88867 z M 76.681641 123.88867 C 76.222695 123.88867 75.862906 124.11918 75.601562 124.57812 C 75.346592 125.0307 75.21875 125.72848 75.21875 126.67188 L 75.21875 127.35156 C 75.21875 129.20009 75.713164 130.12305 76.701172 130.12305 C 77.612689 130.12305 78.103708 129.35312 78.173828 127.81055 L 78.185547 126.67188 C 78.185547 125.72848 78.054313 125.0307 77.792969 124.57812 C 77.531625 124.11918 77.161662 123.88867 76.683594 123.88867 L 76.681641 123.88867 z M 100.68359 123.88867 C 100.21189 123.88867 99.867115 124.05864 99.650391 124.39648 C 99.44004 124.73431 99.315594 125.27569 99.277344 126.02148 L 101.98438 126.02148 L 101.98438 125.77344 C 101.97162 125.15514 101.86896 124.6859 101.67773 124.36719 C 101.4865 124.04848 101.15528 123.88867 100.68359 123.88867 z M 125.58203 123.88867 C 125.11033 123.88867 124.7636 124.05864 124.54688 124.39648 C 124.33652 124.73431 124.21398 125.27569 124.17578 126.02148 L 126.87891 126.02148 L 126.87891 125.77344 C 126.86617 125.15514 126.76739 124.6859 126.57617 124.36719 C 126.38494 124.04848 126.05372 123.88867 125.58203 123.88867 z M 143.77734 123.88867 C 143.26102 123.88867 142.88912 124.0974 142.66602 124.51172 C 142.4493 124.92605 142.33803 125.61706 142.33203 126.58594 L 142.33203 127.35156 C 142.33203 128.35231 142.44147 129.06512 142.6582 129.49219 C 142.87492 129.91289 143.24293 130.12305 143.76562 130.12305 C 144.31381 130.12305 144.71573 129.90949 144.9707 129.48242 L 144.9707 124.55859 C 144.71573 124.11239 144.31915 123.88867 143.77734 123.88867 z M 90.873047 123.9082 C 90.375856 123.9082 90.012676 124.11014 89.783203 124.51172 C 89.55373 124.9133 89.439453 125.62608 89.439453 126.65234 L 89.439453 127.36914 C 89.439453 128.38902 89.546947 129.10377 89.763672 129.51172 C 89.980396 129.9133 90.346967 130.11328 90.863281 130.11328 C 91.398718 130.11328 91.804032 129.87455 92.078125 129.39648 L 92.078125 124.67383 C 91.810407 124.16389 91.408484 123.9082 90.873047 123.9082 z M 177.11523 127.48438 C 176.65629 127.48438 176.29506 127.63062 176.02734 127.92383 C 175.76599 128.21705 175.63477 128.6088 175.63477 129.09961 C 175.63477 129.86452 175.93402 130.24805 176.5332 130.24805 C 176.83279 130.24805 177.08652 130.18752 177.29688 130.06641 C 177.50723 129.9453 177.66365 129.80245 177.76562 129.63672 L 177.76562 127.48438 L 177.11523 127.48438 z M 76.65625 141.9707 L 78.205078 141.9707 L 80.738281 144.64648 L 80.738281 144.76172 L 78.625 144.76172 L 77.429688 143.38477 L 76.234375 144.76172 L 74.169922 144.76172 L 74.169922 144.60938 L 76.65625 141.9707 z M 99.34375 142.19922 C 99.789947 142.19922 100.1483 142.33384 100.41602 142.60156 C 100.68374 142.86927 100.81641 143.21407 100.81641 143.63477 C 100.81641 144.0491 100.68374 144.39193 100.41602 144.66602 C 100.15468 144.94011 99.796322 145.07812 99.34375 145.07812 C 98.891178 145.07812 98.53139 144.94011 98.263672 144.66602 C 98.002328 144.39193 97.873047 144.0491 97.873047 143.63477 C 97.873047 143.21407 98.005719 142.86927 98.273438 142.60156 C 98.541157 142.33384 98.897553 142.19922 99.34375 142.19922 z M 159.54102 142.19922 C 159.98722 142.19922 160.34556 142.33384 160.61328 142.60156 C 160.88099 142.86927 161.01562 143.21407 161.01562 143.63477 C 161.01563 144.0491 160.88099 144.39193 160.61328 144.66602 C 160.35193 144.94011 159.9936 145.07812 159.54102 145.07812 C 159.08845 145.07812 158.7306 144.94011 158.46289 144.66602 C 158.20154 144.39193 158.07031 144.0491 158.07031 143.63477 C 158.07031 143.21407 158.20494 142.86927 158.47266 142.60156 C 158.74038 142.33384 159.09483 142.19922 159.54102 142.19922 z M 173.69141 142.19922 C 174.13761 142.19922 174.49791 142.33384 174.76562 142.60156 C 175.03335 142.86927 175.16602 143.21407 175.16602 143.63477 C 175.16602 144.0491 175.03334 144.39193 174.76562 144.66602 C 174.50428 144.94011 174.14399 145.07812 173.69141 145.07812 C 173.23884 145.07812 172.88099 144.94011 172.61328 144.66602 C 172.35193 144.39193 172.2207 144.0491 172.2207 143.63477 C 172.2207 143.21407 172.35337 142.86927 172.62109 142.60156 C 172.88881 142.33384 173.24522 142.19922 173.69141 142.19922 z M 133.18164 142.54297 C 134.03578 142.54297 134.79555 142.72651 135.46484 143.08984 C 136.13414 143.4468 136.65085 143.95282 137.00781 144.60938 C 137.37114 145.26592 137.55273 146.01067 137.55273 146.8457 L 134.74805 146.8457 C 134.74805 146.19552 134.6086 145.70306 134.32812 145.36523 C 134.05403 145.02102 133.65746 144.84766 133.13477 144.84766 C 132.64395 144.84766 132.25848 144.9939 131.98438 145.28711 C 131.71028 145.57395 131.57617 145.96426 131.57617 146.45508 C 131.57617 146.83754 131.7292 147.18375 132.03516 147.49609 C 132.34113 147.80205 132.8825 148.12167 133.66016 148.45312 C 135.01788 148.94394 136.0033 149.54585 136.61523 150.25977 C 137.23353 150.97369 137.54102 151.88162 137.54102 152.98438 C 137.54102 154.19548 137.15605 155.14218 136.38477 155.82422 C 135.61349 156.50627 134.56607 156.84766 133.24023 156.84766 C 132.34146 156.84766 131.52261 156.66268 130.7832 156.29297 C 130.04379 155.92327 129.46172 155.3935 129.04102 154.70508 C 128.6267 154.01666 128.41992 153.2046 128.41992 152.26758 L 131.24023 152.26758 C 131.24023 153.07074 131.39664 153.65425 131.70898 154.01758 C 132.02132 154.38091 132.53269 154.5625 133.24023 154.5625 C 134.22186 154.5625 134.71289 154.04291 134.71289 153.00391 C 134.71289 152.4366 134.56469 152.0095 134.27148 151.72266 C 133.98464 151.42944 133.46022 151.12679 132.69531 150.81445 C 131.29935 150.28538 130.29552 149.66652 129.68359 148.95898 C 129.07166 148.24506 128.76562 147.40444 128.76562 146.43555 C 128.76562 145.26269 129.17916 144.32277 130.00781 143.61523 C 130.84283 142.90131 131.90041 142.54297 133.18164 142.54297 z M 35.894531 142.73438 L 43.869141 142.73438 L 43.869141 145.07812 L 38.707031 145.07812 L 38.707031 148.36719 L 43.085938 148.36719 L 43.085938 150.63281 L 38.707031 150.63281 L 38.707031 154.32422 L 43.888672 154.32422 L 43.888672 156.65625 L 35.894531 156.65625 L 35.894531 142.73438 z M 48.947266 146.11914 C 50.088256 146.11914 50.986031 146.4741 51.642578 147.18164 C 52.299126 147.88281 52.633734 148.87986 52.646484 150.17383 L 50.103516 150.17383 C 50.097141 149.59378 50.001259 149.14828 49.816406 148.83594 C 49.631553 148.5236 49.325513 148.36719 48.898438 148.36719 C 48.426744 148.36719 48.088742 148.53522 47.884766 148.87305 C 47.68079 149.20451 47.573297 149.85194 47.560547 150.81445 L 47.560547 151.86523 C 47.560547 152.70663 47.602687 153.29693 47.685547 153.63477 C 47.768412 153.96623 47.904476 154.21173 48.095703 154.37109 C 48.286931 154.52406 48.557619 154.60156 48.908203 154.60156 C 49.692236 154.60156 50.090766 154.09019 50.103516 153.07031 L 52.646484 153.07031 C 52.633736 154.19855 52.287513 155.1099 51.605469 155.80469 C 50.923424 156.49948 50.042092 156.84766 48.964844 156.84766 C 47.632626 156.84766 46.617183 156.43412 45.916016 155.60547 C 45.214848 154.77682 44.858453 153.55605 44.845703 151.94336 L 44.845703 151.12109 C 44.845703 149.49565 45.188534 148.25454 45.876953 147.40039 C 46.571746 146.54625 47.595925 146.11914 48.947266 146.11914 z M 58.058594 146.11914 C 59.378063 146.11914 60.407072 146.56658 61.146484 147.45898 C 61.885897 148.35137 62.255859 149.58716 62.255859 151.16797 L 62.255859 151.82812 C 62.255859 153.40256 61.889289 154.6335 61.15625 155.51953 C 60.423211 156.40555 59.397594 156.84766 58.078125 156.84766 C 56.752281 156.84766 55.719882 156.40555 54.980469 155.51953 C 54.24743 154.62713 53.880859 153.3894 53.880859 151.80859 L 53.880859 151.14844 C 53.880859 149.58038 54.250822 148.35137 54.990234 147.45898 C 55.729647 146.56658 56.751873 146.11914 58.058594 146.11914 z M 68.900391 146.11914 C 70.678806 146.11914 71.593541 147.36508 71.644531 149.85742 L 71.644531 156.65625 L 68.929688 156.65625 L 68.929688 150.05859 C 68.929687 149.47216 68.840588 149.04846 68.662109 148.78711 C 68.490005 148.51939 68.183964 148.38672 67.744141 148.38672 C 67.253324 148.38672 66.871749 148.63706 66.597656 149.14062 L 66.597656 156.65625 L 63.880859 156.65625 L 63.880859 146.31055 L 66.425781 146.31055 L 66.501953 147.33398 C 67.113881 146.52445 67.912382 146.11914 68.900391 146.11914 z M 77.449219 146.11914 C 78.768688 146.11914 79.797697 146.56658 80.537109 147.45898 C 81.276522 148.35137 81.646484 149.58716 81.646484 151.16797 L 81.646484 151.82812 C 81.646484 153.40256 81.279914 154.6335 80.546875 155.51953 C 79.813836 156.40555 78.788219 156.84766 77.46875 156.84766 C 76.142906 156.84766 75.110507 156.40555 74.371094 155.51953 C 73.638055 154.62713 73.271484 153.3894 73.271484 151.80859 L 73.271484 151.14844 C 73.271484 149.58038 73.641447 148.35137 74.380859 147.45898 C 75.120272 146.56658 76.142498 146.11914 77.449219 146.11914 z M 88.359375 146.11914 C 89.392003 146.11914 90.121752 146.58501 90.548828 147.51562 C 91.141633 146.58499 91.985661 146.11914 93.082031 146.11914 C 94.892318 146.11914 95.820614 147.37187 95.865234 149.87695 L 95.865234 156.65625 L 93.158203 156.65625 L 93.158203 150.04883 C 93.158203 149.44965 93.075887 149.02255 92.910156 148.76758 C 92.744426 148.51261 92.463563 148.38672 92.068359 148.38672 C 91.564794 148.38672 91.188049 148.6942 90.939453 149.3125 L 90.958984 149.63867 L 90.958984 156.65625 L 88.253906 156.65625 L 88.253906 150.06836 C 88.253906 149.47556 88.173028 149.04846 88.013672 148.78711 C 87.854316 148.51939 87.572013 148.38672 87.164062 148.38672 C 86.698741 148.38672 86.32878 148.63706 86.054688 149.14062 L 86.054688 156.65625 L 83.347656 156.65625 L 83.347656 146.31055 L 85.882812 146.31055 L 85.958984 147.26758 C 86.564538 146.50267 87.364992 146.11914 88.359375 146.11914 z M 106.58203 146.11914 C 107.72302 146.11914 108.62079 146.4741 109.27734 147.18164 C 109.93389 147.88281 110.2705 148.87986 110.2832 150.17383 L 107.74023 150.17383 C 107.73386 149.59378 107.63797 149.14828 107.45312 148.83594 C 107.26828 148.5236 106.96224 148.36719 106.53516 148.36719 C 106.06347 148.36719 105.72546 148.53522 105.52148 148.87305 C 105.3175 149.20451 105.20811 149.85194 105.19531 150.81445 L 105.19531 151.86523 C 105.19531 152.70663 105.23741 153.29693 105.32031 153.63477 C 105.40317 153.96623 105.54119 154.21173 105.73242 154.37109 C 105.92364 154.52406 106.19433 154.60156 106.54492 154.60156 C 107.32895 154.60156 107.72753 154.09019 107.74023 153.07031 L 110.2832 153.07031 C 110.27045 154.19855 109.92227 155.1099 109.24023 155.80469 C 108.55818 156.49948 107.67881 156.84766 106.60156 156.84766 C 105.26934 156.84766 104.25194 156.43412 103.55078 155.60547 C 102.84961 154.77682 102.49132 153.55605 102.47852 151.94336 L 102.47852 151.12109 C 102.47852 149.49565 102.82525 148.25454 103.51367 147.40039 C 104.20846 146.54625 105.23069 146.11914 106.58203 146.11914 z M 115.69531 146.11914 C 117.01478 146.11914 118.04379 146.56658 118.7832 147.45898 C 119.52261 148.35137 119.89062 149.58716 119.89062 151.16797 L 119.89062 151.82812 C 119.89063 153.40256 119.52406 154.6335 118.79102 155.51953 C 118.05799 156.40555 117.03235 156.84766 115.71289 156.84766 C 114.38704 156.84766 113.35464 156.40555 112.61523 155.51953 C 111.88219 154.62713 111.51562 153.3894 111.51562 151.80859 L 111.51562 151.14844 C 111.51563 149.58038 111.88364 148.35137 112.62305 147.45898 C 113.36247 146.56658 114.38859 146.11914 115.69531 146.11914 z M 143.15234 146.11914 C 144.47181 146.11914 145.50472 146.56658 146.24414 147.45898 C 146.98355 148.35137 147.35156 149.58716 147.35156 151.16797 L 147.35156 151.82812 C 147.35156 153.40256 146.98499 154.6335 146.25195 155.51953 C 145.51891 156.40555 144.49134 156.84766 143.17188 156.84766 C 141.84603 156.84766 140.81558 156.40555 140.07617 155.51953 C 139.34313 154.62713 138.97656 153.3894 138.97656 151.80859 L 138.97656 151.14844 C 138.97656 149.58038 139.34457 148.35137 140.08398 147.45898 C 140.8234 146.56658 141.84562 146.11914 143.15234 146.11914 z M 152.82227 146.11914 C 153.96326 146.11914 154.85908 146.4741 155.51562 147.18164 C 156.17218 147.88281 156.50868 148.87986 156.52148 150.17383 L 153.97852 150.17383 C 153.97215 149.59378 153.87626 149.14828 153.69141 148.83594 C 153.50656 148.5236 153.19856 148.36719 152.77148 148.36719 C 152.29979 148.36719 151.96375 148.53522 151.75977 148.87305 C 151.55579 149.20451 151.44639 149.85194 151.43359 150.81445 L 151.43359 151.86523 C 151.43359 152.70663 151.47569 153.29693 151.55859 153.63477 C 151.64145 153.96623 151.77947 154.21173 151.9707 154.37109 C 152.16193 154.52406 152.43261 154.60156 152.7832 154.60156 C 153.56723 154.60156 153.96582 154.09019 153.97852 153.07031 L 156.52148 153.07031 C 156.50873 154.19855 156.16057 155.1099 155.47852 155.80469 C 154.79648 156.49948 153.91709 156.84766 152.83984 156.84766 C 151.50762 156.84766 150.49219 156.43412 149.79102 155.60547 C 149.08985 154.77682 148.73145 153.55605 148.71875 151.94336 L 148.71875 151.12109 C 148.71875 149.49565 149.06353 148.25454 149.75195 147.40039 C 150.44674 146.54625 151.47093 146.11914 152.82227 146.11914 z M 166.69531 146.11914 C 167.82992 146.11914 168.70397 146.41696 169.32227 147.00977 C 169.94695 147.5962 170.25977 148.43683 170.25977 149.5332 L 170.25977 154.40039 C 170.27252 155.29279 170.4023 155.99058 170.64453 156.49414 L 170.64453 156.65625 L 167.91602 156.65625 C 167.83953 156.4969 167.76595 156.2296 167.68945 155.85352 C 167.20501 156.51644 166.5474 156.84766 165.71875 156.84766 C 164.85185 156.84766 164.13227 156.56001 163.55859 155.98633 C 162.99128 155.41265 162.70703 154.67129 162.70703 153.75977 C 162.70703 152.67615 163.05181 151.83695 163.74023 151.24414 C 164.43502 150.65134 165.43207 150.34874 166.73242 150.33594 L 167.55273 150.33594 L 167.55273 149.50391 C 167.55273 149.03859 167.47577 148.71075 167.31641 148.51953 C 167.15706 148.32832 166.9251 148.23242 166.61914 148.23242 C 165.94347 148.23242 165.60352 148.62757 165.60352 149.41797 L 162.89648 149.41797 C 162.89648 148.46184 163.25678 147.67495 163.9707 147.05664 C 164.69099 146.43197 165.59894 146.11914 166.69531 146.11914 z M 180.58789 146.11914 C 181.7225 146.11914 182.62851 146.41357 183.31055 147 C 183.9926 147.58643 184.33398 148.37332 184.33398 149.36133 L 181.62891 149.36133 C 181.62891 148.51993 181.27929 148.09961 180.57812 148.09961 C 180.29128 148.09961 180.05594 148.18871 179.87109 148.36719 C 179.68625 148.54567 179.59375 148.79457 179.59375 149.11328 C 179.59375 149.34276 179.69251 149.54613 179.89648 149.72461 C 180.10046 149.89672 180.58521 150.14561 181.34375 150.4707 C 182.44649 150.87865 183.2232 151.33433 183.67578 151.83789 C 184.13472 152.33509 184.36523 152.98252 184.36523 153.7793 C 184.36523 154.70357 184.01706 155.44493 183.32227 156.00586 C 182.62748 156.5668 181.71613 156.84766 180.58789 156.84766 C 179.82935 156.84766 179.15819 156.70141 178.57812 156.4082 C 177.99808 156.10861 177.54435 155.69312 177.21289 155.16406 C 176.8878 154.63499 176.72266 154.06506 176.72266 153.45312 L 179.29688 153.45312 C 179.30962 153.92481 179.41711 154.27977 179.62109 154.51562 C 179.83144 154.75148 180.17283 154.86914 180.64453 154.86914 C 181.37119 154.86914 181.73438 154.53935 181.73438 153.88281 C 181.73438 153.65333 181.62348 153.44317 181.40039 153.25195 C 181.18366 153.05435 180.69409 152.79044 179.93555 152.45898 C 178.82006 152.00641 178.05351 151.53717 177.63281 151.05273 C 177.21848 150.56829 177.00977 149.96638 177.00977 149.24609 C 177.00977 148.34094 177.3342 147.5962 177.98438 147.00977 C 178.64093 146.41696 179.51064 146.11914 180.58789 146.11914 z M 97.996094 146.31055 L 100.71289 146.31055 L 100.71289 156.65625 L 97.996094 156.65625 L 97.996094 146.31055 z M 158.19531 146.31055 L 160.91016 146.31055 L 160.91016 156.65625 L 158.19531 156.65625 L 158.19531 146.31055 z M 172.3457 146.31055 L 175.05859 146.31055 L 175.05859 156.65625 L 172.3457 156.65625 L 172.3457 146.31055 z M 58.056641 148.36719 C 57.597695 148.36719 57.237907 148.59575 56.976562 149.05469 C 56.721592 149.50726 56.59375 150.20505 56.59375 151.14844 L 56.59375 151.82812 C 56.59375 153.67666 57.088164 154.60156 58.076172 154.60156 C 58.987689 154.60156 59.478708 153.82968 59.548828 152.28711 L 59.560547 151.14844 C 59.560547 150.20505 59.429313 149.50726 59.167969 149.05469 C 58.906625 148.59575 58.536662 148.36719 58.058594 148.36719 L 58.056641 148.36719 z M 77.447266 148.36719 C 76.98832 148.36719 76.628531 148.59575 76.367188 149.05469 C 76.112217 149.50726 75.984375 150.20505 75.984375 151.14844 L 75.984375 151.82812 C 75.984375 153.67666 76.478789 154.60156 77.466797 154.60156 C 78.378314 154.60156 78.869333 153.82968 78.939453 152.28711 L 78.951172 151.14844 C 78.951172 150.20505 78.819938 149.50726 78.558594 149.05469 C 78.29725 148.59575 77.927287 148.36719 77.449219 148.36719 L 77.447266 148.36719 z M 115.69336 148.36719 C 115.23441 148.36719 114.87267 148.59575 114.61133 149.05469 C 114.35636 149.50726 114.23047 150.20505 114.23047 151.14844 L 114.23047 151.82812 C 114.23047 153.67666 114.72293 154.60156 115.71094 154.60156 C 116.62245 154.60156 117.11349 153.82968 117.18359 152.28711 L 117.19531 151.14844 C 117.19531 150.20505 117.06408 149.50726 116.80273 149.05469 C 116.54139 148.59575 116.17338 148.36719 115.69531 148.36719 L 115.69336 148.36719 z M 143.15234 148.36719 C 142.6934 148.36719 142.33362 148.59575 142.07227 149.05469 C 141.8173 149.50726 141.68945 150.20505 141.68945 151.14844 L 141.68945 151.82812 C 141.68945 153.67666 142.18386 154.60156 143.17188 154.60156 C 144.0834 154.60156 144.57443 153.82968 144.64453 152.28711 L 144.65625 151.14844 C 144.65625 150.20505 144.52501 149.50726 144.26367 149.05469 C 144.00232 148.59575 143.63041 148.36719 143.15234 148.36719 z M 121.77539 149.5625 L 126.45117 149.5625 L 126.45117 151.81836 L 121.77539 151.81836 L 121.77539 149.5625 z M 166.90625 151.96094 C 166.4473 151.96094 166.08217 152.10912 165.81445 152.40234 C 165.5531 152.69555 165.42188 153.08731 165.42188 153.57812 C 165.42188 154.34303 165.72309 154.72461 166.32227 154.72461 C 166.62186 154.72461 166.87754 154.66408 167.08789 154.54297 C 167.29824 154.42186 167.45074 154.27902 167.55273 154.11328 L 167.55273 151.96094 L 166.90625 151.96094 z "
       transform="translate(0,832.36216)"
       id="rect4157" />
    <g
       id="g4183"
       transform="matrix(0.9959374,0,0,0.9959374,29.673666,-38.85735)">
      <g
         id="g4213"
         transform="translate(30.122388,8.5266673)" />
    </g>
  </g>
</svg>
