<?xml version="1.0" encoding="UTF-8" standalone="no"?>
<!-- Created with Inkscape (http://www.inkscape.org/) -->

<svg
   xmlns:dc="http://purl.org/dc/elements/1.1/"
   xmlns:cc="http://creativecommons.org/ns#"
   xmlns:rdf="http://www.w3.org/1999/02/22-rdf-syntax-ns#"
   xmlns:svg="http://www.w3.org/2000/svg"
   xmlns="http://www.w3.org/2000/svg"
   xmlns:sodipodi="http://sodipodi.sourceforge.net/DTD/sodipodi-0.dtd"
   xmlns:inkscape="http://www.inkscape.org/namespaces/inkscape"
   width="220"
   height="220"
   viewBox="0 0 220 220"
   id="svg2"
   version="1.1"
   inkscape:version="0.91 r13725"
   sodipodi:docname="ufu_extensao_cultura.svg">
  <defs
     id="defs4" />
  <sodipodi:namedview
     id="base"
     pagecolor="#ffffff"
     bordercolor="#666666"
     borderopacity="1.0"
     inkscape:pageopacity="0.0"
     inkscape:pageshadow="2"
     inkscape:zoom="2.9590909"
     inkscape:cx="110"
     inkscape:cy="113.40177"
     inkscape:document-units="px"
     inkscape:current-layer="layer1"
     showgrid="false"
     units="px"
     inkscape:window-width="1440"
     inkscape:window-height="847"
     inkscape:window-x="-8"
     inkscape:window-y="-8"
     inkscape:window-maximized="1" />
  <metadata
     id="metadata7">
    <rdf:RDF>
      <cc:Work
         rdf:about="">
        <dc:format>image/svg+xml</dc:format>
        <dc:type
           rdf:resource="http://purl.org/dc/dcmitype/StillImage" />
        <dc:title></dc:title>
      </cc:Work>
    </rdf:RDF>
  </metadata>
  <g
     inkscape:label="Camada 1"
     inkscape:groupmode="layer"
     id="layer1"
     transform="translate(0,-832.36216)">
    <g
       id="g3383"
       transform="matrix(0.42025415,0,0,0.42025415,30,862.36237)">
      <g
         id="g3339">
        <g
           id="g3341" />
      </g>
      <g
         id="g3347" />
      <g
         id="g3349" />
      <g
         id="g3351" />
      <g
         id="g3353" />
      <g
         id="g3355" />
      <g
         id="g3357" />
      <g
         id="g3359" />
      <g
         id="g3361" />
      <g
         id="g3363" />
      <g
         id="g3365" />
      <g
         id="g3367" />
      <g
         id="g3369" />
      <g
         id="g3371" />
      <g
         id="g3373" />
      <g
         id="g3375" />
    </g>
    <path
       style="color:#000000;clip-rule:nonzero;display:inline;overflow:visible;visibility:visible;opacity:1;isolation:auto;mix-blend-mode:normal;color-interpolation:sRGB;color-interpolation-filters:linearRGB;solid-color:#000000;solid-opacity:1;fill:#ffffff;fill-opacity:1;fill-rule:nonzero;stroke:none;stroke-width:5;stroke-linecap:square;stroke-linejoin:miter;stroke-miterlimit:4;stroke-dasharray:none;stroke-dashoffset:0;stroke-opacity:1;color-rendering:auto;image-rendering:auto;shape-rendering:auto;text-rendering:auto;enable-background:accumulate"
       d="M 0 0 L 0 220 L 220 220 L 220 0 L 0 0 z M 67.646484 34.705078 C 72.519089 34.705078 76.609375 38.693641 76.609375 43.564453 L 76.609375 63.390625 L 96.435547 63.390625 C 101.30636 63.390625 105.29492 67.480911 105.29492 72.353516 C 105.29492 77.226121 101.30636 81.316406 96.435547 81.316406 L 76.609375 81.316406 L 76.609375 101.14062 C 76.609375 106.01144 72.519089 110 67.646484 110 C 62.773879 110 58.683594 106.01144 58.683594 101.14062 L 58.683594 81.316406 L 38.859375 81.316406 C 33.988563 81.316406 30 77.226121 30 72.353516 C 30 67.480911 33.988563 63.390625 38.859375 63.390625 L 58.683594 63.390625 L 58.683594 43.564453 C 58.683596 38.693641 62.773879 34.705078 67.646484 34.705078 z M 99.898438 103.72266 C 100.16496 103.72266 100.43172 103.76653 100.6875 103.85742 C 106.23278 105.80563 114.78901 107.05859 124.41211 107.05859 C 134.03501 107.05859 142.59144 105.80563 148.13672 103.85742 C 148.3939 103.76653 148.66102 103.72266 148.92773 103.72266 C 149.31837 103.72266 149.70543 103.81714 150.05469 104.00391 C 150.64602 104.32095 151.0783 104.87049 151.24219 105.52148 C 152.33573 109.82763 152.94141 114.46595 152.94141 119.3125 C 152.94141 141.78343 140.16863 160 124.41211 160 C 108.6552 160 95.882812 141.78343 95.882812 119.3125 C 95.882813 114.46595 96.486535 109.82783 97.580078 105.52148 C 97.744164 104.87188 98.177837 104.3229 98.767578 104.00586 C 99.118431 103.8185 99.508 103.72266 99.898438 103.72266 z M 112.7207 120.72266 C 109.73047 120.72266 107.30664 122.3545 107.30664 124.36914 C 107.30664 126.38338 109.73047 128.01562 112.7207 128.01562 C 115.71075 128.01562 118.13477 128.26619 118.13477 126.25195 C 118.13477 124.23731 115.71075 120.72266 112.7207 120.72266 z M 136.10352 120.72266 C 133.11327 120.72266 130.68945 124.23731 130.68945 126.25195 C 130.68945 128.26619 133.11327 128.01562 136.10352 128.01562 C 139.09355 128.01563 141.51562 126.38338 141.51562 124.36914 C 141.51562 122.3545 139.09355 120.72266 136.10352 120.72266 z M 186.17188 129.02148 C 186.49894 129.04652 186.81842 129.13915 187.11328 129.29688 C 187.70461 129.61432 188.13689 130.16541 188.30078 130.81641 C 189.39432 135.12275 189.9998 139.76223 190 144.60938 C 190 167.07991 177.22722 185.29492 161.4707 185.29492 C 149.66012 185.29492 139.52445 175.05817 135.18945 160.4668 C 139.03436 158.53211 142.52717 155.60673 145.51562 151.89648 C 146.50514 152.75732 148.03754 153.32227 149.7793 153.32227 C 152.76934 153.32227 155.19336 149.80527 155.19336 147.79102 C 155.19336 145.77678 152.76954 146.02539 149.7793 146.02539 C 149.66613 146.02539 149.55945 146.04417 149.44727 146.04883 C 151.75429 141.91891 153.56106 137.22996 154.69141 132.12305 C 156.8775 132.26367 159.13126 132.35352 161.4707 132.35352 C 171.09339 132.35352 179.65003 131.0986 185.19531 129.15039 C 185.51156 129.03928 185.84482 128.99646 186.17188 129.02148 z M 113.78125 137.73242 C 113.67601 137.71249 113.56596 137.7195 113.46094 137.75391 C 113.2513 137.82471 113.09349 137.99692 113.04297 138.21094 C 112.85918 138.9938 112.74414 139.80108 112.74414 140.64062 C 112.74414 147.08333 117.9688 152.30664 124.41211 152.30664 C 130.85502 152.30664 136.07832 147.08333 136.07812 140.64062 C 136.07812 139.80108 135.96503 138.9938 135.78125 138.21094 C 135.73073 137.99692 135.57116 137.82312 135.36133 137.75391 C 135.25641 137.71875 135.14614 137.71234 135.04102 137.73242 C 134.9359 137.75252 134.83639 137.79784 134.75195 137.86914 C 132.52967 139.73659 128.74889 140.97852 124.41211 140.97852 C 120.07533 140.97852 116.29476 139.73659 114.07227 137.86914 C 113.98793 137.79863 113.88649 137.75235 113.78125 137.73242 z M 171.05469 146.01758 C 169.11164 146.04185 167.74805 146.28033 167.74805 147.79102 C 167.74805 149.80527 170.17187 153.32031 173.16211 153.32031 C 176.15214 153.32031 178.57597 151.68613 178.57617 149.67188 C 178.57617 147.65764 176.15214 146.02539 173.16211 146.02539 C 172.4146 146.02539 171.70238 146.00951 171.05469 146.01758 z M 161.4707 159.31836 C 155.0276 159.31836 149.80469 164.54106 149.80469 170.98438 C 149.80469 171.82392 149.91758 172.6312 150.10156 173.41406 C 150.15208 173.62848 150.3097 173.80069 150.51953 173.87109 C 150.72918 173.93991 150.962 173.89689 151.13086 173.75586 C 153.35315 171.8884 157.13372 170.64648 161.4707 170.64648 C 165.80728 170.64648 169.58805 171.8884 171.81055 173.75586 C 171.97921 173.89847 172.21183 173.94131 172.42188 173.87109 C 172.63151 173.80227 172.78932 173.62848 172.83984 173.41406 C 173.02363 172.6314 173.13828 171.82392 173.13867 170.98438 C 173.13867 164.54126 167.91381 159.31836 161.4707 159.31836 z "
       transform="translate(0,832.36216)"
       id="rect3406" />
    <g
       id="g3455"
       transform="matrix(0.27604245,0,0,0.27604245,30,862.36216)">
      <g
         id="g3409">
        <g
           id="g3411" />
      </g>
      <g
         id="g3419" />
      <g
         id="g3421" />
      <g
         id="g3423" />
      <g
         id="g3425" />
      <g
         id="g3427" />
      <g
         id="g3429" />
      <g
         id="g3431" />
      <g
         id="g3433" />
      <g
         id="g3435" />
      <g
         id="g3437" />
      <g
         id="g3439" />
      <g
         id="g3441" />
      <g
         id="g3443" />
      <g
         id="g3445" />
      <g
         id="g3447" />
    </g>
    <g
       id="g3522"
       transform="matrix(2.006427,0,0,2.006427,101.84549,916.05366)">
      <g
         id="g3480">
        <g
           id="g3482" />
      </g>
      <g
         id="g3486" />
      <g
         id="g3488" />
      <g
         id="g3490" />
      <g
         id="g3492" />
      <g
         id="g3494" />
      <g
         id="g3496" />
      <g
         id="g3498" />
      <g
         id="g3500" />
      <g
         id="g3502" />
      <g
         id="g3504" />
      <g
         id="g3506" />
      <g
         id="g3508" />
      <g
         id="g3510" />
      <g
         id="g3512" />
      <g
         id="g3514" />
    </g>
    <g
       id="g3585"
       transform="matrix(0.20475885,0,0,0.20475885,30.000026,872.36208)">
      <g
         id="g3543">
        <g
           id="g3545" />
      </g>
      <g
         id="g3549" />
      <g
         id="g3551" />
      <g
         id="g3553" />
      <g
         id="g3555" />
      <g
         id="g3557" />
      <g
         id="g3559" />
      <g
         id="g3561" />
      <g
         id="g3563" />
      <g
         id="g3565" />
      <g
         id="g3567" />
      <g
         id="g3569" />
      <g
         id="g3571" />
      <g
         id="g3573" />
      <g
         id="g3575" />
      <g
         id="g3577" />
    </g>
    <g
       id="g3646"
       transform="matrix(1.7927171,0,0,1.7927171,34.705882,876.47981)">
      <g
         id="g3610" />
      <g
         id="g3612" />
      <g
         id="g3614" />
      <g
         id="g3616" />
      <g
         id="g3618" />
      <g
         id="g3620" />
      <g
         id="g3622" />
      <g
         id="g3624" />
      <g
         id="g3626" />
      <g
         id="g3628" />
      <g
         id="g3630" />
      <g
         id="g3632" />
      <g
         id="g3634" />
      <g
         id="g3636" />
      <g
         id="g3638" />
    </g>
    <g
       id="g3707"
       transform="matrix(0.21132937,0,0,0.21132937,100,939.02706)">
      <g
         id="g3665" />
      <g
         id="g3671" />
      <g
         id="g3673" />
      <g
         id="g3675" />
      <g
         id="g3677" />
      <g
         id="g3679" />
      <g
         id="g3681" />
      <g
         id="g3683" />
      <g
         id="g3685" />
      <g
         id="g3687" />
      <g
         id="g3689" />
      <g
         id="g3691" />
      <g
         id="g3693" />
      <g
         id="g3695" />
      <g
         id="g3697" />
      <g
         id="g3699" />
    </g>
  </g>
</svg>
