<?xml version="1.0" encoding="UTF-8" standalone="no"?>
<!-- Created with Inkscape (http://www.inkscape.org/) -->

<svg
   xmlns:dc="http://purl.org/dc/elements/1.1/"
   xmlns:cc="http://creativecommons.org/ns#"
   xmlns:rdf="http://www.w3.org/1999/02/22-rdf-syntax-ns#"
   xmlns:svg="http://www.w3.org/2000/svg"
   xmlns="http://www.w3.org/2000/svg"
   xmlns:sodipodi="http://sodipodi.sourceforge.net/DTD/sodipodi-0.dtd"
   xmlns:inkscape="http://www.inkscape.org/namespaces/inkscape"
   width="220"
   height="220"
   viewBox="0 0 220 220"
   id="svg2"
   version="1.1"
   inkscape:version="0.91 r13725"
   sodipodi:docname="ufu_credesh.svg">
  <defs
     id="defs4" />
  <sodipodi:namedview
     id="base"
     pagecolor="#ffffff"
     bordercolor="#666666"
     borderopacity="1.0"
     inkscape:pageopacity="0.0"
     inkscape:pageshadow="2"
     inkscape:zoom="2.9590909"
     inkscape:cx="110"
     inkscape:cy="110"
     inkscape:document-units="px"
     inkscape:current-layer="layer1"
     showgrid="false"
     units="px"
     inkscape:window-width="1440"
     inkscape:window-height="847"
     inkscape:window-x="-8"
     inkscape:window-y="-8"
     inkscape:window-maximized="1" />
  <metadata
     id="metadata7">
    <rdf:RDF>
      <cc:Work
         rdf:about="">
        <dc:format>image/svg+xml</dc:format>
        <dc:type
           rdf:resource="http://purl.org/dc/dcmitype/StillImage" />
        <dc:title></dc:title>
      </cc:Work>
    </rdf:RDF>
  </metadata>
  <g
     inkscape:label="Camada 1"
     inkscape:groupmode="layer"
     id="layer1"
     transform="translate(0,-832.36216)">
    <path
       style="color:#000000;clip-rule:nonzero;display:inline;overflow:visible;visibility:visible;opacity:1;isolation:auto;mix-blend-mode:normal;color-interpolation:sRGB;color-interpolation-filters:linearRGB;solid-color:#000000;solid-opacity:1;fill:#ffffff;fill-opacity:1;fill-rule:nonzero;stroke:none;stroke-width:5;stroke-linecap:square;stroke-linejoin:miter;stroke-miterlimit:4;stroke-dasharray:none;stroke-dashoffset:0;stroke-opacity:1;color-rendering:auto;image-rendering:auto;shape-rendering:auto;text-rendering:auto;enable-background:accumulate"
       d="M 0 0 L 0 220 L 220 220 L 220 0 L 0 0 z M 109.80859 30 C 110.44658 29.98991 111.1164 30.168711 111.78516 30.582031 C 114.36234 32.174771 114.3735 37.102282 111.80273 38.669922 C 110.66122 39.365972 109.05768 39.380285 107.96484 38.703125 C 107.50816 38.420165 106.87009 37.644113 106.54688 36.976562 C 104.92558 33.628102 107.04399 30.0437 109.80859 30 z M 107.54883 40.611328 L 108.62891 41.863281 C 109.22187 42.551761 109.86121 43.115234 110.05078 43.115234 C 110.24036 43.115234 110.68222 42.71165 111.0332 42.21875 C 112.06201 40.77391 112.53678 40.657986 114.6875 41.322266 C 117.75648 42.270176 121.29793 44.914778 123.07812 47.585938 C 123.99874 48.967328 123.8047 49.085938 120.62695 49.085938 C 117.80507 49.085938 117.6348 49.047833 116.55469 48.189453 C 115.93487 47.696883 115.32259 47.294922 115.19336 47.294922 C 115.06413 47.294922 113.91887 48.436421 112.64844 49.832031 C 111.37801 51.227631 110.15744 52.369141 109.93555 52.369141 C 109.71366 52.369141 108.64691 51.161294 107.56641 49.683594 C 106.48591 48.205904 105.43465 46.996094 105.22852 46.996094 C 104.54511 46.996094 102.3977 48.763565 101.33398 50.203125 C 99.776566 52.310855 99.272771 54.326928 99.486328 57.585938 C 99.486328 57.585938 100.01642 59.45384 99.662109 60.28125 C 99.371979 60.95879 97.964844 61.699219 97.964844 61.699219 C 97.031712 62.479119 96.095735 63.117188 95.882812 63.117188 C 95.66989 63.117188 95.35395 62.746432 95.181641 62.294922 C 94.491729 60.487052 94.017578 58.126933 94.017578 56.501953 C 94.017578 49.436563 98.912077 42.950649 105.61328 41.136719 L 107.54883 40.611328 z M 121.96484 51.888672 C 127.64501 52.088402 133.11617 55.536576 135.60352 60.728516 C 136.19346 61.959936 136.76871 63.551565 136.88281 64.265625 C 137.08388 65.524185 137.05051 65.596871 135.79102 66.681641 L 134.49219 67.802734 L 135.81445 69.023438 L 137.13867 70.244141 L 136.76172 71.681641 C 135.88721 75.021241 133.6997 78.325735 131.09961 80.234375 C 128.77635 81.939805 128.6439 81.839756 128.6582 78.416016 C 128.66981 75.630806 128.7093 75.459733 129.55469 74.470703 C 130.04059 73.902243 130.4375 73.275232 130.4375 73.076172 C 130.4375 72.877112 129.29599 71.67668 127.90039 70.40625 C 126.50479 69.13582 125.36328 67.945562 125.36328 67.763672 C 125.36328 67.581782 126.57113 66.528715 128.04883 65.421875 C 129.52653 64.315025 130.73633 63.217978 130.73633 62.986328 C 130.73633 62.246688 128.82228 60.015186 127.32812 59.009766 C 125.13138 57.531576 123.05155 57.032589 120.00391 57.255859 L 117.45117 57.443359 L 116.0332 55.734375 C 115.2533 54.794255 114.61523 53.868764 114.61523 53.677734 C 114.61523 53.133294 116.89471 52.357509 119.52734 52.005859 C 120.33924 51.897639 121.15338 51.860072 121.96484 51.888672 z M 90.884766 53.970703 C 90.935466 53.968703 90.978076 53.978447 91.009766 53.998047 C 91.203508 54.117787 91.323706 55.337581 91.316406 57.087891 C 91.304802 59.853561 91.266472 60.025612 90.421875 61.013672 C 89.93598 61.582132 89.539062 62.201929 89.539062 62.386719 C 89.539062 62.571529 90.680571 63.758867 92.076172 65.029297 C 93.471774 66.299727 94.609016 67.498546 94.603516 67.691406 C 94.598558 67.884266 93.394544 68.915192 91.927734 69.982422 C 90.441426 71.063852 89.2556 72.143655 89.25 72.421875 C 89.221735 73.848255 92.870975 77.085898 95.310547 77.798828 C 96.742744 78.217368 99.640889 78.295604 101.22266 77.958984 C 102.28305 77.733334 102.34902 77.775197 103.83594 79.554688 C 104.67454 80.558308 105.36133 81.508899 105.36133 81.667969 C 105.36133 81.827019 104.72325 82.242617 103.94336 82.591797 C 101.91685 83.499117 96.367525 83.656877 94.017578 82.873047 C 89.058399 81.218877 85.352759 77.708446 83.669922 73.072266 C 82.70203 70.405766 82.753045 70.017016 84.236328 68.722656 L 85.509766 67.609375 L 84.212891 66.361328 C 83.162761 65.347828 82.945895 64.959965 83.072266 64.328125 C 83.441728 62.480805 84.622429 59.957149 85.912109 58.255859 C 87.33919 56.373309 90.124242 54.001403 90.884766 53.970703 z M 76.511719 63.761719 C 79.005173 63.690789 81.476562 65.461571 81.476562 67.744141 C 81.476563 70.490841 78.034987 72.422097 75.0625 71.341797 C 71.432828 70.022667 71.280594 65.597634 74.814453 64.121094 C 75.362281 63.892194 75.936306 63.778119 76.511719 63.761719 z M 143.40039 63.779297 C 145.76703 63.814347 147.75 65.427825 147.75 67.796875 C 147.75 68.926205 147.59072 69.307699 146.76758 70.130859 C 145.4049 71.493729 143.48718 72.012951 141.75586 71.488281 C 137.86313 70.308581 137.3802 65.928021 140.96484 64.300781 C 141.77955 63.930941 142.61152 63.767597 143.40039 63.779297 z M 123.98633 72.458984 C 125.17091 72.853844 126.05771 79.320979 125.37695 82.599609 C 124.44632 87.081719 121.05571 91.406534 116.90625 93.402344 C 115.66736 93.998234 114.005 94.555225 113.21484 94.640625 C 111.80854 94.792645 111.762 94.770374 110.93945 93.583984 C 110.47728 92.917394 109.99631 92.371094 109.86914 92.371094 C 109.74197 92.371094 109.13891 92.909656 108.53125 93.566406 C 107.25431 94.946526 106.82608 94.99729 104.3125 94.0625 C 102.04442 93.21901 100.25173 91.98466 98.318359 89.9375 C 96.632974 88.15291 95.986823 87.134989 96.259766 86.693359 C 96.359141 86.532569 97.680054 86.402344 99.195312 86.402344 C 101.81618 86.402344 102.00114 86.444756 102.98438 87.285156 C 103.55284 87.771046 104.22954 88.172688 104.49023 88.179688 C 104.75092 88.186627 106.00496 87.05185 107.27539 85.65625 C 108.54582 84.26065 109.71314 83.119141 109.86719 83.119141 C 110.02124 83.119141 111.02887 84.326987 112.10938 85.804688 C 113.29161 87.421497 114.2823 88.492188 114.59766 88.492188 C 115.42665 88.492188 117.46203 86.860033 118.48242 85.376953 C 120.19351 82.890563 120.76014 80.073285 120.20312 76.828125 L 119.96875 75.466797 L 121.8125 73.908203 C 122.82633 73.050833 123.80438 72.398384 123.98633 72.458984 z M 109.80859 96.253906 C 111.92084 96.256876 113.7168 98.452027 113.7168 101.0293 C 113.7168 104.00875 111.48287 106.22063 109.10547 105.59375 C 106.49917 104.90651 105.13075 101.23546 106.51172 98.636719 C 107.17733 97.384159 108.74262 96.251906 109.80859 96.253906 z M 150.5332 115.74023 C 152.79509 115.74023 154.69169 115.92972 156.22656 116.31055 L 155.58594 120.1543 C 154.02801 119.58882 152.34502 119.30664 150.5332 119.30664 C 147.80969 119.30664 146.44727 120.03225 146.44727 121.48633 C 146.44727 122.25953 146.76373 122.88837 147.39844 123.37305 C 147.95238 123.7885 149.15959 124.37294 151.01758 125.12305 C 152.99097 125.91934 154.4683 126.79606 155.44922 127.75391 C 156.75327 129.03488 157.4043 130.61698 157.4043 132.49805 C 157.4043 137.0103 154.16143 139.26562 147.67578 139.26562 C 145.47158 139.26562 143.42386 138.99961 141.53125 138.46875 L 142.37891 134.60938 C 144.24843 135.25563 146.01398 135.57812 147.67578 135.57812 C 149.52223 135.57812 150.85038 135.40072 151.6582 135.04297 C 152.46601 134.68522 152.86914 134.08267 152.86914 133.24023 C 152.86914 132.36317 152.49018 131.62548 151.72852 131.02539 C 151.07072 130.49453 149.73652 129.8032 147.72852 128.94922 C 145.90515 128.16448 144.54876 127.30995 143.66016 126.38672 C 142.54075 125.22115 141.98047 123.78413 141.98047 122.07617 C 141.98047 120.09124 142.71407 118.53932 144.17969 117.41992 C 145.65685 116.3005 147.77507 115.74023 150.5332 115.74023 z M 52.919922 115.79297 C 54.327838 115.79297 55.660077 115.95421 56.917969 116.27734 L 56.310547 120.27734 C 54.948793 119.8388 53.646743 119.61719 52.400391 119.61719 C 50.057712 119.61719 48.314364 120.36286 47.171875 121.85156 C 46.029386 123.32871 45.457031 125.12853 45.457031 127.25195 C 45.457031 129.42153 46.134161 131.30391 47.484375 132.89648 C 48.846129 134.48904 50.750724 135.28516 53.197266 135.28516 C 54.628262 135.28516 56.186211 135.0353 57.871094 134.53906 L 57.576172 138.52148 C 55.93745 138.91385 54.319124 139.10938 52.726562 139.10938 C 48.768243 139.10938 45.753034 138.01901 43.675781 135.83789 C 41.610069 133.64524 40.576172 130.98484 40.576172 127.85742 C 40.576172 124.61459 41.672578 121.7929 43.865234 119.39258 C 46.06943 116.9922 49.088545 115.79297 52.919922 115.79297 z M 69.554688 116 C 74.851682 116 77.5 117.81385 77.5 121.4375 C 77.5 124.31103 75.986448 126.31046 72.962891 127.44141 L 72.962891 127.70312 C 74.128461 128.02625 75.150282 128.93726 76.027344 130.4375 C 76.904406 131.9262 78.087474 134.65922 79.576172 138.64062 L 74.453125 138.64062 C 73.114451 134.55538 72.086593 132.03598 71.371094 131.07812 C 70.655596 130.12028 69.502717 129.64062 67.910156 129.64062 C 67.240819 129.64062 66.599916 129.6467 65.988281 129.6582 C 65.988281 132.62406 66.038715 135.61707 66.142578 138.64062 L 61.332031 138.64062 C 61.482059 135.15547 61.556641 131.22924 61.556641 126.85547 C 61.556641 122.6548 61.482056 119.06938 61.332031 116.10352 L 64.326172 116.10352 C 64.67238 116.10352 65.393906 116.08733 66.490234 116.05273 C 67.598102 116.01813 68.619924 116 69.554688 116 z M 108.3125 116 C 112.47855 116 115.4957 117.03798 117.36523 119.11523 C 119.2463 121.19249 120.1875 123.68755 120.1875 126.5957 C 120.1875 129.87315 119.13745 132.73314 117.03711 135.17969 C 114.93679 137.62623 111.9942 138.85156 108.20898 138.85156 C 106.50101 138.85156 104.14696 138.77912 101.14648 138.64062 C 101.29648 135.15547 101.37109 131.22924 101.37109 126.85547 C 101.37109 122.6548 101.29651 119.06938 101.14648 116.10352 L 104.17578 116.10352 C 104.67202 116.10352 105.40969 116.08733 106.39062 116.05273 C 107.37155 116.01813 108.01245 116 108.3125 116 z M 82.449219 116.10352 L 96.505859 116.10352 L 96.316406 119.89453 C 92.854318 119.70983 89.71427 119.61719 86.898438 119.61719 C 87.013841 121.22129 87.072266 123.11381 87.072266 125.29492 C 89.484188 125.29492 92.063957 125.23241 94.810547 125.10547 L 94.810547 128.72461 C 92.110118 128.60917 89.530349 128.54883 87.072266 128.54883 C 87.072266 130.89152 87.118617 133.08431 87.210938 135.12695 C 90.37298 135.12695 93.742822 135.03016 97.320312 134.83398 L 97.181641 138.64062 L 82.449219 138.64062 C 82.599243 135.15547 82.675781 131.22924 82.675781 126.85547 C 82.675781 122.6548 82.599243 119.06938 82.449219 116.10352 z M 123.99609 116.10352 L 138.05273 116.10352 L 137.86133 119.89453 C 134.39924 119.70983 131.26114 119.61719 128.44531 119.61719 C 128.5607 121.22129 128.61719 123.11381 128.61719 125.29492 C 131.02911 125.29492 133.60888 125.23241 136.35547 125.10547 L 136.35547 128.72461 C 133.65504 128.60917 131.07528 128.54883 128.61719 128.54883 C 128.61719 130.89152 128.66356 133.08431 128.75586 135.12695 C 131.9179 135.12695 135.28773 135.03016 138.86523 134.83398 L 138.72656 138.64062 L 123.99609 138.64062 C 124.14608 135.15547 124.2207 131.22924 124.2207 126.85547 C 124.2207 122.6548 124.14611 119.06938 123.99609 116.10352 z M 161.24805 116.10352 L 166.14648 116.10352 C 166.00797 119.34634 165.9375 122.34734 165.9375 125.10547 L 174.73242 125.10547 C 174.73242 122.67046 174.66387 119.66948 174.52539 116.10352 L 179.42383 116.10352 C 179.2622 119.03476 179.18164 122.62018 179.18164 126.85547 C 179.18164 131.2754 179.26226 135.20163 179.42383 138.64062 L 174.52539 138.64062 C 174.64079 134.82079 174.69726 131.51132 174.69727 128.70703 L 165.97266 128.70703 C 165.97266 131.22281 166.03108 134.53229 166.14648 138.64062 L 161.24805 138.64062 C 161.39804 134.83234 161.47266 130.90611 161.47266 126.85547 C 161.47266 122.75867 161.39807 119.17324 161.24805 116.10352 z M 68.654297 119.27148 C 67.569509 119.27148 66.612151 119.35406 65.78125 119.51562 C 65.90819 121.30437 65.970703 123.63427 65.970703 126.50781 C 66.605419 126.53091 67.141546 126.54297 67.580078 126.54297 C 71.24989 126.54297 73.085938 125.26721 73.085938 122.7168 C 73.085938 120.42029 71.608612 119.27148 68.654297 119.27148 z M 107.60156 119.46289 C 107.10533 119.46289 106.42607 119.51333 105.56055 119.61719 C 105.67595 121.92526 105.73242 124.33968 105.73242 126.85547 C 105.73242 129.6136 105.79085 132.34858 105.90625 135.06055 C 106.65636 135.21055 107.40614 135.28516 108.15625 135.28516 C 110.63742 135.28516 112.47151 134.51729 113.66016 132.98242 C 114.86034 131.43602 115.46094 129.55557 115.46094 127.33984 C 115.46094 125.1241 114.81596 123.25787 113.52344 121.74609 C 112.23094 120.22277 110.25583 119.46289 107.60156 119.46289 z M 126.13281 147.4707 C 126.55734 147.4707 126.92724 147.50868 127.23828 147.58008 L 127.01172 148.70117 C 126.77214 148.64237 126.52564 148.61328 126.27344 148.61328 C 125.97081 148.61328 125.76193 148.74992 125.64844 149.02734 C 125.53488 149.30475 125.47852 149.8459 125.47852 150.64453 C 125.85261 150.64453 126.36773 150.62735 127.02344 150.59375 L 126.97266 151.8457 C 126.31694 151.8205 125.81898 151.81055 125.47852 151.81055 C 125.47852 153.39518 125.51112 154.96597 125.57422 156.52539 L 123.9082 156.52539 C 123.9713 154.98699 124.00195 153.4162 124.00195 151.81055 C 123.75396 151.81055 123.38797 151.8205 122.90039 151.8457 L 122.95117 150.59961 C 123.39672 150.62891 123.74555 150.64258 124.00195 150.64258 C 124.00195 148.52833 124.7121 147.4707 126.13281 147.4707 z M 98.208984 147.60938 C 98.141728 148.58875 98.109375 149.99714 98.109375 151.83398 C 98.109375 153.69603 98.155577 155.2566 98.248047 156.51758 L 96.751953 156.56836 C 96.722523 156.42124 96.710938 156.2691 96.710938 156.10938 L 96.615234 156.10938 C 96.152873 156.50869 95.560559 156.70898 94.841797 156.70898 C 94.034767 156.70898 93.394892 156.41432 92.919922 155.83008 C 92.444951 155.24582 92.208984 154.55282 92.208984 153.75 C 92.208984 152.82949 92.465418 152.02859 92.982422 151.34766 C 93.499426 150.66253 94.218153 150.32227 95.138672 150.32227 C 95.735538 150.32227 96.182035 150.43153 96.480469 150.6543 L 96.570312 150.6543 C 96.570312 149.66233 96.522461 148.66475 96.425781 147.66016 L 98.208984 147.60938 z M 141.50586 147.63477 L 143.1582 147.63477 C 143.1582 147.68101 143.35655 148.01824 143.75586 148.64453 C 144.15518 149.26662 144.35547 149.61249 144.35547 149.67969 L 143.37891 149.67969 C 143.37891 149.61244 143.02978 149.20325 142.33203 148.45508 C 141.63428 149.20325 141.28516 149.61249 141.28516 149.67969 L 140.30664 149.67969 C 140.30664 149.61244 140.50889 149.26662 140.9082 148.64453 C 141.30752 148.01824 141.50586 147.68097 141.50586 147.63477 z M 160.15039 147.69922 C 160.44882 147.69922 160.67622 147.79162 160.83594 147.97656 C 160.99985 148.15731 161.08203 148.37446 161.08203 148.63086 C 161.08203 148.91669 160.98272 149.16844 160.78516 149.38281 C 160.59181 149.59718 160.32348 149.70312 159.97461 149.70312 C 159.68038 149.70312 159.44743 149.61072 159.2793 149.42578 C 159.1154 149.24083 159.03516 149.01841 159.03516 148.75781 C 159.03516 148.47199 159.12893 148.22384 159.32227 148.01367 C 159.51983 147.80351 159.79731 147.69922 160.15039 147.69922 z M 56.226562 148.20312 C 56.739363 148.20312 57.223484 148.26122 57.681641 148.37891 L 57.460938 149.83594 C 56.96495 149.67615 56.489111 149.5957 56.035156 149.5957 C 55.18189 149.5957 54.548937 149.86597 54.132812 150.4082 C 53.716687 150.94622 53.507813 151.60355 53.507812 152.37695 C 53.507812 153.16716 53.754309 153.85159 54.246094 154.43164 C 54.742081 155.01169 55.435076 155.30273 56.326172 155.30273 C 56.847379 155.30273 57.415618 155.212 58.029297 155.03125 L 57.919922 156.48242 C 57.323056 156.6254 56.736303 156.69531 56.15625 156.69531 C 54.714525 156.69531 53.615966 156.29833 52.859375 155.50391 C 52.106987 154.70529 51.730469 153.73675 51.730469 152.59766 C 51.730469 151.41654 52.129111 150.38796 52.927734 149.51367 C 53.730561 148.63939 54.831072 148.20312 56.226562 148.20312 z M 112.19531 148.27734 C 114.12462 148.27734 115.08789 148.93798 115.08789 150.25781 C 115.08789 151.30443 114.53681 152.03534 113.43555 152.44727 L 113.43555 152.53906 C 113.86008 152.65674 114.23328 152.99068 114.55273 153.53711 C 114.87219 154.07933 115.30153 155.07526 115.84375 156.52539 L 113.97852 156.52539 C 113.49094 155.03743 113.11607 154.11841 112.85547 153.76953 C 112.59487 153.42066 112.17381 153.24609 111.59375 153.24609 C 111.34997 153.24609 111.11731 153.24795 110.89453 153.25195 C 110.89453 154.33219 110.91337 155.42413 110.95117 156.52539 L 109.19922 156.52539 C 109.25382 155.25599 109.28125 153.82546 109.28125 152.23242 C 109.28125 150.70243 109.25382 149.39666 109.19922 148.31641 L 110.29102 148.31641 C 110.41711 148.31641 110.67882 148.30948 111.07812 148.29688 C 111.48165 148.28457 111.85484 148.2793 112.19531 148.2793 L 112.19531 148.27734 z M 74.900391 148.70117 C 74.837341 149.53763 74.806641 150.18637 74.806641 150.64453 C 75.159716 150.64453 75.686724 150.62735 76.388672 150.59375 L 76.337891 151.8457 C 75.698993 151.8205 75.180562 151.81055 74.78125 151.81055 C 74.77289 152.36959 74.767578 152.95469 74.767578 153.56836 C 74.767578 154.31655 74.844776 154.81977 74.996094 155.07617 C 75.147413 155.32837 75.412423 155.45312 75.794922 155.45312 C 76.026103 155.45312 76.274255 155.4171 76.539062 155.3457 L 76.433594 156.46875 C 76.139365 156.59479 75.767814 156.6582 75.322266 156.6582 C 74.641334 156.6582 74.129825 156.47145 73.785156 156.10156 C 73.440487 155.73168 73.267578 155.01986 73.267578 153.96484 C 73.267578 153.33014 73.270897 152.61337 73.279297 151.81055 C 73.06493 151.81055 72.775842 151.8205 72.410156 151.8457 L 72.455078 150.60547 C 72.778731 150.63077 73.078053 150.64453 73.355469 150.64453 C 73.359669 150.42175 73.37682 149.83471 73.40625 148.88477 L 74.900391 148.70117 z M 111.86523 149.46875 C 111.47012 149.46875 111.12294 149.49979 110.82031 149.55859 C 110.86651 150.2101 110.88867 151.05885 110.88867 152.10547 C 111.11985 152.11407 111.31684 152.11719 111.47656 152.11719 C 112.81321 152.11719 113.48047 151.65353 113.48047 150.72461 C 113.48047 149.88815 112.94127 149.4707 111.86523 149.4707 L 111.86523 149.46875 z M 85.486328 150.25781 C 86.322781 150.25781 87.039852 150.53532 87.636719 151.08594 C 88.237788 151.63237 88.537109 152.4006 88.537109 153.39258 C 88.537109 154.4518 88.212056 155.27812 87.560547 155.875 C 86.909038 156.47186 86.142455 156.76953 85.259766 156.76953 C 84.419109 156.76953 83.696771 156.50121 83.095703 155.95898 C 82.494633 155.41256 82.195312 154.64597 82.195312 153.6582 C 82.195312 152.59477 82.523976 151.76123 83.179688 151.16016 C 83.835399 150.55909 84.603639 150.25781 85.486328 150.25781 z M 61.923828 150.27734 C 62.814924 150.27734 63.477218 150.51857 63.910156 151.00195 C 64.343094 151.48533 64.560547 152.11332 64.560547 152.88672 C 64.560547 153.10109 64.546704 153.37994 64.521484 153.72461 L 60.462891 153.79492 C 60.521738 154.2699 60.725346 154.66523 61.074219 154.98047 C 61.423091 155.29572 61.879822 155.45312 62.447266 155.45312 C 63.077758 155.45312 63.750583 155.35907 64.460938 155.16992 L 64.333984 156.39258 C 63.753931 156.60275 63.033251 156.70898 62.175781 156.70898 C 61.091334 156.70898 60.25974 156.40439 59.679688 155.79492 C 59.103837 155.18544 58.818359 154.45122 58.818359 153.59375 C 58.818359 152.69845 59.090292 151.9233 59.636719 151.26758 C 60.187348 150.60767 60.948667 150.27734 61.923828 150.27734 z M 102.42773 150.27734 C 103.31883 150.27734 103.98111 150.51857 104.41406 151.00195 C 104.84699 151.48533 105.0625 152.11332 105.0625 152.88672 C 105.0625 153.10109 105.05059 153.37994 105.02539 153.72461 L 100.96484 153.79492 C 101.02369 154.2699 101.2273 154.66523 101.57617 154.98047 C 101.92505 155.29572 102.38373 155.45312 102.95117 155.45312 C 103.58167 155.45312 104.25059 155.35907 104.96094 155.16992 L 104.83594 156.39258 C 104.25589 156.60275 103.53716 156.70898 102.67969 156.70898 C 101.59524 156.70898 100.76364 156.40439 100.18359 155.79492 C 99.607745 155.18544 99.318359 154.45122 99.318359 153.59375 C 99.318359 152.69845 99.592244 151.9233 100.13867 151.26758 C 100.6893 150.60767 101.45257 150.27734 102.42773 150.27734 z M 119.52734 150.27734 C 120.41843 150.27734 121.07878 150.51857 121.51172 151.00195 C 121.94466 151.48533 122.16211 152.11332 122.16211 152.88672 C 122.16211 153.10109 122.14825 153.37994 122.12305 153.72461 L 118.06445 153.79492 C 118.12329 154.2699 118.3269 154.66523 118.67578 154.98047 C 119.02465 155.29572 119.48139 155.45312 120.04883 155.45312 C 120.67933 155.45312 121.35215 155.35907 122.0625 155.16992 L 121.93555 156.39258 C 121.35549 156.60275 120.6348 156.70898 119.77734 156.70898 C 118.69289 156.70898 117.8613 156.40439 117.28125 155.79492 C 116.7054 155.18544 116.41992 154.45122 116.41992 153.59375 C 116.41992 152.69845 116.69185 151.9233 117.23828 151.26758 C 117.78891 150.60767 118.55217 150.27734 119.52734 150.27734 z M 130.80078 150.27734 C 131.69187 150.27734 132.35223 150.51857 132.78516 151.00195 C 133.2181 151.48533 133.43555 152.11332 133.43555 152.88672 C 133.43555 153.10109 133.42364 153.37994 133.39844 153.72461 L 129.33789 153.79492 C 129.39673 154.2699 129.60035 154.66523 129.94922 154.98047 C 130.2981 155.29572 130.75482 155.45312 131.32227 155.45312 C 131.95276 155.45312 132.62363 155.35907 133.33398 155.16992 L 133.20703 156.39258 C 132.62698 156.60275 131.90825 156.70898 131.05078 156.70898 C 129.96634 156.70898 129.13475 156.40439 128.55469 155.79492 C 127.97885 155.18544 127.69141 154.45122 127.69141 153.59375 C 127.69141 152.69845 127.96335 151.9233 128.50977 151.26758 C 129.0604 150.60767 129.82562 150.27734 130.80078 150.27734 z M 142.375 150.27734 C 143.2661 150.27734 143.9284 150.51857 144.36133 151.00195 C 144.79428 151.48533 145.01172 152.11332 145.01172 152.88672 C 145.01172 153.10109 144.99786 153.37994 144.97266 153.72461 L 140.91406 153.79492 C 140.97291 154.2699 141.17652 154.66523 141.52539 154.98047 C 141.87426 155.29572 142.33099 155.45312 142.89844 155.45312 C 143.52892 155.45312 144.20176 155.35907 144.91211 155.16992 L 144.7832 156.39258 C 144.20314 156.60275 143.48442 156.70898 142.62695 156.70898 C 141.5425 156.70898 140.71092 156.40439 140.13086 155.79492 C 139.55501 155.18544 139.26758 154.45122 139.26758 153.59375 C 139.26758 152.69845 139.54146 151.9233 140.08789 151.26758 C 140.63851 150.60767 141.39984 150.27734 142.375 150.27734 z M 156.4043 150.32227 C 156.92131 150.32227 157.38165 150.38036 157.78516 150.49805 L 157.57031 151.78516 C 157.18361 151.62536 156.75065 151.54492 156.27148 151.54492 C 155.76288 151.54492 155.36064 151.72446 155.06641 152.08594 C 154.77218 152.44322 154.625 152.8867 154.625 153.41211 C 154.625 153.98376 154.80152 154.46622 155.15039 154.86133 C 155.49926 155.25643 155.99196 155.45312 156.63086 155.45312 C 157.00496 155.45312 157.47056 155.36931 158.02539 155.20117 L 157.91602 156.40625 C 157.53353 156.60801 157.0151 156.70898 156.35938 156.70898 C 155.27493 156.70898 154.44168 156.40606 153.85742 155.80078 C 153.27737 155.19552 152.98633 154.4682 152.98633 153.61914 C 152.98633 152.73645 153.29093 151.96822 153.90039 151.3125 C 154.50987 150.65259 155.34508 150.32227 156.4043 150.32227 z M 69.25 150.32812 C 69.897306 150.32812 70.416032 150.48222 70.802734 150.78906 C 71.19364 151.0917 71.388672 151.65301 71.388672 152.47266 C 71.388672 152.59454 71.381761 152.75888 71.369141 152.96484 C 71.360721 153.1666 71.357422 153.37352 71.357422 153.58789 C 71.357422 154.15533 71.367652 155.13605 71.388672 156.52734 L 69.710938 156.52734 C 69.803404 155.46391 69.851562 154.38553 69.851562 153.29688 C 69.851562 152.63696 69.752242 152.19047 69.554688 151.95508 C 69.361337 151.7197 69.065328 151.59961 68.666016 151.59961 C 68.186841 151.59961 67.733423 151.76395 67.304688 152.0918 C 67.325677 153.73109 67.333984 155.21171 67.333984 156.52734 L 65.638672 156.52734 C 65.714328 155.21171 65.751953 154.17622 65.751953 153.42383 C 65.751953 152.41924 65.647367 151.47118 65.441406 150.58008 L 67.058594 150.4043 L 67.164062 151.07227 L 67.265625 151.07227 C 67.841475 150.57627 68.501815 150.32812 69.25 150.32812 z M 80.632812 150.32812 C 80.935448 150.32812 81.276001 150.39645 81.654297 150.53516 L 81.287109 152.01172 C 80.976066 151.88569 80.661246 151.82031 80.341797 151.82031 C 79.723915 151.82031 79.314741 152.09946 79.117188 152.6543 C 79.117187 154.33141 79.13103 155.62169 79.15625 156.52539 L 77.478516 156.52539 C 77.549973 155.2602 77.585938 154.22665 77.585938 153.42383 C 77.585938 152.42345 77.481647 151.47539 77.271484 150.58008 L 78.878906 150.4043 C 78.950364 150.86666 78.986328 151.137 78.986328 151.2168 L 79.085938 151.2168 C 79.472639 150.62414 79.989711 150.32812 80.632812 150.32812 z M 137.70312 150.32812 C 138.00576 150.32812 138.34631 150.39645 138.72461 150.53516 L 138.35938 152.01172 C 138.04835 151.8857 137.73157 151.82227 137.41211 151.82227 C 136.79423 151.82227 136.38897 152.09947 136.19141 152.6543 C 136.19141 154.33142 136.20136 155.62364 136.22656 156.52734 L 134.55273 156.52734 C 134.62416 155.26215 134.6582 154.22665 134.6582 153.42383 C 134.6582 152.42345 134.55392 151.47539 134.34375 150.58008 L 135.95117 150.4043 C 136.02264 150.86666 136.05859 151.137 136.05859 151.2168 L 136.16016 151.2168 C 136.54686 150.62414 137.06002 150.32812 137.70312 150.32812 z M 149.70117 150.32812 C 150.34847 150.32812 150.86721 150.48222 151.25391 150.78906 C 151.64482 151.0917 151.83984 151.65301 151.83984 152.47266 C 151.83984 152.59454 151.83291 152.75888 151.82031 152.96484 C 151.81171 153.1666 151.80664 153.37352 151.80664 153.58789 C 151.80664 154.15533 151.81884 155.13605 151.83984 156.52734 L 150.16211 156.52734 C 150.25465 155.46391 150.30078 154.38553 150.30078 153.29688 C 150.30078 152.63696 150.20342 152.19047 150.00586 151.95508 C 149.81251 151.7197 149.5165 151.59961 149.11719 151.59961 C 148.63801 151.59961 148.18264 151.76395 147.75391 152.0918 C 147.77491 153.73109 147.78516 155.21171 147.78516 156.52734 L 146.08984 156.52734 C 146.16554 155.21171 146.20312 154.17622 146.20312 153.42383 C 146.20312 152.41924 146.09854 151.47118 145.89258 150.58008 L 147.50977 150.4043 L 147.61523 151.07227 L 147.7168 151.07227 C 148.29265 150.57627 148.95298 150.32812 149.70117 150.32812 z M 164.82227 150.32812 C 165.58307 150.32812 166.16816 150.48719 166.58008 150.80664 C 166.99621 151.12609 167.20508 151.68574 167.20508 152.48438 C 167.20508 152.66091 167.19649 152.98265 167.17969 153.44922 C 167.16739 153.91579 167.16016 154.22728 167.16016 154.38281 C 167.16016 155.25288 167.22683 155.96469 167.36133 156.51953 L 165.87305 156.56836 C 165.80573 156.39181 165.77344 156.23275 165.77344 156.08984 L 165.69141 156.08984 C 165.22905 156.48495 164.60438 156.68359 163.81836 156.68359 C 163.29295 156.68359 162.85668 156.53807 162.50781 156.24805 C 162.16314 155.95381 161.99022 155.56541 161.99023 155.08203 C 161.99023 154.44313 162.2608 153.91944 162.79883 153.51172 C 163.34104 153.104 164.28716 152.88653 165.64062 152.86133 C 165.64923 152.78568 165.65234 152.71564 165.65234 152.64844 C 165.65234 152.19449 165.54473 151.89683 165.32617 151.75391 C 165.10759 151.60679 164.70535 151.5332 164.12109 151.5332 C 163.4864 151.5332 162.867 151.61702 162.26172 151.78516 L 162.40039 150.625 C 162.97204 150.42743 163.77985 150.32812 164.82227 150.32812 z M 160.78516 150.41016 C 160.73056 151.2256 160.70312 152.26412 160.70312 153.5293 C 160.70312 154.60955 160.73417 155.61102 160.79297 156.52734 L 159.0957 156.52734 C 159.1546 155.65726 159.18555 154.65579 159.18555 153.5293 C 159.18555 152.41124 159.11361 151.43441 158.9707 150.59375 L 160.78516 150.41016 z M 61.849609 151.38086 C 61.063595 151.38086 60.598287 151.88048 60.451172 152.88086 L 63.083984 152.83008 C 63.083984 151.86333 62.673452 151.38086 61.849609 151.38086 z M 102.35352 151.38086 C 101.56751 151.38086 101.09829 151.88048 100.95117 152.88086 L 103.58789 152.83008 C 103.58789 151.86333 103.17737 151.38086 102.35352 151.38086 z M 119.45117 151.38086 C 118.66516 151.38086 118.19984 151.88048 118.05273 152.88086 L 120.6875 152.83008 C 120.6875 151.86333 120.27501 151.38086 119.45117 151.38086 z M 130.72461 151.38086 C 129.9386 151.38086 129.47133 151.88048 129.32422 152.88086 L 131.96094 152.83008 C 131.96094 151.86333 131.54846 151.38086 130.72461 151.38086 z M 142.30078 151.38086 C 141.51476 151.38086 141.0475 151.88048 140.90039 152.88086 L 143.53516 152.83008 C 143.53516 151.86333 143.12462 151.38086 142.30078 151.38086 z M 85.347656 151.42383 C 84.902108 151.42383 84.537478 151.61916 84.255859 152.00586 C 83.978441 152.39257 83.839844 152.87503 83.839844 153.45508 C 83.839844 154.06456 83.983708 154.57802 84.269531 154.99414 C 84.555354 155.40607 84.928561 155.61133 85.386719 155.61133 C 85.832267 155.61133 86.193285 155.41796 86.470703 155.03125 C 86.752322 154.64455 86.892578 154.16013 86.892578 153.58008 C 86.892578 152.97061 86.748715 152.4627 86.462891 152.05078 C 86.177068 151.63465 85.805814 151.42383 85.347656 151.42383 z M 95.53125 151.45703 C 94.976418 151.45703 94.563933 151.66229 94.294922 152.07422 C 94.025913 152.48614 93.890625 152.99102 93.890625 153.58789 C 93.890625 154.1175 94.020646 154.57424 94.28125 154.96094 C 94.541853 155.34344 94.902873 155.53711 95.365234 155.53711 C 95.983117 155.53711 96.418022 155.38632 96.666016 155.08789 C 96.666016 153.74704 96.633363 152.63825 96.570312 151.75977 C 96.280286 151.558 95.934766 151.45703 95.53125 151.45703 z M 165.64062 153.73828 C 164.20731 153.73828 163.49219 154.10291 163.49219 154.83008 C 163.49219 155.33027 163.80701 155.58008 164.4375 155.58008 C 164.93349 155.58008 165.34568 155.45503 165.67773 155.20703 C 165.65253 154.63959 165.64062 154.1502 165.64062 153.73828 z M 178.29492 162.45898 L 179.42383 162.45898 C 179.42383 162.74901 179.05092 164.49113 178.30273 167.68555 C 177.55455 170.87585 177.17773 172.82681 177.17773 173.53711 L 176.03711 173.53711 C 176.03711 173.26391 176.41363 171.54928 177.16602 168.39258 C 177.9184 165.2318 178.29492 163.25341 178.29492 162.45898 z M 86.841797 162.66602 C 86.778757 163.85555 86.748046 165.28278 86.748047 166.94727 C 86.748047 168.63691 86.778747 170.19951 86.841797 171.63281 L 85.121094 171.63281 C 85.184134 170.19111 85.214844 168.62861 85.214844 166.94727 C 85.214844 165.308 85.149833 163.91507 85.019531 162.76758 L 86.841797 162.66602 z M 153.71875 162.74219 L 155.42773 162.74219 C 155.42773 162.79264 155.13865 163.12987 154.55859 163.75195 C 153.97854 164.37404 153.68555 164.71786 153.68555 164.78516 L 152.58398 164.78516 C 152.58398 164.7179 152.77404 164.37404 153.15234 163.75195 C 153.53063 163.12567 153.71875 162.78839 153.71875 162.74219 z M 62.195312 162.80664 C 62.493744 162.80664 62.723087 162.89903 62.882812 163.08398 C 63.046737 163.26472 63.128906 163.48384 63.128906 163.74023 C 63.128906 164.02606 63.031538 164.27587 62.833984 164.49023 C 62.640633 164.7046 62.368403 164.81055 62.019531 164.81055 C 61.725302 164.81055 61.494303 164.7201 61.326172 164.53516 C 61.162247 164.35021 61.080078 164.12583 61.080078 163.86523 C 61.080078 163.5794 61.177742 163.33322 61.371094 163.12305 C 61.568648 162.91289 61.842236 162.80664 62.195312 162.80664 z M 40.576172 163.42383 L 42.449219 163.42383 C 42.449219 163.64661 42.969602 164.53658 44.007812 166.0918 C 45.113276 167.74363 45.746229 168.86267 45.910156 169.45117 L 46.003906 169.45117 C 45.903027 168.51387 45.853517 167.67369 45.853516 166.92969 C 45.853516 165.7906 45.824465 164.62178 45.765625 163.42383 L 47.341797 163.42383 C 47.282957 164.46626 47.253906 165.77007 47.253906 167.33789 C 47.253906 168.91837 47.282957 170.35081 47.341797 171.63281 L 45.785156 171.63281 C 45.785156 171.46041 45.204731 170.55004 44.048828 168.90234 C 42.838283 167.16636 42.150553 165.97873 41.982422 165.33984 L 41.882812 165.33984 C 41.987892 166.26035 42.039062 167.09196 42.039062 167.83594 C 42.039062 168.87414 42.070066 170.14061 42.128906 171.63281 L 40.576172 171.63281 C 40.639212 170.32981 40.671875 168.89727 40.671875 167.33789 C 40.671875 165.80369 40.639222 164.49988 40.576172 163.42383 z M 111.44336 163.42383 L 113.22852 163.42383 C 113.17812 164.60497 113.15234 165.69853 113.15234 166.70312 L 116.35547 166.70312 C 116.35547 165.81624 116.3298 164.72265 116.2793 163.42383 L 118.06445 163.42383 C 118.00555 164.49147 117.97461 165.79529 117.97461 167.33789 C 117.97461 168.94767 118.00565 170.38021 118.06445 171.63281 L 116.2793 171.63281 C 116.3214 170.24161 116.3418 169.03692 116.3418 168.01562 L 113.16602 168.01562 C 113.16602 168.93192 113.18642 170.13641 113.22852 171.63281 L 111.44336 171.63281 C 111.49796 170.24571 111.52734 168.81317 111.52734 167.33789 C 111.52734 165.84572 111.49796 164.54191 111.44336 163.42383 z M 67.304688 165.36523 C 68.141141 165.36523 68.856258 165.64078 69.453125 166.19141 C 70.054194 166.73783 70.355469 167.50617 70.355469 168.49805 C 70.355469 169.55735 70.030414 170.38757 69.378906 170.98438 C 68.727397 171.58118 67.956908 171.87891 67.074219 171.87891 C 66.233563 171.87891 65.515131 171.60871 64.914062 171.06641 C 64.312994 170.52011 64.013672 169.75147 64.013672 168.76367 C 64.013672 167.70037 64.338429 166.86865 64.994141 166.26758 C 65.649853 165.66651 66.421999 165.36523 67.304688 165.36523 z M 93.927734 165.38477 C 94.81883 165.38477 95.481126 165.62796 95.914062 166.11133 C 96.347001 166.59471 96.564453 167.22267 96.564453 167.99609 C 96.564453 168.21049 96.550611 168.48938 96.525391 168.83398 L 92.466797 168.90234 C 92.525644 169.37724 92.729253 169.77259 93.078125 170.08789 C 93.426997 170.40319 93.883729 170.5625 94.451172 170.5625 C 95.081664 170.5625 95.75449 170.46654 96.464844 170.27734 L 96.337891 171.50195 C 95.757839 171.71205 95.037158 171.81445 94.179688 171.81445 C 93.095241 171.81445 92.263647 171.50979 91.683594 170.90039 C 91.107744 170.29089 90.822266 169.55867 90.822266 168.70117 C 90.822266 167.80587 91.094198 167.03068 91.640625 166.375 C 92.191255 165.71509 92.952573 165.38477 93.927734 165.38477 z M 141.41602 165.38477 C 142.30712 165.38477 142.97136 165.62796 143.4043 166.11133 C 143.83723 166.59471 144.05273 167.22267 144.05273 167.99609 C 144.05273 168.21049 144.03887 168.48938 144.01367 168.83398 L 139.95508 168.90234 C 140.01393 169.37724 140.21754 169.77259 140.56641 170.08789 C 140.91529 170.40319 141.372 170.5625 141.93945 170.5625 C 142.56994 170.5625 143.24276 170.46654 143.95312 170.27734 L 143.82617 171.50195 C 143.24612 171.71205 142.52544 171.81445 141.66797 171.81445 C 140.58353 171.81445 139.75388 171.50979 139.17383 170.90039 C 138.59797 170.29089 138.31055 169.55867 138.31055 168.70117 C 138.31055 167.80587 138.58249 167.03068 139.12891 166.375 C 139.67955 165.71509 140.44087 165.38477 141.41602 165.38477 z M 170.14258 165.38477 C 171.03367 165.38477 171.69597 165.62796 172.12891 166.11133 C 172.56184 166.59471 172.77734 167.22267 172.77734 167.99609 C 172.77734 168.21049 172.76543 168.48938 172.74023 168.83398 L 168.68164 168.90234 C 168.74048 169.37724 168.94215 169.77259 169.29102 170.08789 C 169.63989 170.40319 170.09858 170.5625 170.66602 170.5625 C 171.29652 170.5625 171.96737 170.46654 172.67773 170.27734 L 172.55078 171.50195 C 171.97073 171.71205 171.252 171.81445 170.39453 171.81445 C 169.31009 171.81445 168.47849 171.50979 167.89844 170.90039 C 167.32258 170.29089 167.03516 169.55867 167.03516 168.70117 C 167.03516 167.80587 167.30709 167.03068 167.85352 166.375 C 168.40415 165.71509 169.16742 165.38477 170.14258 165.38477 z M 135.43359 165.41797 C 136.17757 165.41797 136.76102 165.48104 137.18555 165.61133 L 136.97266 166.85938 C 136.49768 166.67437 135.98422 166.58398 135.43359 166.58398 C 134.76106 166.58398 134.42578 166.75496 134.42578 167.09961 C 134.42578 167.27621 134.49576 167.42 134.63867 167.5293 C 134.78159 167.6344 135.07623 167.76774 135.51758 167.93164 C 136.12704 168.15444 136.56829 168.38384 136.8457 168.61914 C 137.24081 168.95544 137.4375 169.38661 137.4375 169.91211 C 137.4375 171.17301 136.50493 171.80273 134.63867 171.80273 C 133.95774 171.80273 133.36406 171.72913 132.85547 171.58203 L 133.07031 170.3418 C 133.59572 170.5316 134.11746 170.62305 134.63867 170.62305 C 135.14306 170.62305 135.49415 170.58205 135.6875 170.49805 C 135.88507 170.41395 135.98438 170.27377 135.98438 170.07617 C 135.98437 169.76937 135.62997 169.47467 134.92383 169.19727 C 134.30595 168.95347 133.85584 168.71577 133.57422 168.48047 C 133.18752 168.15257 132.99414 167.75228 132.99414 167.27734 C 132.99414 166.71828 133.20301 166.26626 133.61914 165.92578 C 134.03526 165.58532 134.63916 165.41797 135.43359 165.41797 z M 164.16016 165.41797 C 164.90413 165.41797 165.48759 165.48104 165.91211 165.61133 L 165.69727 166.85938 C 165.22229 166.67437 164.71079 166.58398 164.16016 166.58398 C 163.48763 166.58398 163.15039 166.75496 163.15039 167.09961 C 163.15039 167.27621 163.22233 167.42 163.36523 167.5293 C 163.50815 167.6344 163.79889 167.76774 164.24023 167.93164 C 164.8497 168.15444 165.29486 168.38384 165.57227 168.61914 C 165.96738 168.95544 166.16406 169.38661 166.16406 169.91211 C 166.16406 171.17301 165.2315 171.80273 163.36523 171.80273 C 162.68431 171.80273 162.09063 171.72913 161.58203 171.58203 L 161.79492 170.3418 C 162.32033 170.5316 162.84403 170.62305 163.36523 170.62305 C 163.86964 170.62305 164.21875 170.58205 164.41211 170.49805 C 164.60968 170.41395 164.70703 170.27377 164.70703 170.07617 C 164.70703 169.76937 164.35459 169.47467 163.64844 169.19727 C 163.03056 168.95347 162.58239 168.71577 162.30078 168.48047 C 161.91407 168.15257 161.71875 167.75228 161.71875 167.27734 C 161.71875 166.71828 161.92567 166.26626 162.3418 165.92578 C 162.75792 165.58532 163.36574 165.41797 164.16016 165.41797 z M 58.451172 165.42969 C 58.968175 165.42969 59.428516 165.48778 59.832031 165.60547 L 59.617188 166.89062 C 59.230486 166.73084 58.797533 166.65039 58.318359 166.65039 C 57.809762 166.65039 57.409464 166.83195 57.115234 167.19336 C 56.821004 167.55076 56.673828 167.99218 56.673828 168.51758 C 56.673828 169.08928 56.84644 169.57365 57.195312 169.96875 C 57.544185 170.36375 58.038835 170.5625 58.677734 170.5625 C 59.051826 170.5625 59.515479 170.47669 60.070312 170.30859 L 59.964844 171.51367 C 59.582345 171.71537 59.061963 171.81445 58.40625 171.81445 C 57.321803 171.81445 56.488553 171.5135 55.904297 170.9082 C 55.324244 170.3029 55.035156 169.57566 55.035156 168.72656 C 55.035156 167.84376 55.339743 167.07371 55.949219 166.41797 C 56.558695 165.75805 57.391945 165.42969 58.451172 165.42969 z M 51.535156 165.43555 C 52.295951 165.43555 52.881047 165.59657 53.292969 165.91602 C 53.709094 166.23548 53.916016 166.79318 53.916016 167.5918 C 53.916016 167.7683 53.909388 168.08799 53.892578 168.55469 C 53.880048 169.02119 53.875 169.33278 53.875 169.48828 C 53.875 170.35838 53.941667 171.07215 54.076172 171.62695 L 52.587891 171.67773 C 52.520636 171.50123 52.488281 171.34017 52.488281 171.19727 L 52.404297 171.19727 C 51.941937 171.59237 51.319217 171.79102 50.533203 171.79102 C 50.007793 171.79102 49.569575 171.64547 49.220703 171.35547 C 48.876034 171.06117 48.705078 170.6709 48.705078 170.1875 C 48.705078 169.5486 48.971747 169.02684 49.509766 168.61914 C 50.051989 168.21144 51.000059 167.9967 52.353516 167.9707 C 52.361876 167.8951 52.367188 167.82286 52.367188 167.75586 C 52.367188 167.30196 52.255679 167.00429 52.037109 166.86133 C 51.818538 166.7142 51.420194 166.63867 50.835938 166.63867 C 50.201242 166.63867 49.579882 166.72249 48.974609 166.89062 L 49.113281 165.73047 C 49.684927 165.5329 50.492742 165.43555 51.535156 165.43555 z M 75.052734 165.43555 C 75.700039 165.43555 76.216814 165.58964 76.603516 165.89648 C 76.994421 166.19912 77.189453 166.75847 77.189453 167.57812 C 77.189453 167.70002 77.184485 167.86431 77.171875 168.07031 C 77.163515 168.27201 77.158203 168.48101 77.158203 168.69531 C 77.158203 169.26281 77.168433 170.24161 77.189453 171.63281 L 75.513672 171.63281 C 75.606142 170.56931 75.650391 169.493 75.650391 168.4043 C 75.650391 167.7444 75.55107 167.2979 75.353516 167.0625 C 75.160165 166.82711 74.864157 166.70898 74.464844 166.70898 C 73.98567 166.70898 73.532251 166.87337 73.103516 167.20117 C 73.124506 168.84047 73.134766 170.31711 73.134766 171.63281 L 71.439453 171.63281 C 71.515111 170.31711 71.550781 169.2816 71.550781 168.5293 C 71.550781 167.5247 71.450102 166.57859 71.244141 165.6875 L 72.857422 165.50977 L 72.964844 166.17773 L 73.066406 166.17773 C 73.642255 165.68174 74.30455 165.43555 75.052734 165.43555 z M 81.191406 165.43555 C 81.9522 165.43555 82.53925 165.59657 82.951172 165.91602 C 83.367298 166.23548 83.576172 166.79318 83.576172 167.5918 C 83.576172 167.7683 83.567591 168.08799 83.550781 168.55469 C 83.538111 169.02119 83.533203 169.33278 83.533203 169.48828 C 83.533203 170.35838 83.59987 171.07215 83.734375 171.62695 L 82.246094 171.67773 C 82.178837 171.50123 82.144531 171.34017 82.144531 171.19727 L 82.0625 171.19727 C 81.600139 171.59237 80.97742 171.79102 80.191406 171.79102 C 79.665996 171.79102 79.227778 171.64547 78.878906 171.35547 C 78.534237 171.06117 78.363281 170.6709 78.363281 170.1875 C 78.363281 169.5486 78.629949 169.02684 79.167969 168.61914 C 79.710192 168.21144 80.658262 167.9967 82.011719 167.9707 C 82.020079 167.8951 82.025391 167.82286 82.025391 167.75586 C 82.025391 167.30196 81.915836 167.00429 81.697266 166.86133 C 81.478695 166.7142 81.076443 166.63867 80.492188 166.63867 C 79.857491 166.63867 79.238085 166.72249 78.632812 166.89062 L 78.771484 165.73047 C 79.34313 165.5329 80.148992 165.43555 81.191406 165.43555 z M 101.11719 165.43555 C 101.97466 165.43555 102.57691 165.68174 102.92578 166.17773 L 103.02734 166.17773 C 103.64942 165.68174 104.26552 165.43555 104.875 165.43555 C 105.58956 165.43555 106.1268 165.5913 106.48828 165.90234 C 106.85398 166.20918 107.03711 166.76688 107.03711 167.57812 C 107.03711 167.65793 107.03339 167.81216 107.02539 168.03906 C 107.01679 168.26196 107.01172 168.41414 107.01172 168.49414 C 107.01172 169.19614 107.02031 170.24161 107.03711 171.63281 L 105.36719 171.63281 C 105.45551 170.56931 105.49805 169.5338 105.49805 168.5293 C 105.49805 167.7769 105.40039 167.28784 105.20703 167.05664 C 105.01368 166.82543 104.70578 166.70898 104.28125 166.70898 C 103.94078 166.70898 103.58142 166.83399 103.20312 167.08203 C 103.18592 167.60733 103.17773 168.07794 103.17773 168.49414 C 103.17773 169.19614 103.1916 170.24161 103.2168 171.63281 L 101.52539 171.63281 C 101.61785 170.48111 101.66406 169.36018 101.66406 168.27148 C 101.66406 167.70828 101.58355 167.30796 101.42383 167.06836 C 101.2683 166.82878 100.94521 166.70898 100.44922 166.70898 C 99.991059 166.70898 99.609277 166.86116 99.306641 167.16797 C 99.327631 168.83257 99.337891 170.32141 99.337891 171.63281 L 97.642578 171.63281 C 97.718234 170.32141 97.755859 169.2859 97.755859 168.5293 C 97.755859 167.5457 97.651274 166.5996 97.445312 165.6875 L 99.0625 165.50977 L 99.167969 166.17773 L 99.269531 166.17773 C 99.815957 165.68174 100.43205 165.43555 101.11719 165.43555 z M 122.27539 165.43555 C 123.03618 165.43555 123.62128 165.59657 124.0332 165.91602 C 124.44932 166.23548 124.66016 166.79318 124.66016 167.5918 C 124.66016 167.7683 124.65167 168.08799 124.63477 168.55469 C 124.62247 169.02119 124.61523 169.33278 124.61523 169.48828 C 124.61523 170.35838 124.68191 171.07215 124.81641 171.62695 L 123.32812 171.67773 C 123.26081 171.50123 123.22852 171.34017 123.22852 171.19727 L 123.14648 171.19727 C 122.68412 171.59237 122.05945 171.79102 121.27344 171.79102 C 120.74802 171.79102 120.31176 171.64547 119.96289 171.35547 C 119.61822 171.06117 119.44531 170.6709 119.44531 170.1875 C 119.44531 169.5486 119.71393 169.02684 120.25195 168.61914 C 120.79418 168.21144 121.7403 167.9967 123.09375 167.9707 C 123.10235 167.8951 123.10742 167.82286 123.10742 167.75586 C 123.10742 167.30196 122.99982 167.00429 122.78125 166.86133 C 122.56268 166.7142 122.16042 166.63867 121.57617 166.63867 C 120.94147 166.63867 120.32206 166.72249 119.7168 166.89062 L 119.85352 165.73047 C 120.42516 165.5329 121.23298 165.43555 122.27539 165.43555 z M 129.60352 165.43555 C 130.25084 165.43555 130.76565 165.58964 131.15234 165.89648 C 131.54326 166.19912 131.74023 166.75847 131.74023 167.57812 C 131.74023 167.70002 131.7333 167.86431 131.7207 168.07031 C 131.7121 168.27201 131.70898 168.48101 131.70898 168.69531 C 131.70898 169.26281 131.71923 170.24161 131.74023 171.63281 L 130.0625 171.63281 C 130.15496 170.56931 130.20117 169.493 130.20117 168.4043 C 130.20117 167.7444 130.10186 167.2979 129.9043 167.0625 C 129.71096 166.82711 129.41494 166.70898 129.01562 166.70898 C 128.53643 166.70898 128.08304 166.87337 127.6543 167.20117 C 127.6753 168.84047 127.68555 170.31711 127.68555 171.63281 L 125.98828 171.63281 C 126.06397 170.31711 126.10352 169.2816 126.10352 168.5293 C 126.10352 167.5247 126.00088 166.57859 125.79492 165.6875 L 127.4082 165.50977 L 127.51562 166.17773 L 127.61523 166.17773 C 128.19107 165.68174 128.85535 165.43555 129.60352 165.43555 z M 148.74414 165.43555 C 149.39145 165.43555 149.90822 165.58964 150.29492 165.89648 C 150.68583 166.19912 150.88086 166.75847 150.88086 167.57812 C 150.88086 167.70002 150.87393 167.86431 150.86133 168.07031 C 150.85273 168.27201 150.84961 168.48101 150.84961 168.69531 C 150.84961 169.26281 150.85986 170.24161 150.88086 171.63281 L 149.20312 171.63281 C 149.29559 170.56931 149.34375 169.493 149.34375 168.4043 C 149.34375 167.7444 149.24444 167.2979 149.04688 167.0625 C 148.85353 166.82711 148.55751 166.70898 148.1582 166.70898 C 147.67902 166.70898 147.22562 166.87337 146.79688 167.20117 C 146.81778 168.84047 146.82617 170.31711 146.82617 171.63281 L 145.13086 171.63281 C 145.20654 170.31711 145.24414 169.2816 145.24414 168.5293 C 145.24414 167.5247 145.14151 166.57859 144.93555 165.6875 L 146.55078 165.50977 L 146.65625 166.17773 L 146.75781 166.17773 C 147.33365 165.68174 147.99596 165.43555 148.74414 165.43555 z M 158.11133 165.43555 C 158.87212 165.43555 159.45916 165.59657 159.87109 165.91602 C 160.28722 166.23548 160.49609 166.79318 160.49609 167.5918 C 160.49609 167.7683 160.4876 168.08799 160.4707 168.55469 C 160.4584 169.02119 160.45117 169.33278 160.45117 169.48828 C 160.45117 170.35838 160.5198 171.07215 160.6543 171.62695 L 159.16602 171.67773 C 159.09869 171.50123 159.06445 171.34017 159.06445 171.19727 L 158.98438 171.19727 C 158.52201 171.59237 157.89735 171.79102 157.11133 171.79102 C 156.58593 171.79102 156.14771 171.64547 155.79883 171.35547 C 155.45416 171.06117 155.28125 170.6709 155.28125 170.1875 C 155.28125 169.5486 155.55182 169.02684 156.08984 168.61914 C 156.63206 168.21144 157.57818 167.9967 158.93164 167.9707 C 158.94024 167.8951 158.94531 167.82286 158.94531 167.75586 C 158.94531 167.30196 158.83576 167.00429 158.61719 166.86133 C 158.39862 166.7142 157.99637 166.63867 157.41211 166.63867 C 156.77741 166.63867 156.15801 166.72249 155.55273 166.89062 L 155.69141 165.73047 C 156.26307 165.5329 157.06891 165.43555 158.11133 165.43555 z M 62.833984 165.51758 C 62.779344 166.33301 62.751953 167.37346 62.751953 168.63867 C 62.751953 169.71887 62.781004 170.71651 62.839844 171.63281 L 61.144531 171.63281 C 61.203371 170.76281 61.230469 169.76507 61.230469 168.63867 C 61.230469 167.52056 61.158536 166.53987 61.015625 165.69922 L 62.833984 165.51758 z M 154.07812 165.51758 C 154.02352 166.33301 153.99609 167.37346 153.99609 168.63867 C 153.99609 169.71887 154.02518 170.71651 154.08398 171.63281 L 152.38867 171.63281 C 152.44747 170.76281 152.47462 169.76507 152.47461 168.63867 C 152.47461 167.52056 152.40464 166.53987 152.26172 165.69922 L 154.07812 165.51758 z M 93.853516 166.48828 C 93.067502 166.48828 92.602192 166.98982 92.455078 167.99023 L 95.087891 167.9375 C 95.087891 166.97078 94.677359 166.48828 93.853516 166.48828 z M 141.3418 166.48828 C 140.55579 166.48828 140.09047 166.98982 139.94336 167.99023 L 142.57812 167.9375 C 142.57813 166.97078 142.16565 166.48828 141.3418 166.48828 z M 170.06836 166.48828 C 169.28235 166.48828 168.81508 166.98982 168.66797 167.99023 L 171.30273 167.9375 C 171.30273 166.97078 170.8922 166.48828 170.06836 166.48828 z M 67.164062 166.5332 C 66.718514 166.5332 66.355839 166.72458 66.074219 167.11133 C 65.796802 167.49793 65.658203 167.9824 65.658203 168.5625 C 65.658203 169.1719 65.800115 169.68546 66.085938 170.10156 C 66.371761 170.51346 66.744968 170.71875 67.203125 170.71875 C 67.648674 170.71875 68.00774 170.52537 68.285156 170.13867 C 68.566776 169.75197 68.708984 169.26945 68.708984 168.68945 C 68.708984 168.07995 68.56512 167.56825 68.279297 167.15625 C 67.993474 166.74013 67.62222 166.5332 67.164062 166.5332 z M 52.353516 168.8457 C 50.920197 168.8457 50.203125 169.20835 50.203125 169.93555 C 50.203125 170.43575 50.5199 170.6875 51.150391 170.6875 C 51.646379 170.6875 52.060519 170.56431 52.392578 170.31641 C 52.367358 169.74891 52.353516 169.2576 52.353516 168.8457 z M 82.011719 168.8457 C 80.5784 168.8457 79.861328 169.20835 79.861328 169.93555 C 79.861328 170.43575 80.178101 170.6875 80.808594 170.6875 C 81.304581 170.6875 81.718723 170.56431 82.050781 170.31641 C 82.025561 169.74891 82.011719 169.2576 82.011719 168.8457 z M 123.09375 168.8457 C 121.66043 168.8457 120.94531 169.20835 120.94531 169.93555 C 120.94531 170.43575 121.26014 170.6875 121.89062 170.6875 C 122.38661 170.6875 122.80074 170.56431 123.13281 170.31641 C 123.10751 169.74891 123.09375 169.2576 123.09375 168.8457 z M 158.93164 168.8457 C 157.49832 168.8457 156.7832 169.20835 156.7832 169.93555 C 156.7832 170.43575 157.09803 170.6875 157.72852 170.6875 C 158.22451 170.6875 158.63865 170.56431 158.9707 170.31641 C 158.9454 169.74891 158.93164 169.2576 158.93164 168.8457 z M 97.056641 177.77539 C 96.993591 178.96489 96.960938 180.39204 96.960938 182.05664 C 96.960938 183.74624 96.993591 185.30693 97.056641 186.74023 L 95.333984 186.74023 C 95.397024 185.29843 95.429688 183.73784 95.429688 182.05664 C 95.429687 180.41734 95.364677 179.02435 95.234375 177.87695 L 97.056641 177.77539 z M 156.17773 177.84961 L 157.88477 177.84961 C 157.88477 177.90011 157.59567 178.23738 157.01562 178.85938 C 156.43558 179.48148 156.14648 179.82558 156.14648 179.89258 L 155.04297 179.89258 C 155.04297 179.82538 155.23108 179.48148 155.60938 178.85938 C 155.98767 178.23307 156.17773 177.89661 156.17773 177.84961 z M 113.97266 177.91211 C 114.27109 177.91211 114.49846 178.00641 114.6582 178.19141 C 114.82209 178.37211 114.9043 178.5894 114.9043 178.8457 C 114.9043 179.1315 114.80497 179.3813 114.60742 179.5957 C 114.41407 179.81 114.14379 179.91797 113.79492 179.91797 C 113.50069 179.91797 113.26969 179.82562 113.10156 179.64062 C 112.93756 179.45573 112.85547 179.23326 112.85547 178.97266 C 112.85547 178.68676 112.95312 178.43862 113.14648 178.22852 C 113.34403 178.01832 113.61958 177.91211 113.97266 177.91211 z M 146.58008 177.91211 C 146.87851 177.91211 147.10981 178.00641 147.26953 178.19141 C 147.43344 178.37211 147.51562 178.5894 147.51562 178.8457 C 147.51563 179.1315 147.41631 179.3813 147.21875 179.5957 C 147.0254 179.81 146.75318 179.91797 146.4043 179.91797 C 146.11008 179.91797 145.87908 179.82562 145.71094 179.64062 C 145.54704 179.45573 145.46484 179.23326 145.46484 178.97266 C 145.46484 178.68676 145.56252 178.43862 145.75586 178.22852 C 145.95342 178.01832 146.227 177.91211 146.58008 177.91211 z M 165.82422 177.91211 C 166.12265 177.91211 166.352 178.00641 166.51172 178.19141 C 166.67563 178.37211 166.75781 178.5894 166.75781 178.8457 C 166.75781 179.1315 166.65849 179.3813 166.46094 179.5957 C 166.26759 179.81 165.99534 179.91797 165.64648 179.91797 C 165.35224 179.91797 165.12124 179.82562 164.95312 179.64062 C 164.78921 179.45573 164.70703 179.23326 164.70703 178.97266 C 164.70703 178.68676 164.80469 178.43862 164.99805 178.22852 C 165.19559 178.01832 165.47114 177.91211 165.82422 177.91211 z M 128.27148 178.39844 C 129.09532 178.39844 129.78667 178.46687 130.3457 178.60547 L 130.11133 180.00586 C 129.54388 179.79986 128.93139 179.69727 128.27148 179.69727 C 127.27951 179.69727 126.78516 179.96259 126.78516 180.49219 C 126.78516 180.77379 126.89968 181.00113 127.13086 181.17773 C 127.33261 181.32903 127.77249 181.54311 128.44922 181.81641 C 129.16798 182.10641 129.70522 182.42649 130.0625 182.77539 C 130.53747 183.24189 130.77539 183.81665 130.77539 184.50195 C 130.77539 186.14535 129.59466 186.9668 127.23242 186.9668 C 126.4296 186.9668 125.68153 186.87113 124.99219 186.67773 L 125.30273 185.27148 C 125.98366 185.50688 126.62715 185.62305 127.23242 185.62305 C 127.90495 185.62305 128.3874 185.55803 128.68164 185.42773 C 128.97587 185.29743 129.12305 185.08034 129.12305 184.77344 C 129.12305 184.45404 128.9825 184.18344 128.70508 183.96484 C 128.46549 183.77154 127.98136 183.51998 127.25 183.20898 C 126.58587 182.92318 126.09319 182.61364 125.76953 182.27734 C 125.36182 181.85294 125.1582 181.32718 125.1582 180.70508 C 125.1582 179.98218 125.42322 179.41952 125.95703 179.01172 C 126.49506 178.60392 127.26689 178.39844 128.27148 178.39844 z M 49.087891 178.49414 C 50.605276 178.49414 51.703834 178.87231 52.384766 179.62891 C 53.069901 180.38551 53.414062 181.29236 53.414062 182.35156 C 53.414062 183.54526 53.030623 184.58742 52.265625 185.47852 C 51.500629 186.36962 50.429458 186.81445 49.050781 186.81445 C 48.428695 186.81445 47.571369 186.79123 46.478516 186.74023 C 46.533146 185.47083 46.560547 184.04037 46.560547 182.44727 C 46.560547 180.91727 46.533166 179.61155 46.478516 178.53125 L 47.580078 178.53125 C 47.76082 178.53125 48.031393 178.52667 48.388672 178.51367 C 48.745951 178.50467 48.978606 178.49414 49.087891 178.49414 z M 85.367188 178.91602 C 85.304147 179.75252 85.271484 180.39922 85.271484 180.85742 C 85.62456 180.85742 86.151568 180.84064 86.853516 180.80664 L 86.804688 182.0625 C 86.165789 182.0375 85.645406 182.02539 85.246094 182.02539 C 85.237674 182.58449 85.234375 183.1696 85.234375 183.7832 C 85.234375 184.5314 85.30962 185.03452 85.460938 185.29102 C 85.612257 185.54322 85.87922 185.66797 86.261719 185.66797 C 86.492899 185.66797 86.741052 185.6335 87.005859 185.5625 L 86.898438 186.68359 C 86.604207 186.81049 86.23461 186.87305 85.789062 186.87305 C 85.10813 186.87305 84.59467 186.68631 84.25 186.31641 C 83.905331 185.94651 83.734375 185.23479 83.734375 184.17969 C 83.734375 183.54509 83.737694 182.82829 83.746094 182.02539 C 83.531726 182.02539 83.240686 182.0375 82.875 182.0625 L 82.919922 180.82031 C 83.243576 180.84531 83.544848 180.85742 83.822266 180.85742 C 83.826466 180.63472 83.843617 180.04766 83.873047 179.09766 L 85.367188 178.91602 z M 150.76172 178.91602 C 150.69862 179.75252 150.66602 180.39922 150.66602 180.85742 C 151.01908 180.85742 151.54609 180.84064 152.24805 180.80664 L 152.19922 182.0625 C 151.56032 182.0375 151.03993 182.02539 150.64062 182.02539 C 150.63202 182.58449 150.62891 183.1696 150.62891 183.7832 C 150.62891 184.5314 150.70416 185.03452 150.85547 185.29102 C 151.00679 185.54322 151.27375 185.66797 151.65625 185.66797 C 151.88743 185.66797 152.13559 185.6335 152.40039 185.5625 L 152.29297 186.68359 C 151.99874 186.81049 151.62914 186.87305 151.18359 186.87305 C 150.50266 186.87305 149.9892 186.68631 149.64453 186.31641 C 149.29987 185.94651 149.12891 185.23479 149.12891 184.17969 C 149.12891 183.54509 149.13458 182.82829 149.14258 182.02539 C 148.92821 182.02539 148.63522 182.0375 148.26953 182.0625 L 148.31445 180.82031 C 148.63811 180.84531 148.93938 180.85742 149.2168 180.85742 C 149.2211 180.63472 149.23808 180.04766 149.26758 179.09766 L 150.76172 178.91602 z M 111.28711 179.73438 L 111.28711 179.73633 C 111.56032 179.73633 111.79795 179.78486 112.00391 179.88086 L 111.86523 181.05273 C 111.20952 181.05273 110.80065 181.14879 110.63672 181.33789 L 110.63672 181.41797 C 110.88471 181.73307 111.00977 182.08762 111.00977 182.47852 C 111.00977 183.07962 110.78735 183.59113 110.3418 184.01562 C 109.90045 184.44022 109.23981 184.6543 108.36133 184.6543 C 107.93259 184.6543 107.57985 184.61973 107.30664 184.55273 C 107.08386 184.65373 106.97461 184.78532 106.97461 184.94922 C 106.97461 185.20572 107.10628 185.38709 107.37109 185.49219 C 107.64009 185.59229 108.26117 185.64258 109.23633 185.64258 C 110.92184 185.64258 111.76562 186.21578 111.76562 187.36328 C 111.76562 188.17038 111.41484 188.81221 110.71289 189.28711 C 110.01094 189.76211 109.15692 190 108.15234 190 C 106.1852 190 105.20117 189.38218 105.20117 188.14648 C 105.20117 187.76398 105.31073 187.43902 105.5293 187.16992 C 105.75207 186.90512 106.0088 186.74259 106.29883 186.68359 L 106.29883 186.58789 C 105.94575 186.36509 105.76952 186.02646 105.76953 185.56836 C 105.76953 185.10596 106.01077 184.7193 106.49414 184.4082 L 106.49414 184.31836 C 105.81322 183.97786 105.47266 183.44761 105.47266 182.72461 C 105.47266 182.10671 105.70533 181.58798 106.17188 181.17188 C 106.64264 180.75588 107.3683 180.54883 108.34766 180.54883 C 109.01599 180.54883 109.55848 180.67358 109.97461 180.92578 L 110.06445 180.92578 C 110.18635 180.13138 110.59356 179.73438 111.28711 179.73438 z M 48.830078 179.75391 C 48.649336 179.75391 48.401184 179.77255 48.085938 179.81055 C 48.127968 180.65115 48.148438 181.53097 48.148438 182.44727 C 48.148437 183.45187 48.170861 184.44579 48.212891 185.43359 C 48.486104 185.48759 48.758037 185.51758 49.03125 185.51758 C 49.934956 185.51758 50.604171 185.23673 51.037109 184.67773 C 51.47425 184.11453 51.691406 183.43015 51.691406 182.62305 C 51.691406 181.81605 51.457096 181.13654 50.986328 180.58594 C 50.51556 180.03114 49.796832 179.75391 48.830078 179.75391 z M 90.984375 180.47266 C 91.820829 180.47266 92.537899 180.74813 93.134766 181.29883 C 93.735835 181.84523 94.037109 182.61337 94.037109 183.60547 C 94.037109 184.66467 93.710103 185.49294 93.058594 186.08984 C 92.407085 186.68664 91.640502 186.98438 90.757812 186.98438 C 89.917157 186.98438 89.196772 186.71417 88.595703 186.17188 C 87.994633 185.62548 87.693359 184.85889 87.693359 183.87109 C 87.693359 182.80769 88.022022 181.97405 88.677734 181.37305 C 89.333446 180.77195 90.101686 180.47266 90.984375 180.47266 z M 101.52539 180.47266 C 102.36185 180.47266 103.0789 180.74813 103.67578 181.29883 C 104.27685 181.84523 104.57812 182.61337 104.57812 183.60547 C 104.57813 184.66467 104.25112 185.49294 103.59961 186.08984 C 102.9481 186.68664 102.18152 186.98438 101.29883 186.98438 C 100.45818 186.98438 99.737789 186.71417 99.136719 186.17188 C 98.53565 185.62548 98.234375 184.85889 98.234375 183.87109 C 98.234375 182.80769 98.563038 181.97405 99.21875 181.37305 C 99.874462 180.77195 100.6427 180.47266 101.52539 180.47266 z M 57.435547 180.49219 L 57.435547 180.49414 C 58.326642 180.49414 58.988937 180.73535 59.421875 181.21875 C 59.854813 181.70205 60.070312 182.33012 60.070312 183.10352 C 60.070312 183.31792 60.058423 183.59681 60.033203 183.94141 L 55.974609 184.00977 C 56.033454 184.48477 56.235112 184.88001 56.583984 185.19531 C 56.932856 185.51051 57.391541 185.66797 57.958984 185.66797 C 58.589477 185.66797 59.260348 185.57397 59.970703 185.38477 L 59.84375 186.60742 C 59.263697 186.81752 58.54497 186.92383 57.6875 186.92383 C 56.603053 186.92383 55.77146 186.61927 55.191406 186.00977 C 54.615557 185.40037 54.328125 184.66609 54.328125 183.80859 C 54.328125 182.91329 54.600058 182.13822 55.146484 181.48242 C 55.697115 180.82252 56.460385 180.49219 57.435547 180.49219 z M 79.503906 180.54297 C 80.2647 180.54297 80.849796 180.70198 81.261719 181.02148 C 81.677843 181.34088 81.886719 181.90062 81.886719 182.69922 C 81.886719 182.87582 81.878138 183.19746 81.861328 183.66406 C 81.848658 184.13056 81.841797 184.44206 81.841797 184.59766 C 81.841797 185.46766 81.910417 186.17948 82.044922 186.73438 L 80.554688 186.78516 C 80.48743 186.60866 80.455078 186.44954 80.455078 186.30664 L 80.373047 186.30664 C 79.910686 186.70174 79.286014 186.90039 78.5 186.90039 C 77.97459 186.90039 77.536372 186.75299 77.1875 186.46289 C 76.84283 186.16859 76.671875 185.78017 76.671875 185.29688 C 76.671875 184.65797 76.940497 184.13426 77.478516 183.72656 C 78.02074 183.31876 78.968809 183.10312 80.322266 183.07812 C 80.330626 183.00243 80.335938 182.93028 80.335938 182.86328 C 80.335938 182.40918 80.226383 182.1097 80.007812 181.9668 C 79.789243 181.819 79.388944 181.74609 78.804688 181.74609 C 78.169992 181.74609 77.548632 181.82985 76.943359 181.99805 L 77.082031 180.83984 C 77.653677 180.64244 78.461492 180.54492 79.503906 180.54492 L 79.503906 180.54297 z M 118.64453 180.54297 C 119.40533 180.54297 119.99238 180.70198 120.4043 181.02148 C 120.82042 181.34088 121.02734 181.90062 121.02734 182.69922 C 121.02734 182.87582 121.01875 183.19746 121.00195 183.66406 C 120.98965 184.13056 120.98242 184.44206 120.98242 184.59766 C 120.98242 185.46766 121.04908 186.17948 121.18359 186.73438 L 119.69727 186.78516 C 119.62995 186.60866 119.5957 186.44954 119.5957 186.30664 L 119.51562 186.30664 C 119.05327 186.70174 118.42859 186.90039 117.64258 186.90039 C 117.11716 186.90039 116.67895 186.75299 116.33008 186.46289 C 115.98541 186.16859 115.8125 185.78017 115.8125 185.29688 C 115.8125 184.65797 116.08307 184.13426 116.62109 183.72656 C 117.16332 183.31876 118.11138 183.10312 119.46484 183.07812 C 119.47344 183.00243 119.47656 182.93028 119.47656 182.86328 C 119.47656 182.40918 119.36702 182.1097 119.14844 181.9668 C 118.92987 181.819 118.52761 181.74609 117.94336 181.74609 C 117.30866 181.74609 116.68924 181.82985 116.08398 181.99805 L 116.22461 180.83984 C 116.79625 180.64244 117.60212 180.54492 118.64453 180.54492 L 118.64453 180.54297 z M 134.55859 180.54297 C 135.31938 180.54297 135.90448 180.70198 136.31641 181.02148 C 136.73254 181.34088 136.93945 181.90062 136.93945 182.69922 C 136.93945 182.87582 136.93292 183.19746 136.91602 183.66406 C 136.90362 184.13056 136.89844 184.44206 136.89844 184.59766 C 136.89844 185.46766 136.96511 186.17948 137.09961 186.73438 L 135.61133 186.78516 C 135.54406 186.60866 135.50977 186.44954 135.50977 186.30664 L 135.42773 186.30664 C 134.96537 186.70174 134.3407 186.90039 133.55469 186.90039 C 133.02928 186.90039 132.59106 186.75299 132.24219 186.46289 C 131.89752 186.16859 131.72656 185.78017 131.72656 185.29688 C 131.72656 184.65797 131.99518 184.13426 132.5332 183.72656 C 133.07542 183.31876 134.02349 183.10312 135.37695 183.07812 C 135.38555 183.00243 135.39062 182.93028 135.39062 182.86328 C 135.39063 182.40918 135.27912 182.1097 135.06055 181.9668 C 134.84198 181.819 134.44364 181.74609 133.85938 181.74609 C 133.22467 181.74609 132.60137 181.82985 131.99609 181.99805 L 132.13672 180.83984 C 132.70838 180.64244 133.51617 180.54492 134.55859 180.54492 L 134.55859 180.54297 z M 155.94531 180.54297 C 156.7061 180.54297 157.2912 180.70198 157.70312 181.02148 C 158.11925 181.34088 158.32617 181.90062 158.32617 182.69922 C 158.32617 182.87582 158.31963 183.19746 158.30273 183.66406 C 158.29043 184.13056 158.2832 184.44206 158.2832 184.59766 C 158.2832 185.46766 158.34987 186.17948 158.48438 186.73438 L 156.99609 186.78516 C 156.92877 186.60866 156.89648 186.44954 156.89648 186.30664 L 156.81445 186.30664 C 156.35209 186.70174 155.72742 186.90039 154.94141 186.90039 C 154.416 186.90039 153.97973 186.75299 153.63086 186.46289 C 153.28619 186.16859 153.11328 185.78017 153.11328 185.29688 C 153.11328 184.65797 153.3819 184.13426 153.91992 183.72656 C 154.46214 183.31876 155.41022 183.10312 156.76367 183.07812 C 156.77227 183.00243 156.77539 182.93028 156.77539 182.86328 C 156.77539 182.40918 156.6678 182.1097 156.44922 181.9668 C 156.23066 181.819 155.8284 181.74609 155.24414 181.74609 C 154.60944 181.74609 153.99004 181.82985 153.38477 181.99805 L 153.52344 180.83984 C 154.09508 180.64244 154.90289 180.54492 155.94531 180.54492 L 155.94531 180.54297 z M 170.49609 180.54297 C 171.25688 180.54297 171.84199 180.70198 172.25391 181.02148 C 172.67004 181.34088 172.87891 181.90062 172.87891 182.69922 C 172.87891 182.87582 172.87042 183.19746 172.85352 183.66406 C 172.84112 184.13056 172.83594 184.44206 172.83594 184.59766 C 172.83594 185.46766 172.9026 186.17948 173.03711 186.73438 L 171.54883 186.78516 C 171.48159 186.60866 171.44922 186.44954 171.44922 186.30664 L 171.36523 186.30664 C 170.90287 186.70174 170.2782 186.90039 169.49219 186.90039 C 168.96677 186.90039 168.53051 186.75299 168.18164 186.46289 C 167.83697 186.16859 167.66602 185.78017 167.66602 185.29688 C 167.66602 184.65797 167.93267 184.13426 168.4707 183.72656 C 169.01292 183.31876 169.96099 183.10312 171.31445 183.07812 C 171.32305 183.00243 171.32812 182.93028 171.32812 182.86328 C 171.32813 182.40918 171.21858 182.1097 171 181.9668 C 170.78143 181.819 170.38114 181.74609 169.79688 181.74609 C 169.16218 181.74609 168.54278 181.82985 167.9375 181.99805 L 168.07422 180.83984 C 168.64587 180.64244 169.45367 180.54492 170.49609 180.54492 L 170.49609 180.54297 z M 64.339844 180.54492 C 64.64248 180.54492 64.983033 180.61325 65.361328 180.75195 L 64.994141 182.22656 C 64.683098 182.09976 64.368278 182.03711 64.048828 182.03711 C 63.430945 182.03711 63.025679 182.31619 62.828125 182.87109 C 62.828125 184.54819 62.838061 185.83653 62.863281 186.74023 L 61.1875 186.74023 C 61.258954 185.47503 61.294922 184.44157 61.294922 183.63867 C 61.294922 182.63827 61.18868 181.69022 60.978516 180.79492 L 62.587891 180.61914 C 62.659349 181.08154 62.693359 181.35359 62.693359 181.43359 L 62.794922 181.43359 C 63.181624 180.84099 63.696741 180.54492 64.339844 180.54492 z M 69.591797 180.54492 C 70.449267 180.54492 71.051519 180.79121 71.400391 181.28711 L 71.501953 181.28711 C 72.124039 180.79121 72.740133 180.54492 73.349609 180.54492 C 74.064167 180.54492 74.601408 180.69867 74.962891 181.00977 C 75.328576 181.31657 75.513672 181.87445 75.513672 182.68555 C 75.513672 182.76555 75.5084 182.91948 75.5 183.14648 C 75.49158 183.36928 75.488281 183.52156 75.488281 183.60156 C 75.488281 184.30356 75.496862 185.34893 75.513672 186.74023 L 73.841797 186.74023 C 73.930065 185.67683 73.972656 184.64327 73.972656 183.63867 C 73.972656 182.88627 73.876945 182.39526 73.683594 182.16406 C 73.490243 181.93286 73.18039 181.81641 72.755859 181.81641 C 72.415393 181.81641 72.057984 181.94135 71.679688 182.18945 C 71.662808 182.71475 71.654296 183.18546 71.654297 183.60156 C 71.654297 184.30356 71.666186 185.34893 71.691406 186.74023 L 70.001953 186.74023 C 70.094423 185.58853 70.138672 184.46751 70.138672 183.37891 C 70.138672 182.81571 70.060116 182.41723 69.900391 182.17773 C 69.744871 181.93813 69.419815 181.81641 68.923828 181.81641 C 68.465671 181.81641 68.083886 181.97054 67.78125 182.27734 C 67.80224 183.94184 67.8125 185.42883 67.8125 186.74023 L 66.119141 186.74023 C 66.1948 185.42883 66.230469 184.39517 66.230469 183.63867 C 66.230469 182.65507 66.127836 181.70712 65.921875 180.79492 L 67.537109 180.61914 L 67.642578 181.28711 L 67.744141 181.28711 C 68.290567 180.79121 68.906662 180.54492 69.591797 180.54492 z M 141.88281 180.54492 C 142.53012 180.54492 143.04885 180.69711 143.43555 181.00391 C 143.82646 181.30651 144.02148 181.86595 144.02148 182.68555 C 144.02148 182.80745 144.01455 182.97183 144.00195 183.17773 C 143.99335 183.37963 143.99023 183.58843 143.99023 183.80273 C 143.99023 184.37023 144.00048 185.34893 144.02148 186.74023 L 142.3457 186.74023 C 142.43822 185.67683 142.48242 184.60227 142.48242 183.51367 C 142.48242 182.85367 142.38311 182.40542 142.18555 182.16992 C 141.9922 181.93462 141.69619 181.81641 141.29688 181.81641 C 140.8177 181.81641 140.36429 181.98069 139.93555 182.30859 C 139.95655 183.94789 139.96875 185.42463 139.96875 186.74023 L 138.27148 186.74023 C 138.34716 185.42463 138.38477 184.39107 138.38477 183.63867 C 138.38477 182.63407 138.28213 181.68602 138.07617 180.79492 L 139.68945 180.61914 L 139.79688 181.28711 L 139.89844 181.28711 C 140.4743 180.79121 141.13462 180.54492 141.88281 180.54492 z M 162.84766 180.54492 C 163.1503 180.54492 163.49084 180.61325 163.86914 180.75195 L 163.50391 182.22656 C 163.19287 182.09976 162.87804 182.03711 162.55859 182.03711 C 161.94071 182.03711 161.53349 182.31619 161.33594 182.87109 C 161.33594 184.54819 161.34785 185.83653 161.37305 186.74023 L 159.69531 186.74023 C 159.76678 185.47503 159.80273 184.44157 159.80273 183.63867 C 159.80273 182.63827 159.69844 181.69022 159.48828 180.79492 L 161.0957 180.61914 C 161.16713 181.08154 161.20117 181.35359 161.20117 181.43359 L 161.30273 181.43359 C 161.68943 180.84099 162.20456 180.54492 162.84766 180.54492 z M 114.60742 180.625 C 114.55282 181.4405 114.52734 182.48089 114.52734 183.74609 C 114.52734 184.82639 114.55643 185.82393 114.61523 186.74023 L 112.91992 186.74023 C 112.97872 185.87013 113.00781 184.87259 113.00781 183.74609 C 113.00781 182.62799 112.93587 181.64734 112.79297 180.80664 L 114.60742 180.625 z M 147.21875 180.625 C 147.16415 181.4405 147.13672 182.48089 147.13672 183.74609 C 147.13672 184.82639 147.16581 185.82393 147.22461 186.74023 L 145.5293 186.74023 C 145.5881 185.87013 145.61719 184.87259 145.61719 183.74609 C 145.61719 182.62799 145.5433 181.64734 145.40039 180.80664 L 147.21875 180.625 z M 166.46094 180.625 C 166.40634 181.4405 166.37891 182.48089 166.37891 183.74609 C 166.37891 184.82639 166.408 185.82393 166.4668 186.74023 L 164.77148 186.74023 C 164.83038 185.87013 164.85938 184.87259 164.85938 183.74609 C 164.85937 182.62799 164.78743 181.64734 164.64453 180.80664 L 166.46094 180.625 z M 108.25977 181.48242 C 107.94453 181.48242 107.66732 181.57818 107.42773 181.77148 C 107.19235 181.96078 107.07422 182.24133 107.07422 182.61133 C 107.07422 182.98543 107.19566 183.26959 107.43945 183.46289 C 107.68324 183.65649 107.96737 183.75195 108.29102 183.75195 C 108.59786 183.75195 108.87009 183.65961 109.10547 183.47461 C 109.34505 183.28551 109.46289 183.00632 109.46289 182.64062 C 109.46289 182.26233 109.3434 181.9768 109.09961 181.7793 C 108.85581 181.5818 108.57503 181.48242 108.25977 181.48242 z M 57.361328 181.5957 C 56.575314 181.5957 56.108052 182.09726 55.960938 183.09766 L 58.597656 183.04688 C 58.597656 182.08018 58.185172 181.5957 57.361328 181.5957 z M 90.845703 181.64062 C 90.400155 181.64062 90.035526 181.834 89.753906 182.2207 C 89.476489 182.6074 89.339844 183.08982 89.339844 183.66992 C 89.339844 184.27932 89.481755 184.79278 89.767578 185.20898 C 90.053401 185.62088 90.424655 185.82617 90.882812 185.82617 C 91.328361 185.82617 91.691334 185.63475 91.96875 185.24805 C 92.250371 184.86125 92.390625 184.37688 92.390625 183.79688 C 92.390625 183.18738 92.248715 182.67567 91.962891 182.26367 C 91.677068 181.84767 91.303861 181.64062 90.845703 181.64062 z M 101.38867 181.64062 C 100.94312 181.64062 100.5785 181.834 100.29688 182.2207 C 100.01946 182.6074 99.880859 183.08982 99.880859 183.66992 C 99.880859 184.27932 100.02276 184.79278 100.30859 185.20898 C 100.59441 185.62088 100.96566 185.82617 101.42383 185.82617 C 101.86937 185.82617 102.23235 185.63475 102.50977 185.24805 C 102.79138 184.86125 102.93164 184.37688 102.93164 183.79688 C 102.93164 183.18738 102.78973 182.67567 102.50391 182.26367 C 102.21808 181.84767 101.84683 181.64062 101.38867 181.64062 z M 80.322266 183.95508 C 78.888947 183.95508 78.171875 184.31782 78.171875 185.04492 C 78.171875 185.54522 78.486694 185.79492 79.117188 185.79492 C 79.613174 185.79492 80.02927 185.67173 80.361328 185.42383 C 80.336108 184.85633 80.322266 184.36708 80.322266 183.95508 z M 119.46484 183.95508 C 118.03152 183.95508 117.31445 184.31782 117.31445 185.04492 C 117.31445 185.54522 117.62928 185.79492 118.25977 185.79492 C 118.75576 185.79492 119.16989 185.67173 119.50195 185.42383 C 119.47675 184.85633 119.46484 184.36708 119.46484 183.95508 z M 135.37695 183.95508 C 133.94364 183.95508 133.22656 184.31782 133.22656 185.04492 C 133.22656 185.54522 133.54137 185.79492 134.17188 185.79492 C 134.66786 185.79492 135.08397 185.67173 135.41602 185.42383 C 135.39072 184.85633 135.37695 184.36708 135.37695 183.95508 z M 156.76367 183.95508 C 155.33035 183.95508 154.61327 184.31782 154.61328 185.04492 C 154.61328 185.54522 154.92809 185.79492 155.55859 185.79492 C 156.05458 185.79492 156.46872 185.67173 156.80078 185.42383 C 156.77558 184.85633 156.76367 184.36708 156.76367 183.95508 z M 171.31445 183.95508 C 169.88113 183.95508 169.16406 184.31782 169.16406 185.04492 C 169.16406 185.54522 169.47887 185.79492 170.10938 185.79492 C 170.60536 185.79492 171.02146 185.67173 171.35352 185.42383 C 171.32822 184.85633 171.31445 184.36708 171.31445 183.95508 z M 107.20117 186.88477 C 106.83128 187.10337 106.64453 187.43038 106.64453 187.86328 C 106.64453 188.67038 107.18374 189.07422 108.25977 189.07422 C 108.86084 189.07422 109.33472 188.95932 109.68359 188.73242 C 110.03247 188.50542 110.20703 188.20418 110.20703 187.83008 C 110.20703 187.51908 110.08919 187.29505 109.84961 187.15625 C 109.61422 187.01705 109.20505 186.94922 108.625 186.94922 C 108.15423 186.94922 107.68035 186.92872 107.20117 186.88672 L 107.20117 186.88477 z "
       transform="translate(0,832.36216)"
       id="rect4332" />
    <g
       id="g4183"
       transform="matrix(0.9959374,0,0,0.9959374,29.673666,-38.85735)">
      <g
         id="g4213"
         transform="translate(30.122388,8.5266673)" />
    </g>
    <g
       id="g4323"
       transform="matrix(0.87499997,0,0,0.87499997,40.000001,131.54529)" />
  </g>
</svg>
