<?xml version="1.0" encoding="UTF-8" standalone="no"?>
<!-- Created with Inkscape (http://www.inkscape.org/) -->

<svg
   xmlns:dc="http://purl.org/dc/elements/1.1/"
   xmlns:cc="http://creativecommons.org/ns#"
   xmlns:rdf="http://www.w3.org/1999/02/22-rdf-syntax-ns#"
   xmlns:svg="http://www.w3.org/2000/svg"
   xmlns="http://www.w3.org/2000/svg"
   xmlns:sodipodi="http://sodipodi.sourceforge.net/DTD/sodipodi-0.dtd"
   xmlns:inkscape="http://www.inkscape.org/namespaces/inkscape"
   width="220"
   height="220"
   viewBox="0 0 220 220"
   id="svg2"
   version="1.1"
   inkscape:version="0.91 r13725"
   sodipodi:docname="ufu_tecnologia_informacao.svg">
  <defs
     id="defs4" />
  <sodipodi:namedview
     id="base"
     pagecolor="#ffffff"
     bordercolor="#666666"
     borderopacity="1.0"
     inkscape:pageopacity="0.0"
     inkscape:pageshadow="2"
     inkscape:zoom="2.9590909"
     inkscape:cx="95.806452"
     inkscape:cy="110"
     inkscape:document-units="px"
     inkscape:current-layer="layer1"
     showgrid="false"
     units="px"
     inkscape:window-width="1440"
     inkscape:window-height="847"
     inkscape:window-x="-8"
     inkscape:window-y="-8"
     inkscape:window-maximized="1" />
  <metadata
     id="metadata7">
    <rdf:RDF>
      <cc:Work
         rdf:about="">
        <dc:format>image/svg+xml</dc:format>
        <dc:type
           rdf:resource="http://purl.org/dc/dcmitype/StillImage" />
        <dc:title></dc:title>
      </cc:Work>
    </rdf:RDF>
  </metadata>
  <g
     inkscape:label="Camada 1"
     inkscape:groupmode="layer"
     id="layer1"
     transform="translate(0,-832.36216)">
    <path
       style="color:#000000;clip-rule:nonzero;display:inline;overflow:visible;visibility:visible;opacity:1;isolation:auto;mix-blend-mode:normal;color-interpolation:sRGB;color-interpolation-filters:linearRGB;solid-color:#000000;solid-opacity:1;fill:#ffffff;fill-opacity:1;fill-rule:nonzero;stroke:none;stroke-width:5;stroke-linecap:square;stroke-linejoin:miter;stroke-miterlimit:4;stroke-dasharray:none;stroke-dashoffset:0;stroke-opacity:1;color-rendering:auto;image-rendering:auto;shape-rendering:auto;text-rendering:auto;enable-background:accumulate"
       d="M 0 0 L 0 220 L 220 220 L 220 0 L 0 0 z M 38.625 41.296875 L 78.869141 41.296875 C 83.610407 41.296875 87.490234 45.178091 87.490234 49.919922 L 87.490234 54.402344 C 85.665277 55.022512 84.332031 56.693686 84.332031 58.724609 L 84.332031 62.408203 C 83.548779 59.913988 81.30145 58.064453 78.552734 58.064453 L 73.460938 58.064453 C 74.086184 57.277252 74.517578 56.324779 74.517578 55.244141 L 74.517578 50.818359 C 74.517578 48.273357 72.448214 46.201172 69.900391 46.201172 L 65.478516 46.201172 C 62.934077 46.201172 60.863281 48.273921 60.863281 50.818359 L 60.863281 55.248047 C 60.863281 57.795871 62.934077 59.865234 65.478516 59.865234 L 65.912109 59.865234 C 64.793662 60.97691 64.095703 62.517162 64.095703 64.212891 L 64.095703 72.529297 C 64.095703 72.761225 64.206774 72.960955 64.230469 73.185547 C 63.818528 73.061965 63.40318 72.925781 62.951172 72.925781 L 58.525391 72.925781 C 55.980953 72.925781 53.908203 74.995143 53.908203 77.542969 L 53.908203 81.966797 C 53.908203 84.509542 55.980953 86.585938 58.525391 86.585938 L 62.951172 86.585938 C 63.99739 86.585937 64.910761 86.175329 65.685547 85.587891 C 65.181626 86.450144 64.818359 87.39215 64.818359 88.460938 L 64.818359 95.964844 C 64.818359 99.17403 67.427749 101.79297 70.642578 101.79297 L 78.148438 101.79297 C 81.364395 101.79297 83.974609 99.180802 83.974609 95.964844 L 83.974609 95.476562 C 84.91643 96.42854 86.156481 97.004046 87.492188 97.34375 L 87.492188 118.91211 C 87.492188 123.65338 83.617743 127.53711 78.869141 127.53711 L 38.625 127.53711 C 33.881475 127.53711 30 123.65338 30 118.91211 L 30 49.919922 C 30 45.178091 33.878089 41.296875 38.625 41.296875 z M 65.478516 49.076172 L 69.900391 49.076172 C 70.860268 49.076172 71.646484 49.859611 71.646484 50.818359 L 71.646484 55.244141 C 71.646484 56.200632 70.857447 56.986328 69.900391 56.986328 L 65.478516 56.986328 C 64.521459 56.986328 63.736328 56.200632 63.736328 55.244141 L 63.736328 50.818359 C 63.736328 49.860174 64.521459 49.076172 65.478516 49.076172 z M 100.22461 49.691406 L 103.04883 49.691406 C 103.65714 49.691406 104.16211 50.191596 104.16211 50.802734 L 104.16211 53.628906 C 104.16211 54.24061 103.65714 54.742188 103.04883 54.742188 L 100.22461 54.742188 C 99.6129 54.742187 99.115234 54.24061 99.115234 53.628906 L 99.115234 50.802734 C 99.115234 50.191031 99.6129 49.691406 100.22461 49.691406 z M 124.04883 56.339844 C 136.86023 58.902123 149.67014 66.587477 152.23242 84.523438 L 162.48242 84.523438 L 144.54688 102.46094 L 126.61133 84.523438 L 137.11523 84.523438 C 137.11523 71.712037 133.01681 62.745544 124.04883 56.339844 z M 88.949219 56.986328 L 88.951172 56.986328 L 93.376953 56.986328 C 94.335703 56.986328 95.123047 57.769766 95.123047 58.728516 L 95.123047 63.154297 C 95.123047 64.111354 94.335703 64.896484 93.376953 64.896484 L 88.953125 64.896484 C 87.994934 64.896484 87.210938 64.111354 87.210938 63.154297 L 87.208984 63.154297 L 87.208984 58.728516 C 87.208984 57.770429 87.995311 56.98741 88.949219 56.986328 z M 106.22852 56.990234 L 113.72852 56.990234 C 115.35314 56.990234 116.68164 58.316216 116.68164 59.941406 L 116.68164 67.445312 C 116.68164 69.072195 115.35371 70.398438 113.72852 70.398438 L 106.22461 70.398438 C 104.59998 70.398438 103.27344 69.072195 103.27344 67.445312 L 103.27734 67.445312 L 103.27734 59.941406 C 103.27734 58.31678 104.60333 56.990234 106.22852 56.990234 z M 55.724609 59.619141 C 53.360184 59.619141 51.435547 61.542389 51.435547 63.90625 L 51.435547 67.505859 C 51.435547 69.871414 53.360184 71.796875 55.724609 71.796875 L 59.320312 71.796875 C 61.68756 71.796875 63.613281 69.871414 63.613281 67.505859 L 63.613281 63.90625 C 63.613281 61.541824 61.68756 59.619141 59.320312 59.619141 L 55.724609 59.619141 z M 70.242188 60.943359 L 78.556641 60.943359 C 80.353943 60.943359 81.830078 62.418973 81.830078 64.212891 L 81.830078 72.529297 C 81.830078 74.329985 80.353943 75.802734 78.556641 75.802734 L 70.242188 75.802734 C 68.439807 75.802734 66.970703 74.329985 66.970703 72.529297 L 66.96875 72.529297 L 66.96875 64.212891 C 66.96875 62.418973 68.443193 60.943359 70.242188 60.943359 z M 55.728516 62.492188 L 59.324219 62.492188 C 60.102391 62.492187 60.742188 63.129771 60.742188 63.90625 L 60.742188 67.505859 C 60.742188 68.284596 60.102391 68.919922 59.324219 68.919922 L 55.728516 68.919922 C 54.946958 68.919922 54.314453 68.287983 54.314453 67.505859 L 54.314453 63.90625 C 54.314453 63.129771 54.946958 62.492188 55.728516 62.492188 z M 84.701172 64.951172 C 85.212993 66.162165 86.234357 67.098041 87.492188 67.515625 L 87.492188 71.474609 C 86.444278 71.771996 85.457303 72.219582 84.628906 72.898438 C 84.635686 72.77147 84.701172 72.663036 84.701172 72.529297 L 84.701172 64.951172 z M 89.287109 73.998047 L 100.95117 73.998047 C 103.47304 73.998047 105.53711 76.067977 105.53711 78.589844 L 105.53711 90.253906 C 105.53711 92.776336 103.47304 94.84375 100.95117 94.84375 L 89.287109 94.84375 C 86.757907 94.84375 84.697266 92.776336 84.697266 90.253906 L 84.697266 78.589844 C 84.697266 76.064028 86.761293 73.998047 89.287109 73.998047 z M 58.525391 75.802734 L 62.951172 75.802734 C 63.909359 75.802734 64.693359 76.587865 64.693359 77.544922 L 64.693359 81.972656 C 64.693359 82.929713 63.909922 83.712891 62.951172 83.712891 L 58.525391 83.712891 C 57.5689 83.712891 56.783203 82.929713 56.783203 81.972656 L 56.783203 77.544922 C 56.783204 76.58448 57.568335 75.802734 58.525391 75.802734 z M 113.40234 75.802734 L 116.99609 75.802734 C 117.77313 75.802734 118.41602 76.440577 118.41602 77.21875 L 118.41602 80.818359 C 118.41602 81.599917 117.77313 82.232422 116.99609 82.232422 L 113.40234 82.232422 C 112.61909 82.232422 111.98633 81.599917 111.98633 80.818359 L 111.98633 77.21875 C 111.98633 76.440577 112.61909 75.802734 113.40234 75.802734 z M 82.056641 77.443359 C 81.995132 77.833292 81.822266 78.182418 81.822266 78.589844 L 81.822266 84.042969 C 80.812165 83.199336 79.566181 82.632812 78.154297 82.632812 L 70.646484 82.632812 C 69.271845 82.632812 68.05602 83.181937 67.056641 83.984375 C 67.364186 83.369285 67.570312 82.699478 67.570312 81.972656 L 67.570312 78.005859 C 68.387986 78.404257 69.271588 78.679688 70.242188 78.679688 L 70.242188 78.677734 L 78.556641 78.677734 C 79.883315 78.677734 81.04654 78.164538 82.056641 77.443359 z M 70.642578 85.507812 L 78.148438 85.507812 C 79.777013 85.507812 81.101562 86.832362 81.101562 88.460938 L 81.101562 95.964844 C 81.101562 97.590035 79.777578 98.916016 78.148438 98.916016 L 70.642578 98.916016 C 69.017388 98.916016 67.691406 97.590599 67.691406 95.964844 L 67.691406 88.460938 C 67.691406 86.832926 69.017388 85.507812 70.642578 85.507812 z M 111.48438 112.63867 L 146.15234 112.63867 L 176.31055 112.63867 C 180.76552 112.63867 184.38086 116.25792 184.38086 120.71289 L 184.38086 145.06055 L 184.38086 153.83789 L 184.38086 156.88477 L 184.38086 161.625 C 184.38086 162.67211 184.74382 163.68136 185.41016 164.5 L 189.52148 169.52539 C 189.84513 169.92519 190.01706 170.4015 189.99805 170.89648 L 189.99805 173.23828 C 189.99805 176.24633 187.56225 178.70312 184.53516 178.70312 L 103.2207 178.70312 C 100.21265 178.70313 97.755859 176.26537 97.755859 173.23828 L 97.755859 170.89648 C 97.755859 170.4015 97.929759 169.90615 98.234375 169.52539 L 102.38281 164.42188 C 103.04916 163.60322 103.41211 162.59593 103.41211 161.54883 L 103.41211 155.60938 L 103.41211 153.83789 L 103.41211 120.71289 C 103.41211 116.25792 107.02941 112.63867 111.48438 112.63867 z M 111.48438 120.67188 L 111.46484 120.69336 L 111.46484 162.08203 L 176.36523 162.08203 L 176.36523 120.69336 L 149.80859 120.67188 L 111.48438 120.67188 z M 135.16602 170.13477 L 135.16602 170.72461 C 135.16599 172.26671 136.40516 173.50391 137.94727 173.50391 L 149.86523 173.50391 C 151.40734 173.50391 152.64453 172.26671 152.64453 170.72461 L 152.64453 170.13477 L 135.16602 170.13477 z "
       transform="translate(0,832.36216)"
       id="rect3718" />
    <g
       id="g3485"
       transform="matrix(0.56430217,0,0,0.56430217,30.000194,872.57161)">
      <g
         id="g3415">
        <g
           id="g3417">
          <g
             id="g3419" />
          <g
             id="g3427" />
        </g>
      </g>
      <g
         id="g3449" />
      <g
         id="g3451" />
      <g
         id="g3453" />
      <g
         id="g3455" />
      <g
         id="g3457" />
      <g
         id="g3459" />
      <g
         id="g3461" />
      <g
         id="g3463" />
      <g
         id="g3465" />
      <g
         id="g3467" />
      <g
         id="g3469" />
      <g
         id="g3471" />
      <g
         id="g3473" />
      <g
         id="g3475" />
      <g
         id="g3477" />
    </g>
    <g
       id="g3621"
       transform="matrix(0,-0.10893246,-0.10893246,0,165.76498,914.10372)">
      <g
         id="g3580">
        <g
           id="reply">
          <g
             id="g3676">
            <g
               transform="matrix(0,-1.8947074,-1.8947074,0,28.961248,682.40826)"
               id="g3389"
               style="">
              <g
                 id="g3337">
                <g
                   id="g3339">
                  <g
                     id="g3341">
                    <g
                       id="g3343" />
                  </g>
                  <g
                     id="g3347">
                    <g
                       id="g3349" />
                  </g>
                </g>
              </g>
              <g
                 id="g3353" />
              <g
                 id="g3355" />
              <g
                 id="g3357" />
              <g
                 id="g3359" />
              <g
                 id="g3361" />
              <g
                 id="g3363" />
              <g
                 id="g3365" />
              <g
                 id="g3367" />
              <g
                 id="g3369" />
              <g
                 id="g3371" />
              <g
                 id="g3373" />
              <g
                 id="g3375" />
              <g
                 id="g3377" />
              <g
                 id="g3379" />
              <g
                 id="g3381" />
            </g>
          </g>
        </g>
      </g>
      <g
         id="g3585" />
      <g
         id="g3587" />
      <g
         id="g3589" />
      <g
         id="g3591" />
      <g
         id="g3593" />
      <g
         id="g3595" />
      <g
         id="g3597" />
      <g
         id="g3599" />
      <g
         id="g3601" />
      <g
         id="g3603" />
      <g
         id="g3605" />
      <g
         id="g3607" />
      <g
         id="g3609" />
      <g
         id="g3611" />
      <g
         id="g3613" />
    </g>
  </g>
</svg>
