<?xml version="1.0" encoding="UTF-8" standalone="no"?>
<!-- Created with Inkscape (http://www.inkscape.org/) -->

<svg
   xmlns:dc="http://purl.org/dc/elements/1.1/"
   xmlns:cc="http://creativecommons.org/ns#"
   xmlns:rdf="http://www.w3.org/1999/02/22-rdf-syntax-ns#"
   xmlns:svg="http://www.w3.org/2000/svg"
   xmlns="http://www.w3.org/2000/svg"
   xmlns:sodipodi="http://sodipodi.sourceforge.net/DTD/sodipodi-0.dtd"
   xmlns:inkscape="http://www.inkscape.org/namespaces/inkscape"
   width="62.08889mm"
   height="62.08889mm"
   viewBox="0 0 220 220"
   id="svg2"
   version="1.1"
   inkscape:version="0.91 r13725"
   sodipodi:docname="ufu_agenda_cultural.svg">
  <defs
     id="defs4" />
  <sodipodi:namedview
     id="base"
     pagecolor="#ffffff"
     bordercolor="#666666"
     borderopacity="1.0"
     inkscape:pageopacity="0.0"
     inkscape:pageshadow="2"
     inkscape:zoom="2.9590909"
     inkscape:cx="65.560677"
     inkscape:cy="81.830749"
     inkscape:document-units="px"
     inkscape:current-layer="layer1"
     showgrid="false"
     fit-margin-top="0"
     fit-margin-left="0"
     fit-margin-right="0"
     fit-margin-bottom="0"
     inkscape:window-width="1440"
     inkscape:window-height="847"
     inkscape:window-x="-8"
     inkscape:window-y="-8"
     inkscape:window-maximized="1" />
  <metadata
     id="metadata7">
    <rdf:RDF>
      <cc:Work
         rdf:about="">
        <dc:format>image/svg+xml</dc:format>
        <dc:type
           rdf:resource="http://purl.org/dc/dcmitype/StillImage" />
        <dc:title></dc:title>
      </cc:Work>
    </rdf:RDF>
  </metadata>
  <g
     inkscape:label="Camada 1"
     inkscape:groupmode="layer"
     id="layer1"
     transform="translate(-255.16926,-346.10076)">
    <g
       transform="translate(-185.30977,-160.23845)"
       id="layer1-5"
       inkscape:label="Camada 1"
       style="fill:#ffffff">
      <path
         style="color:#000000;clip-rule:nonzero;display:inline;overflow:visible;visibility:visible;opacity:1;isolation:auto;mix-blend-mode:normal;color-interpolation:sRGB;color-interpolation-filters:linearRGB;solid-color:#000000;solid-opacity:1;fill:#ffffff;fill-opacity:1;fill-rule:nonzero;stroke:none;stroke-width:5;stroke-linecap:square;stroke-linejoin:miter;stroke-miterlimit:4;stroke-dasharray:none;stroke-dashoffset:0;stroke-opacity:1;color-rendering:auto;image-rendering:auto;shape-rendering:auto;text-rendering:auto;enable-background:accumulate"
         d="M 0 0 L 0 220 L 220 220 L 220 0 L 0 0 z M 114.04102 31.0625 L 115.75781 31.0625 C 118.36665 31.0625 120.48242 33.177056 120.48242 35.785156 L 120.48242 39.541016 L 120.48242 53.697266 C 120.48242 56.305856 118.36665 58.421875 115.75781 58.421875 L 114.04102 58.421875 C 111.43218 58.421875 109.31691 56.306106 109.31641 53.697266 L 109.31641 39.541016 L 109.31641 35.785156 C 109.31641 33.177056 111.43169 31.0625 114.04102 31.0625 z M 53.449219 31.177734 L 55.166016 31.177734 C 57.775106 31.177734 59.890625 33.293994 59.890625 35.902344 L 59.890625 40.779297 L 59.890625 53.814453 C 59.890625 56.422803 57.775106 58.539062 55.166016 58.539062 L 53.449219 58.539062 C 50.840379 58.539062 48.724609 56.422803 48.724609 53.814453 L 48.724609 40.779297 L 48.724609 35.902344 C 48.724609 33.293994 50.840379 31.177734 53.449219 31.177734 z M 31.804688 40.779297 L 44.886719 40.779297 L 44.886719 53.814453 C 44.886719 58.536753 48.727169 62.378906 53.449219 62.378906 L 55.166016 62.378906 C 59.888306 62.378906 63.730469 58.536753 63.730469 53.814453 L 63.730469 40.779297 L 105.47852 40.779297 L 105.47852 53.697266 C 105.47852 58.419556 109.31873 62.261719 114.04102 62.261719 L 115.75781 62.261719 C 120.47961 62.261719 124.32227 59.657837 124.32227 54.935547 L 124.32227 40.779297 L 136.44531 40.779297 C 140.67988 40.779297 144.12549 44.224404 144.125 48.458984 L 144.125 141.25977 C 144.125 145.49459 140.67988 148.93945 136.44531 148.93945 L 31.804688 148.93945 C 27.570148 148.93945 24.125 145.49459 24.125 141.25977 L 24.125 48.458984 C 24.125 44.224164 27.570147 40.779297 31.804688 40.779297 z M 31.804688 71.177734 L 31.804688 141.25977 L 136.44531 141.25977 C 136.44831 141.25977 136.45017 141.25781 136.45117 141.25781 L 136.44727 71.177734 L 31.804688 71.177734 z M 88.089844 80.765625 L 101.87891 80.765625 C 102.42553 80.765625 102.86914 81.209249 102.86914 81.755859 L 102.86914 93.695312 C 102.86914 94.241932 102.42553 94.685547 101.87891 94.685547 L 88.089844 94.685547 C 87.543234 94.685547 87.099609 94.241932 87.099609 93.695312 L 87.099609 81.755859 C 87.099609 81.209249 87.543234 80.765625 88.089844 80.765625 z M 110.59375 80.765625 L 124.38477 80.765625 C 124.93139 80.765625 125.37305 81.209249 125.37305 81.755859 L 125.37305 93.695312 C 125.37305 94.241932 124.93139 94.685547 124.38477 94.685547 L 110.59375 94.685547 C 110.04714 94.685547 109.60547 94.241932 109.60547 93.695312 L 109.60547 81.755859 C 109.60547 81.209249 110.04714 80.765625 110.59375 80.765625 z M 43.082031 100.31445 L 56.871094 100.31445 C 57.417704 100.31445 57.861328 100.75612 57.861328 101.30273 L 57.861328 113.24414 C 57.861328 113.79075 57.417704 114.23438 56.871094 114.23438 L 43.082031 114.23438 C 42.535421 114.23437 42.09375 113.79075 42.09375 113.24414 L 42.09375 101.30273 C 42.09375 100.75612 42.535421 100.31445 43.082031 100.31445 z M 65.585938 100.31445 L 79.375 100.31445 C 79.92161 100.31445 80.365234 100.75612 80.365234 101.30273 L 80.365234 113.24414 C 80.365234 113.79075 79.92161 114.23438 79.375 114.23438 L 65.585938 114.23438 C 65.039317 114.23437 64.597656 113.79075 64.597656 113.24414 L 64.597656 101.30273 C 64.597656 100.75612 65.039317 100.31445 65.585938 100.31445 z M 88.089844 100.31445 L 101.87891 100.31445 C 102.42553 100.31445 102.86914 100.75612 102.86914 101.30273 L 102.86914 113.24414 C 102.86914 113.79075 102.42553 114.23438 101.87891 114.23438 L 88.089844 114.23438 C 87.543234 114.23437 87.101562 113.79075 87.101562 113.24414 L 87.101562 101.30273 C 87.101562 100.75612 87.543234 100.31445 88.089844 100.31445 z M 110.59375 100.31445 L 124.38477 100.31445 C 124.93139 100.31445 125.37305 100.75612 125.37305 101.30273 L 125.37305 113.24414 C 125.37305 113.79075 124.93139 114.23438 124.38477 114.23438 L 110.59375 114.23438 C 110.04714 114.23437 109.60547 113.79075 109.60547 113.24414 L 109.60547 101.30273 C 109.60547 100.75612 110.04714 100.31445 110.59375 100.31445 z M 43.083984 119.86133 L 56.871094 119.86133 C 57.417704 119.86133 57.861078 120.30495 57.861328 120.85156 L 57.861328 132.79297 C 57.861328 133.33958 57.419667 133.7832 56.873047 133.7832 L 43.083984 133.7832 C 42.537374 133.7832 42.09375 133.33958 42.09375 132.79297 L 42.09375 120.85156 C 42.09375 120.30495 42.537374 119.86133 43.083984 119.86133 z M 65.585938 119.86133 L 79.376953 119.86133 C 79.923563 119.86133 80.365234 120.30495 80.365234 120.85156 L 80.365234 132.79297 C 80.365234 133.33958 79.923563 133.7832 79.376953 133.7832 L 65.585938 133.7832 C 65.039317 133.7832 64.597656 133.33958 64.597656 132.79297 L 64.597656 120.85156 C 64.597656 120.30495 65.039317 119.86133 65.585938 119.86133 z M 88.089844 119.86133 L 101.88086 119.86133 C 102.42747 119.86133 102.86914 120.30495 102.86914 120.85156 L 102.86914 132.79297 C 102.86914 133.33958 102.42747 133.7832 101.88086 133.7832 L 88.089844 133.7832 C 87.543234 133.7832 87.101562 133.33958 87.101562 132.79297 L 87.101562 120.85156 C 87.101562 120.30495 87.543234 119.86133 88.089844 119.86133 z M 110.59375 119.86133 L 124.38477 119.86133 C 124.93139 119.86133 125.37305 120.30495 125.37305 120.85156 L 125.37305 132.79297 C 125.37305 133.33958 124.93139 133.7832 124.38477 133.7832 L 110.59375 133.7832 C 110.04714 133.7832 109.60547 133.33958 109.60547 132.79297 L 109.60547 120.85156 C 109.60547 120.30495 110.04714 119.86133 110.59375 119.86133 z M 150.81836 155 C 150.94905 155 151.07965 155.02183 151.20508 155.06641 C 153.92429 156.02174 158.11906 156.63672 162.83789 156.63672 C 167.55662 156.63672 171.75149 156.02174 174.4707 155.06641 C 174.59681 155.02183 174.72858 155 174.85938 155 C 175.05093 155 175.24084 155.04709 175.41211 155.13867 C 175.70207 155.29414 175.91377 155.56359 175.99414 155.88281 C 176.53038 157.99439 176.82812 160.26795 176.82812 162.64453 C 176.82813 173.66348 170.56433 182.5957 162.83789 182.5957 C 155.11125 182.5957 148.84766 173.66348 148.84766 162.64453 C 148.84766 160.26795 149.14541 157.99449 149.68164 155.88281 C 149.76211 155.56427 149.97449 155.29414 150.26367 155.13867 C 150.43572 155.0468 150.6269 155 150.81836 155 z M 157.10547 163.33594 C 155.63916 163.33594 154.44922 164.13709 154.44922 165.125 C 154.44922 166.11271 155.63916 166.91406 157.10547 166.91406 C 158.57168 166.91406 159.75977 167.03654 159.75977 166.04883 C 159.75977 165.06092 158.57168 163.33594 157.10547 163.33594 z M 168.57031 163.33594 C 167.10401 163.33594 165.91602 165.06092 165.91602 166.04883 C 165.91602 167.03654 167.10401 166.91406 168.57031 166.91406 C 170.03652 166.91406 171.22461 166.11271 171.22461 165.125 C 171.22461 164.13709 170.03652 163.33594 168.57031 163.33594 z M 193.12109 167.40625 C 193.28147 167.41853 193.43939 167.46367 193.58398 167.54102 C 193.87395 167.69668 194.08565 167.96593 194.16602 168.28516 C 194.70225 170.39684 194.9999 172.67196 195 175.04883 C 195 186.06758 188.73621 195 181.00977 195 C 175.21828 195 170.24877 189.98127 168.12305 182.82617 C 170.00845 181.87747 171.72012 180.44242 173.18555 178.62305 C 173.67077 179.04517 174.42325 179.32227 175.27734 179.32227 C 176.74355 179.32227 177.93164 177.59709 177.93164 176.60938 C 177.93164 175.62166 176.74365 175.74414 175.27734 175.74414 C 175.22185 175.74414 175.16829 175.75362 175.11328 175.75586 C 176.24456 173.73069 177.13127 171.43003 177.68555 168.92578 C 178.75753 168.99474 179.86259 169.03906 181.00977 169.03906 C 185.7284 169.03906 189.92337 168.42408 192.64258 167.46875 C 192.79766 167.41428 192.96071 167.39397 193.12109 167.40625 z M 157.625 171.67773 C 157.57345 171.66787 157.52025 171.67063 157.46875 171.6875 C 157.36595 171.72222 157.28649 171.80716 157.26172 171.91211 C 157.1716 172.296 157.11719 172.69183 157.11719 173.10352 C 157.11719 176.26279 159.67832 178.82422 162.83789 178.82422 C 165.99727 178.82422 168.55869 176.26279 168.55859 173.10352 C 168.55859 172.69183 168.50223 172.296 168.41211 171.91211 C 168.38734 171.80716 168.30993 171.72144 168.20703 171.6875 C 168.10413 171.65307 167.99101 171.67421 167.9082 171.74414 C 166.81847 172.65987 164.96449 173.26953 162.83789 173.26953 C 160.71129 173.26953 158.85741 172.65987 157.76758 171.74414 C 157.72622 171.70957 157.67655 171.6876 157.625 171.67773 z M 185.70898 175.74023 C 184.75618 175.75213 184.08789 175.86859 184.08789 176.60938 C 184.08789 177.59709 185.27588 179.32227 186.74219 179.32227 C 188.2084 179.32227 189.39834 178.52092 189.39844 177.5332 C 189.39844 176.54549 188.2084 175.74414 186.74219 175.74414 C 186.37564 175.74414 186.02659 175.73627 185.70898 175.74023 z M 181.00977 182.26172 C 177.85029 182.26172 175.28906 184.82285 175.28906 187.98242 C 175.28906 188.39411 175.34533 188.78994 175.43555 189.17383 C 175.46032 189.27897 175.53773 189.36391 175.64062 189.39844 C 175.74342 189.43218 175.85665 189.41095 175.93945 189.3418 C 177.02919 188.42606 178.88307 187.81836 181.00977 187.81836 C 183.13627 187.81836 184.99025 188.42606 186.08008 189.3418 C 186.16279 189.41173 186.27591 189.43287 186.37891 189.39844 C 186.48171 189.36469 186.56116 189.27897 186.58594 189.17383 C 186.67606 188.79004 186.73027 188.39411 186.73047 187.98242 C 186.73047 184.82295 184.16924 182.26172 181.00977 182.26172 z "
         transform="translate(440.47903,506.33921)"
         id="rect6146" />
    </g>
    <g
       id="g4250"
       transform="matrix(0.09753267,0,0,0.09753267,404.01726,498.02478)">
      <g
         id="g4208" />
      <g
         id="g4214" />
      <g
         id="g4216" />
      <g
         id="g4218" />
      <g
         id="g4220" />
      <g
         id="g4222" />
      <g
         id="g4224" />
      <g
         id="g4226" />
      <g
         id="g4228" />
      <g
         id="g4230" />
      <g
         id="g4232" />
      <g
         id="g4234" />
      <g
         id="g4236" />
      <g
         id="g4238" />
      <g
         id="g4240" />
      <g
         id="g4242" />
    </g>
  </g>
</svg>
