<?xml version="1.0" encoding="UTF-8" standalone="no"?>
<!-- Created with Inkscape (http://www.inkscape.org/) -->

<svg
   xmlns:dc="http://purl.org/dc/elements/1.1/"
   xmlns:cc="http://creativecommons.org/ns#"
   xmlns:rdf="http://www.w3.org/1999/02/22-rdf-syntax-ns#"
   xmlns:svg="http://www.w3.org/2000/svg"
   xmlns="http://www.w3.org/2000/svg"
   xmlns:sodipodi="http://sodipodi.sourceforge.net/DTD/sodipodi-0.dtd"
   xmlns:inkscape="http://www.inkscape.org/namespaces/inkscape"
   width="220"
   height="220"
   viewBox="0 0 219.99999 220"
   id="svg2"
   version="1.1"
   inkscape:version="0.91 r13725"
   sodipodi:docname="ufu_promocao_igualdade.svg">
  <defs
     id="defs4" />
  <sodipodi:namedview
     id="base"
     pagecolor="#ffffff"
     bordercolor="#666666"
     borderopacity="1.0"
     inkscape:pageopacity="0.0"
     inkscape:pageshadow="2"
     inkscape:zoom="2.9590909"
     inkscape:cx="187.72657"
     inkscape:cy="110"
     inkscape:document-units="px"
     inkscape:current-layer="layer1"
     showgrid="false"
     units="px"
     inkscape:window-width="1600"
     inkscape:window-height="847"
     inkscape:window-x="1432"
     inkscape:window-y="-8"
     inkscape:window-maximized="1" />
  <metadata
     id="metadata7">
    <rdf:RDF>
      <cc:Work
         rdf:about="">
        <dc:format>image/svg+xml</dc:format>
        <dc:type
           rdf:resource="http://purl.org/dc/dcmitype/StillImage" />
        <dc:title></dc:title>
      </cc:Work>
    </rdf:RDF>
  </metadata>
  <g
     inkscape:label="Camada 1"
     inkscape:groupmode="layer"
     id="layer1"
     transform="translate(0,-832.36216)">
    <path
       style="color:#000000;clip-rule:nonzero;display:inline;overflow:visible;visibility:visible;opacity:1;isolation:auto;mix-blend-mode:normal;color-interpolation:sRGB;color-interpolation-filters:linearRGB;solid-color:#000000;solid-opacity:1;fill:#ffffff;fill-opacity:1;fill-rule:nonzero;stroke:none;stroke-width:5;stroke-linecap:square;stroke-linejoin:miter;stroke-miterlimit:4;stroke-dasharray:none;stroke-dashoffset:0;stroke-opacity:1;color-rendering:auto;image-rendering:auto;shape-rendering:auto;text-rendering:auto;enable-background:accumulate"
       d="M 0 0 L 0 220 L 220 220 L 220 0 L 0 0 z M 94.601562 30 C 98.909426 30 102.40625 33.492183 102.40625 37.806641 C 102.40625 42.114527 98.909426 45.607422 94.601562 45.607422 C 90.291038 45.607422 86.794922 42.114527 86.794922 37.806641 C 86.794922 33.492183 90.291038 30 94.601562 30 z M 131.9375 36.884766 C 136.39978 36.884722 140.01953 40.494751 140.01953 44.957031 C 140.01953 45.521808 139.95685 46.07075 139.84766 46.603516 C 138.66472 47.853082 137.7741 49.360188 137.21094 51.025391 C 135.79296 52.256961 133.96518 53.029297 131.9375 53.029297 C 127.47734 53.029297 123.86523 49.41721 123.86523 44.957031 C 123.86523 40.494751 127.47761 36.884766 131.9375 36.884766 z M 112.71484 45.070312 C 117.6446 45.070312 121.63867 49.062041 121.63867 53.994141 C 121.63867 55.173093 121.3995 56.292968 120.98438 57.322266 C 117.95833 58.170994 115.42874 60.151161 113.86719 62.804688 C 113.48645 62.853059 113.1096 62.917969 112.71484 62.917969 C 107.7867 62.917969 103.79125 58.922552 103.79102 53.994141 C 103.79102 49.062041 107.7867 45.070312 112.71484 45.070312 z M 148.56641 45.925781 C 153.49667 45.925781 157.49609 49.91751 157.49609 54.849609 C 157.49609 59.777775 153.4964 63.769531 148.56641 63.769531 C 143.63851 63.769531 139.64258 59.777775 139.64258 54.849609 C 139.64258 49.91751 143.63851 45.925781 148.56641 45.925781 z M 88.632812 47.109375 L 100.56836 47.109375 C 100.9512 47.109375 101.86903 47.347159 102.47266 47.751953 C 101.35477 49.577114 100.67773 51.70153 100.67773 53.994141 C 100.67773 56.990052 101.81959 59.701947 103.63867 61.810547 C 102.0832 62.120408 100.68034 62.910157 99.677734 64.111328 C 98.045078 59.3963 93.611978 55.976562 88.349609 55.976562 C 85.688182 55.976562 82.536394 57.049594 80.207031 59.203125 L 84.816406 49.109375 C 85.510721 47.585959 86.945122 47.109375 88.632812 47.109375 z M 69.121094 50.898438 C 73.581256 50.898437 77.199219 54.510131 77.199219 58.972656 C 77.199219 63.432567 73.581256 67.048828 69.121094 67.048828 C 64.658817 67.048828 61.044922 63.432567 61.044922 58.972656 C 61.044922 54.510131 64.658817 50.898438 69.121094 50.898438 z M 125.76367 54.587891 L 136.56055 54.587891 C 136.55844 54.677258 136.53516 54.760509 136.53516 54.849609 C 136.53516 57.845005 137.67142 60.557417 139.49023 62.666016 C 137.9345 62.97563 136.53801 63.759767 135.53516 64.960938 C 133.92099 60.298261 129.55836 56.920541 124.37109 56.845703 C 124.53369 56.187357 124.6217 55.503614 124.66797 54.806641 C 124.84009 54.751919 125.72509 54.587891 125.76367 54.587891 z M 88.349609 59.089844 C 93.277775 59.089844 97.273438 63.08155 97.273438 68.013672 C 97.273437 72.941815 93.277775 76.933594 88.349609 76.933594 C 83.419896 76.933594 79.419922 72.941815 79.419922 68.013672 C 79.419929 63.08155 83.419896 59.089844 88.349609 59.089844 z M 124.20508 59.941406 C 129.13322 59.941406 133.12891 63.932844 133.12891 68.865234 C 133.12891 73.793377 129.13322 77.789062 124.20508 77.789062 C 119.27508 77.789062 115.27734 73.793377 115.27734 68.865234 C 115.27734 63.933113 119.27508 59.941406 124.20508 59.941406 z M 105.89062 64.638672 C 107.57617 64.638672 104.75933 64.638435 112.97266 64.638672 C 112.474 65.959611 112.16406 67.372421 112.16406 68.865234 C 112.16406 71.860607 113.30592 74.571088 115.125 76.679688 C 112.97199 77.106946 111.10499 78.478398 110.1875 80.5 L 106.4707 88.638672 L 102.36719 79.648438 C 102.24344 79.379014 102.05063 79.163488 101.89648 78.916016 C 100.89969 77.31613 99.312275 76.210918 97.460938 75.832031 L 97.503906 75.728516 C 98.901786 74.073641 99.858766 72.062743 100.20117 69.826172 L 101.52539 66.921875 C 102.30511 65.200366 103.91979 64.638672 105.89062 64.638672 z M 141.74219 65.490234 L 155.39453 65.490234 C 157.31277 65.490234 158.95975 66.029463 159.75586 67.773438 L 172.48242 95.654297 C 173.35734 97.570144 172.51607 99.834081 170.59766 100.70898 C 168.69369 101.58203 166.41988 100.7546 165.54102 98.824219 L 159.38477 85.341797 C 159.38477 93.501965 159.39844 107.62004 159.39844 132.85938 C 159.39844 135.38915 157.34787 137.43945 154.81836 137.43945 C 152.28831 137.43945 150.23828 135.38915 150.23828 132.85938 L 150.23828 115.29492 C 150.59707 114.79627 150.91586 114.26512 151.13477 113.67578 C 151.78281 111.94184 151.71666 110.06376 150.94727 108.38086 L 138.22461 80.5 C 137.43433 78.775852 135.58262 77.147624 133.3125 76.683594 L 133.36133 76.580078 C 134.75869 74.927306 135.71621 72.911816 136.05859 70.675781 L 137.38086 67.773438 C 138.16903 66.039522 139.78959 65.490234 141.74219 65.490234 z M 62.943359 68.603516 L 75.298828 68.603516 C 75.339547 68.603516 76.228488 68.773553 76.394531 68.826172 C 76.56216 71.299352 77.466003 73.551546 78.910156 75.392578 L 78.910156 75.876953 C 76.908915 76.385667 75.197045 77.734518 74.330078 79.644531 L 66.445312 96.919922 L 61.603516 107.52539 C 60.833584 109.20856 60.767708 111.09055 61.416016 112.82422 C 62.061945 114.55816 63.346188 115.93546 65.025391 116.70117 C 65.851641 117.08006 66.732462 117.26523 67.611328 117.28711 L 67.611328 129.5625 C 67.611328 131.85142 65.755177 133.70703 63.466797 133.70703 C 61.177887 133.70703 59.320312 131.85142 59.320312 129.5625 C 59.320312 102.65215 59.333984 87.55888 59.333984 86.564453 L 53.767578 98.767578 C 52.981783 100.48909 50.943055 101.27468 49.191406 100.47461 C 47.455356 99.682994 46.691969 97.63394 47.484375 95.898438 L 58.996094 70.667969 C 59.713409 69.098216 61.18933 68.603516 62.943359 68.603516 z M 81.519531 78.652344 L 95.171875 78.652344 C 97.106477 78.652344 98.745565 79.203711 99.533203 80.935547 L 104.75977 92.382812 L 100.56445 101.57422 L 99.167969 98.509766 L 99.167969 104.63867 L 97.460938 108.38086 C 96.7643 109.90776 96.601344 111.87311 97.273438 113.67578 C 97.674789 114.75347 98.34285 115.67243 99.179688 116.41406 L 99.179688 146.02344 C 99.179688 148.55297 97.131073 150.60156 94.601562 150.60156 C 92.071784 150.60156 90.021484 148.55297 90.021484 146.02344 L 90.021484 118.72266 L 86.675781 118.72266 L 86.675781 146.02344 C 86.675781 148.55297 84.627435 150.60156 82.097656 150.60156 C 79.567614 150.60156 77.517578 148.55297 77.517578 146.02344 C 77.517578 108.2801 77.529297 108.68594 77.529297 98.503906 L 71.378906 111.98633 C 70.50004 113.91646 68.226203 114.74583 66.322266 113.87305 C 64.404043 112.99763 63.556477 110.73225 64.431641 108.81641 L 77.158203 80.935547 C 77.945849 79.1979 79.579365 78.652344 81.519531 78.652344 z M 117.37695 79.509766 L 131.0293 79.509766 C 132.96578 79.509766 134.6006 80.057397 135.39062 81.787109 L 148.11719 109.67188 C 148.99263 111.58792 148.14871 113.85363 146.23047 114.72852 C 145.7178 114.96358 145.17713 115.07227 144.64648 115.07227 C 143.19838 115.07227 141.812 114.24317 141.17188 112.83789 L 135.02344 99.365234 L 135.02344 113.89453 C 135.02344 113.91621 135.0332 113.93471 135.0332 113.95508 L 135.0332 146.875 C 135.0332 149.40478 132.98317 151.45312 130.45312 151.45312 C 127.92361 151.45313 125.87305 149.40478 125.87305 146.875 L 125.87305 119.57812 L 122.5332 119.57812 L 122.5332 146.875 C 122.5332 149.40478 120.48317 151.45312 117.95312 151.45312 C 115.42361 151.45313 113.37305 149.40478 113.37305 146.875 L 113.37305 113.95508 C 113.37305 113.93445 113.38672 113.91621 113.38672 113.89453 L 113.38672 99.355469 L 107.23047 112.83789 C 106.35161 114.76827 104.07972 115.60183 102.17578 114.72852 C 100.25756 113.85363 99.414158 111.58792 100.28906 109.67188 L 113.01562 81.787109 C 113.8038 80.057397 115.42648 79.509766 117.37695 79.509766 z M 74.408203 112.8418 L 74.408203 133.63281 C 72.301993 133.43637 70.632812 131.71947 70.632812 129.5625 L 70.632812 116.67969 C 72.170033 116.0179 73.49236 114.85167 74.207031 113.2793 L 74.408203 112.8418 z M 138.14062 113.68945 L 138.3418 114.13086 C 139.7878 117.29862 143.64527 118.86905 146.89844 117.76758 L 146.89844 132.85938 C 146.89844 135.38915 144.84958 137.43945 142.32031 137.43945 C 140.45286 137.43945 138.85957 136.31293 138.14648 134.71094 L 138.14648 113.95508 L 138.14062 113.68945 z M 107.37891 117.10352 C 108.32467 117.31241 109.30592 117.34109 110.26172 117.14648 L 110.26172 134.41406 C 109.44947 135.69244 108.08922 136.58398 106.46289 136.58398 C 104.59544 136.58398 103.00162 135.4619 102.28906 133.85938 L 102.28906 118.00195 C 104.03489 118.36048 105.87214 118.0128 107.37891 117.10352 z M 76.46875 160.12891 L 143.5293 160.12891 L 143.5293 171.30469 L 76.46875 171.30469 L 76.46875 160.12891 z M 76.46875 178.82422 L 143.5293 178.82422 L 143.5293 190 L 76.46875 190 L 76.46875 178.82422 z "
       transform="translate(-7.6293945e-6,832.36216)"
       id="rect4053" />
    <g
       transform="matrix(1.8390805,0,0,1.8390805,29.999991,-913.01664)"
       id="layer1-6"
       inkscape:label="Camada 1">
      <text
         sodipodi:linespacing="125%"
         id="text3356"
         y="1073.4818"
         x="933.04791"
         style="font-style:normal;font-variant:normal;font-weight:normal;font-stretch:normal;font-size:15px;line-height:125%;font-family:'Open Sans';-inkscape-font-specification:'Open Sans, Normal';text-align:start;letter-spacing:0px;word-spacing:0px;writing-mode:lr-tb;text-anchor:start;fill:#000000;fill-opacity:1;stroke:none;stroke-width:1px;stroke-linecap:butt;stroke-linejoin:miter;stroke-opacity:1"
         xml:space="preserve"><tspan
           y="1073.4818"
           x="933.04791"
           id="tspan3358"
           sodipodi:role="line" /></text>
    </g>
    <g
       id="g3445"
       transform="matrix(0.68816066,0,0,0.57794746,53.134888,399.0819)">
      <g
         transform="scale(1.1921147,0.83884546)"
         style="font-style:normal;font-variant:normal;font-weight:bold;font-stretch:normal;font-size:47.41114807px;line-height:125%;font-family:'Kelson Sans BG';-inkscape-font-specification:'Kelson Sans BG, Bold';text-align:start;letter-spacing:0px;word-spacing:0px;writing-mode:lr-tb;text-anchor:start;fill:#000000;fill-opacity:1;stroke:none;stroke-width:1px;stroke-linecap:butt;stroke-linejoin:miter;stroke-opacity:1"
         id="text3433" />
    </g>
    <g
       transform="scale(1.0417585,0.95991538)"
       style="font-style:normal;font-variant:normal;font-weight:normal;font-stretch:normal;font-size:11.26152706px;line-height:125%;font-family:'Kelson Sans';-inkscape-font-specification:'Kelson Sans';text-align:start;letter-spacing:0px;word-spacing:0px;writing-mode:lr-tb;text-anchor:start;fill:#000000;fill-opacity:1;stroke:none;stroke-width:1px;stroke-linecap:butt;stroke-linejoin:miter;stroke-opacity:1"
       id="text3441" />
    <g
       style="font-style:normal;font-variant:normal;font-weight:normal;font-stretch:normal;font-size:29.74852371px;line-height:125%;font-family:Ubuntu;-inkscape-font-specification:'Ubuntu, Normal';text-align:start;letter-spacing:0px;word-spacing:0px;writing-mode:lr-tb;text-anchor:start;fill:#ffffff;fill-opacity:1;stroke:none;stroke-width:1px;stroke-linecap:butt;stroke-linejoin:miter;stroke-opacity:1"
       id="text3518" />
    <g
       transform="matrix(0.57471264,0,0,0.57471264,81.538393,407.5563)"
       id="layer1-9"
       inkscape:label="Camada 1">
      <g
         style="font-style:normal;font-variant:normal;font-weight:normal;font-stretch:normal;font-size:15px;line-height:125%;font-family:'Open Sans';-inkscape-font-specification:'Open Sans, Normal';text-align:start;letter-spacing:0px;word-spacing:0px;writing-mode:lr-tb;text-anchor:start;fill:#000000;fill-opacity:1;stroke:none;stroke-width:1px;stroke-linecap:butt;stroke-linejoin:miter;stroke-opacity:1"
         id="text3356-6" />
    </g>
    <g
       id="g3597"
       transform="matrix(2.1102437,0,0,2.1102437,29.999994,862.36256)"
       style="fill:#ffffff">
      <g
         id="g3557"
         style="fill:#ffffff" />
      <g
         id="g3561"
         style="fill:#ffffff" />
      <g
         id="g3563"
         style="fill:#ffffff" />
      <g
         id="g3565"
         style="fill:#ffffff" />
      <g
         id="g3567"
         style="fill:#ffffff" />
      <g
         id="g3569"
         style="fill:#ffffff" />
      <g
         id="g3571"
         style="fill:#ffffff" />
      <g
         id="g3573"
         style="fill:#ffffff" />
      <g
         id="g3575"
         style="fill:#ffffff" />
      <g
         id="g3577"
         style="fill:#ffffff" />
      <g
         id="g3579"
         style="fill:#ffffff" />
      <g
         id="g3581"
         style="fill:#ffffff" />
      <g
         id="g3583"
         style="fill:#ffffff" />
      <g
         id="g3585"
         style="fill:#ffffff" />
      <g
         id="g3587"
         style="fill:#ffffff" />
      <g
         id="g3589"
         style="fill:#ffffff" />
    </g>
    <g
       transform="matrix(0.53302611,0,0,0.53302611,-138.5561,307.92334)"
       id="layer1-3"
       inkscape:label="Camada 1"
       style="fill:#000000">
      <g
         transform="matrix(0.31054775,0,0,0.31054775,20.000001,852.36216)"
         id="g4185"
         style="fill:#000000">
        <g
           id="g4139"
           style="fill:#000000">
          <g
             id="g4141"
             style="fill:#000000" />
        </g>
        <g
           id="g4149"
           style="fill:#000000" />
        <g
           id="g4151"
           style="fill:#000000" />
        <g
           id="g4153"
           style="fill:#000000" />
        <g
           id="g4155"
           style="fill:#000000" />
        <g
           id="g4157"
           style="fill:#000000" />
        <g
           id="g4159"
           style="fill:#000000" />
        <g
           id="g4161"
           style="fill:#000000" />
        <g
           id="g4163"
           style="fill:#000000" />
        <g
           id="g4165"
           style="fill:#000000" />
        <g
           id="g4167"
           style="fill:#000000" />
        <g
           id="g4169"
           style="fill:#000000" />
        <g
           id="g4171"
           style="fill:#000000" />
        <g
           id="g4173"
           style="fill:#000000" />
        <g
           id="g4175"
           style="fill:#000000" />
        <g
           id="g4177"
           style="fill:#000000" />
      </g>
      <g
         transform="matrix(0.36372527,0,0,0.36372527,19.999788,852.36216)"
         id="g5587"
         style="fill:#000000">
        <g
           id="XMLID_211_"
           style="fill:#000000" />
        <g
           id="g5551"
           style="fill:#000000" />
        <g
           id="g5553"
           style="fill:#000000" />
        <g
           id="g5555"
           style="fill:#000000" />
        <g
           id="g5557"
           style="fill:#000000" />
        <g
           id="g5559"
           style="fill:#000000" />
        <g
           id="g5561"
           style="fill:#000000" />
        <g
           id="g5563"
           style="fill:#000000" />
        <g
           id="g5565"
           style="fill:#000000" />
        <g
           id="g5567"
           style="fill:#000000" />
        <g
           id="g5569"
           style="fill:#000000" />
        <g
           id="g5571"
           style="fill:#000000" />
        <g
           id="g5573"
           style="fill:#000000" />
        <g
           id="g5575"
           style="fill:#000000" />
        <g
           id="g5577"
           style="fill:#000000" />
        <g
           id="g5579"
           style="fill:#000000" />
      </g>
      <g
         style="fill:#000000"
         inkscape:label="Camada 1"
         id="layer1-4"
         transform="matrix(0.35333693,-0.13569772,0.13569772,0.35333693,-98.886859,488.84759)">
        <text
           xml:space="preserve"
           style="font-style:normal;font-variant:normal;font-weight:normal;font-stretch:normal;font-size:15px;line-height:125%;font-family:'Open Sans';-inkscape-font-specification:'Open Sans, Normal';text-align:start;letter-spacing:0px;word-spacing:0px;writing-mode:lr-tb;text-anchor:start;fill:#000000;fill-opacity:1;stroke:none;stroke-width:1px;stroke-linecap:butt;stroke-linejoin:miter;stroke-opacity:1"
           x="933.04791"
           y="1073.4818"
           id="text3356-8"
           sodipodi:linespacing="125%"><tspan
             sodipodi:role="line"
             id="tspan3358-9"
             x="933.04791"
             y="1073.4818" /></text>
      </g>
    </g>
    <g
       id="g3751"
       transform="matrix(5.3622897,0,0,5.3622897,30.002673,862.36216)">
      <g
         id="g3703">
        <g
           id="g3705" />
      </g>
      <g
         id="g3715" />
      <g
         id="g3717" />
      <g
         id="g3719" />
      <g
         id="g3721" />
      <g
         id="g3723" />
      <g
         id="g3725" />
      <g
         id="g3727" />
      <g
         id="g3729" />
      <g
         id="g3731" />
      <g
         id="g3733" />
      <g
         id="g3735" />
      <g
         id="g3737" />
      <g
         id="g3739" />
      <g
         id="g3741" />
      <g
         id="g3743" />
    </g>
    <g
       id="g4011"
       transform="matrix(0.11828277,0,0,0.11828277,81.892377,942.32596)">
      <g
         id="XMLID_12_" />
      <g
         id="g3975" />
      <g
         id="g3977" />
      <g
         id="g3979" />
      <g
         id="g3981" />
      <g
         id="g3983" />
      <g
         id="g3985" />
      <g
         id="g3987" />
      <g
         id="g3989" />
      <g
         id="g3991" />
      <g
         id="g3993" />
      <g
         id="g3995" />
      <g
         id="g3997" />
      <g
         id="g3999" />
      <g
         id="g4001" />
      <g
         id="g4003" />
    </g>
  </g>
</svg>
