<?xml version="1.0" encoding="UTF-8" standalone="no"?>
<!-- Created with Inkscape (http://www.inkscape.org/) -->

<svg
   xmlns:dc="http://purl.org/dc/elements/1.1/"
   xmlns:cc="http://creativecommons.org/ns#"
   xmlns:rdf="http://www.w3.org/1999/02/22-rdf-syntax-ns#"
   xmlns:svg="http://www.w3.org/2000/svg"
   xmlns="http://www.w3.org/2000/svg"
   xmlns:sodipodi="http://sodipodi.sourceforge.net/DTD/sodipodi-0.dtd"
   xmlns:inkscape="http://www.inkscape.org/namespaces/inkscape"
   width="62.08889mm"
   height="62.08889mm"
   viewBox="0 0 220 220"
   id="svg3391"
   version="1.1"
   inkscape:version="0.91 r13725"
   sodipodi:docname="ufu_calendario_academico_posgraduacao.svg">
  <sodipodi:namedview
     id="base"
     pagecolor="#ffffff"
     bordercolor="#666666"
     borderopacity="1.0"
     inkscape:pageopacity="0.0"
     inkscape:pageshadow="2"
     inkscape:zoom="2.9590909"
     inkscape:cx="110"
     inkscape:cy="110"
     inkscape:document-units="px"
     inkscape:current-layer="layer1"
     showgrid="false"
     fit-margin-top="0"
     fit-margin-left="0"
     fit-margin-right="0"
     fit-margin-bottom="0"
     inkscape:window-width="1440"
     inkscape:window-height="847"
     inkscape:window-x="-8"
     inkscape:window-y="-8"
     inkscape:window-maximized="1" />
  <defs
     id="defs3393" />
  <metadata
     id="metadata3396">
    <rdf:RDF>
      <cc:Work
         rdf:about="">
        <dc:format>image/svg+xml</dc:format>
        <dc:type
           rdf:resource="http://purl.org/dc/dcmitype/StillImage" />
        <dc:title></dc:title>
      </cc:Work>
    </rdf:RDF>
  </metadata>
  <g
     transform="translate(-262.04724,-416.18109)"
     id="layer1"
     inkscape:groupmode="layer"
     inkscape:label="Camada 1">
    <g
       transform="matrix(0.78318914,0,0,0.78319055,866.15412,115.0913)"
       id="g18002">
      <g
         id="g18134" />
    </g>
    <g
       style="fill:#ff0000"
       transform="matrix(0.85270574,0,0,0.85270574,149.50938,426.98754)"
       id="g3479">
      <g
         style="fill:#ff0000"
         id="g3426">
        <g
           style="fill:#ff0000"
           id="Layer_5_58_">
          <g
             style="fill:#ff0000"
             id="g3429">
            <g
               style="fill:#ff0000"
               id="g3431" />
            <g
               style="fill:#ff0000"
               id="g3437" />
          </g>
        </g>
      </g>
      <g
         style="fill:#ff0000"
         id="g3443" />
      <g
         style="fill:#ff0000"
         id="g3445" />
      <g
         style="fill:#ff0000"
         id="g3447" />
      <g
         style="fill:#ff0000"
         id="g3449" />
      <g
         style="fill:#ff0000"
         id="g3451" />
      <g
         style="fill:#ff0000"
         id="g3453" />
      <g
         style="fill:#ff0000"
         id="g3455" />
      <g
         style="fill:#ff0000"
         id="g3457" />
      <g
         style="fill:#ff0000"
         id="g3459" />
      <g
         style="fill:#ff0000"
         id="g3461" />
      <g
         style="fill:#ff0000"
         id="g3463" />
      <g
         style="fill:#ff0000"
         id="g3465" />
      <g
         style="fill:#ff0000"
         id="g3467" />
      <g
         style="fill:#ff0000"
         id="g3469" />
      <g
         style="fill:#ff0000"
         id="g3471" />
    </g>
    <g
       transform="matrix(0.78685096,0,0,0.78685096,292.04724,446.18077)"
       id="g3546">
      <g
         id="g3510" />
      <g
         id="g3512" />
      <g
         id="g3514" />
      <g
         id="g3516" />
      <g
         id="g3518" />
      <g
         id="g3520" />
      <g
         id="g3522" />
      <g
         id="g3524" />
      <g
         id="g3526" />
      <g
         id="g3528" />
      <g
         id="g3530" />
      <g
         id="g3532" />
      <g
         id="g3534" />
      <g
         id="g3536" />
      <g
         id="g3538" />
    </g>
    <g
       id="g4389"
       transform="matrix(0.51684584,0,0,0.51684584,329.13105,214.77653)"
       style="fill:#000000" />
    <g
       id="g4552"
       transform="matrix(0.98237619,0,0,0.98237619,-3.3879272,10.720121)">
      <g
         transform="matrix(0.10548358,0,0,0.10548358,396.05457,555.25754)"
         id="g4443">
        <g
           id="g4397">
          <g
             id="g4399" />
        </g>
        <g
           id="g4407" />
        <g
           id="g4409" />
        <g
           id="g4411" />
        <g
           id="g4413" />
        <g
           id="g4415" />
        <g
           id="g4417" />
        <g
           id="g4419" />
        <g
           id="g4421" />
        <g
           id="g4423" />
        <g
           id="g4425" />
        <g
           id="g4427" />
        <g
           id="g4429" />
        <g
           id="g4431" />
        <g
           id="g4433" />
        <g
           id="g4435" />
      </g>
      <g
         transform="matrix(0.25478818,0,0,0.25478818,307.14587,440.66529)"
         id="g4524">
        <g
           id="g4466">
          <g
             id="g4468" />
        </g>
        <g
           id="g4488" />
        <g
           id="g4490" />
        <g
           id="g4492" />
        <g
           id="g4494" />
        <g
           id="g4496" />
        <g
           id="g4498" />
        <g
           id="g4500" />
        <g
           id="g4502" />
        <g
           id="g4504" />
        <g
           id="g4506" />
        <g
           id="g4508" />
        <g
           id="g4510" />
        <g
           id="g4512" />
        <g
           id="g4514" />
        <g
           id="g4516" />
      </g>
    </g>
    <g
       id="g4749"
       transform="matrix(0.94709584,0,0,0.94709584,19.682847,27.837169)">
      <g
         transform="matrix(0.19861649,0,0,0.19861649,279.89833,457.44562)"
         id="g4651">
        <g
           id="g4605">
          <g
             id="g4607" />
        </g>
        <g
           id="g4615" />
        <g
           id="g4617" />
        <g
           id="g4619" />
        <g
           id="g4621" />
        <g
           id="g4623" />
        <g
           id="g4625" />
        <g
           id="g4627" />
        <g
           id="g4629" />
        <g
           id="g4631" />
        <g
           id="g4633" />
        <g
           id="g4635" />
        <g
           id="g4637" />
        <g
           id="g4639" />
        <g
           id="g4641" />
        <g
           id="g4643" />
      </g>
      <g
         style="fill:#808000"
         inkscape:label="Camada 1"
         id="layer1-1"
         transform="matrix(0.70480222,0,0,0.70480222,103.89512,-162.67142)">
        <g
           style="fill:#808000"
           transform="matrix(1.8390805,0,0,1.8390805,29.999991,-913.01664)"
           id="layer1-6"
           inkscape:label="Camada 1">
          <text
             sodipodi:linespacing="125%"
             id="text3356"
             y="1073.4818"
             x="933.04791"
             style="font-style:normal;font-variant:normal;font-weight:normal;font-stretch:normal;font-size:15px;line-height:125%;font-family:'Open Sans';-inkscape-font-specification:'Open Sans, Normal';text-align:start;letter-spacing:0px;word-spacing:0px;writing-mode:lr-tb;text-anchor:start;fill:#808000;fill-opacity:1;stroke:none;stroke-width:1px;stroke-linecap:butt;stroke-linejoin:miter;stroke-opacity:1"
             xml:space="preserve"><tspan
               y="1073.4818"
               x="933.04791"
               id="tspan3358"
               sodipodi:role="line" /></text>
        </g>
      </g>
      <g
         transform="matrix(-0.10353435,0,0,-0.10353435,377.7285,590.32624)"
         id="g4729">
        <g
           id="g4688">
          <g
             id="reply" />
        </g>
        <g
           id="g4693" />
        <g
           id="g4695" />
        <g
           id="g4697" />
        <g
           id="g4699" />
        <g
           id="g4701" />
        <g
           id="g4703" />
        <g
           id="g4705" />
        <g
           id="g4707" />
        <g
           id="g4709" />
        <g
           id="g4711" />
        <g
           id="g4713" />
        <g
           id="g4715" />
        <g
           id="g4717" />
        <g
           id="g4719" />
        <g
           id="g4721" />
      </g>
    </g>
    <g
       transform="translate(262.04661,-416.18137)"
       id="layer1-5"
       inkscape:label="Camada 1"
       style="fill:#ffffff">
      <path
         style="color:#000000;clip-rule:nonzero;display:inline;overflow:visible;visibility:visible;opacity:1;isolation:auto;mix-blend-mode:normal;color-interpolation:sRGB;color-interpolation-filters:linearRGB;solid-color:#000000;solid-opacity:1;fill:#ffffff;fill-opacity:1;fill-rule:nonzero;stroke:none;stroke-width:5;stroke-linecap:square;stroke-linejoin:miter;stroke-miterlimit:4;stroke-dasharray:none;stroke-dashoffset:0;stroke-opacity:1;color-rendering:auto;image-rendering:auto;shape-rendering:auto;text-rendering:auto;enable-background:accumulate"
         d="m -361.24805,-31.591797 0,219.999997 220,0 0,-219.999997 -220,0 z m 114.04102,31.06250012 1.7168,0 c 2.60884,0 4.72461,2.11455828 4.72461,4.72265628 l 0,3.7558594 0,14.1562502 c 0,2.608593 -2.11577,4.724609 -4.72461,4.724609 l -1.7168,0 c -2.60885,0 -4.72412,-2.115768 -4.72461,-4.724609 l 0,-14.1562502 0,-3.7558594 c 0,-2.608098 2.11527,-4.72265628 4.72461,-4.72265628 z m -60.5918,0.11523438 1.7168,0 c 2.60909,0 4.72461,2.1162634 4.72461,4.7246094 l 0,4.8769531 0,13.035156 c 0,2.608346 -2.11552,4.72461 -4.72461,4.72461 l -1.7168,0 c -2.60884,0 -4.72265,-2.116264 -4.72265,-4.72461 l 0,-13.035156 0,-4.8769531 c 0,-2.608346 2.11381,-4.7246094 4.72265,-4.7246094 z m -21.64453,9.6015625 13.08203,0 0,13.035156 c 0,4.722292 3.84046,8.564453 8.5625,8.564453 l 1.7168,0 c 4.72229,0 8.56445,-3.842161 8.56445,-8.564453 l 0,-13.035156 41.74805,0 0,12.917969 c 0,4.722291 3.8402,8.564453 8.5625,8.564453 l 1.7168,0 c 4.7218,0 8.56445,-2.603881 8.56445,-7.326172 l 0,-14.15625 12.12305,0 c 4.23457,0 7.68017,3.445115 7.67968,7.679688 l 0,92.800782 c 0,4.23482 -3.44511,7.67969 -7.67968,7.67969 l -104.64063,0 c -4.23457,0 -7.67969,-3.44487 -7.67969,-7.67969 l 0,-92.800782 c 0,-4.23482 3.44512,-7.679688 7.67969,-7.679688 z m 0,30.398438 0.002,70.082032 104.63868,0 c 0.003,0 0.005,-0.002 0.006,-0.002 l -0.004,-70.080082 -104.64258,0 z m 56.28516,9.58789 13.79101,0 c 0.54661,0 0.98828,0.443623 0.98828,0.990234 l 0,11.939454 c 0,0.546612 -0.44167,0.990234 -0.98828,0.990234 l -13.79101,0 c -0.54662,0 -0.98828,-0.443621 -0.98828,-0.990234 l 0,-11.939454 c 0,-0.546611 0.44166,-0.990234 0.98828,-0.990234 z m 22.5039,0 13.79102,0 c 0.54661,0 0.98828,0.443623 0.98828,0.990234 l 0,11.939454 c 0,0.546612 -0.44167,0.990234 -0.98828,0.990234 l -13.79102,0 c -0.54661,0 -0.98828,-0.443621 -0.98828,-0.990234 l 0,-11.939454 c 0,-0.546611 0.44167,-0.990234 0.98828,-0.990234 z m -67.51172,19.548828 13.79102,0 c 0.54661,0 0.98828,0.441671 0.98828,0.988282 l 0,11.941406 c 0,0.54661 -0.44167,0.990224 -0.98828,0.990234 l -13.79102,0 c -0.54661,-2e-5 -0.98828,-0.443624 -0.98828,-0.990234 l 0,-11.941406 c 0,-0.546611 0.44167,-0.988282 0.98828,-0.988282 z m 22.50391,0 13.79102,0 c 0.54661,0 0.98828,0.441671 0.98828,0.988282 l 0,11.941406 c 0,0.54661 -0.44167,0.990224 -0.98828,0.990234 l -13.79102,0 c -0.54661,-2e-5 -0.98828,-0.443624 -0.98828,-0.990234 l 0,-11.941406 c 0,-0.546611 0.44167,-0.988282 0.98828,-0.988282 z m 22.50391,0 13.79101,0 c 0.54661,0 0.98828,0.441671 0.98828,0.988282 l 0,11.941406 c 0,0.54661 -0.44167,0.990224 -0.98828,0.990234 l -13.79101,0 c -0.54662,-2e-5 -0.98828,-0.443624 -0.98828,-0.990234 l 0,-11.941406 c 0,-0.546611 0.44166,-0.988282 0.98828,-0.988282 z m 22.5039,0 13.79102,0 c 0.54661,0 0.98828,0.441671 0.98828,0.988282 l 0,11.941406 c 0,0.54661 -0.44167,0.990224 -0.98828,0.990234 l -13.79102,0 c -0.54661,-2e-5 -0.98828,-0.443624 -0.98828,-0.990234 l 0,-11.941406 c 0,-0.546611 0.44167,-0.988282 0.98828,-0.988282 z m -67.50976,19.546875 13.78906,0 c 0.54661,0 0.98803,0.443625 0.98828,0.990235 l 0,11.941404 c 0,0.54661 -0.44167,0.99024 -0.98828,0.99024 l -13.78906,0 c -0.54661,0 -0.99024,-0.44363 -0.99024,-0.99024 l 0,-11.941404 c 0,-0.54661 0.44363,-0.990235 0.99024,-0.990235 z m 22.5039,0 13.78907,0 c 0.54661,0 0.98828,0.443625 0.98828,0.990235 l 0,11.941404 c 0,0.54661 -0.44167,0.99024 -0.98828,0.99024 l -13.78907,0 c -0.54661,0 -0.99023,-0.44363 -0.99023,-0.99024 l 0,-11.941404 c 0,-0.54661 0.44362,-0.990235 0.99023,-0.990235 z m 22.50391,0 13.78906,0 c 0.54661,0 0.99024,0.443625 0.99024,0.990235 l 0,11.941404 c 0,0.54661 -0.44363,0.99024 -0.99024,0.99024 l -13.78906,0 c -0.54661,0 -0.99023,-0.44363 -0.99023,-0.99024 l 0,-11.941404 c 0,-0.54661 0.44362,-0.990235 0.99023,-0.990235 z m 22.50195,0 13.79102,0 c 0.54661,0 0.98828,0.443625 0.98828,0.990235 l 0,11.941404 c 0,0.54661 -0.44167,0.99024 -0.98828,0.99024 l -13.79102,0 c -0.54661,0 -0.98828,-0.44363 -0.98828,-0.99024 l 0,-11.941404 c 0,-0.54661 0.44167,-0.990235 0.98828,-0.990235 z m 57.39649,35.138669 27.00976,10.39258 -27.00976,8.9082 -27.4668,-8.9082 27.4668,-10.39258 z m -42.93164,10.56641 1.11133,0 c -0.0448,0.67952 -0.19483,1.19857 -0.45118,1.55664 -0.25634,0.354 -0.60726,0.53125 -1.05078,0.53125 -0.1831,0 -0.36751,-0.0308 -0.55469,-0.0918 -0.1831,-0.061 -0.36393,-0.12793 -0.54296,-0.20117 -0.17904,-0.0732 -0.3545,-0.14014 -0.52539,-0.20117 -0.16683,-0.061 -0.32601,-0.0918 -0.47657,-0.0918 -0.21972,0 -0.36621,0.1989 -0.43945,0.59766 l -1.09766,0 c 0.0448,-0.71208 0.19125,-1.23649 0.43946,-1.57422 0.24821,-0.3418 0.61344,-0.51172 1.09765,-0.51172 0.15462,0 0.31918,0.0308 0.49414,0.0918 0.17497,0.061 0.35222,0.12793 0.53125,0.20117 0.17904,0.0732 0.35629,0.14014 0.53125,0.20117 0.17497,0.061 0.33952,0.0918 0.49414,0.0918 0.11801,0 0.21208,-0.0506 0.28125,-0.15234 0.0692,-0.10173 0.12159,-0.25196 0.15821,-0.44727 z m -72.11914,0.0742 2.61328,0 0,0.1289 c -0.32552,0.26042 -0.77409,0.59131 -1.34375,0.99415 -0.56966,0.40283 -1,0.6958 -1.29297,0.8789 l -1.58789,0 0,-0.17773 c 0.62663,-0.67139 1.02457,-1.10352 1.1914,-1.29883 0.1709,-0.19531 0.31006,-0.37077 0.41993,-0.52539 z m 40.47851,0.0801 2.4043,0 0,9.49609 -1.79883,0 -0.51367,-0.87305 -0.0918,0 c -0.41097,0.66325 -1.02213,0.9961 -1.83594,0.9961 -0.49235,0 -0.92464,-0.14112 -1.29492,-0.42188 -0.36621,-0.28076 -0.65006,-0.69303 -0.85351,-1.23828 -0.19938,-0.54525 -0.30078,-1.18376 -0.30078,-1.91211 0,-1.12305 0.22607,-2.00195 0.67773,-2.63672 0.45166,-0.63476 1.07194,-0.95117 1.86133,-0.95117 0.38655,0 0.72477,0.0778 1.01367,0.23242 0.29297,0.15462 0.56071,0.41504 0.80078,0.78125 l 0.0488,0 c -0.0773,-0.54118 -0.11719,-1.08382 -0.11719,-1.625 l 0,-1.84765 z m -51.57422,0.57226 3.08789,0 c 1.12712,0 1.97347,0.24593 2.53907,0.73828 0.56559,0.49235 0.84961,1.19222 0.84961,2.09961 0,0.99691 -0.29672,1.76921 -0.88672,2.31446 -0.58594,0.54117 -1.4196,0.81054 -2.50196,0.81054 l -0.67773,0 0,2.96094 -2.41016,0 0,-8.92383 z m 10.94336,1.88672 c 0.67953,0 1.27995,0.14469 1.80078,0.43359 0.52084,0.2889 0.92237,0.70297 1.20313,1.24414 0.28483,0.53711 0.42578,1.16651 0.42578,1.88672 0,1.13119 -0.30371,2.01368 -0.91406,2.64844 -0.60629,0.6307 -1.45817,0.94727 -2.55274,0.94727 -1.0498,0 -1.88525,-0.32373 -2.50781,-0.97071 -0.61849,-0.64697 -0.92773,-1.52229 -0.92773,-2.625 0,-1.12711 0.30387,-2.00244 0.91015,-2.625 0.61035,-0.62662 1.46387,-0.93945 2.5625,-0.93945 z m 7.53711,0 c 0.45573,0 0.88444,0.0506 1.28321,0.15234 0.40283,0.0977 0.81868,0.24235 1.25,0.4336 l -0.64649,1.53711 c -0.31738,-0.14242 -0.65381,-0.26172 -1.00781,-0.35938 -0.35401,-0.10172 -0.64144,-0.15234 -0.86524,-0.15234 -0.39062,0 -0.58593,0.0959 -0.58593,0.28711 0,0.118 0.0669,0.21924 0.20117,0.30469 0.13834,0.0814 0.53255,0.24951 1.18359,0.50586 0.48421,0.19938 0.84408,0.39469 1.08008,0.58593 0.24007,0.19125 0.41553,0.41732 0.52539,0.67774 0.11393,0.25634 0.16992,0.57112 0.16992,0.9414 0,0.74056 -0.2513,1.29932 -0.75586,1.67774 -0.50455,0.37842 -1.22981,0.56836 -2.17382,0.56836 -0.5127,0 -0.95752,-0.029 -1.33594,-0.0859 -0.37842,-0.0529 -0.76546,-0.15234 -1.16016,-0.29883 l 0,-1.91016 c 0.37028,0.16277 0.77539,0.29655 1.21484,0.40235 0.44353,0.10579 0.83773,0.1582 1.1836,0.1582 0.51676,0 0.77539,-0.11751 0.77539,-0.35351 0,-0.12207 -0.0723,-0.23064 -0.21875,-0.32422 -0.14242,-0.0977 -0.56201,-0.28386 -1.25781,-0.56055 -0.63477,-0.26042 -1.0778,-0.55518 -1.33008,-0.88477 -0.25228,-0.33365 -0.37891,-0.75504 -0.37891,-1.26367 0,-0.6429 0.24772,-1.14388 0.74414,-1.50195 0.49642,-0.35807 1.19808,-0.53711 2.10547,-0.53711 z m 10.66992,0 c 0.12614,0 0.3431,0.0145 0.65235,0.043 0.30924,0.0285 0.53711,0.0537 0.68359,0.0781 l 2.41211,0 0,1.1543 -0.94726,0.34766 c 0.1302,0.236 0.19531,0.5109 0.19531,0.82422 0,0.74463 -0.26221,1.3234 -0.78711,1.73437 -0.52084,0.41097 -1.30029,0.61524 -2.33789,0.61524 -0.25635,0 -0.45882,-0.0163 -0.60938,-0.0488 -0.057,0.10579 -0.0859,0.20524 -0.0859,0.29883 0,0.118 0.0959,0.21028 0.2871,0.27539 0.19125,0.061 0.44076,0.0918 0.75,0.0918 l 1.14844,0 c 1.55029,0 2.32422,0.65284 2.32422,1.95899 0,0.84228 -0.35986,1.49691 -1.08008,1.96484 -0.71614,0.46794 -1.72347,0.70313 -3.02148,0.70313 -0.98063,0 -1.73649,-0.16651 -2.26953,-0.4961 -0.52897,-0.32552 -0.79297,-0.79378 -0.79297,-1.4082 0,-0.82601 0.51172,-1.35954 1.53711,-1.59961 -0.21159,-0.0895 -0.396,-0.23421 -0.55469,-0.43359 -0.15462,-0.19939 -0.23242,-0.39649 -0.23242,-0.5918 0,-0.21566 0.0597,-0.4056 0.17773,-0.56836 0.118,-0.16683 0.36393,-0.36393 0.73828,-0.5918 -0.35807,-0.15869 -0.64209,-0.40641 -0.84961,-0.74414 -0.20345,-0.33773 -0.30468,-0.74821 -0.30468,-1.23242 0,-0.75277 0.25683,-1.33691 0.76953,-1.75195 0.51269,-0.41504 1.24512,-0.62305 2.19726,-0.62305 z m 8.9668,0 c 0.20752,0 0.40462,0.0163 0.5918,0.0488 l 0.13281,0.0234 -0.21289,2.2539 c -0.19531,-0.0488 -0.46663,-0.0742 -0.8125,-0.0742 -0.52083,0 -0.89876,0.11931 -1.13477,0.35938 -0.236,0.236 -0.35351,0.5778 -0.35351,1.02539 l 0,3.40039 -2.38672,0 0,-6.91602 1.77539,0 0.37305,1.10547 0.11523,0 c 0.19938,-0.36621 0.47608,-0.66097 0.83008,-0.88476 0.35807,-0.22787 0.71989,-0.3418 1.08203,-0.3418 z m 5.05859,0 c 0.88705,0 1.57243,0.21875 2.05664,0.6582 0.48829,0.43946 0.73243,1.05437 0.73243,1.84375 l 0,4.53516 -1.6543,0 -0.45703,-0.91602 -0.0488,0 c -0.32145,0.39877 -0.64876,0.67188 -0.98242,0.81836 -0.33366,0.14649 -0.76595,0.22071 -1.29492,0.22071 -0.65104,0 -1.16276,-0.19532 -1.53711,-0.58594 -0.37435,-0.39063 -0.5625,-0.94043 -0.5625,-1.64844 0,-0.73649 0.25683,-1.2845 0.76953,-1.64258 0.51269,-0.36214 1.25602,-0.56461 2.22851,-0.60937 l 1.15235,-0.0371 0,-0.0977 c 0,-0.56966 -0.28028,-0.85547 -0.8418,-0.85547 -0.50456,0 -1.14469,0.17188 -1.92187,0.51368 l -0.68946,-1.57422 c 0.80567,-0.41504 1.82194,-0.62305 3.05078,-0.62305 z m 24.19532,0 c 0.88704,0 1.57243,0.21875 2.05664,0.6582 0.48828,0.43946 0.73242,1.05437 0.73242,1.84375 l 0,4.53516 -1.6543,0 -0.45703,-0.91602 -0.0488,0 c -0.32145,0.39877 -0.65071,0.67188 -0.98437,0.81836 -0.33366,0.14649 -0.764,0.22071 -1.29297,0.22071 -0.65104,0 -1.16471,-0.19532 -1.53906,-0.58594 -0.37435,-0.39063 -0.56055,-0.94043 -0.56055,-1.64844 0,-0.73649 0.25684,-1.2845 0.76953,-1.64258 0.5127,-0.36214 1.25407,-0.56461 2.22656,-0.60937 l 1.1543,-0.0371 0,-0.0977 c 0,-0.56966 -0.28027,-0.85547 -0.8418,-0.85547 -0.50455,0 -1.14664,0.17188 -1.92382,0.51368 l -0.68946,-1.57422 c 0.80567,-0.41504 1.8239,-0.62305 3.05274,-0.62305 z m 7.75,0 c 0.80159,0 1.55761,0.17546 2.26562,0.52539 l -0.70312,1.76367 c -0.2889,-0.12614 -0.55469,-0.22558 -0.79883,-0.29883 -0.24414,-0.0773 -0.49919,-0.11718 -0.76367,-0.11718 -0.38656,0 -0.6849,0.15202 -0.89649,0.45312 -0.21159,0.30111 -0.3164,0.72608 -0.3164,1.27539 0,1.10677 0.40869,1.66016 1.22656,1.66016 0.69987,0 1.37077,-0.20443 2.01367,-0.61133 l 0,1.89844 c -0.56915,0.37692 -1.24911,0.57184 -2.03125,0.59961 l -0.0195,0.0664 c 0.39062,0.1587 0.66195,0.34489 0.8125,0.56055 0.15055,0.21973 0.22461,0.48747 0.22461,0.80078 0,0.44352 -0.15186,0.79606 -0.45703,1.06055 -0.30518,0.26855 -0.71029,0.4043 -1.21485,0.4043 -0.55338,0 -0.98746,-0.0597 -1.30078,-0.17774 l 0,-1.25195 c 0.33773,0.10986 0.63802,0.16601 0.89844,0.16601 0.21159,0 0.31641,-0.0959 0.31641,-0.28711 0,-0.13427 -0.0832,-0.25553 -0.25,-0.36132 -0.16683,-0.10173 -0.38379,-0.18311 -0.65235,-0.24414 l 0.43555,-0.83985 c -0.63594,-0.13517 -1.16078,-0.39249 -1.55274,-0.80078 -0.58186,-0.61035 -0.87304,-1.48747 -0.87304,-2.63086 0,-1.14746 0.31461,-2.03727 0.94531,-2.66797 0.6307,-0.63069 1.52767,-0.94531 2.69141,-0.94531 z m 6.77539,0 c 0.88704,0 1.57243,0.21875 2.05664,0.6582 0.48828,0.43946 0.73242,1.05437 0.73242,1.84375 l 0,4.53516 -1.6543,0 -0.45703,-0.91602 -0.0488,0 c -0.32145,0.39877 -0.64876,0.67188 -0.98242,0.81836 -0.33366,0.14649 -0.76595,0.22071 -1.29492,0.22071 -0.65104,0 -1.16276,-0.19532 -1.53711,-0.58594 -0.37435,-0.39063 -0.5625,-0.94043 -0.5625,-1.64844 0,-0.73649 0.25684,-1.2845 0.76953,-1.64258 0.5127,-0.36214 1.25602,-0.56461 2.22852,-0.60937 l 1.15234,-0.0371 0,-0.0977 c 0,-0.56966 -0.28027,-0.85547 -0.8418,-0.85547 -0.50455,0 -1.14469,0.17188 -1.92187,0.51368 l -0.68945,-1.57422 c 0.80566,-0.41504 1.82194,-0.62305 3.05078,-0.62305 z m 7.58789,0 c 0.67952,0 1.27799,0.14469 1.79883,0.43359 0.52083,0.2889 0.92236,0.70297 1.20312,1.24414 0.28483,0.53711 0.42774,1.16651 0.42774,1.88672 0,1.13119 -0.30567,2.01368 -0.91602,2.64844 -0.60628,0.6307 -1.45622,0.94727 -2.55078,0.94727 -1.04981,0 -1.88721,-0.32373 -2.50977,-0.97071 -0.61849,-0.64697 -0.92773,-1.52229 -0.92773,-2.625 0,-1.12711 0.30387,-2.00244 0.91015,-2.625 0.61036,-0.62662 1.46583,-0.93945 2.56446,-0.93945 z m -87.07422,0.0606 0,2.05078 0.43945,0 c 0.36214,0 0.64974,-0.10124 0.86133,-0.30469 0.21566,-0.20345 0.32422,-0.48372 0.32422,-0.8418 0,-0.60221 -0.33464,-0.90429 -1.00195,-0.90429 l -0.62305,0 z m 53.19922,0.0605 2.38672,0 0,3.7793 c 0,0.45166 0.0633,0.79346 0.18945,1.02539 0.13021,0.23194 0.3418,0.34766 0.63477,0.34766 0.41097,0 0.70393,-0.16097 0.8789,-0.48242 0.17497,-0.32552 0.26172,-0.87354 0.26172,-1.64258 l 0,-3.02735 2.38672,0 0,6.91602 -1.80078,0 -0.29883,-0.86133 -0.14063,0 c -0.19938,0.31738 -0.47786,0.56153 -0.83593,0.73242 -0.35401,0.16683 -0.77181,0.25196 -1.25196,0.25196 -0.7609,0 -1.35221,-0.22071 -1.77539,-0.66016 -0.42317,-0.44352 -0.63476,-1.06738 -0.63476,-1.87305 l 0,-4.50586 z m 90.35156,0.22461 0,11.59961 -0.004,0.0195 c 0.52472,0.25348 0.88868,0.78613 0.88868,1.40821 0,0.53111 -0.26645,0.99889 -0.66993,1.2832 0.40009,0.23928 0.66993,0.67179 0.66993,1.17188 l 0,10.99218 -3.14063,0 0,-10.99218 c 0,-0.49896 0.26966,-0.93269 0.66797,-1.17188 -0.40348,-0.28431 -0.66797,-0.75209 -0.66797,-1.2832 0,-0.63693 0.379,-1.18047 0.92383,-1.42774 l -0.0391,-0.0566 0,-11.10742 1.37109,-0.43555 z m -116.78711,0.97852 c -0.49235,0 -0.73828,0.35449 -0.73828,1.0625 0,0.70801 0.24593,1.0625 0.73828,1.0625 0.22787,0 0.40332,-0.0887 0.52539,-0.26367 0.12614,-0.17497 0.18946,-0.43718 0.18946,-0.78711 0,-0.71615 -0.23877,-1.07422 -0.71485,-1.07422 z m 80.64258,0.3418 16.10156,5.42578 16.27539,-5.42578 0,7.65234 c 0,0 -7.31043,-0.45718 -16.18945,5.13867 0,0 -7.62211,-5.02417 -16.1875,-5.19531 l 0,-7.5957 z m -98.89649,0.10937 c -0.36621,0 -0.63037,0.15202 -0.78906,0.45313 -0.15869,0.29703 -0.23633,0.74186 -0.23633,1.33593 0,0.59408 0.0776,1.04802 0.23633,1.36133 0.15869,0.30925 0.42643,0.46289 0.80078,0.46289 0.37028,0 0.6307,-0.15364 0.78125,-0.46289 0.15463,-0.31331 0.23243,-0.76725 0.23243,-1.36133 0,-0.59 -0.0778,-1.03483 -0.23243,-1.33593 -0.15462,-0.30111 -0.41862,-0.45313 -0.79297,-0.45313 z m 78.53907,0 c -0.36621,0 -0.62842,0.15202 -0.78711,0.45313 -0.15869,0.29703 -0.23828,0.74186 -0.23828,1.33593 0,0.59408 0.0796,1.04802 0.23828,1.36133 0.15869,0.30925 0.42448,0.46289 0.79883,0.46289 0.37028,0 0.63069,-0.15364 0.78125,-0.46289 0.15462,-0.31331 0.23242,-0.76725 0.23242,-1.36133 0,-0.59 -0.0778,-1.03483 -0.23242,-1.33593 -0.15463,-0.30111 -0.41862,-0.45313 -0.79297,-0.45313 z m -38.76953,0.14649 c -0.31332,0 -0.55746,0.14827 -0.73243,0.44531 -0.17089,0.29297 -0.25585,0.71256 -0.25585,1.25781 0,0.53711 0.0867,0.9458 0.26171,1.22656 0.17497,0.28076 0.42644,0.42188 0.75196,0.42188 0.38248,0 0.65006,-0.11931 0.80468,-0.35938 0.1587,-0.24007 0.24366,-0.61084 0.25586,-1.11133 l 0,-0.18945 c 0,-0.61035 -0.0867,-1.04443 -0.26171,-1.30078 -0.17497,-0.26042 -0.44987,-0.39062 -0.82422,-0.39062 z m -28.85743,0.8125 3.44922,0 0,1.90429 -3.44922,0 0,-1.90429 z m 21.75977,1.21484 -0.55078,0.0234 c -0.78532,0.0285 -1.17774,0.31787 -1.17774,0.86718 0,0.42318 0.22608,0.63477 0.67774,0.63477 0.2889,0 0.53483,-0.0923 0.73828,-0.27539 0.20752,-0.18311 0.3125,-0.41992 0.3125,-0.71289 l 0,-0.53711 z m 24.19336,0 -0.54883,0.0234 c -0.78532,0.0285 -1.17773,0.31787 -1.17773,0.86718 0,0.42318 0.22607,0.63477 0.67773,0.63477 0.2889,0 0.53483,-0.0923 0.73828,-0.27539 0.20752,-0.18311 0.31055,-0.41992 0.31055,-0.71289 l 0,-0.53711 z m 14.52734,0 -0.55078,0.0234 c -0.78532,0.0285 -1.17773,0.31787 -1.17773,0.86718 0,0.42318 0.22607,0.63477 0.67773,0.63477 0.2889,0 0.53483,-0.0923 0.73828,-0.27539 0.20752,-0.18311 0.3125,-0.41992 0.3125,-0.71289 l 0,-0.53711 z m -53.71093,3.32617 c -0.25635,0 -0.47526,0.0597 -0.6543,0.17774 -0.17497,0.12207 -0.26172,0.27034 -0.26172,0.44531 0,0.19531 0.10482,0.35075 0.31641,0.46875 0.21158,0.12207 0.4956,0.18359 0.84961,0.18359 0.5778,0 1.0389,-0.0723 1.38476,-0.21875 0.34994,-0.14241 0.52539,-0.32877 0.52539,-0.55664 0,-0.1831 -0.10677,-0.31331 -0.31836,-0.39062 -0.21159,-0.0733 -0.51351,-0.10938 -0.9082,-0.10938 l -0.93359,0 z"
         transform="translate(361.24868,863.95426)"
         id="rect5902"
         inkscape:connector-curvature="0" />
      <g
         transform="matrix(0.24744768,0,0,0.24744768,24.12566,862.36243)"
         id="g5972"
         style="fill:#ffffff">
        <g
           id="g5905"
           style="fill:#ffffff">
          <g
             id="_x31_5_38_"
             style="fill:#ffffff">
            <g
               id="g5908"
               style="fill:#ffffff" />
          </g>
        </g>
        <g
           id="g5936"
           style="fill:#ffffff" />
        <g
           id="g5938"
           style="fill:#ffffff" />
        <g
           id="g5940"
           style="fill:#ffffff" />
        <g
           id="g5942"
           style="fill:#ffffff" />
        <g
           id="g5944"
           style="fill:#ffffff" />
        <g
           id="g5946"
           style="fill:#ffffff" />
        <g
           id="g5948"
           style="fill:#ffffff" />
        <g
           id="g5950"
           style="fill:#ffffff" />
        <g
           id="g5952"
           style="fill:#ffffff" />
        <g
           id="g5954"
           style="fill:#ffffff" />
        <g
           id="g5956"
           style="fill:#ffffff" />
        <g
           id="g5958"
           style="fill:#ffffff" />
        <g
           id="g5960"
           style="fill:#ffffff" />
        <g
           id="g5962"
           style="fill:#ffffff" />
        <g
           id="g5964"
           style="fill:#ffffff" />
      </g>
      <g
         transform="matrix(0.09398474,0,0,0.09398474,140.524,980.12437)"
         id="g6052"
         style="fill:#ffffff">
        <g
           id="g6006"
           style="fill:#ffffff">
          <g
             id="g6008"
             style="fill:#ffffff" />
        </g>
        <g
           id="g6016"
           style="fill:#ffffff" />
        <g
           id="g6018"
           style="fill:#ffffff" />
        <g
           id="g6020"
           style="fill:#ffffff" />
        <g
           id="g6022"
           style="fill:#ffffff" />
        <g
           id="g6024"
           style="fill:#ffffff" />
        <g
           id="g6026"
           style="fill:#ffffff" />
        <g
           id="g6028"
           style="fill:#ffffff" />
        <g
           id="g6030"
           style="fill:#ffffff" />
        <g
           id="g6032"
           style="fill:#ffffff" />
        <g
           id="g6034"
           style="fill:#ffffff" />
        <g
           id="g6036"
           style="fill:#ffffff" />
        <g
           id="g6038"
           style="fill:#ffffff" />
        <g
           id="g6040"
           style="fill:#ffffff" />
        <g
           id="g6042"
           style="fill:#ffffff" />
        <g
           id="g6044"
           style="fill:#ffffff" />
      </g>
      <g
         id="g6148"
         transform="matrix(0.24744768,0,0,0.24744768,-235.41351,862.36243)"
         style="fill:#ffffff">
        <g
           id="g6150"
           style="fill:#ffffff">
          <g
             id="g6152"
             style="fill:#ffffff">
            <g
               id="g6154"
               style="fill:#ffffff" />
          </g>
        </g>
        <g
           id="g6182"
           style="fill:#ffffff" />
        <g
           id="g6184"
           style="fill:#ffffff" />
        <g
           id="g6186"
           style="fill:#ffffff" />
        <g
           id="g6188"
           style="fill:#ffffff" />
        <g
           id="g6190"
           style="fill:#ffffff" />
        <g
           id="g6192"
           style="fill:#ffffff" />
        <g
           id="g6194"
           style="fill:#ffffff" />
        <g
           id="g6196"
           style="fill:#ffffff" />
        <g
           id="g6198"
           style="fill:#ffffff" />
        <g
           id="g6200"
           style="fill:#ffffff" />
        <g
           id="g6202"
           style="fill:#ffffff" />
        <g
           id="g6204"
           style="fill:#ffffff" />
        <g
           id="g6206"
           style="fill:#ffffff" />
        <g
           id="g6208"
           style="fill:#ffffff" />
        <g
           id="g6210"
           style="fill:#ffffff" />
      </g>
      <g
         transform="matrix(0.24744768,0,0,0.24744768,-496.35872,862.36243)"
         id="g6268"
         style="fill:#ffffff">
        <g
           id="g6270"
           style="fill:#ffffff">
          <g
             id="g6272"
             style="fill:#ffffff">
            <g
               id="g6274"
               style="fill:#ffffff" />
          </g>
        </g>
        <g
           id="g6302"
           style="fill:#ffffff" />
        <g
           id="g6304"
           style="fill:#ffffff" />
        <g
           id="g6306"
           style="fill:#ffffff" />
        <g
           id="g6308"
           style="fill:#ffffff" />
        <g
           id="g6310"
           style="fill:#ffffff" />
        <g
           id="g6312"
           style="fill:#ffffff" />
        <g
           id="g6314"
           style="fill:#ffffff" />
        <g
           id="g6316"
           style="fill:#ffffff" />
        <g
           id="g6318"
           style="fill:#ffffff" />
        <g
           id="g6320"
           style="fill:#ffffff" />
        <g
           id="g6322"
           style="fill:#ffffff" />
        <g
           id="g6324"
           style="fill:#ffffff" />
        <g
           id="g6326"
           style="fill:#ffffff" />
        <g
           id="g6328"
           style="fill:#ffffff" />
        <g
           id="g6330"
           style="fill:#ffffff" />
      </g>
      <g
         transform="matrix(0.83333333,0,0,0.83333333,-372.72273,987.36213)"
         id="g6383"
         style="fill:#ffffff">
        <g
           id="g6341"
           style="fill:#ffffff">
          <g
             id="g6343"
             style="fill:#ffffff" />
        </g>
        <g
           id="g6347"
           style="fill:#ffffff" />
        <g
           id="g6349"
           style="fill:#ffffff" />
        <g
           id="g6351"
           style="fill:#ffffff" />
        <g
           id="g6353"
           style="fill:#ffffff" />
        <g
           id="g6355"
           style="fill:#ffffff" />
        <g
           id="g6357"
           style="fill:#ffffff" />
        <g
           id="g6359"
           style="fill:#ffffff" />
        <g
           id="g6361"
           style="fill:#ffffff" />
        <g
           id="g6363"
           style="fill:#ffffff" />
        <g
           id="g6365"
           style="fill:#ffffff" />
        <g
           id="g6367"
           style="fill:#ffffff" />
        <g
           id="g6369"
           style="fill:#ffffff" />
        <g
           id="g6371"
           style="fill:#ffffff" />
        <g
           id="g6373"
           style="fill:#ffffff" />
        <g
           id="g6375"
           style="fill:#ffffff" />
      </g>
    </g>
  </g>
</svg>
