<?xml version="1.0" encoding="UTF-8" standalone="no"?>
<!-- Created with Inkscape (http://www.inkscape.org/) -->

<svg
   xmlns:dc="http://purl.org/dc/elements/1.1/"
   xmlns:cc="http://creativecommons.org/ns#"
   xmlns:rdf="http://www.w3.org/1999/02/22-rdf-syntax-ns#"
   xmlns:svg="http://www.w3.org/2000/svg"
   xmlns="http://www.w3.org/2000/svg"
   xmlns:sodipodi="http://sodipodi.sourceforge.net/DTD/sodipodi-0.dtd"
   xmlns:inkscape="http://www.inkscape.org/namespaces/inkscape"
   width="220"
   height="220"
   viewBox="0 0 219.99999 220"
   id="svg2"
   version="1.1"
   inkscape:version="0.91 r13725"
   sodipodi:docname="ufu_certificados_dicap.svg">
  <defs
     id="defs4" />
  <sodipodi:namedview
     id="base"
     pagecolor="#ffffff"
     bordercolor="#666666"
     borderopacity="1.0"
     inkscape:pageopacity="0.0"
     inkscape:pageshadow="2"
     inkscape:zoom="2.9590909"
     inkscape:cx="110"
     inkscape:cy="110"
     inkscape:document-units="px"
     inkscape:current-layer="layer1"
     showgrid="false"
     units="px"
     inkscape:window-width="1600"
     inkscape:window-height="847"
     inkscape:window-x="1432"
     inkscape:window-y="-8"
     inkscape:window-maximized="1"
     inkscape:object-paths="true" />
  <metadata
     id="metadata7">
    <rdf:RDF>
      <cc:Work
         rdf:about="">
        <dc:format>image/svg+xml</dc:format>
        <dc:type
           rdf:resource="http://purl.org/dc/dcmitype/StillImage" />
        <dc:title />
      </cc:Work>
    </rdf:RDF>
  </metadata>
  <g
     inkscape:label="Camada 1"
     inkscape:groupmode="layer"
     id="layer1"
     transform="translate(0,-832.36216)">
    <path
       style="color:#000000;clip-rule:nonzero;display:inline;overflow:visible;visibility:visible;opacity:1;isolation:auto;mix-blend-mode:normal;color-interpolation:sRGB;color-interpolation-filters:linearRGB;solid-color:#000000;solid-opacity:1;fill:#ffffff;fill-opacity:1;fill-rule:nonzero;stroke:none;stroke-width:5;stroke-linecap:square;stroke-linejoin:miter;stroke-miterlimit:4;stroke-dasharray:none;stroke-dashoffset:0;stroke-opacity:1;color-rendering:auto;image-rendering:auto;shape-rendering:auto;text-rendering:auto;enable-background:accumulate"
       d="M 0 0 L 0 220 L 220 220 L 220 0 L 0 0 z M 34.1875 53.476562 L 185.80273 53.476562 C 188.11872 53.476562 190 55.348074 190 57.664062 L 190 162.33594 C 190 164.65193 188.13239 166.52344 185.81641 166.52344 L 34.1875 166.52344 C 31.871512 166.52344 30 164.65321 30 162.3418 L 30 57.664062 C 30 55.348074 31.871512 53.476563 34.1875 53.476562 z M 38.371094 61.847656 L 38.371094 158.15234 L 181.62891 158.15234 L 181.62891 61.847656 L 181.61914 61.847656 L 38.371094 61.847656 z M 57.177734 72.648438 C 63.429987 72.648438 68.498047 77.702155 68.498047 83.958984 C 68.498047 87.931865 66.447603 91.414443 63.353516 93.4375 L 71.994141 110.05273 L 66.853516 109.86133 L 64.0625 114.18164 L 57.837891 102.2168 L 54.4375 113.73242 L 50.867188 110.02148 L 45.863281 111.21094 L 51.091797 93.488281 C 47.951939 91.483533 45.863281 87.968482 45.863281 83.958984 C 45.863281 77.702155 50.925482 72.648438 57.177734 72.648438 z M 57.146484 73.650391 C 55.832871 73.650391 54.556669 73.898987 53.34375 74.375 L 54.25 76.681641 C 55.169987 76.310899 56.14411 76.132812 57.146484 76.132812 C 57.306681 76.132812 57.461568 76.140625 57.617188 76.140625 L 57.755859 73.666016 C 57.549892 73.666016 57.347875 73.650391 57.146484 73.650391 z M 62.052734 74.878906 L 60.876953 77.070312 C 61.879327 77.605828 62.771756 78.365169 63.462891 79.285156 L 65.439453 77.798828 C 64.542351 76.590486 63.366348 75.592926 62.052734 74.878906 z M 57.146484 76.777344 C 53.146141 76.777344 49.900391 80.023094 49.900391 84.023438 C 49.900391 88.028358 53.146141 91.267578 57.146484 91.267578 C 61.151405 91.267578 64.396484 88.032935 64.396484 84.023438 C 64.396484 80.027671 61.151405 76.777344 57.146484 76.777344 z M 49.634766 76.869141 C 48.604929 77.953902 47.810057 79.271909 47.320312 80.681641 L 49.667969 81.478516 C 50.034133 80.402908 50.643105 79.395464 51.425781 78.576172 L 49.634766 76.869141 z M 57.177734 78.136719 C 60.390825 78.136719 63.005859 80.745223 63.005859 83.962891 C 63.005859 87.180558 60.390825 89.789062 57.177734 89.789062 C 53.960067 89.789062 51.351562 87.180558 51.351562 83.962891 C 51.351562 80.745223 53.960067 78.136719 57.177734 78.136719 z M 67.289062 82.351562 L 64.867188 82.861328 C 64.986191 83.410574 65.041016 83.464366 65.041016 84.027344 C 65.041016 85.185338 64.799621 86.301524 64.314453 87.335938 L 66.566406 88.394531 C 67.202616 87.025993 67.523438 85.546925 67.523438 84.027344 C 67.523438 83.295015 67.444682 83.056428 67.289062 82.351562 z M 79.152344 82.664062 L 168.56055 82.664062 L 168.56055 84.759766 L 79.152344 84.759766 L 79.152344 82.664062 z M 49.287109 84.861328 L 46.826172 85.130859 C 46.990946 86.636709 47.466042 88.056198 48.244141 89.365234 L 50.367188 88.087891 C 49.772171 87.099247 49.406113 86.014745 49.287109 84.861328 z M 62.253906 90.046875 C 61.375112 90.797511 60.363506 91.332009 59.255859 91.638672 L 59.910156 94.029297 C 61.370236 93.631093 62.704005 92.926143 63.857422 91.9375 L 62.253906 90.046875 z M 52.703125 90.564453 L 51.392578 92.472656 L 52.880859 93.478516 C 53.695575 93.84468 54.556023 94.119159 55.453125 94.265625 L 55.859375 91.818359 C 54.724266 91.6307 53.655152 91.214394 52.703125 90.564453 z M 51.384766 92.490234 L 51.306641 92.605469 C 51.320372 92.610046 51.334596 92.613893 51.34375 92.623047 L 51.384766 92.490234 z M 79.152344 95.736328 L 168.56055 95.736328 L 168.56055 97.822266 L 79.152344 97.822266 L 79.152344 95.736328 z M 79.152344 109.85156 L 168.56055 109.85156 L 168.56055 111.9375 L 79.152344 111.9375 L 79.152344 109.85156 z M 131.58203 130.77734 C 131.90694 130.78753 132.22626 130.88521 132.52148 131.09375 C 134.62235 132.58129 136.79611 133.81218 138.93359 135.09375 C 139.60184 134.0273 140.95766 133.21176 142.01953 133.47266 C 145.9146 134.37891 150.67782 136.55443 154.72852 136.46289 C 159.31472 136.34389 164.02976 133.39192 168.14453 131.58398 C 171.03723 130.31614 171.13436 133.80225 169.41797 135.27148 C 166.301 137.94448 163.20676 140.6088 160.10352 143.30469 C 158.291 144.88377 156.47389 146.4443 154.67969 148.03711 C 154.37303 148.32546 153.03076 149.8184 152.99414 149.6582 C 152.9026 149.74974 152.79802 149.83558 152.68359 149.91797 C 152.61952 149.95459 152.56408 149.99128 152.5 150.05078 C 150.67833 151.28659 148.29304 149.97305 149.78516 147.77148 C 151.48324 145.25411 153.85543 142.96121 156.42773 140.78711 C 155.65879 140.95646 154.89907 141.06311 154.14844 141.07227 C 151.20539 141.1455 148.21123 140.3943 145.27734 139.54297 C 145.29565 139.63909 145.33704 139.73396 145.38281 139.83008 C 146.08768 141.57393 143.55683 145.12637 141.70312 143.45117 C 139.30017 141.26334 136.5671 139.6652 133.84375 138.04492 C 134.69508 141.24886 136.03639 144.302 136.6543 147.63867 C 137.07996 149.88143 132.87469 152.77997 132.34375 149.91016 C 131.28187 144.24377 128.61634 139.55601 128.66211 133.66992 C 128.66955 132.33113 130.1741 130.7332 131.58203 130.77734 z "
       transform="translate(-7.6293945e-6,832.36216)"
       id="rect4809" />
    <g
       id="g3389"
       transform="matrix(0.2,0,0,0.2,29.999992,862.36226)">
      <g
         id="g3339" />
      <g
         id="g3353" />
      <g
         id="g3355" />
      <g
         id="g3357" />
      <g
         id="g3359" />
      <g
         id="g3361" />
      <g
         id="g3363" />
      <g
         id="g3365" />
      <g
         id="g3367" />
      <g
         id="g3369" />
      <g
         id="g3371" />
      <g
         id="g3373" />
      <g
         id="g3375" />
      <g
         id="g3377" />
      <g
         id="g3379" />
      <g
         id="g3381" />
    </g>
    <g
       style="font-style:normal;font-variant:normal;font-weight:bold;font-stretch:normal;font-size:9.57567501px;line-height:125%;font-family:Arial;-inkscape-font-specification:'Arial, Bold';text-align:start;letter-spacing:0px;word-spacing:0px;writing-mode:lr-tb;text-anchor:start;fill:#000000;fill-opacity:1;stroke:none;stroke-width:1px;stroke-linecap:butt;stroke-linejoin:miter;stroke-opacity:1"
       id="text4773" />
    <g
       id="g4193"
       transform="matrix(4.5770518,0,0,4.5770518,29.999992,862.36216)">
      <g
         id="g4153" />
      <g
         id="g4157" />
      <g
         id="g4159" />
      <g
         id="g4161" />
      <g
         id="g4163" />
      <g
         id="g4165" />
      <g
         id="g4167" />
      <g
         id="g4169" />
      <g
         id="g4171" />
      <g
         id="g4173" />
      <g
         id="g4175" />
      <g
         id="g4177" />
      <g
         id="g4179" />
      <g
         id="g4181" />
      <g
         id="g4183" />
      <g
         id="g4185" />
    </g>
  </g>
</svg>
