<?xml version="1.0" encoding="UTF-8" standalone="no"?>
<!-- Created with Inkscape (http://www.inkscape.org/) -->

<svg
   xmlns:dc="http://purl.org/dc/elements/1.1/"
   xmlns:cc="http://creativecommons.org/ns#"
   xmlns:rdf="http://www.w3.org/1999/02/22-rdf-syntax-ns#"
   xmlns:svg="http://www.w3.org/2000/svg"
   xmlns="http://www.w3.org/2000/svg"
   xmlns:sodipodi="http://sodipodi.sourceforge.net/DTD/sodipodi-0.dtd"
   xmlns:inkscape="http://www.inkscape.org/namespaces/inkscape"
   width="220"
   height="220"
   viewBox="0 0 220 220"
   id="svg2"
   version="1.1"
   inkscape:version="0.91 r13725"
   sodipodi:docname="ufu_pide.svg">
  <defs
     id="defs4" />
  <sodipodi:namedview
     id="base"
     pagecolor="#ffffff"
     bordercolor="#666666"
     borderopacity="1.0"
     inkscape:pageopacity="0.0"
     inkscape:pageshadow="2"
     inkscape:zoom="2.0923932"
     inkscape:cx="30.758009"
     inkscape:cy="98.905755"
     inkscape:document-units="px"
     inkscape:current-layer="g4568"
     showgrid="false"
     units="px"
     inkscape:window-width="1600"
     inkscape:window-height="847"
     inkscape:window-x="1432"
     inkscape:window-y="-8"
     inkscape:window-maximized="1" />
  <metadata
     id="metadata7">
    <rdf:RDF>
      <cc:Work
         rdf:about="">
        <dc:format>image/svg+xml</dc:format>
        <dc:type
           rdf:resource="http://purl.org/dc/dcmitype/StillImage" />
        <dc:title></dc:title>
      </cc:Work>
    </rdf:RDF>
  </metadata>
  <g
     inkscape:label="Camada 1"
     inkscape:groupmode="layer"
     id="layer1"
     transform="translate(0,-832.36216)">
    <g
       id="g4157"
       transform="translate(-30.443675,816.45148)" />
    <g
       id="g4159"
       transform="translate(-30.443675,816.45148)" />
    <g
       id="g4161"
       transform="translate(-30.443675,816.45148)" />
    <g
       id="g4163"
       transform="translate(-30.443675,816.45148)" />
    <g
       id="g4165"
       transform="translate(-30.443675,816.45148)" />
    <g
       id="g4167"
       transform="translate(-30.443675,816.45148)" />
    <g
       id="g4169"
       transform="translate(-30.443675,816.45148)" />
    <g
       id="g4171"
       transform="translate(-30.443675,816.45148)" />
    <g
       id="g4173"
       transform="translate(-30.443675,816.45148)" />
    <g
       id="g4175"
       transform="translate(-30.443675,816.45148)" />
    <g
       id="g4177"
       transform="translate(-30.443675,816.45148)" />
    <g
       id="g4179"
       transform="translate(-30.443675,816.45148)" />
    <g
       id="g4181"
       transform="translate(-30.443675,816.45148)" />
    <g
       id="g4183"
       transform="translate(-30.443675,816.45148)" />
    <g
       id="g4185"
       transform="translate(-30.443675,816.45148)" />
    <g
       id="g4505"
       transform="matrix(2.1648564,0,0,2.1648564,550.54342,-937.62931)">
      <g
         id="g4568">
        <path
           style="color:#000000;clip-rule:nonzero;display:inline;overflow:visible;visibility:visible;opacity:1;isolation:auto;mix-blend-mode:normal;color-interpolation:sRGB;color-interpolation-filters:linearRGB;solid-color:#000000;solid-opacity:1;fill:#ffffff;fill-opacity:1;fill-rule:nonzero;stroke:none;stroke-width:2;stroke-linecap:square;stroke-linejoin:miter;stroke-miterlimit:4;stroke-dasharray:none;stroke-dashoffset:0;stroke-opacity:1;color-rendering:auto;image-rendering:auto;shape-rendering:auto;text-rendering:auto;enable-background:accumulate"
           d="M 0 0 L 0 220 L 220 220 L 220 0 L 0 0 z M 49.537109 50.742188 A 13.914123 13.914123 0 0 1 63.451172 64.65625 A 13.914123 13.914123 0 0 1 49.537109 78.570312 A 13.914123 13.914123 0 0 1 35.623047 64.65625 A 13.914123 13.914123 0 0 1 49.537109 50.742188 z M 170.45898 50.742188 A 13.914123 13.914123 0 0 1 184.37305 64.65625 A 13.914123 13.914123 0 0 1 170.45898 78.570312 A 13.914123 13.914123 0 0 1 156.54492 64.65625 A 13.914123 13.914123 0 0 1 170.45898 50.742188 z M 109.81836 63.652344 A 9.7051904 9.7051904 0 0 1 119.52539 73.359375 A 9.7051904 9.7051904 0 0 1 109.81836 83.0625 A 9.7051904 9.7051904 0 0 1 100.11523 73.359375 A 9.7051904 9.7051904 0 0 1 109.81836 63.652344 z M 46.509766 79.021484 L 46.511719 79.021484 C 48.071043 78.98702 49.535156 79.425781 49.535156 79.425781 C 52.610378 80.180732 55.827177 82.110613 57.662109 84.974609 C 57.686139 85.004484 57.710773 85.024812 57.732422 85.054688 C 66.588092 97.157815 69.110189 100.05538 78.052734 97.126953 L 73.039062 88.847656 C 72.610659 88.139142 72.838361 87.220934 73.546875 86.791016 C 74.253895 86.364128 75.173159 86.588361 75.601562 87.296875 L 80.957031 96.146484 C 83.581378 95.467932 86.353631 96.830018 87.34375 99.419922 C 88.095713 101.38219 87.609634 103.49462 86.292969 104.95508 L 87.388672 106.77148 C 87.817075 107.48 87.591327 108.39926 86.882812 108.82617 C 86.638638 108.97295 86.374505 109.04297 86.109375 109.04297 C 85.60308 109.04297 85.107776 108.78812 84.826172 108.32227 L 83.763672 106.56641 C 79.487128 108.15569 75.807061 108.87695 72.582031 108.87695 C 67.099684 108.87695 62.900835 106.82482 59.1875 103.56836 L 59.1875 118.7793 L 70.257812 118.77148 L 70.259766 118.77148 C 73.501248 118.77148 76.227086 121.19939 76.601562 124.41992 L 80.916016 161.60742 C 81.323442 165.10955 78.809669 168.27916 75.310547 168.68359 C 75.058882 168.70957 74.810121 168.72656 74.564453 168.72656 C 71.369407 168.72656 68.607933 166.33355 68.230469 163.08008 L 64.576172 131.54102 L 47.449219 131.55469 C 47.106197 131.57699 46.764896 131.60742 46.421875 131.60742 C 40.284918 131.61043 33.654297 127.47894 33.654297 120.80273 L 33.650391 90.089844 C 33.650391 84.367804 38.635424 80.555599 43.316406 79.408203 L 43.357422 79.402344 C 43.357422 79.402344 45.017855 79.052875 46.509766 79.021484 z M 173.49023 79.021484 C 174.97916 79.054433 176.64258 79.402344 176.64258 79.402344 L 176.68164 79.410156 C 181.36262 80.557552 186.34375 84.369757 186.34375 90.091797 L 186.34375 120.80664 C 186.34375 127.48284 179.72108 131.61349 173.57812 131.61133 C 173.23811 131.61133 172.88974 131.58111 172.55273 131.55859 L 155.42578 131.54297 L 151.76953 163.08203 C 151.39205 166.3325 148.63163 168.73047 145.43359 168.73047 C 145.18793 168.73047 144.94397 168.71738 144.69531 168.6875 C 141.1887 168.28306 138.68001 165.11148 139.08594 161.60938 L 143.39844 124.41992 C 143.76993 121.19939 146.49634 118.77148 149.73633 118.77148 L 149.74414 118.77148 L 160.8125 118.7793 L 160.8125 103.56836 C 157.09919 106.82482 152.90229 108.87891 147.41992 108.87891 C 144.0736 108.87891 140.25025 108.11354 135.77148 106.39844 C 135.49137 106.2921 135.23602 106.15068 134.98438 106.00391 L 133.58008 108.32422 C 133.29997 108.78858 132.80662 109.04492 132.29883 109.04492 C 132.0337 109.04492 131.7661 108.97295 131.52344 108.82617 C 130.81488 108.39926 130.58917 107.48 131.01758 106.77148 L 132.86133 103.71875 C 132.22313 102.42007 132.09513 100.88038 132.65234 99.419922 C 133.45973 97.315357 135.43753 96.008545 137.55859 95.953125 L 142.80078 87.296875 C 143.23068 86.588382 144.14845 86.367115 144.85547 86.791016 C 145.56552 87.220934 145.79318 88.139142 145.36328 88.847656 L 140.63086 96.667969 C 150.65789 100.30488 152.99355 97.730489 162.26562 85.056641 C 162.28814 85.026766 162.31386 85.006438 162.33789 84.976562 C 164.17434 82.112544 167.39008 80.182685 170.4668 79.427734 C 170.4668 79.427734 171.93091 78.987063 173.49023 79.021484 z M 108.58594 83.537109 L 111.41602 83.537109 C 118.46749 84.052324 126.15792 88.130662 126.50586 88.316406 C 126.53768 88.327014 126.563 88.369188 126.58984 88.388672 C 126.86296 88.545104 127.07889 88.801547 127.3125 89.035156 C 127.49387 89.217654 127.68786 89.34556 127.83594 89.5625 C 128.01517 89.812801 128.13034 90.136234 128.27344 90.435547 C 128.40751 90.720269 128.57641 90.98203 128.67383 91.310547 C 128.75631 91.601525 128.77574 91.927598 128.83008 92.236328 C 128.89719 92.635766 128.98765 93.028395 128.99414 93.441406 C 128.99414 93.501806 129.01562 93.539629 129.01562 93.59375 L 129.01562 109.99609 L 138.9082 109.99609 C 141.7662 109.99609 144.08398 112.31581 144.08398 115.17383 C 144.08398 118.03036 141.7662 120.34766 138.9082 120.34766 L 131.80664 120.34766 L 131.80664 166.31055 L 85.96875 166.31055 L 85.96875 120.34766 L 78.869141 120.34766 C 76.011119 120.34766 73.693359 118.03334 73.693359 115.17383 C 73.693359 112.31431 76.011119 109.99609 78.869141 109.99609 L 90.986328 109.99609 L 90.990234 93.580078 C 90.990234 93.534183 91.009766 93.48925 91.009766 93.441406 C 91.019724 93.022139 91.104327 92.641625 91.169922 92.242188 C 91.229239 91.923044 91.247616 91.595644 91.337891 91.304688 C 91.43388 90.981366 91.594944 90.730034 91.728516 90.445312 C 91.871764 90.140782 91.986111 89.812305 92.164062 89.554688 C 92.310125 89.345064 92.508673 89.223094 92.683594 89.046875 C 92.921425 88.806987 93.144158 88.545191 93.417969 88.388672 C 93.448926 88.368755 93.466671 88.329395 93.503906 88.316406 C 93.846884 88.127652 101.53801 84.051263 108.58594 83.537109 z M 25.400391 85.136719 C 28.384234 85.136719 30.802734 87.556275 30.802734 90.537109 L 30.802734 133.38672 L 57.486328 133.38672 C 60.470171 133.38672 62.888672 135.80628 62.888672 138.78711 C 62.888672 140.83177 61.747393 142.61107 60.074219 143.5293 C 61.06884 145.34327 61.634766 147.42191 61.634766 149.63281 L 61.634766 164.73242 C 61.634766 167.23093 59.607879 169.25781 57.109375 169.25781 C 54.610849 169.25781 52.585938 167.23093 52.585938 164.73242 L 52.585938 149.63281 C 52.585938 147.58668 50.923433 145.92969 48.884766 145.92969 L 33.783203 145.92969 C 31.740055 145.92969 30.082031 147.59116 30.082031 149.63281 L 30.082031 164.73242 C 30.082031 167.23093 28.055166 169.25781 25.556641 169.25781 C 23.061124 169.25781 21.035156 167.23093 21.035156 164.73242 L 21.035156 149.63281 C 21.035156 147.38294 21.621764 145.26958 22.652344 143.43164 C 21.067539 142.48945 20 140.76241 20 138.78516 L 20 90.537109 C 20 87.557769 22.416547 85.136719 25.400391 85.136719 z M 194.60156 85.136719 C 197.58242 85.136719 200 87.556275 200 90.537109 L 200 138.78711 C 200 140.76436 198.93324 142.4875 197.35742 143.42969 C 198.38651 145.26912 198.97461 147.38294 198.97461 149.63281 L 198.97461 164.73242 C 198.97461 167.23095 196.94968 169.25586 194.45117 169.25586 C 191.95265 169.25586 189.92578 167.23095 189.92578 164.73242 L 189.92578 149.62891 C 189.92578 147.58275 188.26626 145.92578 186.22461 145.92578 L 171.12305 145.92578 C 169.07689 145.92578 167.42188 147.58723 167.42188 149.62891 L 167.42188 164.72852 C 167.42188 167.22704 165.392 169.25391 162.89648 169.25391 C 160.39796 169.25391 158.37305 167.22704 158.37305 164.72852 L 158.37305 149.62695 C 158.37305 147.42051 158.93612 145.33935 159.92773 143.52539 C 158.25157 142.61165 157.11523 140.82589 157.11523 138.78125 C 157.11523 135.80189 159.53373 133.38477 162.51758 133.38477 L 189.19922 133.38477 L 189.19922 90.537109 C 189.19922 87.556275 191.61772 85.136719 194.60156 85.136719 z M 99.373047 97.361328 C 99.1077 97.478144 98.853549 97.589018 98.609375 97.695312 L 98.597656 109.99609 L 99.373047 109.99609 L 99.373047 97.361328 z M 120.65625 97.361328 L 120.65625 109.99609 L 121.41406 109.99609 L 121.41406 97.689453 C 121.17835 97.584111 120.92655 97.47823 120.65625 97.361328 z "
           transform="matrix(0.4619244,0,0,0.4619244,-254.30944,817.60225)"
           id="rect4586" />
        <g
           transform="translate(-257.94306,799.68535)"
           id="g4297">
          <g
             id="g4299" />
        </g>
      </g>
      <g
         id="g4315"
         transform="translate(-257.94306,799.68535)" />
      <g
         id="g4317"
         transform="translate(-257.94306,799.68535)" />
      <g
         id="g4319"
         transform="translate(-257.94306,799.68535)" />
      <g
         id="g4321"
         transform="translate(-257.94306,799.68535)" />
      <g
         id="g4323"
         transform="translate(-257.94306,799.68535)" />
      <g
         id="g4325"
         transform="translate(-257.94306,799.68535)" />
      <g
         id="g4327"
         transform="translate(-257.94306,799.68535)" />
      <g
         id="g4329"
         transform="translate(-257.94306,799.68535)" />
      <g
         id="g4331"
         transform="translate(-257.94306,799.68535)" />
      <g
         id="g4333"
         transform="translate(-257.94306,799.68535)" />
      <g
         id="g4335"
         transform="translate(-257.94306,799.68535)" />
      <g
         id="g4337"
         transform="translate(-257.94306,799.68535)" />
      <g
         id="g4339"
         transform="translate(-257.94306,799.68535)" />
      <g
         id="g4341"
         transform="translate(-257.94306,799.68535)" />
      <g
         id="g4343"
         transform="translate(-257.94306,799.68535)" />
    </g>
  </g>
</svg>
