<?xml version="1.0" encoding="UTF-8" standalone="no"?>
<!-- Created with Inkscape (http://www.inkscape.org/) -->

<svg
   xmlns:dc="http://purl.org/dc/elements/1.1/"
   xmlns:cc="http://creativecommons.org/ns#"
   xmlns:rdf="http://www.w3.org/1999/02/22-rdf-syntax-ns#"
   xmlns:svg="http://www.w3.org/2000/svg"
   xmlns="http://www.w3.org/2000/svg"
   xmlns:sodipodi="http://sodipodi.sourceforge.net/DTD/sodipodi-0.dtd"
   xmlns:inkscape="http://www.inkscape.org/namespaces/inkscape"
   width="220"
   height="220"
   viewBox="0 0 220 220"
   id="svg2"
   version="1.1"
   inkscape:version="0.91 r13725"
   sodipodi:docname="ufu_pesquisa_pos_graduacao.svg">
  <defs
     id="defs4" />
  <sodipodi:namedview
     id="base"
     pagecolor="#ffffff"
     bordercolor="#666666"
     borderopacity="1.0"
     inkscape:pageopacity="0.0"
     inkscape:pageshadow="2"
     inkscape:zoom="2.9590909"
     inkscape:cx="110"
     inkscape:cy="113.40177"
     inkscape:document-units="px"
     inkscape:current-layer="layer1"
     showgrid="false"
     units="px"
     inkscape:window-width="1440"
     inkscape:window-height="847"
     inkscape:window-x="-8"
     inkscape:window-y="-8"
     inkscape:window-maximized="1" />
  <metadata
     id="metadata7">
    <rdf:RDF>
      <cc:Work
         rdf:about="">
        <dc:format>image/svg+xml</dc:format>
        <dc:type
           rdf:resource="http://purl.org/dc/dcmitype/StillImage" />
        <dc:title></dc:title>
      </cc:Work>
    </rdf:RDF>
  </metadata>
  <g
     inkscape:label="Camada 1"
     inkscape:groupmode="layer"
     id="layer1"
     transform="translate(0,-832.36216)">
    <g
       id="g3383"
       transform="matrix(0.42025415,0,0,0.42025415,30,862.36237)">
      <g
         id="g3339">
        <g
           id="g3341" />
      </g>
      <g
         id="g3347" />
      <g
         id="g3349" />
      <g
         id="g3351" />
      <g
         id="g3353" />
      <g
         id="g3355" />
      <g
         id="g3357" />
      <g
         id="g3359" />
      <g
         id="g3361" />
      <g
         id="g3363" />
      <g
         id="g3365" />
      <g
         id="g3367" />
      <g
         id="g3369" />
      <g
         id="g3371" />
      <g
         id="g3373" />
      <g
         id="g3375" />
    </g>
    <path
       style="color:#000000;clip-rule:nonzero;display:inline;overflow:visible;visibility:visible;opacity:1;isolation:auto;mix-blend-mode:normal;color-interpolation:sRGB;color-interpolation-filters:linearRGB;solid-color:#000000;solid-opacity:1;fill:#ffffff;fill-opacity:1;fill-rule:nonzero;stroke:none;stroke-width:5;stroke-linecap:square;stroke-linejoin:miter;stroke-miterlimit:4;stroke-dasharray:none;stroke-dashoffset:0;stroke-opacity:1;color-rendering:auto;image-rendering:auto;shape-rendering:auto;text-rendering:auto;enable-background:accumulate"
       d="M 0 0 L 0 220 L 220 220 L 220 0 L 0 0 z M 59.0625 40 C 66.508116 40 73.952677 42.833638 79.621094 48.501953 C 89.074157 57.955222 90.643902 72.351634 84.332031 83.447266 L 107.75 106.86523 C 110.75114 109.86617 110.75094 114.74947 107.75 117.75 C 104.74947 120.75053 99.865963 120.75073 96.865234 117.75 L 73.447266 94.332031 C 62.351636 100.6439 47.955015 99.074156 38.501953 89.621094 C 27.165324 78.284462 27.165526 59.838585 38.501953 48.501953 C 44.170166 42.833638 51.616886 40 59.0625 40 z M 59.0625 48.185547 C 53.714246 48.185547 48.364683 50.221357 44.292969 54.292969 C 36.149742 62.436193 36.149742 75.686853 44.292969 83.830078 C 52.436398 91.973508 65.686852 91.973508 73.830078 83.830078 C 81.973303 75.687057 81.973507 62.436193 73.830078 54.292969 C 69.758464 50.221357 64.410754 48.185547 59.0625 48.185547 z M 133.74414 83.691406 L 136.03906 83.691406 L 161.79688 83.691406 L 164.30273 83.691406 C 165.41229 83.691406 166.31055 84.589722 166.31055 85.697266 L 166.31055 89.751953 C 166.31055 90.861502 165.41229 91.759766 164.30273 91.759766 L 161.79688 91.759766 L 161.79688 115.84766 L 187.12695 163.29297 C 193.26058 172.51848 189.25131 180 178.17188 180 L 121.99414 180 C 110.91269 180 106.76359 172.42782 112.72266 163.08594 L 136.03906 115.84961 L 136.03906 91.759766 L 133.74414 91.759766 C 132.6346 91.759766 131.73633 90.861502 131.73633 89.751953 L 131.73633 85.697266 C 131.73633 84.589722 132.6346 83.691406 133.74414 83.691406 z M 144.0625 91.759766 L 144.0625 115.84961 L 144.0625 117.72266 L 143.23438 119.40234 L 133.08789 139.95898 L 165.57227 139.95898 L 154.7168 119.63086 L 153.77148 117.85938 L 153.77148 115.84961 L 153.77148 91.759766 L 144.0625 91.759766 z "
       transform="translate(0,832.36216)"
       id="rect3406" />
    <g
       id="g3455"
       transform="matrix(0.27604245,0,0,0.27604245,30,862.36216)">
      <g
         id="g3409">
        <g
           id="g3411" />
      </g>
      <g
         id="g3419" />
      <g
         id="g3421" />
      <g
         id="g3423" />
      <g
         id="g3425" />
      <g
         id="g3427" />
      <g
         id="g3429" />
      <g
         id="g3431" />
      <g
         id="g3433" />
      <g
         id="g3435" />
      <g
         id="g3437" />
      <g
         id="g3439" />
      <g
         id="g3441" />
      <g
         id="g3443" />
      <g
         id="g3445" />
      <g
         id="g3447" />
    </g>
    <g
       id="g3522"
       transform="matrix(2.006427,0,0,2.006427,101.84549,916.05366)">
      <g
         id="g3480">
        <g
           id="g3482" />
      </g>
      <g
         id="g3486" />
      <g
         id="g3488" />
      <g
         id="g3490" />
      <g
         id="g3492" />
      <g
         id="g3494" />
      <g
         id="g3496" />
      <g
         id="g3498" />
      <g
         id="g3500" />
      <g
         id="g3502" />
      <g
         id="g3504" />
      <g
         id="g3506" />
      <g
         id="g3508" />
      <g
         id="g3510" />
      <g
         id="g3512" />
      <g
         id="g3514" />
    </g>
    <g
       id="g3585"
       transform="matrix(0.20475885,0,0,0.20475885,30.000026,872.36208)">
      <g
         id="g3543">
        <g
           id="g3545" />
      </g>
      <g
         id="g3549" />
      <g
         id="g3551" />
      <g
         id="g3553" />
      <g
         id="g3555" />
      <g
         id="g3557" />
      <g
         id="g3559" />
      <g
         id="g3561" />
      <g
         id="g3563" />
      <g
         id="g3565" />
      <g
         id="g3567" />
      <g
         id="g3569" />
      <g
         id="g3571" />
      <g
         id="g3573" />
      <g
         id="g3575" />
      <g
         id="g3577" />
    </g>
  </g>
</svg>
